<?xml version="1.0" encoding="utf-8" standalone="no"?>
<!DOCTYPE svg PUBLIC "-//W3C//DTD SVG 1.1//EN"
  "http://www.w3.org/Graphics/SVG/1.1/DTD/svg11.dtd">
<svg xmlns:xlink="http://www.w3.org/1999/xlink" width="233.461953pt" height="228.606812pt" viewBox="0 0 233.461953 228.606812" xmlns="http://www.w3.org/2000/svg" version="1.1">
 <metadata>
  <rdf:RDF xmlns:dc="http://purl.org/dc/elements/1.1/" xmlns:cc="http://creativecommons.org/ns#" xmlns:rdf="http://www.w3.org/1999/02/22-rdf-syntax-ns#">
   <cc:Work>
    <dc:type rdf:resource="http://purl.org/dc/dcmitype/StillImage"/>
    <dc:date>2025-09-22T16:06:34.408366</dc:date>
    <dc:format>image/svg+xml</dc:format>
    <dc:creator>
     <cc:Agent>
      <dc:title>Matplotlib v3.10.6, https://matplotlib.org/</dc:title>
     </cc:Agent>
    </dc:creator>
   </cc:Work>
  </rdf:RDF>
 </metadata>
 <defs>
  <style type="text/css">*{stroke-linejoin: round; stroke-linecap: butt}</style>
 </defs>
 <g id="figure_1">
  <g id="patch_1">
   <path d="M 0 228.606812 
L 233.461953 228.606812 
L 233.461953 0 
L 0 0 
L 0 228.606812 
z
" style="fill: none"/>
  </g>
  <g id="axes_1">
   <g id="patch_2">
    <path d="M 45.774688 191.506031 
L 218.754688 191.506031 
L 218.754688 19.642031 
L 45.774688 19.642031 
L 45.774688 191.506031 
z
" style="fill: none"/>
   </g>
   <g id="matplotlib.axis_1">
    <g id="xtick_1">
     <g id="line2d_1">
      <defs>
       <path id="m142c2ddeb2" d="M 0 0 
L 0 3.5 
" style="stroke: #000000; stroke-width: 0.8"/>
      </defs>
      <g>
       <use xlink:href="#m142c2ddeb2" x="45.774688" y="191.506031" style="stroke: #000000; stroke-width: 0.8"/>
      </g>
     </g>
     <g id="text_1">
      <!-- 0 -->
      <g transform="translate(43.272266 204.948062) scale(0.09 -0.09)">
       <defs>
        <path id="ArialMT-30" d="M 266 2259 
Q 266 3072 433 3567 
Q 600 4063 929 4331 
Q 1259 4600 1759 4600 
Q 2128 4600 2406 4451 
Q 2684 4303 2865 4023 
Q 3047 3744 3150 3342 
Q 3253 2941 3253 2259 
Q 3253 1453 3087 958 
Q 2922 463 2592 192 
Q 2263 -78 1759 -78 
Q 1097 -78 719 397 
Q 266 969 266 2259 
z
M 844 2259 
Q 844 1131 1108 757 
Q 1372 384 1759 384 
Q 2147 384 2411 759 
Q 2675 1134 2675 2259 
Q 2675 3391 2411 3762 
Q 2147 4134 1753 4134 
Q 1366 4134 1134 3806 
Q 844 3388 844 2259 
z
" transform="scale(0.015625)"/>
       </defs>
       <use xlink:href="#ArialMT-30"/>
      </g>
     </g>
    </g>
    <g id="xtick_2">
     <g id="line2d_2">
      <g>
       <use xlink:href="#m142c2ddeb2" x="89.019688" y="191.506031" style="stroke: #000000; stroke-width: 0.8"/>
      </g>
     </g>
     <g id="text_2">
      <!-- 100 -->
      <g transform="translate(81.512422 204.948062) scale(0.09 -0.09)">
       <defs>
        <path id="ArialMT-31" d="M 2384 0 
L 1822 0 
L 1822 3584 
Q 1619 3391 1289 3197 
Q 959 3003 697 2906 
L 697 3450 
Q 1169 3672 1522 3987 
Q 1875 4303 2022 4600 
L 2384 4600 
L 2384 0 
z
" transform="scale(0.015625)"/>
       </defs>
       <use xlink:href="#ArialMT-31"/>
       <use xlink:href="#ArialMT-30" transform="translate(55.615234 0)"/>
       <use xlink:href="#ArialMT-30" transform="translate(111.230469 0)"/>
      </g>
     </g>
    </g>
    <g id="xtick_3">
     <g id="line2d_3">
      <g>
       <use xlink:href="#m142c2ddeb2" x="132.264688" y="191.506031" style="stroke: #000000; stroke-width: 0.8"/>
      </g>
     </g>
     <g id="text_3">
      <!-- 200 -->
      <g transform="translate(124.757422 204.948062) scale(0.09 -0.09)">
       <defs>
        <path id="ArialMT-32" d="M 3222 541 
L 3222 0 
L 194 0 
Q 188 203 259 391 
Q 375 700 629 1000 
Q 884 1300 1366 1694 
Q 2113 2306 2375 2664 
Q 2638 3022 2638 3341 
Q 2638 3675 2398 3904 
Q 2159 4134 1775 4134 
Q 1369 4134 1125 3890 
Q 881 3647 878 3216 
L 300 3275 
Q 359 3922 746 4261 
Q 1134 4600 1788 4600 
Q 2447 4600 2831 4234 
Q 3216 3869 3216 3328 
Q 3216 3053 3103 2787 
Q 2991 2522 2730 2228 
Q 2469 1934 1863 1422 
Q 1356 997 1212 845 
Q 1069 694 975 541 
L 3222 541 
z
" transform="scale(0.015625)"/>
       </defs>
       <use xlink:href="#ArialMT-32"/>
       <use xlink:href="#ArialMT-30" transform="translate(55.615234 0)"/>
       <use xlink:href="#ArialMT-30" transform="translate(111.230469 0)"/>
      </g>
     </g>
    </g>
    <g id="xtick_4">
     <g id="line2d_4">
      <g>
       <use xlink:href="#m142c2ddeb2" x="175.509688" y="191.506031" style="stroke: #000000; stroke-width: 0.8"/>
      </g>
     </g>
     <g id="text_4">
      <!-- 300 -->
      <g transform="translate(168.002422 204.948062) scale(0.09 -0.09)">
       <defs>
        <path id="ArialMT-33" d="M 269 1209 
L 831 1284 
Q 928 806 1161 595 
Q 1394 384 1728 384 
Q 2125 384 2398 659 
Q 2672 934 2672 1341 
Q 2672 1728 2419 1979 
Q 2166 2231 1775 2231 
Q 1616 2231 1378 2169 
L 1441 2663 
Q 1497 2656 1531 2656 
Q 1891 2656 2178 2843 
Q 2466 3031 2466 3422 
Q 2466 3731 2256 3934 
Q 2047 4138 1716 4138 
Q 1388 4138 1169 3931 
Q 950 3725 888 3313 
L 325 3413 
Q 428 3978 793 4289 
Q 1159 4600 1703 4600 
Q 2078 4600 2393 4439 
Q 2709 4278 2876 4000 
Q 3044 3722 3044 3409 
Q 3044 3113 2884 2869 
Q 2725 2625 2413 2481 
Q 2819 2388 3044 2092 
Q 3269 1797 3269 1353 
Q 3269 753 2831 336 
Q 2394 -81 1725 -81 
Q 1122 -81 723 278 
Q 325 638 269 1209 
z
" transform="scale(0.015625)"/>
       </defs>
       <use xlink:href="#ArialMT-33"/>
       <use xlink:href="#ArialMT-30" transform="translate(55.615234 0)"/>
       <use xlink:href="#ArialMT-30" transform="translate(111.230469 0)"/>
      </g>
     </g>
    </g>
    <g id="xtick_5">
     <g id="line2d_5">
      <g>
       <use xlink:href="#m142c2ddeb2" x="218.754688" y="191.506031" style="stroke: #000000; stroke-width: 0.8"/>
      </g>
     </g>
     <g id="text_5">
      <!-- 400 -->
      <g transform="translate(211.247422 204.948062) scale(0.09 -0.09)">
       <defs>
        <path id="ArialMT-34" d="M 2069 0 
L 2069 1097 
L 81 1097 
L 81 1613 
L 2172 4581 
L 2631 4581 
L 2631 1613 
L 3250 1613 
L 3250 1097 
L 2631 1097 
L 2631 0 
L 2069 0 
z
M 2069 1613 
L 2069 3678 
L 634 1613 
L 2069 1613 
z
" transform="scale(0.015625)"/>
       </defs>
       <use xlink:href="#ArialMT-34"/>
       <use xlink:href="#ArialMT-30" transform="translate(55.615234 0)"/>
       <use xlink:href="#ArialMT-30" transform="translate(111.230469 0)"/>
      </g>
     </g>
    </g>
    <g id="text_6">
     <!-- $\bf{molar\ mass}\ \it{(kg/mol)}$ -->
     <g transform="translate(71.764688 219.096812) scale(0.11 -0.11)">
      <defs>
       <path id="DejaVuSans-Bold-6d" d="M 3781 2919 
Q 3994 3244 4286 3414 
Q 4578 3584 4928 3584 
Q 5531 3584 5847 3212 
Q 6163 2841 6163 2131 
L 6163 0 
L 5038 0 
L 5038 1825 
Q 5041 1866 5042 1909 
Q 5044 1953 5044 2034 
Q 5044 2406 4934 2573 
Q 4825 2741 4581 2741 
Q 4263 2741 4089 2478 
Q 3916 2216 3909 1719 
L 3909 0 
L 2784 0 
L 2784 1825 
Q 2784 2406 2684 2573 
Q 2584 2741 2328 2741 
Q 2006 2741 1831 2477 
Q 1656 2213 1656 1722 
L 1656 0 
L 531 0 
L 531 3500 
L 1656 3500 
L 1656 2988 
Q 1863 3284 2130 3434 
Q 2397 3584 2719 3584 
Q 3081 3584 3359 3409 
Q 3638 3234 3781 2919 
z
" transform="scale(0.015625)"/>
       <path id="DejaVuSans-Bold-6f" d="M 2203 2784 
Q 1831 2784 1636 2517 
Q 1441 2250 1441 1747 
Q 1441 1244 1636 976 
Q 1831 709 2203 709 
Q 2569 709 2762 976 
Q 2956 1244 2956 1747 
Q 2956 2250 2762 2517 
Q 2569 2784 2203 2784 
z
M 2203 3584 
Q 3106 3584 3614 3096 
Q 4122 2609 4122 1747 
Q 4122 884 3614 396 
Q 3106 -91 2203 -91 
Q 1297 -91 786 396 
Q 275 884 275 1747 
Q 275 2609 786 3096 
Q 1297 3584 2203 3584 
z
" transform="scale(0.015625)"/>
       <path id="DejaVuSans-Bold-6c" d="M 538 4863 
L 1656 4863 
L 1656 0 
L 538 0 
L 538 4863 
z
" transform="scale(0.015625)"/>
       <path id="DejaVuSans-Bold-61" d="M 2106 1575 
Q 1756 1575 1579 1456 
Q 1403 1338 1403 1106 
Q 1403 894 1545 773 
Q 1688 653 1941 653 
Q 2256 653 2472 879 
Q 2688 1106 2688 1447 
L 2688 1575 
L 2106 1575 
z
M 3816 1997 
L 3816 0 
L 2688 0 
L 2688 519 
Q 2463 200 2181 54 
Q 1900 -91 1497 -91 
Q 953 -91 614 226 
Q 275 544 275 1050 
Q 275 1666 698 1953 
Q 1122 2241 2028 2241 
L 2688 2241 
L 2688 2328 
Q 2688 2594 2478 2717 
Q 2269 2841 1825 2841 
Q 1466 2841 1156 2769 
Q 847 2697 581 2553 
L 581 3406 
Q 941 3494 1303 3539 
Q 1666 3584 2028 3584 
Q 2975 3584 3395 3211 
Q 3816 2838 3816 1997 
z
" transform="scale(0.015625)"/>
       <path id="DejaVuSans-Bold-72" d="M 3138 2547 
Q 2991 2616 2845 2648 
Q 2700 2681 2553 2681 
Q 2122 2681 1889 2404 
Q 1656 2128 1656 1613 
L 1656 0 
L 538 0 
L 538 3500 
L 1656 3500 
L 1656 2925 
Q 1872 3269 2151 3426 
Q 2431 3584 2822 3584 
Q 2878 3584 2943 3579 
Q 3009 3575 3134 3559 
L 3138 2547 
z
" transform="scale(0.015625)"/>
       <path id="DejaVuSans-Bold-73" d="M 3272 3391 
L 3272 2541 
Q 2913 2691 2578 2766 
Q 2244 2841 1947 2841 
Q 1628 2841 1473 2761 
Q 1319 2681 1319 2516 
Q 1319 2381 1436 2309 
Q 1553 2238 1856 2203 
L 2053 2175 
Q 2913 2066 3209 1816 
Q 3506 1566 3506 1031 
Q 3506 472 3093 190 
Q 2681 -91 1863 -91 
Q 1516 -91 1145 -36 
Q 775 19 384 128 
L 384 978 
Q 719 816 1070 734 
Q 1422 653 1784 653 
Q 2113 653 2278 743 
Q 2444 834 2444 1013 
Q 2444 1163 2330 1236 
Q 2216 1309 1875 1350 
L 1678 1375 
Q 931 1469 631 1722 
Q 331 1975 331 2491 
Q 331 3047 712 3315 
Q 1094 3584 1881 3584 
Q 2191 3584 2531 3537 
Q 2872 3491 3272 3391 
z
" transform="scale(0.015625)"/>
       <path id="DejaVuSans-28" d="M 1984 4856 
Q 1566 4138 1362 3434 
Q 1159 2731 1159 2009 
Q 1159 1288 1364 580 
Q 1569 -128 1984 -844 
L 1484 -844 
Q 1016 -109 783 600 
Q 550 1309 550 2009 
Q 550 2706 781 3412 
Q 1013 4119 1484 4856 
L 1984 4856 
z
" transform="scale(0.015625)"/>
       <path id="DejaVuSans-Oblique-6b" d="M 1172 4863 
L 1747 4863 
L 1197 2028 
L 3169 3500 
L 3916 3500 
L 1716 1825 
L 3322 0 
L 2625 0 
L 1131 1709 
L 800 0 
L 225 0 
L 1172 4863 
z
" transform="scale(0.015625)"/>
       <path id="DejaVuSans-Oblique-67" d="M 3816 3500 
L 3219 434 
Q 3047 -456 2561 -893 
Q 2075 -1331 1253 -1331 
Q 950 -1331 690 -1286 
Q 431 -1241 206 -1147 
L 313 -588 
Q 525 -725 762 -790 
Q 1000 -856 1269 -856 
Q 1816 -856 2167 -557 
Q 2519 -259 2631 300 
L 2681 563 
Q 2441 288 2122 144 
Q 1803 0 1434 0 
Q 903 0 598 351 
Q 294 703 294 1319 
Q 294 1803 478 2267 
Q 663 2731 997 3091 
Q 1219 3328 1514 3456 
Q 1809 3584 2131 3584 
Q 2484 3584 2746 3420 
Q 3009 3256 3138 2956 
L 3238 3500 
L 3816 3500 
z
M 2950 2216 
Q 2950 2641 2750 2872 
Q 2550 3103 2181 3103 
Q 1953 3103 1747 3012 
Q 1541 2922 1394 2759 
Q 1156 2491 1023 2127 
Q 891 1763 891 1375 
Q 891 944 1092 712 
Q 1294 481 1672 481 
Q 2219 481 2584 976 
Q 2950 1472 2950 2216 
z
" transform="scale(0.015625)"/>
       <path id="DejaVuSans-2f" d="M 1625 4666 
L 2156 4666 
L 531 -594 
L 0 -594 
L 1625 4666 
z
" transform="scale(0.015625)"/>
       <path id="DejaVuSans-Oblique-6d" d="M 5747 2113 
L 5338 0 
L 4763 0 
L 5166 2094 
Q 5191 2228 5203 2325 
Q 5216 2422 5216 2491 
Q 5216 2772 5059 2928 
Q 4903 3084 4622 3084 
Q 4203 3084 3875 2770 
Q 3547 2456 3450 1953 
L 3066 0 
L 2491 0 
L 2900 2094 
Q 2925 2209 2937 2307 
Q 2950 2406 2950 2484 
Q 2950 2769 2794 2926 
Q 2638 3084 2363 3084 
Q 1938 3084 1609 2770 
Q 1281 2456 1184 1953 
L 800 0 
L 225 0 
L 909 3500 
L 1484 3500 
L 1375 2956 
Q 1609 3263 1923 3423 
Q 2238 3584 2597 3584 
Q 2978 3584 3223 3384 
Q 3469 3184 3519 2828 
Q 3781 3197 4126 3390 
Q 4472 3584 4856 3584 
Q 5306 3584 5551 3325 
Q 5797 3066 5797 2591 
Q 5797 2488 5784 2364 
Q 5772 2241 5747 2113 
z
" transform="scale(0.015625)"/>
       <path id="DejaVuSans-Oblique-6f" d="M 1625 -91 
Q 1009 -91 651 289 
Q 294 669 294 1325 
Q 294 1706 417 2101 
Q 541 2497 738 2766 
Q 1047 3184 1428 3384 
Q 1809 3584 2291 3584 
Q 2888 3584 3255 3212 
Q 3622 2841 3622 2241 
Q 3622 1825 3500 1412 
Q 3378 1000 3181 728 
Q 2875 309 2494 109 
Q 2113 -91 1625 -91 
z
M 891 1344 
Q 891 869 1089 633 
Q 1288 397 1691 397 
Q 2269 397 2648 901 
Q 3028 1406 3028 2181 
Q 3028 2634 2825 2865 
Q 2622 3097 2228 3097 
Q 1903 3097 1650 2945 
Q 1397 2794 1197 2484 
Q 1050 2253 970 1956 
Q 891 1659 891 1344 
z
" transform="scale(0.015625)"/>
       <path id="DejaVuSans-Oblique-6c" d="M 1172 4863 
L 1747 4863 
L 800 0 
L 225 0 
L 1172 4863 
z
" transform="scale(0.015625)"/>
       <path id="DejaVuSans-29" d="M 513 4856 
L 1013 4856 
Q 1481 4119 1714 3412 
Q 1947 2706 1947 2009 
Q 1947 1309 1714 600 
Q 1481 -109 1013 -844 
L 513 -844 
Q 928 -128 1133 580 
Q 1338 1288 1338 2009 
Q 1338 2731 1133 3434 
Q 928 4138 513 4856 
z
" transform="scale(0.015625)"/>
      </defs>
      <use xlink:href="#DejaVuSans-Bold-6d" transform="translate(0 0.015625)"/>
      <use xlink:href="#DejaVuSans-Bold-6f" transform="translate(104.199219 0.015625)"/>
      <use xlink:href="#DejaVuSans-Bold-6c" transform="translate(172.900391 0.015625)"/>
      <use xlink:href="#DejaVuSans-Bold-61" transform="translate(207.177734 0.015625)"/>
      <use xlink:href="#DejaVuSans-Bold-72" transform="translate(274.658203 0.015625)"/>
      <use xlink:href="#DejaVuSans-Bold-6d" transform="translate(356.444988 0.015625)"/>
      <use xlink:href="#DejaVuSans-Bold-61" transform="translate(460.644207 0.015625)"/>
      <use xlink:href="#DejaVuSans-Bold-73" transform="translate(528.124675 0.015625)"/>
      <use xlink:href="#DejaVuSans-Bold-73" transform="translate(587.64616 0.015625)"/>
      <use xlink:href="#DejaVuSans-28" transform="translate(679.638022 0.015625)"/>
      <use xlink:href="#DejaVuSans-Oblique-6b" transform="translate(718.651694 0.015625)"/>
      <use xlink:href="#DejaVuSans-Oblique-67" transform="translate(776.561851 0.015625)"/>
      <use xlink:href="#DejaVuSans-2f" transform="translate(840.038413 0.015625)"/>
      <use xlink:href="#DejaVuSans-Oblique-6d" transform="translate(873.729819 0.015625)"/>
      <use xlink:href="#DejaVuSans-Oblique-6f" transform="translate(971.141929 0.015625)"/>
      <use xlink:href="#DejaVuSans-Oblique-6c" transform="translate(1032.323569 0.015625)"/>
      <use xlink:href="#DejaVuSans-29" transform="translate(1060.106772 0.015625)"/>
     </g>
    </g>
   </g>
   <g id="matplotlib.axis_2">
    <g id="ytick_1">
     <g id="line2d_6">
      <defs>
       <path id="m1ea0da782a" d="M 0 0 
L -3.5 0 
" style="stroke: #000000; stroke-width: 0.8"/>
      </defs>
      <g>
       <use xlink:href="#m1ea0da782a" x="45.774688" y="191.506031" style="stroke: #000000; stroke-width: 0.8"/>
      </g>
     </g>
     <g id="text_7">
      <!-- 0.00 -->
      <g transform="translate(21.259844 194.727047) scale(0.09 -0.09)">
       <defs>
        <path id="ArialMT-2e" d="M 581 0 
L 581 641 
L 1222 641 
L 1222 0 
L 581 0 
z
" transform="scale(0.015625)"/>
       </defs>
       <use xlink:href="#ArialMT-30"/>
       <use xlink:href="#ArialMT-2e" transform="translate(55.615234 0)"/>
       <use xlink:href="#ArialMT-30" transform="translate(83.398438 0)"/>
       <use xlink:href="#ArialMT-30" transform="translate(139.013672 0)"/>
      </g>
     </g>
    </g>
    <g id="ytick_2">
     <g id="line2d_7">
      <g>
       <use xlink:href="#m1ea0da782a" x="45.774688" y="164.65771" style="stroke: #000000; stroke-width: 0.8"/>
      </g>
     </g>
     <g id="text_8">
      <!-- 0.01 -->
      <g transform="translate(21.259844 167.878725) scale(0.09 -0.09)">
       <use xlink:href="#ArialMT-30"/>
       <use xlink:href="#ArialMT-2e" transform="translate(55.615234 0)"/>
       <use xlink:href="#ArialMT-30" transform="translate(83.398438 0)"/>
       <use xlink:href="#ArialMT-31" transform="translate(139.013672 0)"/>
      </g>
     </g>
    </g>
    <g id="ytick_3">
     <g id="line2d_8">
      <g>
       <use xlink:href="#m1ea0da782a" x="45.774688" y="137.809388" style="stroke: #000000; stroke-width: 0.8"/>
      </g>
     </g>
     <g id="text_9">
      <!-- 0.02 -->
      <g transform="translate(21.259844 141.030404) scale(0.09 -0.09)">
       <use xlink:href="#ArialMT-30"/>
       <use xlink:href="#ArialMT-2e" transform="translate(55.615234 0)"/>
       <use xlink:href="#ArialMT-30" transform="translate(83.398438 0)"/>
       <use xlink:href="#ArialMT-32" transform="translate(139.013672 0)"/>
      </g>
     </g>
    </g>
    <g id="ytick_4">
     <g id="line2d_9">
      <g>
       <use xlink:href="#m1ea0da782a" x="45.774688" y="110.961067" style="stroke: #000000; stroke-width: 0.8"/>
      </g>
     </g>
     <g id="text_10">
      <!-- 0.03 -->
      <g transform="translate(21.259844 114.182082) scale(0.09 -0.09)">
       <use xlink:href="#ArialMT-30"/>
       <use xlink:href="#ArialMT-2e" transform="translate(55.615234 0)"/>
       <use xlink:href="#ArialMT-30" transform="translate(83.398438 0)"/>
       <use xlink:href="#ArialMT-33" transform="translate(139.013672 0)"/>
      </g>
     </g>
    </g>
    <g id="ytick_5">
     <g id="line2d_10">
      <g>
       <use xlink:href="#m1ea0da782a" x="45.774688" y="84.112745" style="stroke: #000000; stroke-width: 0.8"/>
      </g>
     </g>
     <g id="text_11">
      <!-- 0.04 -->
      <g transform="translate(21.259844 87.333761) scale(0.09 -0.09)">
       <use xlink:href="#ArialMT-30"/>
       <use xlink:href="#ArialMT-2e" transform="translate(55.615234 0)"/>
       <use xlink:href="#ArialMT-30" transform="translate(83.398438 0)"/>
       <use xlink:href="#ArialMT-34" transform="translate(139.013672 0)"/>
      </g>
     </g>
    </g>
    <g id="ytick_6">
     <g id="line2d_11">
      <g>
       <use xlink:href="#m1ea0da782a" x="45.774688" y="57.264424" style="stroke: #000000; stroke-width: 0.8"/>
      </g>
     </g>
     <g id="text_12">
      <!-- 0.05 -->
      <g transform="translate(21.259844 60.48544) scale(0.09 -0.09)">
       <defs>
        <path id="ArialMT-35" d="M 266 1200 
L 856 1250 
Q 922 819 1161 601 
Q 1400 384 1738 384 
Q 2144 384 2425 690 
Q 2706 997 2706 1503 
Q 2706 1984 2436 2262 
Q 2166 2541 1728 2541 
Q 1456 2541 1237 2417 
Q 1019 2294 894 2097 
L 366 2166 
L 809 4519 
L 3088 4519 
L 3088 3981 
L 1259 3981 
L 1013 2750 
Q 1425 3038 1878 3038 
Q 2478 3038 2890 2622 
Q 3303 2206 3303 1553 
Q 3303 931 2941 478 
Q 2500 -78 1738 -78 
Q 1113 -78 717 272 
Q 322 622 266 1200 
z
" transform="scale(0.015625)"/>
       </defs>
       <use xlink:href="#ArialMT-30"/>
       <use xlink:href="#ArialMT-2e" transform="translate(55.615234 0)"/>
       <use xlink:href="#ArialMT-30" transform="translate(83.398438 0)"/>
       <use xlink:href="#ArialMT-35" transform="translate(139.013672 0)"/>
      </g>
     </g>
    </g>
    <g id="ytick_7">
     <g id="line2d_12">
      <g>
       <use xlink:href="#m1ea0da782a" x="45.774688" y="30.416102" style="stroke: #000000; stroke-width: 0.8"/>
      </g>
     </g>
     <g id="text_13">
      <!-- 0.06 -->
      <g transform="translate(21.259844 33.637118) scale(0.09 -0.09)">
       <defs>
        <path id="ArialMT-36" d="M 3184 3459 
L 2625 3416 
Q 2550 3747 2413 3897 
Q 2184 4138 1850 4138 
Q 1581 4138 1378 3988 
Q 1113 3794 959 3422 
Q 806 3050 800 2363 
Q 1003 2672 1297 2822 
Q 1591 2972 1913 2972 
Q 2475 2972 2870 2558 
Q 3266 2144 3266 1488 
Q 3266 1056 3080 686 
Q 2894 316 2569 119 
Q 2244 -78 1831 -78 
Q 1128 -78 684 439 
Q 241 956 241 2144 
Q 241 3472 731 4075 
Q 1159 4600 1884 4600 
Q 2425 4600 2770 4297 
Q 3116 3994 3184 3459 
z
M 888 1484 
Q 888 1194 1011 928 
Q 1134 663 1356 523 
Q 1578 384 1822 384 
Q 2178 384 2434 671 
Q 2691 959 2691 1453 
Q 2691 1928 2437 2201 
Q 2184 2475 1800 2475 
Q 1419 2475 1153 2201 
Q 888 1928 888 1484 
z
" transform="scale(0.015625)"/>
       </defs>
       <use xlink:href="#ArialMT-30"/>
       <use xlink:href="#ArialMT-2e" transform="translate(55.615234 0)"/>
       <use xlink:href="#ArialMT-30" transform="translate(83.398438 0)"/>
       <use xlink:href="#ArialMT-36" transform="translate(139.013672 0)"/>
      </g>
     </g>
    </g>
    <g id="text_14">
     <!-- $\bf{number\ fraction}\ \it{(-)}$ -->
     <g transform="translate(15.073594 166.294031) rotate(-90) scale(0.11 -0.11)">
      <defs>
       <path id="DejaVuSans-Bold-6e" d="M 4056 2131 
L 4056 0 
L 2931 0 
L 2931 347 
L 2931 1631 
Q 2931 2084 2911 2256 
Q 2891 2428 2841 2509 
Q 2775 2619 2662 2680 
Q 2550 2741 2406 2741 
Q 2056 2741 1856 2470 
Q 1656 2200 1656 1722 
L 1656 0 
L 538 0 
L 538 3500 
L 1656 3500 
L 1656 2988 
Q 1909 3294 2193 3439 
Q 2478 3584 2822 3584 
Q 3428 3584 3742 3212 
Q 4056 2841 4056 2131 
z
" transform="scale(0.015625)"/>
       <path id="DejaVuSans-Bold-75" d="M 500 1363 
L 500 3500 
L 1625 3500 
L 1625 3150 
Q 1625 2866 1622 2436 
Q 1619 2006 1619 1863 
Q 1619 1441 1641 1255 
Q 1663 1069 1716 984 
Q 1784 875 1895 815 
Q 2006 756 2150 756 
Q 2500 756 2700 1025 
Q 2900 1294 2900 1772 
L 2900 3500 
L 4019 3500 
L 4019 0 
L 2900 0 
L 2900 506 
Q 2647 200 2364 54 
Q 2081 -91 1741 -91 
Q 1134 -91 817 281 
Q 500 653 500 1363 
z
" transform="scale(0.015625)"/>
       <path id="DejaVuSans-Bold-62" d="M 2400 722 
Q 2759 722 2948 984 
Q 3138 1247 3138 1747 
Q 3138 2247 2948 2509 
Q 2759 2772 2400 2772 
Q 2041 2772 1848 2508 
Q 1656 2244 1656 1747 
Q 1656 1250 1848 986 
Q 2041 722 2400 722 
z
M 1656 2988 
Q 1888 3294 2169 3439 
Q 2450 3584 2816 3584 
Q 3463 3584 3878 3070 
Q 4294 2556 4294 1747 
Q 4294 938 3878 423 
Q 3463 -91 2816 -91 
Q 2450 -91 2169 54 
Q 1888 200 1656 506 
L 1656 0 
L 538 0 
L 538 4863 
L 1656 4863 
L 1656 2988 
z
" transform="scale(0.015625)"/>
       <path id="DejaVuSans-Bold-65" d="M 4031 1759 
L 4031 1441 
L 1416 1441 
Q 1456 1047 1700 850 
Q 1944 653 2381 653 
Q 2734 653 3104 758 
Q 3475 863 3866 1075 
L 3866 213 
Q 3469 63 3072 -14 
Q 2675 -91 2278 -91 
Q 1328 -91 801 392 
Q 275 875 275 1747 
Q 275 2603 792 3093 
Q 1309 3584 2216 3584 
Q 3041 3584 3536 3087 
Q 4031 2591 4031 1759 
z
M 2881 2131 
Q 2881 2450 2695 2645 
Q 2509 2841 2209 2841 
Q 1884 2841 1681 2658 
Q 1478 2475 1428 2131 
L 2881 2131 
z
" transform="scale(0.015625)"/>
       <path id="DejaVuSans-Bold-66" d="M 2841 4863 
L 2841 4128 
L 2222 4128 
Q 1984 4128 1890 4042 
Q 1797 3956 1797 3744 
L 1797 3500 
L 2753 3500 
L 2753 2700 
L 1797 2700 
L 1797 0 
L 678 0 
L 678 2700 
L 122 2700 
L 122 3500 
L 678 3500 
L 678 3744 
Q 678 4316 997 4589 
Q 1316 4863 1984 4863 
L 2841 4863 
z
" transform="scale(0.015625)"/>
       <path id="DejaVuSans-Bold-63" d="M 3366 3391 
L 3366 2478 
Q 3138 2634 2908 2709 
Q 2678 2784 2431 2784 
Q 1963 2784 1702 2511 
Q 1441 2238 1441 1747 
Q 1441 1256 1702 982 
Q 1963 709 2431 709 
Q 2694 709 2930 787 
Q 3166 866 3366 1019 
L 3366 103 
Q 3103 6 2833 -42 
Q 2563 -91 2291 -91 
Q 1344 -91 809 395 
Q 275 881 275 1747 
Q 275 2613 809 3098 
Q 1344 3584 2291 3584 
Q 2566 3584 2833 3536 
Q 3100 3488 3366 3391 
z
" transform="scale(0.015625)"/>
       <path id="DejaVuSans-Bold-74" d="M 1759 4494 
L 1759 3500 
L 2913 3500 
L 2913 2700 
L 1759 2700 
L 1759 1216 
Q 1759 972 1856 886 
Q 1953 800 2241 800 
L 2816 800 
L 2816 0 
L 1856 0 
Q 1194 0 917 276 
Q 641 553 641 1216 
L 641 2700 
L 84 2700 
L 84 3500 
L 641 3500 
L 641 4494 
L 1759 4494 
z
" transform="scale(0.015625)"/>
       <path id="DejaVuSans-Bold-69" d="M 538 3500 
L 1656 3500 
L 1656 0 
L 538 0 
L 538 3500 
z
M 538 4863 
L 1656 4863 
L 1656 3950 
L 538 3950 
L 538 4863 
z
" transform="scale(0.015625)"/>
       <path id="DejaVuSans-2212" d="M 678 2272 
L 4684 2272 
L 4684 1741 
L 678 1741 
L 678 2272 
z
" transform="scale(0.015625)"/>
      </defs>
      <use xlink:href="#DejaVuSans-Bold-6e" transform="translate(0 0.015625)"/>
      <use xlink:href="#DejaVuSans-Bold-75" transform="translate(71.191406 0.015625)"/>
      <use xlink:href="#DejaVuSans-Bold-6d" transform="translate(142.382812 0.015625)"/>
      <use xlink:href="#DejaVuSans-Bold-62" transform="translate(246.582031 0.015625)"/>
      <use xlink:href="#DejaVuSans-Bold-65" transform="translate(318.164062 0.015625)"/>
      <use xlink:href="#DejaVuSans-Bold-72" transform="translate(385.986328 0.015625)"/>
      <use xlink:href="#DejaVuSans-Bold-66" transform="translate(467.773113 0.015625)"/>
      <use xlink:href="#DejaVuSans-Bold-72" transform="translate(511.278972 0.015625)"/>
      <use xlink:href="#DejaVuSans-Bold-61" transform="translate(560.595378 0.015625)"/>
      <use xlink:href="#DejaVuSans-Bold-63" transform="translate(628.075847 0.015625)"/>
      <use xlink:href="#DejaVuSans-Bold-74" transform="translate(687.353191 0.015625)"/>
      <use xlink:href="#DejaVuSans-Bold-69" transform="translate(735.155925 0.015625)"/>
      <use xlink:href="#DejaVuSans-Bold-6f" transform="translate(769.433269 0.015625)"/>
      <use xlink:href="#DejaVuSans-Bold-6e" transform="translate(838.134441 0.015625)"/>
      <use xlink:href="#DejaVuSans-28" transform="translate(941.796226 0.015625)"/>
      <use xlink:href="#DejaVuSans-2212" transform="translate(980.809897 0.015625)"/>
      <use xlink:href="#DejaVuSans-29" transform="translate(1064.59896 0.015625)"/>
     </g>
    </g>
   </g>
   <g id="line2d_13">
    <path d="M 0 0 
" clip-path="url(#p74b3f87c6a)" style="fill: none; stroke: #46085c; stroke-width: 1.5; stroke-linecap: square"/>
   </g>
   <g id="line2d_14">
    <path d="M 46.985548 191.098632 
L 48.196408 190.284584 
L 49.407268 188.802817 
L 50.618128 186.771991 
L 54.250708 180.105847 
L 55.461568 176.397225 
L 59.094148 169.632026 
L 62.726728 163.580039 
L 65.148448 159.927364 
L 67.570168 156.636189 
L 69.991888 153.756648 
L 72.413608 151.31282 
L 74.835328 149.35067 
L 76.046188 148.518466 
L 78.467908 147.250142 
L 80.889628 146.427051 
L 83.311348 146.093913 
L 85.733068 146.114734 
L 88.154788 146.324298 
L 90.576508 146.794232 
L 96.630808 148.495403 
L 105.106828 151.093724 
L 106.317688 151.567625 
L 109.950268 152.559582 
L 111.161128 153.133689 
L 113.582848 153.825452 
L 116.004568 154.870043 
L 117.215428 155.295052 
L 125.691448 159.439666 
L 131.745748 162.869771 
L 137.800048 166.450368 
L 141.432628 168.640837 
L 147.486928 172.100992 
L 148.697788 172.833159 
L 152.330368 174.761733 
L 155.962948 176.645922 
L 160.806388 178.977597 
L 170.493268 182.875361 
L 171.704128 183.234322 
L 172.914988 183.759111 
L 175.336708 184.438545 
L 176.547568 184.865477 
L 177.758428 185.098628 
L 180.180148 185.839473 
L 181.391008 186.034052 
L 182.601867 186.432693 
L 187.445308 187.436668 
L 198.343048 189.131545 
L 208.029928 190.066909 
L 216.505948 190.598773 
L 229.825408 191.073572 
L 234.461953 191.173757 
L 234.461953 191.173757 
" clip-path="url(#p74b3f87c6a)" style="fill: none; stroke: #471063; stroke-width: 1.5; stroke-linecap: square"/>
   </g>
   <g id="line2d_15">
    <path d="M 46.985548 190.636261 
L 48.196408 188.569592 
L 49.407268 185.368468 
L 54.250708 170.440501 
L 55.461568 165.963872 
L 57.883288 159.865593 
L 59.094148 157.172306 
L 61.515868 152.516906 
L 63.937588 148.686976 
L 66.359308 145.580765 
L 68.781028 143.112133 
L 71.202748 141.190415 
L 73.624468 139.813765 
L 76.046188 138.914129 
L 78.467908 138.48372 
L 80.889628 138.480601 
L 83.311348 138.9275 
L 85.733068 139.709276 
L 88.154788 140.687061 
L 90.576508 141.903292 
L 96.630808 145.434344 
L 107.528548 151.852869 
L 109.950268 153.127464 
L 111.161128 153.927603 
L 114.793708 155.885708 
L 132.956608 166.532311 
L 137.800048 169.354527 
L 141.432628 171.41907 
L 151.119508 176.428114 
L 159.595528 180.144657 
L 163.228108 181.566723 
L 168.071548 183.201756 
L 170.493268 183.991775 
L 171.704128 184.303856 
L 172.914988 184.738088 
L 175.336708 185.325133 
L 176.547568 185.68137 
L 177.758428 185.891496 
L 180.180148 186.512121 
L 181.391008 186.68934 
L 183.812728 187.247576 
L 188.656168 188.049256 
L 191.077888 188.43975 
L 201.975628 189.697828 
L 211.662508 190.397526 
L 222.560248 190.873219 
L 233.457988 191.162245 
L 234.461953 191.181366 
L 234.461953 191.181366 
" clip-path="url(#p74b3f87c6a)" style="fill: none; stroke: #481769; stroke-width: 1.5; stroke-linecap: square"/>
   </g>
   <g id="line2d_16">
    <path d="M 46.985548 189.957638 
L 48.196408 186.055632 
L 50.618128 175.037915 
L 51.828988 169.523286 
L 53.039848 164.560251 
L 54.250708 160.169977 
L 55.461568 155.217133 
L 56.672428 151.589355 
L 57.883288 148.368788 
L 59.094148 145.536193 
L 60.305008 143.096632 
L 61.515868 140.950601 
L 62.726728 139.126456 
L 63.937588 137.546762 
L 65.148448 136.225799 
L 66.359308 135.101934 
L 67.570168 134.182429 
L 68.781028 133.432008 
L 69.991888 132.837891 
L 71.202748 132.375942 
L 73.624468 131.86969 
L 76.046188 131.817046 
L 78.467908 132.185958 
L 80.889628 132.927155 
L 83.311348 134.049606 
L 85.733068 135.454794 
L 89.365648 137.883018 
L 94.209088 141.646189 
L 102.685108 148.275082 
L 107.528548 151.892863 
L 109.950268 153.533114 
L 111.161128 154.468651 
L 131.745748 167.650711 
L 139.010908 171.819634 
L 146.276068 175.562916 
L 154.752088 179.330161 
L 160.806388 181.644887 
L 169.282408 184.314183 
L 174.125848 185.554991 
L 180.180148 186.895705 
L 181.391008 187.063781 
L 183.812728 187.55544 
L 198.343048 189.450183 
L 208.029928 190.213577 
L 217.716808 190.711712 
L 229.825408 191.089147 
L 234.461953 191.182274 
L 234.461953 191.182274 
" clip-path="url(#p74b3f87c6a)" style="fill: none; stroke: #481d6f; stroke-width: 1.5; stroke-linecap: square"/>
   </g>
   <g id="line2d_17">
    <path d="M 46.985548 189.07441 
L 48.196408 182.9042 
L 50.618128 167.866679 
L 51.828988 161.046359 
L 53.039848 155.155865 
L 55.461568 144.964353 
L 56.672428 141.157024 
L 57.883288 137.90122 
L 59.094148 135.145377 
L 60.305008 132.865045 
L 61.515868 130.953238 
L 62.726728 129.413686 
L 63.937588 128.164583 
L 65.148448 127.20295 
L 66.359308 126.464432 
L 67.570168 125.943752 
L 68.781028 125.601791 
L 69.991888 125.419559 
L 71.202748 125.369946 
L 73.624468 125.663903 
L 76.046188 126.369322 
L 78.467908 127.437941 
L 80.889628 128.81611 
L 83.311348 130.504088 
L 86.943928 133.423681 
L 90.576508 136.636135 
L 101.474248 146.752773 
L 108.739408 152.842694 
L 114.793708 157.506183 
L 119.637148 160.972881 
L 128.113168 166.580637 
L 134.167468 170.244135 
L 141.432628 174.187551 
L 148.697788 177.62997 
L 157.173808 180.998605 
L 163.228108 183.026775 
L 168.071548 184.393357 
L 172.914988 185.647843 
L 185.023588 187.890567 
L 188.656168 188.413635 
L 193.499608 189.026084 
L 201.975628 189.818361 
L 211.662508 190.443112 
L 222.560248 190.886876 
L 234.461953 191.180196 
L 234.461953 191.180196 
" clip-path="url(#p74b3f87c6a)" style="fill: none; stroke: #482475; stroke-width: 1.5; stroke-linecap: square"/>
   </g>
   <g id="line2d_18">
    <path d="M 46.985548 188.017958 
L 48.196408 179.309222 
L 50.618128 160.510868 
L 51.828988 152.656693 
L 53.039848 146.113187 
L 55.461568 135.508163 
L 56.672428 131.705657 
L 57.883288 128.566231 
L 59.094148 126.007553 
L 60.305008 123.979202 
L 61.515868 122.366567 
L 62.726728 121.154142 
L 63.937588 120.256831 
L 65.148448 119.659218 
L 66.359308 119.29561 
L 67.570168 119.15218 
L 68.781028 119.187732 
L 69.991888 119.379374 
L 71.202748 119.698408 
L 73.624468 120.696771 
L 76.046188 122.058013 
L 78.467908 123.723722 
L 80.889628 125.638244 
L 84.522208 128.941053 
L 89.365648 133.776566 
L 100.263388 145.097154 
L 105.106828 149.720609 
L 107.528548 151.914398 
L 116.004568 158.863807 
L 124.480588 164.951833 
L 129.324027 168.095461 
L 134.167468 171.001187 
L 140.221768 174.263818 
L 143.854348 176.055065 
L 149.908648 178.699589 
L 153.541228 180.146523 
L 158.384668 181.856533 
L 164.438968 183.722928 
L 170.493268 185.284448 
L 180.180148 187.254542 
L 185.023588 187.990786 
L 188.656168 188.48894 
L 193.499608 189.07217 
L 201.975628 189.836661 
L 211.662508 190.445924 
L 223.771108 190.924367 
L 234.461953 191.176796 
L 234.461953 191.176796 
" clip-path="url(#p74b3f87c6a)" style="fill: none; stroke: #472a7a; stroke-width: 1.5; stroke-linecap: square"/>
   </g>
   <g id="line2d_19">
    <path d="M 46.985548 186.825217 
L 50.618128 153.252061 
L 51.828988 144.606509 
L 53.039848 137.628567 
L 55.461568 126.917214 
L 56.672428 123.234601 
L 57.883288 120.298645 
L 59.094148 117.999843 
L 60.305008 116.265921 
L 61.515868 114.97563 
L 62.726728 114.098541 
L 63.937588 113.547353 
L 65.148448 113.297661 
L 66.359308 113.283439 
L 67.570168 113.485027 
L 68.781028 113.860335 
L 71.202748 115.027058 
L 73.624468 116.637085 
L 76.046188 118.560476 
L 79.678768 121.898965 
L 83.311348 125.648743 
L 89.365648 132.410931 
L 97.841668 142.026594 
L 102.685108 147.130372 
L 107.528548 151.873913 
L 113.582848 157.153522 
L 117.215428 160.084181 
L 120.848008 162.833129 
L 125.691448 166.236156 
L 130.534888 169.347896 
L 135.378328 172.174853 
L 139.010908 174.13183 
L 145.065208 177.032554 
L 148.697788 178.609394 
L 155.962948 181.333561 
L 160.806388 182.897523 
L 168.071548 184.852472 
L 172.914988 185.984896 
L 183.812728 187.897016 
L 195.921328 189.324088 
L 203.186488 189.929303 
L 212.873368 190.501793 
L 224.981968 190.956781 
L 234.461953 191.172866 
L 234.461953 191.172866 
" clip-path="url(#p74b3f87c6a)" style="fill: none; stroke: #46307e; stroke-width: 1.5; stroke-linecap: square"/>
   </g>
   <g id="line2d_20">
    <path d="M 46.985548 185.531095 
L 49.407268 157.702738 
L 50.618128 146.247451 
L 51.828988 137.012055 
L 53.039848 129.766657 
L 54.250708 124.133455 
L 55.461568 119.159702 
L 56.672428 115.66658 
L 57.883288 112.981331 
L 59.094148 110.971287 
L 60.305008 109.54618 
L 61.515868 108.579392 
L 62.726728 108.02893 
L 63.937588 107.80621 
L 65.148448 107.880297 
L 66.359308 108.18553 
L 67.570168 108.698273 
L 68.781028 109.376326 
L 71.202748 111.119346 
L 73.624468 113.259276 
L 77.257048 116.955229 
L 80.889628 121.01479 
L 85.733068 126.848555 
L 97.841668 141.514635 
L 102.685108 146.866035 
L 107.528548 151.804654 
L 113.582848 157.28015 
L 117.215428 160.292815 
L 120.848008 163.101549 
L 125.691448 166.552976 
L 130.534888 169.683974 
L 135.378328 172.508361 
L 139.010908 174.450469 
L 143.854348 176.784857 
L 149.908648 179.328055 
L 153.541228 180.699684 
L 158.384668 182.316563 
L 164.438968 184.068439 
L 170.493268 185.532009 
L 180.180148 187.379205 
L 194.710468 189.222393 
L 205.608208 190.092201 
L 216.505948 190.659169 
L 229.825408 191.074567 
L 234.461953 191.168792 
L 234.461953 191.168792 
" clip-path="url(#p74b3f87c6a)" style="fill: none; stroke: #453781; stroke-width: 1.5; stroke-linecap: square"/>
   </g>
   <g id="line2d_21">
    <path d="M 46.985548 184.165517 
L 49.407268 151.940556 
L 50.618128 139.576605 
L 51.828988 129.913674 
L 53.039848 122.526081 
L 54.250708 116.927866 
L 55.461568 112.165382 
L 56.672428 108.902055 
L 57.883288 106.490405 
L 59.094148 104.77837 
L 60.305008 103.661023 
L 61.515868 103.007615 
L 62.726728 102.767189 
L 63.937588 102.850597 
L 65.148448 103.222166 
L 66.359308 103.81706 
L 67.570168 104.608959 
L 69.991888 106.631207 
L 72.413608 109.073416 
L 76.046188 113.22578 
L 80.889628 119.268791 
L 96.630808 139.615031 
L 101.474248 145.294711 
L 106.317688 150.510157 
L 111.161128 155.208499 
L 116.004568 159.43853 
L 120.848008 163.270471 
L 124.480588 165.923959 
L 129.324027 169.150689 
L 134.167468 172.05996 
L 139.010908 174.662457 
L 143.854348 176.978273 
L 148.697788 179.034904 
L 154.752088 181.259907 
L 159.595528 182.799478 
L 164.438968 184.15333 
L 170.493268 185.589647 
L 178.969288 187.200978 
L 183.812728 187.945299 
L 194.710468 189.222004 
L 205.608208 190.085758 
L 216.505948 190.652213 
L 229.825408 191.069687 
L 234.461953 191.16477 
L 234.461953 191.16477 
" clip-path="url(#p74b3f87c6a)" style="fill: none; stroke: #433d84; stroke-width: 1.5; stroke-linecap: square"/>
   </g>
   <g id="line2d_22">
    <path d="M 46.985548 182.752859 
L 48.196408 163.321651 
L 49.407268 146.378034 
L 50.618128 133.272663 
L 51.828988 123.311039 
L 53.039848 115.874408 
L 54.250708 110.374968 
L 55.461568 105.853613 
L 56.672428 102.841594 
L 57.883288 100.711625 
L 59.094148 99.295577 
L 60.305008 98.476658 
L 61.515868 98.121071 
L 62.726728 98.170912 
L 63.937588 98.537026 
L 65.148448 99.180307 
L 66.359308 100.037051 
L 68.781028 102.265564 
L 71.202748 104.960898 
L 74.835328 109.539714 
L 79.678768 116.104237 
L 94.209088 136.083874 
L 99.052528 142.160869 
L 102.685108 146.394074 
L 106.317688 150.372742 
L 111.161128 155.174565 
L 116.004568 159.483908 
L 120.848008 163.370226 
L 124.480588 166.047909 
L 129.324027 169.292575 
L 134.167468 172.205215 
L 139.010908 174.801554 
L 143.854348 177.105026 
L 148.697788 179.145024 
L 154.752088 181.347915 
L 159.595528 182.869332 
L 164.438968 184.205085 
L 170.493268 185.622656 
L 178.969288 187.214063 
L 185.023588 188.101266 
L 189.867028 188.712368 
L 198.343048 189.541891 
L 208.029928 190.224137 
L 218.927668 190.73914 
L 231.036268 191.090873 
L 234.461953 191.160895 
L 234.461953 191.160895 
" clip-path="url(#p74b3f87c6a)" style="fill: none; stroke: #414287; stroke-width: 1.5; stroke-linecap: square"/>
   </g>
   <g id="line2d_23">
    <path d="M 46.985548 181.3124 
L 48.196408 159.339203 
L 49.407268 141.047367 
L 50.618128 127.341791 
L 51.828988 117.183097 
L 53.039848 109.766376 
L 54.250708 104.409436 
L 55.461568 100.145575 
L 56.672428 97.394328 
L 57.883288 95.545182 
L 59.094148 94.416772 
L 60.305008 93.882752 
L 61.515868 93.807189 
L 62.726728 94.126802 
L 63.937588 94.752846 
L 65.148448 95.643758 
L 66.359308 96.737155 
L 68.781028 99.403598 
L 71.202748 102.493423 
L 74.835328 107.585155 
L 82.100488 118.29443 
L 89.365648 128.897027 
L 94.209088 135.60986 
L 97.841668 140.338056 
L 101.474248 144.779529 
L 106.317688 150.230064 
L 111.161128 155.116299 
L 116.004568 159.490316 
L 120.848008 163.421292 
L 124.480588 166.119232 
L 129.324027 169.379672 
L 134.167468 172.296657 
L 139.010908 174.88994 
L 143.854348 177.185569 
L 148.697788 179.214371 
L 154.752088 181.402236 
L 159.595528 182.911181 
L 164.438968 184.234363 
L 170.493268 185.639122 
L 178.969288 187.217194 
L 185.023588 188.099541 
L 189.867028 188.706045 
L 198.343048 189.533289 
L 208.029928 190.215677 
L 218.927668 190.732495 
L 231.036268 191.086695 
L 234.461953 191.157209 
L 234.461953 191.157209 
" clip-path="url(#p74b3f87c6a)" style="fill: none; stroke: #3f4889; stroke-width: 1.5; stroke-linecap: square"/>
   </g>
   <g id="line2d_24">
    <path d="M 46.985548 179.8591 
L 48.196408 155.447884 
L 49.407268 135.962452 
L 50.618128 121.775001 
L 51.828988 111.499183 
L 53.039848 104.153181 
L 54.250708 98.968172 
L 55.461568 94.969122 
L 56.672428 92.480413 
L 57.883288 90.905915 
L 59.094148 90.053418 
L 60.305008 89.788912 
L 61.515868 89.975076 
L 62.726728 90.544488 
L 63.937588 91.409122 
L 65.148448 92.525689 
L 67.570168 95.301912 
L 69.991888 98.578513 
L 73.624468 103.997 
L 89.365648 128.287534 
L 94.209088 135.184971 
L 97.841668 140.0191 
L 101.474248 144.545381 
L 106.317688 150.084625 
L 111.161128 155.041196 
L 116.004568 159.46918 
L 120.848008 163.437775 
L 124.480588 166.153175 
L 129.324027 169.427898 
L 134.167468 172.350011 
L 139.010908 174.942537 
L 143.854348 177.233609 
L 148.697788 179.255151 
L 154.752088 181.433084 
L 159.595528 182.933622 
L 164.438968 184.248182 
L 170.493268 185.644344 
L 178.969288 187.21372 
L 185.023588 188.09339 
L 191.077888 188.828299 
L 200.764768 189.717644 
L 209.240788 190.276083 
L 220.138528 190.771466 
L 234.461953 191.15373 
L 234.461953 191.15373 
" clip-path="url(#p74b3f87c6a)" style="fill: none; stroke: #3d4e8a; stroke-width: 1.5; stroke-linecap: square"/>
   </g>
   <g id="line2d_25">
    <path d="M 46.985548 178.404416 
L 48.196408 151.666036 
L 49.407268 131.125731 
L 50.618128 116.555227 
L 51.828988 106.225135 
L 53.039848 98.98708 
L 54.250708 93.993217 
L 55.461568 90.260261 
L 56.672428 88.030979 
L 57.883288 86.721904 
L 59.094148 86.131979 
L 60.305008 86.121079 
L 61.515868 86.551104 
L 62.726728 87.351464 
L 63.937588 88.435081 
L 65.148448 89.75749 
L 67.570168 92.910174 
L 69.991888 96.519301 
L 73.624468 102.364749 
L 84.522208 120.244461 
L 89.365648 127.742401 
L 94.209088 134.799646 
L 97.841668 139.72488 
L 101.474248 144.323695 
L 106.317688 149.938419 
L 109.950268 153.723701 
L 112.371988 156.111334 
L 117.215428 160.460535 
L 120.848008 163.429562 
L 124.480588 166.160362 
L 128.113168 168.660633 
L 131.745748 170.955312 
L 136.589188 173.712286 
L 141.432628 176.149833 
L 146.276068 178.29954 
L 151.119508 180.18828 
L 157.173808 182.221083 
L 163.228108 183.942265 
L 169.282408 185.383528 
L 175.336708 186.581789 
L 180.180148 187.400999 
L 191.077888 188.817749 
L 200.764768 189.707678 
L 209.240788 190.267729 
L 220.138528 190.765427 
L 233.457988 191.130858 
L 234.461953 191.150457 
L 234.461953 191.150457 
" clip-path="url(#p74b3f87c6a)" style="fill: none; stroke: #3a538b; stroke-width: 1.5; stroke-linecap: square"/>
   </g>
   <g id="line2d_26">
    <path d="M 46.985548 176.957024 
L 48.196408 148.00434 
L 49.407268 126.532642 
L 50.618128 111.661549 
L 51.828988 101.326573 
L 53.039848 94.223505 
L 54.250708 89.432687 
L 55.461568 85.963115 
L 56.672428 83.987113 
L 57.883288 82.932603 
L 59.094148 82.591349 
L 60.305008 82.818374 
L 61.515868 83.475299 
L 62.726728 84.48913 
L 63.937588 85.773905 
L 66.359308 88.962726 
L 68.781028 92.69523 
L 72.413608 98.811849 
L 83.311348 117.554018 
L 88.154788 125.37192 
L 92.998228 132.7028 
L 96.630808 137.82129 
L 100.263388 142.600287 
L 103.895968 147.012413 
L 107.528548 151.10459 
L 112.371988 156.029258 
L 117.215428 160.415322 
L 120.848008 163.403683 
L 124.480588 166.148314 
L 128.113168 168.658577 
L 131.745748 170.959358 
L 136.589188 173.720309 
L 141.432628 176.158633 
L 146.276068 178.306906 
L 151.119508 180.193004 
L 157.173808 182.221935 
L 163.228108 183.938619 
L 169.282408 185.376347 
L 175.336708 186.572395 
L 180.180148 187.389667 
L 191.077888 188.806338 
L 200.764768 189.697632 
L 210.451648 190.326458 
L 221.349388 190.801971 
L 234.461953 191.147384 
L 234.461953 191.147384 
" clip-path="url(#p74b3f87c6a)" style="fill: none; stroke: #38598c; stroke-width: 1.5; stroke-linecap: square"/>
   </g>
   <g id="line2d_27">
    <path d="M 46.985548 175.523416 
L 48.196408 144.46815 
L 49.407268 122.174497 
L 50.618128 107.071657 
L 51.828988 96.770594 
L 53.039848 89.821884 
L 54.250708 85.240757 
L 55.461568 82.029258 
L 56.672428 80.298569 
L 57.883288 79.487027 
L 59.094148 79.380602 
L 60.305008 79.830511 
L 61.515868 80.698486 
L 62.726728 81.909752 
L 63.937588 83.379577 
L 66.359308 86.901599 
L 68.781028 90.923707 
L 73.624468 99.614215 
L 80.889628 112.683825 
L 85.733068 120.952823 
L 90.576508 128.687223 
L 94.209088 134.121968 
L 97.841668 139.195974 
L 101.474248 143.912612 
L 105.106828 148.262333 
L 108.739408 152.254838 
L 112.371988 155.941082 
L 117.215428 160.359586 
L 120.848008 163.3652 
L 124.480588 166.12243 
L 128.113168 168.642066 
L 131.745748 170.948942 
L 136.589188 173.714519 
L 141.432628 176.154769 
L 146.276068 178.30308 
L 151.119508 180.188153 
L 157.173808 182.215229 
L 163.228108 183.929388 
L 169.282408 185.365256 
L 175.336708 186.56041 
L 180.180148 187.376703 
L 191.077888 188.794501 
L 200.764768 189.687687 
L 210.451648 190.318837 
L 221.349388 190.796829 
L 234.461953 191.1445 
L 234.461953 191.1445 
" clip-path="url(#p74b3f87c6a)" style="fill: none; stroke: #355e8d; stroke-width: 1.5; stroke-linecap: square"/>
   </g>
   <g id="line2d_28">
    <path d="M 46.985548 174.10839 
L 48.196408 141.059151 
L 49.407268 118.040328 
L 50.618128 102.763289 
L 51.828988 92.526572 
L 53.039848 85.745798 
L 54.250708 81.377236 
L 55.461568 78.416854 
L 56.672428 76.922491 
L 57.883288 76.342133 
L 59.094148 76.457117 
L 60.305008 77.115712 
L 61.515868 78.180075 
L 62.726728 79.574142 
L 63.937588 81.214497 
L 66.359308 85.041754 
L 69.991888 91.567576 
L 82.100488 114.127107 
L 86.943928 122.45573 
L 91.787368 130.187351 
L 95.419948 135.574469 
L 99.052528 140.583364 
L 102.685108 145.217633 
L 106.317688 149.508542 
L 109.950268 153.405801 
L 112.371988 155.849191 
L 117.215428 160.296597 
L 120.848008 163.317797 
L 124.480588 166.08663 
L 128.113168 168.615125 
L 131.745748 170.928058 
L 136.589188 173.698722 
L 141.432628 176.141745 
L 146.276068 178.291188 
L 151.119508 180.176438 
L 155.962948 181.824088 
L 160.806388 183.267677 
L 166.860688 184.811562 
L 174.125848 186.324756 
L 180.180148 187.362752 
L 189.867028 188.649973 
L 198.343048 189.481851 
L 208.029928 190.173832 
L 218.927668 190.70279 
L 231.036268 191.06891 
L 234.461953 191.141794 
L 234.461953 191.141794 
" clip-path="url(#p74b3f87c6a)" style="fill: none; stroke: #33638d; stroke-width: 1.5; stroke-linecap: square"/>
   </g>
   <g id="line2d_29">
    <path d="M 46.985548 172.71543 
L 48.196408 137.77653 
L 49.407268 114.118077 
L 50.618128 98.715015 
L 51.828988 88.566459 
L 53.039848 81.962812 
L 54.250708 77.806984 
L 55.461568 75.089769 
L 56.672428 73.822257 
L 57.883288 73.461459 
L 59.094148 73.785051 
L 60.305008 74.639059 
L 61.515868 75.88632 
L 62.726728 77.449881 
L 65.148448 81.233958 
L 67.570168 85.582198 
L 72.413608 94.994242 
L 78.467908 106.776802 
L 83.311348 115.701996 
L 86.943928 122.013344 
L 90.576508 127.957066 
L 94.209088 133.539866 
L 97.841668 138.730414 
L 101.474248 143.539025 
L 105.106828 147.96406 
L 108.739408 152.019937 
L 112.371988 155.755331 
L 116.004568 159.166348 
L 119.637148 162.288087 
L 123.269728 165.144759 
L 126.902308 167.760405 
L 130.534888 170.149764 
L 134.167468 172.331391 
L 139.010908 174.938324 
L 143.854348 177.232443 
L 148.697788 179.248565 
L 154.752088 181.416344 
L 159.595528 182.906251 
L 164.438968 184.208211 
L 170.493268 185.593479 
L 177.758428 186.948126 
L 183.812728 187.879269 
L 193.499608 189.025351 
L 201.975628 189.761629 
L 211.662508 190.36959 
L 222.560248 190.828317 
L 234.461953 191.139252 
L 234.461953 191.139252 
" clip-path="url(#p74b3f87c6a)" style="fill: none; stroke: #31688e; stroke-width: 1.5; stroke-linecap: square"/>
   </g>
   <g id="line2d_30">
    <path d="M 46.985548 171.347001 
L 48.196408 134.617809 
L 49.407268 110.395341 
L 50.618128 94.906656 
L 51.828988 84.864817 
L 53.039848 78.444154 
L 54.250708 74.499302 
L 55.461568 72.016763 
L 56.672428 70.966484 
L 57.883288 70.813988 
L 59.094148 71.334102 
L 60.305008 72.371195 
L 61.515868 73.788985 
L 62.726728 75.509948 
L 65.148448 79.57382 
L 67.570168 84.160418 
L 73.624468 96.418711 
L 78.467908 106.072095 
L 83.311348 115.187759 
L 86.943928 121.60545 
L 90.576508 127.631697 
L 94.209088 133.277289 
L 97.841668 138.517202 
L 101.474248 143.364747 
L 105.106828 147.821668 
L 108.739408 151.904406 
L 112.371988 155.660777 
L 116.004568 159.089609 
L 119.637148 162.225801 
L 123.269728 165.09392 
L 126.902308 167.718233 
L 130.534888 170.11418 
L 134.167468 172.300611 
L 139.010908 174.912186 
L 143.854348 177.209489 
L 148.697788 179.22764 
L 154.752088 181.397344 
L 159.595528 182.888269 
L 164.438968 184.190778 
L 170.493268 185.577037 
L 177.758428 186.933611 
L 183.812728 187.865474 
L 192.288748 188.885972 
L 199.553908 189.561792 
L 208.029928 190.159009 
L 218.927668 190.692866 
L 231.036268 191.063152 
L 234.461953 191.136862 
L 234.461953 191.136862 
" clip-path="url(#p74b3f87c6a)" style="fill: none; stroke: #2e6d8e; stroke-width: 1.5; stroke-linecap: square"/>
   </g>
   <g id="line2d_31">
    <path d="M 46.985548 170.004788 
L 48.196408 131.579421 
L 49.407268 106.85984 
L 50.618128 91.319463 
L 51.828988 81.398702 
L 53.039848 75.164348 
L 54.250708 71.42735 
L 55.461568 69.170765 
L 56.672428 68.328187 
L 57.883288 68.373219 
L 59.094148 69.078521 
L 60.305008 70.287291 
L 61.515868 71.864282 
L 62.726728 73.731667 
L 65.148448 78.054567 
L 68.781028 85.362394 
L 78.467908 105.425848 
L 82.100488 112.452504 
L 85.733068 119.103534 
L 89.365648 125.337252 
L 92.998228 131.17735 
L 96.630808 136.599227 
L 100.263388 141.616268 
L 103.895968 146.225018 
L 107.528548 150.471289 
L 111.161128 154.355819 
L 114.793708 157.894457 
L 118.426288 161.141039 
L 122.058868 164.10769 
L 125.691448 166.821037 
L 129.324027 169.298588 
L 132.956608 171.556248 
L 136.589188 173.615598 
L 141.432628 176.070008 
L 146.276068 178.22692 
L 151.119508 180.117225 
L 155.962948 181.7688 
L 160.806388 183.214249 
L 166.860688 184.760189 
L 174.125848 186.27826 
L 180.180148 187.318791 
L 189.867028 188.613509 
L 198.343048 189.452493 
L 208.029928 190.152087 
L 218.927668 190.688293 
L 231.036268 191.060518 
L 234.461953 191.134613 
L 234.461953 191.134613 
" clip-path="url(#p74b3f87c6a)" style="fill: none; stroke: #2c718e; stroke-width: 1.5; stroke-linecap: square"/>
   </g>
   <g id="line2d_32">
    <path d="M 46.985548 168.68987 
L 48.196408 128.65713 
L 49.407268 103.499698 
L 50.618128 87.936163 
L 51.828988 78.14749 
L 53.039848 72.10084 
L 54.250708 68.567629 
L 55.461568 66.528252 
L 56.672428 65.884077 
L 57.883288 66.116409 
L 59.094148 66.996313 
L 60.305008 68.366226 
L 61.515868 70.092055 
L 63.937588 74.299876 
L 66.359308 79.124384 
L 71.202748 89.499999 
L 77.257048 102.364282 
L 82.100488 111.979696 
L 85.733068 118.725525 
L 89.365648 125.033301 
L 92.998228 130.92957 
L 96.630808 136.395377 
L 100.263388 141.446888 
L 103.895968 146.084102 
L 107.528548 150.352823 
L 111.161128 154.256228 
L 114.793708 157.811544 
L 118.426288 161.071255 
L 122.058868 164.048667 
L 125.691448 166.770485 
L 129.324027 169.254728 
L 132.956608 171.517779 
L 136.589188 173.581183 
L 141.432628 176.039963 
L 146.276068 178.200178 
L 151.119508 180.093085 
L 155.962948 181.746877 
L 160.806388 183.193904 
L 166.860688 184.74159 
L 174.125848 186.262154 
L 180.180148 187.304184 
L 189.867028 188.601894 
L 198.343048 189.443383 
L 208.029928 190.145483 
L 218.927668 190.68396 
L 231.036268 191.058032 
L 234.461953 191.132494 
L 234.461953 191.132494 
" clip-path="url(#p74b3f87c6a)" style="fill: none; stroke: #2a768e; stroke-width: 1.5; stroke-linecap: square"/>
   </g>
   <g id="line2d_33">
    <path d="M 46.985548 167.402865 
L 48.196408 125.846315 
L 49.407268 100.303601 
L 50.618128 84.740933 
L 51.828988 75.092667 
L 53.039848 69.233653 
L 54.250708 65.899522 
L 55.461568 64.068726 
L 56.672428 63.613977 
L 57.883288 64.023948 
L 59.094148 65.068599 
L 60.305008 66.589935 
L 61.515868 68.455118 
L 63.937588 72.907085 
L 66.359308 77.936096 
L 79.678768 106.748955 
L 83.311348 113.868078 
L 86.943928 120.54878 
L 90.576508 126.779073 
L 94.209088 132.580035 
L 97.841668 137.942133 
L 101.474248 142.886182 
L 105.106828 147.422286 
L 108.739408 151.571919 
L 112.371988 155.381039 
L 116.004568 158.855079 
L 119.637148 162.02851 
L 123.269728 164.926774 
L 126.902308 167.57466 
L 130.534888 169.989272 
L 134.167468 172.190126 
L 139.010908 174.816695 
L 143.854348 177.125414 
L 148.697788 179.15206 
L 153.541228 180.923797 
L 158.384668 182.472051 
L 164.438968 184.133653 
L 170.493268 185.525322 
L 177.758428 186.889514 
L 183.812728 187.825157 
L 192.288748 188.854014 
L 199.553908 189.535667 
L 208.029928 190.139184 
L 218.927668 190.679851 
L 231.036268 191.055683 
L 234.461953 191.130494 
L 234.461953 191.130494 
" clip-path="url(#p74b3f87c6a)" style="fill: none; stroke: #297b8e; stroke-width: 1.5; stroke-linecap: square"/>
   </g>
   <g id="line2d_34">
    <path d="M 46.985548 166.144036 
L 48.196408 123.14217 
L 49.407268 97.260886 
L 50.618128 81.719324 
L 51.828988 72.217617 
L 53.039848 66.545066 
L 54.250708 63.404892 
L 55.461568 61.774265 
L 56.672428 61.50034 
L 57.883288 62.078861 
L 59.094148 63.279091 
L 60.305008 64.942888 
L 61.515868 66.938739 
L 63.937588 71.618718 
L 67.570168 79.553726 
L 76.046188 98.616427 
L 79.678768 106.275464 
L 83.311348 113.488551 
L 86.943928 120.242092 
L 90.576508 126.528923 
L 94.209088 132.37301 
L 97.841668 137.769078 
L 101.474248 142.740027 
L 105.106828 147.298274 
L 108.739408 151.466683 
L 112.371988 155.290763 
L 116.004568 158.777739 
L 119.637148 161.961979 
L 123.269728 164.869163 
L 126.902308 167.524219 
L 130.534888 169.94469 
L 134.167468 172.150262 
L 139.010908 174.781966 
L 143.854348 177.09482 
L 148.697788 179.124764 
L 153.541228 180.899388 
L 158.384668 182.450072 
L 164.438968 184.114098 
L 170.493268 185.50805 
L 177.758428 186.875108 
L 183.812728 187.812329 
L 192.288748 188.844033 
L 199.553908 189.52764 
L 208.029928 190.133176 
L 218.927668 190.675952 
L 231.036268 191.053461 
L 234.461953 191.128604 
L 234.461953 191.128604 
" clip-path="url(#p74b3f87c6a)" style="fill: none; stroke: #27808e; stroke-width: 1.5; stroke-linecap: square"/>
   </g>
   <g id="line2d_35">
    <path d="M 46.985548 164.913375 
L 48.196408 120.539849 
L 49.407268 94.361565 
L 50.618128 78.858165 
L 51.828988 69.507427 
L 53.039848 64.019332 
L 54.250708 61.067745 
L 55.461568 59.629147 
L 56.672428 59.527845 
L 57.883288 60.266384 
L 59.094148 61.613676 
L 60.305008 63.411667 
L 61.515868 65.530223 
L 63.937588 70.423524 
L 67.570168 78.612725 
L 74.835328 95.37968 
L 78.467908 103.295389 
L 82.100488 110.751971 
L 85.733068 117.736007 
L 89.365648 124.22989 
L 92.998228 130.267563 
L 96.630808 135.844123 
L 100.263388 140.982755 
L 103.895968 145.692074 
L 107.528548 150.017995 
L 111.161128 153.969789 
L 114.793708 157.568095 
L 118.426288 160.862156 
L 122.058868 163.868175 
L 125.691448 166.613045 
L 129.324027 169.116015 
L 132.956608 171.394609 
L 136.589188 173.470268 
L 141.432628 175.942779 
L 146.276068 178.113979 
L 151.119508 180.015984 
L 155.962948 181.677723 
L 160.806388 183.130914 
L 166.860688 184.685407 
L 174.125848 186.214603 
L 180.180148 187.262043 
L 188.656168 188.423632 
L 195.921328 189.198342 
L 204.397348 189.889981 
L 214.084228 190.458355 
L 224.981968 190.886728 
L 234.461953 191.126816 
L 234.461953 191.126816 
" clip-path="url(#p74b3f87c6a)" style="fill: none; stroke: #25848e; stroke-width: 1.5; stroke-linecap: square"/>
   </g>
   <g id="line2d_36">
    <path d="M 46.985548 163.710671 
L 48.196408 118.034557 
L 49.407268 91.596335 
L 50.618128 76.145467 
L 51.828988 66.948699 
L 53.039848 61.642432 
L 54.250708 58.873935 
L 55.461568 57.619537 
L 56.672428 57.683066 
L 57.883288 58.573625 
L 59.094148 60.060068 
L 60.305008 61.984625 
L 62.726728 66.685066 
L 65.148448 72.055931 
L 78.467908 102.852197 
L 82.100488 110.395262 
L 85.733068 117.446243 
L 89.365648 123.992462 
L 92.998228 130.069997 
L 96.630808 135.677854 
L 100.263388 140.841189 
L 103.895968 145.571015 
L 107.528548 149.913312 
L 111.161128 153.879048 
L 114.793708 157.489805 
L 118.426288 160.793957 
L 122.058868 163.808501 
L 125.691448 166.560378 
L 129.324027 169.069172 
L 132.956608 171.352709 
L 136.589188 173.4324 
L 141.432628 175.909541 
L 146.276068 178.084573 
L 151.119508 179.98984 
L 155.962948 181.654462 
L 160.806388 183.109983 
L 166.860688 184.667046 
L 174.125848 186.199309 
L 180.180148 187.248714 
L 188.656168 188.413319 
L 195.921328 189.190046 
L 204.397348 189.883715 
L 214.084228 190.45404 
L 224.981968 190.884026 
L 234.461953 191.125122 
L 234.461953 191.125122 
" clip-path="url(#p74b3f87c6a)" style="fill: none; stroke: #23898e; stroke-width: 1.5; stroke-linecap: square"/>
   </g>
   <g id="line2d_37">
    <path d="M 46.985548 162.535559 
L 48.196408 115.621616 
L 49.407268 88.956553 
L 50.618128 73.570313 
L 51.828988 64.529377 
L 53.039848 59.401857 
L 54.250708 56.810918 
L 55.461568 55.73322 
L 56.672428 55.954199 
L 57.883288 56.989287 
L 59.094148 58.60753 
L 60.305008 60.651604 
L 62.726728 65.559069 
L 65.148448 71.100198 
L 77.257048 99.784826 
L 80.889628 107.575511 
L 84.522208 114.859394 
L 88.154788 121.624548 
L 91.787368 127.897767 
L 95.419948 133.69216 
L 99.052528 139.023213 
L 102.685108 143.916339 
L 106.317688 148.40964 
L 109.950268 152.493284 
L 113.582848 156.234311 
L 117.215428 159.651836 
L 120.848008 162.770983 
L 124.480588 165.617644 
L 128.113168 168.210173 
L 131.745748 170.572918 
L 135.378328 172.720516 
L 139.010908 174.675856 
L 143.854348 177.001375 
L 148.697788 179.041757 
L 153.541228 180.825631 
L 158.384668 182.384245 
L 164.438968 184.056392 
L 170.493268 185.457815 
L 177.758428 186.833762 
L 183.812728 187.77611 
L 192.288748 188.816192 
L 199.553908 189.505487 
L 208.029928 190.116756 
L 218.927668 190.665383 
L 231.036268 191.047464 
L 234.461953 191.123514 
L 234.461953 191.123514 
" clip-path="url(#p74b3f87c6a)" style="fill: none; stroke: #218e8d; stroke-width: 1.5; stroke-linecap: square"/>
   </g>
   <g id="line2d_38">
    <path d="M 46.985548 161.387559 
L 48.196408 113.296509 
L 49.407268 86.434205 
L 50.618128 71.122763 
L 51.828988 62.238602 
L 53.039848 57.28642 
L 54.250708 54.867538 
L 55.461568 53.959377 
L 56.672428 54.330823 
L 57.883288 55.503427 
L 59.094148 57.246636 
L 60.305008 59.403713 
L 62.726728 64.506229 
L 66.359308 73.167136 
L 73.624468 90.973554 
L 77.257048 99.366629 
L 80.889628 107.237908 
L 84.522208 114.584225 
L 88.154788 121.398096 
L 91.787368 127.708788 
L 95.419948 133.532332 
L 99.052528 138.886601 
L 102.685108 143.798544 
L 106.317688 148.306812 
L 109.950268 152.404278 
L 113.582848 156.156552 
L 117.215428 159.583534 
L 120.848008 162.710693 
L 124.480588 165.56406 
L 128.113168 168.162395 
L 131.745748 170.530005 
L 135.378328 172.681885 
L 139.010908 174.640749 
L 143.854348 176.970475 
L 148.697788 179.014399 
L 153.541228 180.801434 
L 158.384668 182.362787 
L 164.438968 184.037784 
L 170.493268 185.441788 
L 177.758428 186.820702 
L 183.812728 187.764817 
L 192.288748 188.807592 
L 199.553908 189.498704 
L 208.029928 190.111768 
L 218.927668 190.662194 
L 231.036268 191.045662 
L 234.461953 191.121988 
L 234.461953 191.121988 
" clip-path="url(#p74b3f87c6a)" style="fill: none; stroke: #20928c; stroke-width: 1.5; stroke-linecap: square"/>
   </g>
   <g id="line2d_39">
    <path d="M 46.985548 160.266111 
L 48.196408 111.0549 
L 49.407268 84.021876 
L 50.618128 68.79376 
L 51.828988 60.066573 
L 53.039848 55.286093 
L 54.250708 53.033845 
L 55.461568 52.288395 
L 56.672428 52.803711 
L 57.883288 54.107264 
L 59.094148 55.969085 
L 60.305008 58.233133 
L 62.726728 63.519683 
L 66.359308 72.395495 
L 73.624468 90.485337 
L 77.257048 98.973733 
L 80.889628 106.919898 
L 84.522208 114.32422 
L 88.154788 121.183381 
L 91.787368 127.528953 
L 95.419948 133.379676 
L 99.052528 138.755629 
L 102.685108 143.685188 
L 106.317688 148.20751 
L 109.950268 152.317965 
L 113.582848 156.080855 
L 117.215428 159.516803 
L 120.848008 162.651596 
L 124.480588 165.511396 
L 128.113168 168.115328 
L 131.745748 170.487665 
L 135.378328 172.643726 
L 139.010908 174.606067 
L 143.854348 176.939958 
L 148.697788 178.987415 
L 153.541228 180.777609 
L 158.384668 182.34171 
L 164.438968 184.019579 
L 170.493268 185.426172 
L 177.758428 186.808026 
L 183.812728 187.753909 
L 192.288748 188.799317 
L 199.553908 189.4922 
L 208.029928 190.106999 
L 218.927668 190.659154 
L 231.036268 191.043947 
L 234.461953 191.120535 
L 234.461953 191.120535 
" clip-path="url(#p74b3f87c6a)" style="fill: none; stroke: #1f978b; stroke-width: 1.5; stroke-linecap: square"/>
   </g>
   <g id="line2d_40">
    <path d="M 46.985548 159.170596 
L 48.196408 108.892653 
L 49.407268 81.712704 
L 50.618128 66.575043 
L 51.828988 58.004432 
L 53.039848 53.391869 
L 54.250708 51.300944 
L 55.461568 50.71171 
L 56.672428 51.364666 
L 57.883288 52.793021 
L 59.094148 54.767537 
L 60.305008 57.132967 
L 62.726728 62.593393 
L 66.359308 71.671422 
L 73.624468 90.026539 
L 77.257048 98.603809 
L 80.889628 106.619721 
L 84.522208 114.078068 
L 88.154788 120.979437 
L 91.787368 127.357559 
L 95.419948 133.233691 
L 99.052528 138.629954 
L 102.685108 143.576046 
L 106.317688 148.111605 
L 109.950268 152.234299 
L 113.582848 156.007234 
L 117.215428 159.451702 
L 120.848008 162.593783 
L 124.480588 165.459758 
L 128.113168 168.069089 
L 131.745748 170.446017 
L 135.378328 172.606158 
L 139.010908 174.57192 
L 143.854348 176.909921 
L 148.697788 178.960886 
L 153.541228 180.75422 
L 158.384668 182.321061 
L 164.438968 184.001807 
L 170.493268 185.410979 
L 177.758428 186.795734 
L 183.812728 187.743377 
L 192.288748 188.791354 
L 199.553908 189.48596 
L 208.029928 190.102438 
L 218.927668 190.656253 
L 231.036268 191.042313 
L 234.461953 191.119153 
L 234.461953 191.119153 
" clip-path="url(#p74b3f87c6a)" style="fill: none; stroke: #1e9c89; stroke-width: 1.5; stroke-linecap: square"/>
   </g>
   <g id="line2d_41">
    <path d="M 46.985548 158.100355 
L 48.196408 106.805834 
L 49.407268 79.500342 
L 50.618128 64.459073 
L 51.828988 56.044155 
L 53.039848 51.595636 
L 54.250708 49.660859 
L 55.461568 49.221667 
L 56.672428 50.006383 
L 57.883288 51.553781 
L 59.094148 53.635479 
L 60.305008 56.097103 
L 62.726728 61.722028 
L 66.359308 70.99063 
L 72.413608 86.590728 
L 76.046188 95.428507 
L 79.678768 103.707731 
L 83.311348 111.405345 
L 86.943928 118.534738 
L 90.576508 125.114137 
L 94.209088 131.182577 
L 97.841668 136.75633 
L 101.474248 141.869034 
L 105.106828 146.54485 
L 108.739408 150.813725 
L 112.371988 154.719263 
L 116.004568 158.277616 
L 119.637148 161.522701 
L 123.269728 164.481398 
L 126.902308 167.179281 
L 130.534888 169.636014 
L 134.167468 171.872073 
L 139.010908 174.538386 
L 143.854348 176.880434 
L 148.697788 178.934868 
L 153.541228 180.731314 
L 158.384668 182.300874 
L 163.228108 183.671028 
L 169.282408 185.133585 
L 175.336708 186.355737 
L 181.391008 187.371217 
L 187.445308 188.218708 
L 195.921328 189.153211 
L 204.397348 189.856227 
L 214.084228 190.435281 
L 224.981968 190.872368 
L 234.461953 191.117834 
L 234.461953 191.117834 
" clip-path="url(#p74b3f87c6a)" style="fill: none; stroke: #1fa188; stroke-width: 1.5; stroke-linecap: square"/>
   </g>
   <g id="line2d_42">
    <path d="M 46.985548 157.054706 
L 48.196408 104.790716 
L 49.407268 77.378919 
L 50.618128 62.438956 
L 51.828988 54.178464 
L 53.039848 49.890074 
L 54.250708 48.106421 
L 55.461568 47.811407 
L 56.672428 48.722336 
L 57.883288 50.383376 
L 59.094148 52.567115 
L 61.515868 57.922404 
L 63.937588 63.99072 
L 74.835328 92.16351 
L 78.467908 100.704597 
L 82.100488 108.650303 
L 85.733068 116.013105 
L 89.365648 122.803648 
L 92.998228 129.068201 
L 96.630808 134.823654 
L 100.263388 140.104296 
L 103.895968 144.932085 
L 107.528548 149.353458 
L 111.161128 153.387152 
L 114.793708 157.059032 
L 118.426288 160.413661 
L 122.058868 163.471583 
L 125.691448 166.259965 
L 129.324027 168.799851 
L 132.956608 171.110402 
L 136.589188 173.212862 
L 141.432628 175.716708 
L 146.276068 177.914487 
L 151.119508 179.839512 
L 155.962948 181.521736 
L 160.806388 182.991926 
L 166.860688 184.565121 
L 172.914988 185.88346 
L 180.180148 187.177092 
L 188.656168 188.358664 
L 195.921328 189.146683 
L 204.397348 189.851402 
L 214.084228 190.432013 
L 224.981968 190.87035 
L 234.461953 191.116576 
L 234.461953 191.116576 
" clip-path="url(#p74b3f87c6a)" style="fill: none; stroke: #21a585; stroke-width: 1.5; stroke-linecap: square"/>
   </g>
   <g id="line2d_43">
    <path d="M 46.985548 156.032951 
L 48.196408 102.843774 
L 49.407268 75.343005 
L 50.618128 60.508383 
L 51.828988 52.400741 
L 53.039848 48.268561 
L 54.250708 46.63117 
L 55.461568 46.474767 
L 56.672428 47.506671 
L 57.883288 49.276289 
L 59.094148 51.55727 
L 61.515868 57.077436 
L 65.148448 66.496815 
L 72.413608 85.738401 
L 76.046188 94.740313 
L 79.678768 103.147295 
L 83.311348 110.944554 
L 86.943928 118.151413 
L 90.576508 124.791414 
L 94.209088 130.906707 
L 97.841668 136.517883 
L 101.474248 141.660759 
L 105.106828 146.361858 
L 108.739408 150.652546 
L 112.371988 154.576118 
L 116.004568 158.150483 
L 119.637148 161.409482 
L 123.269728 164.380231 
L 126.902308 167.088426 
L 130.534888 169.554133 
L 134.167468 171.797976 
L 139.010908 174.473369 
L 143.854348 176.823289 
L 148.697788 178.884514 
L 153.541228 180.687055 
L 158.384668 182.261959 
L 163.228108 183.636668 
L 169.282408 185.104389 
L 175.336708 186.33118 
L 181.391008 187.350937 
L 187.445308 188.201599 
L 195.921328 189.140404 
L 204.397348 189.846773 
L 214.084228 190.428883 
L 224.981968 190.868421 
L 234.461953 191.115374 
L 234.461953 191.115374 
" clip-path="url(#p74b3f87c6a)" style="fill: none; stroke: #24aa83; stroke-width: 1.5; stroke-linecap: square"/>
   </g>
   <g id="line2d_44">
    <path d="M 46.985548 155.03439 
L 48.196408 100.961675 
L 49.407268 73.387572 
L 50.618128 58.661572 
L 51.828988 50.704963 
L 53.039848 46.725097 
L 54.250708 45.229272 
L 55.461568 45.206195 
L 56.672428 46.354129 
L 57.883288 48.227574 
L 59.094148 50.601309 
L 61.515868 56.278294 
L 65.148448 65.876716 
L 72.413608 85.346557 
L 76.046188 94.423169 
L 79.678768 102.888209 
L 83.311348 110.730742 
L 86.943928 117.972835 
L 90.576508 124.64045 
L 94.209088 130.777152 
L 97.841668 136.405479 
L 101.474248 141.562228 
L 105.106828 146.274991 
L 108.739408 150.575771 
L 112.371988 154.50773 
L 116.004568 158.089567 
L 119.637148 161.355089 
L 123.269728 164.331519 
L 126.902308 167.044604 
L 130.534888 169.514594 
L 134.167468 171.762174 
L 139.010908 174.441948 
L 143.854348 176.795685 
L 148.697788 178.860219 
L 153.541228 180.665733 
L 158.384668 182.243248 
L 163.228108 183.620191 
L 169.282408 185.090435 
L 175.336708 186.319479 
L 181.391008 187.341297 
L 187.445308 188.193499 
L 195.921328 189.134362 
L 204.397348 189.842329 
L 214.084228 190.425884 
L 224.981968 190.866575 
L 234.461953 191.114224 
L 234.461953 191.114224 
" clip-path="url(#p74b3f87c6a)" style="fill: none; stroke: #28ae80; stroke-width: 1.5; stroke-linecap: square"/>
   </g>
   <g id="line2d_45">
    <path d="M 46.985548 154.058325 
L 48.196408 99.141279 
L 49.407268 71.50796 
L 50.618128 56.893218 
L 51.828988 49.085633 
L 53.039848 45.25423 
L 54.250708 43.895445 
L 55.461568 44.000678 
L 56.672428 45.259973 
L 57.883288 47.232777 
L 59.094148 49.69507 
L 61.515868 55.521367 
L 65.148448 65.289666 
L 71.202748 81.796949 
L 74.835328 91.141994 
L 78.467908 99.872872 
L 82.100488 107.966584 
L 85.733068 115.444203 
L 89.365648 122.325083 
L 92.998228 128.659328 
L 96.630808 134.470241 
L 100.263388 139.795414 
L 103.895968 144.660717 
L 107.528548 149.112805 
L 111.161128 153.173203 
L 114.793708 156.869292 
L 118.426288 160.244329 
L 122.058868 163.320105 
L 125.691448 166.123858 
L 129.324027 168.677138 
L 132.956608 170.999558 
L 136.589188 173.112297 
L 141.432628 175.628391 
L 146.276068 177.836813 
L 151.119508 179.771211 
L 155.962948 181.461817 
L 160.806388 182.939138 
L 166.860688 184.520153 
L 172.914988 185.845287 
L 180.180148 187.146374 
L 188.656168 188.33551 
L 195.921328 189.128545 
L 204.397348 189.838059 
L 214.084228 190.423007 
L 224.981968 190.864806 
L 234.461953 191.113124 
L 234.461953 191.113124 
" clip-path="url(#p74b3f87c6a)" style="fill: none; stroke: #2eb37c; stroke-width: 1.5; stroke-linecap: square"/>
   </g>
   <g id="line2d_46">
    <path d="M 46.985548 153.104064 
L 48.196408 97.379622 
L 49.407268 69.699854 
L 50.618128 55.198445 
L 51.828988 47.537729 
L 53.039848 43.850999 
L 54.250708 42.624897 
L 55.461568 42.853678 
L 56.672428 44.219921 
L 57.883288 46.287887 
L 59.094148 48.834805 
L 61.515868 54.803414 
L 65.148448 64.733083 
L 71.202748 81.418068 
L 74.835328 90.835462 
L 78.467908 99.62235 
L 82.100488 107.759716 
L 85.733068 115.271236 
L 89.365648 122.178845 
L 92.998228 128.533786 
L 96.630808 134.36123 
L 100.263388 139.699736 
L 103.895968 144.576312 
L 107.528548 149.037685 
L 111.161128 153.10619 
L 114.793708 156.809647 
L 118.426288 160.190941 
L 122.058868 163.272221 
L 125.691448 166.080749 
L 129.324027 168.638218 
L 132.956608 170.96437 
L 136.589188 173.080367 
L 141.432628 175.600356 
L 146.276068 177.812182 
L 151.119508 179.749586 
L 155.962948 181.442883 
L 160.806388 182.922503 
L 166.860688 184.506039 
L 172.914988 185.833356 
L 180.180148 187.136812 
L 188.656168 188.328329 
L 195.921328 189.122941 
L 204.397348 189.833953 
L 214.084228 190.420245 
L 224.981968 190.86311 
L 234.461953 191.112069 
L 234.461953 191.112069 
" clip-path="url(#p74b3f87c6a)" style="fill: none; stroke: #35b779; stroke-width: 1.5; stroke-linecap: square"/>
   </g>
   <g id="line2d_47">
    <path d="M 46.985548 152.17093 
L 48.196408 95.673912 
L 49.407268 67.959245 
L 50.618128 53.572765 
L 51.828988 46.056654 
L 53.039848 42.51088 
L 54.250708 41.413271 
L 55.461568 41.761077 
L 56.672428 43.230098 
L 57.883288 45.389275 
L 59.094148 48.017131 
L 61.515868 54.121512 
L 65.148448 64.204645 
L 71.202748 81.058013 
L 74.835328 90.543779 
L 78.467908 99.383542 
L 82.100488 107.562111 
L 85.733068 115.105648 
L 89.365648 122.038528 
L 92.998228 128.41307 
L 96.630808 134.256199 
L 100.263388 139.607383 
L 103.895968 144.4947 
L 107.528548 148.964941 
L 111.161128 153.041203 
L 114.793708 156.751721 
L 118.426288 160.139029 
L 122.058868 163.225614 
L 125.691448 166.038756 
L 129.324027 168.600285 
L 132.956608 170.930063 
L 136.589188 173.049236 
L 141.432628 175.573028 
L 146.276068 177.788182 
L 151.119508 179.728529 
L 155.962948 181.42446 
L 160.806388 182.906336 
L 166.860688 184.492344 
L 172.914988 185.821801 
L 180.180148 187.127568 
L 187.445308 188.17087 
L 195.921328 189.117541 
L 204.397348 189.830003 
L 214.084228 190.417591 
L 224.981968 190.861483 
L 234.461953 191.111057 
L 234.461953 191.111057 
" clip-path="url(#p74b3f87c6a)" style="fill: none; stroke: #3dbc74; stroke-width: 1.5; stroke-linecap: square"/>
   </g>
   <g id="line2d_48">
    <path d="M 46.985548 151.258255 
L 48.196408 94.021517 
L 49.407268 66.282413 
L 50.618128 52.012042 
L 51.828988 44.63819 
L 53.039848 41.229739 
L 54.250708 40.256596 
L 55.461568 40.719132 
L 56.672428 42.286984 
L 57.883288 44.533653 
L 59.094148 47.238987 
L 61.515868 53.473024 
L 66.359308 67.166182 
L 71.202748 80.715383 
L 74.835328 90.265851 
L 78.467908 99.155605 
L 82.100488 107.373125 
L 85.733068 114.946948 
L 89.365648 121.903757 
L 92.998228 128.296892 
L 96.630808 134.154927 
L 100.263388 139.518187 
L 103.895968 144.41575 
L 107.528548 148.894472 
L 111.161128 152.97817 
L 114.793708 156.69546 
L 118.426288 160.088556 
L 122.058868 163.180256 
L 125.691448 165.997862 
L 129.324027 168.563327 
L 132.956608 170.896629 
L 136.589188 173.018896 
L 141.432628 175.546398 
L 146.276068 177.764805 
L 151.119508 179.708031 
L 155.962948 181.40654 
L 160.806388 182.890628 
L 166.860688 184.479057 
L 172.914988 185.810608 
L 180.180148 187.118627 
L 187.445308 188.163841 
L 195.921328 189.112334 
L 204.397348 189.826201 
L 214.084228 190.415039 
L 224.981968 190.85992 
L 234.461953 191.110086 
L 234.461953 191.110086 
" clip-path="url(#p74b3f87c6a)" style="fill: none; stroke: #46c06f; stroke-width: 1.5; stroke-linecap: square"/>
   </g>
   <g id="line2d_49">
    <path d="M 46.985548 150.365393 
L 48.196408 92.41996 
L 49.407268 64.665901 
L 50.618128 50.51246 
L 51.828988 43.278465 
L 53.039848 40.003793 
L 54.250708 39.151249 
L 55.461568 39.724433 
L 56.672428 41.387382 
L 57.883288 43.718034 
L 59.094148 46.497596 
L 61.515868 52.855562 
L 66.359308 66.724955 
L 71.202748 80.388913 
L 74.835328 90.000695 
L 78.467908 98.937779 
L 82.100488 107.192173 
L 85.733068 114.794686 
L 89.365648 121.774189 
L 92.998228 128.184988 
L 96.630808 134.057211 
L 100.263388 139.431987 
L 103.895968 144.339339 
L 107.528548 148.826186 
L 111.161128 152.917016 
L 114.793708 156.640812 
L 118.426288 160.039482 
L 122.058868 163.13612 
L 125.691448 165.958045 
L 129.324027 168.527329 
L 132.956608 170.864055 
L 136.589188 172.989336 
L 141.432628 175.520457 
L 146.276068 177.742042 
L 151.119508 179.688084 
L 155.962948 181.389112 
L 160.806388 182.875367 
L 166.860688 184.466166 
L 172.914988 185.799764 
L 180.180148 187.109978 
L 187.445308 188.157051 
L 195.921328 189.107311 
L 204.397348 189.822537 
L 214.084228 190.412584 
L 224.981968 190.858418 
L 234.461953 191.109153 
L 234.461953 191.109153 
" clip-path="url(#p74b3f87c6a)" style="fill: none; stroke: #50c46a; stroke-width: 1.5; stroke-linecap: square"/>
   </g>
   <g id="line2d_50">
    <path d="M 46.985548 149.491711 
L 48.196408 90.866903 
L 49.407268 63.10649 
L 50.618128 49.070492 
L 51.828988 41.973917 
L 53.039848 38.829572 
L 54.250708 38.093914 
L 55.461568 38.773867 
L 56.672428 40.528375 
L 57.883288 42.939702 
L 59.094148 45.790432 
L 61.515868 52.266959 
L 73.624468 86.597603 
L 77.257048 95.814387 
L 80.889628 104.330348 
L 84.522208 112.176466 
L 88.154788 119.381997 
L 91.787368 125.996468 
L 95.419948 132.058775 
L 99.052528 137.605353 
L 102.685108 142.675141 
L 106.317688 147.311268 
L 109.950268 151.527215 
L 113.582848 155.378053 
L 117.215428 158.889726 
L 120.848008 162.090321 
L 124.480588 165.006935 
L 128.113168 167.661296 
L 131.745748 170.077401 
L 135.378328 172.272861 
L 139.010908 174.269073 
L 143.854348 176.64396 
L 148.697788 178.726962 
L 153.541228 180.549078 
L 158.384668 182.141217 
L 163.228108 183.530749 
L 169.282408 185.015105 
L 175.336708 186.256642 
L 181.391008 187.289737 
L 187.445308 188.150489 
L 195.921328 189.102462 
L 204.397348 189.819006 
L 214.084228 190.410219 
L 224.981968 190.856972 
L 234.461953 191.108255 
L 234.461953 191.108255 
" clip-path="url(#p74b3f87c6a)" style="fill: none; stroke: #5ac864; stroke-width: 1.5; stroke-linecap: square"/>
   </g>
   <g id="line2d_51">
    <path d="M 46.985548 148.636597 
L 48.196408 89.360145 
L 49.407268 61.601183 
L 50.618128 47.682874 
L 51.828988 40.721264 
L 53.039848 37.703887 
L 54.250708 37.081552 
L 55.461568 37.864583 
L 56.672428 39.707299 
L 57.883288 42.196176 
L 60.305008 48.320775 
L 63.937588 58.756191 
L 69.991888 76.396094 
L 73.624468 86.338624 
L 77.257048 95.601714 
L 80.889628 104.153783 
L 84.522208 112.027968 
L 88.154788 119.255635 
L 91.787368 125.887467 
L 95.419948 131.963599 
L 99.052528 137.521469 
L 102.685108 142.600662 
L 106.317688 147.244558 
L 109.950268 151.467728 
L 113.582848 155.324702 
L 117.215428 158.841749 
L 120.848008 162.047092 
L 124.480588 164.967884 
L 128.113168 167.626006 
L 131.745748 170.045439 
L 135.378328 172.243928 
L 139.010908 174.2428 
L 143.854348 176.620923 
L 148.697788 178.706766 
L 153.541228 180.531436 
L 158.384668 182.125829 
L 163.228108 183.517309 
L 169.282408 185.003837 
L 175.336708 186.247284 
L 181.391008 187.282083 
L 187.445308 188.144143 
L 195.921328 189.097778 
L 204.397348 189.8156 
L 214.084228 190.407941 
L 224.981968 190.855581 
L 234.461953 191.107391 
L 234.461953 191.107391 
" clip-path="url(#p74b3f87c6a)" style="fill: none; stroke: #65cb5e; stroke-width: 1.5; stroke-linecap: square"/>
   </g>
   <g id="line2d_52">
    <path d="M 46.985548 147.799459 
L 48.196408 87.89761 
L 49.407268 60.147188 
L 50.618128 46.346583 
L 51.828988 39.517474 
L 53.039848 36.623808 
L 54.250708 36.111376 
L 55.461568 36.993974 
L 56.672428 38.921717 
L 57.883288 41.485193 
L 60.305008 47.733066 
L 63.937588 58.305009 
L 69.991888 76.090534 
L 73.624468 86.090805 
L 77.257048 95.397912 
L 80.889628 103.984299 
L 84.522208 111.885171 
L 88.154788 119.133908 
L 91.787368 125.78229 
L 95.419948 131.871625 
L 99.052528 137.440297 
L 102.685108 142.528505 
L 106.317688 147.179866 
L 109.950268 151.409978 
L 113.582848 155.272864 
L 117.215428 158.795097 
L 120.848008 162.00503 
L 124.480588 164.929871 
L 128.113168 167.591644 
L 131.745748 170.014312 
L 135.378328 172.215748 
L 139.010908 174.217214 
L 143.854348 176.598495 
L 148.697788 178.687111 
L 153.541228 180.514276 
L 158.384668 182.11087 
L 163.228108 183.504255 
L 169.282408 184.992904 
L 175.336708 186.238212 
L 181.391008 187.274669 
L 187.445308 188.138004 
L 195.921328 189.093253 
L 204.397348 189.812312 
L 214.084228 190.405744 
L 224.981968 190.85424 
L 234.461953 191.10656 
L 234.461953 191.10656 
" clip-path="url(#p74b3f87c6a)" style="fill: none; stroke: #70cf57; stroke-width: 1.5; stroke-linecap: square"/>
   </g>
   <g id="line2d_53">
    <path d="M 46.985548 146.979724 
L 48.196408 86.477341 
L 49.407268 58.741897 
L 50.618128 45.058814 
L 51.828988 38.35975 
L 53.039848 35.58663 
L 54.250708 35.18082 
L 55.461568 36.159642 
L 56.672428 38.169396 
L 57.883288 40.804677 
L 60.305008 47.170933 
L 63.937588 57.873607 
L 69.991888 75.798146 
L 73.624468 85.853416 
L 77.257048 95.202415 
L 80.889628 103.821456 
L 84.522208 111.747736 
L 88.154788 119.016552 
L 91.787368 125.680728 
L 95.419948 131.782687 
L 99.052528 137.361707 
L 102.685108 142.458565 
L 106.317688 147.117105 
L 109.950268 151.353897 
L 113.582848 155.222483 
L 117.215428 158.749725 
L 120.848008 161.964101 
L 124.480588 164.892868 
L 128.113168 167.558183 
L 131.745748 169.983998 
L 135.378328 172.188303 
L 139.010908 174.192299 
L 143.854348 176.576659 
L 148.697788 178.667983 
L 153.541228 180.497583 
L 158.384668 182.096327 
L 163.228108 183.491573 
L 169.282408 184.982293 
L 175.336708 186.229415 
L 181.391008 187.267485 
L 187.445308 188.132062 
L 195.921328 189.088877 
L 204.397348 189.809137 
L 214.084228 190.403624 
L 224.981968 190.852948 
L 234.461953 191.105758 
L 234.461953 191.105758 
" clip-path="url(#p74b3f87c6a)" style="fill: none; stroke: #7cd250; stroke-width: 1.5; stroke-linecap: square"/>
   </g>
   <g id="line2d_54">
    <path d="M 46.985548 146.176837 
L 48.196408 85.097491 
L 49.407268 57.382876 
L 50.618128 43.81696 
L 51.828988 37.2455 
L 53.039848 34.589861 
L 54.250708 34.287523 
L 55.461568 35.359385 
L 56.672428 37.448284 
L 57.883288 40.152725 
L 60.305008 46.632748 
L 63.937588 57.460708 
L 69.991888 75.518079 
L 73.624468 85.625791 
L 77.257048 95.014703 
L 80.889628 103.66485 
L 84.522208 111.615348 
L 88.154788 118.90332 
L 91.787368 125.58259 
L 95.419948 131.696632 
L 99.052528 137.285574 
L 102.685108 142.390742 
L 106.317688 147.056193 
L 109.950268 151.299418 
L 113.582848 155.173505 
L 117.215428 158.705591 
L 120.848008 161.924268 
L 124.480588 164.856842 
L 128.113168 167.525599 
L 131.745748 169.954474 
L 135.378328 172.161572 
L 139.010908 174.168036 
L 143.854348 176.555399 
L 148.697788 178.649367 
L 153.541228 180.481343 
L 158.384668 182.082186 
L 163.228108 183.479251 
L 169.282408 184.971992 
L 175.336708 186.220882 
L 181.391008 187.260521 
L 187.445308 188.126309 
L 195.921328 189.084645 
L 204.397348 189.806069 
L 214.084228 190.401577 
L 224.981968 190.851701 
L 234.461953 191.104985 
L 234.461953 191.104985 
" clip-path="url(#p74b3f87c6a)" style="fill: none; stroke: #89d548; stroke-width: 1.5; stroke-linecap: square"/>
   </g>
   <g id="line2d_55">
    <path d="M 46.985548 145.390266 
L 48.196408 83.756315 
L 49.407268 56.067846 
L 50.618128 42.618598 
L 51.828988 36.172321 
L 53.039848 33.631192 
L 54.250708 33.429304 
L 55.461568 34.591172 
L 56.672428 36.756493 
L 57.883288 39.527589 
L 60.305008 46.117021 
L 63.937588 57.065142 
L 68.781028 71.71514 
L 72.413608 82.100038 
L 76.046188 91.774422 
L 79.678768 100.702337 
L 83.311348 108.906073 
L 86.943928 116.430475 
L 90.576508 123.320911 
L 94.209088 129.632125 
L 97.841668 135.401705 
L 101.474248 140.67409 
L 105.106828 145.485096 
L 108.739408 149.87165 
L 112.371988 153.876046 
L 116.004568 157.52301 
L 119.637148 160.846109 
L 123.269728 163.873386 
L 126.902308 166.630981 
L 130.534888 169.140498 
L 134.167468 171.423097 
L 139.010908 174.144405 
L 143.854348 176.534698 
L 148.697788 178.631246 
L 153.541228 180.465542 
L 158.384668 182.068435 
L 163.228108 183.467276 
L 169.282408 184.961989 
L 175.336708 186.212603 
L 181.391008 187.253767 
L 187.445308 188.120737 
L 195.921328 189.080548 
L 204.397348 189.803102 
L 214.084228 190.3996 
L 224.981968 190.850497 
L 234.461953 191.104238 
L 234.461953 191.104238 
" clip-path="url(#p74b3f87c6a)" style="fill: none; stroke: #95d840; stroke-width: 1.5; stroke-linecap: square"/>
   </g>
   <g id="line2d_56">
    <path d="M 46.985548 144.619495 
L 48.196408 82.452168 
L 49.407268 54.794679 
L 50.618128 41.46147 
L 51.828988 35.137986 
L 53.039848 32.708491 
L 54.250708 32.604152 
L 55.461568 33.85313 
L 56.672428 36.092284 
L 57.883288 38.927659 
L 60.305008 45.622379 
L 65.148448 60.427173 
L 69.991888 74.991855 
L 73.624468 85.197445 
L 77.257048 94.66077 
L 80.889628 103.368903 
L 84.522208 111.364582 
L 88.154788 118.688349 
L 91.787368 125.395883 
L 95.419948 131.532609 
L 99.052528 137.140228 
L 102.685108 142.261076 
L 106.317688 146.939611 
L 109.950268 151.195019 
L 113.582848 155.079553 
L 117.215428 158.620861 
L 120.848008 161.847747 
L 124.480588 164.787603 
L 128.113168 167.462953 
L 131.745748 169.897704 
L 135.378328 172.11017 
L 139.010908 174.121387 
L 143.854348 176.514539 
L 148.697788 178.613606 
L 153.541228 180.450166 
L 158.384668 182.055059 
L 163.228108 183.455635 
L 169.282408 184.952273 
L 175.336708 186.204566 
L 181.391008 187.247216 
L 187.445308 188.115336 
L 195.921328 189.076582 
L 204.397348 189.800233 
L 214.084228 190.397688 
L 224.981968 190.849334 
L 234.461953 191.103518 
L 234.461953 191.103518 
" clip-path="url(#p74b3f87c6a)" style="fill: none; stroke: #a2da37; stroke-width: 1.5; stroke-linecap: square"/>
   </g>
   <g id="line2d_57">
    <path d="M 46.985548 143.864029 
L 48.196408 81.183492 
L 49.407268 53.561377 
L 50.618128 40.343474 
L 51.828988 34.140424 
L 53.039848 31.819777 
L 54.250708 31.810201 
L 55.461568 33.143529 
L 56.672428 35.454052 
L 57.883288 38.351451 
L 60.305008 45.14756 
L 65.148448 60.091941 
L 69.991888 74.744328 
L 73.624468 84.99565 
L 77.257048 94.49371 
L 80.889628 103.228907 
L 84.522208 111.245693 
L 88.154788 118.586206 
L 91.787368 125.306993 
L 95.419948 131.454383 
L 99.052528 137.070804 
L 102.685108 142.19906 
L 106.317688 146.883796 
L 109.950268 151.144979 
L 113.582848 155.034481 
L 117.215428 158.580183 
L 120.848008 161.810988 
L 124.480588 164.754329 
L 128.113168 167.432839 
L 131.745748 169.870413 
L 135.378328 172.085459 
L 139.010908 174.098965 
L 143.854348 176.494905 
L 148.697788 178.596431 
L 153.541228 180.4352 
L 158.384668 182.042046 
L 163.228108 183.444317 
L 169.282408 184.942833 
L 175.336708 186.196763 
L 181.391008 187.240857 
L 187.445308 188.1101 
L 195.921328 189.072739 
L 204.397348 189.797455 
L 214.084228 190.395839 
L 224.981968 190.84821 
L 234.461953 191.102821 
L 234.461953 191.102821 
" clip-path="url(#p74b3f87c6a)" style="fill: none; stroke: #b0dd2f; stroke-width: 1.5; stroke-linecap: square"/>
   </g>
   <g id="line2d_58">
    <path d="M 46.985548 143.12339 
L 48.196408 79.948817 
L 49.407268 52.366069 
L 50.618128 39.262644 
L 51.828988 33.177707 
L 53.039848 30.963214 
L 54.250708 31.045726 
L 55.461568 32.460768 
L 56.672428 34.840312 
L 57.883288 37.797595 
L 60.305008 44.6914 
L 72.413608 81.452694 
L 76.046188 91.241144 
L 79.678768 100.257116 
L 83.311348 108.529712 
L 86.943928 116.108282 
L 90.576508 123.041888 
L 94.209088 129.387364 
L 97.841668 135.185043 
L 101.474248 140.480762 
L 105.106828 145.311841 
L 108.739408 149.716094 
L 112.371988 153.735689 
L 116.004568 157.396438 
L 119.637148 160.731871 
L 123.269728 163.770176 
L 126.902308 166.537565 
L 130.534888 169.055883 
L 134.167468 171.346373 
L 137.800048 173.426139 
L 142.643488 175.904015 
L 147.486928 178.078032 
L 152.330368 179.982474 
L 157.173808 181.647574 
L 162.017248 183.099462 
L 166.860688 184.365829 
L 172.914988 185.715827 
L 180.180148 187.043387 
L 187.445308 188.105022 
L 195.921328 189.069015 
L 204.397348 189.794764 
L 214.084228 190.39405 
L 224.981968 190.847123 
L 234.461953 191.102147 
L 234.461953 191.102147 
" clip-path="url(#p74b3f87c6a)" style="fill: none; stroke: #bddf26; stroke-width: 1.5; stroke-linecap: square"/>
   </g>
   <g id="line2d_59">
    <path d="M 46.985548 142.39712 
L 48.196408 78.746749 
L 49.407268 51.206998 
L 50.618128 38.217148 
L 51.828988 32.248041 
L 53.039848 30.137094 
L 54.250708 30.309124 
L 55.461568 31.803362 
L 56.672428 34.249692 
L 57.883288 37.264823 
L 60.305008 44.252823 
L 71.202748 77.805779 
L 74.835328 87.889778 
L 78.467908 97.19016 
L 82.100488 105.727672 
L 85.733068 113.551264 
L 89.365648 120.706641 
L 92.998228 127.255537 
L 96.630808 133.239676 
L 100.263388 138.706218 
L 103.895968 143.692202 
L 107.528548 148.245043 
L 111.161128 152.394274 
L 114.793708 156.171559 
L 118.426288 159.616595 
L 122.058868 162.754659 
L 125.691448 165.613197 
L 129.324027 168.215149 
L 132.956608 170.581375 
L 136.589188 172.73287 
L 141.432628 175.295585 
L 146.276068 177.545055 
L 151.119508 179.515867 
L 155.962948 181.239064 
L 160.806388 182.744476 
L 166.860688 184.3562 
L 172.914988 185.707809 
L 180.180148 187.037054 
L 187.445308 188.100093 
L 195.921328 189.065404 
L 204.397348 189.792158 
L 214.084228 190.392317 
L 224.981968 190.84607 
L 234.461953 191.101496 
L 234.461953 191.101496 
" clip-path="url(#p74b3f87c6a)" style="fill: none; stroke: #cae11f; stroke-width: 1.5; stroke-linecap: square"/>
   </g>
   <g id="line2d_60">
    <path d="M 46.985548 141.684776 
L 48.196408 77.575973 
L 49.407268 50.082515 
L 50.618128 37.205267 
L 51.828988 31.349751 
L 53.039848 29.339828 
L 54.250708 29.598908 
L 55.461568 31.169934 
L 56.672428 33.680918 
L 57.883288 36.75196 
L 60.305008 43.830837 
L 71.202748 77.60007 
L 74.835328 87.720586 
L 78.467908 97.048985 
L 82.100488 105.608352 
L 85.733068 113.449086 
L 89.365648 120.618188 
L 92.998228 127.177966 
L 96.630808 133.171008 
L 100.263388 138.644927 
L 103.895968 143.637284 
L 107.528548 148.195534 
L 111.161128 152.349584 
L 114.793708 156.1313 
L 118.426288 159.580217 
L 122.058868 162.721773 
L 125.691448 165.583424 
L 129.324027 168.188174 
L 132.956608 170.55694 
L 136.589188 172.710709 
L 141.432628 175.276171 
L 146.276068 177.528075 
L 151.119508 179.501052 
L 155.962948 181.226185 
L 160.806388 182.733278 
L 166.860688 184.346834 
L 172.914988 185.700015 
L 178.969288 186.828176 
L 186.234448 187.934639 
L 193.499608 188.813215 
L 201.975628 189.60333 
L 211.662508 190.260242 
L 222.560248 190.76061 
L 234.461953 191.100865 
L 234.461953 191.100865 
" clip-path="url(#p74b3f87c6a)" style="fill: none; stroke: #d8e219; stroke-width: 1.5; stroke-linecap: square"/>
   </g>
   <g id="line2d_61">
    <path d="M 46.985548 140.985932 
L 48.196408 76.435239 
L 49.407268 48.991067 
L 50.618128 36.225395 
L 51.828988 30.481274 
L 53.039848 28.569934 
L 54.250708 28.91369 
L 55.461568 30.559205 
L 56.672428 33.132808 
L 57.883288 36.257919 
L 60.305008 43.424519 
L 71.202748 77.401791 
L 74.835328 87.557338 
L 78.467908 96.912606 
L 82.100488 105.492937 
L 85.733068 113.350128 
L 89.365648 120.532421 
L 92.998228 127.102673 
L 96.630808 133.104299 
L 100.263388 138.585341 
L 103.895968 143.583859 
L 107.528548 148.147345 
L 111.161128 152.306068 
L 114.793708 156.092081 
L 118.426288 159.544767 
L 122.058868 162.689718 
L 125.691448 165.554398 
L 129.324027 168.161874 
L 132.956608 170.533116 
L 136.589188 172.689104 
L 141.432628 175.257247 
L 146.276068 177.511527 
L 151.119508 179.486619 
L 155.962948 181.213642 
L 160.806388 182.722376 
L 166.860688 184.337721 
L 172.914988 185.692436 
L 178.969288 186.821974 
L 186.234448 187.929779 
L 193.499608 188.809469 
L 201.975628 189.600625 
L 211.662508 190.25843 
L 222.560248 190.75951 
L 234.461953 191.100253 
L 234.461953 191.100253 
" clip-path="url(#p74b3f87c6a)" style="fill: none; stroke: #e5e419; stroke-width: 1.5; stroke-linecap: square"/>
   </g>
   <g id="line2d_62">
    <path d="M 46.985548 140.30018 
L 48.196408 75.323365 
L 49.407268 47.931195 
L 50.618128 35.276026 
L 51.828988 29.641148 
L 53.039848 27.826031 
L 54.250708 28.252183 
L 55.461568 29.969983 
L 56.672428 32.604264 
L 57.883288 35.781687 
L 60.305008 43.033014 
L 69.991888 73.639694 
L 73.624468 84.092546 
L 77.257048 93.743431 
L 80.889628 102.597706 
L 84.522208 110.707525 
L 88.154788 118.122068 
L 91.787368 124.901691 
L 95.419948 131.096643 
L 99.052528 136.752505 
L 102.685108 141.914107 
L 106.317688 146.626905 
L 109.950268 150.914247 
L 113.582848 154.826355 
L 117.215428 158.392129 
L 120.848008 161.6409 
L 124.480588 164.600275 
L 128.113168 167.293354 
L 131.745748 169.743983 
L 135.378328 171.970982 
L 139.010908 173.995132 
L 143.854348 176.404034 
L 148.697788 178.517008 
L 153.541228 180.366058 
L 158.384668 181.981993 
L 163.228108 183.392164 
L 169.282408 184.899412 
L 175.336708 186.160935 
L 181.391008 187.2117 
L 187.445308 188.086149 
L 194.710468 188.933254 
L 203.186488 189.693346 
L 212.873368 190.32354 
L 223.771108 190.801847 
L 234.461953 191.099661 
L 234.461953 191.099661 
" clip-path="url(#p74b3f87c6a)" style="fill: none; stroke: #f1e51d; stroke-width: 1.5; stroke-linecap: square"/>
   </g>
   <g id="line2d_63">
    <path d="M 46.985548 191.506031 
L 54.250708 191.506031 
L 55.461568 188.634501 
L 59.094148 187.676352 
L 60.305008 187.467452 
L 69.991888 184.804925 
L 74.835328 183.068293 
L 78.467908 181.266241 
L 80.889628 179.812337 
L 83.311348 178.283786 
L 85.733068 176.519907 
L 88.154788 174.337791 
L 92.998228 169.658421 
L 96.630808 165.632439 
L 103.895968 157.285441 
L 107.528548 153.710732 
L 108.739408 152.36056 
L 109.950268 151.307972 
L 111.161128 150.675587 
L 113.582848 148.639631 
L 116.004568 147.579804 
L 117.215428 146.937412 
L 120.848008 146.162139 
L 123.269728 146.172032 
L 125.691448 146.499223 
L 128.113168 147.168064 
L 130.534888 148.137844 
L 132.956608 149.332791 
L 137.800048 152.351804 
L 147.486928 159.742601 
L 148.697788 160.846353 
L 149.908648 161.693632 
L 151.119508 162.812719 
L 153.541228 164.754806 
L 160.806388 170.481186 
L 162.017248 171.291704 
L 164.438968 173.104232 
L 165.649828 173.883977 
L 166.860688 174.823089 
L 168.071548 175.444689 
L 170.493268 177.066479 
L 171.704128 177.658576 
L 172.914988 178.621925 
L 174.125848 179.115185 
L 176.547568 180.536121 
L 177.758428 180.891468 
L 178.969288 181.624357 
L 180.180148 182.22668 
L 181.391008 182.516938 
L 182.601867 183.263717 
L 183.812728 183.727414 
L 185.023588 184.039631 
L 186.234448 184.623426 
L 193.499608 186.823206 
L 198.343048 187.902441 
L 206.819068 189.287925 
L 214.084228 190.058833 
L 220.138528 190.503879 
L 234.461953 191.090044 
L 234.461953 191.090044 
" clip-path="url(#p74b3f87c6a)" style="fill: none; stroke-dasharray: 5.55,2.4; stroke-dashoffset: 0; stroke: #000000; stroke-width: 1.5"/>
   </g>
   <g id="patch_3">
    <path d="M 45.774688 191.506031 
L 45.774688 19.642031 
" style="fill: none; stroke: #000000; stroke-width: 0.8; stroke-linejoin: miter; stroke-linecap: square"/>
   </g>
   <g id="patch_4">
    <path d="M 218.754688 191.506031 
L 218.754688 19.642031 
" style="fill: none; stroke: #000000; stroke-width: 0.8; stroke-linejoin: miter; stroke-linecap: square"/>
   </g>
   <g id="patch_5">
    <path d="M 45.774688 191.506031 
L 218.754688 191.506031 
" style="fill: none; stroke: #000000; stroke-width: 0.8; stroke-linejoin: miter; stroke-linecap: square"/>
   </g>
   <g id="patch_6">
    <path d="M 45.774688 19.642031 
L 218.754688 19.642031 
" style="fill: none; stroke: #000000; stroke-width: 0.8; stroke-linejoin: miter; stroke-linecap: square"/>
   </g>
   <g id="text_15">
    <!-- N:5 -->
    <g transform="translate(125.262266 13.642031) scale(0.09 -0.09)">
     <defs>
      <path id="ArialMT-4e" d="M 488 0 
L 488 4581 
L 1109 4581 
L 3516 984 
L 3516 4581 
L 4097 4581 
L 4097 0 
L 3475 0 
L 1069 3600 
L 1069 0 
L 488 0 
z
" transform="scale(0.015625)"/>
      <path id="ArialMT-3a" d="M 578 2678 
L 578 3319 
L 1219 3319 
L 1219 2678 
L 578 2678 
z
M 578 0 
L 578 641 
L 1219 641 
L 1219 0 
L 578 0 
z
" transform="scale(0.015625)"/>
     </defs>
     <use xlink:href="#ArialMT-4e"/>
     <use xlink:href="#ArialMT-3a" transform="translate(72.216797 0)"/>
     <use xlink:href="#ArialMT-35" transform="translate(100 0)"/>
    </g>
   </g>
  </g>
 </g>
 <defs>
  <clipPath id="p74b3f87c6a">
   <rect x="45.774688" y="19.642031" width="172.98" height="171.864"/>
  </clipPath>
 </defs>
</svg>
