<?xml version="1.0" encoding="utf-8" standalone="no"?>
<!DOCTYPE svg PUBLIC "-//W3C//DTD SVG 1.1//EN"
  "http://www.w3.org/Graphics/SVG/1.1/DTD/svg11.dtd">
<svg xmlns:xlink="http://www.w3.org/1999/xlink" width="233.461953pt" height="228.606812pt" viewBox="0 0 233.461953 228.606812" xmlns="http://www.w3.org/2000/svg" version="1.1">
 <metadata>
  <rdf:RDF xmlns:dc="http://purl.org/dc/elements/1.1/" xmlns:cc="http://creativecommons.org/ns#" xmlns:rdf="http://www.w3.org/1999/02/22-rdf-syntax-ns#">
   <cc:Work>
    <dc:type rdf:resource="http://purl.org/dc/dcmitype/StillImage"/>
    <dc:date>2025-09-22T16:06:36.361244</dc:date>
    <dc:format>image/svg+xml</dc:format>
    <dc:creator>
     <cc:Agent>
      <dc:title>Matplotlib v3.10.6, https://matplotlib.org/</dc:title>
     </cc:Agent>
    </dc:creator>
   </cc:Work>
  </rdf:RDF>
 </metadata>
 <defs>
  <style type="text/css">*{stroke-linejoin: round; stroke-linecap: butt}</style>
 </defs>
 <g id="figure_1">
  <g id="patch_1">
   <path d="M 0 228.606812 
L 233.461953 228.606812 
L 233.461953 0 
L 0 0 
L 0 228.606812 
z
" style="fill: none"/>
  </g>
  <g id="axes_1">
   <g id="patch_2">
    <path d="M 45.774688 191.506031 
L 218.754688 191.506031 
L 218.754688 19.642031 
L 45.774688 19.642031 
L 45.774688 191.506031 
z
" style="fill: none"/>
   </g>
   <g id="matplotlib.axis_1">
    <g id="xtick_1">
     <g id="line2d_1">
      <defs>
       <path id="m3007827028" d="M 0 0 
L 0 3.5 
" style="stroke: #000000; stroke-width: 0.8"/>
      </defs>
      <g>
       <use xlink:href="#m3007827028" x="45.774688" y="191.506031" style="stroke: #000000; stroke-width: 0.8"/>
      </g>
     </g>
     <g id="text_1">
      <!-- 0 -->
      <g transform="translate(43.272266 204.948062) scale(0.09 -0.09)">
       <defs>
        <path id="ArialMT-30" d="M 266 2259 
Q 266 3072 433 3567 
Q 600 4063 929 4331 
Q 1259 4600 1759 4600 
Q 2128 4600 2406 4451 
Q 2684 4303 2865 4023 
Q 3047 3744 3150 3342 
Q 3253 2941 3253 2259 
Q 3253 1453 3087 958 
Q 2922 463 2592 192 
Q 2263 -78 1759 -78 
Q 1097 -78 719 397 
Q 266 969 266 2259 
z
M 844 2259 
Q 844 1131 1108 757 
Q 1372 384 1759 384 
Q 2147 384 2411 759 
Q 2675 1134 2675 2259 
Q 2675 3391 2411 3762 
Q 2147 4134 1753 4134 
Q 1366 4134 1134 3806 
Q 844 3388 844 2259 
z
" transform="scale(0.015625)"/>
       </defs>
       <use xlink:href="#ArialMT-30"/>
      </g>
     </g>
    </g>
    <g id="xtick_2">
     <g id="line2d_2">
      <g>
       <use xlink:href="#m3007827028" x="89.019688" y="191.506031" style="stroke: #000000; stroke-width: 0.8"/>
      </g>
     </g>
     <g id="text_2">
      <!-- 100 -->
      <g transform="translate(81.512422 204.948062) scale(0.09 -0.09)">
       <defs>
        <path id="ArialMT-31" d="M 2384 0 
L 1822 0 
L 1822 3584 
Q 1619 3391 1289 3197 
Q 959 3003 697 2906 
L 697 3450 
Q 1169 3672 1522 3987 
Q 1875 4303 2022 4600 
L 2384 4600 
L 2384 0 
z
" transform="scale(0.015625)"/>
       </defs>
       <use xlink:href="#ArialMT-31"/>
       <use xlink:href="#ArialMT-30" transform="translate(55.615234 0)"/>
       <use xlink:href="#ArialMT-30" transform="translate(111.230469 0)"/>
      </g>
     </g>
    </g>
    <g id="xtick_3">
     <g id="line2d_3">
      <g>
       <use xlink:href="#m3007827028" x="132.264688" y="191.506031" style="stroke: #000000; stroke-width: 0.8"/>
      </g>
     </g>
     <g id="text_3">
      <!-- 200 -->
      <g transform="translate(124.757422 204.948062) scale(0.09 -0.09)">
       <defs>
        <path id="ArialMT-32" d="M 3222 541 
L 3222 0 
L 194 0 
Q 188 203 259 391 
Q 375 700 629 1000 
Q 884 1300 1366 1694 
Q 2113 2306 2375 2664 
Q 2638 3022 2638 3341 
Q 2638 3675 2398 3904 
Q 2159 4134 1775 4134 
Q 1369 4134 1125 3890 
Q 881 3647 878 3216 
L 300 3275 
Q 359 3922 746 4261 
Q 1134 4600 1788 4600 
Q 2447 4600 2831 4234 
Q 3216 3869 3216 3328 
Q 3216 3053 3103 2787 
Q 2991 2522 2730 2228 
Q 2469 1934 1863 1422 
Q 1356 997 1212 845 
Q 1069 694 975 541 
L 3222 541 
z
" transform="scale(0.015625)"/>
       </defs>
       <use xlink:href="#ArialMT-32"/>
       <use xlink:href="#ArialMT-30" transform="translate(55.615234 0)"/>
       <use xlink:href="#ArialMT-30" transform="translate(111.230469 0)"/>
      </g>
     </g>
    </g>
    <g id="xtick_4">
     <g id="line2d_4">
      <g>
       <use xlink:href="#m3007827028" x="175.509688" y="191.506031" style="stroke: #000000; stroke-width: 0.8"/>
      </g>
     </g>
     <g id="text_4">
      <!-- 300 -->
      <g transform="translate(168.002422 204.948062) scale(0.09 -0.09)">
       <defs>
        <path id="ArialMT-33" d="M 269 1209 
L 831 1284 
Q 928 806 1161 595 
Q 1394 384 1728 384 
Q 2125 384 2398 659 
Q 2672 934 2672 1341 
Q 2672 1728 2419 1979 
Q 2166 2231 1775 2231 
Q 1616 2231 1378 2169 
L 1441 2663 
Q 1497 2656 1531 2656 
Q 1891 2656 2178 2843 
Q 2466 3031 2466 3422 
Q 2466 3731 2256 3934 
Q 2047 4138 1716 4138 
Q 1388 4138 1169 3931 
Q 950 3725 888 3313 
L 325 3413 
Q 428 3978 793 4289 
Q 1159 4600 1703 4600 
Q 2078 4600 2393 4439 
Q 2709 4278 2876 4000 
Q 3044 3722 3044 3409 
Q 3044 3113 2884 2869 
Q 2725 2625 2413 2481 
Q 2819 2388 3044 2092 
Q 3269 1797 3269 1353 
Q 3269 753 2831 336 
Q 2394 -81 1725 -81 
Q 1122 -81 723 278 
Q 325 638 269 1209 
z
" transform="scale(0.015625)"/>
       </defs>
       <use xlink:href="#ArialMT-33"/>
       <use xlink:href="#ArialMT-30" transform="translate(55.615234 0)"/>
       <use xlink:href="#ArialMT-30" transform="translate(111.230469 0)"/>
      </g>
     </g>
    </g>
    <g id="xtick_5">
     <g id="line2d_5">
      <g>
       <use xlink:href="#m3007827028" x="218.754688" y="191.506031" style="stroke: #000000; stroke-width: 0.8"/>
      </g>
     </g>
     <g id="text_5">
      <!-- 400 -->
      <g transform="translate(211.247422 204.948062) scale(0.09 -0.09)">
       <defs>
        <path id="ArialMT-34" d="M 2069 0 
L 2069 1097 
L 81 1097 
L 81 1613 
L 2172 4581 
L 2631 4581 
L 2631 1613 
L 3250 1613 
L 3250 1097 
L 2631 1097 
L 2631 0 
L 2069 0 
z
M 2069 1613 
L 2069 3678 
L 634 1613 
L 2069 1613 
z
" transform="scale(0.015625)"/>
       </defs>
       <use xlink:href="#ArialMT-34"/>
       <use xlink:href="#ArialMT-30" transform="translate(55.615234 0)"/>
       <use xlink:href="#ArialMT-30" transform="translate(111.230469 0)"/>
      </g>
     </g>
    </g>
    <g id="text_6">
     <!-- $\bf{molar\ mass}\ \it{(kg/mol)}$ -->
     <g transform="translate(71.764688 219.096812) scale(0.11 -0.11)">
      <defs>
       <path id="DejaVuSans-Bold-6d" d="M 3781 2919 
Q 3994 3244 4286 3414 
Q 4578 3584 4928 3584 
Q 5531 3584 5847 3212 
Q 6163 2841 6163 2131 
L 6163 0 
L 5038 0 
L 5038 1825 
Q 5041 1866 5042 1909 
Q 5044 1953 5044 2034 
Q 5044 2406 4934 2573 
Q 4825 2741 4581 2741 
Q 4263 2741 4089 2478 
Q 3916 2216 3909 1719 
L 3909 0 
L 2784 0 
L 2784 1825 
Q 2784 2406 2684 2573 
Q 2584 2741 2328 2741 
Q 2006 2741 1831 2477 
Q 1656 2213 1656 1722 
L 1656 0 
L 531 0 
L 531 3500 
L 1656 3500 
L 1656 2988 
Q 1863 3284 2130 3434 
Q 2397 3584 2719 3584 
Q 3081 3584 3359 3409 
Q 3638 3234 3781 2919 
z
" transform="scale(0.015625)"/>
       <path id="DejaVuSans-Bold-6f" d="M 2203 2784 
Q 1831 2784 1636 2517 
Q 1441 2250 1441 1747 
Q 1441 1244 1636 976 
Q 1831 709 2203 709 
Q 2569 709 2762 976 
Q 2956 1244 2956 1747 
Q 2956 2250 2762 2517 
Q 2569 2784 2203 2784 
z
M 2203 3584 
Q 3106 3584 3614 3096 
Q 4122 2609 4122 1747 
Q 4122 884 3614 396 
Q 3106 -91 2203 -91 
Q 1297 -91 786 396 
Q 275 884 275 1747 
Q 275 2609 786 3096 
Q 1297 3584 2203 3584 
z
" transform="scale(0.015625)"/>
       <path id="DejaVuSans-Bold-6c" d="M 538 4863 
L 1656 4863 
L 1656 0 
L 538 0 
L 538 4863 
z
" transform="scale(0.015625)"/>
       <path id="DejaVuSans-Bold-61" d="M 2106 1575 
Q 1756 1575 1579 1456 
Q 1403 1338 1403 1106 
Q 1403 894 1545 773 
Q 1688 653 1941 653 
Q 2256 653 2472 879 
Q 2688 1106 2688 1447 
L 2688 1575 
L 2106 1575 
z
M 3816 1997 
L 3816 0 
L 2688 0 
L 2688 519 
Q 2463 200 2181 54 
Q 1900 -91 1497 -91 
Q 953 -91 614 226 
Q 275 544 275 1050 
Q 275 1666 698 1953 
Q 1122 2241 2028 2241 
L 2688 2241 
L 2688 2328 
Q 2688 2594 2478 2717 
Q 2269 2841 1825 2841 
Q 1466 2841 1156 2769 
Q 847 2697 581 2553 
L 581 3406 
Q 941 3494 1303 3539 
Q 1666 3584 2028 3584 
Q 2975 3584 3395 3211 
Q 3816 2838 3816 1997 
z
" transform="scale(0.015625)"/>
       <path id="DejaVuSans-Bold-72" d="M 3138 2547 
Q 2991 2616 2845 2648 
Q 2700 2681 2553 2681 
Q 2122 2681 1889 2404 
Q 1656 2128 1656 1613 
L 1656 0 
L 538 0 
L 538 3500 
L 1656 3500 
L 1656 2925 
Q 1872 3269 2151 3426 
Q 2431 3584 2822 3584 
Q 2878 3584 2943 3579 
Q 3009 3575 3134 3559 
L 3138 2547 
z
" transform="scale(0.015625)"/>
       <path id="DejaVuSans-Bold-73" d="M 3272 3391 
L 3272 2541 
Q 2913 2691 2578 2766 
Q 2244 2841 1947 2841 
Q 1628 2841 1473 2761 
Q 1319 2681 1319 2516 
Q 1319 2381 1436 2309 
Q 1553 2238 1856 2203 
L 2053 2175 
Q 2913 2066 3209 1816 
Q 3506 1566 3506 1031 
Q 3506 472 3093 190 
Q 2681 -91 1863 -91 
Q 1516 -91 1145 -36 
Q 775 19 384 128 
L 384 978 
Q 719 816 1070 734 
Q 1422 653 1784 653 
Q 2113 653 2278 743 
Q 2444 834 2444 1013 
Q 2444 1163 2330 1236 
Q 2216 1309 1875 1350 
L 1678 1375 
Q 931 1469 631 1722 
Q 331 1975 331 2491 
Q 331 3047 712 3315 
Q 1094 3584 1881 3584 
Q 2191 3584 2531 3537 
Q 2872 3491 3272 3391 
z
" transform="scale(0.015625)"/>
       <path id="DejaVuSans-28" d="M 1984 4856 
Q 1566 4138 1362 3434 
Q 1159 2731 1159 2009 
Q 1159 1288 1364 580 
Q 1569 -128 1984 -844 
L 1484 -844 
Q 1016 -109 783 600 
Q 550 1309 550 2009 
Q 550 2706 781 3412 
Q 1013 4119 1484 4856 
L 1984 4856 
z
" transform="scale(0.015625)"/>
       <path id="DejaVuSans-Oblique-6b" d="M 1172 4863 
L 1747 4863 
L 1197 2028 
L 3169 3500 
L 3916 3500 
L 1716 1825 
L 3322 0 
L 2625 0 
L 1131 1709 
L 800 0 
L 225 0 
L 1172 4863 
z
" transform="scale(0.015625)"/>
       <path id="DejaVuSans-Oblique-67" d="M 3816 3500 
L 3219 434 
Q 3047 -456 2561 -893 
Q 2075 -1331 1253 -1331 
Q 950 -1331 690 -1286 
Q 431 -1241 206 -1147 
L 313 -588 
Q 525 -725 762 -790 
Q 1000 -856 1269 -856 
Q 1816 -856 2167 -557 
Q 2519 -259 2631 300 
L 2681 563 
Q 2441 288 2122 144 
Q 1803 0 1434 0 
Q 903 0 598 351 
Q 294 703 294 1319 
Q 294 1803 478 2267 
Q 663 2731 997 3091 
Q 1219 3328 1514 3456 
Q 1809 3584 2131 3584 
Q 2484 3584 2746 3420 
Q 3009 3256 3138 2956 
L 3238 3500 
L 3816 3500 
z
M 2950 2216 
Q 2950 2641 2750 2872 
Q 2550 3103 2181 3103 
Q 1953 3103 1747 3012 
Q 1541 2922 1394 2759 
Q 1156 2491 1023 2127 
Q 891 1763 891 1375 
Q 891 944 1092 712 
Q 1294 481 1672 481 
Q 2219 481 2584 976 
Q 2950 1472 2950 2216 
z
" transform="scale(0.015625)"/>
       <path id="DejaVuSans-2f" d="M 1625 4666 
L 2156 4666 
L 531 -594 
L 0 -594 
L 1625 4666 
z
" transform="scale(0.015625)"/>
       <path id="DejaVuSans-Oblique-6d" d="M 5747 2113 
L 5338 0 
L 4763 0 
L 5166 2094 
Q 5191 2228 5203 2325 
Q 5216 2422 5216 2491 
Q 5216 2772 5059 2928 
Q 4903 3084 4622 3084 
Q 4203 3084 3875 2770 
Q 3547 2456 3450 1953 
L 3066 0 
L 2491 0 
L 2900 2094 
Q 2925 2209 2937 2307 
Q 2950 2406 2950 2484 
Q 2950 2769 2794 2926 
Q 2638 3084 2363 3084 
Q 1938 3084 1609 2770 
Q 1281 2456 1184 1953 
L 800 0 
L 225 0 
L 909 3500 
L 1484 3500 
L 1375 2956 
Q 1609 3263 1923 3423 
Q 2238 3584 2597 3584 
Q 2978 3584 3223 3384 
Q 3469 3184 3519 2828 
Q 3781 3197 4126 3390 
Q 4472 3584 4856 3584 
Q 5306 3584 5551 3325 
Q 5797 3066 5797 2591 
Q 5797 2488 5784 2364 
Q 5772 2241 5747 2113 
z
" transform="scale(0.015625)"/>
       <path id="DejaVuSans-Oblique-6f" d="M 1625 -91 
Q 1009 -91 651 289 
Q 294 669 294 1325 
Q 294 1706 417 2101 
Q 541 2497 738 2766 
Q 1047 3184 1428 3384 
Q 1809 3584 2291 3584 
Q 2888 3584 3255 3212 
Q 3622 2841 3622 2241 
Q 3622 1825 3500 1412 
Q 3378 1000 3181 728 
Q 2875 309 2494 109 
Q 2113 -91 1625 -91 
z
M 891 1344 
Q 891 869 1089 633 
Q 1288 397 1691 397 
Q 2269 397 2648 901 
Q 3028 1406 3028 2181 
Q 3028 2634 2825 2865 
Q 2622 3097 2228 3097 
Q 1903 3097 1650 2945 
Q 1397 2794 1197 2484 
Q 1050 2253 970 1956 
Q 891 1659 891 1344 
z
" transform="scale(0.015625)"/>
       <path id="DejaVuSans-Oblique-6c" d="M 1172 4863 
L 1747 4863 
L 800 0 
L 225 0 
L 1172 4863 
z
" transform="scale(0.015625)"/>
       <path id="DejaVuSans-29" d="M 513 4856 
L 1013 4856 
Q 1481 4119 1714 3412 
Q 1947 2706 1947 2009 
Q 1947 1309 1714 600 
Q 1481 -109 1013 -844 
L 513 -844 
Q 928 -128 1133 580 
Q 1338 1288 1338 2009 
Q 1338 2731 1133 3434 
Q 928 4138 513 4856 
z
" transform="scale(0.015625)"/>
      </defs>
      <use xlink:href="#DejaVuSans-Bold-6d" transform="translate(0 0.015625)"/>
      <use xlink:href="#DejaVuSans-Bold-6f" transform="translate(104.199219 0.015625)"/>
      <use xlink:href="#DejaVuSans-Bold-6c" transform="translate(172.900391 0.015625)"/>
      <use xlink:href="#DejaVuSans-Bold-61" transform="translate(207.177734 0.015625)"/>
      <use xlink:href="#DejaVuSans-Bold-72" transform="translate(274.658203 0.015625)"/>
      <use xlink:href="#DejaVuSans-Bold-6d" transform="translate(356.444988 0.015625)"/>
      <use xlink:href="#DejaVuSans-Bold-61" transform="translate(460.644207 0.015625)"/>
      <use xlink:href="#DejaVuSans-Bold-73" transform="translate(528.124675 0.015625)"/>
      <use xlink:href="#DejaVuSans-Bold-73" transform="translate(587.64616 0.015625)"/>
      <use xlink:href="#DejaVuSans-28" transform="translate(679.638022 0.015625)"/>
      <use xlink:href="#DejaVuSans-Oblique-6b" transform="translate(718.651694 0.015625)"/>
      <use xlink:href="#DejaVuSans-Oblique-67" transform="translate(776.561851 0.015625)"/>
      <use xlink:href="#DejaVuSans-2f" transform="translate(840.038413 0.015625)"/>
      <use xlink:href="#DejaVuSans-Oblique-6d" transform="translate(873.729819 0.015625)"/>
      <use xlink:href="#DejaVuSans-Oblique-6f" transform="translate(971.141929 0.015625)"/>
      <use xlink:href="#DejaVuSans-Oblique-6c" transform="translate(1032.323569 0.015625)"/>
      <use xlink:href="#DejaVuSans-29" transform="translate(1060.106772 0.015625)"/>
     </g>
    </g>
   </g>
   <g id="matplotlib.axis_2">
    <g id="ytick_1">
     <g id="line2d_6">
      <defs>
       <path id="mb7c61b6c76" d="M 0 0 
L -3.5 0 
" style="stroke: #000000; stroke-width: 0.8"/>
      </defs>
      <g>
       <use xlink:href="#mb7c61b6c76" x="45.774688" y="191.506031" style="stroke: #000000; stroke-width: 0.8"/>
      </g>
     </g>
     <g id="text_7">
      <!-- 0.00 -->
      <g transform="translate(21.259844 194.727047) scale(0.09 -0.09)">
       <defs>
        <path id="ArialMT-2e" d="M 581 0 
L 581 641 
L 1222 641 
L 1222 0 
L 581 0 
z
" transform="scale(0.015625)"/>
       </defs>
       <use xlink:href="#ArialMT-30"/>
       <use xlink:href="#ArialMT-2e" transform="translate(55.615234 0)"/>
       <use xlink:href="#ArialMT-30" transform="translate(83.398438 0)"/>
       <use xlink:href="#ArialMT-30" transform="translate(139.013672 0)"/>
      </g>
     </g>
    </g>
    <g id="ytick_2">
     <g id="line2d_7">
      <g>
       <use xlink:href="#mb7c61b6c76" x="45.774688" y="159.282277" style="stroke: #000000; stroke-width: 0.8"/>
      </g>
     </g>
     <g id="text_8">
      <!-- 0.01 -->
      <g transform="translate(21.259844 162.503292) scale(0.09 -0.09)">
       <use xlink:href="#ArialMT-30"/>
       <use xlink:href="#ArialMT-2e" transform="translate(55.615234 0)"/>
       <use xlink:href="#ArialMT-30" transform="translate(83.398438 0)"/>
       <use xlink:href="#ArialMT-31" transform="translate(139.013672 0)"/>
      </g>
     </g>
    </g>
    <g id="ytick_3">
     <g id="line2d_8">
      <g>
       <use xlink:href="#mb7c61b6c76" x="45.774688" y="127.058522" style="stroke: #000000; stroke-width: 0.8"/>
      </g>
     </g>
     <g id="text_9">
      <!-- 0.02 -->
      <g transform="translate(21.259844 130.279537) scale(0.09 -0.09)">
       <use xlink:href="#ArialMT-30"/>
       <use xlink:href="#ArialMT-2e" transform="translate(55.615234 0)"/>
       <use xlink:href="#ArialMT-30" transform="translate(83.398438 0)"/>
       <use xlink:href="#ArialMT-32" transform="translate(139.013672 0)"/>
      </g>
     </g>
    </g>
    <g id="ytick_4">
     <g id="line2d_9">
      <g>
       <use xlink:href="#mb7c61b6c76" x="45.774688" y="94.834767" style="stroke: #000000; stroke-width: 0.8"/>
      </g>
     </g>
     <g id="text_10">
      <!-- 0.03 -->
      <g transform="translate(21.259844 98.055783) scale(0.09 -0.09)">
       <use xlink:href="#ArialMT-30"/>
       <use xlink:href="#ArialMT-2e" transform="translate(55.615234 0)"/>
       <use xlink:href="#ArialMT-30" transform="translate(83.398438 0)"/>
       <use xlink:href="#ArialMT-33" transform="translate(139.013672 0)"/>
      </g>
     </g>
    </g>
    <g id="ytick_5">
     <g id="line2d_10">
      <g>
       <use xlink:href="#mb7c61b6c76" x="45.774688" y="62.611012" style="stroke: #000000; stroke-width: 0.8"/>
      </g>
     </g>
     <g id="text_11">
      <!-- 0.04 -->
      <g transform="translate(21.259844 65.832028) scale(0.09 -0.09)">
       <use xlink:href="#ArialMT-30"/>
       <use xlink:href="#ArialMT-2e" transform="translate(55.615234 0)"/>
       <use xlink:href="#ArialMT-30" transform="translate(83.398438 0)"/>
       <use xlink:href="#ArialMT-34" transform="translate(139.013672 0)"/>
      </g>
     </g>
    </g>
    <g id="ytick_6">
     <g id="line2d_11">
      <g>
       <use xlink:href="#mb7c61b6c76" x="45.774688" y="30.387258" style="stroke: #000000; stroke-width: 0.8"/>
      </g>
     </g>
     <g id="text_12">
      <!-- 0.05 -->
      <g transform="translate(21.259844 33.608273) scale(0.09 -0.09)">
       <defs>
        <path id="ArialMT-35" d="M 266 1200 
L 856 1250 
Q 922 819 1161 601 
Q 1400 384 1738 384 
Q 2144 384 2425 690 
Q 2706 997 2706 1503 
Q 2706 1984 2436 2262 
Q 2166 2541 1728 2541 
Q 1456 2541 1237 2417 
Q 1019 2294 894 2097 
L 366 2166 
L 809 4519 
L 3088 4519 
L 3088 3981 
L 1259 3981 
L 1013 2750 
Q 1425 3038 1878 3038 
Q 2478 3038 2890 2622 
Q 3303 2206 3303 1553 
Q 3303 931 2941 478 
Q 2500 -78 1738 -78 
Q 1113 -78 717 272 
Q 322 622 266 1200 
z
" transform="scale(0.015625)"/>
       </defs>
       <use xlink:href="#ArialMT-30"/>
       <use xlink:href="#ArialMT-2e" transform="translate(55.615234 0)"/>
       <use xlink:href="#ArialMT-30" transform="translate(83.398438 0)"/>
       <use xlink:href="#ArialMT-35" transform="translate(139.013672 0)"/>
      </g>
     </g>
    </g>
    <g id="text_13">
     <!-- $\bf{number\ fraction}\ \it{(-)}$ -->
     <g transform="translate(15.073594 166.294031) rotate(-90) scale(0.11 -0.11)">
      <defs>
       <path id="DejaVuSans-Bold-6e" d="M 4056 2131 
L 4056 0 
L 2931 0 
L 2931 347 
L 2931 1631 
Q 2931 2084 2911 2256 
Q 2891 2428 2841 2509 
Q 2775 2619 2662 2680 
Q 2550 2741 2406 2741 
Q 2056 2741 1856 2470 
Q 1656 2200 1656 1722 
L 1656 0 
L 538 0 
L 538 3500 
L 1656 3500 
L 1656 2988 
Q 1909 3294 2193 3439 
Q 2478 3584 2822 3584 
Q 3428 3584 3742 3212 
Q 4056 2841 4056 2131 
z
" transform="scale(0.015625)"/>
       <path id="DejaVuSans-Bold-75" d="M 500 1363 
L 500 3500 
L 1625 3500 
L 1625 3150 
Q 1625 2866 1622 2436 
Q 1619 2006 1619 1863 
Q 1619 1441 1641 1255 
Q 1663 1069 1716 984 
Q 1784 875 1895 815 
Q 2006 756 2150 756 
Q 2500 756 2700 1025 
Q 2900 1294 2900 1772 
L 2900 3500 
L 4019 3500 
L 4019 0 
L 2900 0 
L 2900 506 
Q 2647 200 2364 54 
Q 2081 -91 1741 -91 
Q 1134 -91 817 281 
Q 500 653 500 1363 
z
" transform="scale(0.015625)"/>
       <path id="DejaVuSans-Bold-62" d="M 2400 722 
Q 2759 722 2948 984 
Q 3138 1247 3138 1747 
Q 3138 2247 2948 2509 
Q 2759 2772 2400 2772 
Q 2041 2772 1848 2508 
Q 1656 2244 1656 1747 
Q 1656 1250 1848 986 
Q 2041 722 2400 722 
z
M 1656 2988 
Q 1888 3294 2169 3439 
Q 2450 3584 2816 3584 
Q 3463 3584 3878 3070 
Q 4294 2556 4294 1747 
Q 4294 938 3878 423 
Q 3463 -91 2816 -91 
Q 2450 -91 2169 54 
Q 1888 200 1656 506 
L 1656 0 
L 538 0 
L 538 4863 
L 1656 4863 
L 1656 2988 
z
" transform="scale(0.015625)"/>
       <path id="DejaVuSans-Bold-65" d="M 4031 1759 
L 4031 1441 
L 1416 1441 
Q 1456 1047 1700 850 
Q 1944 653 2381 653 
Q 2734 653 3104 758 
Q 3475 863 3866 1075 
L 3866 213 
Q 3469 63 3072 -14 
Q 2675 -91 2278 -91 
Q 1328 -91 801 392 
Q 275 875 275 1747 
Q 275 2603 792 3093 
Q 1309 3584 2216 3584 
Q 3041 3584 3536 3087 
Q 4031 2591 4031 1759 
z
M 2881 2131 
Q 2881 2450 2695 2645 
Q 2509 2841 2209 2841 
Q 1884 2841 1681 2658 
Q 1478 2475 1428 2131 
L 2881 2131 
z
" transform="scale(0.015625)"/>
       <path id="DejaVuSans-Bold-66" d="M 2841 4863 
L 2841 4128 
L 2222 4128 
Q 1984 4128 1890 4042 
Q 1797 3956 1797 3744 
L 1797 3500 
L 2753 3500 
L 2753 2700 
L 1797 2700 
L 1797 0 
L 678 0 
L 678 2700 
L 122 2700 
L 122 3500 
L 678 3500 
L 678 3744 
Q 678 4316 997 4589 
Q 1316 4863 1984 4863 
L 2841 4863 
z
" transform="scale(0.015625)"/>
       <path id="DejaVuSans-Bold-63" d="M 3366 3391 
L 3366 2478 
Q 3138 2634 2908 2709 
Q 2678 2784 2431 2784 
Q 1963 2784 1702 2511 
Q 1441 2238 1441 1747 
Q 1441 1256 1702 982 
Q 1963 709 2431 709 
Q 2694 709 2930 787 
Q 3166 866 3366 1019 
L 3366 103 
Q 3103 6 2833 -42 
Q 2563 -91 2291 -91 
Q 1344 -91 809 395 
Q 275 881 275 1747 
Q 275 2613 809 3098 
Q 1344 3584 2291 3584 
Q 2566 3584 2833 3536 
Q 3100 3488 3366 3391 
z
" transform="scale(0.015625)"/>
       <path id="DejaVuSans-Bold-74" d="M 1759 4494 
L 1759 3500 
L 2913 3500 
L 2913 2700 
L 1759 2700 
L 1759 1216 
Q 1759 972 1856 886 
Q 1953 800 2241 800 
L 2816 800 
L 2816 0 
L 1856 0 
Q 1194 0 917 276 
Q 641 553 641 1216 
L 641 2700 
L 84 2700 
L 84 3500 
L 641 3500 
L 641 4494 
L 1759 4494 
z
" transform="scale(0.015625)"/>
       <path id="DejaVuSans-Bold-69" d="M 538 3500 
L 1656 3500 
L 1656 0 
L 538 0 
L 538 3500 
z
M 538 4863 
L 1656 4863 
L 1656 3950 
L 538 3950 
L 538 4863 
z
" transform="scale(0.015625)"/>
       <path id="DejaVuSans-2212" d="M 678 2272 
L 4684 2272 
L 4684 1741 
L 678 1741 
L 678 2272 
z
" transform="scale(0.015625)"/>
      </defs>
      <use xlink:href="#DejaVuSans-Bold-6e" transform="translate(0 0.015625)"/>
      <use xlink:href="#DejaVuSans-Bold-75" transform="translate(71.191406 0.015625)"/>
      <use xlink:href="#DejaVuSans-Bold-6d" transform="translate(142.382812 0.015625)"/>
      <use xlink:href="#DejaVuSans-Bold-62" transform="translate(246.582031 0.015625)"/>
      <use xlink:href="#DejaVuSans-Bold-65" transform="translate(318.164062 0.015625)"/>
      <use xlink:href="#DejaVuSans-Bold-72" transform="translate(385.986328 0.015625)"/>
      <use xlink:href="#DejaVuSans-Bold-66" transform="translate(467.773113 0.015625)"/>
      <use xlink:href="#DejaVuSans-Bold-72" transform="translate(511.278972 0.015625)"/>
      <use xlink:href="#DejaVuSans-Bold-61" transform="translate(560.595378 0.015625)"/>
      <use xlink:href="#DejaVuSans-Bold-63" transform="translate(628.075847 0.015625)"/>
      <use xlink:href="#DejaVuSans-Bold-74" transform="translate(687.353191 0.015625)"/>
      <use xlink:href="#DejaVuSans-Bold-69" transform="translate(735.155925 0.015625)"/>
      <use xlink:href="#DejaVuSans-Bold-6f" transform="translate(769.433269 0.015625)"/>
      <use xlink:href="#DejaVuSans-Bold-6e" transform="translate(838.134441 0.015625)"/>
      <use xlink:href="#DejaVuSans-28" transform="translate(941.796226 0.015625)"/>
      <use xlink:href="#DejaVuSans-2212" transform="translate(980.809897 0.015625)"/>
      <use xlink:href="#DejaVuSans-29" transform="translate(1064.59896 0.015625)"/>
     </g>
    </g>
   </g>
   <g id="line2d_12">
    <path d="M 0 0 
" clip-path="url(#pcf8011fcd4)" style="fill: none; stroke: #46085c; stroke-width: 1.5; stroke-linecap: square"/>
   </g>
   <g id="line2d_13">
    <path d="M 46.985548 191.274701 
L 48.196408 190.864833 
L 49.407268 190.059781 
L 50.618128 188.872204 
L 53.039848 186.226029 
L 54.250708 184.999167 
L 55.461568 181.250198 
L 69.991888 162.625191 
L 72.413608 159.999638 
L 74.835328 157.706373 
L 76.046188 156.630438 
L 79.678768 153.992691 
L 80.889628 153.225738 
L 83.311348 152.058142 
L 88.154788 150.138096 
L 90.576508 149.356543 
L 95.419948 147.969464 
L 103.895968 145.35101 
L 107.528548 144.614003 
L 108.739408 144.202547 
L 109.950268 144.01572 
L 111.161128 144.154814 
L 113.582848 143.734906 
L 116.004568 144.028302 
L 117.215428 144.049933 
L 122.058868 145.369861 
L 124.480588 146.383761 
L 126.902308 147.576921 
L 129.324027 148.969914 
L 132.956608 151.324368 
L 140.221768 156.734478 
L 143.854348 159.661591 
L 147.486928 162.477712 
L 148.697788 163.53144 
L 149.908648 164.369481 
L 151.119508 165.419371 
L 154.752088 168.159985 
L 160.806388 172.541563 
L 163.228108 174.147844 
L 166.860688 176.459191 
L 168.071548 177.032255 
L 170.493268 178.471633 
L 171.704128 179.010682 
L 172.914988 179.844555 
L 174.125848 180.299075 
L 176.547568 181.547301 
L 177.758428 181.88344 
L 180.180148 183.048319 
L 181.391008 183.325748 
L 182.601867 183.96573 
L 183.812728 184.378467 
L 185.023588 184.668032 
L 186.234448 185.172423 
L 193.499608 187.128785 
L 199.553908 188.294017 
L 203.186488 188.884998 
L 209.240788 189.624609 
L 215.295088 190.180288 
L 222.560248 190.611048 
L 229.825408 190.935019 
L 234.461953 191.071797 
L 234.461953 191.071797 
" clip-path="url(#pcf8011fcd4)" style="fill: none; stroke: #471063; stroke-width: 1.5; stroke-linecap: square"/>
   </g>
   <g id="line2d_14">
    <path d="M 46.985548 191.065057 
L 48.196408 190.138454 
L 49.407268 188.550792 
L 51.828988 184.180204 
L 54.250708 179.966799 
L 55.461568 175.783316 
L 59.094148 169.296781 
L 63.937588 161.598854 
L 67.570168 156.516647 
L 69.991888 153.545818 
L 72.413608 150.956317 
L 74.835328 148.801195 
L 76.046188 147.838675 
L 78.467908 146.28317 
L 80.889628 145.109823 
L 83.311348 144.400368 
L 85.733068 143.986687 
L 89.365648 143.587936 
L 92.998228 143.658258 
L 103.895968 143.92413 
L 107.528548 144.282489 
L 108.739408 144.245253 
L 109.950268 144.390197 
L 111.161128 144.803672 
L 113.582848 145.009171 
L 116.004568 145.782339 
L 117.215428 146.048352 
L 123.269728 148.67162 
L 126.902308 150.695914 
L 130.534888 153.002135 
L 135.378328 156.36611 
L 141.432628 160.895969 
L 145.065208 163.561059 
L 148.697788 166.305604 
L 149.908648 167.08552 
L 151.119508 168.040704 
L 163.228108 175.937061 
L 166.860688 178.00188 
L 168.071548 178.52034 
L 170.493268 179.799181 
L 171.704128 180.284233 
L 172.914988 181.016015 
L 175.336708 181.938745 
L 176.547568 182.531632 
L 177.758428 182.839864 
L 180.180148 183.867087 
L 181.391008 184.122842 
L 182.601867 184.682132 
L 187.445308 186.056247 
L 192.288748 187.186113 
L 194.710468 187.729428 
L 205.608208 189.382 
L 214.084228 190.163584 
L 220.138528 190.552628 
L 233.457988 191.061935 
L 234.461953 191.087956 
L 234.461953 191.087956 
" clip-path="url(#pcf8011fcd4)" style="fill: none; stroke: #481769; stroke-width: 1.5; stroke-linecap: square"/>
   </g>
   <g id="line2d_15">
    <path d="M 46.985548 190.776648 
L 48.196408 189.098731 
L 49.407268 186.505749 
L 54.250708 174.225697 
L 55.461568 169.618729 
L 57.883288 164.213675 
L 60.305008 159.464074 
L 62.726728 155.233649 
L 65.148448 151.495399 
L 67.570168 148.228214 
L 69.991888 145.441659 
L 72.413608 143.122683 
L 74.835328 141.29666 
L 76.046188 140.522712 
L 78.467908 139.369003 
L 80.889628 138.638385 
L 83.311348 138.394431 
L 85.733068 138.482185 
L 88.154788 138.714219 
L 90.576508 139.199076 
L 103.895968 142.900706 
L 107.528548 144.085202 
L 108.739408 144.330715 
L 109.950268 144.72557 
L 111.161128 145.344477 
L 113.582848 146.021675 
L 116.004568 147.154611 
L 117.215428 147.604608 
L 124.480588 151.579803 
L 128.113168 153.872987 
L 134.167468 158.072798 
L 137.800048 160.645217 
L 141.432628 163.297128 
L 145.065208 165.8362 
L 148.697788 168.40895 
L 149.908648 169.143961 
L 152.330368 170.772781 
L 155.962948 173.090974 
L 160.806388 175.968101 
L 170.493268 180.793602 
L 171.704128 181.237746 
L 172.914988 181.89153 
L 175.336708 182.733474 
L 176.547568 183.26513 
L 177.758428 183.552606 
L 180.180148 184.475252 
L 181.391008 184.715053 
L 182.601867 185.21293 
L 187.445308 186.460914 
L 198.343048 188.56864 
L 206.819068 189.615189 
L 215.295088 190.311517 
L 223.771108 190.751064 
L 232.247128 191.034472 
L 234.461953 191.098066 
L 234.461953 191.098066 
" clip-path="url(#pcf8011fcd4)" style="fill: none; stroke: #481d6f; stroke-width: 1.5; stroke-linecap: square"/>
   </g>
   <g id="line2d_16">
    <path d="M 46.985548 190.404684 
L 48.196408 187.753089 
L 49.407268 183.988697 
L 53.039848 171.600362 
L 54.250708 168.082036 
L 55.461568 163.111578 
L 57.883288 156.926734 
L 59.094148 154.19665 
L 61.515868 149.447019 
L 63.937588 145.451926 
L 66.359308 142.122072 
L 68.781028 139.395075 
L 71.202748 137.189439 
L 73.624468 135.53285 
L 76.046188 134.348866 
L 78.467908 133.64123 
L 80.889628 133.36581 
L 83.311348 133.572041 
L 85.733068 134.117204 
L 88.154788 134.82859 
L 90.576508 135.792335 
L 99.052528 139.842964 
L 101.474248 141.05424 
L 103.895968 142.144816 
L 107.528548 143.965487 
L 108.739408 144.429006 
L 109.950268 145.015914 
L 111.161128 145.791681 
L 113.582848 146.831707 
L 116.004568 148.239667 
L 117.215428 148.830879 
L 128.113168 155.771481 
L 148.697788 170.028379 
L 151.119508 171.552865 
L 160.806388 177.094847 
L 169.282408 181.054826 
L 172.914988 182.555345 
L 175.336708 183.335247 
L 176.547568 183.819484 
L 177.758428 184.091388 
L 180.180148 184.933268 
L 181.391008 185.161256 
L 182.601867 185.611573 
L 187.445308 186.763155 
L 198.343048 188.713117 
L 206.819068 189.691277 
L 215.295088 190.348699 
L 224.981968 190.822949 
L 234.461953 191.104164 
L 234.461953 191.104164 
" clip-path="url(#pcf8011fcd4)" style="fill: none; stroke: #482475; stroke-width: 1.5; stroke-linecap: square"/>
   </g>
   <g id="line2d_17">
    <path d="M 46.985548 189.949577 
L 48.196408 186.128876 
L 53.039848 165.877612 
L 54.250708 161.763313 
L 55.461568 156.504577 
L 57.883288 149.760666 
L 59.094148 146.883241 
L 61.515868 142.042929 
L 63.937588 138.176303 
L 66.359308 135.126652 
L 68.781028 132.77528 
L 71.202748 131.001817 
L 73.624468 129.797797 
L 76.046188 129.073913 
L 78.467908 128.820437 
L 80.889628 128.989877 
L 83.311348 129.620446 
L 85.733068 130.580475 
L 88.154788 131.710949 
L 90.576508 133.081843 
L 105.106828 142.372173 
L 106.317688 143.212792 
L 109.950268 145.261628 
L 111.161128 146.159311 
L 113.582848 147.4834 
L 116.004568 149.105275 
L 117.215428 149.806778 
L 143.854348 168.209899 
L 153.541228 174.129143 
L 158.384668 176.730171 
L 163.228108 179.108793 
L 166.860688 180.72405 
L 169.282408 181.670081 
L 174.125848 183.40012 
L 180.180148 185.282336 
L 181.391008 185.501553 
L 182.601867 185.91447 
L 187.445308 186.991426 
L 198.343048 188.819919 
L 206.819068 189.746088 
L 215.295088 190.374366 
L 224.981968 190.832868 
L 234.461953 191.107567 
L 234.461953 191.107567 
" clip-path="url(#pcf8011fcd4)" style="fill: none; stroke: #472a7a; stroke-width: 1.5; stroke-linecap: square"/>
   </g>
   <g id="line2d_18">
    <path d="M 46.985548 189.415473 
L 48.196408 184.263296 
L 51.828988 165.351066 
L 53.039848 160.038429 
L 54.250708 155.428717 
L 55.461568 149.95647 
L 56.672428 146.182783 
L 57.883288 142.841312 
L 59.094148 139.899208 
L 60.305008 137.364318 
L 61.515868 135.105794 
L 62.726728 133.172105 
L 63.937588 131.46758 
L 65.148448 130.02373 
L 66.359308 128.76672 
L 67.570168 127.717218 
L 68.781028 126.835652 
L 69.991888 126.112329 
L 71.202748 125.520438 
L 73.624468 124.78143 
L 76.046188 124.517591 
L 78.467908 124.707297 
L 80.889628 125.300027 
L 83.311348 126.324988 
L 85.733068 127.660385 
L 89.365648 129.990681 
L 92.998228 132.757254 
L 106.317688 143.022906 
L 109.950268 145.465816 
L 111.161128 146.459788 
L 114.793708 148.927407 
L 134.167468 162.802071 
L 143.854348 169.315143 
L 152.330368 174.325154 
L 155.962948 176.273986 
L 160.806388 178.653126 
L 169.282408 182.149429 
L 174.125848 183.780671 
L 180.180148 185.551085 
L 181.391008 185.763796 
L 183.812728 186.419206 
L 186.234448 186.93881 
L 193.499608 188.235704 
L 200.764768 189.186007 
L 206.819068 189.78562 
L 215.295088 190.391881 
L 224.981968 190.838885 
L 234.461953 191.109137 
L 234.461953 191.109137 
" clip-path="url(#pcf8011fcd4)" style="fill: none; stroke: #46307e; stroke-width: 1.5; stroke-linecap: square"/>
   </g>
   <g id="line2d_19">
    <path d="M 46.985548 188.808827 
L 48.196408 182.196438 
L 50.618128 166.919311 
L 51.828988 160.080552 
L 53.039848 154.196994 
L 54.250708 149.185078 
L 55.461568 143.567062 
L 56.672428 139.64331 
L 57.883288 136.234552 
L 59.094148 133.291625 
L 60.305008 130.80597 
L 61.515868 128.645474 
L 62.726728 126.842907 
L 63.937588 125.301568 
L 65.148448 124.041423 
L 66.359308 122.9879 
L 67.570168 122.153102 
L 68.781028 121.495437 
L 69.991888 121.001234 
L 71.202748 120.642108 
L 72.413608 120.444793 
L 73.624468 120.362003 
L 76.046188 120.544007 
L 78.467908 121.156312 
L 80.889628 122.145852 
L 83.311348 123.534548 
L 85.733068 125.209409 
L 89.365648 128.021524 
L 94.209088 132.306832 
L 101.474248 138.750313 
L 105.106828 141.80304 
L 107.528548 143.79741 
L 109.950268 145.632591 
L 111.161128 146.703731 
L 114.793708 149.421914 
L 119.637148 153.102264 
L 125.691448 157.623819 
L 132.956608 162.910377 
L 136.589188 165.461079 
L 143.854348 170.198033 
L 151.119508 174.427808 
L 158.384668 178.077315 
L 163.228108 180.224764 
L 166.860688 181.674671 
L 171.704128 183.293937 
L 172.914988 183.769996 
L 175.336708 184.433728 
L 176.547568 184.827148 
L 177.758428 185.071652 
L 180.180148 185.75977 
L 181.391008 185.967674 
L 183.812728 186.586567 
L 188.656168 187.495089 
L 191.077888 187.933882 
L 200.764768 189.234693 
L 206.819068 189.814038 
L 215.295088 190.403556 
L 224.981968 190.842167 
L 234.461953 191.109453 
L 234.461953 191.109453 
" clip-path="url(#pcf8011fcd4)" style="fill: none; stroke: #453781; stroke-width: 1.5; stroke-linecap: square"/>
   </g>
   <g id="line2d_20">
    <path d="M 46.985548 188.137272 
L 48.196408 179.967126 
L 50.618128 162.34092 
L 51.828988 154.800171 
L 53.039848 148.432497 
L 55.461568 137.396053 
L 56.672428 133.388306 
L 57.883288 129.96963 
L 59.094148 127.074364 
L 60.305008 124.678338 
L 61.515868 122.647415 
L 62.726728 121.000476 
L 63.937588 119.639734 
L 65.148448 118.575286 
L 66.359308 117.731997 
L 67.570168 117.114779 
L 68.781028 116.680433 
L 69.991888 116.412002 
L 71.202748 116.279841 
L 72.413608 116.305206 
L 73.624468 116.442521 
L 76.046188 117.049034 
L 78.467908 118.05903 
L 80.889628 119.417424 
L 83.311348 121.140218 
L 85.733068 123.122296 
L 89.365648 126.361551 
L 95.419948 132.347116 
L 101.474248 138.247598 
L 111.161128 146.900088 
L 129.324027 161.088339 
L 135.378328 165.396486 
L 139.010908 167.860416 
L 146.276068 172.347166 
L 154.752088 176.857963 
L 159.595528 179.08677 
L 163.228108 180.617414 
L 166.860688 182.007459 
L 171.704128 183.563598 
L 172.914988 184.014334 
L 175.336708 184.654075 
L 176.547568 185.02807 
L 178.969288 185.617197 
L 182.601867 186.466787 
L 187.445308 187.402376 
L 198.343048 189.003061 
L 206.819068 189.834277 
L 216.505948 190.476695 
L 228.614548 190.959145 
L 234.461953 191.108905 
L 234.461953 191.108905 
" clip-path="url(#pcf8011fcd4)" style="fill: none; stroke: #433d84; stroke-width: 1.5; stroke-linecap: square"/>
   </g>
   <g id="line2d_21">
    <path d="M 46.985548 187.408829 
L 50.618128 157.732555 
L 51.828988 149.570773 
L 53.039848 142.798031 
L 55.461568 131.476354 
L 56.672428 127.437756 
L 57.883288 124.053709 
L 59.094148 121.242416 
L 60.305008 118.965087 
L 61.515868 117.085202 
L 62.726728 115.609373 
L 63.937588 114.4388 
L 65.148448 113.575142 
L 66.359308 112.942901 
L 67.570168 112.540961 
L 68.781028 112.324892 
L 69.991888 112.275052 
L 71.202748 112.360828 
L 73.624468 112.945121 
L 76.046188 113.951665 
L 78.467908 115.333068 
L 80.889628 117.032731 
L 83.311348 119.061839 
L 86.943928 122.500339 
L 90.576508 126.226603 
L 100.263388 136.587065 
L 106.317688 142.630452 
L 114.793708 150.147981 
L 119.637148 154.186768 
L 129.324027 161.727819 
L 134.167468 165.223439 
L 141.432628 170.015485 
L 148.697788 174.240559 
L 157.173808 178.408038 
L 162.017248 180.438451 
L 165.649828 181.81236 
L 168.071548 182.636882 
L 170.493268 183.446516 
L 180.180148 186.051263 
L 181.391008 186.253109 
L 183.812728 186.818287 
L 197.132188 188.893671 
L 204.397348 189.645155 
L 211.662508 190.198983 
L 221.349388 190.701152 
L 234.461953 191.107763 
L 234.461953 191.107763 
" clip-path="url(#pcf8011fcd4)" style="fill: none; stroke: #414287; stroke-width: 1.5; stroke-linecap: square"/>
   </g>
   <g id="line2d_22">
    <path d="M 46.985548 186.63139 
L 50.618128 153.141709 
L 51.828988 144.435034 
L 53.039848 137.327718 
L 55.461568 125.823216 
L 56.672428 121.796104 
L 57.883288 118.480919 
L 59.094148 115.780419 
L 60.305008 113.642277 
L 61.515868 111.927472 
L 62.726728 110.631791 
L 63.937588 109.655557 
L 65.148448 108.993201 
L 66.359308 108.569064 
L 67.570168 108.376973 
L 68.781028 108.371596 
L 69.991888 108.531119 
L 71.202748 108.824218 
L 73.624468 109.806782 
L 76.046188 111.188008 
L 78.467908 112.914775 
L 80.889628 114.929439 
L 83.311348 117.23927 
L 86.943928 121.049367 
L 90.576508 125.099482 
L 97.841668 133.445657 
L 102.685108 138.710407 
L 107.528548 143.686618 
L 109.950268 145.950613 
L 112.371988 148.249217 
L 124.480588 158.526246 
L 130.534888 163.147396 
L 135.378328 166.569097 
L 139.010908 168.991686 
L 145.065208 172.637825 
L 148.697788 174.662338 
L 157.173808 178.733271 
L 162.017248 180.708546 
L 165.649828 182.04227 
L 168.071548 182.843107 
L 170.493268 183.626656 
L 180.180148 186.15256 
L 182.601867 186.662529 
L 188.656168 187.726714 
L 192.288748 188.283332 
L 195.921328 188.766362 
L 201.975628 189.439773 
L 210.451648 190.121197 
L 218.927668 190.596164 
L 228.614548 190.957277 
L 234.461953 191.106215 
L 234.461953 191.106215 
" clip-path="url(#pcf8011fcd4)" style="fill: none; stroke: #3f4889; stroke-width: 1.5; stroke-linecap: square"/>
   </g>
   <g id="line2d_23">
    <path d="M 46.985548 185.81241 
L 49.407268 159.688178 
L 50.618128 148.603423 
L 51.828988 139.421961 
L 53.039848 132.042116 
L 55.461568 120.440419 
L 56.672428 116.458268 
L 57.883288 113.237986 
L 59.094148 110.667758 
L 60.305008 108.682821 
L 61.515868 107.141694 
L 62.726728 106.030607 
L 63.937588 105.249165 
L 65.148448 104.785607 
L 66.359308 104.564292 
L 67.570168 104.574802 
L 68.781028 104.771186 
L 69.991888 105.129881 
L 71.202748 105.619077 
L 73.624468 106.97608 
L 76.046188 108.707031 
L 78.467908 110.754224 
L 80.889628 113.059384 
L 84.522208 116.978484 
L 89.365648 122.637823 
L 100.263388 135.76142 
L 105.106828 141.103726 
L 107.528548 143.644366 
L 116.004568 151.733868 
L 124.480588 158.923658 
L 130.534888 163.582611 
L 135.378328 167.003615 
L 139.010908 169.410215 
L 145.065208 173.017017 
L 148.697788 175.00793 
L 157.173808 178.998552 
L 162.017248 180.928095 
L 165.649828 182.228518 
L 169.282408 183.41015 
L 174.125848 184.769349 
L 180.180148 186.232735 
L 182.601867 186.730284 
L 188.656168 187.772274 
L 192.288748 188.316794 
L 197.132188 188.941664 
L 204.397348 189.666736 
L 211.662508 190.205697 
L 221.349388 190.700364 
L 234.461953 191.104393 
L 234.461953 191.104393 
" clip-path="url(#pcf8011fcd4)" style="fill: none; stroke: #3d4e8a; stroke-width: 1.5; stroke-linecap: square"/>
   </g>
   <g id="line2d_24">
    <path d="M 46.985548 184.958745 
L 49.407268 155.941291 
L 50.618128 144.143009 
L 51.828988 134.550426 
L 53.039848 126.952202 
L 55.461568 115.324427 
L 56.672428 111.413523 
L 57.883288 108.307718 
L 59.094148 105.88159 
L 60.305008 104.059013 
L 61.515868 102.696171 
L 62.726728 101.770862 
L 63.937588 101.182138 
L 65.148448 100.912917 
L 66.359308 100.88774 
L 67.570168 101.092622 
L 68.781028 101.481226 
L 69.991888 102.028602 
L 71.202748 102.702639 
L 73.624468 104.41071 
L 76.046188 106.467509 
L 79.678768 110.078924 
L 82.100488 112.761695 
L 85.733068 117.141539 
L 91.787368 124.814679 
L 97.841668 132.471669 
L 102.685108 138.220452 
L 107.528548 143.597918 
L 116.004568 151.931963 
L 124.480588 159.251405 
L 129.324027 163.040132 
L 134.167468 166.548156 
L 140.221768 170.494467 
L 143.854348 172.664366 
L 149.908648 175.872951 
L 153.541228 177.630725 
L 158.384668 179.710756 
L 163.228108 181.56206 
L 168.071548 183.145071 
L 171.704128 184.201653 
L 174.125848 184.865484 
L 180.180148 186.296248 
L 182.601867 186.783589 
L 188.656168 187.807564 
L 192.288748 188.342221 
L 197.132188 188.956476 
L 204.397348 189.672251 
L 212.873368 190.27833 
L 222.560248 190.74438 
L 233.457988 191.079621 
L 234.461953 191.102392 
L 234.461953 191.102392 
" clip-path="url(#pcf8011fcd4)" style="fill: none; stroke: #3a538b; stroke-width: 1.5; stroke-linecap: square"/>
   </g>
   <g id="line2d_25">
    <path d="M 46.985548 184.076586 
L 49.407268 152.225179 
L 50.618128 139.778278 
L 51.828988 129.831869 
L 53.039848 122.062272 
L 55.461568 110.467176 
L 56.672428 106.648003 
L 57.883288 103.671165 
L 59.094148 101.398624 
L 60.305008 99.743908 
L 61.515868 98.56105 
L 62.726728 97.8204 
L 63.937588 97.420617 
L 65.148448 97.340047 
L 66.359308 97.503544 
L 67.570168 97.894124 
L 68.781028 98.465265 
L 71.202748 100.038845 
L 73.624468 102.075608 
L 76.046188 104.435793 
L 79.678768 108.44915 
L 83.311348 112.896212 
L 89.365648 120.837729 
L 96.630808 130.510042 
L 101.474248 136.588185 
L 107.528548 143.547211 
L 114.793708 150.932816 
L 118.426288 154.311176 
L 123.269728 158.515373 
L 128.113168 162.40874 
L 132.956608 165.988361 
L 136.589188 168.482303 
L 141.432628 171.522154 
L 147.486928 174.881339 
L 151.119508 176.716023 
L 157.173808 179.394532 
L 162.017248 181.254047 
L 165.649828 182.503519 
L 169.282408 183.63666 
L 174.125848 184.942888 
L 180.180148 186.346516 
L 185.023588 187.234705 
L 188.656168 187.834742 
L 193.499608 188.537404 
L 200.764768 189.345978 
L 208.029928 189.958172 
L 217.716808 190.535628 
L 228.614548 190.950944 
L 234.461953 191.100279 
L 234.461953 191.100279 
" clip-path="url(#pcf8011fcd4)" style="fill: none; stroke: #38598c; stroke-width: 1.5; stroke-linecap: square"/>
   </g>
   <g id="line2d_26">
    <path d="M 46.985548 183.171448 
L 48.196408 164.865103 
L 49.407268 148.556135 
L 50.618128 135.521314 
L 51.828988 125.272327 
L 53.039848 117.372015 
L 54.250708 111.31232 
L 55.461568 105.857936 
L 56.672428 102.14631 
L 57.883288 99.308934 
L 59.094148 97.196132 
L 60.305008 95.712044 
L 61.515868 94.70876 
L 62.726728 94.150041 
L 63.937588 93.93431 
L 65.148448 94.035971 
L 66.359308 94.38031 
L 67.570168 94.94782 
L 68.781028 95.691955 
L 71.202748 97.597162 
L 73.624468 99.9415 
L 76.046188 102.584163 
L 79.678768 106.969947 
L 83.311348 111.728212 
L 90.576508 121.771464 
L 96.630808 130.093678 
L 101.474248 136.351288 
L 107.528548 143.492442 
L 113.582848 149.81488 
L 116.004568 152.219389 
L 122.058868 157.695851 
L 126.902308 161.703339 
L 131.745748 165.377657 
L 136.589188 168.726678 
L 141.432628 171.751721 
L 147.486928 175.084146 
L 151.119508 176.89744 
L 157.173808 179.541778 
L 162.017248 181.374486 
L 166.860688 183.00868 
L 176.547568 185.608977 
L 189.867028 188.054757 
L 198.343048 189.105893 
L 206.819068 189.869179 
L 216.505948 190.475939 
L 228.614548 190.948403 
L 234.461953 191.098103 
L 234.461953 191.098103 
" clip-path="url(#pcf8011fcd4)" style="fill: none; stroke: #355e8d; stroke-width: 1.5; stroke-linecap: square"/>
   </g>
   <g id="line2d_27">
    <path d="M 46.985548 182.248195 
L 48.196408 162.257158 
L 49.407268 144.946314 
L 50.618128 131.379858 
L 51.828988 120.873949 
L 53.039848 112.878005 
L 54.250708 106.823334 
L 55.461568 101.484538 
L 56.672428 97.892527 
L 57.883288 95.201974 
L 59.094148 93.252513 
L 60.305008 91.939778 
L 61.515868 91.114136 
L 62.726728 90.733519 
L 63.937588 90.696251 
L 65.148448 90.973336 
L 66.359308 91.49059 
L 67.570168 92.226384 
L 68.781028 93.134278 
L 71.202748 95.351611 
L 73.624468 97.983776 
L 77.257048 102.436314 
L 80.889628 107.261401 
L 85.733068 114.148919 
L 96.630808 129.715322 
L 101.474248 136.132474 
L 106.317688 142.067343 
L 111.161128 147.441946 
L 116.004568 152.32047 
L 122.058868 157.86452 
L 126.902308 161.899945 
L 131.745748 165.584419 
L 136.589188 168.930108 
L 141.432628 171.942749 
L 146.276068 174.643494 
L 152.330368 177.591208 
L 155.962948 179.17046 
L 160.806388 181.05671 
L 166.860688 183.084504 
L 176.547568 185.649612 
L 189.867028 188.067062 
L 198.343048 189.109192 
L 206.819068 189.867973 
L 216.505948 190.472934 
L 228.614548 190.945769 
L 234.461953 191.0959 
L 234.461953 191.0959 
" clip-path="url(#pcf8011fcd4)" style="fill: none; stroke: #33638d; stroke-width: 1.5; stroke-linecap: square"/>
   </g>
   <g id="line2d_28">
    <path d="M 46.985548 181.31109 
L 48.196408 159.659748 
L 49.407268 141.404589 
L 50.618128 127.358381 
L 51.828988 116.636116 
L 53.039848 108.574769 
L 54.250708 102.546817 
L 55.461568 97.334198 
L 56.672428 93.870854 
L 57.883288 91.332029 
L 59.094148 89.547561 
L 60.305008 88.40539 
L 61.515868 87.754379 
L 62.726728 87.547298 
L 63.937588 87.682496 
L 65.148448 88.128048 
L 66.359308 88.810372 
L 67.570168 89.706061 
L 69.991888 91.970865 
L 72.413608 94.695445 
L 74.835328 97.738271 
L 78.467908 102.664731 
L 83.311348 109.695812 
L 95.419948 127.659284 
L 100.263388 134.340509 
L 103.895968 138.981904 
L 107.528548 143.372168 
L 113.582848 149.929739 
L 117.215428 153.545392 
L 120.848008 156.922464 
L 124.480588 160.083205 
L 129.324027 163.953651 
L 134.167468 167.472788 
L 139.010908 170.643273 
L 143.854348 173.482065 
L 148.697788 176.017698 
L 154.752088 178.773509 
L 159.595528 180.688686 
L 163.228108 181.980518 
L 168.071548 183.477361 
L 172.914988 184.825479 
L 182.601867 186.902824 
L 188.656168 187.882457 
L 193.499608 188.560785 
L 200.764768 189.351368 
L 208.029928 189.953907 
L 217.716808 190.527118 
L 228.614548 190.943084 
L 234.461953 191.093694 
L 234.461953 191.093694 
" clip-path="url(#pcf8011fcd4)" style="fill: none; stroke: #31688e; stroke-width: 1.5; stroke-linecap: square"/>
   </g>
   <g id="line2d_29">
    <path d="M 46.985548 180.363843 
L 48.196408 157.081126 
L 49.407268 137.937243 
L 50.618128 123.458909 
L 51.828988 112.55627 
L 53.039848 104.455534 
L 54.250708 98.472364 
L 55.461568 93.394042 
L 56.672428 90.065998 
L 57.883288 87.681879 
L 59.094148 86.062569 
L 60.305008 85.089059 
L 61.515868 84.608914 
L 62.726728 84.570334 
L 63.937588 84.871806 
L 65.148448 85.478873 
L 66.359308 86.318622 
L 67.570168 87.366154 
L 69.991888 89.918484 
L 72.413608 92.907693 
L 76.046188 97.897415 
L 80.889628 105.071786 
L 96.630808 129.049175 
L 101.474248 135.737283 
L 106.317688 141.889279 
L 111.161128 147.442149 
L 116.004568 152.459136 
L 122.058868 158.115296 
L 125.691448 161.212349 
L 129.324027 164.093967 
L 134.167468 167.615845 
L 139.010908 170.780793 
L 143.854348 173.60853 
L 148.697788 176.129265 
L 154.752088 178.864943 
L 159.595528 180.763482 
L 163.228108 182.042544 
L 168.071548 183.525715 
L 172.914988 184.85853 
L 182.601867 186.91737 
L 188.656168 187.890524 
L 193.499608 188.563327 
L 201.975628 189.46479 
L 210.451648 190.116233 
L 220.138528 190.635536 
L 233.457988 191.068411 
L 234.461953 191.091504 
L 234.461953 191.091504 
" clip-path="url(#pcf8011fcd4)" style="fill: none; stroke: #2e6d8e; stroke-width: 1.5; stroke-linecap: square"/>
   </g>
   <g id="line2d_30">
    <path d="M 46.985548 179.409669 
L 48.196408 154.527871 
L 49.407268 134.548516 
L 50.618128 119.681653 
L 51.828988 108.630524 
L 53.039848 100.512769 
L 54.250708 94.58938 
L 55.461568 89.651447 
L 56.672428 86.463392 
L 57.883288 84.23545 
L 59.094148 82.780338 
L 60.305008 81.972772 
L 61.515868 81.659222 
L 62.726728 81.783836 
L 63.937588 82.245335 
L 65.148448 83.007082 
L 66.359308 83.996879 
L 67.570168 85.188583 
L 69.991888 88.012549 
L 72.413608 91.250434 
L 76.046188 96.569734 
L 82.100488 106.037276 
L 91.787368 121.447476 
L 96.630808 128.75259 
L 100.263388 133.9119 
L 103.895968 138.716884 
L 107.528548 143.240455 
L 112.371988 148.726093 
L 118.426288 154.865453 
L 122.058868 158.20639 
L 125.691448 161.319557 
L 129.324027 164.210065 
L 134.167468 167.734767 
L 139.010908 170.895291 
L 143.854348 173.713792 
L 148.697788 176.22193 
L 154.752088 178.940566 
L 159.595528 180.824995 
L 164.438968 182.484362 
L 170.493268 184.246557 
L 178.969288 186.225393 
L 183.812728 187.139939 
L 194.710468 188.708258 
L 204.397348 189.669451 
L 212.873368 190.26275 
L 223.771108 190.776036 
L 234.461953 191.089343 
L 234.461953 191.089343 
" clip-path="url(#pcf8011fcd4)" style="fill: none; stroke: #2c718e; stroke-width: 1.5; stroke-linecap: square"/>
   </g>
   <g id="line2d_31">
    <path d="M 46.985548 178.451345 
L 48.196408 152.005172 
L 49.407268 131.241058 
L 50.618128 116.025495 
L 51.828988 104.854111 
L 53.039848 96.738558 
L 54.250708 90.887364 
L 55.461568 86.09425 
L 56.672428 83.04931 
L 57.883288 80.977842 
L 59.094148 79.68512 
L 60.305008 79.0402 
L 61.515868 78.888647 
L 62.726728 79.171014 
L 63.937588 79.786346 
L 65.148448 80.696122 
L 66.359308 81.828904 
L 68.781028 84.636824 
L 71.202748 87.930614 
L 74.835328 93.429379 
L 79.678768 101.225018 
L 94.209088 124.81957 
L 97.841668 130.255016 
L 101.474248 135.385149 
L 106.317688 141.711832 
L 111.161128 147.406872 
L 116.004568 152.533907 
L 120.848008 157.178462 
L 124.480588 160.394138 
L 129.324027 164.305747 
L 134.167468 167.833372 
L 139.010908 170.990439 
L 143.854348 173.801257 
L 148.697788 176.298756 
L 154.752088 179.002971 
L 159.595528 180.875426 
L 164.438968 182.522789 
L 170.493268 184.272358 
L 178.969288 186.237514 
L 183.812728 187.146209 
L 194.710468 188.70718 
L 204.397348 189.66594 
L 212.873368 190.258909 
L 223.771108 190.77296 
L 234.461953 191.087221 
L 234.461953 191.087221 
" clip-path="url(#pcf8011fcd4)" style="fill: none; stroke: #2a768e; stroke-width: 1.5; stroke-linecap: square"/>
   </g>
   <g id="line2d_32">
    <path d="M 46.985548 177.49126 
L 48.196408 149.517069 
L 49.407268 128.016273 
L 50.618128 112.488351 
L 51.828988 101.221712 
L 53.039848 93.12486 
L 54.250708 87.356095 
L 55.461568 82.710868 
L 56.672428 79.810916 
L 57.883288 77.895303 
L 59.094148 76.762532 
L 60.305008 76.276559 
L 61.515868 76.282214 
L 62.726728 76.716865 
L 63.937588 77.479955 
L 65.148448 78.531341 
L 66.359308 79.800376 
L 68.781028 82.862632 
L 71.202748 86.388131 
L 74.835328 92.191837 
L 80.889628 102.374426 
L 89.365648 116.690652 
L 94.209088 124.502221 
L 97.841668 130.021926 
L 101.474248 135.2217 
L 106.317688 141.62346 
L 111.161128 147.379258 
L 116.004568 152.553244 
L 120.848008 157.230415 
L 124.480588 160.461012 
L 129.324027 164.384154 
L 132.956608 167.061953 
L 136.589188 169.536627 
L 141.432628 172.512727 
L 146.276068 175.15613 
L 151.119508 177.491958 
L 157.173808 180.017607 
L 162.017248 181.75735 
L 166.860688 183.29534 
L 175.336708 185.465473 
L 178.969288 186.246223 
L 183.812728 187.150031 
L 194.710468 188.705056 
L 204.397348 189.662033 
L 212.873368 190.254949 
L 223.771108 190.769898 
L 234.461953 191.085143 
L 234.461953 191.085143 
" clip-path="url(#pcf8011fcd4)" style="fill: none; stroke: #297b8e; stroke-width: 1.5; stroke-linecap: square"/>
   </g>
   <g id="line2d_33">
    <path d="M 46.985548 176.531465 
L 48.196408 147.066655 
L 49.407268 124.874604 
L 50.618128 109.067457 
L 51.828988 97.727693 
L 53.039848 89.663696 
L 54.250708 83.985749 
L 55.461568 79.490361 
L 56.672428 76.736265 
L 57.883288 74.975183 
L 59.094148 73.999463 
L 60.305008 73.668466 
L 61.515868 73.82645 
L 62.726728 74.407961 
L 63.937588 75.3129 
L 65.148448 76.499736 
L 66.359308 77.898632 
L 68.781028 81.202248 
L 71.202748 84.946555 
L 74.835328 91.036955 
L 82.100488 103.728783 
L 88.154788 114.220483 
L 92.998228 122.267577 
L 96.630808 127.972301 
L 100.263388 133.354072 
L 103.895968 138.350658 
L 107.528548 143.028753 
L 112.371988 148.686691 
L 117.215428 153.768159 
L 120.848008 157.269773 
L 124.480588 160.514019 
L 128.113168 163.501914 
L 131.745748 166.263187 
L 136.589188 169.603104 
L 141.432628 172.575472 
L 146.276068 175.21234 
L 151.119508 177.540134 
L 155.962948 179.583132 
L 160.806388 181.384831 
L 166.860688 183.315685 
L 174.125848 185.198967 
L 180.180148 186.495678 
L 192.288748 188.397469 
L 198.343048 189.100068 
L 206.819068 189.847725 
L 216.505948 190.451003 
L 228.614548 190.929796 
L 234.461953 191.083114 
L 234.461953 191.083114 
" clip-path="url(#pcf8011fcd4)" style="fill: none; stroke: #27808e; stroke-width: 1.5; stroke-linecap: square"/>
   </g>
   <g id="line2d_34">
    <path d="M 46.985548 175.573711 
L 48.196408 144.656242 
L 49.407268 121.815754 
L 50.618128 105.759578 
L 51.828988 94.366283 
L 53.039848 86.347262 
L 54.250708 80.766968 
L 55.461568 76.422461 
L 56.672428 73.814282 
L 57.883288 72.205865 
L 59.094148 71.383963 
L 60.305008 71.203807 
L 61.515868 71.509227 
L 62.726728 72.232267 
L 63.937588 73.273347 
L 65.148448 74.589742 
L 67.570168 77.812147 
L 69.991888 81.583294 
L 73.624468 87.79987 
L 91.787368 119.958834 
L 95.419948 125.852901 
L 99.052528 131.402473 
L 102.685108 136.588476 
L 106.317688 141.447897 
L 111.161128 147.309108 
L 116.004568 152.564492 
L 120.848008 157.298405 
L 124.480588 160.555214 
L 128.113168 163.551422 
L 131.745748 166.316767 
L 136.589188 169.657442 
L 141.432628 172.626909 
L 146.276068 175.258372 
L 151.119508 177.579415 
L 155.962948 179.61533 
L 160.806388 181.409312 
L 166.860688 183.331358 
L 174.125848 185.207064 
L 180.180148 186.498015 
L 191.077888 188.242935 
L 199.553908 189.214937 
L 206.819068 189.843331 
L 216.505948 190.447185 
L 228.614548 190.927261 
L 234.461953 191.081137 
L 234.461953 191.081137 
" clip-path="url(#pcf8011fcd4)" style="fill: none; stroke: #25848e; stroke-width: 1.5; stroke-linecap: square"/>
   </g>
   <g id="line2d_35">
    <path d="M 46.985548 174.619491 
L 48.196408 142.287502 
L 49.407268 118.838859 
L 50.618128 102.561172 
L 51.828988 91.131695 
L 53.039848 83.168018 
L 54.250708 77.690892 
L 55.461568 73.497562 
L 56.672428 71.034723 
L 57.883288 69.576691 
L 59.094148 68.905147 
L 60.305008 68.871608 
L 61.515868 69.31961 
L 62.726728 70.178981 
L 63.937588 71.350709 
L 65.148448 72.791051 
L 67.570168 76.243312 
L 69.991888 80.220891 
L 73.624468 86.707273 
L 88.154788 113.372268 
L 92.998228 121.671157 
L 96.630808 127.522866 
L 100.263388 133.024198 
L 103.895968 138.122702 
L 107.528548 142.882315 
L 112.371988 148.630758 
L 117.215428 153.780954 
L 120.848008 157.317884 
L 124.480588 160.586321 
L 128.113168 163.590328 
L 131.745748 166.359648 
L 136.589188 169.701426 
L 141.432628 172.668712 
L 146.276068 175.295741 
L 151.119508 177.611139 
L 155.962948 179.641101 
L 160.806388 181.428529 
L 166.860688 183.343097 
L 174.125848 185.21248 
L 180.180148 186.498585 
L 191.077888 188.239554 
L 199.553908 189.210543 
L 206.819068 189.838836 
L 216.505948 190.443396 
L 228.614548 190.924783 
L 234.461953 191.079213 
L 234.461953 191.079213 
" clip-path="url(#pcf8011fcd4)" style="fill: none; stroke: #23898e; stroke-width: 1.5; stroke-linecap: square"/>
   </g>
   <g id="line2d_36">
    <path d="M 46.985548 173.670075 
L 48.196408 139.961579 
L 49.407268 115.942632 
L 50.618128 99.468512 
L 51.828988 88.018214 
L 53.039848 80.11873 
L 54.250708 74.749171 
L 55.461568 70.70671 
L 56.672428 68.388123 
L 57.883288 67.07789 
L 59.094148 66.553095 
L 60.305008 66.66192 
L 61.515868 67.247728 
L 62.726728 68.238388 
L 63.937588 69.535498 
L 65.148448 71.094448 
L 67.570168 74.765794 
L 69.991888 78.939262 
L 73.624468 85.680578 
L 85.733068 108.615519 
L 90.576508 117.251699 
L 94.209088 123.410489 
L 97.841668 129.206225 
L 101.474248 134.63181 
L 106.317688 141.274607 
L 109.950268 145.756648 
L 112.371988 148.596558 
L 117.215428 153.776989 
L 120.848008 157.329538 
L 124.480588 160.608794 
L 128.113168 163.620158 
L 131.745748 166.393372 
L 136.589188 169.736551 
L 141.432628 172.702279 
L 146.276068 175.325718 
L 151.119508 177.636425 
L 155.962948 179.661406 
L 160.806388 181.44328 
L 166.860688 183.351516 
L 174.125848 185.215647 
L 180.180148 186.497689 
L 191.077888 188.235559 
L 199.553908 189.205904 
L 208.029928 189.922432 
L 217.716808 190.498687 
L 228.614548 190.922366 
L 234.461953 191.077342 
L 234.461953 191.077342 
" clip-path="url(#pcf8011fcd4)" style="fill: none; stroke: #218e8d; stroke-width: 1.5; stroke-linecap: square"/>
   </g>
   <g id="line2d_37">
    <path d="M 46.985548 172.726534 
L 48.196408 137.679189 
L 49.407268 113.125467 
L 50.618128 96.477775 
L 51.828988 85.02026 
L 53.039848 77.192503 
L 54.250708 71.933966 
L 55.461568 68.041574 
L 56.672428 65.865748 
L 57.883288 64.700503 
L 59.094148 64.31876 
L 60.305008 64.565712 
L 61.515868 65.284657 
L 62.726728 66.401737 
L 63.937588 67.819191 
L 66.359308 71.35274 
L 68.781028 75.50752 
L 72.413608 82.352116 
L 85.733068 108.18295 
L 90.576508 116.943998 
L 94.209088 123.173011 
L 97.841668 129.025677 
L 101.474248 134.497415 
L 106.317688 141.189058 
L 109.950268 145.703148 
L 112.371988 148.559095 
L 117.215428 153.767458 
L 120.848008 157.334498 
L 124.480588 160.623866 
L 128.113168 163.642201 
L 131.745748 166.419239 
L 136.589188 169.764081 
L 141.432628 172.728792 
L 146.276068 175.34937 
L 151.119508 177.656211 
L 155.962948 179.677052 
L 160.806388 181.454237 
L 166.860688 183.357127 
L 174.125848 185.216925 
L 180.180148 186.495576 
L 191.077888 188.231073 
L 199.553908 189.201084 
L 208.029928 189.91797 
L 217.716808 190.495193 
L 228.614548 190.920009 
L 234.461953 191.075525 
L 234.461953 191.075525 
" clip-path="url(#pcf8011fcd4)" style="fill: none; stroke: #20928c; stroke-width: 1.5; stroke-linecap: square"/>
   </g>
   <g id="line2d_38">
    <path d="M 46.985548 171.789772 
L 48.196408 135.4407 
L 49.407268 110.385533 
L 50.618128 93.585113 
L 51.828988 82.132428 
L 53.039848 74.382791 
L 54.250708 69.237927 
L 55.461568 65.494408 
L 56.672428 63.459538 
L 57.883288 62.436311 
L 59.094148 62.193885 
L 60.305008 62.574776 
L 61.515868 63.422317 
L 62.726728 64.661127 
L 63.937588 66.194118 
L 66.359308 69.939178 
L 68.781028 74.281666 
L 72.413608 81.368884 
L 84.522208 105.466382 
L 89.365648 114.47861 
L 94.209088 122.947022 
L 97.841668 128.852762 
L 101.474248 134.367412 
L 105.106828 139.469135 
L 107.528548 142.660062 
L 112.371988 148.518919 
L 117.215428 153.753186 
L 120.848008 157.333724 
L 124.480588 160.632585 
L 128.113168 163.657552 
L 131.745748 166.438351 
L 136.589188 169.785083 
L 141.432628 172.749249 
L 146.276068 175.367599 
L 151.119508 177.67129 
L 155.962948 179.688718 
L 160.806388 181.461962 
L 166.860688 183.360359 
L 174.125848 185.216616 
L 180.180148 186.492454 
L 191.077888 188.226196 
L 199.553908 189.196133 
L 208.029928 189.913516 
L 217.716808 190.491758 
L 228.614548 190.917714 
L 234.461953 191.073761 
L 234.461953 191.073761 
" clip-path="url(#pcf8011fcd4)" style="fill: none; stroke: #1f978b; stroke-width: 1.5; stroke-linecap: square"/>
   </g>
   <g id="line2d_39">
    <path d="M 46.985548 170.860544 
L 48.196408 133.246193 
L 49.407268 107.720836 
L 50.618128 90.786705 
L 51.828988 79.349515 
L 53.039848 71.683402 
L 54.250708 66.654182 
L 55.461568 63.058022 
L 56.672428 61.162059 
L 57.883288 60.277773 
L 59.094148 60.170927 
L 60.305008 60.681643 
L 61.515868 61.653379 
L 62.726728 63.009413 
L 63.937588 64.653357 
L 66.359308 68.600838 
L 68.781028 73.122241 
L 72.413608 80.439784 
L 82.100488 100.273956 
L 86.943928 109.687838 
L 91.787368 118.538132 
L 95.419948 124.761764 
L 99.052528 130.579742 
L 102.685108 135.986706 
L 106.317688 141.020564 
L 109.950268 145.591903 
L 112.371988 148.476501 
L 117.215428 153.734878 
L 120.848008 157.328037 
L 124.480588 160.635844 
L 128.113168 163.667143 
L 131.745748 166.451648 
L 136.589188 169.800465 
L 141.432628 172.764495 
L 146.276068 175.381168 
L 151.119508 177.682331 
L 155.962948 179.696977 
L 160.806388 181.46693 
L 166.860688 183.361575 
L 174.125848 185.214972 
L 180.180148 186.488497 
L 191.077888 188.221011 
L 199.553908 189.191094 
L 208.029928 189.909086 
L 217.716808 190.488388 
L 228.614548 190.915481 
L 234.461953 191.072049 
L 234.461953 191.072049 
" clip-path="url(#pcf8011fcd4)" style="fill: none; stroke: #1e9c89; stroke-width: 1.5; stroke-linecap: square"/>
   </g>
   <g id="line2d_40">
    <path d="M 46.985548 169.939478 
L 48.196408 131.095519 
L 49.407268 105.129277 
L 50.618128 88.07879 
L 51.828988 76.666538 
L 53.039848 69.08849 
L 54.250708 64.176309 
L 55.461568 60.725741 
L 56.672428 58.96645 
L 57.883288 58.217965 
L 59.094148 58.242987 
L 60.305008 58.879505 
L 61.515868 59.971182 
L 62.726728 61.440121 
L 63.937588 63.190653 
L 66.359308 67.331965 
L 68.781028 72.024035 
L 73.624468 82.125735 
L 80.889628 97.340931 
L 85.733068 107.020225 
L 90.576508 116.111629 
L 94.209088 122.525542 
L 97.841668 128.527332 
L 101.474248 134.119373 
L 105.106828 139.285474 
L 107.528548 142.512411 
L 112.371988 148.432247 
L 117.215428 153.713138 
L 120.848008 157.318139 
L 124.480588 160.634408 
L 128.113168 163.671771 
L 131.745748 166.459929 
L 135.378328 169.005309 
L 139.010908 171.339776 
L 143.854348 174.124016 
L 148.697788 176.578802 
L 154.752088 179.223462 
L 159.595528 181.045116 
L 164.438968 182.640315 
L 170.493268 184.336486 
L 177.758428 185.990521 
L 182.601867 186.92446 
L 189.867028 188.054688 
L 197.132188 188.938737 
L 205.608208 189.723545 
L 215.295088 190.361206 
L 226.192828 190.834331 
L 234.461953 191.070388 
L 234.461953 191.070388 
" clip-path="url(#pcf8011fcd4)" style="fill: none; stroke: #1fa188; stroke-width: 1.5; stroke-linecap: square"/>
   </g>
   <g id="line2d_41">
    <path d="M 46.985548 169.027093 
L 48.196408 128.988347 
L 49.407268 102.608692 
L 50.618128 85.457696 
L 51.828988 74.078737 
L 53.039848 66.592551 
L 54.250708 61.798312 
L 55.461568 58.491368 
L 56.672428 56.866376 
L 57.883288 56.25052 
L 59.094148 56.403748 
L 60.305008 57.16215 
L 61.515868 58.369666 
L 62.726728 59.947374 
L 63.937588 61.800339 
L 66.359308 66.127362 
L 68.781028 70.98236 
L 73.624468 81.353158 
L 79.678768 94.336087 
L 84.522208 104.269915 
L 88.154788 111.341007 
L 92.998228 120.219581 
L 96.630808 126.405197 
L 100.263388 132.174986 
L 103.895968 137.499877 
L 107.528548 142.439171 
L 112.371988 148.386506 
L 117.215428 153.688486 
L 120.848008 157.304634 
L 124.480588 160.628933 
L 128.113168 163.67212 
L 131.745748 166.463882 
L 135.378328 169.011505 
L 139.010908 171.346559 
L 143.854348 174.130654 
L 148.697788 176.584173 
L 153.541228 178.732866 
L 158.384668 180.614655 
L 163.228108 182.263192 
L 168.071548 183.683908 
L 172.914988 184.940233 
L 180.180148 186.478633 
L 189.867028 188.048956 
L 197.132188 188.933367 
L 205.608208 189.718882 
L 215.295088 190.357653 
L 226.192828 190.832016 
L 234.461953 191.068776 
L 234.461953 191.068776 
" clip-path="url(#pcf8011fcd4)" style="fill: none; stroke: #21a585; stroke-width: 1.5; stroke-linecap: square"/>
   </g>
   <g id="line2d_42">
    <path d="M 46.985548 168.123811 
L 48.196408 126.924195 
L 49.407268 100.156885 
L 50.618128 82.919859 
L 51.828988 71.581583 
L 53.039848 64.190401 
L 54.250708 59.514593 
L 55.461568 56.349151 
L 56.672428 54.855985 
L 57.883288 54.369583 
L 59.094148 54.647418 
L 60.305008 55.523899 
L 61.515868 56.843306 
L 62.726728 58.525825 
L 63.937588 60.477272 
L 66.359308 64.982331 
L 69.991888 72.606231 
L 82.100488 98.938661 
L 86.943928 108.722029 
L 91.787368 117.841205 
L 95.419948 124.216449 
L 99.052528 130.156644 
L 102.685108 135.663264 
L 106.317688 140.775273 
L 109.950268 145.418799 
L 112.371988 148.339578 
L 116.004568 152.397723 
L 119.637148 156.122395 
L 123.269728 159.541234 
L 126.902308 162.682006 
L 130.534888 165.559265 
L 134.167468 168.193818 
L 139.010908 171.34985 
L 143.854348 174.134118 
L 148.697788 176.586769 
L 153.541228 178.734265 
L 158.384668 180.614559 
L 163.228108 182.261306 
L 168.071548 183.680965 
L 172.914988 184.935373 
L 180.180148 186.47295 
L 189.867028 188.043069 
L 197.132188 188.927968 
L 205.608208 189.71427 
L 215.295088 190.354176 
L 226.192828 190.829762 
L 234.461953 191.067213 
L 234.461953 191.067213 
" clip-path="url(#pcf8011fcd4)" style="fill: none; stroke: #24aa83; stroke-width: 1.5; stroke-linecap: square"/>
   </g>
   <g id="line2d_43">
    <path d="M 46.985548 167.229972 
L 48.196408 124.902466 
L 49.407268 97.771658 
L 50.618128 80.461835 
L 51.828988 69.170771 
L 53.039848 61.877169 
L 54.250708 57.319929 
L 55.461568 54.293749 
L 56.672428 52.929869 
L 57.883288 52.56976 
L 59.094148 52.96868 
L 60.305008 53.959551 
L 61.515868 55.387054 
L 62.726728 57.170603 
L 65.148448 61.477914 
L 67.570168 66.430098 
L 71.202748 74.445791 
L 79.678768 93.368229 
L 84.522208 103.567113 
L 88.154788 110.789242 
L 91.787368 117.628681 
L 95.419948 124.048721 
L 99.052528 130.024902 
L 102.685108 135.560773 
L 106.317688 140.695683 
L 109.950268 145.360333 
L 112.371988 148.291722 
L 116.004568 152.363968 
L 119.637148 156.099794 
L 123.269728 159.527114 
L 126.902308 162.673887 
L 130.534888 165.555269 
L 134.167468 168.192338 
L 139.010908 171.35012 
L 143.854348 174.134841 
L 148.697788 176.586971 
L 153.541228 178.733631 
L 158.384668 180.612796 
L 163.228108 182.258118 
L 168.071548 183.677013 
L 172.914988 184.92983 
L 180.180148 186.466888 
L 189.867028 188.037071 
L 197.132188 188.922563 
L 205.608208 189.709719 
L 215.295088 190.350775 
L 226.192828 190.827568 
L 234.461953 191.065697 
L 234.461953 191.065697 
" clip-path="url(#pcf8011fcd4)" style="fill: none; stroke: #28ae80; stroke-width: 1.5; stroke-linecap: square"/>
   </g>
   <g id="line2d_44">
    <path d="M 46.985548 166.345844 
L 48.196408 122.922473 
L 49.407268 95.450823 
L 50.618128 78.080305 
L 51.828988 66.842218 
L 53.039848 59.648278 
L 54.250708 55.209446 
L 55.461568 52.320201 
L 56.672428 51.083023 
L 57.883288 50.846079 
L 59.094148 51.362647 
L 60.305008 52.464342 
L 61.515868 53.996297 
L 62.726728 55.877263 
L 65.148448 60.360474 
L 67.570168 65.465483 
L 72.413608 76.468109 
L 78.467908 90.244755 
L 83.311348 100.717768 
L 86.943928 108.150505 
L 90.576508 115.169907 
L 94.209088 121.783174 
L 97.841668 127.944661 
L 101.474248 133.664719 
L 105.106828 138.936872 
L 107.528548 142.223005 
L 111.161128 146.813644 
L 114.793708 151.001475 
L 118.426288 154.859859 
L 122.058868 158.396313 
L 125.691448 161.642233 
L 129.324027 164.615315 
L 132.956608 167.331482 
L 136.589188 169.816621 
L 141.432628 172.784461 
L 146.276068 175.398832 
L 151.119508 177.69422 
L 155.962948 179.701901 
L 160.806388 181.462572 
L 166.860688 183.346596 
L 174.125848 185.193107 
L 180.180148 186.46052 
L 189.867028 188.030996 
L 197.132188 188.917172 
L 205.608208 189.705234 
L 215.295088 190.347451 
L 226.192828 190.825434 
L 234.461953 191.064225 
L 234.461953 191.064225 
" clip-path="url(#pcf8011fcd4)" style="fill: none; stroke: #2eb37c; stroke-width: 1.5; stroke-linecap: square"/>
   </g>
   <g id="line2d_45">
    <path d="M 46.985548 165.471634 
L 48.196408 120.983456 
L 49.407268 93.192224 
L 50.618128 75.772085 
L 51.828988 64.592056 
L 53.039848 57.499429 
L 54.250708 53.178593 
L 55.461568 50.423892 
L 56.672428 49.310813 
L 57.883288 49.193949 
L 59.094148 49.82482 
L 60.305008 51.033895 
L 61.515868 52.666804 
L 62.726728 54.641737 
L 65.148448 59.294157 
L 67.570168 64.54571 
L 72.413608 75.78613 
L 78.467908 89.781004 
L 83.311348 100.379419 
L 86.943928 107.88325 
L 90.576508 114.958604 
L 94.209088 121.615062 
L 97.841668 127.811025 
L 101.474248 133.558633 
L 105.106828 138.853552 
L 107.528548 142.152384 
L 111.161128 146.759262 
L 114.793708 150.961258 
L 118.426288 154.830425 
L 122.058868 158.375332 
L 125.691448 161.627447 
L 129.324027 164.604953 
L 132.956608 167.324238 
L 136.589188 169.811192 
L 141.432628 172.780442 
L 146.276068 175.395239 
L 151.119508 177.690475 
L 155.962948 179.697775 
L 160.806388 181.45764 
L 166.860688 183.340728 
L 174.125848 185.18693 
L 180.180148 186.453907 
L 189.867028 188.024874 
L 197.132188 188.911809 
L 205.608208 189.700822 
L 215.295088 190.344205 
L 226.192828 190.823358 
L 234.461953 191.062798 
L 234.461953 191.062798 
" clip-path="url(#pcf8011fcd4)" style="fill: none; stroke: #35b779; stroke-width: 1.5; stroke-linecap: square"/>
   </g>
   <g id="line2d_46">
    <path d="M 46.985548 164.607495 
L 48.196408 119.084605 
L 49.407268 90.993745 
L 50.618128 73.534121 
L 51.828988 62.416622 
L 53.039848 55.426583 
L 54.250708 51.223119 
L 55.461568 48.600534 
L 56.672428 47.608944 
L 57.883288 47.609131 
L 59.094148 48.351054 
L 60.305008 49.664186 
L 61.515868 51.394696 
L 62.726728 53.460302 
L 65.148448 58.275575 
L 67.570168 63.667742 
L 73.624468 78.024443 
L 78.467908 89.338239 
L 83.311348 100.055837 
L 86.943928 107.627166 
L 90.576508 114.7556 
L 94.209088 121.453 
L 97.841668 127.681613 
L 101.474248 133.455288 
L 105.106828 138.771736 
L 107.528548 142.082574 
L 111.161128 146.704818 
L 114.793708 150.920232 
L 118.426288 154.799649 
L 122.058868 158.352628 
L 125.691448 161.610708 
L 129.324027 164.592526 
L 132.956608 167.314907 
L 136.589188 169.80374 
L 141.432628 172.774553 
L 146.276068 175.389987 
L 151.119508 177.685313 
L 155.962948 179.692476 
L 160.806388 181.451789 
L 166.860688 183.334228 
L 174.125848 185.180372 
L 180.180148 186.447103 
L 189.867028 188.018731 
L 197.132188 188.906486 
L 205.608208 189.696484 
L 215.295088 190.341035 
L 226.192828 190.821338 
L 234.461953 191.061412 
L 234.461953 191.061412 
" clip-path="url(#pcf8011fcd4)" style="fill: none; stroke: #3dbc74; stroke-width: 1.5; stroke-linecap: square"/>
   </g>
   <g id="line2d_47">
    <path d="M 46.985548 163.753534 
L 48.196408 117.22507 
L 49.407268 88.85332 
L 50.618128 71.363492 
L 51.828988 60.312453 
L 53.039848 53.425949 
L 54.250708 49.339054 
L 55.461568 46.846132 
L 56.672428 45.973432 
L 57.883288 46.0877 
L 59.094148 46.937522 
L 60.305008 48.351509 
L 61.515868 50.176407 
L 62.726728 52.32954 
L 65.148448 57.301629 
L 68.781028 65.70871 
L 78.467908 88.915007 
L 83.311348 99.745995 
L 86.943928 107.381484 
L 90.576508 114.560338 
L 94.209088 121.296602 
L 97.841668 127.55618 
L 101.474248 133.354561 
L 105.106828 138.691403 
L 107.528548 142.013616 
L 111.161128 146.65043 
L 114.793708 150.87858 
L 118.426288 154.767759 
L 122.058868 158.328463 
L 125.691448 161.592294 
L 129.324027 164.578321 
L 132.956608 167.303775 
L 136.589188 169.79454 
L 141.432628 172.767046 
L 146.276068 175.383304 
L 151.119508 177.67893 
L 155.962948 179.686171 
L 160.806388 181.445155 
L 166.860688 183.327197 
L 174.125848 185.173503 
L 180.180148 186.440152 
L 189.867028 188.012585 
L 197.132188 188.901214 
L 205.608208 189.692225 
L 215.295088 190.337941 
L 226.192828 190.819374 
L 234.461953 191.060067 
L 234.461953 191.060067 
" clip-path="url(#pcf8011fcd4)" style="fill: none; stroke: #46c06f; stroke-width: 1.5; stroke-linecap: square"/>
   </g>
   <g id="line2d_48">
    <path d="M 46.985548 162.909819 
L 48.196408 115.403974 
L 49.407268 86.768936 
L 50.618128 69.257408 
L 51.828988 58.276272 
L 53.039848 51.493963 
L 54.250708 47.522688 
L 55.461568 45.156966 
L 56.672428 44.400577 
L 57.883288 44.626025 
L 59.094148 45.58069 
L 60.305008 47.092447 
L 61.515868 49.008653 
L 63.937588 53.715879 
L 66.359308 59.149683 
L 71.202748 70.926709 
L 77.257048 85.668269 
L 82.100488 96.781554 
L 85.733068 104.633768 
L 89.365648 112.010934 
L 92.998228 118.942517 
L 96.630808 125.390789 
L 100.263388 131.369429 
L 103.895968 136.868615 
L 107.528548 141.945545 
L 111.161128 146.596199 
L 114.793708 150.83646 
L 118.426288 154.734956 
L 122.058868 158.303064 
L 125.691448 161.572452 
L 129.324027 164.562588 
L 132.956608 167.291089 
L 136.589188 169.783831 
L 141.432628 172.758144 
L 146.276068 175.375387 
L 151.119508 177.671499 
L 155.962948 179.679003 
L 160.806388 181.437855 
L 166.860688 183.319721 
L 172.914988 184.895309 
L 180.180148 186.433091 
L 189.867028 188.006455 
L 197.132188 188.896 
L 205.608208 189.688046 
L 215.295088 190.334921 
L 226.192828 190.817462 
L 234.461953 191.05876 
L 234.461953 191.05876 
" clip-path="url(#pcf8011fcd4)" style="fill: none; stroke: #50c46a; stroke-width: 1.5; stroke-linecap: square"/>
   </g>
   <g id="line2d_49">
    <path d="M 46.985548 162.076384 
L 48.196408 113.620425 
L 49.407268 84.738643 
L 50.618128 67.213207 
L 51.828988 56.304981 
L 53.039848 49.627278 
L 54.250708 45.770548 
L 55.461568 43.529569 
L 56.672428 42.88694 
L 57.883288 43.220736 
L 59.094148 44.277288 
L 60.305008 45.883847 
L 61.515868 47.888409 
L 63.937588 52.75303 
L 66.359308 58.321525 
L 71.202748 70.313598 
L 77.257048 85.249021 
L 82.100488 96.473822 
L 85.733068 104.388947 
L 89.365648 111.815855 
L 92.998228 118.785585 
L 96.630808 125.264054 
L 100.263388 131.266628 
L 103.895968 136.785726 
L 107.528548 141.878387 
L 111.161128 146.54221 
L 114.793708 150.794011 
L 118.426288 154.701413 
L 122.058868 158.276631 
L 125.691448 161.551393 
L 129.324027 164.545547 
L 132.956608 167.277066 
L 136.589188 169.771822 
L 141.432628 172.748038 
L 146.276068 175.366407 
L 151.119508 177.663168 
L 155.962948 179.671099 
L 160.806388 181.429991 
L 166.860688 183.311876 
L 172.914988 184.887551 
L 180.180148 186.425954 
L 188.656168 187.823238 
L 194.710468 188.618517 
L 203.186488 189.480969 
L 211.662508 190.116605 
L 221.349388 190.627265 
L 233.457988 191.032862 
L 234.461953 191.057492 
L 234.461953 191.057492 
" clip-path="url(#pcf8011fcd4)" style="fill: none; stroke: #5ac864; stroke-width: 1.5; stroke-linecap: square"/>
   </g>
   <g id="line2d_50">
    <path d="M 46.985548 161.253232 
L 48.196408 111.873521 
L 49.407268 82.76055 
L 50.618128 65.228349 
L 51.828988 54.395653 
L 53.039848 47.822748 
L 54.250708 44.079387 
L 55.461568 41.960704 
L 56.672428 41.42932 
L 57.883288 41.868707 
L 59.094148 43.024285 
L 60.305008 44.72279 
L 61.515868 46.812881 
L 63.937588 51.829509 
L 66.359308 57.527728 
L 71.202748 69.726241 
L 77.257048 84.847096 
L 82.100488 96.178339 
L 85.733068 104.153465 
L 89.365648 111.627789 
L 92.998228 118.633874 
L 96.630808 125.141106 
L 100.263388 131.166469 
L 103.895968 136.70452 
L 107.528548 141.812161 
L 111.161128 146.488538 
L 114.793708 150.75135 
L 118.426288 154.667281 
L 122.058868 158.249338 
L 125.691448 161.529304 
L 129.324027 164.527386 
L 132.956608 167.261895 
L 136.589188 169.758694 
L 141.432628 172.736897 
L 146.276068 175.356515 
L 151.119508 177.654065 
L 155.962948 179.662567 
L 160.806388 181.421653 
L 166.860688 183.303727 
L 172.914988 184.879631 
L 180.180148 186.418767 
L 188.656168 187.817247 
L 194.710468 188.613096 
L 203.186488 189.476667 
L 211.662508 190.113324 
L 221.349388 190.625029 
L 233.457988 191.031568 
L 234.461953 191.056259 
L 234.461953 191.056259 
" clip-path="url(#pcf8011fcd4)" style="fill: none; stroke: #65cb5e; stroke-width: 1.5; stroke-linecap: square"/>
   </g>
   <g id="line2d_51">
    <path d="M 46.985548 160.440344 
L 48.196408 110.162359 
L 49.407268 80.83283 
L 50.618128 63.300415 
L 51.828988 52.545518 
L 53.039848 46.077416 
L 54.250708 42.446162 
L 55.461568 40.44735 
L 56.672428 40.02474 
L 57.883288 40.567032 
L 59.094148 41.818872 
L 60.305008 43.606575 
L 61.515868 45.779486 
L 63.937588 50.94298 
L 66.359308 56.766211 
L 72.413608 72.284288 
L 77.257048 84.461405 
L 80.889628 93.110199 
L 84.522208 101.303775 
L 88.154788 108.993924 
L 91.787368 116.19576 
L 95.419948 122.899506 
L 99.052528 129.102645 
L 102.685108 134.822352 
L 106.317688 140.101123 
L 109.950268 144.898281 
L 112.371988 147.896695 
L 116.004568 152.058573 
L 119.637148 155.866347 
L 123.269728 159.349686 
L 126.902308 162.537728 
L 130.534888 165.449258 
L 134.167468 168.10694 
L 137.800048 170.522054 
L 141.432628 172.724867 
L 146.276068 175.34584 
L 151.119508 177.644305 
L 155.962948 179.653504 
L 160.806388 181.412916 
L 166.860688 183.29533 
L 172.914988 184.87159 
L 180.180148 186.411555 
L 188.656168 187.811288 
L 194.710468 188.607743 
L 203.186488 189.472445 
L 211.662508 190.110119 
L 221.349388 190.62285 
L 233.457988 191.030311 
L 234.461953 191.055062 
L 234.461953 191.055062 
" clip-path="url(#pcf8011fcd4)" style="fill: none; stroke: #70cf57; stroke-width: 1.5; stroke-linecap: square"/>
   </g>
   <g id="line2d_52">
    <path d="M 46.985548 159.637676 
L 48.196408 108.486036 
L 49.407268 78.953722 
L 50.618128 61.4271 
L 51.828988 50.751958 
L 53.039848 44.388497 
L 54.250708 40.868022 
L 55.461568 38.986683 
L 56.672428 38.670419 
L 57.883288 39.313008 
L 59.094148 40.658441 
L 60.305008 42.5327 
L 61.515868 44.785834 
L 63.937588 50.091288 
L 66.359308 56.035053 
L 79.678768 89.961472 
L 83.311348 98.373229 
L 86.943928 106.286904 
L 90.576508 113.684039 
L 94.209088 120.588371 
L 97.841668 126.981627 
L 101.474248 132.886544 
L 105.106828 138.311285 
L 107.528548 141.682561 
L 111.161128 146.382381 
L 114.793708 150.665795 
L 118.426288 154.597761 
L 122.058868 158.192756 
L 125.691448 161.482667 
L 129.324027 164.488356 
L 132.956608 167.228754 
L 136.589188 169.729701 
L 141.432628 172.712077 
L 146.276068 175.334497 
L 151.119508 177.633985 
L 155.962948 179.64399 
L 160.806388 181.403847 
L 166.860688 183.286733 
L 172.914988 184.863459 
L 180.180148 186.404336 
L 188.656168 187.805372 
L 194.710468 188.602464 
L 203.186488 189.468303 
L 211.662508 190.106988 
L 221.349388 190.620727 
L 233.457988 191.029089 
L 234.461953 191.053898 
L 234.461953 191.053898 
" clip-path="url(#pcf8011fcd4)" style="fill: none; stroke: #7cd250; stroke-width: 1.5; stroke-linecap: square"/>
   </g>
   <g id="line2d_53">
    <path d="M 46.985548 158.845168 
L 48.196408 106.843659 
L 49.407268 77.121527 
L 50.618128 59.606207 
L 51.828988 49.012498 
L 53.039848 42.753373 
L 54.250708 39.342294 
L 55.461568 37.576062 
L 56.672428 37.363767 
L 57.883288 38.104117 
L 59.094148 39.540565 
L 60.305008 41.498839 
L 61.515868 43.82971 
L 63.937588 49.272441 
L 67.570168 58.486758 
L 77.257048 83.734802 
L 80.889628 92.531924 
L 84.522208 100.841745 
L 88.154788 108.623439 
L 91.787368 115.896025 
L 95.419948 122.655025 
L 99.052528 128.902248 
L 102.685108 134.657603 
L 106.317688 139.964325 
L 109.950268 144.78721 
L 112.371988 147.798775 
L 116.004568 151.978373 
L 119.637148 155.80062 
L 123.269728 159.295526 
L 126.902308 162.49245 
L 130.534888 165.410841 
L 134.167468 168.073647 
L 137.800048 170.492983 
L 141.432628 172.698639 
L 146.276068 175.322587 
L 151.119508 177.623192 
L 155.962948 179.634099 
L 160.806388 181.394504 
L 166.860688 183.277978 
L 172.914988 184.855267 
L 180.180148 186.397128 
L 188.656168 187.799506 
L 194.710468 188.597262 
L 203.186488 189.464242 
L 211.662508 190.103929 
L 221.349388 190.618658 
L 233.457988 191.0279 
L 234.461953 191.052766 
L 234.461953 191.052766 
" clip-path="url(#pcf8011fcd4)" style="fill: none; stroke: #89d548; stroke-width: 1.5; stroke-linecap: square"/>
   </g>
   <g id="line2d_54">
    <path d="M 46.985548 158.062744 
L 48.196408 105.234344 
L 49.407268 75.334611 
L 50.618128 57.835649 
L 51.828988 47.324796 
L 53.039848 41.169576 
L 54.250708 37.866468 
L 55.461568 36.213015 
L 56.672428 36.10236 
L 57.883288 36.938013 
L 59.094148 38.462988 
L 60.305008 40.502832 
L 61.515868 42.909056 
L 63.937588 48.484593 
L 67.570168 57.860636 
L 76.046188 80.320544 
L 79.678768 89.360854 
L 83.311348 97.893549 
L 86.943928 105.901886 
L 90.576508 113.373211 
L 94.209088 120.33463 
L 97.841668 126.773245 
L 101.474248 132.714298 
L 105.106828 138.168859 
L 108.739408 143.161934 
L 112.371988 147.750338 
L 116.004568 151.938277 
L 119.637148 155.767367 
L 123.269728 159.267781 
L 126.902308 162.468975 
L 130.534888 165.390708 
L 134.167468 168.056053 
L 137.800048 170.477513 
L 141.432628 172.684654 
L 146.276068 175.310197 
L 151.119508 177.612001 
L 155.962948 179.623895 
L 160.806388 181.384938 
L 166.860688 183.269102 
L 172.914988 184.847039 
L 180.180148 186.389945 
L 188.656168 187.793697 
L 194.710468 188.59214 
L 203.186488 189.460261 
L 211.662508 190.10094 
L 221.349388 190.616641 
L 233.457988 191.026744 
L 234.461953 191.051664 
L 234.461953 191.051664 
" clip-path="url(#pcf8011fcd4)" style="fill: none; stroke: #95d840; stroke-width: 1.5; stroke-linecap: square"/>
   </g>
   <g id="line2d_55">
    <path d="M 46.985548 157.290314 
L 48.196408 103.657223 
L 49.407268 73.591402 
L 50.618128 56.113434 
L 51.828988 45.686636 
L 53.039848 39.634785 
L 54.250708 36.438187 
L 55.461568 34.895224 
L 56.672428 34.883937 
L 57.883288 35.812507 
L 59.094148 37.423605 
L 60.305008 39.542671 
L 61.515868 42.021961 
L 63.937588 47.726033 
L 67.570168 57.258179 
L 76.046188 79.964935 
L 79.678768 89.076934 
L 83.311348 97.666316 
L 86.943928 105.719002 
L 90.576508 113.225075 
L 94.209088 120.213234 
L 97.841668 126.673092 
L 101.474248 132.631072 
L 105.106828 138.09961 
L 108.739408 143.10453 
L 112.371988 147.702307 
L 116.004568 151.898272 
L 119.637148 155.733968 
L 123.269728 159.239719 
L 126.902308 162.445078 
L 130.534888 165.370094 
L 134.167468 168.037962 
L 137.800048 170.461548 
L 141.432628 172.670206 
L 146.276068 175.297404 
L 151.119508 177.600479 
L 155.962948 179.613431 
L 160.806388 181.375194 
L 166.860688 183.260137 
L 172.914988 184.838795 
L 180.180148 186.382799 
L 188.656168 187.787952 
L 194.710468 188.587098 
L 203.186488 189.45636 
L 211.662508 190.098021 
L 221.349388 190.614675 
L 233.457988 191.025618 
L 234.461953 191.050593 
L 234.461953 191.050593 
" clip-path="url(#pcf8011fcd4)" style="fill: none; stroke: #a2da37; stroke-width: 1.5; stroke-linecap: square"/>
   </g>
   <g id="line2d_56">
    <path d="M 46.985548 156.527777 
L 48.196408 102.11144 
L 49.407268 71.890389 
L 50.618128 54.437668 
L 51.828988 44.09592 
L 53.039848 38.146806 
L 54.250708 35.055238 
L 55.461568 33.620517 
L 56.672428 33.706377 
L 57.883288 34.725551 
L 59.094148 36.420456 
L 60.305008 38.616482 
L 61.515868 41.166648 
L 63.937588 46.99517 
L 67.570168 56.678071 
L 74.835328 76.452983 
L 78.467908 85.800811 
L 82.100488 94.623863 
L 85.733068 102.907527 
L 89.365648 110.625358 
L 92.998228 117.818078 
L 96.630808 124.472849 
L 100.263388 130.615079 
L 103.895968 136.250292 
L 107.528548 141.434916 
L 111.161128 146.176028 
L 114.793708 150.495853 
L 118.426288 154.45644 
L 122.058868 158.074791 
L 125.691448 161.382977 
L 129.324027 164.402975 
L 132.956608 167.154759 
L 136.589188 169.664122 
L 140.221768 171.939922 
L 143.854348 174.012386 
L 148.697788 176.475322 
L 153.541228 178.629393 
L 158.384668 180.51246 
L 163.228108 182.157981 
L 168.071548 183.581519 
L 172.914988 184.830554 
L 180.180148 186.3757 
L 188.656168 187.782274 
L 194.710468 188.582139 
L 203.186488 189.452537 
L 211.662508 190.095168 
L 221.349388 190.612758 
L 233.457988 191.024523 
L 234.461953 191.049551 
L 234.461953 191.049551 
" clip-path="url(#pcf8011fcd4)" style="fill: none; stroke: #b0dd2f; stroke-width: 1.5; stroke-linecap: square"/>
   </g>
   <g id="line2d_57">
    <path d="M 46.985548 155.775025 
L 48.196408 100.596158 
L 49.407268 70.230121 
L 50.618128 52.806548 
L 51.828988 42.550663 
L 53.039848 36.703575 
L 54.250708 33.715538 
L 55.461568 32.386855 
L 56.672428 32.567696 
L 57.883288 33.675232 
L 59.094148 35.451708 
L 60.305008 37.722521 
L 62.726728 43.22501 
L 65.148448 49.491569 
L 71.202748 66.216086 
L 76.046188 79.291986 
L 79.678768 88.538846 
L 83.311348 97.234771 
L 86.943928 105.370775 
L 90.576508 112.94212 
L 94.209088 119.980516 
L 97.841668 126.480288 
L 101.474248 132.470086 
L 105.106828 137.964908 
L 108.739408 142.992126 
L 112.371988 147.607595 
L 116.004568 151.818749 
L 119.637148 155.667 
L 123.269728 159.182957 
L 126.902308 162.396349 
L 130.534888 165.327766 
L 134.167468 168.00062 
L 137.800048 170.428453 
L 141.432628 172.640224 
L 146.276068 175.270873 
L 151.119508 177.576666 
L 155.962948 179.591916 
L 160.806388 181.355318 
L 166.860688 183.242045 
L 172.914988 184.822331 
L 180.180148 186.368657 
L 188.656168 187.776667 
L 194.710468 188.577262 
L 203.186488 189.448791 
L 211.662508 190.092381 
L 221.349388 190.610888 
L 233.457988 191.023457 
L 234.461953 191.048535 
L 234.461953 191.048535 
" clip-path="url(#pcf8011fcd4)" style="fill: none; stroke: #bddf26; stroke-width: 1.5; stroke-linecap: square"/>
   </g>
   <g id="line2d_58">
    <path d="M 46.985548 155.031939 
L 48.196408 99.110559 
L 49.407268 68.609204 
L 50.618128 51.218357 
L 51.828988 41.048981 
L 53.039848 35.303139 
L 54.250708 32.417124 
L 55.461568 31.192324 
L 56.672428 31.466034 
L 57.883288 32.65976 
L 59.094148 34.515649 
L 60.305008 36.859157 
L 62.726728 42.489345 
L 65.148448 48.862806 
L 78.467908 85.241418 
L 82.100488 94.175394 
L 85.733068 102.54566 
L 89.365648 110.331774 
L 92.998228 117.576845 
L 96.630808 124.272997 
L 100.263388 130.448026 
L 103.895968 136.110524 
L 107.528548 141.316846 
L 111.161128 146.076289 
L 114.793708 150.412334 
L 118.426288 154.385793 
L 122.058868 158.014762 
L 125.691448 161.33139 
L 129.324027 164.358132 
L 132.956608 167.115406 
L 136.589188 169.628977 
L 140.221768 171.908512 
L 143.854348 173.983716 
L 148.697788 176.449743 
L 153.541228 178.606451 
L 158.384668 180.491661 
L 163.228108 182.138796 
L 168.071548 183.564223 
L 172.914988 184.81414 
L 180.180148 186.361677 
L 188.656168 187.771134 
L 194.710468 188.572469 
L 203.186488 189.445121 
L 211.662508 190.089658 
L 221.349388 190.609064 
L 233.457988 191.022418 
L 234.461953 191.047547 
L 234.461953 191.047547 
" clip-path="url(#pcf8011fcd4)" style="fill: none; stroke: #cae11f; stroke-width: 1.5; stroke-linecap: square"/>
   </g>
   <g id="line2d_59">
    <path d="M 46.985548 154.298396 
L 48.196408 97.653843 
L 49.407268 67.026301 
L 50.618128 49.671457 
L 51.828988 39.589093 
L 53.039848 33.943658 
L 54.250708 31.158152 
L 55.461568 30.035122 
L 56.672428 30.399645 
L 57.883288 31.677457 
L 59.094148 33.610676 
L 60.305008 36.024867 
L 62.726728 41.778983 
L 65.148448 48.255972 
L 77.257048 81.855494 
L 80.889628 91.029569 
L 84.522208 99.634255 
L 88.154788 107.647903 
L 91.787368 115.099741 
L 95.419948 121.998719 
L 99.052528 128.357634 
L 102.685108 134.203364 
L 106.317688 139.581189 
L 109.950268 144.469533 
L 112.371988 147.514851 
L 116.004568 151.740163 
L 119.637148 155.60018 
L 123.269728 159.125775 
L 126.902308 162.346834 
L 130.534888 165.284435 
L 134.167468 167.962189 
L 137.800048 170.394247 
L 141.432628 172.609202 
L 146.276068 175.243444 
L 151.119508 177.552137 
L 155.962948 179.569874 
L 160.806388 181.335131 
L 166.860688 183.223881 
L 172.914988 184.805991 
L 180.180148 186.354765 
L 188.656168 187.765677 
L 194.710468 188.567758 
L 203.186488 189.441526 
L 211.662508 190.086997 
L 221.349388 190.607284 
L 233.457988 191.021406 
L 234.461953 191.046584 
L 234.461953 191.046584 
" clip-path="url(#pcf8011fcd4)" style="fill: none; stroke: #d8e219; stroke-width: 1.5; stroke-linecap: square"/>
   </g>
   <g id="line2d_60">
    <path d="M 46.985548 153.574268 
L 48.196408 96.225231 
L 49.407268 65.480126 
L 50.618128 48.164292 
L 51.828988 38.169307 
L 53.039848 32.62339 
L 54.250708 29.93688 
L 55.461568 28.913556 
L 56.672428 29.366889 
L 57.883288 30.726748 
L 59.094148 32.735288 
L 60.305008 35.218225 
L 62.726728 41.092653 
L 66.359308 51.091466 
L 74.835328 75.101837 
L 78.467908 84.719275 
L 82.100488 93.755745 
L 85.733068 102.20599 
L 89.365648 110.055155 
L 92.998228 117.34859 
L 96.630808 124.082981 
L 100.263388 130.288344 
L 103.895968 135.976091 
L 107.528548 141.202537 
L 111.161128 145.97902 
L 114.793708 150.330176 
L 118.426288 154.315698 
L 122.058868 157.954682 
L 125.691448 161.279348 
L 129.324027 164.312584 
L 132.956608 167.075208 
L 136.589188 169.592959 
L 140.221768 171.876236 
L 143.854348 173.954266 
L 148.697788 176.423529 
L 153.541228 178.58303 
L 158.384668 180.470552 
L 163.228108 182.119483 
L 168.071548 183.546919 
L 172.914988 184.797894 
L 180.180148 186.347927 
L 188.656168 187.760297 
L 194.710468 188.56313 
L 203.186488 189.438004 
L 211.662508 190.084396 
L 221.349388 190.605548 
L 233.457988 191.02042 
L 234.461953 191.045646 
L 234.461953 191.045646 
" clip-path="url(#pcf8011fcd4)" style="fill: none; stroke: #e5e419; stroke-width: 1.5; stroke-linecap: square"/>
   </g>
   <g id="line2d_61">
    <path d="M 46.985548 152.859421 
L 48.196408 94.823964 
L 49.407268 63.969447 
L 50.618128 46.695375 
L 51.828988 36.78802 
L 53.039848 31.340688 
L 54.250708 28.751667 
L 55.461568 27.826031 
L 56.672428 28.366225 
L 57.883288 29.806157 
L 59.094148 31.888078 
L 60.305008 34.437898 
L 62.726728 40.429167 
L 66.359308 50.567625 
L 74.835328 74.792331 
L 78.467908 84.470976 
L 82.100488 93.555816 
L 85.733068 102.043794 
L 89.365648 109.922705 
L 92.998228 117.238966 
L 96.630808 123.991413 
L 100.263388 130.211107 
L 103.895968 135.910791 
L 107.528548 141.146767 
L 111.161128 145.931333 
L 114.793708 150.289669 
L 118.426288 154.280949 
L 122.058868 157.924734 
L 125.691448 161.253279 
L 129.324027 164.289673 
L 132.956608 167.05492 
L 136.589188 169.574745 
L 140.221768 171.859889 
L 143.854348 173.939354 
L 148.697788 176.410274 
L 153.541228 178.571217 
L 158.384668 180.459943 
L 163.228108 182.109826 
L 168.071548 183.538299 
L 172.914988 184.789859 
L 180.180148 186.341167 
L 188.656168 187.754997 
L 194.710468 188.558585 
L 203.186488 189.434554 
L 211.662508 190.081853 
L 221.349388 190.603852 
L 233.457988 191.019459 
L 234.461953 191.044731 
L 234.461953 191.044731 
" clip-path="url(#pcf8011fcd4)" style="fill: none; stroke: #f1e51d; stroke-width: 1.5; stroke-linecap: square"/>
   </g>
   <g id="line2d_62">
    <path d="M 46.985548 191.506031 
L 54.250708 191.506031 
L 55.461568 188.059578 
L 59.094148 186.909594 
L 60.305008 186.658868 
L 69.991888 183.463263 
L 74.835328 181.378933 
L 78.467908 179.216082 
L 80.889628 177.471086 
L 83.311348 175.636496 
L 85.733068 173.519462 
L 88.154788 170.900454 
L 92.998228 165.284205 
L 96.630808 160.452161 
L 103.895968 150.43397 
L 107.528548 146.143551 
L 108.739408 144.523055 
L 109.950268 143.259722 
L 111.161128 142.500725 
L 113.582848 140.05714 
L 116.004568 138.78512 
L 117.215428 138.014111 
L 120.848008 137.083618 
L 123.269728 137.095491 
L 125.691448 137.48819 
L 128.113168 138.290944 
L 130.534888 139.454888 
L 132.956608 140.889081 
L 137.800048 144.512545 
L 141.432628 147.75066 
L 142.643488 148.766113 
L 143.854348 150.000107 
L 145.065208 151.062217 
L 146.276068 152.33228 
L 147.486928 153.38309 
L 148.697788 154.70783 
L 149.908648 155.724747 
L 151.119508 157.067891 
L 152.330368 158.156188 
L 154.752088 160.55375 
L 160.806388 166.2717 
L 162.017248 167.244496 
L 164.438968 169.419918 
L 165.649828 170.355779 
L 166.860688 171.482915 
L 168.071548 172.228969 
L 169.282408 173.282428 
L 170.493268 174.175466 
L 171.704128 174.886109 
L 172.914988 176.042335 
L 174.125848 176.634354 
L 175.336708 177.411637 
L 176.547568 178.339782 
L 177.758428 178.766275 
L 178.969288 179.645899 
L 180.180148 180.368815 
L 181.391008 180.717187 
L 182.601867 181.613483 
L 183.812728 182.170019 
L 185.023588 182.544746 
L 186.234448 183.245426 
L 193.499608 185.885634 
L 198.343048 187.180949 
L 205.608208 188.663979 
L 212.873368 189.641974 
L 220.138528 190.303233 
L 233.457988 190.973201 
L 234.461953 191.006757 
L 234.461953 191.006757 
" clip-path="url(#pcf8011fcd4)" style="fill: none; stroke-dasharray: 5.55,2.4; stroke-dashoffset: 0; stroke: #000000; stroke-width: 1.5"/>
   </g>
   <g id="patch_3">
    <path d="M 45.774688 191.506031 
L 45.774688 19.642031 
" style="fill: none; stroke: #000000; stroke-width: 0.8; stroke-linejoin: miter; stroke-linecap: square"/>
   </g>
   <g id="patch_4">
    <path d="M 218.754688 191.506031 
L 218.754688 19.642031 
" style="fill: none; stroke: #000000; stroke-width: 0.8; stroke-linejoin: miter; stroke-linecap: square"/>
   </g>
   <g id="patch_5">
    <path d="M 45.774688 191.506031 
L 218.754688 191.506031 
" style="fill: none; stroke: #000000; stroke-width: 0.8; stroke-linejoin: miter; stroke-linecap: square"/>
   </g>
   <g id="patch_6">
    <path d="M 45.774688 19.642031 
L 218.754688 19.642031 
" style="fill: none; stroke: #000000; stroke-width: 0.8; stroke-linejoin: miter; stroke-linecap: square"/>
   </g>
   <g id="text_14">
    <!-- N:10 -->
    <g transform="translate(122.759844 13.642031) scale(0.09 -0.09)">
     <defs>
      <path id="ArialMT-4e" d="M 488 0 
L 488 4581 
L 1109 4581 
L 3516 984 
L 3516 4581 
L 4097 4581 
L 4097 0 
L 3475 0 
L 1069 3600 
L 1069 0 
L 488 0 
z
" transform="scale(0.015625)"/>
      <path id="ArialMT-3a" d="M 578 2678 
L 578 3319 
L 1219 3319 
L 1219 2678 
L 578 2678 
z
M 578 0 
L 578 641 
L 1219 641 
L 1219 0 
L 578 0 
z
" transform="scale(0.015625)"/>
     </defs>
     <use xlink:href="#ArialMT-4e"/>
     <use xlink:href="#ArialMT-3a" transform="translate(72.216797 0)"/>
     <use xlink:href="#ArialMT-31" transform="translate(100 0)"/>
     <use xlink:href="#ArialMT-30" transform="translate(155.615234 0)"/>
    </g>
   </g>
  </g>
 </g>
 <defs>
  <clipPath id="pcf8011fcd4">
   <rect x="45.774688" y="19.642031" width="172.98" height="171.864"/>
  </clipPath>
 </defs>
</svg>
