<?xml version="1.0" encoding="utf-8" standalone="no"?>
<!DOCTYPE svg PUBLIC "-//W3C//DTD SVG 1.1//EN"
  "http://www.w3.org/Graphics/SVG/1.1/DTD/svg11.dtd">
<svg xmlns:xlink="http://www.w3.org/1999/xlink" width="407.115312pt" height="288.228675pt" viewBox="0 0 407.115312 288.228675" xmlns="http://www.w3.org/2000/svg" version="1.1">
 <metadata>
  <rdf:RDF xmlns:dc="http://purl.org/dc/elements/1.1/" xmlns:cc="http://creativecommons.org/ns#" xmlns:rdf="http://www.w3.org/1999/02/22-rdf-syntax-ns#">
   <cc:Work>
    <dc:type rdf:resource="http://purl.org/dc/dcmitype/StillImage"/>
    <dc:date>2025-09-22T17:04:46.122751</dc:date>
    <dc:format>image/svg+xml</dc:format>
    <dc:creator>
     <cc:Agent>
      <dc:title>Matplotlib v3.10.6, https://matplotlib.org/</dc:title>
     </cc:Agent>
    </dc:creator>
   </cc:Work>
  </rdf:RDF>
 </metadata>
 <defs>
  <style type="text/css">*{stroke-linejoin: round; stroke-linecap: butt}</style>
 </defs>
 <g id="figure_1">
  <g id="patch_1">
   <path d="M 0 288.228675 
L 407.115312 288.228675 
L 407.115312 0 
L 0 0 
L 0 288.228675 
z
" style="fill: none"/>
  </g>
  <g id="axes_1">
   <g id="patch_2">
    <path d="M 38.940781 188.506031 
L 384.900781 188.506031 
L 384.900781 16.642031 
L 38.940781 16.642031 
L 38.940781 188.506031 
z
" style="fill: none"/>
   </g>
   <g id="matplotlib.axis_1">
    <g id="xtick_1">
     <g id="line2d_1">
      <defs>
       <path id="md8b38c7dd1" d="M 0 0 
L 0 3.5 
" style="stroke: #000000; stroke-width: 0.8"/>
      </defs>
      <g>
       <use xlink:href="#md8b38c7dd1" x="38.940781" y="188.506031" style="stroke: #000000; stroke-width: 0.8"/>
      </g>
     </g>
     <g id="text_1">
      <!-- 0 -->
      <g transform="translate(36.438359 201.948062) scale(0.09 -0.09)">
       <defs>
        <path id="ArialMT-30" d="M 266 2259 
Q 266 3072 433 3567 
Q 600 4063 929 4331 
Q 1259 4600 1759 4600 
Q 2128 4600 2406 4451 
Q 2684 4303 2865 4023 
Q 3047 3744 3150 3342 
Q 3253 2941 3253 2259 
Q 3253 1453 3087 958 
Q 2922 463 2592 192 
Q 2263 -78 1759 -78 
Q 1097 -78 719 397 
Q 266 969 266 2259 
z
M 844 2259 
Q 844 1131 1108 757 
Q 1372 384 1759 384 
Q 2147 384 2411 759 
Q 2675 1134 2675 2259 
Q 2675 3391 2411 3762 
Q 2147 4134 1753 4134 
Q 1366 4134 1134 3806 
Q 844 3388 844 2259 
z
" transform="scale(0.015625)"/>
       </defs>
       <use xlink:href="#ArialMT-30"/>
      </g>
     </g>
    </g>
    <g id="xtick_2">
     <g id="line2d_2">
      <g>
       <use xlink:href="#md8b38c7dd1" x="96.600781" y="188.506031" style="stroke: #000000; stroke-width: 0.8"/>
      </g>
     </g>
     <g id="text_2">
      <!-- 50000 -->
      <g transform="translate(84.088672 201.948062) scale(0.09 -0.09)">
       <defs>
        <path id="ArialMT-35" d="M 266 1200 
L 856 1250 
Q 922 819 1161 601 
Q 1400 384 1738 384 
Q 2144 384 2425 690 
Q 2706 997 2706 1503 
Q 2706 1984 2436 2262 
Q 2166 2541 1728 2541 
Q 1456 2541 1237 2417 
Q 1019 2294 894 2097 
L 366 2166 
L 809 4519 
L 3088 4519 
L 3088 3981 
L 1259 3981 
L 1013 2750 
Q 1425 3038 1878 3038 
Q 2478 3038 2890 2622 
Q 3303 2206 3303 1553 
Q 3303 931 2941 478 
Q 2500 -78 1738 -78 
Q 1113 -78 717 272 
Q 322 622 266 1200 
z
" transform="scale(0.015625)"/>
       </defs>
       <use xlink:href="#ArialMT-35"/>
       <use xlink:href="#ArialMT-30" transform="translate(55.615234 0)"/>
       <use xlink:href="#ArialMT-30" transform="translate(111.230469 0)"/>
       <use xlink:href="#ArialMT-30" transform="translate(166.845703 0)"/>
       <use xlink:href="#ArialMT-30" transform="translate(222.460938 0)"/>
      </g>
     </g>
    </g>
    <g id="xtick_3">
     <g id="line2d_3">
      <g>
       <use xlink:href="#md8b38c7dd1" x="154.260781" y="188.506031" style="stroke: #000000; stroke-width: 0.8"/>
      </g>
     </g>
     <g id="text_3">
      <!-- 100000 -->
      <g transform="translate(139.24625 201.948062) scale(0.09 -0.09)">
       <defs>
        <path id="ArialMT-31" d="M 2384 0 
L 1822 0 
L 1822 3584 
Q 1619 3391 1289 3197 
Q 959 3003 697 2906 
L 697 3450 
Q 1169 3672 1522 3987 
Q 1875 4303 2022 4600 
L 2384 4600 
L 2384 0 
z
" transform="scale(0.015625)"/>
       </defs>
       <use xlink:href="#ArialMT-31"/>
       <use xlink:href="#ArialMT-30" transform="translate(55.615234 0)"/>
       <use xlink:href="#ArialMT-30" transform="translate(111.230469 0)"/>
       <use xlink:href="#ArialMT-30" transform="translate(166.845703 0)"/>
       <use xlink:href="#ArialMT-30" transform="translate(222.460938 0)"/>
       <use xlink:href="#ArialMT-30" transform="translate(278.076172 0)"/>
      </g>
     </g>
    </g>
    <g id="xtick_4">
     <g id="line2d_4">
      <g>
       <use xlink:href="#md8b38c7dd1" x="211.920781" y="188.506031" style="stroke: #000000; stroke-width: 0.8"/>
      </g>
     </g>
     <g id="text_4">
      <!-- 150000 -->
      <g transform="translate(196.90625 201.948062) scale(0.09 -0.09)">
       <use xlink:href="#ArialMT-31"/>
       <use xlink:href="#ArialMT-35" transform="translate(55.615234 0)"/>
       <use xlink:href="#ArialMT-30" transform="translate(111.230469 0)"/>
       <use xlink:href="#ArialMT-30" transform="translate(166.845703 0)"/>
       <use xlink:href="#ArialMT-30" transform="translate(222.460938 0)"/>
       <use xlink:href="#ArialMT-30" transform="translate(278.076172 0)"/>
      </g>
     </g>
    </g>
    <g id="xtick_5">
     <g id="line2d_5">
      <g>
       <use xlink:href="#md8b38c7dd1" x="269.580781" y="188.506031" style="stroke: #000000; stroke-width: 0.8"/>
      </g>
     </g>
     <g id="text_5">
      <!-- 200000 -->
      <g transform="translate(254.56625 201.948062) scale(0.09 -0.09)">
       <defs>
        <path id="ArialMT-32" d="M 3222 541 
L 3222 0 
L 194 0 
Q 188 203 259 391 
Q 375 700 629 1000 
Q 884 1300 1366 1694 
Q 2113 2306 2375 2664 
Q 2638 3022 2638 3341 
Q 2638 3675 2398 3904 
Q 2159 4134 1775 4134 
Q 1369 4134 1125 3890 
Q 881 3647 878 3216 
L 300 3275 
Q 359 3922 746 4261 
Q 1134 4600 1788 4600 
Q 2447 4600 2831 4234 
Q 3216 3869 3216 3328 
Q 3216 3053 3103 2787 
Q 2991 2522 2730 2228 
Q 2469 1934 1863 1422 
Q 1356 997 1212 845 
Q 1069 694 975 541 
L 3222 541 
z
" transform="scale(0.015625)"/>
       </defs>
       <use xlink:href="#ArialMT-32"/>
       <use xlink:href="#ArialMT-30" transform="translate(55.615234 0)"/>
       <use xlink:href="#ArialMT-30" transform="translate(111.230469 0)"/>
       <use xlink:href="#ArialMT-30" transform="translate(166.845703 0)"/>
       <use xlink:href="#ArialMT-30" transform="translate(222.460938 0)"/>
       <use xlink:href="#ArialMT-30" transform="translate(278.076172 0)"/>
      </g>
     </g>
    </g>
    <g id="xtick_6">
     <g id="line2d_6">
      <g>
       <use xlink:href="#md8b38c7dd1" x="327.240781" y="188.506031" style="stroke: #000000; stroke-width: 0.8"/>
      </g>
     </g>
     <g id="text_6">
      <!-- 250000 -->
      <g transform="translate(312.22625 201.948062) scale(0.09 -0.09)">
       <use xlink:href="#ArialMT-32"/>
       <use xlink:href="#ArialMT-35" transform="translate(55.615234 0)"/>
       <use xlink:href="#ArialMT-30" transform="translate(111.230469 0)"/>
       <use xlink:href="#ArialMT-30" transform="translate(166.845703 0)"/>
       <use xlink:href="#ArialMT-30" transform="translate(222.460938 0)"/>
       <use xlink:href="#ArialMT-30" transform="translate(278.076172 0)"/>
      </g>
     </g>
    </g>
    <g id="xtick_7">
     <g id="line2d_7">
      <g>
       <use xlink:href="#md8b38c7dd1" x="384.900781" y="188.506031" style="stroke: #000000; stroke-width: 0.8"/>
      </g>
     </g>
     <g id="text_7">
      <!-- 300000 -->
      <g transform="translate(369.88625 201.948062) scale(0.09 -0.09)">
       <defs>
        <path id="ArialMT-33" d="M 269 1209 
L 831 1284 
Q 928 806 1161 595 
Q 1394 384 1728 384 
Q 2125 384 2398 659 
Q 2672 934 2672 1341 
Q 2672 1728 2419 1979 
Q 2166 2231 1775 2231 
Q 1616 2231 1378 2169 
L 1441 2663 
Q 1497 2656 1531 2656 
Q 1891 2656 2178 2843 
Q 2466 3031 2466 3422 
Q 2466 3731 2256 3934 
Q 2047 4138 1716 4138 
Q 1388 4138 1169 3931 
Q 950 3725 888 3313 
L 325 3413 
Q 428 3978 793 4289 
Q 1159 4600 1703 4600 
Q 2078 4600 2393 4439 
Q 2709 4278 2876 4000 
Q 3044 3722 3044 3409 
Q 3044 3113 2884 2869 
Q 2725 2625 2413 2481 
Q 2819 2388 3044 2092 
Q 3269 1797 3269 1353 
Q 3269 753 2831 336 
Q 2394 -81 1725 -81 
Q 1122 -81 723 278 
Q 325 638 269 1209 
z
" transform="scale(0.015625)"/>
       </defs>
       <use xlink:href="#ArialMT-33"/>
       <use xlink:href="#ArialMT-30" transform="translate(55.615234 0)"/>
       <use xlink:href="#ArialMT-30" transform="translate(111.230469 0)"/>
       <use xlink:href="#ArialMT-30" transform="translate(166.845703 0)"/>
       <use xlink:href="#ArialMT-30" transform="translate(222.460938 0)"/>
       <use xlink:href="#ArialMT-30" transform="translate(278.076172 0)"/>
      </g>
     </g>
    </g>
    <g id="text_8">
     <!-- $\bf{Molar\ mass}\ \it{(g/mol)}$ -->
     <g transform="translate(165.255781 214.576812) scale(0.09 -0.09)">
      <defs>
       <path id="DejaVuSans-Bold-4d" d="M 588 4666 
L 2119 4666 
L 3181 2169 
L 4250 4666 
L 5778 4666 
L 5778 0 
L 4641 0 
L 4641 3413 
L 3566 897 
L 2803 897 
L 1728 3413 
L 1728 0 
L 588 0 
L 588 4666 
z
" transform="scale(0.015625)"/>
       <path id="DejaVuSans-Bold-6f" d="M 2203 2784 
Q 1831 2784 1636 2517 
Q 1441 2250 1441 1747 
Q 1441 1244 1636 976 
Q 1831 709 2203 709 
Q 2569 709 2762 976 
Q 2956 1244 2956 1747 
Q 2956 2250 2762 2517 
Q 2569 2784 2203 2784 
z
M 2203 3584 
Q 3106 3584 3614 3096 
Q 4122 2609 4122 1747 
Q 4122 884 3614 396 
Q 3106 -91 2203 -91 
Q 1297 -91 786 396 
Q 275 884 275 1747 
Q 275 2609 786 3096 
Q 1297 3584 2203 3584 
z
" transform="scale(0.015625)"/>
       <path id="DejaVuSans-Bold-6c" d="M 538 4863 
L 1656 4863 
L 1656 0 
L 538 0 
L 538 4863 
z
" transform="scale(0.015625)"/>
       <path id="DejaVuSans-Bold-61" d="M 2106 1575 
Q 1756 1575 1579 1456 
Q 1403 1338 1403 1106 
Q 1403 894 1545 773 
Q 1688 653 1941 653 
Q 2256 653 2472 879 
Q 2688 1106 2688 1447 
L 2688 1575 
L 2106 1575 
z
M 3816 1997 
L 3816 0 
L 2688 0 
L 2688 519 
Q 2463 200 2181 54 
Q 1900 -91 1497 -91 
Q 953 -91 614 226 
Q 275 544 275 1050 
Q 275 1666 698 1953 
Q 1122 2241 2028 2241 
L 2688 2241 
L 2688 2328 
Q 2688 2594 2478 2717 
Q 2269 2841 1825 2841 
Q 1466 2841 1156 2769 
Q 847 2697 581 2553 
L 581 3406 
Q 941 3494 1303 3539 
Q 1666 3584 2028 3584 
Q 2975 3584 3395 3211 
Q 3816 2838 3816 1997 
z
" transform="scale(0.015625)"/>
       <path id="DejaVuSans-Bold-72" d="M 3138 2547 
Q 2991 2616 2845 2648 
Q 2700 2681 2553 2681 
Q 2122 2681 1889 2404 
Q 1656 2128 1656 1613 
L 1656 0 
L 538 0 
L 538 3500 
L 1656 3500 
L 1656 2925 
Q 1872 3269 2151 3426 
Q 2431 3584 2822 3584 
Q 2878 3584 2943 3579 
Q 3009 3575 3134 3559 
L 3138 2547 
z
" transform="scale(0.015625)"/>
       <path id="DejaVuSans-Bold-6d" d="M 3781 2919 
Q 3994 3244 4286 3414 
Q 4578 3584 4928 3584 
Q 5531 3584 5847 3212 
Q 6163 2841 6163 2131 
L 6163 0 
L 5038 0 
L 5038 1825 
Q 5041 1866 5042 1909 
Q 5044 1953 5044 2034 
Q 5044 2406 4934 2573 
Q 4825 2741 4581 2741 
Q 4263 2741 4089 2478 
Q 3916 2216 3909 1719 
L 3909 0 
L 2784 0 
L 2784 1825 
Q 2784 2406 2684 2573 
Q 2584 2741 2328 2741 
Q 2006 2741 1831 2477 
Q 1656 2213 1656 1722 
L 1656 0 
L 531 0 
L 531 3500 
L 1656 3500 
L 1656 2988 
Q 1863 3284 2130 3434 
Q 2397 3584 2719 3584 
Q 3081 3584 3359 3409 
Q 3638 3234 3781 2919 
z
" transform="scale(0.015625)"/>
       <path id="DejaVuSans-Bold-73" d="M 3272 3391 
L 3272 2541 
Q 2913 2691 2578 2766 
Q 2244 2841 1947 2841 
Q 1628 2841 1473 2761 
Q 1319 2681 1319 2516 
Q 1319 2381 1436 2309 
Q 1553 2238 1856 2203 
L 2053 2175 
Q 2913 2066 3209 1816 
Q 3506 1566 3506 1031 
Q 3506 472 3093 190 
Q 2681 -91 1863 -91 
Q 1516 -91 1145 -36 
Q 775 19 384 128 
L 384 978 
Q 719 816 1070 734 
Q 1422 653 1784 653 
Q 2113 653 2278 743 
Q 2444 834 2444 1013 
Q 2444 1163 2330 1236 
Q 2216 1309 1875 1350 
L 1678 1375 
Q 931 1469 631 1722 
Q 331 1975 331 2491 
Q 331 3047 712 3315 
Q 1094 3584 1881 3584 
Q 2191 3584 2531 3537 
Q 2872 3491 3272 3391 
z
" transform="scale(0.015625)"/>
       <path id="DejaVuSans-28" d="M 1984 4856 
Q 1566 4138 1362 3434 
Q 1159 2731 1159 2009 
Q 1159 1288 1364 580 
Q 1569 -128 1984 -844 
L 1484 -844 
Q 1016 -109 783 600 
Q 550 1309 550 2009 
Q 550 2706 781 3412 
Q 1013 4119 1484 4856 
L 1984 4856 
z
" transform="scale(0.015625)"/>
       <path id="DejaVuSans-Oblique-67" d="M 3816 3500 
L 3219 434 
Q 3047 -456 2561 -893 
Q 2075 -1331 1253 -1331 
Q 950 -1331 690 -1286 
Q 431 -1241 206 -1147 
L 313 -588 
Q 525 -725 762 -790 
Q 1000 -856 1269 -856 
Q 1816 -856 2167 -557 
Q 2519 -259 2631 300 
L 2681 563 
Q 2441 288 2122 144 
Q 1803 0 1434 0 
Q 903 0 598 351 
Q 294 703 294 1319 
Q 294 1803 478 2267 
Q 663 2731 997 3091 
Q 1219 3328 1514 3456 
Q 1809 3584 2131 3584 
Q 2484 3584 2746 3420 
Q 3009 3256 3138 2956 
L 3238 3500 
L 3816 3500 
z
M 2950 2216 
Q 2950 2641 2750 2872 
Q 2550 3103 2181 3103 
Q 1953 3103 1747 3012 
Q 1541 2922 1394 2759 
Q 1156 2491 1023 2127 
Q 891 1763 891 1375 
Q 891 944 1092 712 
Q 1294 481 1672 481 
Q 2219 481 2584 976 
Q 2950 1472 2950 2216 
z
" transform="scale(0.015625)"/>
       <path id="DejaVuSans-2f" d="M 1625 4666 
L 2156 4666 
L 531 -594 
L 0 -594 
L 1625 4666 
z
" transform="scale(0.015625)"/>
       <path id="DejaVuSans-Oblique-6d" d="M 5747 2113 
L 5338 0 
L 4763 0 
L 5166 2094 
Q 5191 2228 5203 2325 
Q 5216 2422 5216 2491 
Q 5216 2772 5059 2928 
Q 4903 3084 4622 3084 
Q 4203 3084 3875 2770 
Q 3547 2456 3450 1953 
L 3066 0 
L 2491 0 
L 2900 2094 
Q 2925 2209 2937 2307 
Q 2950 2406 2950 2484 
Q 2950 2769 2794 2926 
Q 2638 3084 2363 3084 
Q 1938 3084 1609 2770 
Q 1281 2456 1184 1953 
L 800 0 
L 225 0 
L 909 3500 
L 1484 3500 
L 1375 2956 
Q 1609 3263 1923 3423 
Q 2238 3584 2597 3584 
Q 2978 3584 3223 3384 
Q 3469 3184 3519 2828 
Q 3781 3197 4126 3390 
Q 4472 3584 4856 3584 
Q 5306 3584 5551 3325 
Q 5797 3066 5797 2591 
Q 5797 2488 5784 2364 
Q 5772 2241 5747 2113 
z
" transform="scale(0.015625)"/>
       <path id="DejaVuSans-Oblique-6f" d="M 1625 -91 
Q 1009 -91 651 289 
Q 294 669 294 1325 
Q 294 1706 417 2101 
Q 541 2497 738 2766 
Q 1047 3184 1428 3384 
Q 1809 3584 2291 3584 
Q 2888 3584 3255 3212 
Q 3622 2841 3622 2241 
Q 3622 1825 3500 1412 
Q 3378 1000 3181 728 
Q 2875 309 2494 109 
Q 2113 -91 1625 -91 
z
M 891 1344 
Q 891 869 1089 633 
Q 1288 397 1691 397 
Q 2269 397 2648 901 
Q 3028 1406 3028 2181 
Q 3028 2634 2825 2865 
Q 2622 3097 2228 3097 
Q 1903 3097 1650 2945 
Q 1397 2794 1197 2484 
Q 1050 2253 970 1956 
Q 891 1659 891 1344 
z
" transform="scale(0.015625)"/>
       <path id="DejaVuSans-Oblique-6c" d="M 1172 4863 
L 1747 4863 
L 800 0 
L 225 0 
L 1172 4863 
z
" transform="scale(0.015625)"/>
       <path id="DejaVuSans-29" d="M 513 4856 
L 1013 4856 
Q 1481 4119 1714 3412 
Q 1947 2706 1947 2009 
Q 1947 1309 1714 600 
Q 1481 -109 1013 -844 
L 513 -844 
Q 928 -128 1133 580 
Q 1338 1288 1338 2009 
Q 1338 2731 1133 3434 
Q 928 4138 513 4856 
z
" transform="scale(0.015625)"/>
      </defs>
      <use xlink:href="#DejaVuSans-Bold-4d" transform="translate(0 0.015625)"/>
      <use xlink:href="#DejaVuSans-Bold-6f" transform="translate(99.511719 0.015625)"/>
      <use xlink:href="#DejaVuSans-Bold-6c" transform="translate(168.212891 0.015625)"/>
      <use xlink:href="#DejaVuSans-Bold-61" transform="translate(202.490234 0.015625)"/>
      <use xlink:href="#DejaVuSans-Bold-72" transform="translate(269.970703 0.015625)"/>
      <use xlink:href="#DejaVuSans-Bold-6d" transform="translate(351.757488 0.015625)"/>
      <use xlink:href="#DejaVuSans-Bold-61" transform="translate(455.956707 0.015625)"/>
      <use xlink:href="#DejaVuSans-Bold-73" transform="translate(523.437175 0.015625)"/>
      <use xlink:href="#DejaVuSans-Bold-73" transform="translate(582.95866 0.015625)"/>
      <use xlink:href="#DejaVuSans-28" transform="translate(674.950522 0.015625)"/>
      <use xlink:href="#DejaVuSans-Oblique-67" transform="translate(713.964194 0.015625)"/>
      <use xlink:href="#DejaVuSans-2f" transform="translate(777.440757 0.015625)"/>
      <use xlink:href="#DejaVuSans-Oblique-6d" transform="translate(811.132163 0.015625)"/>
      <use xlink:href="#DejaVuSans-Oblique-6f" transform="translate(908.544272 0.015625)"/>
      <use xlink:href="#DejaVuSans-Oblique-6c" transform="translate(969.725913 0.015625)"/>
      <use xlink:href="#DejaVuSans-29" transform="translate(997.509116 0.015625)"/>
     </g>
    </g>
   </g>
   <g id="matplotlib.axis_2">
    <g id="ytick_1">
     <g id="line2d_8">
      <defs>
       <path id="m9158f71ce2" d="M 0 0 
L -3.5 0 
" style="stroke: #000000; stroke-width: 0.8"/>
      </defs>
      <g>
       <use xlink:href="#m9158f71ce2" x="38.940781" y="188.506031" style="stroke: #000000; stroke-width: 0.8"/>
      </g>
     </g>
     <g id="text_9">
      <!-- 0.0 -->
      <g transform="translate(19.430781 191.727047) scale(0.09 -0.09)">
       <defs>
        <path id="ArialMT-2e" d="M 581 0 
L 581 641 
L 1222 641 
L 1222 0 
L 581 0 
z
" transform="scale(0.015625)"/>
       </defs>
       <use xlink:href="#ArialMT-30"/>
       <use xlink:href="#ArialMT-2e" transform="translate(55.615234 0)"/>
       <use xlink:href="#ArialMT-30" transform="translate(83.398438 0)"/>
      </g>
     </g>
    </g>
    <g id="ytick_2">
     <g id="line2d_9">
      <g>
       <use xlink:href="#m9158f71ce2" x="38.940781" y="166.900954" style="stroke: #000000; stroke-width: 0.8"/>
      </g>
     </g>
     <g id="text_10">
      <!-- 0.2 -->
      <g transform="translate(19.430781 170.121969) scale(0.09 -0.09)">
       <use xlink:href="#ArialMT-30"/>
       <use xlink:href="#ArialMT-2e" transform="translate(55.615234 0)"/>
       <use xlink:href="#ArialMT-32" transform="translate(83.398438 0)"/>
      </g>
     </g>
    </g>
    <g id="ytick_3">
     <g id="line2d_10">
      <g>
       <use xlink:href="#m9158f71ce2" x="38.940781" y="145.295876" style="stroke: #000000; stroke-width: 0.8"/>
      </g>
     </g>
     <g id="text_11">
      <!-- 0.4 -->
      <g transform="translate(19.430781 148.516892) scale(0.09 -0.09)">
       <defs>
        <path id="ArialMT-34" d="M 2069 0 
L 2069 1097 
L 81 1097 
L 81 1613 
L 2172 4581 
L 2631 4581 
L 2631 1613 
L 3250 1613 
L 3250 1097 
L 2631 1097 
L 2631 0 
L 2069 0 
z
M 2069 1613 
L 2069 3678 
L 634 1613 
L 2069 1613 
z
" transform="scale(0.015625)"/>
       </defs>
       <use xlink:href="#ArialMT-30"/>
       <use xlink:href="#ArialMT-2e" transform="translate(55.615234 0)"/>
       <use xlink:href="#ArialMT-34" transform="translate(83.398438 0)"/>
      </g>
     </g>
    </g>
    <g id="ytick_4">
     <g id="line2d_11">
      <g>
       <use xlink:href="#m9158f71ce2" x="38.940781" y="123.690799" style="stroke: #000000; stroke-width: 0.8"/>
      </g>
     </g>
     <g id="text_12">
      <!-- 0.6 -->
      <g transform="translate(19.430781 126.911815) scale(0.09 -0.09)">
       <defs>
        <path id="ArialMT-36" d="M 3184 3459 
L 2625 3416 
Q 2550 3747 2413 3897 
Q 2184 4138 1850 4138 
Q 1581 4138 1378 3988 
Q 1113 3794 959 3422 
Q 806 3050 800 2363 
Q 1003 2672 1297 2822 
Q 1591 2972 1913 2972 
Q 2475 2972 2870 2558 
Q 3266 2144 3266 1488 
Q 3266 1056 3080 686 
Q 2894 316 2569 119 
Q 2244 -78 1831 -78 
Q 1128 -78 684 439 
Q 241 956 241 2144 
Q 241 3472 731 4075 
Q 1159 4600 1884 4600 
Q 2425 4600 2770 4297 
Q 3116 3994 3184 3459 
z
M 888 1484 
Q 888 1194 1011 928 
Q 1134 663 1356 523 
Q 1578 384 1822 384 
Q 2178 384 2434 671 
Q 2691 959 2691 1453 
Q 2691 1928 2437 2201 
Q 2184 2475 1800 2475 
Q 1419 2475 1153 2201 
Q 888 1928 888 1484 
z
" transform="scale(0.015625)"/>
       </defs>
       <use xlink:href="#ArialMT-30"/>
       <use xlink:href="#ArialMT-2e" transform="translate(55.615234 0)"/>
       <use xlink:href="#ArialMT-36" transform="translate(83.398438 0)"/>
      </g>
     </g>
    </g>
    <g id="ytick_5">
     <g id="line2d_12">
      <g>
       <use xlink:href="#m9158f71ce2" x="38.940781" y="102.085722" style="stroke: #000000; stroke-width: 0.8"/>
      </g>
     </g>
     <g id="text_13">
      <!-- 0.8 -->
      <g transform="translate(19.430781 105.306737) scale(0.09 -0.09)">
       <defs>
        <path id="ArialMT-38" d="M 1131 2484 
Q 781 2613 612 2850 
Q 444 3088 444 3419 
Q 444 3919 803 4259 
Q 1163 4600 1759 4600 
Q 2359 4600 2725 4251 
Q 3091 3903 3091 3403 
Q 3091 3084 2923 2848 
Q 2756 2613 2416 2484 
Q 2838 2347 3058 2040 
Q 3278 1734 3278 1309 
Q 3278 722 2862 322 
Q 2447 -78 1769 -78 
Q 1091 -78 675 323 
Q 259 725 259 1325 
Q 259 1772 486 2073 
Q 713 2375 1131 2484 
z
M 1019 3438 
Q 1019 3113 1228 2906 
Q 1438 2700 1772 2700 
Q 2097 2700 2305 2904 
Q 2513 3109 2513 3406 
Q 2513 3716 2298 3927 
Q 2084 4138 1766 4138 
Q 1444 4138 1231 3931 
Q 1019 3725 1019 3438 
z
M 838 1322 
Q 838 1081 952 856 
Q 1066 631 1291 507 
Q 1516 384 1775 384 
Q 2178 384 2440 643 
Q 2703 903 2703 1303 
Q 2703 1709 2433 1975 
Q 2163 2241 1756 2241 
Q 1359 2241 1098 1978 
Q 838 1716 838 1322 
z
" transform="scale(0.015625)"/>
       </defs>
       <use xlink:href="#ArialMT-30"/>
       <use xlink:href="#ArialMT-2e" transform="translate(55.615234 0)"/>
       <use xlink:href="#ArialMT-38" transform="translate(83.398438 0)"/>
      </g>
     </g>
    </g>
    <g id="ytick_6">
     <g id="line2d_13">
      <g>
       <use xlink:href="#m9158f71ce2" x="38.940781" y="80.480644" style="stroke: #000000; stroke-width: 0.8"/>
      </g>
     </g>
     <g id="text_14">
      <!-- 1.0 -->
      <g transform="translate(19.430781 83.70166) scale(0.09 -0.09)">
       <use xlink:href="#ArialMT-31"/>
       <use xlink:href="#ArialMT-2e" transform="translate(55.615234 0)"/>
       <use xlink:href="#ArialMT-30" transform="translate(83.398438 0)"/>
      </g>
     </g>
    </g>
    <g id="ytick_7">
     <g id="line2d_14">
      <g>
       <use xlink:href="#m9158f71ce2" x="38.940781" y="58.875567" style="stroke: #000000; stroke-width: 0.8"/>
      </g>
     </g>
     <g id="text_15">
      <!-- 1.2 -->
      <g transform="translate(19.430781 62.096583) scale(0.09 -0.09)">
       <use xlink:href="#ArialMT-31"/>
       <use xlink:href="#ArialMT-2e" transform="translate(55.615234 0)"/>
       <use xlink:href="#ArialMT-32" transform="translate(83.398438 0)"/>
      </g>
     </g>
    </g>
    <g id="ytick_8">
     <g id="line2d_15">
      <g>
       <use xlink:href="#m9158f71ce2" x="38.940781" y="37.27049" style="stroke: #000000; stroke-width: 0.8"/>
      </g>
     </g>
     <g id="text_16">
      <!-- 1.4 -->
      <g transform="translate(19.430781 40.491505) scale(0.09 -0.09)">
       <use xlink:href="#ArialMT-31"/>
       <use xlink:href="#ArialMT-2e" transform="translate(55.615234 0)"/>
       <use xlink:href="#ArialMT-34" transform="translate(83.398438 0)"/>
      </g>
     </g>
    </g>
    <g id="text_17">
     <!-- $\bf{nr.\ of\ chains}\ \it{(-)}$ -->
     <g transform="translate(13.642031 143.659031) rotate(-90) scale(0.09 -0.09)">
      <defs>
       <path id="DejaVuSans-Bold-6e" d="M 4056 2131 
L 4056 0 
L 2931 0 
L 2931 347 
L 2931 1631 
Q 2931 2084 2911 2256 
Q 2891 2428 2841 2509 
Q 2775 2619 2662 2680 
Q 2550 2741 2406 2741 
Q 2056 2741 1856 2470 
Q 1656 2200 1656 1722 
L 1656 0 
L 538 0 
L 538 3500 
L 1656 3500 
L 1656 2988 
Q 1909 3294 2193 3439 
Q 2478 3584 2822 3584 
Q 3428 3584 3742 3212 
Q 4056 2841 4056 2131 
z
" transform="scale(0.015625)"/>
       <path id="DejaVuSans-Bold-2e" d="M 653 1209 
L 1778 1209 
L 1778 0 
L 653 0 
L 653 1209 
z
" transform="scale(0.015625)"/>
       <path id="DejaVuSans-Bold-66" d="M 2841 4863 
L 2841 4128 
L 2222 4128 
Q 1984 4128 1890 4042 
Q 1797 3956 1797 3744 
L 1797 3500 
L 2753 3500 
L 2753 2700 
L 1797 2700 
L 1797 0 
L 678 0 
L 678 2700 
L 122 2700 
L 122 3500 
L 678 3500 
L 678 3744 
Q 678 4316 997 4589 
Q 1316 4863 1984 4863 
L 2841 4863 
z
" transform="scale(0.015625)"/>
       <path id="DejaVuSans-Bold-63" d="M 3366 3391 
L 3366 2478 
Q 3138 2634 2908 2709 
Q 2678 2784 2431 2784 
Q 1963 2784 1702 2511 
Q 1441 2238 1441 1747 
Q 1441 1256 1702 982 
Q 1963 709 2431 709 
Q 2694 709 2930 787 
Q 3166 866 3366 1019 
L 3366 103 
Q 3103 6 2833 -42 
Q 2563 -91 2291 -91 
Q 1344 -91 809 395 
Q 275 881 275 1747 
Q 275 2613 809 3098 
Q 1344 3584 2291 3584 
Q 2566 3584 2833 3536 
Q 3100 3488 3366 3391 
z
" transform="scale(0.015625)"/>
       <path id="DejaVuSans-Bold-68" d="M 4056 2131 
L 4056 0 
L 2931 0 
L 2931 347 
L 2931 1625 
Q 2931 2084 2911 2256 
Q 2891 2428 2841 2509 
Q 2775 2619 2662 2680 
Q 2550 2741 2406 2741 
Q 2056 2741 1856 2470 
Q 1656 2200 1656 1722 
L 1656 0 
L 538 0 
L 538 4863 
L 1656 4863 
L 1656 2988 
Q 1909 3294 2193 3439 
Q 2478 3584 2822 3584 
Q 3428 3584 3742 3212 
Q 4056 2841 4056 2131 
z
" transform="scale(0.015625)"/>
       <path id="DejaVuSans-Bold-69" d="M 538 3500 
L 1656 3500 
L 1656 0 
L 538 0 
L 538 3500 
z
M 538 4863 
L 1656 4863 
L 1656 3950 
L 538 3950 
L 538 4863 
z
" transform="scale(0.015625)"/>
       <path id="DejaVuSans-2212" d="M 678 2272 
L 4684 2272 
L 4684 1741 
L 678 1741 
L 678 2272 
z
" transform="scale(0.015625)"/>
      </defs>
      <use xlink:href="#DejaVuSans-Bold-6e" transform="translate(0 0.015625)"/>
      <use xlink:href="#DejaVuSans-Bold-72" transform="translate(71.191406 0.015625)"/>
      <use xlink:href="#DejaVuSans-Bold-2e" transform="translate(120.507812 0.015625)"/>
      <use xlink:href="#DejaVuSans-Bold-6f" transform="translate(210.448894 0.015625)"/>
      <use xlink:href="#DejaVuSans-Bold-66" transform="translate(279.150066 0.015625)"/>
      <use xlink:href="#DejaVuSans-Bold-63" transform="translate(355.126304 0.015625)"/>
      <use xlink:href="#DejaVuSans-Bold-68" transform="translate(414.403647 0.015625)"/>
      <use xlink:href="#DejaVuSans-Bold-61" transform="translate(485.595054 0.015625)"/>
      <use xlink:href="#DejaVuSans-Bold-69" transform="translate(553.075522 0.015625)"/>
      <use xlink:href="#DejaVuSans-Bold-6e" transform="translate(587.352866 0.015625)"/>
      <use xlink:href="#DejaVuSans-Bold-73" transform="translate(658.544272 0.015625)"/>
      <use xlink:href="#DejaVuSans-28" transform="translate(750.536135 0.015625)"/>
      <use xlink:href="#DejaVuSans-2212" transform="translate(789.549807 0.015625)"/>
      <use xlink:href="#DejaVuSans-29" transform="translate(873.33887 0.015625)"/>
     </g>
    </g>
    <g id="text_18">
     <!-- 1e17 -->
     <g transform="translate(38.940781 13.642031) scale(0.09 -0.09)">
      <defs>
       <path id="ArialMT-65" d="M 2694 1069 
L 3275 997 
Q 3138 488 2766 206 
Q 2394 -75 1816 -75 
Q 1088 -75 661 373 
Q 234 822 234 1631 
Q 234 2469 665 2931 
Q 1097 3394 1784 3394 
Q 2450 3394 2872 2941 
Q 3294 2488 3294 1666 
Q 3294 1616 3291 1516 
L 816 1516 
Q 847 969 1125 678 
Q 1403 388 1819 388 
Q 2128 388 2347 550 
Q 2566 713 2694 1069 
z
M 847 1978 
L 2700 1978 
Q 2663 2397 2488 2606 
Q 2219 2931 1791 2931 
Q 1403 2931 1139 2672 
Q 875 2413 847 1978 
z
" transform="scale(0.015625)"/>
       <path id="ArialMT-37" d="M 303 3981 
L 303 4522 
L 3269 4522 
L 3269 4084 
Q 2831 3619 2401 2847 
Q 1972 2075 1738 1259 
Q 1569 684 1522 0 
L 944 0 
Q 953 541 1156 1306 
Q 1359 2072 1739 2783 
Q 2119 3494 2547 3981 
L 303 3981 
z
" transform="scale(0.015625)"/>
      </defs>
      <use xlink:href="#ArialMT-31"/>
      <use xlink:href="#ArialMT-65" transform="translate(55.615234 0)"/>
      <use xlink:href="#ArialMT-31" transform="translate(111.230469 0)"/>
      <use xlink:href="#ArialMT-37" transform="translate(166.845703 0)"/>
     </g>
    </g>
   </g>
   <g id="line2d_16">
    <path d="M 93.232053 188.506031 
L 123.083212 187.278411 
L 128.518244 186.845615 
L 131.946246 186.575331 
L 137.953841 185.924392 
L 140.464127 185.618918 
L 144.349373 185.171031 
L 145.677168 184.909649 
L 147.021799 184.776704 
L 148.383267 184.482301 
L 149.761917 184.32932 
L 151.157981 184.015583 
L 152.571574 183.871065 
L 154.003041 183.505191 
L 155.452037 183.325837 
L 156.92006 182.915864 
L 158.406535 182.712822 
L 159.911461 182.284323 
L 161.434838 182.097365 
L 162.97782 181.612207 
L 164.540406 181.384599 
L 166.122596 180.844508 
L 167.725544 180.589437 
L 169.346944 180.03795 
L 170.990254 179.807219 
L 172.653168 179.167783 
L 174.337993 178.898877 
L 176.043576 178.250836 
L 177.77107 177.964895 
L 179.519321 177.309038 
L 181.290636 177.057644 
L 183.083862 176.31211 
L 184.900152 176.02875 
L 186.738353 175.309065 
L 188.599618 175.019947 
L 190.4851 174.309735 
L 192.394799 174.073136 
L 194.327562 173.306473 
L 196.284542 173.054547 
L 198.266893 172.351072 
L 200.274614 172.112821 
L 202.306553 171.464482 
L 204.363862 171.299054 
L 206.447694 170.646326 
L 208.55805 170.490822 
L 210.69493 169.946712 
L 212.858333 169.828587 
L 215.049413 169.383013 
L 217.26817 169.345003 
L 219.514603 168.948819 
L 221.788714 168.940401 
L 224.092807 168.677562 
L 226.424578 168.713822 
L 228.786331 168.55684 
L 231.178068 168.664281 
L 233.599788 168.609391 
L 246.173128 169.388019 
L 254.103684 170.24138 
L 262.338685 171.271315 
L 265.152493 171.754738 
L 268.00205 172.090476 
L 270.887357 172.623105 
L 273.809566 172.98446 
L 276.768677 173.566785 
L 279.76469 173.910008 
L 282.797606 174.527569 
L 285.869731 174.88726 
L 288.979912 175.535634 
L 292.130454 175.902083 
L 295.320205 176.538528 
L 298.549165 176.869867 
L 301.81964 177.535011 
L 305.131631 177.87764 
L 308.483983 178.545846 
L 311.880157 178.883068 
L 315.317846 179.509601 
L 318.799357 179.802941 
L 322.32469 180.439185 
L 325.894997 180.734665 
L 329.510279 181.350699 
L 333.170536 181.635361 
L 336.87692 182.197188 
L 340.629433 182.43611 
L 344.43038 182.987829 
L 348.278609 183.223035 
L 352.175272 183.741033 
L 356.121522 183.961635 
L 360.116207 184.419009 
L 364.162786 184.599953 
L 368.260105 185.047552 
L 372.408166 185.215674 
L 376.609273 185.601105 
L 380.862275 185.755019 
L 380.862275 185.755019 
" clip-path="url(#pfd4add3b97)" style="fill: none; stroke: #3b0f70; stroke-width: 1.5; stroke-linecap: square"/>
   </g>
   <g id="line2d_17">
    <path d="M 40.358306 176.647669 
L 40.853652 167.448346 
L 42.376948 148.278997 
L 44.18249 136.827365 
L 44.254381 136.703026 
L 44.866177 134.001724 
L 44.947443 133.951476 
L 45.370817 132.554776 
L 46.11116 130.597316 
L 46.309199 130.320061 
L 46.410254 130.183456 
L 46.512704 129.793739 
L 46.61655 129.858152 
L 47.046405 129.211169 
L 47.157573 129.22011 
L 47.500328 128.724096 
L 47.736734 128.755604 
L 48.616764 128.402466 
L 49.158629 128.500564 
L 49.298766 128.267754 
L 49.440829 128.495302 
L 50.028845 128.506542 
L 50.335078 128.678454 
L 50.491348 128.762448 
L 50.649797 128.654247 
L 50.973155 128.845764 
L 52.358609 129.39909 
L 52.918257 129.743123 
L 53.109919 129.768937 
L 53.304349 130.012584 
L 53.501315 130.028859 
L 54.741351 130.880005 
L 54.958037 130.898414 
L 55.400405 131.385364 
L 58.323421 134.146865 
L 59.131929 135.134297 
L 59.689617 135.78209 
L 61.456781 138.019707 
L 70.592085 150.250802 
L 73.758772 154.002679 
L 76.212897 156.703757 
L 82.831919 162.834743 
L 85.925609 165.269044 
L 91.33527 168.897106 
L 93.520815 170.089021 
L 95.797577 171.289114 
L 99.805063 173.120188 
L 103.213576 174.470199 
L 106.812829 175.717303 
L 110.613776 176.839517 
L 114.627488 177.880234 
L 121.073415 179.242658 
L 129.290772 180.572459 
L 143.896166 182.481598 
L 154.396859 183.461977 
L 167.689795 184.407992 
L 178.655574 185.027762 
L 194.741561 185.761542 
L 217.479205 186.53658 
L 243.534606 187.161457 
L 273.392107 187.634705 
L 315.02724 188.012301 
L 364.056691 188.238456 
L 382.26226 188.28941 
L 382.26226 188.28941 
" clip-path="url(#pfd4add3b97)" style="fill: none; stroke: #8c2981; stroke-width: 1.5; stroke-linecap: square"/>
   </g>
   <g id="line2d_18">
    <path d="M 40.587251 168.263773 
L 41.168891 156.817901 
L 41.64191 149.830349 
L 42.546203 139.283483 
L 42.596114 139.361024 
L 42.910499 136.195349 
L 42.965461 136.073663 
L 43.134958 134.32622 
L 43.193033 134.15944 
L 43.558748 130.983322 
L 44.025355 127.633204 
L 44.31286 126.142791 
L 44.387241 126.115926 
L 44.616624 124.718551 
L 45.02059 122.373932 
L 45.104774 122.445639 
L 45.453305 120.581788 
L 45.543486 120.429173 
L 45.6349 119.790794 
L 45.727594 119.980868 
L 45.821557 119.156603 
L 45.916834 119.172629 
L 46.111344 118.445473 
L 46.516809 117.158646 
L 46.621704 117.505484 
L 46.835877 116.648856 
L 47.056011 116.162976 
L 47.168379 116.052243 
L 47.282292 115.615496 
L 47.397797 115.769637 
L 47.514892 115.208291 
L 47.633603 115.443604 
L 47.753962 115.071244 
L 47.875994 115.166737 
L 48.125131 114.784015 
L 48.252306 114.903669 
L 48.381234 114.461496 
L 48.511938 114.714311 
L 48.644463 114.290864 
L 48.778823 114.549714 
L 48.915039 114.255619 
L 49.193156 114.256548 
L 49.335103 114.151092 
L 49.479023 114.40774 
L 49.624937 113.994063 
L 49.77287 114.356004 
L 49.922843 113.967683 
L 50.074904 114.256359 
L 50.385369 114.049875 
L 50.543818 114.112855 
L 50.704459 113.970542 
L 50.867406 114.300816 
L 51.032545 113.960022 
L 51.199874 114.325459 
L 51.369625 114.119361 
L 51.541798 114.348207 
L 51.716161 114.312707 
L 51.893062 114.043922 
L 52.072385 114.037345 
L 52.438641 114.818156 
L 52.62546 114.448866 
L 52.81493 114.733325 
L 53.007054 114.649575 
L 53.399257 114.959405 
L 53.599452 114.986855 
L 53.802416 115.273297 
L 54.008262 115.208156 
L 54.216876 115.685048 
L 54.428373 115.440447 
L 54.642752 115.836505 
L 54.860246 115.857146 
L 55.304113 116.309886 
L 55.530601 116.336934 
L 55.760319 116.677024 
L 55.993265 116.746169 
L 56.229325 117.279325 
L 56.468729 117.256648 
L 56.711363 117.692674 
L 56.957455 117.847566 
L 57.206893 117.872703 
L 57.459789 118.204755 
L 57.976192 119.27225 
L 58.239814 119.491297 
L 58.50701 120.086178 
L 58.777897 120.210951 
L 59.61339 121.603027 
L 60.782274 123.502501 
L 61.702066 125.238907 
L 62.660721 126.944294 
L 70.169437 141.895394 
L 71.040219 143.541926 
L 72.85524 146.844484 
L 75.772029 152.05271 
L 76.798953 153.442871 
L 77.323198 154.406499 
L 77.854593 155.07754 
L 78.393368 156.042502 
L 78.939639 156.64503 
L 79.493521 157.618467 
L 81.20141 159.859224 
L 82.379749 161.403021 
L 83.590955 162.884088 
L 84.836065 164.357473 
L 86.768944 166.461218 
L 88.783238 168.44832 
L 92.330712 171.560718 
L 95.349559 173.619521 
L 96.922524 174.665996 
L 100.201072 176.500811 
L 103.664938 178.133173 
L 110.204736 180.453122 
L 111.191529 180.775378 
L 112.19193 180.974095 
L 113.206169 181.303535 
L 115.276855 181.834769 
L 117.405432 182.251056 
L 122.990033 183.250324 
L 125.333566 183.603433 
L 127.742486 183.897092 
L 140.833036 185.188098 
L 152.681704 185.895391 
L 164.174842 186.354638 
L 182.635267 186.849169 
L 222.990348 187.560562 
L 298.498424 188.25697 
L 371.39335 188.447978 
L 380.662771 188.458143 
L 380.662771 188.458143 
" clip-path="url(#pfd4add3b97)" style="fill: none; stroke: #de4968; stroke-width: 1.5; stroke-linecap: square"/>
   </g>
   <g id="line2d_19">
    <path d="M 39.183854 153.596663 
L 39.189916 154.002061 
L 39.319492 72.539057 
L 39.475452 24.826031 
L 39.523596 28.079796 
L 40.304187 72.823994 
L 40.913676 90.517031 
L 40.962871 90.284613 
L 41.464767 98.076642 
L 42.291358 106.912769 
L 42.332884 106.528333 
L 42.873193 109.98374 
L 43.729802 114.796256 
L 43.789157 114.644114 
L 43.849239 114.497748 
L 44.097131 115.787438 
L 44.225724 116.742759 
L 44.291226 116.197071 
L 44.357535 116.274113 
L 44.561432 116.94342 
L 44.631097 116.757791 
L 44.918463 117.810577 
L 45.537477 119.561085 
L 45.702004 120.469353 
L 45.870625 119.812643 
L 46.310813 121.392535 
L 46.402158 121.341741 
L 46.494622 122.122007 
L 46.68302 121.784544 
L 46.876112 122.139591 
L 47.074013 122.58923 
L 47.380176 123.819043 
L 47.484759 123.470658 
L 48.027478 124.638447 
L 48.486383 125.684474 
L 48.604678 125.614213 
L 49.092724 127.072444 
L 49.218538 127.144325 
L 49.871399 128.795744 
L 50.855644 130.996873 
L 51.152823 131.959137 
L 51.457383 132.083851 
L 52.089452 133.533297 
L 52.417422 134.281919 
L 52.584406 133.86879 
L 53.098041 135.051821 
L 54.183894 136.759807 
L 54.564104 137.680134 
L 54.953655 137.884179 
L 56.611957 140.138029 
L 57.277123 141.020631 
L 60.727958 145.663909 
L 71.253676 159.421715 
L 74.163315 162.818149 
L 75.489149 164.267919 
L 76.400638 164.97497 
L 77.810771 166.469656 
L 78.292463 167.128094 
L 78.780151 167.592641 
L 79.273951 167.858159 
L 79.773748 168.254397 
L 81.310848 169.867378 
L 84.002187 172.028085 
L 86.864544 174.059119 
L 89.908646 175.910204 
L 92.482704 177.254964 
L 94.498152 178.259291 
L 95.883721 178.588827 
L 98.759456 179.867068 
L 101.011195 180.598298 
L 102.55925 180.927921 
L 104.145823 181.470429 
L 106.600294 182.024472 
L 107.438785 182.096138 
L 112.692765 183.159415 
L 117.377524 183.789006 
L 124.440413 184.3983 
L 133.294221 185.002025 
L 139.287632 185.331081 
L 158.172436 185.971436 
L 189.610974 186.570028 
L 229.338714 187.067142 
L 346.750619 187.851711 
L 382.8354 187.966219 
L 382.8354 187.966219 
" clip-path="url(#pfd4add3b97)" style="fill: none; stroke: #fe9f6d; stroke-width: 1.5; stroke-linecap: square"/>
   </g>
   <g id="patch_3">
    <path d="M 38.940781 188.506031 
L 38.940781 16.642031 
" style="fill: none; stroke: #000000; stroke-width: 0.8; stroke-linejoin: miter; stroke-linecap: square"/>
   </g>
   <g id="patch_4">
    <path d="M 384.900781 188.506031 
L 384.900781 16.642031 
" style="fill: none; stroke: #000000; stroke-width: 0.8; stroke-linejoin: miter; stroke-linecap: square"/>
   </g>
   <g id="patch_5">
    <path d="M 38.940781 188.506031 
L 384.900781 188.506031 
" style="fill: none; stroke: #000000; stroke-width: 0.8; stroke-linejoin: miter; stroke-linecap: square"/>
   </g>
   <g id="patch_6">
    <path d="M 38.940781 16.642031 
L 384.900781 16.642031 
" style="fill: none; stroke: #000000; stroke-width: 0.8; stroke-linejoin: miter; stroke-linecap: square"/>
   </g>
   <g id="legend_1">
    <g id="patch_7">
     <path d="M 282.912781 121.824356 
L 361.066531 121.824356 
Q 362.866531 121.824356 362.866531 120.024356 
L 362.866531 70.001231 
Q 362.866531 68.201231 361.066531 68.201231 
L 282.912781 68.201231 
Q 281.112781 68.201231 281.112781 70.001231 
L 281.112781 120.024356 
Q 281.112781 121.824356 282.912781 121.824356 
z
" style="fill: #ffffff; opacity: 0.8; stroke: #cccccc; stroke-linejoin: miter"/>
    </g>
    <g id="line2d_20">
     <path d="M 284.712781 75.093262 
L 293.712781 75.093262 
L 302.712781 75.093262 
" style="fill: none; stroke: #3b0f70; stroke-width: 1.5; stroke-linecap: square"/>
    </g>
    <g id="text_19">
     <!-- $PE_{170}$ -->
     <g transform="translate(309.912781 78.243262) scale(0.09 -0.09)">
      <defs>
       <path id="DejaVuSans-Oblique-50" d="M 1081 4666 
L 2541 4666 
Q 3178 4666 3512 4369 
Q 3847 4072 3847 3500 
Q 3847 2731 3353 2303 
Q 2859 1875 1966 1875 
L 1172 1875 
L 806 0 
L 172 0 
L 1081 4666 
z
M 1613 4147 
L 1275 2394 
L 2069 2394 
Q 2606 2394 2893 2669 
Q 3181 2944 3181 3456 
Q 3181 3784 2986 3965 
Q 2791 4147 2438 4147 
L 1613 4147 
z
" transform="scale(0.015625)"/>
       <path id="DejaVuSans-Oblique-45" d="M 1081 4666 
L 4031 4666 
L 3928 4134 
L 1606 4134 
L 1338 2753 
L 3566 2753 
L 3463 2222 
L 1234 2222 
L 909 531 
L 3284 531 
L 3181 0 
L 172 0 
L 1081 4666 
z
" transform="scale(0.015625)"/>
       <path id="DejaVuSans-31" d="M 794 531 
L 1825 531 
L 1825 4091 
L 703 3866 
L 703 4441 
L 1819 4666 
L 2450 4666 
L 2450 531 
L 3481 531 
L 3481 0 
L 794 0 
L 794 531 
z
" transform="scale(0.015625)"/>
       <path id="DejaVuSans-37" d="M 525 4666 
L 3525 4666 
L 3525 4397 
L 1831 0 
L 1172 0 
L 2766 4134 
L 525 4134 
L 525 4666 
z
" transform="scale(0.015625)"/>
       <path id="DejaVuSans-30" d="M 2034 4250 
Q 1547 4250 1301 3770 
Q 1056 3291 1056 2328 
Q 1056 1369 1301 889 
Q 1547 409 2034 409 
Q 2525 409 2770 889 
Q 3016 1369 3016 2328 
Q 3016 3291 2770 3770 
Q 2525 4250 2034 4250 
z
M 2034 4750 
Q 2819 4750 3233 4129 
Q 3647 3509 3647 2328 
Q 3647 1150 3233 529 
Q 2819 -91 2034 -91 
Q 1250 -91 836 529 
Q 422 1150 422 2328 
Q 422 3509 836 4129 
Q 1250 4750 2034 4750 
z
" transform="scale(0.015625)"/>
      </defs>
      <use xlink:href="#DejaVuSans-Oblique-50" transform="translate(0 0.09375)"/>
      <use xlink:href="#DejaVuSans-Oblique-45" transform="translate(60.302734 0.09375)"/>
      <use xlink:href="#DejaVuSans-31" transform="translate(123.486328 -16.3125) scale(0.7)"/>
      <use xlink:href="#DejaVuSans-37" transform="translate(168.022461 -16.3125) scale(0.7)"/>
      <use xlink:href="#DejaVuSans-30" transform="translate(212.558594 -16.3125) scale(0.7)"/>
     </g>
    </g>
    <g id="line2d_21">
     <path d="M 284.712781 87.824044 
L 293.712781 87.824044 
L 302.712781 87.824044 
" style="fill: none; stroke: #8c2981; stroke-width: 1.5; stroke-linecap: square"/>
    </g>
    <g id="text_20">
     <!-- 5 h -->
     <g transform="translate(309.912781 90.974044) scale(0.09 -0.09)">
      <defs>
       <path id="ArialMT-20" transform="scale(0.015625)"/>
       <path id="ArialMT-68" d="M 422 0 
L 422 4581 
L 984 4581 
L 984 2938 
Q 1378 3394 1978 3394 
Q 2347 3394 2619 3248 
Q 2891 3103 3008 2847 
Q 3125 2591 3125 2103 
L 3125 0 
L 2563 0 
L 2563 2103 
Q 2563 2525 2380 2717 
Q 2197 2909 1863 2909 
Q 1613 2909 1392 2779 
Q 1172 2650 1078 2428 
Q 984 2206 984 1816 
L 984 0 
L 422 0 
z
" transform="scale(0.015625)"/>
      </defs>
      <use xlink:href="#ArialMT-35"/>
      <use xlink:href="#ArialMT-20" transform="translate(55.615234 0)"/>
      <use xlink:href="#ArialMT-68" transform="translate(83.398438 0)"/>
     </g>
    </g>
    <g id="line2d_22">
     <path d="M 284.712781 100.554825 
L 293.712781 100.554825 
L 302.712781 100.554825 
" style="fill: none; stroke: #de4968; stroke-width: 1.5; stroke-linecap: square"/>
    </g>
    <g id="text_21">
     <!-- 5 h, BHT -->
     <g transform="translate(309.912781 103.704825) scale(0.09 -0.09)">
      <defs>
       <path id="ArialMT-2c" d="M 569 0 
L 569 641 
L 1209 641 
L 1209 0 
Q 1209 -353 1084 -570 
Q 959 -788 688 -906 
L 531 -666 
Q 709 -588 793 -436 
Q 878 -284 888 0 
L 569 0 
z
" transform="scale(0.015625)"/>
       <path id="ArialMT-42" d="M 469 0 
L 469 4581 
L 2188 4581 
Q 2713 4581 3030 4442 
Q 3347 4303 3526 4014 
Q 3706 3725 3706 3409 
Q 3706 3116 3547 2856 
Q 3388 2597 3066 2438 
Q 3481 2316 3704 2022 
Q 3928 1728 3928 1328 
Q 3928 1006 3792 729 
Q 3656 453 3456 303 
Q 3256 153 2954 76 
Q 2653 0 2216 0 
L 469 0 
z
M 1075 2656 
L 2066 2656 
Q 2469 2656 2644 2709 
Q 2875 2778 2992 2937 
Q 3109 3097 3109 3338 
Q 3109 3566 3000 3739 
Q 2891 3913 2687 3977 
Q 2484 4041 1991 4041 
L 1075 4041 
L 1075 2656 
z
M 1075 541 
L 2216 541 
Q 2509 541 2628 563 
Q 2838 600 2978 687 
Q 3119 775 3209 942 
Q 3300 1109 3300 1328 
Q 3300 1584 3169 1773 
Q 3038 1963 2805 2039 
Q 2572 2116 2134 2116 
L 1075 2116 
L 1075 541 
z
" transform="scale(0.015625)"/>
       <path id="ArialMT-48" d="M 513 0 
L 513 4581 
L 1119 4581 
L 1119 2700 
L 3500 2700 
L 3500 4581 
L 4106 4581 
L 4106 0 
L 3500 0 
L 3500 2159 
L 1119 2159 
L 1119 0 
L 513 0 
z
" transform="scale(0.015625)"/>
       <path id="ArialMT-54" d="M 1659 0 
L 1659 4041 
L 150 4041 
L 150 4581 
L 3781 4581 
L 3781 4041 
L 2266 4041 
L 2266 0 
L 1659 0 
z
" transform="scale(0.015625)"/>
      </defs>
      <use xlink:href="#ArialMT-35"/>
      <use xlink:href="#ArialMT-20" transform="translate(55.615234 0)"/>
      <use xlink:href="#ArialMT-68" transform="translate(83.398438 0)"/>
      <use xlink:href="#ArialMT-2c" transform="translate(139.013672 0)"/>
      <use xlink:href="#ArialMT-20" transform="translate(166.796875 0)"/>
      <use xlink:href="#ArialMT-42" transform="translate(194.580078 0)"/>
      <use xlink:href="#ArialMT-48" transform="translate(261.279297 0)"/>
      <use xlink:href="#ArialMT-54" transform="translate(333.496094 0)"/>
     </g>
    </g>
    <g id="line2d_23">
     <path d="M 284.712781 113.285606 
L 293.712781 113.285606 
L 302.712781 113.285606 
" style="fill: none; stroke: #fe9f6d; stroke-width: 1.5; stroke-linecap: square"/>
    </g>
    <g id="text_22">
     <!-- 5 h, TEMPO -->
     <g transform="translate(309.912781 116.435606) scale(0.09 -0.09)">
      <defs>
       <path id="ArialMT-45" d="M 506 0 
L 506 4581 
L 3819 4581 
L 3819 4041 
L 1113 4041 
L 1113 2638 
L 3647 2638 
L 3647 2100 
L 1113 2100 
L 1113 541 
L 3925 541 
L 3925 0 
L 506 0 
z
" transform="scale(0.015625)"/>
       <path id="ArialMT-4d" d="M 475 0 
L 475 4581 
L 1388 4581 
L 2472 1338 
Q 2622 884 2691 659 
Q 2769 909 2934 1394 
L 4031 4581 
L 4847 4581 
L 4847 0 
L 4263 0 
L 4263 3834 
L 2931 0 
L 2384 0 
L 1059 3900 
L 1059 0 
L 475 0 
z
" transform="scale(0.015625)"/>
       <path id="ArialMT-50" d="M 494 0 
L 494 4581 
L 2222 4581 
Q 2678 4581 2919 4538 
Q 3256 4481 3484 4323 
Q 3713 4166 3852 3881 
Q 3991 3597 3991 3256 
Q 3991 2672 3619 2267 
Q 3247 1863 2275 1863 
L 1100 1863 
L 1100 0 
L 494 0 
z
M 1100 2403 
L 2284 2403 
Q 2872 2403 3119 2622 
Q 3366 2841 3366 3238 
Q 3366 3525 3220 3729 
Q 3075 3934 2838 4000 
Q 2684 4041 2272 4041 
L 1100 4041 
L 1100 2403 
z
" transform="scale(0.015625)"/>
       <path id="ArialMT-4f" d="M 309 2231 
Q 309 3372 921 4017 
Q 1534 4663 2503 4663 
Q 3138 4663 3647 4359 
Q 4156 4056 4423 3514 
Q 4691 2972 4691 2284 
Q 4691 1588 4409 1038 
Q 4128 488 3612 205 
Q 3097 -78 2500 -78 
Q 1853 -78 1343 234 
Q 834 547 571 1087 
Q 309 1628 309 2231 
z
M 934 2222 
Q 934 1394 1379 917 
Q 1825 441 2497 441 
Q 3181 441 3623 922 
Q 4066 1403 4066 2288 
Q 4066 2847 3877 3264 
Q 3688 3681 3323 3911 
Q 2959 4141 2506 4141 
Q 1863 4141 1398 3698 
Q 934 3256 934 2222 
z
" transform="scale(0.015625)"/>
      </defs>
      <use xlink:href="#ArialMT-35"/>
      <use xlink:href="#ArialMT-20" transform="translate(55.615234 0)"/>
      <use xlink:href="#ArialMT-68" transform="translate(83.398438 0)"/>
      <use xlink:href="#ArialMT-2c" transform="translate(139.013672 0)"/>
      <use xlink:href="#ArialMT-20" transform="translate(166.796875 0)"/>
      <use xlink:href="#ArialMT-54" transform="translate(192.830078 0)"/>
      <use xlink:href="#ArialMT-45" transform="translate(253.914062 0)"/>
      <use xlink:href="#ArialMT-4d" transform="translate(320.613281 0)"/>
      <use xlink:href="#ArialMT-50" transform="translate(403.914062 0)"/>
      <use xlink:href="#ArialMT-4f" transform="translate(470.613281 0)"/>
     </g>
    </g>
   </g>
   <g id="legend_2">
    <g id="patch_8">
     <path d="M 169.008359 281.028675 
L 254.833203 281.028675 
Q 256.633203 281.028675 256.633203 279.228675 
L 256.633203 229.178831 
Q 256.633203 227.378831 254.833203 227.378831 
L 169.008359 227.378831 
Q 167.208359 227.378831 167.208359 229.178831 
L 167.208359 279.228675 
Q 167.208359 281.028675 169.008359 281.028675 
z
" style="fill: #ffffff; opacity: 0.8; stroke: #cccccc; stroke-linejoin: miter"/>
    </g>
    <g id="line2d_24">
     <path d="M 170.808359 234.297581 
L 179.808359 234.297581 
L 188.808359 234.297581 
" style="fill: none; stroke: #3b0f70; stroke-width: 1.5; stroke-linecap: square"/>
    </g>
    <g id="text_23">
     <!-- AH100_1.TXT -->
     <g transform="translate(196.008359 237.447581) scale(0.09 -0.09)">
      <defs>
       <path id="ArialMT-41" d="M -9 0 
L 1750 4581 
L 2403 4581 
L 4278 0 
L 3588 0 
L 3053 1388 
L 1138 1388 
L 634 0 
L -9 0 
z
M 1313 1881 
L 2866 1881 
L 2388 3150 
Q 2169 3728 2063 4100 
Q 1975 3659 1816 3225 
L 1313 1881 
z
" transform="scale(0.015625)"/>
       <path id="ArialMT-5f" d="M -97 -1272 
L -97 -866 
L 3631 -866 
L 3631 -1272 
L -97 -1272 
z
" transform="scale(0.015625)"/>
       <path id="ArialMT-58" d="M 28 0 
L 1800 2388 
L 238 4581 
L 959 4581 
L 1791 3406 
Q 2050 3041 2159 2844 
Q 2313 3094 2522 3366 
L 3444 4581 
L 4103 4581 
L 2494 2422 
L 4228 0 
L 3478 0 
L 2325 1634 
Q 2228 1775 2125 1941 
Q 1972 1691 1906 1597 
L 756 0 
L 28 0 
z
" transform="scale(0.015625)"/>
      </defs>
      <use xlink:href="#ArialMT-41"/>
      <use xlink:href="#ArialMT-48" transform="translate(66.699219 0)"/>
      <use xlink:href="#ArialMT-31" transform="translate(138.916016 0)"/>
      <use xlink:href="#ArialMT-30" transform="translate(194.53125 0)"/>
      <use xlink:href="#ArialMT-30" transform="translate(250.146484 0)"/>
      <use xlink:href="#ArialMT-5f" transform="translate(305.761719 0)"/>
      <use xlink:href="#ArialMT-31" transform="translate(361.376953 0)"/>
      <use xlink:href="#ArialMT-2e" transform="translate(416.992188 0)"/>
      <use xlink:href="#ArialMT-54" transform="translate(444.775391 0)"/>
      <use xlink:href="#ArialMT-58" transform="translate(505.859375 0)"/>
      <use xlink:href="#ArialMT-54" transform="translate(572.558594 0)"/>
     </g>
    </g>
    <g id="line2d_25">
     <path d="M 170.808359 247.028362 
L 179.808359 247.028362 
L 188.808359 247.028362 
" style="fill: none; stroke: #8c2981; stroke-width: 1.5; stroke-linecap: square"/>
    </g>
    <g id="text_24">
     <!-- IV57-M.TXT -->
     <g transform="translate(196.008359 250.178362) scale(0.09 -0.09)">
      <defs>
       <path id="ArialMT-49" d="M 597 0 
L 597 4581 
L 1203 4581 
L 1203 0 
L 597 0 
z
" transform="scale(0.015625)"/>
       <path id="ArialMT-56" d="M 1803 0 
L 28 4581 
L 684 4581 
L 1875 1253 
Q 2019 853 2116 503 
Q 2222 878 2363 1253 
L 3600 4581 
L 4219 4581 
L 2425 0 
L 1803 0 
z
" transform="scale(0.015625)"/>
       <path id="ArialMT-2d" d="M 203 1375 
L 203 1941 
L 1931 1941 
L 1931 1375 
L 203 1375 
z
" transform="scale(0.015625)"/>
      </defs>
      <use xlink:href="#ArialMT-49"/>
      <use xlink:href="#ArialMT-56" transform="translate(27.783203 0)"/>
      <use xlink:href="#ArialMT-35" transform="translate(94.482422 0)"/>
      <use xlink:href="#ArialMT-37" transform="translate(150.097656 0)"/>
      <use xlink:href="#ArialMT-2d" transform="translate(205.712891 0)"/>
      <use xlink:href="#ArialMT-4d" transform="translate(239.013672 0)"/>
      <use xlink:href="#ArialMT-2e" transform="translate(322.314453 0)"/>
      <use xlink:href="#ArialMT-54" transform="translate(350.097656 0)"/>
      <use xlink:href="#ArialMT-58" transform="translate(411.181641 0)"/>
      <use xlink:href="#ArialMT-54" transform="translate(477.880859 0)"/>
     </g>
    </g>
    <g id="line2d_26">
     <path d="M 170.808359 259.759144 
L 179.808359 259.759144 
L 188.808359 259.759144 
" style="fill: none; stroke: #de4968; stroke-width: 1.5; stroke-linecap: square"/>
    </g>
    <g id="text_25">
     <!-- IV58-M.TXT -->
     <g transform="translate(196.008359 262.909144) scale(0.09 -0.09)">
      <use xlink:href="#ArialMT-49"/>
      <use xlink:href="#ArialMT-56" transform="translate(27.783203 0)"/>
      <use xlink:href="#ArialMT-35" transform="translate(94.482422 0)"/>
      <use xlink:href="#ArialMT-38" transform="translate(150.097656 0)"/>
      <use xlink:href="#ArialMT-2d" transform="translate(205.712891 0)"/>
      <use xlink:href="#ArialMT-4d" transform="translate(239.013672 0)"/>
      <use xlink:href="#ArialMT-2e" transform="translate(322.314453 0)"/>
      <use xlink:href="#ArialMT-54" transform="translate(350.097656 0)"/>
      <use xlink:href="#ArialMT-58" transform="translate(411.181641 0)"/>
      <use xlink:href="#ArialMT-54" transform="translate(477.880859 0)"/>
     </g>
    </g>
    <g id="line2d_27">
     <path d="M 170.808359 272.489925 
L 179.808359 272.489925 
L 188.808359 272.489925 
" style="fill: none; stroke: #fe9f6d; stroke-width: 1.5; stroke-linecap: square"/>
    </g>
    <g id="text_26">
     <!-- IV61-M.TXT -->
     <g transform="translate(196.008359 275.639925) scale(0.09 -0.09)">
      <use xlink:href="#ArialMT-49"/>
      <use xlink:href="#ArialMT-56" transform="translate(27.783203 0)"/>
      <use xlink:href="#ArialMT-36" transform="translate(94.482422 0)"/>
      <use xlink:href="#ArialMT-31" transform="translate(150.097656 0)"/>
      <use xlink:href="#ArialMT-2d" transform="translate(205.712891 0)"/>
      <use xlink:href="#ArialMT-4d" transform="translate(239.013672 0)"/>
      <use xlink:href="#ArialMT-2e" transform="translate(322.314453 0)"/>
      <use xlink:href="#ArialMT-54" transform="translate(350.097656 0)"/>
      <use xlink:href="#ArialMT-58" transform="translate(411.181641 0)"/>
      <use xlink:href="#ArialMT-54" transform="translate(477.880859 0)"/>
     </g>
    </g>
   </g>
  </g>
 </g>
 <defs>
  <clipPath id="pfd4add3b97">
   <rect x="38.940781" y="16.642031" width="345.96" height="171.864"/>
  </clipPath>
 </defs>
</svg>
