<?xml version="1.0" encoding="utf-8" standalone="no"?>
<!DOCTYPE svg PUBLIC "-//W3C//DTD SVG 1.1//EN"
  "http://www.w3.org/Graphics/SVG/1.1/DTD/svg11.dtd">
<svg xmlns:xlink="http://www.w3.org/1999/xlink" width="233.461953pt" height="228.606812pt" viewBox="0 0 233.461953 228.606812" xmlns="http://www.w3.org/2000/svg" version="1.1">
 <metadata>
  <rdf:RDF xmlns:dc="http://purl.org/dc/elements/1.1/" xmlns:cc="http://creativecommons.org/ns#" xmlns:rdf="http://www.w3.org/1999/02/22-rdf-syntax-ns#">
   <cc:Work>
    <dc:type rdf:resource="http://purl.org/dc/dcmitype/StillImage"/>
    <dc:date>2025-09-22T16:06:38.244040</dc:date>
    <dc:format>image/svg+xml</dc:format>
    <dc:creator>
     <cc:Agent>
      <dc:title>Matplotlib v3.10.6, https://matplotlib.org/</dc:title>
     </cc:Agent>
    </dc:creator>
   </cc:Work>
  </rdf:RDF>
 </metadata>
 <defs>
  <style type="text/css">*{stroke-linejoin: round; stroke-linecap: butt}</style>
 </defs>
 <g id="figure_1">
  <g id="patch_1">
   <path d="M 0 228.606812 
L 233.461953 228.606812 
L 233.461953 0 
L 0 0 
L 0 228.606812 
z
" style="fill: none"/>
  </g>
  <g id="axes_1">
   <g id="patch_2">
    <path d="M 45.774688 191.506031 
L 218.754688 191.506031 
L 218.754688 19.642031 
L 45.774688 19.642031 
L 45.774688 191.506031 
z
" style="fill: none"/>
   </g>
   <g id="matplotlib.axis_1">
    <g id="xtick_1">
     <g id="line2d_1">
      <defs>
       <path id="m51f5d702a2" d="M 0 0 
L 0 3.5 
" style="stroke: #000000; stroke-width: 0.8"/>
      </defs>
      <g>
       <use xlink:href="#m51f5d702a2" x="45.774688" y="191.506031" style="stroke: #000000; stroke-width: 0.8"/>
      </g>
     </g>
     <g id="text_1">
      <!-- 0 -->
      <g transform="translate(43.272266 204.948062) scale(0.09 -0.09)">
       <defs>
        <path id="ArialMT-30" d="M 266 2259 
Q 266 3072 433 3567 
Q 600 4063 929 4331 
Q 1259 4600 1759 4600 
Q 2128 4600 2406 4451 
Q 2684 4303 2865 4023 
Q 3047 3744 3150 3342 
Q 3253 2941 3253 2259 
Q 3253 1453 3087 958 
Q 2922 463 2592 192 
Q 2263 -78 1759 -78 
Q 1097 -78 719 397 
Q 266 969 266 2259 
z
M 844 2259 
Q 844 1131 1108 757 
Q 1372 384 1759 384 
Q 2147 384 2411 759 
Q 2675 1134 2675 2259 
Q 2675 3391 2411 3762 
Q 2147 4134 1753 4134 
Q 1366 4134 1134 3806 
Q 844 3388 844 2259 
z
" transform="scale(0.015625)"/>
       </defs>
       <use xlink:href="#ArialMT-30"/>
      </g>
     </g>
    </g>
    <g id="xtick_2">
     <g id="line2d_2">
      <g>
       <use xlink:href="#m51f5d702a2" x="89.019688" y="191.506031" style="stroke: #000000; stroke-width: 0.8"/>
      </g>
     </g>
     <g id="text_2">
      <!-- 100 -->
      <g transform="translate(81.512422 204.948062) scale(0.09 -0.09)">
       <defs>
        <path id="ArialMT-31" d="M 2384 0 
L 1822 0 
L 1822 3584 
Q 1619 3391 1289 3197 
Q 959 3003 697 2906 
L 697 3450 
Q 1169 3672 1522 3987 
Q 1875 4303 2022 4600 
L 2384 4600 
L 2384 0 
z
" transform="scale(0.015625)"/>
       </defs>
       <use xlink:href="#ArialMT-31"/>
       <use xlink:href="#ArialMT-30" transform="translate(55.615234 0)"/>
       <use xlink:href="#ArialMT-30" transform="translate(111.230469 0)"/>
      </g>
     </g>
    </g>
    <g id="xtick_3">
     <g id="line2d_3">
      <g>
       <use xlink:href="#m51f5d702a2" x="132.264688" y="191.506031" style="stroke: #000000; stroke-width: 0.8"/>
      </g>
     </g>
     <g id="text_3">
      <!-- 200 -->
      <g transform="translate(124.757422 204.948062) scale(0.09 -0.09)">
       <defs>
        <path id="ArialMT-32" d="M 3222 541 
L 3222 0 
L 194 0 
Q 188 203 259 391 
Q 375 700 629 1000 
Q 884 1300 1366 1694 
Q 2113 2306 2375 2664 
Q 2638 3022 2638 3341 
Q 2638 3675 2398 3904 
Q 2159 4134 1775 4134 
Q 1369 4134 1125 3890 
Q 881 3647 878 3216 
L 300 3275 
Q 359 3922 746 4261 
Q 1134 4600 1788 4600 
Q 2447 4600 2831 4234 
Q 3216 3869 3216 3328 
Q 3216 3053 3103 2787 
Q 2991 2522 2730 2228 
Q 2469 1934 1863 1422 
Q 1356 997 1212 845 
Q 1069 694 975 541 
L 3222 541 
z
" transform="scale(0.015625)"/>
       </defs>
       <use xlink:href="#ArialMT-32"/>
       <use xlink:href="#ArialMT-30" transform="translate(55.615234 0)"/>
       <use xlink:href="#ArialMT-30" transform="translate(111.230469 0)"/>
      </g>
     </g>
    </g>
    <g id="xtick_4">
     <g id="line2d_4">
      <g>
       <use xlink:href="#m51f5d702a2" x="175.509688" y="191.506031" style="stroke: #000000; stroke-width: 0.8"/>
      </g>
     </g>
     <g id="text_4">
      <!-- 300 -->
      <g transform="translate(168.002422 204.948062) scale(0.09 -0.09)">
       <defs>
        <path id="ArialMT-33" d="M 269 1209 
L 831 1284 
Q 928 806 1161 595 
Q 1394 384 1728 384 
Q 2125 384 2398 659 
Q 2672 934 2672 1341 
Q 2672 1728 2419 1979 
Q 2166 2231 1775 2231 
Q 1616 2231 1378 2169 
L 1441 2663 
Q 1497 2656 1531 2656 
Q 1891 2656 2178 2843 
Q 2466 3031 2466 3422 
Q 2466 3731 2256 3934 
Q 2047 4138 1716 4138 
Q 1388 4138 1169 3931 
Q 950 3725 888 3313 
L 325 3413 
Q 428 3978 793 4289 
Q 1159 4600 1703 4600 
Q 2078 4600 2393 4439 
Q 2709 4278 2876 4000 
Q 3044 3722 3044 3409 
Q 3044 3113 2884 2869 
Q 2725 2625 2413 2481 
Q 2819 2388 3044 2092 
Q 3269 1797 3269 1353 
Q 3269 753 2831 336 
Q 2394 -81 1725 -81 
Q 1122 -81 723 278 
Q 325 638 269 1209 
z
" transform="scale(0.015625)"/>
       </defs>
       <use xlink:href="#ArialMT-33"/>
       <use xlink:href="#ArialMT-30" transform="translate(55.615234 0)"/>
       <use xlink:href="#ArialMT-30" transform="translate(111.230469 0)"/>
      </g>
     </g>
    </g>
    <g id="xtick_5">
     <g id="line2d_5">
      <g>
       <use xlink:href="#m51f5d702a2" x="218.754688" y="191.506031" style="stroke: #000000; stroke-width: 0.8"/>
      </g>
     </g>
     <g id="text_5">
      <!-- 400 -->
      <g transform="translate(211.247422 204.948062) scale(0.09 -0.09)">
       <defs>
        <path id="ArialMT-34" d="M 2069 0 
L 2069 1097 
L 81 1097 
L 81 1613 
L 2172 4581 
L 2631 4581 
L 2631 1613 
L 3250 1613 
L 3250 1097 
L 2631 1097 
L 2631 0 
L 2069 0 
z
M 2069 1613 
L 2069 3678 
L 634 1613 
L 2069 1613 
z
" transform="scale(0.015625)"/>
       </defs>
       <use xlink:href="#ArialMT-34"/>
       <use xlink:href="#ArialMT-30" transform="translate(55.615234 0)"/>
       <use xlink:href="#ArialMT-30" transform="translate(111.230469 0)"/>
      </g>
     </g>
    </g>
    <g id="text_6">
     <!-- $\bf{molar\ mass}\ \it{(kg/mol)}$ -->
     <g transform="translate(71.764688 219.096812) scale(0.11 -0.11)">
      <defs>
       <path id="DejaVuSans-Bold-6d" d="M 3781 2919 
Q 3994 3244 4286 3414 
Q 4578 3584 4928 3584 
Q 5531 3584 5847 3212 
Q 6163 2841 6163 2131 
L 6163 0 
L 5038 0 
L 5038 1825 
Q 5041 1866 5042 1909 
Q 5044 1953 5044 2034 
Q 5044 2406 4934 2573 
Q 4825 2741 4581 2741 
Q 4263 2741 4089 2478 
Q 3916 2216 3909 1719 
L 3909 0 
L 2784 0 
L 2784 1825 
Q 2784 2406 2684 2573 
Q 2584 2741 2328 2741 
Q 2006 2741 1831 2477 
Q 1656 2213 1656 1722 
L 1656 0 
L 531 0 
L 531 3500 
L 1656 3500 
L 1656 2988 
Q 1863 3284 2130 3434 
Q 2397 3584 2719 3584 
Q 3081 3584 3359 3409 
Q 3638 3234 3781 2919 
z
" transform="scale(0.015625)"/>
       <path id="DejaVuSans-Bold-6f" d="M 2203 2784 
Q 1831 2784 1636 2517 
Q 1441 2250 1441 1747 
Q 1441 1244 1636 976 
Q 1831 709 2203 709 
Q 2569 709 2762 976 
Q 2956 1244 2956 1747 
Q 2956 2250 2762 2517 
Q 2569 2784 2203 2784 
z
M 2203 3584 
Q 3106 3584 3614 3096 
Q 4122 2609 4122 1747 
Q 4122 884 3614 396 
Q 3106 -91 2203 -91 
Q 1297 -91 786 396 
Q 275 884 275 1747 
Q 275 2609 786 3096 
Q 1297 3584 2203 3584 
z
" transform="scale(0.015625)"/>
       <path id="DejaVuSans-Bold-6c" d="M 538 4863 
L 1656 4863 
L 1656 0 
L 538 0 
L 538 4863 
z
" transform="scale(0.015625)"/>
       <path id="DejaVuSans-Bold-61" d="M 2106 1575 
Q 1756 1575 1579 1456 
Q 1403 1338 1403 1106 
Q 1403 894 1545 773 
Q 1688 653 1941 653 
Q 2256 653 2472 879 
Q 2688 1106 2688 1447 
L 2688 1575 
L 2106 1575 
z
M 3816 1997 
L 3816 0 
L 2688 0 
L 2688 519 
Q 2463 200 2181 54 
Q 1900 -91 1497 -91 
Q 953 -91 614 226 
Q 275 544 275 1050 
Q 275 1666 698 1953 
Q 1122 2241 2028 2241 
L 2688 2241 
L 2688 2328 
Q 2688 2594 2478 2717 
Q 2269 2841 1825 2841 
Q 1466 2841 1156 2769 
Q 847 2697 581 2553 
L 581 3406 
Q 941 3494 1303 3539 
Q 1666 3584 2028 3584 
Q 2975 3584 3395 3211 
Q 3816 2838 3816 1997 
z
" transform="scale(0.015625)"/>
       <path id="DejaVuSans-Bold-72" d="M 3138 2547 
Q 2991 2616 2845 2648 
Q 2700 2681 2553 2681 
Q 2122 2681 1889 2404 
Q 1656 2128 1656 1613 
L 1656 0 
L 538 0 
L 538 3500 
L 1656 3500 
L 1656 2925 
Q 1872 3269 2151 3426 
Q 2431 3584 2822 3584 
Q 2878 3584 2943 3579 
Q 3009 3575 3134 3559 
L 3138 2547 
z
" transform="scale(0.015625)"/>
       <path id="DejaVuSans-Bold-73" d="M 3272 3391 
L 3272 2541 
Q 2913 2691 2578 2766 
Q 2244 2841 1947 2841 
Q 1628 2841 1473 2761 
Q 1319 2681 1319 2516 
Q 1319 2381 1436 2309 
Q 1553 2238 1856 2203 
L 2053 2175 
Q 2913 2066 3209 1816 
Q 3506 1566 3506 1031 
Q 3506 472 3093 190 
Q 2681 -91 1863 -91 
Q 1516 -91 1145 -36 
Q 775 19 384 128 
L 384 978 
Q 719 816 1070 734 
Q 1422 653 1784 653 
Q 2113 653 2278 743 
Q 2444 834 2444 1013 
Q 2444 1163 2330 1236 
Q 2216 1309 1875 1350 
L 1678 1375 
Q 931 1469 631 1722 
Q 331 1975 331 2491 
Q 331 3047 712 3315 
Q 1094 3584 1881 3584 
Q 2191 3584 2531 3537 
Q 2872 3491 3272 3391 
z
" transform="scale(0.015625)"/>
       <path id="DejaVuSans-28" d="M 1984 4856 
Q 1566 4138 1362 3434 
Q 1159 2731 1159 2009 
Q 1159 1288 1364 580 
Q 1569 -128 1984 -844 
L 1484 -844 
Q 1016 -109 783 600 
Q 550 1309 550 2009 
Q 550 2706 781 3412 
Q 1013 4119 1484 4856 
L 1984 4856 
z
" transform="scale(0.015625)"/>
       <path id="DejaVuSans-Oblique-6b" d="M 1172 4863 
L 1747 4863 
L 1197 2028 
L 3169 3500 
L 3916 3500 
L 1716 1825 
L 3322 0 
L 2625 0 
L 1131 1709 
L 800 0 
L 225 0 
L 1172 4863 
z
" transform="scale(0.015625)"/>
       <path id="DejaVuSans-Oblique-67" d="M 3816 3500 
L 3219 434 
Q 3047 -456 2561 -893 
Q 2075 -1331 1253 -1331 
Q 950 -1331 690 -1286 
Q 431 -1241 206 -1147 
L 313 -588 
Q 525 -725 762 -790 
Q 1000 -856 1269 -856 
Q 1816 -856 2167 -557 
Q 2519 -259 2631 300 
L 2681 563 
Q 2441 288 2122 144 
Q 1803 0 1434 0 
Q 903 0 598 351 
Q 294 703 294 1319 
Q 294 1803 478 2267 
Q 663 2731 997 3091 
Q 1219 3328 1514 3456 
Q 1809 3584 2131 3584 
Q 2484 3584 2746 3420 
Q 3009 3256 3138 2956 
L 3238 3500 
L 3816 3500 
z
M 2950 2216 
Q 2950 2641 2750 2872 
Q 2550 3103 2181 3103 
Q 1953 3103 1747 3012 
Q 1541 2922 1394 2759 
Q 1156 2491 1023 2127 
Q 891 1763 891 1375 
Q 891 944 1092 712 
Q 1294 481 1672 481 
Q 2219 481 2584 976 
Q 2950 1472 2950 2216 
z
" transform="scale(0.015625)"/>
       <path id="DejaVuSans-2f" d="M 1625 4666 
L 2156 4666 
L 531 -594 
L 0 -594 
L 1625 4666 
z
" transform="scale(0.015625)"/>
       <path id="DejaVuSans-Oblique-6d" d="M 5747 2113 
L 5338 0 
L 4763 0 
L 5166 2094 
Q 5191 2228 5203 2325 
Q 5216 2422 5216 2491 
Q 5216 2772 5059 2928 
Q 4903 3084 4622 3084 
Q 4203 3084 3875 2770 
Q 3547 2456 3450 1953 
L 3066 0 
L 2491 0 
L 2900 2094 
Q 2925 2209 2937 2307 
Q 2950 2406 2950 2484 
Q 2950 2769 2794 2926 
Q 2638 3084 2363 3084 
Q 1938 3084 1609 2770 
Q 1281 2456 1184 1953 
L 800 0 
L 225 0 
L 909 3500 
L 1484 3500 
L 1375 2956 
Q 1609 3263 1923 3423 
Q 2238 3584 2597 3584 
Q 2978 3584 3223 3384 
Q 3469 3184 3519 2828 
Q 3781 3197 4126 3390 
Q 4472 3584 4856 3584 
Q 5306 3584 5551 3325 
Q 5797 3066 5797 2591 
Q 5797 2488 5784 2364 
Q 5772 2241 5747 2113 
z
" transform="scale(0.015625)"/>
       <path id="DejaVuSans-Oblique-6f" d="M 1625 -91 
Q 1009 -91 651 289 
Q 294 669 294 1325 
Q 294 1706 417 2101 
Q 541 2497 738 2766 
Q 1047 3184 1428 3384 
Q 1809 3584 2291 3584 
Q 2888 3584 3255 3212 
Q 3622 2841 3622 2241 
Q 3622 1825 3500 1412 
Q 3378 1000 3181 728 
Q 2875 309 2494 109 
Q 2113 -91 1625 -91 
z
M 891 1344 
Q 891 869 1089 633 
Q 1288 397 1691 397 
Q 2269 397 2648 901 
Q 3028 1406 3028 2181 
Q 3028 2634 2825 2865 
Q 2622 3097 2228 3097 
Q 1903 3097 1650 2945 
Q 1397 2794 1197 2484 
Q 1050 2253 970 1956 
Q 891 1659 891 1344 
z
" transform="scale(0.015625)"/>
       <path id="DejaVuSans-Oblique-6c" d="M 1172 4863 
L 1747 4863 
L 800 0 
L 225 0 
L 1172 4863 
z
" transform="scale(0.015625)"/>
       <path id="DejaVuSans-29" d="M 513 4856 
L 1013 4856 
Q 1481 4119 1714 3412 
Q 1947 2706 1947 2009 
Q 1947 1309 1714 600 
Q 1481 -109 1013 -844 
L 513 -844 
Q 928 -128 1133 580 
Q 1338 1288 1338 2009 
Q 1338 2731 1133 3434 
Q 928 4138 513 4856 
z
" transform="scale(0.015625)"/>
      </defs>
      <use xlink:href="#DejaVuSans-Bold-6d" transform="translate(0 0.015625)"/>
      <use xlink:href="#DejaVuSans-Bold-6f" transform="translate(104.199219 0.015625)"/>
      <use xlink:href="#DejaVuSans-Bold-6c" transform="translate(172.900391 0.015625)"/>
      <use xlink:href="#DejaVuSans-Bold-61" transform="translate(207.177734 0.015625)"/>
      <use xlink:href="#DejaVuSans-Bold-72" transform="translate(274.658203 0.015625)"/>
      <use xlink:href="#DejaVuSans-Bold-6d" transform="translate(356.444988 0.015625)"/>
      <use xlink:href="#DejaVuSans-Bold-61" transform="translate(460.644207 0.015625)"/>
      <use xlink:href="#DejaVuSans-Bold-73" transform="translate(528.124675 0.015625)"/>
      <use xlink:href="#DejaVuSans-Bold-73" transform="translate(587.64616 0.015625)"/>
      <use xlink:href="#DejaVuSans-28" transform="translate(679.638022 0.015625)"/>
      <use xlink:href="#DejaVuSans-Oblique-6b" transform="translate(718.651694 0.015625)"/>
      <use xlink:href="#DejaVuSans-Oblique-67" transform="translate(776.561851 0.015625)"/>
      <use xlink:href="#DejaVuSans-2f" transform="translate(840.038413 0.015625)"/>
      <use xlink:href="#DejaVuSans-Oblique-6d" transform="translate(873.729819 0.015625)"/>
      <use xlink:href="#DejaVuSans-Oblique-6f" transform="translate(971.141929 0.015625)"/>
      <use xlink:href="#DejaVuSans-Oblique-6c" transform="translate(1032.323569 0.015625)"/>
      <use xlink:href="#DejaVuSans-29" transform="translate(1060.106772 0.015625)"/>
     </g>
    </g>
   </g>
   <g id="matplotlib.axis_2">
    <g id="ytick_1">
     <g id="line2d_6">
      <defs>
       <path id="mc02708035d" d="M 0 0 
L -3.5 0 
" style="stroke: #000000; stroke-width: 0.8"/>
      </defs>
      <g>
       <use xlink:href="#mc02708035d" x="45.774688" y="191.506031" style="stroke: #000000; stroke-width: 0.8"/>
      </g>
     </g>
     <g id="text_7">
      <!-- 0.00 -->
      <g transform="translate(21.259844 194.727047) scale(0.09 -0.09)">
       <defs>
        <path id="ArialMT-2e" d="M 581 0 
L 581 641 
L 1222 641 
L 1222 0 
L 581 0 
z
" transform="scale(0.015625)"/>
       </defs>
       <use xlink:href="#ArialMT-30"/>
       <use xlink:href="#ArialMT-2e" transform="translate(55.615234 0)"/>
       <use xlink:href="#ArialMT-30" transform="translate(83.398438 0)"/>
       <use xlink:href="#ArialMT-30" transform="translate(139.013672 0)"/>
      </g>
     </g>
    </g>
    <g id="ytick_2">
     <g id="line2d_7">
      <g>
       <use xlink:href="#mc02708035d" x="45.774688" y="154.212349" style="stroke: #000000; stroke-width: 0.8"/>
      </g>
     </g>
     <g id="text_8">
      <!-- 0.01 -->
      <g transform="translate(21.259844 157.433364) scale(0.09 -0.09)">
       <use xlink:href="#ArialMT-30"/>
       <use xlink:href="#ArialMT-2e" transform="translate(55.615234 0)"/>
       <use xlink:href="#ArialMT-30" transform="translate(83.398438 0)"/>
       <use xlink:href="#ArialMT-31" transform="translate(139.013672 0)"/>
      </g>
     </g>
    </g>
    <g id="ytick_3">
     <g id="line2d_8">
      <g>
       <use xlink:href="#mc02708035d" x="45.774688" y="116.918666" style="stroke: #000000; stroke-width: 0.8"/>
      </g>
     </g>
     <g id="text_9">
      <!-- 0.02 -->
      <g transform="translate(21.259844 120.139682) scale(0.09 -0.09)">
       <use xlink:href="#ArialMT-30"/>
       <use xlink:href="#ArialMT-2e" transform="translate(55.615234 0)"/>
       <use xlink:href="#ArialMT-30" transform="translate(83.398438 0)"/>
       <use xlink:href="#ArialMT-32" transform="translate(139.013672 0)"/>
      </g>
     </g>
    </g>
    <g id="ytick_4">
     <g id="line2d_9">
      <g>
       <use xlink:href="#mc02708035d" x="45.774688" y="79.624983" style="stroke: #000000; stroke-width: 0.8"/>
      </g>
     </g>
     <g id="text_10">
      <!-- 0.03 -->
      <g transform="translate(21.259844 82.845999) scale(0.09 -0.09)">
       <use xlink:href="#ArialMT-30"/>
       <use xlink:href="#ArialMT-2e" transform="translate(55.615234 0)"/>
       <use xlink:href="#ArialMT-30" transform="translate(83.398438 0)"/>
       <use xlink:href="#ArialMT-33" transform="translate(139.013672 0)"/>
      </g>
     </g>
    </g>
    <g id="ytick_5">
     <g id="line2d_10">
      <g>
       <use xlink:href="#mc02708035d" x="45.774688" y="42.331301" style="stroke: #000000; stroke-width: 0.8"/>
      </g>
     </g>
     <g id="text_11">
      <!-- 0.04 -->
      <g transform="translate(21.259844 45.552316) scale(0.09 -0.09)">
       <use xlink:href="#ArialMT-30"/>
       <use xlink:href="#ArialMT-2e" transform="translate(55.615234 0)"/>
       <use xlink:href="#ArialMT-30" transform="translate(83.398438 0)"/>
       <use xlink:href="#ArialMT-34" transform="translate(139.013672 0)"/>
      </g>
     </g>
    </g>
    <g id="text_12">
     <!-- $\bf{number\ fraction}\ \it{(-)}$ -->
     <g transform="translate(15.073594 166.294031) rotate(-90) scale(0.11 -0.11)">
      <defs>
       <path id="DejaVuSans-Bold-6e" d="M 4056 2131 
L 4056 0 
L 2931 0 
L 2931 347 
L 2931 1631 
Q 2931 2084 2911 2256 
Q 2891 2428 2841 2509 
Q 2775 2619 2662 2680 
Q 2550 2741 2406 2741 
Q 2056 2741 1856 2470 
Q 1656 2200 1656 1722 
L 1656 0 
L 538 0 
L 538 3500 
L 1656 3500 
L 1656 2988 
Q 1909 3294 2193 3439 
Q 2478 3584 2822 3584 
Q 3428 3584 3742 3212 
Q 4056 2841 4056 2131 
z
" transform="scale(0.015625)"/>
       <path id="DejaVuSans-Bold-75" d="M 500 1363 
L 500 3500 
L 1625 3500 
L 1625 3150 
Q 1625 2866 1622 2436 
Q 1619 2006 1619 1863 
Q 1619 1441 1641 1255 
Q 1663 1069 1716 984 
Q 1784 875 1895 815 
Q 2006 756 2150 756 
Q 2500 756 2700 1025 
Q 2900 1294 2900 1772 
L 2900 3500 
L 4019 3500 
L 4019 0 
L 2900 0 
L 2900 506 
Q 2647 200 2364 54 
Q 2081 -91 1741 -91 
Q 1134 -91 817 281 
Q 500 653 500 1363 
z
" transform="scale(0.015625)"/>
       <path id="DejaVuSans-Bold-62" d="M 2400 722 
Q 2759 722 2948 984 
Q 3138 1247 3138 1747 
Q 3138 2247 2948 2509 
Q 2759 2772 2400 2772 
Q 2041 2772 1848 2508 
Q 1656 2244 1656 1747 
Q 1656 1250 1848 986 
Q 2041 722 2400 722 
z
M 1656 2988 
Q 1888 3294 2169 3439 
Q 2450 3584 2816 3584 
Q 3463 3584 3878 3070 
Q 4294 2556 4294 1747 
Q 4294 938 3878 423 
Q 3463 -91 2816 -91 
Q 2450 -91 2169 54 
Q 1888 200 1656 506 
L 1656 0 
L 538 0 
L 538 4863 
L 1656 4863 
L 1656 2988 
z
" transform="scale(0.015625)"/>
       <path id="DejaVuSans-Bold-65" d="M 4031 1759 
L 4031 1441 
L 1416 1441 
Q 1456 1047 1700 850 
Q 1944 653 2381 653 
Q 2734 653 3104 758 
Q 3475 863 3866 1075 
L 3866 213 
Q 3469 63 3072 -14 
Q 2675 -91 2278 -91 
Q 1328 -91 801 392 
Q 275 875 275 1747 
Q 275 2603 792 3093 
Q 1309 3584 2216 3584 
Q 3041 3584 3536 3087 
Q 4031 2591 4031 1759 
z
M 2881 2131 
Q 2881 2450 2695 2645 
Q 2509 2841 2209 2841 
Q 1884 2841 1681 2658 
Q 1478 2475 1428 2131 
L 2881 2131 
z
" transform="scale(0.015625)"/>
       <path id="DejaVuSans-Bold-66" d="M 2841 4863 
L 2841 4128 
L 2222 4128 
Q 1984 4128 1890 4042 
Q 1797 3956 1797 3744 
L 1797 3500 
L 2753 3500 
L 2753 2700 
L 1797 2700 
L 1797 0 
L 678 0 
L 678 2700 
L 122 2700 
L 122 3500 
L 678 3500 
L 678 3744 
Q 678 4316 997 4589 
Q 1316 4863 1984 4863 
L 2841 4863 
z
" transform="scale(0.015625)"/>
       <path id="DejaVuSans-Bold-63" d="M 3366 3391 
L 3366 2478 
Q 3138 2634 2908 2709 
Q 2678 2784 2431 2784 
Q 1963 2784 1702 2511 
Q 1441 2238 1441 1747 
Q 1441 1256 1702 982 
Q 1963 709 2431 709 
Q 2694 709 2930 787 
Q 3166 866 3366 1019 
L 3366 103 
Q 3103 6 2833 -42 
Q 2563 -91 2291 -91 
Q 1344 -91 809 395 
Q 275 881 275 1747 
Q 275 2613 809 3098 
Q 1344 3584 2291 3584 
Q 2566 3584 2833 3536 
Q 3100 3488 3366 3391 
z
" transform="scale(0.015625)"/>
       <path id="DejaVuSans-Bold-74" d="M 1759 4494 
L 1759 3500 
L 2913 3500 
L 2913 2700 
L 1759 2700 
L 1759 1216 
Q 1759 972 1856 886 
Q 1953 800 2241 800 
L 2816 800 
L 2816 0 
L 1856 0 
Q 1194 0 917 276 
Q 641 553 641 1216 
L 641 2700 
L 84 2700 
L 84 3500 
L 641 3500 
L 641 4494 
L 1759 4494 
z
" transform="scale(0.015625)"/>
       <path id="DejaVuSans-Bold-69" d="M 538 3500 
L 1656 3500 
L 1656 0 
L 538 0 
L 538 3500 
z
M 538 4863 
L 1656 4863 
L 1656 3950 
L 538 3950 
L 538 4863 
z
" transform="scale(0.015625)"/>
       <path id="DejaVuSans-2212" d="M 678 2272 
L 4684 2272 
L 4684 1741 
L 678 1741 
L 678 2272 
z
" transform="scale(0.015625)"/>
      </defs>
      <use xlink:href="#DejaVuSans-Bold-6e" transform="translate(0 0.015625)"/>
      <use xlink:href="#DejaVuSans-Bold-75" transform="translate(71.191406 0.015625)"/>
      <use xlink:href="#DejaVuSans-Bold-6d" transform="translate(142.382812 0.015625)"/>
      <use xlink:href="#DejaVuSans-Bold-62" transform="translate(246.582031 0.015625)"/>
      <use xlink:href="#DejaVuSans-Bold-65" transform="translate(318.164062 0.015625)"/>
      <use xlink:href="#DejaVuSans-Bold-72" transform="translate(385.986328 0.015625)"/>
      <use xlink:href="#DejaVuSans-Bold-66" transform="translate(467.773113 0.015625)"/>
      <use xlink:href="#DejaVuSans-Bold-72" transform="translate(511.278972 0.015625)"/>
      <use xlink:href="#DejaVuSans-Bold-61" transform="translate(560.595378 0.015625)"/>
      <use xlink:href="#DejaVuSans-Bold-63" transform="translate(628.075847 0.015625)"/>
      <use xlink:href="#DejaVuSans-Bold-74" transform="translate(687.353191 0.015625)"/>
      <use xlink:href="#DejaVuSans-Bold-69" transform="translate(735.155925 0.015625)"/>
      <use xlink:href="#DejaVuSans-Bold-6f" transform="translate(769.433269 0.015625)"/>
      <use xlink:href="#DejaVuSans-Bold-6e" transform="translate(838.134441 0.015625)"/>
      <use xlink:href="#DejaVuSans-28" transform="translate(941.796226 0.015625)"/>
      <use xlink:href="#DejaVuSans-2212" transform="translate(980.809897 0.015625)"/>
      <use xlink:href="#DejaVuSans-29" transform="translate(1064.59896 0.015625)"/>
     </g>
    </g>
   </g>
   <g id="line2d_11">
    <path d="M 0 0 
" clip-path="url(#p618e95eecf)" style="fill: none; stroke: #46085c; stroke-width: 1.5; stroke-linecap: square"/>
   </g>
   <g id="line2d_12">
    <path d="M 46.985548 191.333928 
L 48.196408 191.049215 
L 49.407268 190.4643 
L 51.828988 188.537492 
L 54.250708 186.651551 
L 55.461568 182.504058 
L 61.515868 175.607314 
L 65.148448 171.215275 
L 68.781028 166.833991 
L 72.413608 162.809334 
L 76.046188 159.241021 
L 80.889628 155.184816 
L 84.522208 152.781501 
L 86.943928 151.214562 
L 89.365648 149.541343 
L 95.419948 145.659084 
L 103.895968 139.692077 
L 105.106828 139.03929 
L 106.317688 138.524899 
L 108.739408 136.82293 
L 109.950268 136.258688 
L 111.161128 136.129913 
L 113.582848 134.98927 
L 116.004568 134.823403 
L 117.215428 134.592164 
L 120.848008 135.026945 
L 123.269728 135.794922 
L 125.691448 136.837907 
L 128.113168 138.185345 
L 130.534888 139.797554 
L 134.167468 142.633772 
L 135.378328 143.583682 
L 145.065208 152.60412 
L 146.276068 153.878832 
L 147.486928 154.951482 
L 148.697788 156.259804 
L 149.908648 157.288365 
L 151.119508 158.599416 
L 153.541228 160.888378 
L 160.806388 167.522327 
L 162.017248 168.459549 
L 164.438968 170.525568 
L 165.649828 171.419054 
L 166.860688 172.478118 
L 168.071548 173.197678 
L 169.282408 174.18525 
L 170.493268 175.028696 
L 171.704128 175.708391 
L 172.914988 176.778445 
L 174.125848 177.349171 
L 175.336708 178.08039 
L 176.547568 178.942549 
L 177.758428 179.360873 
L 178.969288 180.17575 
L 180.180148 180.851363 
L 181.391008 181.195397 
L 182.601867 182.019431 
L 183.812728 182.543799 
L 185.023588 182.906504 
L 186.234448 183.554037 
L 193.499608 186.039961 
L 198.343048 187.268516 
L 205.608208 188.68297 
L 212.873368 189.629958 
L 220.138528 190.278805 
L 233.457988 190.949411 
L 234.461953 190.983293 
L 234.461953 190.983293 
" clip-path="url(#p618e95eecf)" style="fill: none; stroke: #471063; stroke-width: 1.5; stroke-linecap: square"/>
   </g>
   <g id="line2d_13">
    <path d="M 46.985548 191.196882 
L 48.196408 190.599216 
L 49.407268 189.508551 
L 51.828988 186.290587 
L 54.250708 183.163088 
L 55.461568 178.738118 
L 61.515868 169.60803 
L 67.570168 160.925722 
L 71.202748 156.298395 
L 73.624468 153.647497 
L 76.046188 151.294095 
L 79.678768 148.412367 
L 80.889628 147.563768 
L 83.311348 146.266668 
L 88.154788 144.066522 
L 90.576508 143.140813 
L 94.209088 141.903816 
L 105.106828 137.937375 
L 106.317688 137.763306 
L 108.739408 136.794721 
L 109.950268 136.554579 
L 111.161128 136.695026 
L 113.582848 136.16459 
L 116.004568 136.468827 
L 117.215428 136.476343 
L 122.058868 137.951884 
L 124.480588 139.106602 
L 126.902308 140.472965 
L 129.324027 142.074789 
L 132.956608 144.790696 
L 140.221768 151.053268 
L 143.854348 154.449032 
L 145.065208 155.497773 
L 146.276068 156.699467 
L 147.486928 157.71836 
L 148.697788 158.942922 
L 149.908648 159.916142 
L 151.119508 161.136779 
L 153.541228 163.274109 
L 160.806388 169.420248 
L 163.228108 171.289649 
L 166.860688 173.980414 
L 168.071548 174.647246 
L 170.493268 176.323516 
L 171.704128 176.950993 
L 172.914988 177.922676 
L 174.125848 178.45167 
L 176.547568 179.905856 
L 177.758428 180.296929 
L 180.180148 181.65432 
L 181.391008 181.97707 
L 182.601867 182.723132 
L 183.812728 183.203942 
L 185.023588 183.541028 
L 186.234448 184.128977 
L 193.499608 186.408408 
L 198.343048 187.539374 
L 205.608208 188.845378 
L 212.873368 189.726513 
L 220.138528 190.334261 
L 233.457988 190.96866 
L 234.461953 191.000856 
L 234.461953 191.000856 
" clip-path="url(#p618e95eecf)" style="fill: none; stroke: #481769; stroke-width: 1.5; stroke-linecap: square"/>
   </g>
   <g id="line2d_14">
    <path d="M 46.985548 191.018266 
L 48.196408 189.978694 
L 49.407268 188.246085 
L 54.250708 179.156467 
L 55.461568 174.418093 
L 59.094148 167.553054 
L 63.937588 159.370579 
L 67.570168 153.89961 
L 69.991888 150.670158 
L 72.413608 147.825893 
L 74.835328 145.425194 
L 76.046188 144.331169 
L 78.467908 142.525591 
L 80.889628 141.096688 
L 83.311348 140.150527 
L 85.733068 139.490254 
L 89.365648 138.654818 
L 94.209088 138.163408 
L 105.106828 137.071256 
L 106.317688 137.175873 
L 108.739408 136.809281 
L 109.950268 136.834767 
L 111.161128 137.195092 
L 113.582848 137.165276 
L 116.004568 137.853921 
L 117.215428 138.057135 
L 122.058868 140.09222 
L 124.480588 141.440966 
L 126.902308 142.952842 
L 130.534888 145.552268 
L 135.378328 149.424302 
L 141.432628 154.733698 
L 143.854348 156.877848 
L 147.486928 159.999635 
L 148.697788 161.154283 
L 149.908648 162.081332 
L 151.119508 163.22663 
L 154.752088 166.221895 
L 160.806388 170.978867 
L 163.228108 172.717067 
L 166.860688 175.211404 
L 168.071548 175.834729 
L 170.493268 177.383044 
L 171.704128 177.967482 
L 172.914988 178.857774 
L 174.125848 179.35246 
L 176.547568 180.691755 
L 177.758428 181.060573 
L 180.180148 182.308183 
L 181.391008 182.613641 
L 182.601867 183.295344 
L 183.812728 183.740364 
L 185.023588 184.056557 
L 186.234448 184.595422 
L 193.499608 186.705621 
L 198.343048 187.756905 
L 206.819068 189.127062 
L 214.084228 189.912189 
L 220.138528 190.377243 
L 233.457988 190.983039 
L 234.461953 191.01392 
L 234.461953 191.01392 
" clip-path="url(#p618e95eecf)" style="fill: none; stroke: #481d6f; stroke-width: 1.5; stroke-linecap: square"/>
   </g>
   <g id="line2d_15">
    <path d="M 46.985548 190.794541 
L 48.196408 189.183069 
L 49.407268 186.690136 
L 54.250708 174.767831 
L 55.461568 169.716941 
L 57.883288 164.259761 
L 60.305008 159.383247 
L 62.726728 154.922225 
L 65.148448 150.873772 
L 67.570168 147.245515 
L 69.991888 144.076546 
L 72.413608 141.367256 
L 74.835328 139.159074 
L 76.046188 138.186124 
L 78.467908 136.653967 
L 80.889628 135.548052 
L 83.311348 134.958718 
L 85.733068 134.699301 
L 89.365648 134.559132 
L 92.998228 134.943248 
L 103.895968 136.132658 
L 107.528548 136.803755 
L 108.739408 136.848874 
L 109.950268 137.094209 
L 111.161128 137.635853 
L 113.582848 138.020736 
L 116.004568 139.026714 
L 117.215428 139.391874 
L 123.269728 142.618609 
L 126.902308 145.027406 
L 130.534888 147.730561 
L 135.378328 151.629452 
L 139.010908 154.760563 
L 142.643488 157.801678 
L 146.276068 160.959647 
L 147.486928 161.895673 
L 148.697788 162.991479 
L 149.908648 163.879721 
L 151.119508 164.96171 
L 162.017248 173.031139 
L 164.438968 174.678114 
L 170.493268 178.25671 
L 171.704128 178.805404 
L 172.914988 179.627755 
L 175.336708 180.670684 
L 176.547568 181.337697 
L 177.758428 181.688237 
L 180.180148 182.844526 
L 181.391008 183.135872 
L 182.601867 183.763979 
L 187.445308 185.315758 
L 188.656168 185.614378 
L 189.867028 186.034093 
L 197.132188 187.698266 
L 201.975628 188.560764 
L 209.240788 189.496685 
L 215.295088 190.074167 
L 222.560248 190.531975 
L 229.825408 190.87566 
L 234.461953 191.023582 
L 234.461953 191.023582 
" clip-path="url(#p618e95eecf)" style="fill: none; stroke: #482475; stroke-width: 1.5; stroke-linecap: square"/>
   </g>
   <g id="line2d_16">
    <path d="M 46.985548 190.5239 
L 48.196408 188.215718 
L 49.407268 184.865655 
L 53.039848 173.418643 
L 54.250708 170.114398 
L 55.461568 164.772502 
L 57.883288 158.620236 
L 60.305008 153.303844 
L 62.726728 148.626168 
L 65.148448 144.533553 
L 67.570168 140.985979 
L 69.991888 137.982168 
L 71.202748 136.65157 
L 73.624468 134.447846 
L 76.046188 132.726605 
L 78.467908 131.506359 
L 80.889628 130.739748 
L 82.100488 130.563464 
L 84.522208 130.521458 
L 88.154788 130.880712 
L 90.576508 131.412773 
L 105.106828 135.824065 
L 106.317688 136.351741 
L 109.950268 137.330822 
L 111.161128 138.023335 
L 113.582848 138.754845 
L 116.004568 140.025103 
L 117.215428 140.525469 
L 124.480588 145.0457 
L 128.113168 147.677864 
L 132.956608 151.496195 
L 141.432628 158.582873 
L 145.065208 161.533939 
L 148.697788 164.529 
L 149.908648 165.384404 
L 151.119508 166.412783 
L 160.806388 173.344532 
L 169.282408 178.354252 
L 172.914988 180.266149 
L 175.336708 181.250046 
L 176.547568 181.872208 
L 177.758428 182.20767 
L 180.180148 183.287401 
L 181.391008 183.567189 
L 182.601867 184.150299 
L 187.445308 185.609957 
L 192.288748 186.812871 
L 194.710468 187.388937 
L 205.608208 189.161046 
L 212.873368 189.910084 
L 220.138528 190.436518 
L 233.457988 191.001611 
L 234.461953 191.030657 
L 234.461953 191.030657 
" clip-path="url(#p618e95eecf)" style="fill: none; stroke: #472a7a; stroke-width: 1.5; stroke-linecap: square"/>
   </g>
   <g id="line2d_17">
    <path d="M 46.985548 190.206046 
L 48.196408 187.085674 
L 49.407268 182.803608 
L 51.828988 173.377218 
L 53.039848 169.116134 
L 54.250708 165.292512 
L 55.461568 159.69167 
L 57.883288 152.964238 
L 59.094148 149.992976 
L 61.515868 144.810973 
L 63.937588 140.417116 
L 66.359308 136.720676 
L 68.781028 133.663411 
L 71.202748 131.159087 
L 73.624468 129.249516 
L 76.046188 127.846394 
L 78.467908 126.958139 
L 80.889628 126.535361 
L 82.100488 126.530866 
L 84.522208 126.837704 
L 88.154788 127.751042 
L 90.576508 128.661493 
L 105.106828 135.368101 
L 106.317688 136.057968 
L 109.950268 137.544227 
L 111.161128 138.363324 
L 113.582848 139.386989 
L 116.004568 140.879152 
L 117.215428 141.493333 
L 125.691448 147.331109 
L 130.534888 151.114742 
L 148.697788 165.824289 
L 149.908648 166.651739 
L 151.119508 167.634401 
L 160.806388 174.247094 
L 169.282408 178.994512 
L 172.914988 180.798763 
L 175.336708 181.733009 
L 176.547568 182.317238 
L 177.758428 182.640212 
L 180.180148 183.655306 
L 181.391008 183.925604 
L 182.601867 184.470653 
L 187.445308 185.853058 
L 198.343048 188.191999 
L 206.819068 189.360614 
L 214.084228 190.044457 
L 220.138528 190.456607 
L 233.457988 191.007336 
L 234.461953 191.035751 
L 234.461953 191.035751 
" clip-path="url(#p618e95eecf)" style="fill: none; stroke: #46307e; stroke-width: 1.5; stroke-linecap: square"/>
   </g>
   <g id="line2d_18">
    <path d="M 46.985548 189.841885 
L 48.196408 185.805561 
L 53.039848 164.671008 
L 54.250708 160.379026 
L 55.461568 154.555713 
L 57.883288 147.365295 
L 59.094148 144.26163 
L 61.515868 138.969632 
L 63.937588 134.63479 
L 66.359308 131.116143 
L 68.781028 128.313285 
L 71.202748 126.111618 
L 73.624468 124.525911 
L 76.046188 123.459558 
L 78.467908 122.91114 
L 80.889628 122.829097 
L 82.100488 122.991362 
L 84.522208 123.629631 
L 88.154788 125.051972 
L 90.576508 126.301283 
L 105.106828 134.989861 
L 106.317688 135.817493 
L 109.950268 137.735005 
L 111.161128 138.661138 
L 113.582848 139.932967 
L 116.004568 141.612877 
L 117.215428 142.323599 
L 128.113168 150.47887 
L 146.276068 165.102552 
L 149.908648 167.725621 
L 152.330368 169.47661 
L 155.962948 171.955071 
L 160.806388 175.008989 
L 169.282408 179.532975 
L 172.914988 181.245649 
L 175.336708 182.137902 
L 176.547568 182.689834 
L 177.758428 183.002436 
L 180.180148 183.962604 
L 181.391008 184.225097 
L 182.601867 184.737729 
L 187.445308 186.054974 
L 198.343048 188.287536 
L 206.819068 189.410321 
L 214.084228 190.071558 
L 221.349388 190.531089 
L 234.461953 191.03932 
L 234.461953 191.03932 
" clip-path="url(#p618e95eecf)" style="fill: none; stroke: #453781; stroke-width: 1.5; stroke-linecap: square"/>
   </g>
   <g id="line2d_19">
    <path d="M 46.985548 189.433223 
L 48.196408 184.389954 
L 51.828988 165.532028 
L 53.039848 160.142556 
L 54.250708 155.433946 
L 55.461568 149.425413 
L 56.672428 145.444488 
L 57.883288 141.873501 
L 59.094148 138.683623 
L 61.515868 133.361504 
L 63.937588 129.147659 
L 66.359308 125.853382 
L 67.570168 124.51058 
L 68.781028 123.339229 
L 71.202748 121.464218 
L 73.624468 120.218109 
L 76.046188 119.496 
L 78.467908 119.287175 
L 80.889628 119.537925 
L 83.311348 120.29634 
L 85.733068 121.412097 
L 88.154788 122.703527 
L 90.576508 124.258068 
L 107.528548 136.371382 
L 109.950268 137.904254 
L 111.161128 138.921556 
L 113.582848 140.405708 
L 116.004568 142.245598 
L 117.215428 143.038792 
L 135.378328 157.519449 
L 139.010908 160.489965 
L 148.697788 167.85762 
L 152.330368 170.332939 
L 155.962948 172.722097 
L 160.806388 175.655613 
L 169.282408 179.988212 
L 172.914988 181.622536 
L 175.336708 182.479091 
L 176.547568 183.003362 
L 177.758428 183.307326 
L 180.180148 184.220544 
L 181.391008 184.476612 
L 182.601867 184.961463 
L 187.445308 186.223456 
L 198.343048 188.366122 
L 206.819068 189.4505 
L 215.295088 190.185407 
L 223.771108 190.661035 
L 232.247128 190.972963 
L 234.461953 191.041709 
L 234.461953 191.041709 
" clip-path="url(#p618e95eecf)" style="fill: none; stroke: #433d84; stroke-width: 1.5; stroke-linecap: square"/>
   </g>
   <g id="line2d_20">
    <path d="M 46.985548 188.98249 
L 48.196408 182.854185 
L 51.828988 161.461224 
L 53.039848 155.578345 
L 54.250708 150.50331 
L 55.461568 144.345515 
L 56.672428 140.195423 
L 57.883288 136.522038 
L 59.094148 133.285176 
L 60.305008 130.495753 
L 61.515868 127.99812 
L 62.726728 125.85446 
L 63.937588 123.95275 
L 65.148448 122.335089 
L 66.359308 120.915676 
L 67.570168 119.722955 
L 68.781028 118.71186 
L 69.991888 117.873128 
L 71.202748 117.176286 
L 72.413608 116.663395 
L 73.624468 116.275956 
L 76.046188 115.89807 
L 78.467908 116.023307 
L 80.889628 116.595931 
L 83.311348 117.656868 
L 85.733068 119.063413 
L 88.154788 120.643412 
L 90.576508 122.474303 
L 106.317688 135.447729 
L 109.950268 138.053336 
L 111.161128 139.148817 
L 113.582848 140.815859 
L 116.004568 142.792975 
L 117.215428 143.657096 
L 120.848008 146.562606 
L 139.010908 161.439917 
L 148.697788 168.65881 
L 152.330368 171.065586 
L 155.962948 173.377522 
L 160.806388 176.207092 
L 169.282408 180.374927 
L 172.914988 181.941866 
L 175.336708 182.767937 
L 176.547568 183.268385 
L 177.758428 183.565146 
L 180.180148 184.438014 
L 181.391008 184.688794 
L 182.601867 185.149696 
L 187.445308 186.364614 
L 198.343048 188.430949 
L 206.819068 189.482998 
L 215.295088 190.200008 
L 223.771108 190.667513 
L 232.247128 190.975629 
L 234.461953 191.04318 
L 234.461953 191.04318 
" clip-path="url(#p618e95eecf)" style="fill: none; stroke: #414287; stroke-width: 1.5; stroke-linecap: square"/>
   </g>
   <g id="line2d_21">
    <path d="M 46.985548 188.492515 
L 48.196408 181.213509 
L 50.618128 164.708689 
L 51.828988 157.345082 
L 53.039848 151.01593 
L 54.250708 145.621874 
L 55.461568 139.34837 
L 56.672428 135.070346 
L 57.883288 131.331929 
L 59.094148 128.081079 
L 60.305008 125.316303 
L 61.515868 122.881882 
L 62.726728 120.827558 
L 63.937588 119.041001 
L 65.148448 117.555053 
L 66.359308 116.283657 
L 67.570168 115.248368 
L 68.781028 114.402693 
L 69.991888 113.734268 
L 71.202748 113.21151 
L 72.413608 112.87119 
L 73.624468 112.656635 
L 76.046188 112.617976 
L 78.467908 113.068368 
L 80.889628 113.950225 
L 83.311348 115.298245 
L 85.733068 116.976782 
L 89.365648 119.831836 
L 92.998228 123.150504 
L 102.685108 131.999972 
L 108.739408 137.175786 
L 109.950268 138.183714 
L 111.161128 139.346666 
L 114.793708 142.245584 
L 129.324027 154.374614 
L 136.589188 160.345475 
L 145.065208 166.762665 
L 148.697788 169.348044 
L 152.330368 171.69524 
L 155.962948 173.940099 
L 160.806388 176.679519 
L 168.071548 180.13802 
L 170.493268 181.205503 
L 171.704128 181.631161 
L 172.914988 182.213564 
L 175.336708 183.013499 
L 176.547568 183.493324 
L 177.758428 183.784073 
L 180.180148 184.622089 
L 181.391008 184.868522 
L 182.601867 185.308671 
L 187.445308 186.483304 
L 197.132188 188.302581 
L 203.186488 189.11665 
L 210.451648 189.840929 
L 217.716808 190.358956 
L 227.403688 190.8175 
L 234.461953 191.043935 
L 234.461953 191.043935 
" clip-path="url(#p618e95eecf)" style="fill: none; stroke: #3f4889; stroke-width: 1.5; stroke-linecap: square"/>
   </g>
   <g id="line2d_22">
    <path d="M 46.985548 187.966346 
L 48.196408 179.48257 
L 50.618128 161.143558 
L 51.828988 153.214536 
L 53.039848 146.484531 
L 54.250708 140.815411 
L 55.461568 134.456842 
L 56.672428 130.086998 
L 57.883288 126.315489 
L 59.094148 123.078199 
L 60.305008 120.36159 
L 61.515868 118.009323 
L 62.726728 116.059674 
L 63.937588 114.399882 
L 65.148448 113.054437 
L 66.359308 111.937046 
L 67.570168 111.063109 
L 68.781028 110.384878 
L 69.991888 109.887231 
L 71.202748 109.537601 
L 72.413608 109.368029 
L 73.624468 109.323466 
L 76.046188 109.615802 
L 78.467908 110.380369 
L 80.889628 111.557943 
L 83.311348 113.177788 
L 85.733068 115.110807 
L 89.365648 118.328363 
L 94.209088 123.206141 
L 101.474248 130.50636 
L 105.106828 133.960589 
L 106.317688 135.17295 
L 109.950268 138.29687 
L 111.161128 139.518398 
L 114.793708 142.607309 
L 119.637148 146.812123 
L 124.480588 150.977275 
L 134.167468 159.125187 
L 142.643488 165.664096 
L 146.276068 168.294562 
L 154.752088 173.720942 
L 159.595528 176.42487 
L 163.228108 178.291068 
L 166.860688 179.989601 
L 169.282408 180.987435 
L 172.914988 182.445608 
L 175.336708 183.22305 
L 176.547568 183.684939 
L 177.758428 183.97067 
L 180.180148 184.778446 
L 181.391008 185.021313 
L 183.812728 185.748007 
L 186.234448 186.328812 
L 193.499608 187.781808 
L 200.764768 188.85219 
L 206.819068 189.530465 
L 215.295088 190.219985 
L 223.771108 190.675518 
L 232.247128 190.978342 
L 234.461953 191.044129 
L 234.461953 191.044129 
" clip-path="url(#p618e95eecf)" style="fill: none; stroke: #3d4e8a; stroke-width: 1.5; stroke-linecap: square"/>
   </g>
   <g id="line2d_23">
    <path d="M 46.985548 187.407113 
L 51.828988 149.094416 
L 53.039848 142.006558 
L 55.461568 129.686569 
L 56.672428 125.256302 
L 57.883288 121.478826 
L 59.094148 118.277958 
L 60.305008 115.628559 
L 61.515868 113.373295 
L 62.726728 111.539885 
L 63.937588 110.015084 
L 65.148448 108.815847 
L 66.359308 107.855693 
L 67.570168 107.144532 
L 68.781028 106.633535 
L 69.991888 106.305139 
L 71.202748 106.125925 
L 72.413608 106.123706 
L 73.624468 106.244904 
L 76.046188 106.857965 
L 78.467908 107.924549 
L 80.889628 109.384012 
L 83.311348 111.260875 
L 85.733068 113.432118 
L 89.365648 116.984396 
L 95.419948 123.582436 
L 101.474248 130.08778 
L 105.106828 133.778089 
L 107.528548 136.179592 
L 109.950268 138.394245 
L 111.161128 139.666916 
L 117.215428 145.065821 
L 120.848008 148.327523 
L 126.902308 153.653927 
L 134.167468 159.763427 
L 141.432628 165.400148 
L 148.697788 170.459554 
L 158.384668 176.163226 
L 163.228108 178.609473 
L 166.860688 180.259796 
L 169.282408 181.230317 
L 174.125848 182.998135 
L 180.180148 184.911667 
L 181.391008 185.15162 
L 183.812728 185.854428 
L 188.656168 186.892795 
L 191.077888 187.393055 
L 200.764768 188.882126 
L 206.819068 189.547501 
L 215.295088 190.226499 
L 224.981968 190.733697 
L 234.461953 191.043884 
L 234.461953 191.043884 
" clip-path="url(#p618e95eecf)" style="fill: none; stroke: #3a538b; stroke-width: 1.5; stroke-linecap: square"/>
   </g>
   <g id="line2d_24">
    <path d="M 46.985548 186.817933 
L 50.618128 153.937476 
L 51.828988 145.004418 
L 53.039848 137.598914 
L 55.461568 125.04773 
L 56.672428 120.584181 
L 57.883288 116.823662 
L 59.094148 113.67808 
L 60.305008 111.111198 
L 61.515868 108.964444 
L 62.726728 107.255822 
L 63.937588 105.871592 
L 65.148448 104.821912 
L 66.359308 104.02018 
L 67.570168 103.471408 
L 68.781028 103.125852 
L 69.991888 102.963803 
L 71.202748 102.951119 
L 72.413608 103.111831 
L 73.624468 103.393711 
L 76.046188 104.316028 
L 78.467908 105.671899 
L 80.889628 107.39949 
L 83.311348 109.519168 
L 86.943928 113.166567 
L 89.365648 115.775687 
L 105.106828 133.61392 
L 107.528548 136.140907 
L 109.950268 138.477214 
L 111.161128 139.794776 
L 128.113168 155.234312 
L 134.167468 160.320479 
L 141.432628 165.920904 
L 148.697788 170.90857 
L 158.384668 176.497887 
L 163.228108 178.884941 
L 166.860688 180.49305 
L 171.704128 182.294565 
L 172.914988 182.815366 
L 175.336708 183.556567 
L 176.547568 183.989052 
L 177.758428 184.267105 
L 180.180148 185.025479 
L 181.391008 185.263062 
L 183.812728 185.944983 
L 188.656168 186.960461 
L 191.077888 187.448099 
L 200.764768 188.906726 
L 206.819068 189.561116 
L 215.295088 190.231264 
L 224.981968 190.734324 
L 234.461953 191.043295 
L 234.461953 191.043295 
" clip-path="url(#p618e95eecf)" style="fill: none; stroke: #38598c; stroke-width: 1.5; stroke-linecap: square"/>
   </g>
   <g id="line2d_25">
    <path d="M 46.985548 186.201839 
L 50.618128 150.334471 
L 51.828988 140.959981 
L 53.039848 133.274095 
L 55.461568 120.546385 
L 56.672428 116.072925 
L 57.883288 112.348643 
L 59.094148 109.273823 
L 60.305008 106.801663 
L 61.515868 104.772202 
L 62.726728 103.194504 
L 63.937588 101.954359 
L 65.148448 101.05579 
L 66.359308 100.412144 
L 67.570168 100.024066 
L 68.781028 99.841054 
L 69.991888 99.841519 
L 71.202748 99.990716 
L 72.413608 100.309294 
L 73.624468 100.746278 
L 76.046188 101.965755 
L 78.467908 103.598028 
L 80.889628 105.580293 
L 83.311348 107.929282 
L 86.943928 111.885307 
L 90.576508 116.152044 
L 99.052528 126.509331 
L 101.474248 129.378289 
L 108.739408 137.295263 
L 114.793708 143.43559 
L 119.637148 148.066297 
L 130.534888 157.789798 
L 135.378328 161.756423 
L 139.010908 164.593129 
L 146.276068 169.73177 
L 153.541228 174.190781 
L 158.384668 176.788969 
L 163.228108 179.123967 
L 166.860688 180.694994 
L 171.704128 182.457709 
L 172.914988 182.962655 
L 175.336708 183.68925 
L 176.547568 184.109642 
L 177.758428 184.384795 
L 180.180148 185.12293 
L 181.391008 185.3586 
L 183.812728 186.022188 
L 188.656168 187.017867 
L 191.077888 187.494509 
L 199.553908 188.770387 
L 205.608208 189.459744 
L 214.084228 190.151402 
L 221.349388 190.568145 
L 234.461953 191.042436 
L 234.461953 191.042436 
" clip-path="url(#p618e95eecf)" style="fill: none; stroke: #355e8d; stroke-width: 1.5; stroke-linecap: square"/>
   </g>
   <g id="line2d_26">
    <path d="M 46.985548 185.561732 
L 49.407268 158.426442 
L 50.618128 146.751125 
L 51.828988 136.973042 
L 53.039848 129.041082 
L 55.461568 116.185518 
L 56.672428 111.722195 
L 57.883288 108.050303 
L 59.094148 105.058862 
L 60.305008 102.691051 
L 61.515868 100.785445 
L 62.726728 99.342883 
L 63.937588 98.248724 
L 65.148448 97.501451 
L 66.359308 97.014434 
L 67.570168 96.784422 
L 68.781028 96.760301 
L 69.991888 96.918837 
L 71.202748 97.224798 
L 73.624468 98.282058 
L 76.046188 99.786369 
L 78.467908 101.682283 
L 80.889628 103.906231 
L 83.311348 106.471765 
L 86.943928 110.716878 
L 90.576508 115.238343 
L 97.841668 124.580597 
L 102.685108 130.47641 
L 107.528548 136.064605 
L 109.950268 138.605017 
L 111.161128 139.997285 
L 120.848008 149.50298 
L 125.691448 153.97987 
L 130.534888 158.216521 
L 135.378328 162.183545 
L 139.010908 165.005515 
L 145.065208 169.266905 
L 148.697788 171.64319 
L 157.173808 176.434237 
L 162.017248 178.765556 
L 165.649828 180.342077 
L 168.071548 181.288648 
L 170.493268 182.216753 
L 180.180148 185.206527 
L 181.391008 185.440668 
L 183.812728 186.088109 
L 197.132188 188.477687 
L 203.186488 189.218293 
L 210.451648 189.889304 
L 217.716808 190.37864 
L 227.403688 190.821141 
L 234.461953 191.041368 
L 234.461953 191.041368 
" clip-path="url(#p618e95eecf)" style="fill: none; stroke: #33638d; stroke-width: 1.5; stroke-linecap: square"/>
   </g>
   <g id="line2d_27">
    <path d="M 46.985548 184.900353 
L 49.407268 155.475677 
L 50.618128 143.198681 
L 51.828988 133.052669 
L 53.039848 124.906078 
L 55.461568 111.965824 
L 56.672428 107.529786 
L 57.883288 103.923752 
L 59.094148 101.025898 
L 60.305008 98.769931 
L 61.515868 96.992936 
L 62.726728 95.688183 
L 63.937588 94.740654 
L 65.148448 94.143823 
L 66.359308 93.811159 
L 67.570168 93.735931 
L 68.781028 93.866543 
L 69.991888 94.178333 
L 71.202748 94.635683 
L 73.624468 95.9831 
L 76.046188 97.759967 
L 78.467908 99.907065 
L 80.889628 102.36026 
L 83.311348 105.130318 
L 86.943928 109.646543 
L 90.576508 114.404579 
L 97.841668 124.136529 
L 102.685108 130.252384 
L 107.528548 136.025646 
L 109.950268 138.652165 
L 111.161128 140.075693 
L 119.637148 148.664194 
L 128.113168 156.494741 
L 132.956608 160.610605 
L 136.589188 163.527325 
L 142.643488 167.951492 
L 146.276068 170.414533 
L 153.541228 174.752184 
L 158.384668 177.264805 
L 163.228108 179.513277 
L 166.860688 181.02276 
L 176.547568 184.303022 
L 178.969288 184.947577 
L 182.601867 185.870893 
L 187.445308 186.896329 
L 197.132188 188.496949 
L 203.186488 189.228461 
L 210.451648 189.893141 
L 217.716808 190.379302 
L 227.403688 190.820368 
L 234.461953 191.040136 
L 234.461953 191.040136 
" clip-path="url(#p618e95eecf)" style="fill: none; stroke: #31688e; stroke-width: 1.5; stroke-linecap: square"/>
   </g>
   <g id="line2d_28">
    <path d="M 46.985548 184.220267 
L 49.407268 152.52908 
L 50.618128 139.686119 
L 51.828988 129.205605 
L 53.039848 120.87309 
L 55.461568 107.886314 
L 56.672428 103.492184 
L 57.883288 99.963186 
L 59.094148 97.167101 
L 60.305008 95.028706 
L 61.515868 93.383608 
L 62.726728 92.21811 
L 63.937588 91.416878 
L 65.148448 90.968855 
L 66.359308 90.787675 
L 67.570168 90.863502 
L 68.781028 91.144374 
L 69.991888 91.604393 
L 71.202748 92.207649 
L 73.624468 93.833662 
L 76.046188 95.871035 
L 78.467908 98.257286 
L 80.889628 100.927895 
L 84.522208 105.448168 
L 89.365648 111.94728 
L 99.052528 125.345486 
L 102.685108 130.045602 
L 107.528548 135.985608 
L 116.004568 145.256686 
L 125.691448 154.64284 
L 130.534888 158.923032 
L 135.378328 162.89046 
L 139.010908 165.687435 
L 145.065208 169.88605 
L 148.697788 172.208268 
L 155.962948 176.256491 
L 160.806388 178.610663 
L 166.860688 181.155672 
L 176.547568 184.380366 
L 178.969288 185.015304 
L 182.601867 185.923125 
L 187.445308 186.933692 
L 197.132188 188.512792 
L 203.186488 189.236461 
L 210.451648 189.895762 
L 217.716808 190.379305 
L 227.403688 190.819307 
L 234.461953 191.03878 
L 234.461953 191.03878 
" clip-path="url(#p618e95eecf)" style="fill: none; stroke: #2e6d8e; stroke-width: 1.5; stroke-linecap: square"/>
   </g>
   <g id="line2d_29">
    <path d="M 46.985548 183.523858 
L 49.407268 149.594935 
L 50.618128 136.220526 
L 51.828988 125.436703 
L 53.039848 116.94441 
L 55.461568 103.944777 
L 56.672428 99.604985 
L 57.883288 96.162244 
L 59.094148 93.47441 
L 60.305008 91.457853 
L 61.515868 89.946745 
L 62.726728 88.920972 
L 63.937588 88.264949 
L 65.148448 87.963516 
L 66.359308 87.930535 
L 67.570168 88.153395 
L 68.781028 88.579877 
L 69.991888 89.183014 
L 71.202748 89.926688 
L 73.624468 91.819895 
L 76.046188 94.106072 
L 78.467908 96.719938 
L 80.889628 99.596752 
L 84.522208 104.383651 
L 90.576508 112.936423 
L 96.630808 121.662405 
L 101.474248 128.303002 
L 107.528548 135.944275 
L 116.004568 145.415304 
L 124.480588 153.800576 
L 129.324027 158.17152 
L 134.167468 162.237376 
L 140.221768 166.829702 
L 143.854348 169.36443 
L 149.908648 173.120368 
L 152.330368 174.510805 
L 155.962948 176.44313 
L 160.806388 178.764651 
L 166.860688 181.271717 
L 176.547568 184.447232 
L 178.969288 185.073732 
L 182.601867 185.967882 
L 187.445308 186.965424 
L 197.132188 188.52574 
L 204.397348 189.366108 
L 211.662508 189.991639 
L 221.349388 190.566846 
L 234.461953 191.037328 
L 234.461953 191.037328 
" clip-path="url(#p618e95eecf)" style="fill: none; stroke: #2c718e; stroke-width: 1.5; stroke-linecap: square"/>
   </g>
   <g id="line2d_30">
    <path d="M 46.985548 182.813325 
L 48.196408 163.795088 
L 49.407268 146.680129 
L 50.618128 132.807414 
L 51.828988 121.749293 
L 53.039848 113.120988 
L 55.461568 100.138129 
L 56.672428 95.863209 
L 57.883288 92.514278 
L 59.094148 89.939749 
L 60.305008 88.048087 
L 61.515868 86.672094 
L 62.726728 85.785742 
L 63.937588 85.273258 
L 65.148448 85.115766 
L 66.359308 85.227415 
L 67.570168 85.593114 
L 68.781028 86.160477 
L 69.991888 86.901621 
L 71.202748 87.780296 
L 73.624468 89.929568 
L 76.046188 92.453272 
L 79.678768 96.80026 
L 82.100488 99.989197 
L 86.943928 106.91024 
L 92.998228 115.931885 
L 97.841668 123.010535 
L 102.685108 129.673746 
L 107.528548 135.901531 
L 114.793708 144.23759 
L 118.426288 148.075972 
L 123.269728 152.879274 
L 128.113168 157.357235 
L 132.956608 161.499063 
L 136.589188 164.399493 
L 141.432628 167.947991 
L 147.486928 171.885331 
L 151.119508 174.045635 
L 157.173808 177.205036 
L 162.017248 179.403555 
L 165.649828 180.883256 
L 168.071548 181.773021 
L 170.493268 182.638115 
L 180.180148 185.438975 
L 182.601867 186.00622 
L 187.445308 186.992335 
L 197.132188 188.536229 
L 204.397348 189.369891 
L 211.662508 189.991821 
L 221.349388 190.565518 
L 234.461953 191.035805 
L 234.461953 191.035805 
" clip-path="url(#p618e95eecf)" style="fill: none; stroke: #2a768e; stroke-width: 1.5; stroke-linecap: square"/>
   </g>
   <g id="line2d_31">
    <path d="M 46.985548 182.090687 
L 48.196408 161.735636 
L 49.407268 143.790345 
L 50.618128 129.450987 
L 51.828988 118.145484 
L 53.039848 109.402734 
L 55.461568 96.462682 
L 56.672428 92.261523 
L 57.883288 89.012536 
L 59.094148 86.555165 
L 60.305008 84.79046 
L 61.515868 83.549923 
L 62.726728 82.802075 
L 63.937588 82.43102 
L 65.148448 82.414513 
L 66.359308 82.66704 
L 67.570168 83.171292 
L 68.781028 83.874803 
L 71.202748 85.757287 
L 73.624468 88.151844 
L 76.046188 90.902271 
L 79.678768 95.55043 
L 82.100488 98.91437 
L 86.943928 106.126804 
L 101.474248 127.87667 
L 107.528548 135.857333 
L 114.793708 144.339518 
L 118.426288 148.228685 
L 123.269728 153.078516 
L 128.113168 157.580899 
L 132.956608 161.729805 
L 136.589188 164.625933 
L 141.432628 168.161205 
L 147.486928 172.074318 
L 151.119508 174.215248 
L 157.173808 177.343466 
L 162.017248 179.517423 
L 165.649828 180.979229 
L 168.071548 181.858576 
L 170.493268 182.711993 
L 178.969288 185.167671 
L 183.812728 186.299114 
L 195.921328 188.373465 
L 201.975628 189.125632 
L 210.451648 189.898204 
L 218.927668 190.442483 
L 228.614548 190.860378 
L 234.461953 191.034232 
L 234.461953 191.034232 
" clip-path="url(#p618e95eecf)" style="fill: none; stroke: #297b8e; stroke-width: 1.5; stroke-linecap: square"/>
   </g>
   <g id="line2d_32">
    <path d="M 46.985548 181.357795 
L 48.196408 159.67489 
L 49.407268 140.930237 
L 50.618128 126.154366 
L 51.828988 114.626404 
L 53.039848 105.788763 
L 55.461568 92.914345 
L 56.672428 88.794415 
L 57.883288 85.650296 
L 59.094148 83.312934 
L 60.305008 81.676424 
L 61.515868 80.571049 
L 62.726728 79.960309 
L 63.937588 79.728242 
L 65.148448 79.849548 
L 66.359308 80.239094 
L 67.570168 80.877593 
L 68.781028 81.712568 
L 71.202748 83.847633 
L 73.624468 86.477094 
L 76.046188 89.443932 
L 79.678768 94.378619 
L 83.311348 99.748349 
L 90.576508 111.119904 
L 96.630808 120.569347 
L 101.474248 127.682923 
L 107.528548 135.811694 
L 114.793708 144.426976 
L 118.426288 148.362297 
L 122.058868 152.062681 
L 126.902308 156.684022 
L 131.745748 160.937063 
L 136.589188 164.826722 
L 141.432628 168.350194 
L 146.276068 171.525775 
L 152.330368 175.006728 
L 155.962948 176.880175 
L 160.806388 179.123422 
L 166.860688 181.53977 
L 176.547568 184.59841 
L 178.969288 185.205204 
L 183.812728 186.324723 
L 194.710468 188.225135 
L 204.397348 189.374108 
L 211.662508 189.990439 
L 221.349388 190.562139 
L 234.461953 191.032622 
L 234.461953 191.032622 
" clip-path="url(#p618e95eecf)" style="fill: none; stroke: #27808e; stroke-width: 1.5; stroke-linecap: square"/>
   </g>
   <g id="line2d_33">
    <path d="M 46.985548 180.616332 
L 48.196408 157.616973 
L 49.407268 138.103581 
L 50.618128 122.919777 
L 51.828988 111.192403 
L 53.039848 102.277584 
L 54.250708 95.527114 
L 55.461568 89.488779 
L 56.672428 85.456317 
L 57.883288 82.42096 
L 59.094148 80.205615 
L 60.305008 78.697859 
L 61.515868 77.726847 
L 62.726728 77.251442 
L 63.937588 77.15568 
L 65.148448 77.411484 
L 66.359308 77.934147 
L 67.570168 78.702609 
L 68.781028 79.664451 
L 71.202748 82.042326 
L 73.624468 84.896737 
L 76.046188 88.070172 
L 79.678768 93.277561 
L 83.311348 98.875749 
L 100.263388 125.743092 
L 103.895968 130.878883 
L 107.528548 135.764663 
L 113.582848 143.082227 
L 116.004568 145.866334 
L 122.058868 152.2103 
L 126.902308 156.855892 
L 131.745748 161.117923 
L 136.589188 165.004938 
L 141.432628 168.517887 
L 146.276068 171.677511 
L 152.330368 175.135385 
L 155.962948 176.993176 
L 160.806388 179.215632 
L 166.860688 181.607947 
L 176.547568 184.635826 
L 181.391008 185.771324 
L 183.812728 186.346479 
L 194.710468 188.232149 
L 204.397348 189.374876 
L 211.662508 189.989066 
L 221.349388 190.560181 
L 234.461953 191.030991 
L 234.461953 191.030991 
" clip-path="url(#p618e95eecf)" style="fill: none; stroke: #25848e; stroke-width: 1.5; stroke-linecap: square"/>
   </g>
   <g id="line2d_34">
    <path d="M 46.985548 179.867834 
L 48.196408 155.565445 
L 49.407268 135.313403 
L 50.618128 119.748711 
L 51.828988 107.843215 
L 53.039848 98.867252 
L 54.250708 92.127783 
L 55.461568 86.18151 
L 56.672428 82.241695 
L 57.883288 79.318117 
L 59.094148 77.226091 
L 60.305008 75.847092 
L 61.515868 75.009236 
L 62.726728 74.667108 
L 63.937588 74.704793 
L 65.148448 75.091695 
L 66.359308 75.743571 
L 67.570168 76.637773 
L 68.781028 77.721995 
L 71.202748 80.333255 
L 73.624468 83.403098 
L 77.257048 88.563638 
L 80.889628 94.132579 
L 85.733068 102.064697 
L 96.630808 119.955322 
L 101.474248 127.326474 
L 106.317688 134.14653 
L 111.161128 140.326443 
L 116.004568 145.943067 
L 122.058868 152.340285 
L 125.691448 155.87767 
L 129.324027 159.191273 
L 134.167468 163.270777 
L 139.010908 166.963037 
L 143.854348 170.282148 
L 148.697788 173.257653 
L 154.752088 176.500679 
L 159.595528 178.760484 
L 163.228108 180.288124 
L 168.071548 182.056846 
L 171.704128 183.235256 
L 174.125848 183.972358 
L 180.180148 185.565985 
L 185.023588 186.581342 
L 188.656168 187.265592 
L 192.288748 187.86718 
L 197.132188 188.560054 
L 204.397348 189.374931 
L 211.662508 189.98734 
L 221.349388 190.558091 
L 234.461953 191.029347 
L 234.461953 191.029347 
" clip-path="url(#p618e95eecf)" style="fill: none; stroke: #23898e; stroke-width: 1.5; stroke-linecap: square"/>
   </g>
   <g id="line2d_35">
    <path d="M 46.985548 179.11369 
L 48.196408 153.52337 
L 49.407268 132.562092 
L 50.618128 116.642058 
L 51.828988 104.578087 
L 53.039848 95.555489 
L 54.250708 88.837374 
L 55.461568 82.988022 
L 56.672428 79.145109 
L 57.883288 76.335583 
L 59.094148 74.36759 
L 60.305008 73.116894 
L 61.515868 72.410662 
L 62.726728 72.199533 
L 63.937588 72.367692 
L 65.148448 72.882254 
L 66.359308 73.659468 
L 67.570168 74.675272 
L 69.991888 77.235488 
L 72.413608 80.311459 
L 74.835328 83.747723 
L 78.467908 89.315933 
L 83.311348 97.283875 
L 95.419948 117.725919 
L 100.263388 125.348601 
L 103.895968 130.646709 
L 107.528548 135.666742 
L 113.582848 143.172204 
L 116.004568 146.008488 
L 122.058868 152.454612 
L 125.691448 156.008703 
L 129.324027 159.331363 
L 134.167468 163.4133 
L 139.010908 167.100143 
L 143.854348 170.408557 
L 148.697788 173.369681 
L 154.752088 176.593179 
L 159.595528 178.836821 
L 163.228108 180.35208 
L 168.071548 182.107351 
L 171.704128 183.276332 
L 174.125848 184.006829 
L 180.180148 185.587189 
L 185.023588 186.596479 
L 188.656168 187.276013 
L 192.288748 187.873822 
L 197.132188 188.562685 
L 204.397348 189.374382 
L 211.662508 189.985321 
L 221.349388 190.555898 
L 233.457988 191.000958 
L 234.461953 191.027699 
L 234.461953 191.027699 
" clip-path="url(#p618e95eecf)" style="fill: none; stroke: #218e8d; stroke-width: 1.5; stroke-linecap: square"/>
   </g>
   <g id="line2d_36">
    <path d="M 46.985548 178.35516 
L 48.196408 151.493372 
L 49.407268 129.851497 
L 50.618128 113.600212 
L 51.828988 101.395892 
L 53.039848 92.339782 
L 54.250708 85.652184 
L 55.461568 79.903811 
L 56.672428 76.161266 
L 57.883288 73.467428 
L 59.094148 71.623689 
L 60.305008 70.500468 
L 61.515868 69.924078 
L 62.726728 69.841508 
L 63.937588 70.137094 
L 65.148448 70.77587 
L 66.359308 71.674607 
L 67.570168 72.807977 
L 69.991888 75.591769 
L 72.413608 78.874535 
L 76.046188 84.388418 
L 80.889628 92.374197 
L 90.576508 109.20461 
L 95.419948 117.430547 
L 100.263388 125.16601 
L 103.895968 130.536482 
L 107.528548 135.616046 
L 112.371988 141.790924 
L 118.426288 148.745449 
L 122.058868 152.555005 
L 125.691448 156.124521 
L 129.324027 159.455598 
L 134.167468 163.539943 
L 139.010908 167.222036 
L 143.854348 170.5209 
L 148.697788 173.469123 
L 154.752088 176.675102 
L 159.595528 178.904236 
L 163.228108 180.408365 
L 168.071548 182.151607 
L 171.704128 183.312155 
L 174.125848 184.03672 
L 180.180148 185.605213 
L 193.499608 188.075171 
L 200.764768 188.996501 
L 208.029928 189.69856 
L 216.505948 190.299315 
L 227.403688 190.80563 
L 234.461953 191.026054 
L 234.461953 191.026054 
" clip-path="url(#p618e95eecf)" style="fill: none; stroke: #20928c; stroke-width: 1.5; stroke-linecap: square"/>
   </g>
   <g id="line2d_37">
    <path d="M 46.985548 177.593382 
L 48.196408 149.47769 
L 49.407268 127.183007 
L 50.618128 110.623167 
L 51.828988 98.295212 
L 53.039848 89.217455 
L 54.250708 82.568474 
L 55.461568 76.924443 
L 56.672428 73.285041 
L 57.883288 70.70799 
L 59.094148 68.988315 
L 60.305008 67.991441 
L 61.515868 67.542911 
L 62.726728 67.586344 
L 63.937588 68.006273 
L 65.148448 68.765839 
L 66.359308 69.782358 
L 67.570168 71.029375 
L 69.991888 74.028543 
L 72.413608 77.509793 
L 76.046188 83.288547 
L 80.889628 91.565988 
L 95.419948 117.150996 
L 100.263388 124.991831 
L 103.895968 130.429596 
L 107.528548 135.564335 
L 112.371988 141.801315 
L 118.426288 148.811275 
L 122.058868 152.642976 
L 125.691448 156.226786 
L 129.324027 159.565723 
L 132.956608 162.660675 
L 136.589188 165.540142 
L 141.432628 169.021403 
L 146.276068 172.132216 
L 152.330368 175.519473 
L 155.962948 177.329079 
L 160.806388 179.487564 
L 166.860688 181.806133 
L 175.336708 184.394079 
L 178.969288 185.327016 
L 183.812728 186.404106 
L 194.710468 188.246504 
L 203.186488 189.252516 
L 211.662508 189.980605 
L 221.349388 190.551295 
L 233.457988 190.997564 
L 234.461953 191.024418 
L 234.461953 191.024418 
" clip-path="url(#p618e95eecf)" style="fill: none; stroke: #1f978b; stroke-width: 1.5; stroke-linecap: square"/>
   </g>
   <g id="line2d_38">
    <path d="M 46.985548 176.829384 
L 48.196408 147.478223 
L 49.407268 124.557629 
L 50.618128 107.710593 
L 51.828988 95.27441 
L 53.039848 86.185732 
L 54.250708 79.582519 
L 55.461568 74.045579 
L 56.672428 70.511504 
L 57.883288 68.051879 
L 59.094148 66.455738 
L 60.305008 65.583837 
L 61.515868 65.261035 
L 62.726728 65.427838 
L 63.937588 65.969014 
L 65.148448 66.845987 
L 66.359308 67.976638 
L 67.570168 69.333504 
L 69.991888 72.540176 
L 72.413608 76.211995 
L 76.046188 82.244254 
L 82.100488 92.999236 
L 92.998228 112.708677 
L 97.841668 120.923611 
L 101.474248 126.707927 
L 106.317688 133.86235 
L 111.161128 140.317516 
L 116.004568 146.14841 
L 120.848008 151.45629 
L 124.480588 155.151005 
L 129.324027 159.663262 
L 132.956608 162.761035 
L 136.589188 165.63895 
L 141.432628 169.114404 
L 146.276068 172.216031 
L 151.119508 174.967375 
L 155.962948 177.390383 
L 160.806388 179.53668 
L 166.860688 181.841233 
L 175.336708 184.414473 
L 178.969288 185.34174 
L 183.812728 186.412916 
L 194.710468 188.24754 
L 203.186488 189.250874 
L 211.662508 189.977987 
L 221.349388 190.54892 
L 233.457988 190.99588 
L 234.461953 191.022794 
L 234.461953 191.022794 
" clip-path="url(#p618e95eecf)" style="fill: none; stroke: #1e9c89; stroke-width: 1.5; stroke-linecap: square"/>
   </g>
   <g id="line2d_39">
    <path d="M 46.985548 176.064091 
L 48.196408 145.496571 
L 49.407268 121.976039 
L 50.618128 104.861898 
L 51.828988 92.33169 
L 53.039848 83.241781 
L 54.250708 76.690641 
L 55.461568 71.263007 
L 56.672428 67.835926 
L 57.883288 65.493978 
L 59.094148 64.02056 
L 60.305008 63.272062 
L 61.515868 63.072744 
L 62.726728 63.360235 
L 63.937588 64.019576 
L 65.148448 65.010629 
L 66.359308 66.251858 
L 68.781028 69.348661 
L 71.202748 72.998281 
L 74.835328 79.120838 
L 79.678768 87.84617 
L 95.419948 116.633449 
L 100.263388 124.665482 
L 103.895968 130.224553 
L 107.528548 135.458302 
L 112.371988 141.806424 
L 118.426288 148.915461 
L 122.058868 152.786803 
L 125.691448 156.396309 
L 129.324027 159.749557 
L 132.956608 162.850084 
L 136.589188 165.726726 
L 141.432628 169.197062 
L 146.276068 172.290471 
L 151.119508 175.031919 
L 155.962948 177.444603 
L 160.806388 179.579918 
L 166.860688 181.871855 
L 175.336708 184.431939 
L 178.969288 185.354123 
L 183.812728 186.420025 
L 194.710468 188.247821 
L 203.186488 189.248882 
L 211.662508 189.975239 
L 221.349388 190.546516 
L 233.457988 190.994211 
L 234.461953 191.021186 
L 234.461953 191.021186 
" clip-path="url(#p618e95eecf)" style="fill: none; stroke: #1fa188; stroke-width: 1.5; stroke-linecap: square"/>
   </g>
   <g id="line2d_40">
    <path d="M 46.985548 175.298335 
L 48.196408 143.534075 
L 49.407268 119.43864 
L 50.618128 102.076282 
L 51.828988 89.465138 
L 53.039848 80.382753 
L 54.250708 73.889234 
L 55.461568 68.57265 
L 56.672428 65.253789 
L 57.883288 63.02944 
L 59.094148 61.677699 
L 60.305008 61.05088 
L 61.515868 60.972723 
L 62.726728 61.378195 
L 63.937588 62.152647 
L 65.148448 63.254522 
L 66.359308 64.602881 
L 68.781028 67.900811 
L 71.202748 71.734942 
L 74.835328 78.101983 
L 79.678768 87.096882 
L 92.998228 112.108663 
L 97.841668 120.526254 
L 101.474248 126.43395 
L 106.317688 133.722967 
L 111.161128 140.287968 
L 116.004568 146.20406 
L 120.848008 151.571165 
L 124.480588 155.292928 
L 128.113168 158.733214 
L 131.745748 161.926251 
L 136.589188 165.804639 
L 141.432628 169.27048 
L 146.276068 172.356545 
L 151.119508 175.089109 
L 155.962948 177.492515 
L 160.806388 179.617931 
L 166.860688 181.898504 
L 174.125848 184.120498 
L 180.180148 185.652654 
L 192.288748 187.888669 
L 197.132188 188.563712 
L 204.397348 189.365353 
L 211.662508 189.972387 
L 221.349388 190.544095 
L 233.457988 190.992561 
L 234.461953 191.019597 
L 234.461953 191.019597 
" clip-path="url(#p618e95eecf)" style="fill: none; stroke: #21a585; stroke-width: 1.5; stroke-linecap: square"/>
   </g>
   <g id="line2d_41">
    <path d="M 46.985548 174.532863 
L 48.196408 141.591847 
L 49.407268 116.945605 
L 50.618128 99.352781 
L 51.828988 86.672765 
L 53.039848 77.60581 
L 54.250708 71.174783 
L 55.461568 65.970582 
L 56.672428 62.760783 
L 57.883288 60.653676 
L 59.094148 59.422377 
L 60.305008 58.915394 
L 61.515868 58.956018 
L 62.726728 59.476761 
L 63.937588 60.363313 
L 65.148448 61.572826 
L 66.359308 63.024976 
L 68.781028 66.517169 
L 71.202748 70.528901 
L 74.835328 77.130548 
L 80.889628 88.722922 
L 89.365648 105.071551 
L 94.209088 114.014876 
L 97.841668 120.340147 
L 101.474248 126.303966 
L 106.317688 133.653886 
L 111.161128 140.268405 
L 116.004568 146.222858 
L 120.848008 151.616664 
L 124.480588 155.350675 
L 128.113168 158.798845 
L 131.745748 161.995433 
L 136.589188 165.873721 
L 141.432628 169.335631 
L 146.276068 172.41514 
L 151.119508 175.13973 
L 155.962948 177.5348 
L 160.806388 179.651291 
L 166.860688 181.921624 
L 174.125848 184.13446 
L 180.180148 185.659745 
L 192.288748 187.888984 
L 197.132188 188.562202 
L 204.397348 189.362698 
L 211.662508 189.969453 
L 221.349388 190.541665 
L 233.457988 190.99093 
L 234.461953 191.018029 
L 234.461953 191.018029 
" clip-path="url(#p618e95eecf)" style="fill: none; stroke: #24aa83; stroke-width: 1.5; stroke-linecap: square"/>
   </g>
   <g id="line2d_42">
    <path d="M 46.985548 173.768347 
L 48.196408 139.670798 
L 49.407268 114.496914 
L 50.618128 96.690302 
L 51.828988 83.952534 
L 53.039848 74.908142 
L 54.250708 68.543879 
L 55.461568 63.453035 
L 56.672428 60.352807 
L 57.883288 58.36235 
L 59.094148 57.250103 
L 60.305008 56.861018 
L 61.515868 57.018014 
L 62.726728 57.651327 
L 63.937588 58.647019 
L 65.148448 59.961073 
L 66.359308 61.513781 
L 68.781028 65.19365 
L 71.202748 69.376396 
L 74.835328 76.203283 
L 80.889628 88.095262 
L 89.365648 104.723118 
L 94.209088 113.772527 
L 97.841668 120.161482 
L 101.474248 126.178139 
L 106.317688 133.585217 
L 111.161128 140.246102 
L 116.004568 146.236456 
L 120.848008 151.655275 
L 124.480588 155.400799 
L 128.113168 158.856437 
L 131.745748 162.056472 
L 136.589188 165.934879 
L 141.432628 169.393372 
L 146.276068 172.467039 
L 151.119508 175.184476 
L 155.962948 177.572059 
L 160.806388 179.6805 
L 166.860688 181.941603 
L 174.125848 184.146245 
L 180.180148 185.665364 
L 192.288748 187.888669 
L 197.132188 188.560296 
L 204.397348 189.35986 
L 211.662508 189.966456 
L 221.349388 190.539235 
L 233.457988 190.989322 
L 234.461953 191.016483 
L 234.461953 191.016483 
" clip-path="url(#p618e95eecf)" style="fill: none; stroke: #28ae80; stroke-width: 1.5; stroke-linecap: square"/>
   </g>
   <g id="line2d_43">
    <path d="M 46.985548 173.005387 
L 48.196408 137.771666 
L 49.407268 112.092386 
L 50.618128 94.087654 
L 51.828988 81.302383 
L 53.039848 72.286993 
L 54.250708 65.993222 
L 55.461568 61.016393 
L 56.672428 58.02596 
L 57.883288 56.151365 
L 59.094148 55.156655 
L 60.305008 54.883464 
L 61.515868 55.154405 
L 62.726728 55.897614 
L 63.937588 56.999546 
L 65.148448 58.415126 
L 66.359308 60.065275 
L 68.781028 63.926497 
L 71.202748 68.27398 
L 74.835328 75.317225 
L 83.311348 92.404561 
L 89.365648 104.390317 
L 94.209088 113.540461 
L 97.841668 119.989661 
L 101.474248 126.056147 
L 106.317688 133.516968 
L 111.161128 140.221359 
L 116.004568 146.245382 
L 120.848008 151.68769 
L 124.480588 155.444067 
L 128.113168 158.906799 
L 131.745748 162.110189 
L 136.589188 165.988919 
L 141.432628 169.444461 
L 146.276068 172.512931 
L 151.119508 175.223958 
L 155.962948 177.604818 
L 160.806388 179.705998 
L 166.860688 181.958782 
L 174.125848 184.156097 
L 180.180148 185.669684 
L 192.288748 187.887802 
L 197.132188 188.558048 
L 204.397348 189.35687 
L 211.662508 189.963413 
L 221.349388 190.536811 
L 233.457988 190.987737 
L 234.461953 191.014962 
L 234.461953 191.014962 
" clip-path="url(#p618e95eecf)" style="fill: none; stroke: #2eb37c; stroke-width: 1.5; stroke-linecap: square"/>
   </g>
   <g id="line2d_44">
    <path d="M 46.985548 172.24452 
L 48.196408 135.895035 
L 49.407268 109.731707 
L 50.618128 91.543576 
L 51.828988 78.720249 
L 53.039848 69.739664 
L 54.250708 63.519631 
L 55.461568 58.657201 
L 56.672428 55.776541 
L 57.883288 54.016856 
L 59.094148 53.138068 
L 60.305008 52.978718 
L 61.515868 53.361177 
L 62.726728 54.211638 
L 63.937588 55.416978 
L 65.148448 56.93116 
L 66.359308 58.675738 
L 68.781028 62.712254 
L 71.202748 67.21849 
L 76.046188 76.93905 
L 86.943928 99.291087 
L 92.998228 111.06441 
L 96.630808 117.698102 
L 100.263388 123.950396 
L 103.895968 129.752473 
L 107.528548 135.182795 
L 112.371988 141.750468 
L 117.215428 147.649436 
L 120.848008 151.714527 
L 124.480588 155.481159 
L 128.113168 158.950649 
L 131.745748 162.157314 
L 136.589188 166.036555 
L 141.432628 169.48957 
L 146.276068 172.553429 
L 151.119508 175.258716 
L 155.962948 177.633545 
L 160.806388 179.728178 
L 166.860688 181.973463 
L 174.125848 184.16423 
L 180.180148 185.672853 
L 191.077888 187.709555 
L 199.553908 188.842853 
L 206.819068 189.574862 
L 215.295088 190.203735 
L 224.981968 190.697878 
L 234.461953 191.013466 
L 234.461953 191.013466 
" clip-path="url(#p618e95eecf)" style="fill: none; stroke: #35b779; stroke-width: 1.5; stroke-linecap: square"/>
   </g>
   <g id="line2d_45">
    <path d="M 46.985548 171.486226 
L 48.196408 134.041356 
L 49.407268 107.414452 
L 50.618128 89.05675 
L 51.828988 76.204078 
L 53.039848 67.263526 
L 54.250708 61.120046 
L 55.461568 56.37216 
L 56.672428 53.601038 
L 57.883288 51.955171 
L 59.094148 51.190615 
L 60.305008 51.143021 
L 61.515868 51.634582 
L 62.726728 52.589695 
L 63.937588 53.895679 
L 65.148448 55.505626 
L 67.570168 59.372059 
L 69.991888 63.837208 
L 73.624468 71.136228 
L 89.365648 103.767018 
L 94.209088 113.104078 
L 97.841668 119.66449 
L 101.474248 125.822574 
L 106.317688 133.381785 
L 109.950268 138.484603 
L 112.371988 141.730546 
L 117.215428 147.657066 
L 120.848008 151.736337 
L 124.480588 155.512683 
L 128.113168 158.988627 
L 131.745748 162.198498 
L 135.378328 165.141232 
L 139.010908 167.856226 
L 143.854348 171.105328 
L 148.697788 173.983566 
L 154.752088 177.094031 
L 159.595528 179.243502 
L 163.228108 180.685862 
L 168.071548 182.364191 
L 172.914988 183.860079 
L 180.180148 185.675003 
L 191.077888 187.707816 
L 199.553908 188.839936 
L 206.819068 189.571651 
L 215.295088 190.200839 
L 224.981968 190.695696 
L 234.461953 191.011995 
L 234.461953 191.011995 
" clip-path="url(#p618e95eecf)" style="fill: none; stroke: #3dbc74; stroke-width: 1.5; stroke-linecap: square"/>
   </g>
   <g id="line2d_46">
    <path d="M 46.985548 170.730931 
L 48.196408 132.210966 
L 49.407268 105.140109 
L 50.618128 86.625829 
L 51.828988 73.75184 
L 53.039848 64.856028 
L 54.250708 58.791529 
L 55.461568 54.158121 
L 56.672428 51.496121 
L 57.883288 49.962868 
L 59.094148 49.310792 
L 60.305008 49.372853 
L 61.515868 49.971119 
L 62.726728 51.028331 
L 63.937588 52.432267 
L 65.148448 54.135236 
L 67.570168 58.174478 
L 69.991888 62.795175 
L 73.624468 70.298039 
L 88.154788 101.039034 
L 92.998228 110.604873 
L 96.630808 117.351314 
L 100.263388 123.695773 
L 103.895968 129.57671 
L 107.528548 135.070331 
L 112.371988 141.708411 
L 117.215428 147.660933 
L 120.848008 151.753612 
L 124.480588 155.539183 
L 128.113168 159.021306 
L 131.745748 162.234318 
L 135.378328 165.178264 
L 139.010908 167.892226 
L 143.854348 171.138593 
L 148.697788 174.012583 
L 154.752088 177.117147 
L 159.595528 179.261607 
L 163.228108 180.699998 
L 168.071548 182.374351 
L 172.914988 183.865359 
L 180.180148 185.676252 
L 191.077888 187.705686 
L 199.553908 188.836851 
L 206.819068 189.568386 
L 215.295088 190.197952 
L 224.981968 190.693541 
L 234.461953 191.01055 
L 234.461953 191.01055 
" clip-path="url(#p618e95eecf)" style="fill: none; stroke: #46c06f; stroke-width: 1.5; stroke-linecap: square"/>
   </g>
   <g id="line2d_47">
    <path d="M 46.985548 169.979014 
L 48.196408 130.404099 
L 49.407268 102.90809 
L 50.618128 84.249439 
L 51.828988 71.361538 
L 53.039848 62.514697 
L 54.250708 56.53126 
L 55.461568 52.012084 
L 56.672428 49.458633 
L 57.883288 48.036698 
L 59.094148 47.495307 
L 60.305008 47.664914 
L 61.515868 48.367517 
L 62.726728 49.524326 
L 63.937588 51.023597 
L 65.148448 52.816932 
L 67.570168 57.023615 
L 69.991888 61.794588 
L 73.624468 69.493839 
L 85.733068 95.723748 
L 90.576508 105.627456 
L 94.209088 112.700319 
L 97.841668 119.361067 
L 101.474248 125.601368 
L 106.317688 133.248463 
L 109.950268 138.40924 
L 112.371988 141.684304 
L 117.215428 147.661411 
L 120.848008 151.766794 
L 124.480588 155.561143 
L 128.113168 159.049195 
L 131.745748 162.265293 
L 135.378328 165.210523 
L 139.010908 167.92367 
L 143.854348 171.167685 
L 148.697788 174.037905 
L 154.752088 177.137204 
L 159.595528 179.277171 
L 163.228108 180.711983 
L 168.071548 182.382789 
L 172.914988 183.869375 
L 180.180148 185.6767 
L 191.077888 187.703215 
L 199.553908 188.833625 
L 206.819068 189.565079 
L 215.295088 190.195077 
L 224.981968 190.691416 
L 234.461953 191.009131 
L 234.461953 191.009131 
" clip-path="url(#p618e95eecf)" style="fill: none; stroke: #50c46a; stroke-width: 1.5; stroke-linecap: square"/>
   </g>
   <g id="line2d_48">
    <path d="M 46.985548 169.230813 
L 48.196408 128.620903 
L 49.407268 100.717748 
L 50.618128 81.926201 
L 51.828988 69.031212 
L 53.039848 60.237146 
L 54.250708 54.336542 
L 55.461568 49.931192 
L 56.672428 47.485583 
L 57.883288 46.173593 
L 59.094148 45.741063 
L 60.305008 46.016111 
L 61.515868 46.820717 
L 62.726728 48.074676 
L 63.937588 49.666741 
L 65.148448 51.547873 
L 67.570168 55.916836 
L 69.991888 60.833049 
L 73.624468 68.721593 
L 84.522208 92.78394 
L 89.365648 102.923459 
L 94.209088 112.50928 
L 97.841668 119.216598 
L 101.474248 125.494929 
L 106.317688 133.182541 
L 109.950268 138.369988 
L 112.371988 141.658442 
L 117.215428 147.658836 
L 120.848008 151.776279 
L 124.480588 155.578999 
L 128.113168 159.072752 
L 131.745748 162.291884 
L 135.378328 165.238467 
L 139.010908 167.950993 
L 143.854348 171.193006 
L 148.697788 174.059894 
L 154.752088 177.154506 
L 159.595528 179.290447 
L 163.228108 180.722033 
L 168.071548 182.389682 
L 172.914988 183.872263 
L 180.180148 185.67644 
L 191.077888 187.700447 
L 199.553908 188.830282 
L 206.819068 189.561744 
L 215.295088 190.192221 
L 224.981968 190.689322 
L 234.461953 191.007739 
L 234.461953 191.007739 
" clip-path="url(#p618e95eecf)" style="fill: none; stroke: #5ac864; stroke-width: 1.5; stroke-linecap: square"/>
   </g>
   <g id="line2d_49">
    <path d="M 46.985548 168.486625 
L 48.196408 126.861448 
L 49.407268 98.568393 
L 50.618128 79.654734 
L 51.828988 66.758951 
L 53.039848 58.021068 
L 54.250708 52.20479 
L 55.461568 47.912723 
L 56.672428 45.574139 
L 57.883288 44.37066 
L 59.094148 44.045146 
L 60.305008 44.423542 
L 61.515868 45.327854 
L 62.726728 46.676575 
L 63.937588 48.358966 
L 66.359308 52.500704 
L 68.781028 57.33125 
L 72.413608 65.251812 
L 85.733068 95.040104 
L 90.576508 105.140521 
L 94.209088 112.324834 
L 97.841668 119.076546 
L 101.474248 125.391054 
L 106.317688 133.117133 
L 109.950268 138.329873 
L 112.371988 141.63102 
L 117.215428 147.653511 
L 120.848008 151.782424 
L 124.480588 155.593142 
L 128.113168 159.092388 
L 131.745748 162.314507 
L 135.378328 165.262503 
L 139.010908 167.974589 
L 143.854348 171.214917 
L 148.697788 174.078871 
L 154.752088 177.169321 
L 159.595528 179.301664 
L 163.228108 180.730344 
L 168.071548 182.395189 
L 172.914988 183.874144 
L 180.180148 185.675551 
L 191.077888 187.697423 
L 199.553908 188.82684 
L 206.819068 189.558391 
L 215.295088 190.189386 
L 224.981968 190.68726 
L 234.461953 191.006373 
L 234.461953 191.006373 
" clip-path="url(#p618e95eecf)" style="fill: none; stroke: #65cb5e; stroke-width: 1.5; stroke-linecap: square"/>
   </g>
   <g id="line2d_50">
    <path d="M 46.985548 167.746713 
L 48.196408 125.125741 
L 49.407268 96.459297 
L 50.618128 77.433664 
L 51.828988 64.54289 
L 53.039848 55.864243 
L 54.250708 50.133535 
L 55.461568 45.95409 
L 56.672428 43.721614 
L 57.883288 42.625166 
L 59.094148 42.404815 
L 60.305008 42.884483 
L 61.515868 43.886247 
L 62.726728 45.327401 
L 63.937588 47.097726 
L 66.359308 51.400943 
L 68.781028 56.375371 
L 72.413608 64.482735 
L 84.522208 92.07004 
L 89.365648 102.412867 
L 92.998228 109.783531 
L 96.630808 116.725065 
L 100.263388 123.227907 
L 103.895968 129.24352 
L 107.528548 134.844729 
L 112.371988 141.602217 
L 117.215428 147.645707 
L 120.848008 151.785549 
L 124.480588 155.603923 
L 128.113168 159.10847 
L 131.745748 162.333534 
L 135.378328 165.282999 
L 139.010908 167.994809 
L 143.854348 171.233743 
L 148.697788 174.095125 
L 153.541228 176.60456 
L 158.384668 178.805603 
L 163.228108 180.737091 
L 168.071548 182.399451 
L 172.914988 183.875124 
L 180.180148 185.674105 
L 191.077888 187.694176 
L 199.553908 188.823319 
L 206.819068 189.555027 
L 215.295088 190.186577 
L 224.981968 190.68523 
L 234.461953 191.005032 
L 234.461953 191.005032 
" clip-path="url(#p618e95eecf)" style="fill: none; stroke: #70cf57; stroke-width: 1.5; stroke-linecap: square"/>
   </g>
   <g id="line2d_51">
    <path d="M 46.985548 167.011306 
L 48.196408 123.413731 
L 49.407268 94.389703 
L 50.618128 75.261631 
L 51.828988 62.381216 
L 53.039848 53.764535 
L 54.250708 48.120416 
L 55.461568 44.05283 
L 56.672428 41.925466 
L 57.883288 40.934532 
L 59.094148 40.817487 
L 60.305008 41.396374 
L 61.515868 42.493383 
L 62.726728 44.0247 
L 63.937588 45.880639 
L 66.359308 50.340714 
L 68.781028 55.454526 
L 72.413608 63.742365 
L 83.311348 89.026576 
L 88.154788 99.620071 
L 92.998228 109.595563 
L 96.630808 116.5805 
L 100.263388 123.118399 
L 103.895968 129.163684 
L 107.528548 134.788519 
L 112.371988 141.572192 
L 117.215428 147.63567 
L 120.848008 151.785943 
L 124.480588 155.611658 
L 128.113168 159.12133 
L 131.745748 162.3493 
L 135.378328 165.300283 
L 139.010908 168.011967 
L 143.854348 171.249772 
L 148.697788 174.108914 
L 153.541228 176.615777 
L 158.384668 178.813991 
L 163.228108 180.742427 
L 168.071548 182.402594 
L 172.914988 183.875299 
L 180.180148 185.672164 
L 189.867028 187.503676 
L 197.132188 188.532456 
L 204.397348 189.330006 
L 212.873368 190.023469 
L 222.560248 190.574332 
L 233.457988 190.975999 
L 234.461953 191.003718 
L 234.461953 191.003718 
" clip-path="url(#p618e95eecf)" style="fill: none; stroke: #7cd250; stroke-width: 1.5; stroke-linecap: square"/>
   </g>
   <g id="line2d_52">
    <path d="M 46.985548 166.280608 
L 48.196408 121.725318 
L 49.407268 92.358838 
L 50.618128 73.137294 
L 51.828988 60.272171 
L 53.039848 51.719888 
L 54.250708 46.16318 
L 55.461568 42.2066 
L 56.672428 40.183284 
L 57.883288 39.296321 
L 59.094148 39.280731 
L 60.305008 39.956811 
L 61.515868 41.146902 
L 62.726728 42.766174 
L 63.937588 44.705482 
L 66.359308 49.317961 
L 68.781028 54.566846 
L 73.624468 65.916687 
L 80.889628 83.109117 
L 85.733068 94.107312 
L 90.576508 104.473079 
L 94.209088 111.807037 
L 97.841668 118.680292 
L 101.474248 125.093486 
L 105.106828 131.024106 
L 107.528548 134.732478 
L 112.371988 141.54109 
L 117.215428 147.623623 
L 120.848008 151.783866 
L 124.480588 155.616632 
L 128.113168 159.131267 
L 131.745748 162.362105 
L 135.378328 165.314653 
L 139.010908 168.026348 
L 143.854348 171.263265 
L 148.697788 174.120469 
L 153.541228 176.625078 
L 158.384668 178.820786 
L 163.228108 180.746492 
L 168.071548 182.40473 
L 172.914988 183.874755 
L 180.180148 185.669786 
L 189.867028 187.500039 
L 197.132188 188.528711 
L 204.397348 189.326497 
L 212.873368 190.020552 
L 222.560248 190.57226 
L 233.457988 190.974651 
L 234.461953 191.00243 
L 234.461953 191.00243 
" clip-path="url(#p618e95eecf)" style="fill: none; stroke: #89d548; stroke-width: 1.5; stroke-linecap: square"/>
   </g>
   <g id="line2d_53">
    <path d="M 46.985548 165.554792 
L 48.196408 120.060359 
L 49.407268 90.365915 
L 50.618128 71.059335 
L 51.828988 58.214049 
L 53.039848 49.72833 
L 54.250708 44.259672 
L 55.461568 40.413172 
L 56.672428 38.492782 
L 57.883288 37.708229 
L 59.094148 37.792253 
L 60.305008 38.563531 
L 61.515868 39.844593 
L 62.726728 41.549671 
L 63.937588 43.570173 
L 66.359308 48.330764 
L 68.781028 53.71059 
L 73.624468 65.278736 
L 80.889628 82.709917 
L 85.733068 93.818201 
L 90.576508 104.265395 
L 94.209088 111.645126 
L 97.841668 118.555428 
L 101.474248 124.998603 
L 105.106828 130.954246 
L 107.528548 134.676648 
L 112.371988 141.509042 
L 117.215428 147.609766 
L 120.848008 151.779554 
L 124.480588 155.619104 
L 128.113168 159.13855 
L 131.745748 162.372223 
L 135.378328 165.326376 
L 139.010908 168.038207 
L 143.854348 171.274457 
L 148.697788 174.13 
L 153.541228 176.632644 
L 158.384668 178.826141 
L 163.228108 180.749412 
L 168.071548 182.40596 
L 172.914988 183.873567 
L 180.180148 185.667019 
L 189.867028 187.496245 
L 197.132188 188.524908 
L 204.397348 189.322988 
L 212.873368 190.017663 
L 222.560248 190.570218 
L 233.457988 190.973329 
L 234.461953 191.001166 
L 234.461953 191.001166 
" clip-path="url(#p618e95eecf)" style="fill: none; stroke: #95d840; stroke-width: 1.5; stroke-linecap: square"/>
   </g>
   <g id="line2d_54">
    <path d="M 46.985548 164.834012 
L 48.196408 118.418676 
L 49.407268 88.410136 
L 50.618128 69.026459 
L 51.828988 56.205201 
L 53.039848 47.787965 
L 54.250708 42.407837 
L 55.461568 38.670426 
L 56.672428 36.851795 
L 57.883288 36.168079 
L 59.094148 36.349891 
L 60.305008 37.214406 
L 61.515868 38.584374 
L 62.726728 40.373172 
L 63.937588 42.472761 
L 66.359308 47.37733 
L 68.781028 52.884132 
L 73.624468 64.663382 
L 80.889628 82.324739 
L 85.733068 93.538961 
L 90.576508 104.0644 
L 94.209088 111.488053 
L 97.841668 118.433851 
L 101.474248 124.90571 
L 105.106828 130.885264 
L 107.528548 134.621063 
L 112.371988 141.476167 
L 117.215428 147.594282 
L 120.848008 151.773221 
L 124.480588 155.619306 
L 128.113168 159.143424 
L 131.745748 162.379898 
L 135.378328 165.335693 
L 139.010908 168.047776 
L 143.854348 171.28356 
L 148.697788 174.137694 
L 153.541228 176.638638 
L 158.384668 178.830193 
L 163.228108 180.751297 
L 168.071548 182.406376 
L 172.914988 183.871804 
L 180.180148 185.66391 
L 189.867028 187.492317 
L 197.132188 188.521059 
L 204.397348 189.319483 
L 212.873368 190.014803 
L 222.560248 190.568206 
L 233.457988 190.972033 
L 234.461953 190.999928 
L 234.461953 190.999928 
" clip-path="url(#p618e95eecf)" style="fill: none; stroke: #a2da37; stroke-width: 1.5; stroke-linecap: square"/>
   </g>
   <g id="line2d_55">
    <path d="M 46.985548 164.118398 
L 48.196408 116.800063 
L 49.407268 86.490704 
L 50.618128 67.037403 
L 51.828988 54.244032 
L 53.039848 45.896974 
L 54.250708 40.605712 
L 55.461568 36.976344 
L 56.672428 35.258269 
L 57.883288 34.673812 
L 59.094148 34.951604 
L 60.305008 35.90743 
L 61.515868 37.364293 
L 62.726728 39.23478 
L 63.937588 41.411421 
L 66.359308 46.455982 
L 68.781028 52.085957 
L 73.624468 64.069434 
L 79.678768 79.043637 
L 84.522208 90.499141 
L 88.154788 98.655377 
L 92.998228 108.901312 
L 96.630808 116.042255 
L 100.263388 122.705683 
L 103.895968 128.856831 
L 107.528548 134.565756 
L 111.161128 139.810445 
L 114.793708 144.599108 
L 118.426288 149.023498 
L 122.058868 153.087115 
L 125.691448 156.82591 
L 129.324027 160.257841 
L 132.956608 163.398875 
L 136.589188 166.278879 
L 141.432628 169.723352 
L 146.276068 172.762896 
L 151.119508 175.435203 
L 155.962948 177.774562 
L 160.806388 179.82904 
L 166.860688 182.028374 
L 174.125848 184.181387 
L 180.180148 185.660497 
L 189.867028 187.488275 
L 197.132188 188.517174 
L 204.397348 189.315989 
L 212.873368 190.011975 
L 222.560248 190.566226 
L 233.457988 190.970762 
L 234.461953 190.998714 
L 234.461953 190.998714 
" clip-path="url(#p618e95eecf)" style="fill: none; stroke: #b0dd2f; stroke-width: 1.5; stroke-linecap: square"/>
   </g>
   <g id="line2d_56">
    <path d="M 46.985548 163.40806 
L 48.196408 115.204283 
L 49.407268 84.60682 
L 50.618128 65.090929 
L 51.828988 52.329001 
L 53.039848 44.053614 
L 54.250708 38.851423 
L 55.461568 35.329009 
L 56.672428 33.710255 
L 57.883288 33.22348 
L 59.094148 33.595467 
L 60.305008 34.640715 
L 61.515868 36.182508 
L 62.726728 38.132716 
L 63.937588 40.384436 
L 66.359308 45.56515 
L 69.991888 54.310865 
L 82.100488 84.506033 
L 86.943928 95.746883 
L 91.787368 106.237997 
L 95.419948 113.580058 
L 99.052528 120.425522 
L 102.685108 126.775162 
L 106.317688 132.674822 
L 109.950268 138.033807 
L 112.371988 141.408357 
L 116.004568 146.098593 
L 119.637148 150.406649 
L 123.269728 154.364169 
L 126.902308 158.002986 
L 130.534888 161.339086 
L 134.167468 164.396115 
L 137.800048 167.179814 
L 141.432628 169.729017 
L 146.276068 172.767967 
L 151.119508 175.439115 
L 155.962948 177.777125 
L 160.806388 179.829891 
L 166.860688 182.027259 
L 174.125848 184.178887 
L 180.180148 185.656817 
L 189.867028 187.484137 
L 197.132188 188.513265 
L 204.397348 189.312509 
L 212.873368 190.00918 
L 222.560248 190.564276 
L 233.457988 190.969516 
L 234.461953 190.997524 
L 234.461953 190.997524 
" clip-path="url(#p618e95eecf)" style="fill: none; stroke: #bddf26; stroke-width: 1.5; stroke-linecap: square"/>
   </g>
   <g id="line2d_57">
    <path d="M 46.985548 162.703093 
L 48.196408 113.631081 
L 49.407268 82.757688 
L 50.618128 63.185833 
L 51.828988 50.458622 
L 53.039848 42.256212 
L 54.250708 37.143183 
L 55.461568 33.726594 
L 56.672428 32.205904 
L 57.883288 31.815238 
L 59.094148 32.279659 
L 60.305008 33.412478 
L 61.515868 35.03729 
L 62.726728 37.065306 
L 63.937588 39.390198 
L 66.359308 44.703363 
L 69.991888 53.617682 
L 82.100488 84.185076 
L 86.943928 95.513693 
L 91.787368 106.068894 
L 95.419948 113.447205 
L 99.052528 120.321957 
L 102.685108 126.695522 
L 106.317688 132.613981 
L 109.950268 137.99033 
L 112.371988 141.373608 
L 116.004568 146.075419 
L 119.637148 150.392594 
L 123.269728 154.356996 
L 126.902308 158.000617 
L 130.534888 161.33994 
L 134.167468 164.398842 
L 137.800048 167.183698 
L 141.432628 169.73303 
L 146.276068 172.771562 
L 151.119508 175.441753 
L 155.962948 177.778617 
L 160.806388 179.829883 
L 166.860688 182.025528 
L 172.914988 183.863642 
L 180.180148 185.652902 
L 189.867028 187.479919 
L 197.132188 188.509339 
L 204.397348 189.309049 
L 212.873368 190.006419 
L 222.560248 190.562358 
L 233.457988 190.968294 
L 234.461953 190.996357 
L 234.461953 190.996357 
" clip-path="url(#p618e95eecf)" style="fill: none; stroke: #cae11f; stroke-width: 1.5; stroke-linecap: square"/>
   </g>
   <g id="line2d_58">
    <path d="M 46.985548 162.003574 
L 48.196408 112.080182 
L 49.407268 80.942521 
L 50.618128 61.320941 
L 51.828988 48.631461 
L 53.039848 40.503163 
L 54.250708 35.479283 
L 55.461568 32.167361 
L 56.672428 30.743461 
L 57.883288 30.447338 
L 59.094148 31.002459 
L 60.305008 32.221039 
L 61.515868 33.927006 
L 62.726728 36.030973 
L 65.148448 41.06312 
L 67.570168 46.811735 
L 72.413608 59.243881 
L 79.678768 77.913927 
L 84.522208 89.677475 
L 88.154788 98.010112 
L 91.787368 105.904633 
L 95.419948 113.31782 
L 99.052528 120.220718 
L 102.685108 126.617252 
L 106.317688 132.55375 
L 109.950268 137.946752 
L 112.371988 141.338405 
L 116.004568 146.051335 
L 119.637148 150.377287 
L 123.269728 154.348337 
L 126.902308 157.996631 
L 130.534888 161.339124 
L 134.167468 164.399911 
L 137.800048 167.185976 
L 141.432628 169.735537 
L 146.276068 172.773814 
L 151.119508 175.443232 
L 155.962948 177.779139 
L 160.806388 179.829099 
L 166.860688 182.023241 
L 172.914988 183.860128 
L 180.180148 185.64878 
L 189.867028 187.475636 
L 197.132188 188.505404 
L 204.397348 189.305612 
L 212.873368 190.003693 
L 222.560248 190.56047 
L 233.457988 190.967096 
L 234.461953 190.995214 
L 234.461953 190.995214 
" clip-path="url(#p618e95eecf)" style="fill: none; stroke: #d8e219; stroke-width: 1.5; stroke-linecap: square"/>
   </g>
   <g id="line2d_59">
    <path d="M 46.985548 161.309568 
L 48.196408 110.551297 
L 49.407268 79.160537 
L 50.618128 59.495112 
L 51.828988 46.846133 
L 53.039848 38.792931 
L 54.250708 33.858093 
L 55.461568 30.649655 
L 56.672428 29.321258 
L 57.883288 29.118126 
L 59.094148 29.76224 
L 60.305008 31.064809 
L 61.515868 32.850118 
L 62.726728 35.028236 
L 65.148448 40.194716 
L 67.570168 46.060535 
L 72.413608 58.684636 
L 78.467908 74.491447 
L 83.311348 86.521185 
L 86.943928 95.068548 
L 90.576508 103.147668 
L 94.209088 110.766686 
L 97.841668 117.869776 
L 101.474248 124.468298 
L 105.106828 130.553142 
L 107.528548 134.347842 
L 111.161128 139.651452 
L 114.793708 144.491355 
L 118.426288 148.954408 
L 122.058868 153.047895 
L 125.691448 156.808026 
L 129.324027 160.254555 
L 132.956608 163.405196 
L 136.589188 166.289862 
L 140.221768 168.90911 
L 143.854348 171.30381 
L 148.697788 174.154 
L 153.541228 176.649694 
L 158.384668 178.834837 
L 163.228108 180.748407 
L 168.071548 182.398809 
L 172.914988 183.856289 
L 180.180148 185.644477 
L 189.867028 187.4713 
L 197.132188 188.501467 
L 204.397348 189.3022 
L 212.873368 190.001002 
L 222.560248 190.558614 
L 233.457988 190.965921 
L 234.461953 190.994092 
L 234.461953 190.994092 
" clip-path="url(#p618e95eecf)" style="fill: none; stroke: #e5e419; stroke-width: 1.5; stroke-linecap: square"/>
   </g>
   <g id="line2d_60">
    <path d="M 46.985548 160.621124 
L 48.196408 109.044124 
L 49.407268 77.410967 
L 50.618128 57.707236 
L 51.828988 45.101308 
L 53.039848 37.12404 
L 54.250708 32.278057 
L 55.461568 29.1719 
L 56.672428 27.937713 
L 57.883288 27.826031 
L 59.094148 28.557462 
L 60.305008 29.942288 
L 61.515868 31.805174 
L 62.726728 34.055696 
L 65.148448 39.353103 
L 67.570168 45.33291 
L 72.413608 58.143227 
L 78.467908 74.122337 
L 83.311348 86.251738 
L 86.943928 94.855884 
L 90.576508 102.979904 
L 94.209088 110.633751 
L 97.841668 117.764791 
L 101.474248 124.385751 
L 105.106828 130.489203 
L 107.528548 134.294302 
L 111.161128 139.611212 
L 114.793708 144.462697 
L 118.426288 148.934534 
L 122.058868 153.034859 
L 125.691448 156.799943 
L 129.324027 160.249941 
L 132.956608 163.402952 
L 136.589188 166.288898 
L 140.221768 168.909025 
L 143.854348 171.303805 
L 148.697788 174.153712 
L 153.541228 176.648886 
L 158.384668 178.833285 
L 163.228108 180.745887 
L 168.071548 182.395786 
L 172.914988 183.852159 
L 180.180148 185.640016 
L 189.867028 187.466921 
L 197.132188 188.497533 
L 204.397348 189.298816 
L 212.873368 189.998349 
L 222.560248 190.556788 
L 233.457988 190.964769 
L 234.461953 190.992993 
L 234.461953 190.992993 
" clip-path="url(#p618e95eecf)" style="fill: none; stroke: #f1e51d; stroke-width: 1.5; stroke-linecap: square"/>
   </g>
   <g id="line2d_61">
    <path d="M 46.985548 191.506031 
L 54.250708 191.506031 
L 55.461568 187.51733 
L 59.094148 186.186413 
L 60.305008 185.896239 
L 69.991888 182.197854 
L 74.835328 179.785585 
L 78.467908 177.282442 
L 79.678768 176.349193 
L 84.522208 171.951745 
L 85.733068 170.689543 
L 88.154788 167.658473 
L 92.998228 161.158591 
L 96.630808 155.566297 
L 103.895968 143.971893 
L 105.106828 142.319503 
L 106.317688 140.860458 
L 108.739408 137.130983 
L 109.950268 135.668884 
L 111.161128 134.79047 
L 113.582848 131.962423 
L 116.004568 130.49027 
L 117.215428 129.597955 
L 120.848008 128.521062 
L 123.269728 128.534802 
L 125.691448 128.989288 
L 128.113168 129.918342 
L 130.534888 131.265415 
L 132.956608 132.925258 
L 137.800048 137.11882 
L 141.432628 140.866404 
L 142.643488 142.041624 
L 143.854348 143.469768 
L 145.065208 144.698985 
L 146.276068 146.168873 
L 147.486928 147.385012 
L 148.697788 148.918181 
L 149.908648 150.095095 
L 151.119508 151.649562 
L 152.330368 152.909086 
L 154.752088 155.683869 
L 160.806388 162.301453 
L 162.017248 163.427304 
L 164.438968 165.944997 
L 165.649828 167.028102 
L 166.860688 168.332576 
L 168.071548 169.196011 
L 169.282408 170.415215 
L 170.493268 171.44876 
L 171.704128 172.271212 
L 172.914988 173.609353 
L 174.125848 174.294517 
L 175.336708 175.194094 
L 176.547568 176.268269 
L 177.758428 176.761864 
L 178.969288 177.779883 
L 180.180148 178.61654 
L 181.391008 179.019723 
L 182.601867 180.057038 
L 183.812728 180.701136 
L 185.023588 181.134821 
L 186.234448 181.945742 
L 193.499608 185.001349 
L 198.343048 186.500461 
L 205.608208 188.216825 
L 211.662508 189.20153 
L 218.927668 189.994511 
L 223.771108 190.375174 
L 228.614548 190.672418 
L 234.461953 190.928204 
L 234.461953 190.928204 
" clip-path="url(#p618e95eecf)" style="fill: none; stroke-dasharray: 5.55,2.4; stroke-dashoffset: 0; stroke: #000000; stroke-width: 1.5"/>
   </g>
   <g id="patch_3">
    <path d="M 45.774688 191.506031 
L 45.774688 19.642031 
" style="fill: none; stroke: #000000; stroke-width: 0.8; stroke-linejoin: miter; stroke-linecap: square"/>
   </g>
   <g id="patch_4">
    <path d="M 218.754688 191.506031 
L 218.754688 19.642031 
" style="fill: none; stroke: #000000; stroke-width: 0.8; stroke-linejoin: miter; stroke-linecap: square"/>
   </g>
   <g id="patch_5">
    <path d="M 45.774688 191.506031 
L 218.754688 191.506031 
" style="fill: none; stroke: #000000; stroke-width: 0.8; stroke-linejoin: miter; stroke-linecap: square"/>
   </g>
   <g id="patch_6">
    <path d="M 45.774688 19.642031 
L 218.754688 19.642031 
" style="fill: none; stroke: #000000; stroke-width: 0.8; stroke-linejoin: miter; stroke-linecap: square"/>
   </g>
   <g id="text_13">
    <!-- N:15 -->
    <g transform="translate(122.759844 13.642031) scale(0.09 -0.09)">
     <defs>
      <path id="ArialMT-4e" d="M 488 0 
L 488 4581 
L 1109 4581 
L 3516 984 
L 3516 4581 
L 4097 4581 
L 4097 0 
L 3475 0 
L 1069 3600 
L 1069 0 
L 488 0 
z
" transform="scale(0.015625)"/>
      <path id="ArialMT-3a" d="M 578 2678 
L 578 3319 
L 1219 3319 
L 1219 2678 
L 578 2678 
z
M 578 0 
L 578 641 
L 1219 641 
L 1219 0 
L 578 0 
z
" transform="scale(0.015625)"/>
      <path id="ArialMT-35" d="M 266 1200 
L 856 1250 
Q 922 819 1161 601 
Q 1400 384 1738 384 
Q 2144 384 2425 690 
Q 2706 997 2706 1503 
Q 2706 1984 2436 2262 
Q 2166 2541 1728 2541 
Q 1456 2541 1237 2417 
Q 1019 2294 894 2097 
L 366 2166 
L 809 4519 
L 3088 4519 
L 3088 3981 
L 1259 3981 
L 1013 2750 
Q 1425 3038 1878 3038 
Q 2478 3038 2890 2622 
Q 3303 2206 3303 1553 
Q 3303 931 2941 478 
Q 2500 -78 1738 -78 
Q 1113 -78 717 272 
Q 322 622 266 1200 
z
" transform="scale(0.015625)"/>
     </defs>
     <use xlink:href="#ArialMT-4e"/>
     <use xlink:href="#ArialMT-3a" transform="translate(72.216797 0)"/>
     <use xlink:href="#ArialMT-31" transform="translate(100 0)"/>
     <use xlink:href="#ArialMT-35" transform="translate(155.615234 0)"/>
    </g>
   </g>
  </g>
 </g>
 <defs>
  <clipPath id="p618e95eecf">
   <rect x="45.774688" y="19.642031" width="172.98" height="171.864"/>
  </clipPath>
 </defs>
</svg>
