<?xml version="1.0" encoding="utf-8" standalone="no"?>
<!DOCTYPE svg PUBLIC "-//W3C//DTD SVG 1.1//EN"
  "http://www.w3.org/Graphics/SVG/1.1/DTD/svg11.dtd">
<svg xmlns:xlink="http://www.w3.org/1999/xlink" width="233.461953pt" height="228.606812pt" viewBox="0 0 233.461953 228.606812" xmlns="http://www.w3.org/2000/svg" version="1.1">
 <metadata>
  <rdf:RDF xmlns:dc="http://purl.org/dc/elements/1.1/" xmlns:cc="http://creativecommons.org/ns#" xmlns:rdf="http://www.w3.org/1999/02/22-rdf-syntax-ns#">
   <cc:Work>
    <dc:type rdf:resource="http://purl.org/dc/dcmitype/StillImage"/>
    <dc:date>2025-09-22T17:04:49.366293</dc:date>
    <dc:format>image/svg+xml</dc:format>
    <dc:creator>
     <cc:Agent>
      <dc:title>Matplotlib v3.10.6, https://matplotlib.org/</dc:title>
     </cc:Agent>
    </dc:creator>
   </cc:Work>
  </rdf:RDF>
 </metadata>
 <defs>
  <style type="text/css">*{stroke-linejoin: round; stroke-linecap: butt}</style>
 </defs>
 <g id="figure_1">
  <g id="patch_1">
   <path d="M 0 228.606812 
L 233.461953 228.606812 
L 233.461953 0 
L 0 0 
L 0 228.606812 
z
" style="fill: none"/>
  </g>
  <g id="axes_1">
   <g id="patch_2">
    <path d="M 45.774688 191.506031 
L 218.754688 191.506031 
L 218.754688 19.642031 
L 45.774688 19.642031 
L 45.774688 191.506031 
z
" style="fill: none"/>
   </g>
   <g id="matplotlib.axis_1">
    <g id="xtick_1">
     <g id="line2d_1">
      <defs>
       <path id="m31cb82a20e" d="M 0 0 
L 0 3.5 
" style="stroke: #000000; stroke-width: 0.8"/>
      </defs>
      <g>
       <use xlink:href="#m31cb82a20e" x="45.774688" y="191.506031" style="stroke: #000000; stroke-width: 0.8"/>
      </g>
     </g>
     <g id="text_1">
      <!-- 0 -->
      <g transform="translate(43.272266 204.948062) scale(0.09 -0.09)">
       <defs>
        <path id="ArialMT-30" d="M 266 2259 
Q 266 3072 433 3567 
Q 600 4063 929 4331 
Q 1259 4600 1759 4600 
Q 2128 4600 2406 4451 
Q 2684 4303 2865 4023 
Q 3047 3744 3150 3342 
Q 3253 2941 3253 2259 
Q 3253 1453 3087 958 
Q 2922 463 2592 192 
Q 2263 -78 1759 -78 
Q 1097 -78 719 397 
Q 266 969 266 2259 
z
M 844 2259 
Q 844 1131 1108 757 
Q 1372 384 1759 384 
Q 2147 384 2411 759 
Q 2675 1134 2675 2259 
Q 2675 3391 2411 3762 
Q 2147 4134 1753 4134 
Q 1366 4134 1134 3806 
Q 844 3388 844 2259 
z
" transform="scale(0.015625)"/>
       </defs>
       <use xlink:href="#ArialMT-30"/>
      </g>
     </g>
    </g>
    <g id="xtick_2">
     <g id="line2d_2">
      <g>
       <use xlink:href="#m31cb82a20e" x="89.019688" y="191.506031" style="stroke: #000000; stroke-width: 0.8"/>
      </g>
     </g>
     <g id="text_2">
      <!-- 100 -->
      <g transform="translate(81.512422 204.948062) scale(0.09 -0.09)">
       <defs>
        <path id="ArialMT-31" d="M 2384 0 
L 1822 0 
L 1822 3584 
Q 1619 3391 1289 3197 
Q 959 3003 697 2906 
L 697 3450 
Q 1169 3672 1522 3987 
Q 1875 4303 2022 4600 
L 2384 4600 
L 2384 0 
z
" transform="scale(0.015625)"/>
       </defs>
       <use xlink:href="#ArialMT-31"/>
       <use xlink:href="#ArialMT-30" transform="translate(55.615234 0)"/>
       <use xlink:href="#ArialMT-30" transform="translate(111.230469 0)"/>
      </g>
     </g>
    </g>
    <g id="xtick_3">
     <g id="line2d_3">
      <g>
       <use xlink:href="#m31cb82a20e" x="132.264688" y="191.506031" style="stroke: #000000; stroke-width: 0.8"/>
      </g>
     </g>
     <g id="text_3">
      <!-- 200 -->
      <g transform="translate(124.757422 204.948062) scale(0.09 -0.09)">
       <defs>
        <path id="ArialMT-32" d="M 3222 541 
L 3222 0 
L 194 0 
Q 188 203 259 391 
Q 375 700 629 1000 
Q 884 1300 1366 1694 
Q 2113 2306 2375 2664 
Q 2638 3022 2638 3341 
Q 2638 3675 2398 3904 
Q 2159 4134 1775 4134 
Q 1369 4134 1125 3890 
Q 881 3647 878 3216 
L 300 3275 
Q 359 3922 746 4261 
Q 1134 4600 1788 4600 
Q 2447 4600 2831 4234 
Q 3216 3869 3216 3328 
Q 3216 3053 3103 2787 
Q 2991 2522 2730 2228 
Q 2469 1934 1863 1422 
Q 1356 997 1212 845 
Q 1069 694 975 541 
L 3222 541 
z
" transform="scale(0.015625)"/>
       </defs>
       <use xlink:href="#ArialMT-32"/>
       <use xlink:href="#ArialMT-30" transform="translate(55.615234 0)"/>
       <use xlink:href="#ArialMT-30" transform="translate(111.230469 0)"/>
      </g>
     </g>
    </g>
    <g id="xtick_4">
     <g id="line2d_4">
      <g>
       <use xlink:href="#m31cb82a20e" x="175.509688" y="191.506031" style="stroke: #000000; stroke-width: 0.8"/>
      </g>
     </g>
     <g id="text_4">
      <!-- 300 -->
      <g transform="translate(168.002422 204.948062) scale(0.09 -0.09)">
       <defs>
        <path id="ArialMT-33" d="M 269 1209 
L 831 1284 
Q 928 806 1161 595 
Q 1394 384 1728 384 
Q 2125 384 2398 659 
Q 2672 934 2672 1341 
Q 2672 1728 2419 1979 
Q 2166 2231 1775 2231 
Q 1616 2231 1378 2169 
L 1441 2663 
Q 1497 2656 1531 2656 
Q 1891 2656 2178 2843 
Q 2466 3031 2466 3422 
Q 2466 3731 2256 3934 
Q 2047 4138 1716 4138 
Q 1388 4138 1169 3931 
Q 950 3725 888 3313 
L 325 3413 
Q 428 3978 793 4289 
Q 1159 4600 1703 4600 
Q 2078 4600 2393 4439 
Q 2709 4278 2876 4000 
Q 3044 3722 3044 3409 
Q 3044 3113 2884 2869 
Q 2725 2625 2413 2481 
Q 2819 2388 3044 2092 
Q 3269 1797 3269 1353 
Q 3269 753 2831 336 
Q 2394 -81 1725 -81 
Q 1122 -81 723 278 
Q 325 638 269 1209 
z
" transform="scale(0.015625)"/>
       </defs>
       <use xlink:href="#ArialMT-33"/>
       <use xlink:href="#ArialMT-30" transform="translate(55.615234 0)"/>
       <use xlink:href="#ArialMT-30" transform="translate(111.230469 0)"/>
      </g>
     </g>
    </g>
    <g id="xtick_5">
     <g id="line2d_5">
      <g>
       <use xlink:href="#m31cb82a20e" x="218.754688" y="191.506031" style="stroke: #000000; stroke-width: 0.8"/>
      </g>
     </g>
     <g id="text_5">
      <!-- 400 -->
      <g transform="translate(211.247422 204.948062) scale(0.09 -0.09)">
       <defs>
        <path id="ArialMT-34" d="M 2069 0 
L 2069 1097 
L 81 1097 
L 81 1613 
L 2172 4581 
L 2631 4581 
L 2631 1613 
L 3250 1613 
L 3250 1097 
L 2631 1097 
L 2631 0 
L 2069 0 
z
M 2069 1613 
L 2069 3678 
L 634 1613 
L 2069 1613 
z
" transform="scale(0.015625)"/>
       </defs>
       <use xlink:href="#ArialMT-34"/>
       <use xlink:href="#ArialMT-30" transform="translate(55.615234 0)"/>
       <use xlink:href="#ArialMT-30" transform="translate(111.230469 0)"/>
      </g>
     </g>
    </g>
    <g id="text_6">
     <!-- $\bf{molar\ mass}\ \it{(kg/mol)}$ -->
     <g transform="translate(71.764688 219.096812) scale(0.11 -0.11)">
      <defs>
       <path id="DejaVuSans-Bold-6d" d="M 3781 2919 
Q 3994 3244 4286 3414 
Q 4578 3584 4928 3584 
Q 5531 3584 5847 3212 
Q 6163 2841 6163 2131 
L 6163 0 
L 5038 0 
L 5038 1825 
Q 5041 1866 5042 1909 
Q 5044 1953 5044 2034 
Q 5044 2406 4934 2573 
Q 4825 2741 4581 2741 
Q 4263 2741 4089 2478 
Q 3916 2216 3909 1719 
L 3909 0 
L 2784 0 
L 2784 1825 
Q 2784 2406 2684 2573 
Q 2584 2741 2328 2741 
Q 2006 2741 1831 2477 
Q 1656 2213 1656 1722 
L 1656 0 
L 531 0 
L 531 3500 
L 1656 3500 
L 1656 2988 
Q 1863 3284 2130 3434 
Q 2397 3584 2719 3584 
Q 3081 3584 3359 3409 
Q 3638 3234 3781 2919 
z
" transform="scale(0.015625)"/>
       <path id="DejaVuSans-Bold-6f" d="M 2203 2784 
Q 1831 2784 1636 2517 
Q 1441 2250 1441 1747 
Q 1441 1244 1636 976 
Q 1831 709 2203 709 
Q 2569 709 2762 976 
Q 2956 1244 2956 1747 
Q 2956 2250 2762 2517 
Q 2569 2784 2203 2784 
z
M 2203 3584 
Q 3106 3584 3614 3096 
Q 4122 2609 4122 1747 
Q 4122 884 3614 396 
Q 3106 -91 2203 -91 
Q 1297 -91 786 396 
Q 275 884 275 1747 
Q 275 2609 786 3096 
Q 1297 3584 2203 3584 
z
" transform="scale(0.015625)"/>
       <path id="DejaVuSans-Bold-6c" d="M 538 4863 
L 1656 4863 
L 1656 0 
L 538 0 
L 538 4863 
z
" transform="scale(0.015625)"/>
       <path id="DejaVuSans-Bold-61" d="M 2106 1575 
Q 1756 1575 1579 1456 
Q 1403 1338 1403 1106 
Q 1403 894 1545 773 
Q 1688 653 1941 653 
Q 2256 653 2472 879 
Q 2688 1106 2688 1447 
L 2688 1575 
L 2106 1575 
z
M 3816 1997 
L 3816 0 
L 2688 0 
L 2688 519 
Q 2463 200 2181 54 
Q 1900 -91 1497 -91 
Q 953 -91 614 226 
Q 275 544 275 1050 
Q 275 1666 698 1953 
Q 1122 2241 2028 2241 
L 2688 2241 
L 2688 2328 
Q 2688 2594 2478 2717 
Q 2269 2841 1825 2841 
Q 1466 2841 1156 2769 
Q 847 2697 581 2553 
L 581 3406 
Q 941 3494 1303 3539 
Q 1666 3584 2028 3584 
Q 2975 3584 3395 3211 
Q 3816 2838 3816 1997 
z
" transform="scale(0.015625)"/>
       <path id="DejaVuSans-Bold-72" d="M 3138 2547 
Q 2991 2616 2845 2648 
Q 2700 2681 2553 2681 
Q 2122 2681 1889 2404 
Q 1656 2128 1656 1613 
L 1656 0 
L 538 0 
L 538 3500 
L 1656 3500 
L 1656 2925 
Q 1872 3269 2151 3426 
Q 2431 3584 2822 3584 
Q 2878 3584 2943 3579 
Q 3009 3575 3134 3559 
L 3138 2547 
z
" transform="scale(0.015625)"/>
       <path id="DejaVuSans-Bold-73" d="M 3272 3391 
L 3272 2541 
Q 2913 2691 2578 2766 
Q 2244 2841 1947 2841 
Q 1628 2841 1473 2761 
Q 1319 2681 1319 2516 
Q 1319 2381 1436 2309 
Q 1553 2238 1856 2203 
L 2053 2175 
Q 2913 2066 3209 1816 
Q 3506 1566 3506 1031 
Q 3506 472 3093 190 
Q 2681 -91 1863 -91 
Q 1516 -91 1145 -36 
Q 775 19 384 128 
L 384 978 
Q 719 816 1070 734 
Q 1422 653 1784 653 
Q 2113 653 2278 743 
Q 2444 834 2444 1013 
Q 2444 1163 2330 1236 
Q 2216 1309 1875 1350 
L 1678 1375 
Q 931 1469 631 1722 
Q 331 1975 331 2491 
Q 331 3047 712 3315 
Q 1094 3584 1881 3584 
Q 2191 3584 2531 3537 
Q 2872 3491 3272 3391 
z
" transform="scale(0.015625)"/>
       <path id="DejaVuSans-28" d="M 1984 4856 
Q 1566 4138 1362 3434 
Q 1159 2731 1159 2009 
Q 1159 1288 1364 580 
Q 1569 -128 1984 -844 
L 1484 -844 
Q 1016 -109 783 600 
Q 550 1309 550 2009 
Q 550 2706 781 3412 
Q 1013 4119 1484 4856 
L 1984 4856 
z
" transform="scale(0.015625)"/>
       <path id="DejaVuSans-Oblique-6b" d="M 1172 4863 
L 1747 4863 
L 1197 2028 
L 3169 3500 
L 3916 3500 
L 1716 1825 
L 3322 0 
L 2625 0 
L 1131 1709 
L 800 0 
L 225 0 
L 1172 4863 
z
" transform="scale(0.015625)"/>
       <path id="DejaVuSans-Oblique-67" d="M 3816 3500 
L 3219 434 
Q 3047 -456 2561 -893 
Q 2075 -1331 1253 -1331 
Q 950 -1331 690 -1286 
Q 431 -1241 206 -1147 
L 313 -588 
Q 525 -725 762 -790 
Q 1000 -856 1269 -856 
Q 1816 -856 2167 -557 
Q 2519 -259 2631 300 
L 2681 563 
Q 2441 288 2122 144 
Q 1803 0 1434 0 
Q 903 0 598 351 
Q 294 703 294 1319 
Q 294 1803 478 2267 
Q 663 2731 997 3091 
Q 1219 3328 1514 3456 
Q 1809 3584 2131 3584 
Q 2484 3584 2746 3420 
Q 3009 3256 3138 2956 
L 3238 3500 
L 3816 3500 
z
M 2950 2216 
Q 2950 2641 2750 2872 
Q 2550 3103 2181 3103 
Q 1953 3103 1747 3012 
Q 1541 2922 1394 2759 
Q 1156 2491 1023 2127 
Q 891 1763 891 1375 
Q 891 944 1092 712 
Q 1294 481 1672 481 
Q 2219 481 2584 976 
Q 2950 1472 2950 2216 
z
" transform="scale(0.015625)"/>
       <path id="DejaVuSans-2f" d="M 1625 4666 
L 2156 4666 
L 531 -594 
L 0 -594 
L 1625 4666 
z
" transform="scale(0.015625)"/>
       <path id="DejaVuSans-Oblique-6d" d="M 5747 2113 
L 5338 0 
L 4763 0 
L 5166 2094 
Q 5191 2228 5203 2325 
Q 5216 2422 5216 2491 
Q 5216 2772 5059 2928 
Q 4903 3084 4622 3084 
Q 4203 3084 3875 2770 
Q 3547 2456 3450 1953 
L 3066 0 
L 2491 0 
L 2900 2094 
Q 2925 2209 2937 2307 
Q 2950 2406 2950 2484 
Q 2950 2769 2794 2926 
Q 2638 3084 2363 3084 
Q 1938 3084 1609 2770 
Q 1281 2456 1184 1953 
L 800 0 
L 225 0 
L 909 3500 
L 1484 3500 
L 1375 2956 
Q 1609 3263 1923 3423 
Q 2238 3584 2597 3584 
Q 2978 3584 3223 3384 
Q 3469 3184 3519 2828 
Q 3781 3197 4126 3390 
Q 4472 3584 4856 3584 
Q 5306 3584 5551 3325 
Q 5797 3066 5797 2591 
Q 5797 2488 5784 2364 
Q 5772 2241 5747 2113 
z
" transform="scale(0.015625)"/>
       <path id="DejaVuSans-Oblique-6f" d="M 1625 -91 
Q 1009 -91 651 289 
Q 294 669 294 1325 
Q 294 1706 417 2101 
Q 541 2497 738 2766 
Q 1047 3184 1428 3384 
Q 1809 3584 2291 3584 
Q 2888 3584 3255 3212 
Q 3622 2841 3622 2241 
Q 3622 1825 3500 1412 
Q 3378 1000 3181 728 
Q 2875 309 2494 109 
Q 2113 -91 1625 -91 
z
M 891 1344 
Q 891 869 1089 633 
Q 1288 397 1691 397 
Q 2269 397 2648 901 
Q 3028 1406 3028 2181 
Q 3028 2634 2825 2865 
Q 2622 3097 2228 3097 
Q 1903 3097 1650 2945 
Q 1397 2794 1197 2484 
Q 1050 2253 970 1956 
Q 891 1659 891 1344 
z
" transform="scale(0.015625)"/>
       <path id="DejaVuSans-Oblique-6c" d="M 1172 4863 
L 1747 4863 
L 800 0 
L 225 0 
L 1172 4863 
z
" transform="scale(0.015625)"/>
       <path id="DejaVuSans-29" d="M 513 4856 
L 1013 4856 
Q 1481 4119 1714 3412 
Q 1947 2706 1947 2009 
Q 1947 1309 1714 600 
Q 1481 -109 1013 -844 
L 513 -844 
Q 928 -128 1133 580 
Q 1338 1288 1338 2009 
Q 1338 2731 1133 3434 
Q 928 4138 513 4856 
z
" transform="scale(0.015625)"/>
      </defs>
      <use xlink:href="#DejaVuSans-Bold-6d" transform="translate(0 0.015625)"/>
      <use xlink:href="#DejaVuSans-Bold-6f" transform="translate(104.199219 0.015625)"/>
      <use xlink:href="#DejaVuSans-Bold-6c" transform="translate(172.900391 0.015625)"/>
      <use xlink:href="#DejaVuSans-Bold-61" transform="translate(207.177734 0.015625)"/>
      <use xlink:href="#DejaVuSans-Bold-72" transform="translate(274.658203 0.015625)"/>
      <use xlink:href="#DejaVuSans-Bold-6d" transform="translate(356.444988 0.015625)"/>
      <use xlink:href="#DejaVuSans-Bold-61" transform="translate(460.644207 0.015625)"/>
      <use xlink:href="#DejaVuSans-Bold-73" transform="translate(528.124675 0.015625)"/>
      <use xlink:href="#DejaVuSans-Bold-73" transform="translate(587.64616 0.015625)"/>
      <use xlink:href="#DejaVuSans-28" transform="translate(679.638022 0.015625)"/>
      <use xlink:href="#DejaVuSans-Oblique-6b" transform="translate(718.651694 0.015625)"/>
      <use xlink:href="#DejaVuSans-Oblique-67" transform="translate(776.561851 0.015625)"/>
      <use xlink:href="#DejaVuSans-2f" transform="translate(840.038413 0.015625)"/>
      <use xlink:href="#DejaVuSans-Oblique-6d" transform="translate(873.729819 0.015625)"/>
      <use xlink:href="#DejaVuSans-Oblique-6f" transform="translate(971.141929 0.015625)"/>
      <use xlink:href="#DejaVuSans-Oblique-6c" transform="translate(1032.323569 0.015625)"/>
      <use xlink:href="#DejaVuSans-29" transform="translate(1060.106772 0.015625)"/>
     </g>
    </g>
   </g>
   <g id="matplotlib.axis_2">
    <g id="ytick_1">
     <g id="line2d_6">
      <defs>
       <path id="m3f08421ff6" d="M 0 0 
L -3.5 0 
" style="stroke: #000000; stroke-width: 0.8"/>
      </defs>
      <g>
       <use xlink:href="#m3f08421ff6" x="45.774688" y="191.506031" style="stroke: #000000; stroke-width: 0.8"/>
      </g>
     </g>
     <g id="text_7">
      <!-- 0.00 -->
      <g transform="translate(21.259844 194.727047) scale(0.09 -0.09)">
       <defs>
        <path id="ArialMT-2e" d="M 581 0 
L 581 641 
L 1222 641 
L 1222 0 
L 581 0 
z
" transform="scale(0.015625)"/>
       </defs>
       <use xlink:href="#ArialMT-30"/>
       <use xlink:href="#ArialMT-2e" transform="translate(55.615234 0)"/>
       <use xlink:href="#ArialMT-30" transform="translate(83.398438 0)"/>
       <use xlink:href="#ArialMT-30" transform="translate(139.013672 0)"/>
      </g>
     </g>
    </g>
    <g id="ytick_2">
     <g id="line2d_7">
      <g>
       <use xlink:href="#m3f08421ff6" x="45.774688" y="171.393266" style="stroke: #000000; stroke-width: 0.8"/>
      </g>
     </g>
     <g id="text_8">
      <!-- 0.01 -->
      <g transform="translate(21.259844 174.614282) scale(0.09 -0.09)">
       <use xlink:href="#ArialMT-30"/>
       <use xlink:href="#ArialMT-2e" transform="translate(55.615234 0)"/>
       <use xlink:href="#ArialMT-30" transform="translate(83.398438 0)"/>
       <use xlink:href="#ArialMT-31" transform="translate(139.013672 0)"/>
      </g>
     </g>
    </g>
    <g id="ytick_3">
     <g id="line2d_8">
      <g>
       <use xlink:href="#m3f08421ff6" x="45.774688" y="151.280502" style="stroke: #000000; stroke-width: 0.8"/>
      </g>
     </g>
     <g id="text_9">
      <!-- 0.02 -->
      <g transform="translate(21.259844 154.501517) scale(0.09 -0.09)">
       <use xlink:href="#ArialMT-30"/>
       <use xlink:href="#ArialMT-2e" transform="translate(55.615234 0)"/>
       <use xlink:href="#ArialMT-30" transform="translate(83.398438 0)"/>
       <use xlink:href="#ArialMT-32" transform="translate(139.013672 0)"/>
      </g>
     </g>
    </g>
    <g id="ytick_4">
     <g id="line2d_9">
      <g>
       <use xlink:href="#m3f08421ff6" x="45.774688" y="131.167737" style="stroke: #000000; stroke-width: 0.8"/>
      </g>
     </g>
     <g id="text_10">
      <!-- 0.03 -->
      <g transform="translate(21.259844 134.388752) scale(0.09 -0.09)">
       <use xlink:href="#ArialMT-30"/>
       <use xlink:href="#ArialMT-2e" transform="translate(55.615234 0)"/>
       <use xlink:href="#ArialMT-30" transform="translate(83.398438 0)"/>
       <use xlink:href="#ArialMT-33" transform="translate(139.013672 0)"/>
      </g>
     </g>
    </g>
    <g id="ytick_5">
     <g id="line2d_10">
      <g>
       <use xlink:href="#m3f08421ff6" x="45.774688" y="111.054972" style="stroke: #000000; stroke-width: 0.8"/>
      </g>
     </g>
     <g id="text_11">
      <!-- 0.04 -->
      <g transform="translate(21.259844 114.275988) scale(0.09 -0.09)">
       <use xlink:href="#ArialMT-30"/>
       <use xlink:href="#ArialMT-2e" transform="translate(55.615234 0)"/>
       <use xlink:href="#ArialMT-30" transform="translate(83.398438 0)"/>
       <use xlink:href="#ArialMT-34" transform="translate(139.013672 0)"/>
      </g>
     </g>
    </g>
    <g id="ytick_6">
     <g id="line2d_11">
      <g>
       <use xlink:href="#m3f08421ff6" x="45.774688" y="90.942207" style="stroke: #000000; stroke-width: 0.8"/>
      </g>
     </g>
     <g id="text_12">
      <!-- 0.05 -->
      <g transform="translate(21.259844 94.163223) scale(0.09 -0.09)">
       <defs>
        <path id="ArialMT-35" d="M 266 1200 
L 856 1250 
Q 922 819 1161 601 
Q 1400 384 1738 384 
Q 2144 384 2425 690 
Q 2706 997 2706 1503 
Q 2706 1984 2436 2262 
Q 2166 2541 1728 2541 
Q 1456 2541 1237 2417 
Q 1019 2294 894 2097 
L 366 2166 
L 809 4519 
L 3088 4519 
L 3088 3981 
L 1259 3981 
L 1013 2750 
Q 1425 3038 1878 3038 
Q 2478 3038 2890 2622 
Q 3303 2206 3303 1553 
Q 3303 931 2941 478 
Q 2500 -78 1738 -78 
Q 1113 -78 717 272 
Q 322 622 266 1200 
z
" transform="scale(0.015625)"/>
       </defs>
       <use xlink:href="#ArialMT-30"/>
       <use xlink:href="#ArialMT-2e" transform="translate(55.615234 0)"/>
       <use xlink:href="#ArialMT-30" transform="translate(83.398438 0)"/>
       <use xlink:href="#ArialMT-35" transform="translate(139.013672 0)"/>
      </g>
     </g>
    </g>
    <g id="ytick_7">
     <g id="line2d_12">
      <g>
       <use xlink:href="#m3f08421ff6" x="45.774688" y="70.829442" style="stroke: #000000; stroke-width: 0.8"/>
      </g>
     </g>
     <g id="text_13">
      <!-- 0.06 -->
      <g transform="translate(21.259844 74.050458) scale(0.09 -0.09)">
       <defs>
        <path id="ArialMT-36" d="M 3184 3459 
L 2625 3416 
Q 2550 3747 2413 3897 
Q 2184 4138 1850 4138 
Q 1581 4138 1378 3988 
Q 1113 3794 959 3422 
Q 806 3050 800 2363 
Q 1003 2672 1297 2822 
Q 1591 2972 1913 2972 
Q 2475 2972 2870 2558 
Q 3266 2144 3266 1488 
Q 3266 1056 3080 686 
Q 2894 316 2569 119 
Q 2244 -78 1831 -78 
Q 1128 -78 684 439 
Q 241 956 241 2144 
Q 241 3472 731 4075 
Q 1159 4600 1884 4600 
Q 2425 4600 2770 4297 
Q 3116 3994 3184 3459 
z
M 888 1484 
Q 888 1194 1011 928 
Q 1134 663 1356 523 
Q 1578 384 1822 384 
Q 2178 384 2434 671 
Q 2691 959 2691 1453 
Q 2691 1928 2437 2201 
Q 2184 2475 1800 2475 
Q 1419 2475 1153 2201 
Q 888 1928 888 1484 
z
" transform="scale(0.015625)"/>
       </defs>
       <use xlink:href="#ArialMT-30"/>
       <use xlink:href="#ArialMT-2e" transform="translate(55.615234 0)"/>
       <use xlink:href="#ArialMT-30" transform="translate(83.398438 0)"/>
       <use xlink:href="#ArialMT-36" transform="translate(139.013672 0)"/>
      </g>
     </g>
    </g>
    <g id="ytick_8">
     <g id="line2d_13">
      <g>
       <use xlink:href="#m3f08421ff6" x="45.774688" y="50.716678" style="stroke: #000000; stroke-width: 0.8"/>
      </g>
     </g>
     <g id="text_14">
      <!-- 0.07 -->
      <g transform="translate(21.259844 53.937693) scale(0.09 -0.09)">
       <defs>
        <path id="ArialMT-37" d="M 303 3981 
L 303 4522 
L 3269 4522 
L 3269 4084 
Q 2831 3619 2401 2847 
Q 1972 2075 1738 1259 
Q 1569 684 1522 0 
L 944 0 
Q 953 541 1156 1306 
Q 1359 2072 1739 2783 
Q 2119 3494 2547 3981 
L 303 3981 
z
" transform="scale(0.015625)"/>
       </defs>
       <use xlink:href="#ArialMT-30"/>
       <use xlink:href="#ArialMT-2e" transform="translate(55.615234 0)"/>
       <use xlink:href="#ArialMT-30" transform="translate(83.398438 0)"/>
       <use xlink:href="#ArialMT-37" transform="translate(139.013672 0)"/>
      </g>
     </g>
    </g>
    <g id="ytick_9">
     <g id="line2d_14">
      <g>
       <use xlink:href="#m3f08421ff6" x="45.774688" y="30.603913" style="stroke: #000000; stroke-width: 0.8"/>
      </g>
     </g>
     <g id="text_15">
      <!-- 0.08 -->
      <g transform="translate(21.259844 33.824929) scale(0.09 -0.09)">
       <defs>
        <path id="ArialMT-38" d="M 1131 2484 
Q 781 2613 612 2850 
Q 444 3088 444 3419 
Q 444 3919 803 4259 
Q 1163 4600 1759 4600 
Q 2359 4600 2725 4251 
Q 3091 3903 3091 3403 
Q 3091 3084 2923 2848 
Q 2756 2613 2416 2484 
Q 2838 2347 3058 2040 
Q 3278 1734 3278 1309 
Q 3278 722 2862 322 
Q 2447 -78 1769 -78 
Q 1091 -78 675 323 
Q 259 725 259 1325 
Q 259 1772 486 2073 
Q 713 2375 1131 2484 
z
M 1019 3438 
Q 1019 3113 1228 2906 
Q 1438 2700 1772 2700 
Q 2097 2700 2305 2904 
Q 2513 3109 2513 3406 
Q 2513 3716 2298 3927 
Q 2084 4138 1766 4138 
Q 1444 4138 1231 3931 
Q 1019 3725 1019 3438 
z
M 838 1322 
Q 838 1081 952 856 
Q 1066 631 1291 507 
Q 1516 384 1775 384 
Q 2178 384 2440 643 
Q 2703 903 2703 1303 
Q 2703 1709 2433 1975 
Q 2163 2241 1756 2241 
Q 1359 2241 1098 1978 
Q 838 1716 838 1322 
z
" transform="scale(0.015625)"/>
       </defs>
       <use xlink:href="#ArialMT-30"/>
       <use xlink:href="#ArialMT-2e" transform="translate(55.615234 0)"/>
       <use xlink:href="#ArialMT-30" transform="translate(83.398438 0)"/>
       <use xlink:href="#ArialMT-38" transform="translate(139.013672 0)"/>
      </g>
     </g>
    </g>
    <g id="text_16">
     <!-- $\bf{number\ fraction}\ \it{(-)}$ -->
     <g transform="translate(15.073594 166.294031) rotate(-90) scale(0.11 -0.11)">
      <defs>
       <path id="DejaVuSans-Bold-6e" d="M 4056 2131 
L 4056 0 
L 2931 0 
L 2931 347 
L 2931 1631 
Q 2931 2084 2911 2256 
Q 2891 2428 2841 2509 
Q 2775 2619 2662 2680 
Q 2550 2741 2406 2741 
Q 2056 2741 1856 2470 
Q 1656 2200 1656 1722 
L 1656 0 
L 538 0 
L 538 3500 
L 1656 3500 
L 1656 2988 
Q 1909 3294 2193 3439 
Q 2478 3584 2822 3584 
Q 3428 3584 3742 3212 
Q 4056 2841 4056 2131 
z
" transform="scale(0.015625)"/>
       <path id="DejaVuSans-Bold-75" d="M 500 1363 
L 500 3500 
L 1625 3500 
L 1625 3150 
Q 1625 2866 1622 2436 
Q 1619 2006 1619 1863 
Q 1619 1441 1641 1255 
Q 1663 1069 1716 984 
Q 1784 875 1895 815 
Q 2006 756 2150 756 
Q 2500 756 2700 1025 
Q 2900 1294 2900 1772 
L 2900 3500 
L 4019 3500 
L 4019 0 
L 2900 0 
L 2900 506 
Q 2647 200 2364 54 
Q 2081 -91 1741 -91 
Q 1134 -91 817 281 
Q 500 653 500 1363 
z
" transform="scale(0.015625)"/>
       <path id="DejaVuSans-Bold-62" d="M 2400 722 
Q 2759 722 2948 984 
Q 3138 1247 3138 1747 
Q 3138 2247 2948 2509 
Q 2759 2772 2400 2772 
Q 2041 2772 1848 2508 
Q 1656 2244 1656 1747 
Q 1656 1250 1848 986 
Q 2041 722 2400 722 
z
M 1656 2988 
Q 1888 3294 2169 3439 
Q 2450 3584 2816 3584 
Q 3463 3584 3878 3070 
Q 4294 2556 4294 1747 
Q 4294 938 3878 423 
Q 3463 -91 2816 -91 
Q 2450 -91 2169 54 
Q 1888 200 1656 506 
L 1656 0 
L 538 0 
L 538 4863 
L 1656 4863 
L 1656 2988 
z
" transform="scale(0.015625)"/>
       <path id="DejaVuSans-Bold-65" d="M 4031 1759 
L 4031 1441 
L 1416 1441 
Q 1456 1047 1700 850 
Q 1944 653 2381 653 
Q 2734 653 3104 758 
Q 3475 863 3866 1075 
L 3866 213 
Q 3469 63 3072 -14 
Q 2675 -91 2278 -91 
Q 1328 -91 801 392 
Q 275 875 275 1747 
Q 275 2603 792 3093 
Q 1309 3584 2216 3584 
Q 3041 3584 3536 3087 
Q 4031 2591 4031 1759 
z
M 2881 2131 
Q 2881 2450 2695 2645 
Q 2509 2841 2209 2841 
Q 1884 2841 1681 2658 
Q 1478 2475 1428 2131 
L 2881 2131 
z
" transform="scale(0.015625)"/>
       <path id="DejaVuSans-Bold-66" d="M 2841 4863 
L 2841 4128 
L 2222 4128 
Q 1984 4128 1890 4042 
Q 1797 3956 1797 3744 
L 1797 3500 
L 2753 3500 
L 2753 2700 
L 1797 2700 
L 1797 0 
L 678 0 
L 678 2700 
L 122 2700 
L 122 3500 
L 678 3500 
L 678 3744 
Q 678 4316 997 4589 
Q 1316 4863 1984 4863 
L 2841 4863 
z
" transform="scale(0.015625)"/>
       <path id="DejaVuSans-Bold-63" d="M 3366 3391 
L 3366 2478 
Q 3138 2634 2908 2709 
Q 2678 2784 2431 2784 
Q 1963 2784 1702 2511 
Q 1441 2238 1441 1747 
Q 1441 1256 1702 982 
Q 1963 709 2431 709 
Q 2694 709 2930 787 
Q 3166 866 3366 1019 
L 3366 103 
Q 3103 6 2833 -42 
Q 2563 -91 2291 -91 
Q 1344 -91 809 395 
Q 275 881 275 1747 
Q 275 2613 809 3098 
Q 1344 3584 2291 3584 
Q 2566 3584 2833 3536 
Q 3100 3488 3366 3391 
z
" transform="scale(0.015625)"/>
       <path id="DejaVuSans-Bold-74" d="M 1759 4494 
L 1759 3500 
L 2913 3500 
L 2913 2700 
L 1759 2700 
L 1759 1216 
Q 1759 972 1856 886 
Q 1953 800 2241 800 
L 2816 800 
L 2816 0 
L 1856 0 
Q 1194 0 917 276 
Q 641 553 641 1216 
L 641 2700 
L 84 2700 
L 84 3500 
L 641 3500 
L 641 4494 
L 1759 4494 
z
" transform="scale(0.015625)"/>
       <path id="DejaVuSans-Bold-69" d="M 538 3500 
L 1656 3500 
L 1656 0 
L 538 0 
L 538 3500 
z
M 538 4863 
L 1656 4863 
L 1656 3950 
L 538 3950 
L 538 4863 
z
" transform="scale(0.015625)"/>
       <path id="DejaVuSans-2212" d="M 678 2272 
L 4684 2272 
L 4684 1741 
L 678 1741 
L 678 2272 
z
" transform="scale(0.015625)"/>
      </defs>
      <use xlink:href="#DejaVuSans-Bold-6e" transform="translate(0 0.015625)"/>
      <use xlink:href="#DejaVuSans-Bold-75" transform="translate(71.191406 0.015625)"/>
      <use xlink:href="#DejaVuSans-Bold-6d" transform="translate(142.382812 0.015625)"/>
      <use xlink:href="#DejaVuSans-Bold-62" transform="translate(246.582031 0.015625)"/>
      <use xlink:href="#DejaVuSans-Bold-65" transform="translate(318.164062 0.015625)"/>
      <use xlink:href="#DejaVuSans-Bold-72" transform="translate(385.986328 0.015625)"/>
      <use xlink:href="#DejaVuSans-Bold-66" transform="translate(467.773113 0.015625)"/>
      <use xlink:href="#DejaVuSans-Bold-72" transform="translate(511.278972 0.015625)"/>
      <use xlink:href="#DejaVuSans-Bold-61" transform="translate(560.595378 0.015625)"/>
      <use xlink:href="#DejaVuSans-Bold-63" transform="translate(628.075847 0.015625)"/>
      <use xlink:href="#DejaVuSans-Bold-74" transform="translate(687.353191 0.015625)"/>
      <use xlink:href="#DejaVuSans-Bold-69" transform="translate(735.155925 0.015625)"/>
      <use xlink:href="#DejaVuSans-Bold-6f" transform="translate(769.433269 0.015625)"/>
      <use xlink:href="#DejaVuSans-Bold-6e" transform="translate(838.134441 0.015625)"/>
      <use xlink:href="#DejaVuSans-28" transform="translate(941.796226 0.015625)"/>
      <use xlink:href="#DejaVuSans-2212" transform="translate(980.809897 0.015625)"/>
      <use xlink:href="#DejaVuSans-29" transform="translate(1064.59896 0.015625)"/>
     </g>
    </g>
   </g>
   <g id="line2d_15">
    <path d="M 0 0 
" clip-path="url(#pb6e94e9b7a)" style="fill: none; stroke: #46085c; stroke-width: 1.5; stroke-linecap: square"/>
   </g>
   <g id="line2d_16">
    <path d="M 46.985548 191.276158 
L 48.196408 190.836733 
L 49.407268 190.01446 
L 51.828988 187.54492 
L 54.250708 185.061281 
L 55.461568 182.503891 
L 60.305008 177.114749 
L 63.937588 173.292889 
L 67.570168 169.815989 
L 69.991888 167.756962 
L 72.413608 165.952441 
L 74.835328 164.446276 
L 77.257048 163.228714 
L 79.678768 162.276389 
L 82.100488 161.62231 
L 84.522208 161.262192 
L 88.154788 160.981855 
L 90.576508 160.973591 
L 103.895968 161.620453 
L 107.528548 161.963291 
L 109.950268 162.106841 
L 111.161128 162.39552 
L 113.582848 162.591252 
L 122.058868 164.656442 
L 125.691448 165.890394 
L 130.534888 167.805646 
L 137.800048 171.022126 
L 143.854348 173.850989 
L 149.908648 176.551031 
L 152.330368 177.631072 
L 155.962948 179.174653 
L 160.806388 181.100818 
L 170.493268 184.347222 
L 171.704128 184.644287 
L 172.914988 185.090592 
L 175.336708 185.655223 
L 176.547568 186.016939 
L 177.758428 186.206178 
L 180.180148 186.832896 
L 181.391008 186.989992 
L 182.601867 187.330661 
L 187.445308 188.170125 
L 199.553908 189.692057 
L 205.608208 190.202274 
L 215.295088 190.738699 
L 226.192828 191.085491 
L 234.461953 191.248345 
L 234.461953 191.248345 
" clip-path="url(#pb6e94e9b7a)" style="fill: none; stroke: #471063; stroke-width: 1.5; stroke-linecap: square"/>
   </g>
   <g id="line2d_17">
    <path d="M 46.985548 190.990643 
L 48.196408 189.801087 
L 49.407268 187.912342 
L 54.250708 178.74246 
L 55.461568 175.64857 
L 57.883288 171.668347 
L 60.305008 168.224184 
L 62.726728 165.246375 
L 65.148448 162.699632 
L 67.570168 160.545635 
L 69.991888 158.766951 
L 72.413608 157.341008 
L 74.835328 156.272493 
L 77.257048 155.535887 
L 79.678768 155.101688 
L 82.100488 154.986208 
L 84.522208 155.177329 
L 88.154788 155.790571 
L 90.576508 156.401867 
L 99.052528 159.062998 
L 102.685108 160.21752 
L 114.793708 164.177371 
L 123.269728 167.380468 
L 131.745748 171.016366 
L 148.697788 178.300611 
L 163.228108 183.408062 
L 169.282408 185.093501 
L 174.125848 186.23234 
L 180.180148 187.473509 
L 181.391008 187.613789 
L 183.812728 188.078351 
L 188.656168 188.73388 
L 191.077888 189.05575 
L 201.975628 190.080687 
L 211.662508 190.642395 
L 223.771108 191.052646 
L 234.461953 191.258413 
L 234.461953 191.258413 
" clip-path="url(#pb6e94e9b7a)" style="fill: none; stroke: #481769; stroke-width: 1.5; stroke-linecap: square"/>
   </g>
   <g id="line2d_18">
    <path d="M 46.985548 190.506052 
L 48.196408 188.012849 
L 50.618128 180.793768 
L 53.039848 173.768812 
L 54.250708 170.792573 
L 55.461568 167.254486 
L 57.883288 162.454954 
L 59.094148 160.431154 
L 61.515868 157.083261 
L 63.937588 154.500607 
L 66.359308 152.550595 
L 68.781028 151.124778 
L 71.202748 150.123483 
L 73.624468 149.518022 
L 76.046188 149.244552 
L 78.467908 149.287438 
L 80.889628 149.613306 
L 83.311348 150.23584 
L 85.733068 151.077488 
L 89.365648 152.586154 
L 94.209088 155.022613 
L 106.317688 161.235612 
L 118.426288 166.824112 
L 132.956608 173.444012 
L 139.010908 176.066794 
L 148.697788 179.845275 
L 160.806388 183.722778 
L 169.282408 185.840846 
L 175.336708 187.052763 
L 177.758428 187.457059 
L 180.180148 187.895728 
L 182.601867 188.255351 
L 189.867028 189.15244 
L 199.553908 190.002278 
L 206.819068 190.455459 
L 217.716808 190.901623 
L 231.036268 191.208326 
L 234.461953 191.262001 
L 234.461953 191.262001 
" clip-path="url(#pb6e94e9b7a)" style="fill: none; stroke: #481d6f; stroke-width: 1.5; stroke-linecap: square"/>
   </g>
   <g id="line2d_19">
    <path d="M 46.985548 189.759754 
L 48.196408 185.340224 
L 50.618128 174.549037 
L 51.828988 169.639431 
L 53.039848 165.394007 
L 55.461568 157.970565 
L 56.672428 155.197378 
L 57.883288 152.815155 
L 59.094148 150.787784 
L 60.305008 149.100373 
L 61.515868 147.672682 
L 62.726728 146.511676 
L 63.937588 145.556473 
L 65.148448 144.80818 
L 66.359308 144.219007 
L 67.570168 143.787537 
L 68.781028 143.485183 
L 71.202748 143.209042 
L 73.624468 143.31998 
L 76.046188 143.735949 
L 78.467908 144.424642 
L 80.889628 145.347868 
L 83.311348 146.509287 
L 86.943928 148.55068 
L 90.576508 150.822169 
L 102.685108 158.811704 
L 107.528548 161.793783 
L 120.848008 168.989442 
L 126.902308 171.975226 
L 134.167468 175.292525 
L 141.432628 178.270698 
L 148.697788 180.887846 
L 158.384668 183.788391 
L 164.438968 185.29726 
L 172.914988 187.031439 
L 186.234448 188.914951 
L 195.921328 189.807024 
L 203.186488 190.297567 
L 214.084228 190.79328 
L 226.192828 191.12239 
L 234.461953 191.261501 
L 234.461953 191.261501 
" clip-path="url(#pb6e94e9b7a)" style="fill: none; stroke: #482475; stroke-width: 1.5; stroke-linecap: square"/>
   </g>
   <g id="line2d_20">
    <path d="M 46.985548 188.704297 
L 48.196408 181.749252 
L 50.618128 167.155993 
L 51.828988 161.177343 
L 53.039848 156.240852 
L 55.461568 148.339484 
L 56.672428 145.538164 
L 57.883288 143.242689 
L 59.094148 141.386691 
L 60.305008 139.929193 
L 61.515868 138.78307 
L 62.726728 137.935233 
L 63.937588 137.321745 
L 65.148448 136.930459 
L 66.359308 136.712282 
L 67.570168 136.656541 
L 68.781028 136.732408 
L 71.202748 137.205673 
L 73.624468 138.033127 
L 76.046188 139.121102 
L 79.678768 141.15026 
L 82.100488 142.714476 
L 85.733068 145.332858 
L 90.576508 149.061828 
L 99.052528 155.72322 
L 102.685108 158.40793 
L 107.528548 161.790329 
L 116.004568 167.030415 
L 124.480588 171.613893 
L 130.534888 174.538185 
L 135.378328 176.663596 
L 140.221768 178.604418 
L 145.065208 180.357188 
L 148.697788 181.568096 
L 157.173808 183.982979 
L 163.228108 185.423265 
L 169.282408 186.632457 
L 176.547568 187.830901 
L 193.499608 189.680903 
L 203.186488 190.319238 
L 214.084228 190.796836 
L 226.192828 191.120283 
L 234.461953 191.258518 
L 234.461953 191.258518 
" clip-path="url(#pb6e94e9b7a)" style="fill: none; stroke: #472a7a; stroke-width: 1.5; stroke-linecap: square"/>
   </g>
   <g id="line2d_21">
    <path d="M 46.985548 187.3127 
L 49.407268 167.345745 
L 50.618128 158.949481 
L 51.828988 152.125763 
L 53.039848 146.738726 
L 54.250708 142.52504 
L 55.461568 138.767068 
L 56.672428 136.115377 
L 57.883288 134.058208 
L 59.094148 132.499769 
L 60.305008 131.375462 
L 61.515868 130.591272 
L 62.726728 130.117998 
L 63.937588 129.889596 
L 65.148448 129.884275 
L 66.359308 130.052839 
L 67.570168 130.378399 
L 69.991888 131.386016 
L 72.413608 132.748491 
L 74.835328 134.365394 
L 78.467908 137.102547 
L 82.100488 140.116295 
L 89.365648 146.585382 
L 96.630808 153.074533 
L 101.474248 157.126532 
L 107.528548 161.743584 
L 113.582848 165.816694 
L 117.215428 168.063297 
L 120.848008 170.161019 
L 125.691448 172.743165 
L 130.534888 175.089632 
L 135.378328 177.209366 
L 140.221768 179.119073 
L 145.065208 180.82502 
L 149.908648 182.338557 
L 154.752088 183.690979 
L 160.806388 185.150232 
L 168.071548 186.586709 
L 172.914988 187.415632 
L 183.812728 188.821557 
L 197.132188 189.961973 
L 206.819068 190.503517 
L 218.927668 190.942414 
L 233.457988 191.240035 
L 234.461953 191.254096 
L 234.461953 191.254096 
" clip-path="url(#pb6e94e9b7a)" style="fill: none; stroke: #46307e; stroke-width: 1.5; stroke-linecap: square"/>
   </g>
   <g id="line2d_22">
    <path d="M 46.985548 185.57841 
L 48.196408 172.070702 
L 49.407268 159.876863 
L 50.618128 150.253852 
L 51.828988 142.833821 
L 53.039848 137.228444 
L 54.250708 133.033554 
L 55.461568 129.533218 
L 56.672428 127.165124 
L 57.883288 125.45275 
L 59.094148 124.274383 
L 60.305008 123.545658 
L 61.515868 123.166948 
L 62.726728 123.096764 
L 63.937588 123.268162 
L 65.148448 123.652735 
L 66.359308 124.202254 
L 68.781028 125.702812 
L 71.202748 127.571858 
L 74.835328 130.808604 
L 79.678768 135.517999 
L 97.841668 153.534481 
L 102.685108 157.766274 
L 107.528548 161.641713 
L 112.371988 165.123103 
L 118.426288 169.000343 
L 123.269728 171.765085 
L 128.113168 174.259667 
L 132.956608 176.499582 
L 137.800048 178.502563 
L 142.643488 180.282718 
L 147.486928 181.859717 
L 152.330368 183.253614 
L 157.173808 184.479664 
L 163.228108 185.798201 
L 169.282408 186.90182 
L 176.547568 187.992258 
L 189.867028 189.417898 
L 199.553908 190.111676 
L 209.240788 190.600799 
L 221.349388 190.998448 
L 234.461953 191.248908 
L 234.461953 191.248908 
" clip-path="url(#pb6e94e9b7a)" style="fill: none; stroke: #453781; stroke-width: 1.5; stroke-linecap: square"/>
   </g>
   <g id="line2d_23">
    <path d="M 46.985548 183.512075 
L 48.196408 166.229642 
L 49.407268 151.94537 
L 50.618128 141.351408 
L 51.828988 133.579101 
L 53.039848 127.960983 
L 54.250708 123.948929 
L 55.461568 120.816239 
L 56.672428 118.825319 
L 57.883288 117.525758 
L 59.094148 116.774696 
L 60.305008 116.472339 
L 61.515868 116.515302 
L 62.726728 116.853266 
L 63.937588 117.419596 
L 65.148448 118.18172 
L 67.570168 120.131428 
L 69.991888 122.477505 
L 73.624468 126.405385 
L 91.787368 146.895623 
L 96.630808 151.840349 
L 101.474248 156.392086 
L 106.317688 160.529229 
L 111.161128 164.234417 
L 116.004568 167.546289 
L 120.848008 170.515805 
L 125.691448 173.186066 
L 130.534888 175.569938 
L 135.378328 177.689858 
L 140.221768 179.571548 
L 145.065208 181.23279 
L 149.908648 182.6931 
L 154.752088 183.982633 
L 160.806388 185.366509 
L 168.071548 186.729282 
L 174.125848 187.668041 
L 181.391008 188.572753 
L 187.445308 189.19586 
L 198.343048 190.027192 
L 209.240788 190.588734 
L 221.349388 190.989347 
L 234.461953 191.243386 
L 234.461953 191.243386 
" clip-path="url(#pb6e94e9b7a)" style="fill: none; stroke: #433d84; stroke-width: 1.5; stroke-linecap: square"/>
   </g>
   <g id="line2d_24">
    <path d="M 46.985548 181.137134 
L 48.196408 159.915934 
L 49.407268 143.771459 
L 50.618128 132.471198 
L 51.828988 124.568707 
L 53.039848 119.109201 
L 54.250708 115.406417 
L 55.461568 112.718043 
L 56.672428 111.163862 
L 57.883288 110.31454 
L 59.094148 110.011187 
L 60.305008 110.142855 
L 61.515868 110.604382 
L 62.726728 111.339613 
L 63.937588 112.283301 
L 66.359308 114.647684 
L 68.781028 117.432761 
L 72.413608 122.014639 
L 83.311348 136.089379 
L 88.154788 141.959441 
L 92.998228 147.462588 
L 96.630808 151.305246 
L 100.263388 154.893477 
L 103.895968 158.206922 
L 107.528548 161.2799 
L 112.371988 164.977793 
L 117.215428 168.26991 
L 120.848008 170.511403 
L 125.691448 173.213288 
L 130.534888 175.614266 
L 135.378328 177.74094 
L 140.221768 179.621563 
L 145.065208 181.27724 
L 149.908648 182.729699 
L 154.752088 184.00827 
L 160.806388 185.379089 
L 168.071548 186.730399 
L 174.125848 187.660159 
L 181.391008 188.560301 
L 187.445308 189.178541 
L 198.343048 190.009649 
L 209.240788 190.574499 
L 221.349388 190.979644 
L 234.461953 191.237803 
L 234.461953 191.237803 
" clip-path="url(#pb6e94e9b7a)" style="fill: none; stroke: #414287; stroke-width: 1.5; stroke-linecap: square"/>
   </g>
   <g id="line2d_25">
    <path d="M 46.985548 178.485471 
L 48.196408 153.274659 
L 49.407268 135.541596 
L 50.618128 123.789191 
L 51.828988 115.948231 
L 53.039848 110.783202 
L 54.250708 107.481627 
L 55.461568 105.285706 
L 56.672428 104.20071 
L 57.883288 103.815843 
L 59.094148 103.961106 
L 60.305008 104.518295 
L 61.515868 105.382342 
L 62.726728 106.493754 
L 65.148448 109.23425 
L 67.570168 112.42402 
L 72.413608 119.393012 
L 79.678768 129.874522 
L 84.522208 136.43828 
L 88.154788 141.063105 
L 92.998228 146.816122 
L 96.630808 150.797591 
L 100.263388 154.493892 
L 103.895968 157.895897 
L 107.528548 161.037414 
L 112.371988 164.810283 
L 117.215428 168.159679 
L 120.848008 170.431468 
L 125.691448 173.161792 
L 130.534888 175.580753 
L 135.378328 177.718024 
L 140.221768 179.603604 
L 145.065208 181.260962 
L 149.908648 182.713325 
L 154.752088 183.989216 
L 160.806388 185.356706 
L 168.071548 186.706309 
L 174.125848 187.634196 
L 181.391008 188.535823 
L 187.445308 189.153677 
L 197.132188 189.910649 
L 208.029928 190.506677 
L 220.138528 190.937603 
L 234.461953 191.232334 
L 234.461953 191.232334 
" clip-path="url(#pb6e94e9b7a)" style="fill: none; stroke: #3f4889; stroke-width: 1.5; stroke-linecap: square"/>
   </g>
   <g id="line2d_26">
    <path d="M 46.985548 175.593728 
L 48.196408 146.438679 
L 49.407268 127.406411 
L 50.618128 115.433893 
L 51.828988 107.81307 
L 53.039848 103.045117 
L 54.250708 100.206954 
L 55.461568 98.528435 
L 56.672428 97.924272 
L 57.883288 98.001134 
L 59.094148 98.582349 
L 60.305008 99.545831 
L 61.515868 100.788237 
L 63.937588 103.867432 
L 66.359308 107.435872 
L 71.202748 115.167775 
L 77.257048 124.799441 
L 82.100488 132.008533 
L 85.733068 137.066202 
L 89.365648 141.794809 
L 92.998228 146.213959 
L 96.630808 150.310138 
L 100.263388 154.095514 
L 103.895968 157.570333 
L 107.528548 160.76842 
L 112.371988 164.603665 
L 117.215428 168.001782 
L 120.848008 170.300467 
L 124.480588 172.400659 
L 129.324027 174.91441 
L 134.167468 177.135983 
L 139.010908 179.092807 
L 143.854348 180.81216 
L 149.908648 182.663225 
L 154.752088 183.942016 
L 160.806388 185.312633 
L 168.071548 186.666865 
L 174.125848 187.59749 
L 181.391008 188.504399 
L 188.656168 189.231887 
L 197.132188 189.887944 
L 208.029928 190.490569 
L 220.138528 190.927389 
L 234.461953 191.227084 
L 234.461953 191.227084 
" clip-path="url(#pb6e94e9b7a)" style="fill: none; stroke: #3d4e8a; stroke-width: 1.5; stroke-linecap: square"/>
   </g>
   <g id="line2d_27">
    <path d="M 46.985548 172.500463 
L 48.196408 139.524461 
L 49.407268 119.482676 
L 50.618128 107.493909 
L 51.828988 100.219412 
L 53.039848 95.921722 
L 54.250708 93.584589 
L 55.461568 92.430285 
L 56.672428 92.3032 
L 57.883288 92.827186 
L 59.094148 93.822708 
L 60.305008 95.166621 
L 61.515868 96.758643 
L 63.937588 100.44897 
L 67.570168 106.639923 
L 76.046188 121.359024 
L 79.678768 127.232254 
L 83.311348 132.743272 
L 86.943928 137.885539 
L 90.576508 142.658766 
L 94.209088 147.084194 
L 97.841668 151.163177 
L 101.474248 154.915313 
L 105.106828 158.352642 
L 108.739408 161.493909 
L 112.371988 164.372249 
L 116.004568 166.995354 
L 120.848008 170.136833 
L 124.480588 172.257045 
L 129.324027 174.792435 
L 134.167468 177.030378 
L 139.010908 179.000175 
L 143.854348 180.730131 
L 148.697788 182.247485 
L 154.752088 183.877995 
L 160.806388 185.255886 
L 168.071548 186.618711 
L 174.125848 187.554957 
L 181.391008 188.469411 
L 188.656168 189.202597 
L 197.132188 189.864845 
L 208.029928 190.47472 
L 220.138528 190.917586 
L 234.461953 191.222116 
L 234.461953 191.222116 
" clip-path="url(#pb6e94e9b7a)" style="fill: none; stroke: #3a538b; stroke-width: 1.5; stroke-linecap: square"/>
   </g>
   <g id="line2d_28">
    <path d="M 46.985548 169.244093 
L 48.196408 132.630673 
L 49.407268 111.857198 
L 50.618128 100.025646 
L 51.828988 93.19381 
L 53.039848 89.414576 
L 54.250708 87.596402 
L 55.461568 86.95943 
L 56.672428 87.294668 
L 57.883288 88.243238 
L 59.094148 89.625914 
L 60.305008 91.320757 
L 62.726728 95.29938 
L 66.359308 102.001089 
L 73.624468 115.676526 
L 77.257048 122.090604 
L 80.889628 128.089507 
L 84.522208 133.671971 
L 88.154788 138.837067 
L 91.787368 143.609529 
L 95.419948 148.005523 
L 99.052528 152.041849 
L 102.685108 155.740853 
L 106.317688 159.132066 
L 109.950268 162.214226 
L 113.582848 165.034033 
L 117.215428 167.607501 
L 120.848008 169.954238 
L 124.480588 172.093964 
L 129.324027 174.651309 
L 134.167468 176.906918 
L 139.010908 178.89151 
L 143.854348 180.634147 
L 148.697788 182.162315 
L 154.752088 183.804847 
L 160.806388 185.192542 
L 166.860688 186.359837 
L 174.125848 187.509864 
L 181.391008 188.433098 
L 188.656168 189.173016 
L 197.132188 189.842122 
L 208.029928 190.459464 
L 220.138528 190.908314 
L 234.461953 191.217463 
L 234.461953 191.217463 
" clip-path="url(#pb6e94e9b7a)" style="fill: none; stroke: #38598c; stroke-width: 1.5; stroke-linecap: square"/>
   </g>
   <g id="line2d_29">
    <path d="M 46.985548 165.861499 
L 48.196408 125.838481 
L 49.407268 104.591354 
L 50.618128 93.0603 
L 51.828988 86.741056 
L 53.039848 83.507857 
L 54.250708 82.211248 
L 55.461568 82.074747 
L 56.672428 82.850051 
L 57.883288 84.195747 
L 59.094148 85.935463 
L 61.515868 90.148745 
L 65.148448 97.331154 
L 72.413608 111.965066 
L 76.046188 118.794964 
L 79.678768 125.163084 
L 83.311348 131.058984 
L 86.943928 136.498892 
L 90.576508 141.503183 
L 94.209088 146.105324 
L 97.841668 150.323765 
L 101.474248 154.186805 
L 105.106828 157.715926 
L 108.739408 160.935604 
L 112.371988 163.877815 
L 116.004568 166.557262 
L 119.637148 168.999205 
L 123.269728 171.224126 
L 128.113168 173.88573 
L 132.956608 176.232235 
L 137.800048 178.297816 
L 142.643488 180.112396 
L 147.486928 181.703894 
L 152.330368 183.097676 
L 158.384668 184.595031 
L 164.438968 185.856721 
L 171.704128 187.102988 
L 177.758428 187.9561 
L 185.023588 188.792241 
L 193.499608 189.554351 
L 203.186488 190.196846 
L 214.084228 190.698822 
L 227.403688 191.082781 
L 234.461953 191.213139 
L 234.461953 191.213139 
" clip-path="url(#pb6e94e9b7a)" style="fill: none; stroke: #355e8d; stroke-width: 1.5; stroke-linecap: square"/>
   </g>
   <g id="line2d_30">
    <path d="M 46.985548 162.387141 
L 48.196408 119.212789 
L 49.407268 97.725571 
L 50.618128 86.609828 
L 51.828988 80.85044 
L 53.039848 78.174281 
L 54.250708 77.390249 
L 55.461568 77.730415 
L 56.672428 78.918739 
L 57.883288 80.631435 
L 59.094148 82.696958 
L 61.515868 87.456553 
L 66.359308 97.891851 
L 71.202748 108.189292 
L 74.835328 115.43273 
L 78.467908 122.164349 
L 82.100488 128.376529 
L 85.733068 134.092229 
L 89.365648 139.334621 
L 92.998228 144.145151 
L 96.630808 148.548382 
L 100.263388 152.576123 
L 103.895968 156.252106 
L 107.528548 159.611469 
L 111.161128 162.673369 
L 114.793708 165.460016 
L 118.426288 168.00228 
L 122.058868 170.317893 
L 125.691448 172.427346 
L 130.534888 174.947939 
L 135.378328 177.167677 
L 140.221768 179.120101 
L 145.065208 180.833868 
L 149.908648 182.335253 
L 154.752088 183.650149 
L 160.806388 185.060914 
L 166.860688 186.248095 
L 174.125848 187.419827 
L 181.391008 188.361808 
L 188.656168 189.116267 
L 197.132188 189.799536 
L 206.819068 190.372797 
L 218.927668 190.854672 
L 233.457988 191.192918 
L 234.461953 191.209144 
L 234.461953 191.209144 
" clip-path="url(#pb6e94e9b7a)" style="fill: none; stroke: #33638d; stroke-width: 1.5; stroke-linecap: square"/>
   </g>
   <g id="line2d_31">
    <path d="M 46.985548 158.852558 
L 48.196408 112.803954 
L 49.407268 91.283421 
L 50.618128 80.671862 
L 51.828988 75.500593 
L 53.039848 73.379479 
L 54.250708 73.090553 
L 55.461568 73.879052 
L 56.672428 75.450632 
L 57.883288 77.499177 
L 60.305008 82.422018 
L 63.937588 90.650916 
L 69.991888 104.347887 
L 73.624468 111.99934 
L 77.257048 119.096705 
L 80.889628 125.626776 
L 84.522208 131.619771 
L 88.154788 137.106183 
L 91.787368 142.128019 
L 95.419948 146.720197 
L 99.052528 150.914734 
L 102.685108 154.743863 
L 106.317688 158.241028 
L 109.950268 161.421522 
L 113.582848 164.323927 
L 117.215428 166.969179 
L 120.848008 169.378977 
L 124.480588 171.57388 
L 129.324027 174.195901 
L 134.167468 176.506597 
L 139.010908 178.539308 
L 143.854348 180.324488 
L 148.697788 181.89006 
L 154.752088 183.574282 
L 160.806388 184.997021 
L 166.860688 186.19449 
L 174.125848 187.37713 
L 181.391008 188.328334 
L 188.656168 189.089998 
L 197.132188 189.780116 
L 206.819068 190.359529 
L 218.927668 190.846823 
L 233.457988 191.189049 
L 234.461953 191.20547 
L 234.461953 191.20547 
" clip-path="url(#pb6e94e9b7a)" style="fill: none; stroke: #31688e; stroke-width: 1.5; stroke-linecap: square"/>
   </g>
   <g id="line2d_32">
    <path d="M 46.985548 155.28613 
L 48.196408 106.649654 
L 49.407268 85.275196 
L 50.618128 75.233667 
L 51.828988 70.66319 
L 53.039848 69.085192 
L 54.250708 69.267947 
L 55.461568 70.473794 
L 56.672428 72.397695 
L 57.883288 74.75109 
L 60.305008 80.169131 
L 71.202748 105.872326 
L 74.835328 113.538302 
L 78.467908 120.592367 
L 82.100488 127.054584 
L 85.733068 132.965103 
L 89.365648 138.362386 
L 92.998228 143.294663 
L 96.630808 147.796676 
L 100.263388 151.905579 
L 103.895968 155.651254 
L 107.528548 159.06936 
L 111.161128 162.183486 
L 114.793708 165.018171 
L 118.426288 167.602427 
L 122.058868 169.955848 
L 125.691448 172.099023 
L 130.534888 174.659455 
L 135.378328 176.914324 
L 140.221768 178.897694 
L 145.065208 180.63906 
L 149.908648 182.165193 
L 154.752088 183.501563 
L 160.806388 184.936047 
L 166.860688 186.143587 
L 174.125848 187.336779 
L 181.391008 188.296827 
L 188.656168 189.065422 
L 197.132188 189.762065 
L 206.819068 190.347263 
L 218.927668 190.839604 
L 233.457988 191.185505 
L 234.461953 191.202104 
L 234.461953 191.202104 
" clip-path="url(#pb6e94e9b7a)" style="fill: none; stroke: #2e6d8e; stroke-width: 1.5; stroke-linecap: square"/>
   </g>
   <g id="line2d_33">
    <path d="M 46.985548 151.713033 
L 48.196408 100.776734 
L 49.407268 79.700928 
L 50.618128 70.275261 
L 51.828988 66.305716 
L 53.039848 65.251548 
L 54.250708 65.878632 
L 55.461568 67.469637 
L 56.672428 69.714881 
L 59.094148 75.204399 
L 65.148448 90.486058 
L 68.781028 99.337586 
L 72.413608 107.599564 
L 76.046188 115.210994 
L 79.678768 122.179455 
L 83.311348 128.542657 
L 86.943928 134.348514 
L 90.576508 139.643097 
L 94.209088 144.474406 
L 97.841668 148.87984 
L 101.474248 152.897419 
L 105.106828 156.559014 
L 108.739408 159.895291 
L 112.371988 162.937462 
L 116.004568 165.70768 
L 119.637148 168.230944 
L 123.269728 170.528744 
L 126.902308 172.620877 
L 131.745748 175.11976 
L 136.589188 177.320131 
L 141.432628 179.254611 
L 146.276068 180.952707 
L 151.119508 182.440638 
L 157.173808 184.040749 
L 163.228108 185.390806 
L 169.282408 186.525555 
L 176.547568 187.646896 
L 185.023588 188.677256 
L 193.499608 189.468356 
L 203.186488 190.137674 
L 214.084228 190.661339 
L 227.403688 191.062676 
L 234.461953 191.19903 
L 234.461953 191.19903 
" clip-path="url(#pb6e94e9b7a)" style="fill: none; stroke: #2c718e; stroke-width: 1.5; stroke-linecap: square"/>
   </g>
   <g id="line2d_34">
    <path d="M 46.985548 148.155314 
L 48.196408 95.202945 
L 49.407268 74.552898 
L 50.618128 65.77184 
L 51.828988 62.393517 
L 53.039848 61.838658 
L 54.250708 62.880393 
L 55.461568 64.824236 
L 56.672428 67.360609 
L 59.094148 73.306264 
L 67.570168 95.409905 
L 71.202748 104.071801 
L 74.835328 112.042002 
L 78.467908 119.327281 
L 82.100488 125.969675 
L 85.733068 132.022462 
L 89.365648 137.53496 
L 92.998228 142.560146 
L 96.630808 147.139476 
L 100.263388 151.313617 
L 103.895968 155.116454 
L 107.528548 158.583986 
L 111.161128 161.742731 
L 114.793708 164.618727 
L 118.426288 167.239813 
L 122.058868 169.626791 
L 125.691448 171.800318 
L 130.534888 174.397038 
L 135.378328 176.684179 
L 140.221768 178.696177 
L 145.065208 180.463121 
L 149.908648 182.012153 
L 154.752088 183.368539 
L 160.806388 184.825022 
L 166.860688 186.051374 
L 174.125848 187.264032 
L 181.391008 188.24025 
L 189.867028 189.135584 
L 199.553908 189.89818 
L 210.451648 190.50085 
L 222.560248 190.936335 
L 234.461953 191.19623 
L 234.461953 191.19623 
" clip-path="url(#pb6e94e9b7a)" style="fill: none; stroke: #2a768e; stroke-width: 1.5; stroke-linecap: square"/>
   </g>
   <g id="line2d_35">
    <path d="M 46.985548 144.632046 
L 48.196408 89.938506 
L 49.407268 69.817687 
L 50.618128 61.695645 
L 51.828988 58.891282 
L 53.039848 58.807709 
L 54.250708 60.233327 
L 55.461568 62.498348 
L 56.672428 65.29695 
L 59.094148 71.647704 
L 66.359308 91.396584 
L 69.991888 100.464049 
L 73.624468 108.797624 
L 77.257048 116.406699 
L 80.889628 123.333989 
L 84.522208 129.638574 
L 88.154788 135.375148 
L 91.787368 140.598583 
L 95.419948 145.35629 
L 99.052528 149.690235 
L 102.685108 153.639022 
L 106.317688 157.238729 
L 109.950268 160.515122 
L 113.582848 163.501817 
L 117.215428 166.222957 
L 120.848008 168.701537 
L 124.480588 170.958658 
L 129.324027 173.655493 
L 134.167468 176.032084 
L 139.010908 178.123451 
L 143.854348 179.961023 
L 148.697788 181.573135 
L 154.752088 183.308865 
L 160.806388 184.775386 
L 166.860688 186.010304 
L 174.125848 187.231744 
L 181.391008 188.215207 
L 189.867028 189.117018 
L 199.553908 189.885457 
L 210.451648 190.492782 
L 222.560248 190.931713 
L 234.461953 191.193684 
L 234.461953 191.193684 
" clip-path="url(#pb6e94e9b7a)" style="fill: none; stroke: #297b8e; stroke-width: 1.5; stroke-linecap: square"/>
   </g>
   <g id="line2d_36">
    <path d="M 46.985548 141.159526 
L 48.196408 84.987494 
L 49.407268 65.477828 
L 50.618128 58.017373 
L 51.828988 55.764105 
L 53.039848 56.121677 
L 54.250708 57.900262 
L 55.461568 60.456018 
L 57.883288 66.778622 
L 66.359308 90.535057 
L 69.991888 99.75924 
L 73.624468 108.204858 
L 77.257048 115.897941 
L 80.889628 122.891062 
L 84.522208 129.248329 
L 88.154788 135.028299 
L 91.787368 140.287831 
L 95.419948 145.076146 
L 99.052528 149.436629 
L 102.685108 153.408783 
L 106.317688 157.029061 
L 109.950268 160.324724 
L 113.582848 163.328688 
L 117.215428 166.065571 
L 120.848008 168.558557 
L 124.480588 170.828833 
L 128.113168 172.89503 
L 132.956608 175.362617 
L 137.800048 177.535084 
L 142.643488 179.44485 
L 147.486928 181.121041 
L 152.330368 182.589787 
L 158.384668 184.169173 
L 164.438968 185.500998 
L 170.493268 186.62005 
L 177.758428 187.724295 
L 185.023588 188.611016 
L 193.499608 189.419725 
L 203.186488 190.104641 
L 214.084228 190.640684 
L 227.403688 191.051707 
L 234.461953 191.191373 
L 234.461953 191.191373 
" clip-path="url(#pb6e94e9b7a)" style="fill: none; stroke: #27808e; stroke-width: 1.5; stroke-linecap: square"/>
   </g>
   <g id="line2d_37">
    <path d="M 46.985548 137.751506 
L 48.196408 80.349047 
L 49.407268 61.513125 
L 50.618128 54.707233 
L 51.828988 52.978214 
L 53.039848 53.745764 
L 54.250708 55.846954 
L 55.461568 58.664594 
L 57.883288 65.369178 
L 65.148448 86.47692 
L 68.781028 96.106686 
L 72.413608 104.917556 
L 76.046188 112.934738 
L 79.678768 120.215749 
L 83.311348 126.826939 
L 86.943928 132.833492 
L 90.576508 138.294092 
L 94.209088 143.263378 
L 97.841668 147.78693 
L 101.474248 151.906902 
L 105.106828 155.659604 
L 108.739408 159.078267 
L 112.371988 162.193956 
L 116.004568 165.031995 
L 119.637148 167.617301 
L 123.269728 169.97183 
L 126.902308 172.115588 
L 131.745748 174.676489 
L 136.589188 176.931992 
L 141.432628 178.915669 
L 146.276068 180.657586 
L 151.119508 182.184559 
L 157.173808 183.827459 
L 163.228108 185.213905 
L 169.282408 186.379829 
L 176.547568 187.53212 
L 183.812728 188.457799 
L 192.288748 189.303057 
L 201.975628 190.021401 
L 212.873368 190.585317 
L 224.981968 190.989464 
L 234.461953 191.18928 
L 234.461953 191.18928 
" clip-path="url(#pb6e94e9b7a)" style="fill: none; stroke: #25848e; stroke-width: 1.5; stroke-linecap: square"/>
   </g>
   <g id="line2d_38">
    <path d="M 46.985548 134.419416 
L 48.196408 76.018393 
L 49.407268 57.901692 
L 50.618128 51.735714 
L 51.828988 50.501457 
L 53.039848 51.647642 
L 54.250708 54.042132 
L 55.461568 57.094633 
L 57.883288 64.137325 
L 63.937588 82.318407 
L 67.570168 92.361201 
L 71.202748 101.546357 
L 74.835328 109.896776 
L 78.467908 117.472578 
L 82.100488 124.344975 
L 85.733068 130.583961 
L 89.365648 136.251675 
L 92.998228 141.406531 
L 96.630808 146.097268 
L 100.263388 150.368322 
L 103.895968 154.25787 
L 107.528548 157.802253 
L 111.161128 161.031233 
L 114.793708 163.972461 
L 118.426288 166.652583 
L 122.058868 169.093734 
L 125.691448 171.31669 
L 130.534888 173.972879 
L 135.378328 176.313056 
L 140.221768 178.372205 
L 145.065208 180.1812 
L 149.908648 181.767736 
L 154.752088 183.15702 
L 160.806388 184.649452 
L 166.860688 185.906428 
L 174.125848 187.150302 
L 181.391008 188.152172 
L 189.867028 189.07053 
L 198.343048 189.769151 
L 208.029928 190.355389 
L 220.138528 190.847171 
L 234.461953 191.187385 
L 234.461953 191.187385 
" clip-path="url(#pb6e94e9b7a)" style="fill: none; stroke: #23898e; stroke-width: 1.5; stroke-linecap: square"/>
   </g>
   <g id="line2d_39">
    <path d="M 46.985548 131.172602 
L 48.196408 71.987728 
L 49.407268 54.620763 
L 50.618128 49.074137 
L 51.828988 48.303603 
L 53.039848 49.797549 
L 54.250708 52.457443 
L 55.461568 55.71974 
L 57.883288 63.060687 
L 62.726728 78.055654 
L 66.359308 88.51722 
L 69.991888 98.086839 
L 73.624468 106.779436 
L 77.257048 114.658974 
L 80.889628 121.799991 
L 84.522208 128.27766 
L 88.154788 134.158675 
L 91.787368 139.504 
L 95.419948 144.366451 
L 99.052528 148.792238 
L 102.685108 152.822629 
L 106.317688 156.494831 
L 109.950268 159.839092 
L 113.582848 162.886963 
L 117.215428 165.664042 
L 120.848008 168.193911 
L 124.480588 170.497959 
L 128.113168 172.595253 
L 132.956608 175.100278 
L 137.800048 177.306067 
L 142.643488 179.245527 
L 147.486928 180.948113 
L 152.330368 182.440219 
L 158.384668 184.045037 
L 164.438968 185.398514 
L 170.493268 186.536029 
L 177.758428 187.658907 
L 185.023588 188.560569 
L 193.499608 189.382943 
L 203.186488 190.079769 
L 214.084228 190.625208 
L 227.403688 191.043519 
L 234.461953 191.185672 
L 234.461953 191.185672 
" clip-path="url(#pb6e94e9b7a)" style="fill: none; stroke: #218e8d; stroke-width: 1.5; stroke-linecap: square"/>
   </g>
   <g id="line2d_40">
    <path d="M 46.985548 128.018548 
L 48.196408 68.246951 
L 49.407268 51.647318 
L 50.618128 46.695041 
L 51.828988 46.356509 
L 53.039848 48.168288 
L 54.250708 51.067329 
L 56.672428 58.256411 
L 62.726728 77.409452 
L 66.359308 87.995126 
L 69.991888 97.648036 
L 73.624468 106.400476 
L 77.257048 114.325724 
L 80.889628 121.503575 
L 84.522208 128.011819 
L 88.154788 133.91899 
L 91.787368 139.286964 
L 95.419948 144.169327 
L 99.052528 148.612889 
L 102.685108 152.659299 
L 106.317688 156.345926 
L 109.950268 159.703669 
L 113.582848 162.763793 
L 117.215428 165.552118 
L 120.848008 168.092321 
L 124.480588 170.405847 
L 128.113168 172.511864 
L 132.956608 175.027396 
L 137.800048 177.242531 
L 142.643488 179.190305 
L 147.486928 180.90027 
L 152.330368 182.398899 
L 158.384668 184.010804 
L 164.438968 185.370305 
L 170.493268 186.512942 
L 177.758428 187.640964 
L 185.023588 188.546752 
L 193.499608 189.372897 
L 203.186488 190.072989 
L 214.084228 190.620997 
L 227.403688 191.041295 
L 234.461953 191.184125 
L 234.461953 191.184125 
" clip-path="url(#pb6e94e9b7a)" style="fill: none; stroke: #20928c; stroke-width: 1.5; stroke-linecap: square"/>
   </g>
   <g id="line2d_41">
    <path d="M 46.985548 124.963082 
L 48.196408 64.784282 
L 49.407268 48.958555 
L 50.618128 44.57243 
L 51.828988 44.634186 
L 53.039848 46.735161 
L 54.250708 49.848861 
L 56.672428 57.331669 
L 62.726728 76.841169 
L 66.359308 87.532951 
L 69.991888 97.257072 
L 73.624468 106.060906 
L 77.257048 114.025691 
L 80.889628 121.235671 
L 84.522208 127.770827 
L 88.154788 133.701216 
L 91.787368 139.089458 
L 95.419948 143.989758 
L 99.052528 148.449417 
L 102.685108 152.510385 
L 106.317688 156.210169 
L 109.950268 159.580198 
L 113.582848 162.651508 
L 117.215428 165.450108 
L 120.848008 167.999757 
L 124.480588 170.321948 
L 128.113168 172.435938 
L 132.956608 174.96107 
L 137.800048 177.184742 
L 142.643488 179.140107 
L 147.486928 180.856802 
L 152.330368 182.361376 
L 158.384668 183.979737 
L 164.438968 185.344723 
L 170.493268 186.492018 
L 177.758428 187.624709 
L 185.023588 188.534243 
L 193.499608 189.363811 
L 203.186488 190.066859 
L 214.084228 190.617192 
L 227.403688 191.039288 
L 234.461953 191.182729 
L 234.461953 191.182729 
" clip-path="url(#pb6e94e9b7a)" style="fill: none; stroke: #1f978b; stroke-width: 1.5; stroke-linecap: square"/>
   </g>
   <g id="line2d_42">
    <path d="M 46.985548 122.010574 
L 48.196408 61.586764 
L 49.407268 46.532241 
L 50.618128 42.681923 
L 51.828988 43.112795 
L 53.039848 45.475851 
L 54.250708 48.781557 
L 56.672428 56.523252 
L 61.515868 72.528137 
L 65.148448 83.641115 
L 68.781028 93.754826 
L 72.413608 102.905923 
L 76.046188 111.177886 
L 79.678768 118.660292 
L 83.311348 125.437103 
L 86.943928 131.583452 
L 90.576508 137.164776 
L 94.209088 142.239008 
L 97.841668 146.855714 
L 101.474248 151.059022 
L 105.106828 154.887432 
L 108.739408 158.375419 
L 112.371988 161.554097 
L 116.004568 164.450417 
L 119.637148 167.089328 
L 123.269728 169.493105 
L 126.902308 171.681933 
L 131.745748 174.297134 
L 136.589188 176.600947 
L 141.432628 178.627619 
L 146.276068 180.407716 
L 151.119508 181.968551 
L 157.173808 183.648344 
L 163.228108 185.06612 
L 169.282408 186.258689 
L 176.547568 187.437391 
L 183.812728 188.384749 
L 192.288748 189.250081 
L 201.975628 189.985404 
L 212.873368 190.562865 
L 224.981968 190.976772 
L 234.461953 191.18147 
L 234.461953 191.18147 
" clip-path="url(#pb6e94e9b7a)" style="fill: none; stroke: #1e9c89; stroke-width: 1.5; stroke-linecap: square"/>
   </g>
   <g id="line2d_43">
    <path d="M 46.985548 119.164116 
L 48.196408 58.640683 
L 49.407268 44.346963 
L 50.618128 41.000832 
L 51.828988 41.77059 
L 53.039848 44.370285 
L 54.250708 47.847178 
L 56.672428 55.816446 
L 61.515868 72.05227 
L 65.148448 83.255465 
L 67.570168 90.150063 
L 69.991888 96.597172 
L 72.413608 102.621258 
L 76.046188 110.925391 
L 79.678768 118.433929 
L 83.311348 125.232852 
L 86.943928 131.398388 
L 90.576508 136.996691 
L 94.209088 142.086024 
L 97.841668 146.716357 
L 101.474248 150.932017 
L 105.106828 154.771732 
L 108.739408 158.270109 
L 112.371988 161.458283 
L 116.004568 164.363384 
L 119.637148 167.010376 
L 123.269728 169.42158 
L 126.902308 171.617211 
L 131.745748 174.240607 
L 136.589188 176.551702 
L 141.432628 178.584843 
L 146.276068 180.370672 
L 151.119508 181.936576 
L 157.173808 183.621877 
L 163.228108 185.044326 
L 169.282408 186.240857 
L 176.547568 187.423483 
L 183.812728 188.374042 
L 192.288748 189.242324 
L 201.975628 189.980148 
L 212.873368 190.559593 
L 224.981968 190.974926 
L 234.461953 191.180335 
L 234.461953 191.180335 
" clip-path="url(#pb6e94e9b7a)" style="fill: none; stroke: #1fa188; stroke-width: 1.5; stroke-linecap: square"/>
   </g>
   <g id="line2d_44">
    <path d="M 46.985548 116.425687 
L 48.196408 55.931908 
L 49.407268 42.382307 
L 50.618128 39.508177 
L 51.828988 40.587834 
L 53.039848 43.400471 
L 54.250708 47.029535 
L 57.883288 59.396436 
L 61.515868 71.633375 
L 65.148448 82.913683 
L 67.570168 89.843967 
L 69.991888 96.31916 
L 72.413608 102.366171 
L 76.046188 110.698272 
L 79.678768 118.229734 
L 83.311348 125.048214 
L 86.943928 131.230845 
L 90.576508 136.844365 
L 94.209088 141.947302 
L 97.841668 146.589954 
L 101.474248 150.816809 
L 105.106828 154.666786 
L 108.739408 158.174599 
L 112.371988 161.371405 
L 116.004568 164.284485 
L 119.637148 166.93882 
L 123.269728 169.356771 
L 126.902308 171.558583 
L 131.745748 174.189421 
L 136.589188 176.50713 
L 141.432628 178.546141 
L 146.276068 180.337167 
L 151.119508 181.907667 
L 157.173808 183.597956 
L 163.228108 185.024637 
L 169.282408 186.224752 
L 176.547568 187.41093 
L 183.812728 188.36438 
L 192.288748 189.235326 
L 201.975628 189.975408 
L 212.873368 190.556643 
L 224.981968 190.973263 
L 234.461953 191.179312 
L 234.461953 191.179312 
" clip-path="url(#pb6e94e9b7a)" style="fill: none; stroke: #21a585; stroke-width: 1.5; stroke-linecap: square"/>
   </g>
   <g id="line2d_45">
    <path d="M 46.985548 113.796299 
L 48.196408 53.446164 
L 49.407268 40.618971 
L 50.618128 38.18467 
L 51.828988 39.546683 
L 53.039848 42.550341 
L 55.461568 50.418199 
L 61.515868 71.264263 
L 65.148448 82.610468 
L 67.570168 89.571306 
L 69.991888 96.07065 
L 72.413608 102.137486 
L 76.046188 110.493964 
L 79.678768 118.045585 
L 83.311348 124.881402 
L 86.943928 131.079286 
L 90.576508 136.706456 
L 94.209088 141.821651 
L 97.841668 146.475437 
L 101.474248 150.712433 
L 105.106828 154.571715 
L 108.739408 158.088088 
L 112.371988 161.292732 
L 116.004568 164.213053 
L 119.637148 166.874049 
L 123.269728 169.298121 
L 126.902308 171.505539 
L 131.745748 174.143128 
L 136.589188 176.466832 
L 141.432628 178.511162 
L 146.276068 180.306896 
L 151.119508 181.881556 
L 157.173808 183.576358 
L 163.228108 185.006865 
L 169.282408 186.21022 
L 176.547568 187.399607 
L 183.812728 188.355668 
L 192.288748 189.229017 
L 201.975628 189.971137 
L 212.873368 190.553986 
L 224.981968 190.971765 
L 234.461953 191.178392 
L 234.461953 191.178392 
" clip-path="url(#pb6e94e9b7a)" style="fill: none; stroke: #24aa83; stroke-width: 1.5; stroke-linecap: square"/>
   </g>
   <g id="line2d_46">
    <path d="M 46.985548 111.276136 
L 48.196408 51.169246 
L 49.407268 39.03883 
L 50.618128 37.012657 
L 51.828988 38.631068 
L 53.039848 41.805582 
L 55.461568 49.880054 
L 60.305008 66.89387 
L 63.937588 78.664599 
L 66.359308 85.894819 
L 68.781028 92.644811 
L 71.202748 98.942867 
L 73.624468 104.820865 
L 77.257048 112.918462 
L 80.889628 120.238938 
L 84.522208 126.868817 
L 88.154788 132.882546 
L 91.787368 138.344842 
L 95.419948 143.311618 
L 99.052528 147.831531 
L 102.685108 151.947388 
L 106.317688 155.697105 
L 109.950268 159.113641 
L 113.582848 162.227441 
L 117.215428 165.065101 
L 120.848008 167.650656 
L 124.480588 170.005793 
L 128.113168 172.150062 
L 132.956608 174.711637 
L 137.800048 176.967679 
L 142.643488 178.951769 
L 147.486928 180.693893 
L 152.330368 182.220904 
L 158.384668 183.863583 
L 164.438968 185.249204 
L 170.493268 186.413981 
L 177.758428 187.56413 
L 185.023588 188.487681 
L 193.499608 189.330057 
L 203.186488 190.04411 
L 214.084228 190.603091 
L 226.192828 191.001935 
L 234.461953 191.177563 
L 234.461953 191.177563 
" clip-path="url(#pb6e94e9b7a)" style="fill: none; stroke: #28ae80; stroke-width: 1.5; stroke-linecap: square"/>
   </g>
   <g id="line2d_47">
    <path d="M 46.985548 108.864668 
L 48.196408 49.087193 
L 49.407268 37.624967 
L 50.618128 35.97605 
L 51.828988 37.826561 
L 53.039848 41.153479 
L 55.461568 49.40945 
L 60.305008 66.584083 
L 63.937588 78.411631 
L 66.359308 85.667414 
L 68.781028 92.437372 
L 71.202748 98.751725 
L 73.624468 104.643503 
L 77.257048 112.758607 
L 80.889628 120.094052 
L 84.522208 126.737073 
L 88.154788 132.762582 
L 91.787368 138.235508 
L 95.419948 143.211939 
L 99.052528 147.740673 
L 102.685108 151.864609 
L 106.317688 155.621711 
L 109.950268 159.045104 
L 113.582848 162.165184 
L 117.215428 165.008617 
L 120.848008 167.599478 
L 124.480588 169.959481 
L 128.113168 172.108217 
L 132.956608 174.675165 
L 137.800048 176.935973 
L 142.643488 178.924286 
L 147.486928 180.670143 
L 152.330368 182.200443 
L 158.384668 183.846681 
L 164.438968 185.235319 
L 170.493268 186.402648 
L 177.758428 187.555337 
L 185.023588 188.480929 
L 193.499608 189.325169 
L 203.186488 190.040818 
L 214.084228 190.601052 
L 226.192828 191.000793 
L 234.461953 191.176818 
L 234.461953 191.176818 
" clip-path="url(#pb6e94e9b7a)" style="fill: none; stroke: #2eb37c; stroke-width: 1.5; stroke-linecap: square"/>
   </g>
   <g id="line2d_48">
    <path d="M 46.985548 106.560764 
L 48.196408 47.186422 
L 49.407268 36.361676 
L 50.618128 35.060244 
L 51.828988 37.120246 
L 53.039848 40.582758 
L 55.461568 48.99782 
L 60.305008 66.310962 
L 63.937588 78.187047 
L 66.359308 85.464732 
L 68.781028 92.251892 
L 71.202748 98.580379 
L 73.624468 104.48419 
L 77.257048 112.614706 
L 80.889628 119.963431 
L 84.522208 126.618182 
L 88.154788 132.654251 
L 91.787368 138.136742 
L 95.419948 143.121882 
L 99.052528 147.658584 
L 102.685108 151.789825 
L 106.317688 155.553612 
L 109.950268 158.983207 
L 113.582848 162.108968 
L 117.215428 164.957625 
L 120.848008 167.553283 
L 124.480588 169.917687 
L 128.113168 172.070461 
L 132.956608 174.642265 
L 137.800048 176.907379 
L 142.643488 178.899506 
L 147.486928 180.648732 
L 152.330368 182.182001 
L 158.384668 183.831451 
L 164.438968 185.22281 
L 170.493268 186.392439 
L 177.758428 187.547418 
L 185.023588 188.474848 
L 193.499608 189.320769 
L 203.186488 190.037855 
L 214.084228 190.599217 
L 226.192828 190.999766 
L 234.461953 191.176147 
L 234.461953 191.176147 
" clip-path="url(#pb6e94e9b7a)" style="fill: none; stroke: #35b779; stroke-width: 1.5; stroke-linecap: square"/>
   </g>
   <g id="line2d_49">
    <path d="M 46.985548 104.362787 
L 48.196408 45.453818 
L 49.407268 35.234438 
L 50.618128 34.252021 
L 51.828988 36.500591 
L 53.039848 40.08345 
L 55.461568 48.63767 
L 60.305008 66.069941 
L 63.937588 77.987486 
L 66.359308 85.283952 
L 68.781028 92.085954 
L 71.202748 98.426724 
L 73.624468 104.341068 
L 77.257048 112.485177 
L 80.889628 119.845702 
L 84.522208 126.510937 
L 88.154788 132.556479 
L 91.787368 138.047577 
L 95.419948 143.04057 
L 99.052528 147.584469 
L 102.685108 151.722312 
L 106.317688 155.492144 
L 109.950268 158.927345 
L 113.582848 162.058242 
L 117.215428 164.911619 
L 120.848008 167.511614 
L 124.480588 169.879994 
L 128.113168 172.036416 
L 132.956608 174.612605 
L 137.800048 176.881606 
L 142.643488 178.877175 
L 147.486928 180.629441 
L 152.330368 182.165387 
L 158.384668 183.817733 
L 164.438968 185.211546 
L 170.493268 186.383248 
L 177.758428 187.540288 
L 185.023588 188.469375 
L 193.499608 189.316809 
L 203.186488 190.035189 
L 214.084228 190.597567 
L 226.192828 190.998842 
L 234.461953 191.175543 
L 234.461953 191.175543 
" clip-path="url(#pb6e94e9b7a)" style="fill: none; stroke: #3dbc74; stroke-width: 1.5; stroke-linecap: square"/>
   </g>
   <g id="line2d_50">
    <path d="M 46.985548 102.268677 
L 48.196408 43.876817 
L 49.407268 34.229886 
L 50.618128 33.539452 
L 51.828988 35.957321 
L 53.039848 39.646749 
L 55.461568 48.32245 
L 60.305008 65.857046 
L 62.726728 73.958193 
L 65.148448 81.530497 
L 67.570168 88.590159 
L 69.991888 95.168847 
L 72.413608 101.30201 
L 74.835328 107.024447 
L 78.467908 114.908169 
L 82.100488 122.037879 
L 85.733068 128.497788 
L 89.365648 134.359949 
L 92.998228 139.686676 
L 96.630808 144.531717 
L 100.263388 148.94209 
L 103.895968 152.959008 
L 107.528548 156.619109 
L 111.161128 159.954695 
L 114.793708 162.994703 
L 118.426288 165.765197 
L 122.058868 168.289464 
L 125.691448 170.588583 
L 129.324027 172.681614 
L 134.167468 175.181469 
L 139.010908 177.382504 
L 143.854348 179.317564 
L 148.697788 181.015996 
L 153.541228 182.504068 
L 159.595528 184.104056 
L 165.649828 185.452827 
L 171.704128 186.585838 
L 178.969288 187.703701 
L 186.234448 188.600203 
L 194.710468 189.416561 
L 204.397348 190.106967 
L 215.295088 190.64561 
L 228.614548 191.056767 
L 234.461953 191.175001 
L 234.461953 191.175001 
" clip-path="url(#pb6e94e9b7a)" style="fill: none; stroke: #46c06f; stroke-width: 1.5; stroke-linecap: square"/>
   </g>
   <g id="line2d_51">
    <path d="M 46.985548 100.276027 
L 48.196408 42.443447 
L 49.407268 33.335758 
L 50.618128 32.911806 
L 51.828988 35.481303 
L 53.039848 39.264891 
L 55.461568 48.046439 
L 59.094148 61.411273 
L 62.726728 73.791754 
L 65.148448 81.379882 
L 67.570168 88.451869 
L 69.991888 95.040684 
L 72.413608 101.182516 
L 74.835328 106.912606 
L 78.467908 114.806486 
L 82.100488 121.945205 
L 85.733068 128.413237 
L 89.365648 134.28281 
L 92.998228 139.616302 
L 96.630808 144.467548 
L 100.263388 148.883614 
L 103.895968 152.905773 
L 107.528548 156.570678 
L 111.161128 159.91069 
L 114.793708 162.95478 
L 118.426288 165.729018 
L 122.058868 168.256722 
L 125.691448 170.558989 
L 129.324027 172.654902 
L 134.167468 175.158219 
L 139.010908 177.362322 
L 143.854348 179.300095 
L 148.697788 181.000919 
L 153.541228 182.4911 
L 159.595528 184.093364 
L 165.649828 185.444062 
L 171.704128 186.5787 
L 178.969288 187.698168 
L 186.234448 188.595964 
L 194.710468 189.413506 
L 204.397348 190.104918 
L 215.295088 190.644347 
L 228.614548 191.056105 
L 234.461953 191.174513 
L 234.461953 191.174513 
" clip-path="url(#pb6e94e9b7a)" style="fill: none; stroke: #50c46a; stroke-width: 1.5; stroke-linecap: square"/>
   </g>
   <g id="line2d_52">
    <path d="M 46.985548 98.38215 
L 48.196408 41.142365 
L 49.407268 32.540844 
L 50.618128 32.359448 
L 51.828988 35.064433 
L 53.039848 38.931043 
L 56.672428 52.351593 
L 60.305008 65.502246 
L 62.726728 73.643785 
L 65.148448 81.245484 
L 67.570168 88.328117 
L 69.991888 94.925749 
L 72.413608 101.075189 
L 74.835328 106.812038 
L 78.467908 114.714945 
L 82.100488 121.861714 
L 85.733068 128.337032 
L 89.365648 134.213269 
L 92.998228 139.552855 
L 96.630808 144.409696 
L 100.263388 148.830899 
L 103.895968 152.857787 
L 107.528548 156.527029 
L 111.161128 159.871036 
L 114.793708 162.918809 
L 118.426288 165.696424 
L 122.058868 168.227228 
L 125.691448 170.532335 
L 129.324027 172.630847 
L 134.167468 175.137285 
L 139.010908 177.344152 
L 143.854348 179.284369 
L 148.697788 180.987349 
L 153.541228 182.479429 
L 159.595528 184.083743 
L 165.649828 185.436175 
L 171.704128 186.572278 
L 178.969288 187.69319 
L 186.234448 188.592151 
L 194.710468 189.410759 
L 204.397348 190.103075 
L 215.295088 190.643211 
L 228.614548 191.05551 
L 234.461953 191.174074 
L 234.461953 191.174074 
" clip-path="url(#pb6e94e9b7a)" style="fill: none; stroke: #5ac864; stroke-width: 1.5; stroke-linecap: square"/>
   </g>
   <g id="line2d_53">
    <path d="M 46.985548 96.584139 
L 48.196408 39.96287 
L 49.407268 31.834922 
L 50.618128 31.873749 
L 51.828988 34.699533 
L 53.039848 38.639197 
L 56.672428 52.162886 
L 60.305008 65.3547 
L 62.726728 73.512126 
L 65.148448 81.125477 
L 67.570168 88.21732 
L 69.991888 94.822645 
L 72.413608 100.978772 
L 74.835328 106.7216 
L 78.467908 114.632541 
L 82.100488 121.78651 
L 85.733068 128.268367 
L 89.365648 134.150597 
L 92.998228 139.495672 
L 96.630808 144.357556 
L 100.263388 148.783393 
L 103.895968 152.814548 
L 107.528548 156.487703 
L 111.161128 159.835315 
L 114.793708 162.886409 
L 118.426288 165.667068 
L 122.058868 168.200667 
L 125.691448 170.508334 
L 129.324027 172.609188 
L 134.167468 175.118439 
L 139.010908 177.327797 
L 143.854348 179.270216 
L 148.697788 180.975137 
L 153.541228 182.468926 
L 159.595528 184.075086 
L 165.649828 185.42908 
L 171.704128 186.5665 
L 178.969288 187.688713 
L 186.234448 188.588722 
L 194.710468 189.408288 
L 204.397348 190.101417 
L 215.295088 190.642189 
L 228.614548 191.054976 
L 234.461953 191.173679 
L 234.461953 191.173679 
" clip-path="url(#pb6e94e9b7a)" style="fill: none; stroke: #65cb5e; stroke-width: 1.5; stroke-linecap: square"/>
   </g>
   <g id="line2d_54">
    <path d="M 46.985548 94.878914 
L 48.196408 38.894912 
L 49.407268 31.208701 
L 50.618128 31.446994 
L 51.828988 34.380254 
L 53.039848 38.384074 
L 61.515868 69.378369 
L 63.937588 77.273967 
L 66.359308 84.631483 
L 68.781028 91.482701 
L 71.202748 97.865063 
L 73.624468 103.815784 
L 77.257048 112.007789 
L 80.889628 119.410638 
L 84.522208 126.113963 
L 88.154788 132.194219 
L 91.787368 137.717052 
L 95.419948 142.739127 
L 99.052528 147.30974 
L 102.685108 151.472128 
L 106.317688 155.264469 
L 109.950268 158.720497 
L 113.582848 161.870488 
L 117.215428 164.741407 
L 120.848008 167.357505 
L 124.480588 169.740646 
L 128.113168 171.910597 
L 132.956608 174.503042 
L 137.800048 176.786447 
L 142.643488 178.794756 
L 147.486928 180.558268 
L 152.330368 182.104114 
L 158.384668 183.767159 
L 164.438968 185.170032 
L 170.493268 186.349386 
L 177.758428 187.514024 
L 185.023588 188.449219 
L 193.499608 189.302235 
L 203.186488 190.025377 
L 214.084228 190.591493 
L 226.192828 190.995443 
L 234.461953 191.173325 
L 234.461953 191.173325 
" clip-path="url(#pb6e94e9b7a)" style="fill: none; stroke: #70cf57; stroke-width: 1.5; stroke-linecap: square"/>
   </g>
   <g id="line2d_55">
    <path d="M 46.985548 93.263271 
L 48.196408 37.929084 
L 49.407268 30.65375 
L 50.618128 31.072303 
L 51.828988 34.100991 
L 53.039848 38.161049 
L 61.515868 69.268585 
L 63.937588 77.174065 
L 66.359308 84.539245 
L 68.781028 91.396813 
L 71.202748 97.784684 
L 73.624468 103.740334 
L 77.257048 111.938969 
L 80.889628 119.347781 
L 84.522208 126.056537 
L 88.154788 132.141778 
L 91.787368 137.669191 
L 95.419948 142.695479 
L 99.052528 147.269967 
L 102.685108 151.435921 
L 106.317688 155.231535 
L 109.950268 158.690584 
L 113.582848 161.843347 
L 117.215428 164.71681 
L 120.848008 167.335243 
L 124.480588 169.720524 
L 128.113168 171.892434 
L 132.956608 174.487232 
L 137.800048 176.77272 
L 142.643488 178.782872 
L 147.486928 180.548008 
L 152.330368 182.095283 
L 158.384668 183.759872 
L 164.438968 185.164053 
L 170.493268 186.34451 
L 177.758428 187.510243 
L 185.023588 188.446318 
L 193.499608 189.300138 
L 203.186488 190.023966 
L 214.084228 190.59062 
L 226.192828 190.994954 
L 234.461953 191.173006 
L 234.461953 191.173006 
" clip-path="url(#pb6e94e9b7a)" style="fill: none; stroke: #7cd250; stroke-width: 1.5; stroke-linecap: square"/>
   </g>
   <g id="line2d_56">
    <path d="M 46.985548 91.733918 
L 48.196408 37.056611 
L 49.407268 30.162445 
L 50.618128 30.743546 
L 51.828988 33.8568 
L 53.039848 37.966063 
L 61.515868 69.170861 
L 63.937588 77.08482 
L 66.359308 84.456634 
L 68.781028 91.319749 
L 71.202748 97.712471 
L 73.624468 103.672489 
L 77.257048 111.877035 
L 80.889628 119.291187 
L 84.522208 126.004819 
L 88.154788 132.094544 
L 91.787368 137.626082 
L 95.419948 142.656164 
L 99.052528 147.234146 
L 102.685108 151.403314 
L 106.317688 155.201878 
L 109.950268 158.663651 
L 113.582848 161.818912 
L 117.215428 164.694668 
L 120.848008 167.315205 
L 124.480588 169.702412 
L 128.113168 171.876087 
L 132.956608 174.473004 
L 137.800048 176.760368 
L 142.643488 178.772178 
L 147.486928 180.538777 
L 152.330368 182.087339 
L 158.384668 183.753317 
L 164.438968 185.158675 
L 170.493268 186.340124 
L 177.758428 187.506841 
L 185.023588 188.443708 
L 193.499608 189.298252 
L 203.186488 190.022696 
L 214.084228 190.589834 
L 226.192828 190.994515 
L 234.461953 191.172719 
L 234.461953 191.172719 
" clip-path="url(#pb6e94e9b7a)" style="fill: none; stroke: #89d548; stroke-width: 1.5; stroke-linecap: square"/>
   </g>
   <g id="line2d_57">
    <path d="M 46.985548 90.287512 
L 48.196408 36.269334 
L 49.407268 29.727897 
L 50.618128 30.455275 
L 51.828988 33.643328 
L 54.250708 42.327428 
L 59.094148 60.603755 
L 61.515868 69.083804 
L 63.937588 77.005045 
L 66.359308 84.38261 
L 68.781028 91.250578 
L 71.202748 97.64758 
L 73.624468 103.611475 
L 77.257048 111.821295 
L 80.889628 119.240232 
L 84.522208 125.958245 
L 88.154788 132.052003 
L 91.787368 137.587255 
L 95.419948 142.620757 
L 99.052528 147.201888 
L 102.685108 151.373952 
L 106.317688 155.175176 
L 109.950268 158.639403 
L 113.582848 161.796914 
L 117.215428 164.674737 
L 120.848008 167.297168 
L 124.480588 169.686111 
L 128.113168 171.861375 
L 132.956608 174.460199 
L 137.800048 176.749254 
L 142.643488 178.762556 
L 147.486928 180.530471 
L 152.330368 182.080191 
L 158.384668 183.74742 
L 164.438968 185.153836 
L 170.493268 186.336179 
L 177.758428 187.503781 
L 185.023588 188.441361 
L 193.499608 189.296556 
L 203.186488 190.021554 
L 214.084228 190.589128 
L 226.192828 190.99412 
L 234.461953 191.172461 
L 234.461953 191.172461 
" clip-path="url(#pb6e94e9b7a)" style="fill: none; stroke: #95d840; stroke-width: 1.5; stroke-linecap: square"/>
   </g>
   <g id="line2d_58">
    <path d="M 46.985548 88.920683 
L 48.196408 35.559688 
L 49.407268 29.343901 
L 50.618128 30.202653 
L 51.828988 33.456745 
L 54.250708 42.201423 
L 59.094148 60.517469 
L 61.515868 69.006186 
L 63.937588 76.933688 
L 66.359308 84.316248 
L 68.781028 91.188471 
L 71.202748 97.589253 
L 73.624468 103.556594 
L 77.257048 111.771126 
L 80.889628 119.194353 
L 84.522208 125.916304 
L 88.154788 132.013691 
L 91.787368 137.552288 
L 95.419948 142.58887 
L 99.052528 147.172838 
L 102.685108 151.347513 
L 106.317688 155.151134 
L 109.950268 158.617572 
L 113.582848 161.777111 
L 117.215428 164.656795 
L 120.848008 167.280932 
L 124.480588 169.671439 
L 128.113168 171.848134 
L 132.956608 174.448676 
L 137.800048 176.739251 
L 142.643488 178.753898 
L 147.486928 180.522997 
L 152.330368 182.07376 
L 158.384668 183.742114 
L 164.438968 185.149483 
L 170.493268 186.332629 
L 177.758428 187.501028 
L 185.023588 188.439249 
L 193.499608 189.29503 
L 203.186488 190.020527 
L 214.084228 190.588492 
L 226.192828 190.993764 
L 234.461953 191.172229 
L 234.461953 191.172229 
" clip-path="url(#pb6e94e9b7a)" style="fill: none; stroke: #a2da37; stroke-width: 1.5; stroke-linecap: square"/>
   </g>
   <g id="line2d_59">
    <path d="M 46.985548 87.630064 
L 48.196408 34.920672 
L 49.407268 29.004874 
L 50.618128 29.981391 
L 51.828988 33.293684 
L 54.250708 42.090895 
L 59.094148 60.440817 
L 61.515868 68.936932 
L 63.937588 76.869824 
L 66.359308 84.256728 
L 68.781028 91.132687 
L 71.202748 97.536815 
L 73.624468 103.507223 
L 77.257048 111.725968 
L 80.889628 119.153044 
L 84.522208 125.878535 
L 88.154788 131.979188 
L 91.787368 137.520797 
L 95.419948 142.560154 
L 99.052528 147.146678 
L 102.685108 151.323706 
L 106.317688 155.129488 
L 109.950268 158.597918 
L 113.582848 161.759283 
L 117.215428 164.640643 
L 120.848008 167.266318 
L 124.480588 169.658232 
L 128.113168 171.836216 
L 132.956608 174.438305 
L 137.800048 176.730249 
L 142.643488 178.746105 
L 147.486928 180.516272 
L 152.330368 182.067972 
L 158.384668 183.73734 
L 164.438968 185.145566 
L 170.493268 186.329435 
L 177.758428 187.498552 
L 185.023588 188.437349 
L 193.499608 189.293657 
L 203.186488 190.019603 
L 214.084228 190.58792 
L 226.192828 190.993444 
L 234.461953 191.17202 
L 234.461953 191.17202 
" clip-path="url(#pb6e94e9b7a)" style="fill: none; stroke: #b0dd2f; stroke-width: 1.5; stroke-linecap: square"/>
   </g>
   <g id="line2d_60">
    <path d="M 46.985548 86.412308 
L 48.196408 34.345829 
L 49.407268 28.705804 
L 50.618128 29.787694 
L 51.828988 33.151192 
L 54.250708 41.993883 
L 59.094148 60.372665 
L 61.515868 68.875093 
L 63.937588 76.812631 
L 66.359308 84.20332 
L 68.781028 91.082567 
L 71.202748 97.489658 
L 73.624468 103.462799 
L 77.257048 111.685314 
L 80.889628 119.115846 
L 84.522208 125.84452 
L 88.154788 131.948113 
L 91.787368 137.492435 
L 95.419948 142.534293 
L 99.052528 147.12312 
L 102.685108 151.302268 
L 106.317688 155.109997 
L 109.950268 158.580221 
L 113.582848 161.743232 
L 117.215428 164.626103 
L 120.848008 167.253162 
L 124.480588 169.646344 
L 128.113168 171.825488 
L 132.956608 174.42897 
L 137.800048 176.722147 
L 142.643488 178.739092 
L 147.486928 180.510219 
L 152.330368 182.062764 
L 158.384668 183.733043 
L 164.438968 185.142041 
L 170.493268 186.326561 
L 177.758428 187.496323 
L 185.023588 188.435639 
L 193.499608 189.292421 
L 203.186488 190.018771 
L 214.084228 190.587406 
L 226.192828 190.993156 
L 234.461953 191.171832 
L 234.461953 191.171832 
" clip-path="url(#pb6e94e9b7a)" style="fill: none; stroke: #bddf26; stroke-width: 1.5; stroke-linecap: square"/>
   </g>
   <g id="line2d_61">
    <path d="M 46.985548 85.264111 
L 48.196408 33.829213 
L 49.407268 28.442197 
L 50.618128 29.618205 
L 51.828988 33.026674 
L 54.250708 41.908676 
L 59.094148 60.312015 
L 61.515868 68.819835 
L 63.937588 76.761384 
L 66.359308 84.155376 
L 68.781028 91.037519 
L 71.202748 97.447241 
L 73.624468 103.422818 
L 77.257048 111.64871 
L 80.889628 119.082347 
L 84.522208 125.813884 
L 88.154788 131.920124 
L 91.787368 137.466889 
L 95.419948 142.511 
L 99.052528 147.101904 
L 102.685108 151.282961 
L 106.317688 155.092446 
L 109.950268 158.564286 
L 113.582848 161.72878 
L 117.215428 164.613011 
L 120.848008 167.241317 
L 124.480588 169.635641 
L 128.113168 171.81583 
L 132.956608 174.420567 
L 137.800048 176.714854 
L 142.643488 178.732779 
L 147.486928 180.50477 
L 152.330368 182.058075 
L 158.384668 183.729175 
L 164.438968 185.138868 
L 170.493268 186.323974 
L 177.758428 187.494316 
L 185.023588 188.4341 
L 193.499608 189.291309 
L 203.186488 190.018023 
L 214.084228 190.586942 
L 226.192828 190.992897 
L 234.461953 191.171663 
L 234.461953 191.171663 
" clip-path="url(#pb6e94e9b7a)" style="fill: none; stroke: #cae11f; stroke-width: 1.5; stroke-linecap: square"/>
   </g>
   <g id="line2d_62">
    <path d="M 46.985548 84.182222 
L 48.196408 33.365362 
L 49.407268 28.210031 
L 50.618128 29.469961 
L 51.828988 32.917862 
L 54.250708 41.833783 
L 59.094148 60.257995 
L 61.515868 68.770422 
L 63.937588 76.715436 
L 66.359308 84.112318 
L 68.781028 90.997016 
L 71.202748 97.409076 
L 73.624468 103.38683 
L 77.257048 111.615748 
L 80.889628 119.052174 
L 84.522208 125.786288 
L 88.154788 131.894912 
L 91.787368 137.443878 
L 95.419948 142.49002 
L 99.052528 147.082794 
L 102.685108 151.265573 
L 106.317688 155.076638 
L 109.950268 158.549935 
L 113.582848 161.715765 
L 117.215428 164.601221 
L 120.848008 167.230651 
L 124.480588 169.626004 
L 128.113168 171.807134 
L 132.956608 174.413 
L 137.800048 176.708287 
L 142.643488 178.727095 
L 147.486928 180.499865 
L 152.330368 182.053854 
L 158.384668 183.725694 
L 164.438968 185.136012 
L 170.493268 186.321645 
L 177.758428 187.49251 
L 185.023588 188.432714 
L 193.499608 189.290308 
L 203.186488 190.017349 
L 214.084228 190.586526 
L 226.192828 190.992664 
L 234.461953 191.171511 
L 234.461953 191.171511 
" clip-path="url(#pb6e94e9b7a)" style="fill: none; stroke: #d8e219; stroke-width: 1.5; stroke-linecap: square"/>
   </g>
   <g id="line2d_63">
    <path d="M 46.985548 83.163458 
L 48.196408 32.949266 
L 49.407268 28.005712 
L 50.618128 29.340346 
L 51.828988 32.822764 
L 54.250708 41.767907 
L 59.094148 60.209839 
L 61.515868 68.726205 
L 63.937588 76.674219 
L 66.359308 84.07363 
L 68.781028 90.960587 
L 71.202748 97.374728 
L 73.624468 103.354426 
L 77.257048 111.586059 
L 80.889628 119.024992 
L 84.522208 125.761427 
L 88.154788 131.872198 
L 91.787368 137.423147 
L 95.419948 142.471118 
L 99.052528 147.065578 
L 102.685108 151.249908 
L 106.317688 155.0624 
L 109.950268 158.537009 
L 113.582848 161.704042 
L 117.215428 164.590603 
L 120.848008 167.221045 
L 124.480588 169.617324 
L 128.113168 171.799302 
L 132.956608 174.406186 
L 137.800048 176.702373 
L 142.643488 178.721977 
L 147.486928 180.495447 
L 152.330368 182.050053 
L 158.384668 183.722558 
L 164.438968 185.133439 
L 170.493268 186.319548 
L 177.758428 187.490884 
L 185.023588 188.431467 
L 193.499608 189.289407 
L 203.186488 190.016742 
L 214.084228 190.58615 
L 226.192828 190.992454 
L 234.461953 191.171374 
L 234.461953 191.171374 
" clip-path="url(#pb6e94e9b7a)" style="fill: none; stroke: #e5e419; stroke-width: 1.5; stroke-linecap: square"/>
   </g>
   <g id="line2d_64">
    <path d="M 46.985548 82.204713 
L 48.196408 32.57634 
L 49.407268 27.826031 
L 50.618128 29.227057 
L 51.828988 32.739641 
L 54.250708 41.709914 
L 59.094148 60.166873 
L 61.515868 68.686608 
L 63.937588 76.637223 
L 66.359308 84.038854 
L 68.781028 90.927812 
L 71.202748 97.343805 
L 73.624468 103.325244 
L 77.257048 111.559313 
L 80.889628 119.000502 
L 84.522208 125.739025 
L 88.154788 131.85173 
L 91.787368 137.404467 
L 95.419948 142.454087 
L 99.052528 147.050066 
L 102.685108 151.235795 
L 106.317688 155.049571 
L 109.950268 158.525363 
L 113.582848 161.693481 
L 117.215428 164.581037 
L 120.848008 167.212391 
L 124.480588 169.609505 
L 128.113168 171.792247 
L 132.956608 174.400047 
L 137.800048 176.697046 
L 142.643488 178.717366 
L 147.486928 180.491468 
L 152.330368 182.046629 
L 158.384668 183.719734 
L 164.438968 185.131122 
L 170.493268 186.317659 
L 177.758428 187.489419 
L 185.023588 188.430343 
L 193.499608 189.288595 
L 203.186488 190.016196 
L 214.084228 190.585812 
L 226.192828 190.992265 
L 234.461953 191.171251 
L 234.461953 191.171251 
" clip-path="url(#pb6e94e9b7a)" style="fill: none; stroke: #f1e51d; stroke-width: 1.5; stroke-linecap: square"/>
   </g>
   <g id="line2d_65">
    <path d="M 46.985548 191.506031 
L 54.250708 191.506031 
L 55.461568 189.354894 
L 59.094148 188.637121 
L 61.515868 188.239156 
L 65.148448 187.556095 
L 72.413608 185.871885 
L 76.046188 184.751447 
L 77.257048 184.357213 
L 82.100488 182.185427 
L 84.522208 180.960257 
L 86.943928 179.502471 
L 92.998228 175.139428 
L 96.630808 172.123461 
L 105.106828 164.979365 
L 106.317688 164.192491 
L 108.739408 162.181157 
L 109.950268 161.392636 
L 111.161128 160.918901 
L 113.582848 159.393714 
L 118.426288 157.925805 
L 120.848008 157.537761 
L 123.269728 157.545172 
L 125.691448 157.790279 
L 128.113168 158.291325 
L 130.534888 159.017812 
L 132.956608 159.912978 
L 137.800048 162.174597 
L 147.486928 167.711232 
L 148.697788 168.538082 
L 149.908648 169.1728 
L 151.119508 170.011136 
L 153.541228 171.466004 
L 160.806388 175.755782 
L 163.228108 177.081242 
L 166.860688 179.008412 
L 168.071548 179.474069 
L 170.493268 180.688993 
L 171.704128 181.132548 
L 172.914988 181.854217 
L 175.336708 182.70888 
L 176.547568 183.288191 
L 177.758428 183.55439 
L 180.180148 184.554631 
L 181.391008 184.772071 
L 182.601867 185.331503 
L 187.445308 186.629406 
L 188.656168 186.870838 
L 189.867028 187.236847 
L 197.132188 188.613829 
L 201.975628 189.318773 
L 209.240788 190.058367 
L 216.505948 190.575495 
L 229.825408 191.091231 
L 234.461953 191.194405 
L 234.461953 191.194405 
" clip-path="url(#pb6e94e9b7a)" style="fill: none; stroke-dasharray: 5.55,2.4; stroke-dashoffset: 0; stroke: #000000; stroke-width: 1.5"/>
   </g>
   <g id="patch_3">
    <path d="M 45.774688 191.506031 
L 45.774688 19.642031 
" style="fill: none; stroke: #000000; stroke-width: 0.8; stroke-linejoin: miter; stroke-linecap: square"/>
   </g>
   <g id="patch_4">
    <path d="M 218.754688 191.506031 
L 218.754688 19.642031 
" style="fill: none; stroke: #000000; stroke-width: 0.8; stroke-linejoin: miter; stroke-linecap: square"/>
   </g>
   <g id="patch_5">
    <path d="M 45.774688 191.506031 
L 218.754688 191.506031 
" style="fill: none; stroke: #000000; stroke-width: 0.8; stroke-linejoin: miter; stroke-linecap: square"/>
   </g>
   <g id="patch_6">
    <path d="M 45.774688 19.642031 
L 218.754688 19.642031 
" style="fill: none; stroke: #000000; stroke-width: 0.8; stroke-linejoin: miter; stroke-linecap: square"/>
   </g>
   <g id="text_17">
    <!-- r:0.14s:0.18N:7 -->
    <g transform="translate(101.49875 13.642031) scale(0.09 -0.09)">
     <defs>
      <path id="ArialMT-72" d="M 416 0 
L 416 3319 
L 922 3319 
L 922 2816 
Q 1116 3169 1280 3281 
Q 1444 3394 1641 3394 
Q 1925 3394 2219 3213 
L 2025 2691 
Q 1819 2813 1613 2813 
Q 1428 2813 1281 2702 
Q 1134 2591 1072 2394 
Q 978 2094 978 1738 
L 978 0 
L 416 0 
z
" transform="scale(0.015625)"/>
      <path id="ArialMT-3a" d="M 578 2678 
L 578 3319 
L 1219 3319 
L 1219 2678 
L 578 2678 
z
M 578 0 
L 578 641 
L 1219 641 
L 1219 0 
L 578 0 
z
" transform="scale(0.015625)"/>
      <path id="ArialMT-73" d="M 197 991 
L 753 1078 
Q 800 744 1014 566 
Q 1228 388 1613 388 
Q 2000 388 2187 545 
Q 2375 703 2375 916 
Q 2375 1106 2209 1216 
Q 2094 1291 1634 1406 
Q 1016 1563 777 1677 
Q 538 1791 414 1992 
Q 291 2194 291 2438 
Q 291 2659 392 2848 
Q 494 3038 669 3163 
Q 800 3259 1026 3326 
Q 1253 3394 1513 3394 
Q 1903 3394 2198 3281 
Q 2494 3169 2634 2976 
Q 2775 2784 2828 2463 
L 2278 2388 
Q 2241 2644 2061 2787 
Q 1881 2931 1553 2931 
Q 1166 2931 1000 2803 
Q 834 2675 834 2503 
Q 834 2394 903 2306 
Q 972 2216 1119 2156 
Q 1203 2125 1616 2013 
Q 2213 1853 2448 1751 
Q 2684 1650 2818 1456 
Q 2953 1263 2953 975 
Q 2953 694 2789 445 
Q 2625 197 2315 61 
Q 2006 -75 1616 -75 
Q 969 -75 630 194 
Q 291 463 197 991 
z
" transform="scale(0.015625)"/>
      <path id="ArialMT-4e" d="M 488 0 
L 488 4581 
L 1109 4581 
L 3516 984 
L 3516 4581 
L 4097 4581 
L 4097 0 
L 3475 0 
L 1069 3600 
L 1069 0 
L 488 0 
z
" transform="scale(0.015625)"/>
     </defs>
     <use xlink:href="#ArialMT-72"/>
     <use xlink:href="#ArialMT-3a" transform="translate(33.300781 0)"/>
     <use xlink:href="#ArialMT-30" transform="translate(61.083984 0)"/>
     <use xlink:href="#ArialMT-2e" transform="translate(116.699219 0)"/>
     <use xlink:href="#ArialMT-31" transform="translate(144.482422 0)"/>
     <use xlink:href="#ArialMT-34" transform="translate(200.097656 0)"/>
     <use xlink:href="#ArialMT-73" transform="translate(255.712891 0)"/>
     <use xlink:href="#ArialMT-3a" transform="translate(305.712891 0)"/>
     <use xlink:href="#ArialMT-30" transform="translate(333.496094 0)"/>
     <use xlink:href="#ArialMT-2e" transform="translate(389.111328 0)"/>
     <use xlink:href="#ArialMT-31" transform="translate(416.894531 0)"/>
     <use xlink:href="#ArialMT-38" transform="translate(472.509766 0)"/>
     <use xlink:href="#ArialMT-4e" transform="translate(528.125 0)"/>
     <use xlink:href="#ArialMT-3a" transform="translate(600.341797 0)"/>
     <use xlink:href="#ArialMT-37" transform="translate(628.125 0)"/>
    </g>
   </g>
  </g>
 </g>
 <defs>
  <clipPath id="pb6e94e9b7a">
   <rect x="45.774688" y="19.642031" width="172.98" height="171.864"/>
  </clipPath>
 </defs>
</svg>
