<?xml version="1.0" encoding="utf-8" standalone="no"?>
<!DOCTYPE svg PUBLIC "-//W3C//DTD SVG 1.1//EN"
  "http://www.w3.org/Graphics/SVG/1.1/DTD/svg11.dtd">
<svg xmlns:xlink="http://www.w3.org/1999/xlink" width="220.484844pt" height="386.088781pt" viewBox="0 0 220.484844 386.088781" xmlns="http://www.w3.org/2000/svg" version="1.1">
 <metadata>
  <rdf:RDF xmlns:dc="http://purl.org/dc/elements/1.1/" xmlns:cc="http://creativecommons.org/ns#" xmlns:rdf="http://www.w3.org/1999/02/22-rdf-syntax-ns#">
   <cc:Work>
    <dc:type rdf:resource="http://purl.org/dc/dcmitype/StillImage"/>
    <dc:date>2025-09-22T16:06:44.576208</dc:date>
    <dc:format>image/svg+xml</dc:format>
    <dc:creator>
     <cc:Agent>
      <dc:title>Matplotlib v3.10.6, https://matplotlib.org/</dc:title>
     </cc:Agent>
    </dc:creator>
   </cc:Work>
  </rdf:RDF>
 </metadata>
 <defs>
  <style type="text/css">*{stroke-linejoin: round; stroke-linecap: butt}</style>
 </defs>
 <g id="figure_1">
  <g id="patch_1">
   <path d="M 0 386.088781 
L 220.484844 386.088781 
L 220.484844 0 
L 0 0 
L 0 386.088781 
z
" style="fill: none"/>
  </g>
  <g id="axes_1">
   <g id="patch_2">
    <path d="M 31.934844 121.776 
L 213.284844 121.776 
L 213.284844 7.2 
L 31.934844 7.2 
L 31.934844 121.776 
z
" style="fill: none"/>
   </g>
   <g id="matplotlib.axis_1">
    <g id="xtick_1">
     <g id="line2d_1">
      <defs>
       <path id="mf6685044cc" d="M 0 0 
L 0 3.5 
" style="stroke: #000000; stroke-width: 0.8"/>
      </defs>
      <g>
       <use xlink:href="#mf6685044cc" x="31.934844" y="121.776" style="stroke: #000000; stroke-width: 0.8"/>
      </g>
     </g>
    </g>
    <g id="xtick_2">
     <g id="line2d_2">
      <g>
       <use xlink:href="#mf6685044cc" x="72.234844" y="121.776" style="stroke: #000000; stroke-width: 0.8"/>
      </g>
     </g>
    </g>
    <g id="xtick_3">
     <g id="line2d_3">
      <g>
       <use xlink:href="#mf6685044cc" x="112.534844" y="121.776" style="stroke: #000000; stroke-width: 0.8"/>
      </g>
     </g>
    </g>
    <g id="xtick_4">
     <g id="line2d_4">
      <g>
       <use xlink:href="#mf6685044cc" x="152.834844" y="121.776" style="stroke: #000000; stroke-width: 0.8"/>
      </g>
     </g>
    </g>
    <g id="xtick_5">
     <g id="line2d_5">
      <g>
       <use xlink:href="#mf6685044cc" x="193.134844" y="121.776" style="stroke: #000000; stroke-width: 0.8"/>
      </g>
     </g>
    </g>
   </g>
   <g id="matplotlib.axis_2">
    <g id="ytick_1">
     <g id="line2d_6">
      <defs>
       <path id="m2939392155" d="M 0 0 
L -3.5 0 
" style="stroke: #000000; stroke-width: 0.8"/>
      </defs>
      <g>
       <use xlink:href="#m2939392155" x="31.934844" y="121.776" style="stroke: #000000; stroke-width: 0.8"/>
      </g>
     </g>
     <g id="text_1">
      <!-- 0 -->
      <g transform="translate(19.93 124.997016) scale(0.09 -0.09)">
       <defs>
        <path id="ArialMT-30" d="M 266 2259 
Q 266 3072 433 3567 
Q 600 4063 929 4331 
Q 1259 4600 1759 4600 
Q 2128 4600 2406 4451 
Q 2684 4303 2865 4023 
Q 3047 3744 3150 3342 
Q 3253 2941 3253 2259 
Q 3253 1453 3087 958 
Q 2922 463 2592 192 
Q 2263 -78 1759 -78 
Q 1097 -78 719 397 
Q 266 969 266 2259 
z
M 844 2259 
Q 844 1131 1108 757 
Q 1372 384 1759 384 
Q 2147 384 2411 759 
Q 2675 1134 2675 2259 
Q 2675 3391 2411 3762 
Q 2147 4134 1753 4134 
Q 1366 4134 1134 3806 
Q 844 3388 844 2259 
z
" transform="scale(0.015625)"/>
       </defs>
       <use xlink:href="#ArialMT-30"/>
      </g>
     </g>
    </g>
    <g id="ytick_2">
     <g id="line2d_7">
      <g>
       <use xlink:href="#m2939392155" x="31.934844" y="93.132" style="stroke: #000000; stroke-width: 0.8"/>
      </g>
     </g>
     <g id="text_2">
      <!-- 1 -->
      <g transform="translate(19.93 96.353016) scale(0.09 -0.09)">
       <defs>
        <path id="ArialMT-31" d="M 2384 0 
L 1822 0 
L 1822 3584 
Q 1619 3391 1289 3197 
Q 959 3003 697 2906 
L 697 3450 
Q 1169 3672 1522 3987 
Q 1875 4303 2022 4600 
L 2384 4600 
L 2384 0 
z
" transform="scale(0.015625)"/>
       </defs>
       <use xlink:href="#ArialMT-31"/>
      </g>
     </g>
    </g>
    <g id="ytick_3">
     <g id="line2d_8">
      <g>
       <use xlink:href="#m2939392155" x="31.934844" y="64.488" style="stroke: #000000; stroke-width: 0.8"/>
      </g>
     </g>
     <g id="text_3">
      <!-- 2 -->
      <g transform="translate(19.93 67.709016) scale(0.09 -0.09)">
       <defs>
        <path id="ArialMT-32" d="M 3222 541 
L 3222 0 
L 194 0 
Q 188 203 259 391 
Q 375 700 629 1000 
Q 884 1300 1366 1694 
Q 2113 2306 2375 2664 
Q 2638 3022 2638 3341 
Q 2638 3675 2398 3904 
Q 2159 4134 1775 4134 
Q 1369 4134 1125 3890 
Q 881 3647 878 3216 
L 300 3275 
Q 359 3922 746 4261 
Q 1134 4600 1788 4600 
Q 2447 4600 2831 4234 
Q 3216 3869 3216 3328 
Q 3216 3053 3103 2787 
Q 2991 2522 2730 2228 
Q 2469 1934 1863 1422 
Q 1356 997 1212 845 
Q 1069 694 975 541 
L 3222 541 
z
" transform="scale(0.015625)"/>
       </defs>
       <use xlink:href="#ArialMT-32"/>
      </g>
     </g>
    </g>
    <g id="ytick_4">
     <g id="line2d_9">
      <g>
       <use xlink:href="#m2939392155" x="31.934844" y="35.844" style="stroke: #000000; stroke-width: 0.8"/>
      </g>
     </g>
     <g id="text_4">
      <!-- 3 -->
      <g transform="translate(19.93 39.065016) scale(0.09 -0.09)">
       <defs>
        <path id="ArialMT-33" d="M 269 1209 
L 831 1284 
Q 928 806 1161 595 
Q 1394 384 1728 384 
Q 2125 384 2398 659 
Q 2672 934 2672 1341 
Q 2672 1728 2419 1979 
Q 2166 2231 1775 2231 
Q 1616 2231 1378 2169 
L 1441 2663 
Q 1497 2656 1531 2656 
Q 1891 2656 2178 2843 
Q 2466 3031 2466 3422 
Q 2466 3731 2256 3934 
Q 2047 4138 1716 4138 
Q 1388 4138 1169 3931 
Q 950 3725 888 3313 
L 325 3413 
Q 428 3978 793 4289 
Q 1159 4600 1703 4600 
Q 2078 4600 2393 4439 
Q 2709 4278 2876 4000 
Q 3044 3722 3044 3409 
Q 3044 3113 2884 2869 
Q 2725 2625 2413 2481 
Q 2819 2388 3044 2092 
Q 3269 1797 3269 1353 
Q 3269 753 2831 336 
Q 2394 -81 1725 -81 
Q 1122 -81 723 278 
Q 325 638 269 1209 
z
" transform="scale(0.015625)"/>
       </defs>
       <use xlink:href="#ArialMT-33"/>
      </g>
     </g>
    </g>
   </g>
   <g id="line2d_10">
    <path d="M -1 107.88603 
L 18.849434 107.653649 
L 34.969434 107.25206 
L 55.119434 106.535387 
L 67.209434 105.852228 
L 75.269434 105.193702 
L 83.329434 104.28626 
L 87.359434 103.737441 
L 91.389434 103.053709 
L 95.419434 102.253682 
L 99.449434 101.289811 
L 103.479434 100.130589 
L 107.509434 98.745651 
L 111.539434 97.061957 
L 115.569434 95.037685 
L 119.599434 92.572296 
L 123.629434 89.593607 
L 127.659434 86.037741 
L 131.689434 81.836811 
L 135.719434 76.940693 
L 139.749434 71.352821 
L 143.779434 65.19608 
L 155.869434 45.392477 
L 159.899434 39.666255 
L 163.929434 35.256798 
L 167.959434 32.261208 
L 171.989434 30.360679 
L 176.019434 30.767997 
L 180.049434 36.419172 
L 184.079434 48.658753 
L 188.109434 66.453838 
L 192.139434 82.026148 
L 196.169434 92.202502 
L 200.199434 98.262713 
L 204.229434 101.757854 
L 208.259434 103.733431 
L 212.289434 104.863723 
L 216.319434 105.497901 
L 221.484844 105.903985 
L 221.484844 105.903985 
" clip-path="url(#p54fc70b7d0)" style="fill: none; stroke-dasharray: 5.55,2.4; stroke-dashoffset: 0; stroke: #440154; stroke-width: 1.5"/>
   </g>
   <g id="line2d_11">
    <path d="M -1 104.568599 
L 14.730774 103.520319 
L 26.820774 102.486558 
L 34.880774 101.589714 
L 42.940774 100.484628 
L 51.000774 99.09654 
L 59.060774 97.321471 
L 63.090774 96.28685 
L 67.120774 95.092682 
L 71.150774 93.739826 
L 75.180774 92.22599 
L 79.210774 90.481284 
L 83.240774 88.601379 
L 87.270774 86.59859 
L 91.300774 84.426802 
L 95.330774 82.109502 
L 99.360774 79.57279 
L 103.390774 76.635634 
L 107.420774 73.235305 
L 119.510774 61.879104 
L 123.540774 59.416293 
L 127.570774 59.057957 
L 131.600774 62.81605 
L 135.630774 72.171753 
L 139.660774 84.32397 
L 143.690774 94.233075 
L 147.720774 100.168971 
L 151.750774 103.416342 
L 155.780774 105.161048 
L 159.810774 106.18593 
L 163.840774 106.791751 
L 171.900774 107.3188 
L 188.020774 107.773953 
L 221.484844 108.578137 
L 221.484844 108.578137 
" clip-path="url(#p54fc70b7d0)" style="fill: none; stroke-dasharray: 5.55,2.4; stroke-dashoffset: 0; stroke: #31688e; stroke-width: 1.5"/>
   </g>
   <g id="line2d_12">
    <path d="M -1 107.420824 
L 39.015554 106.520206 
L 59.165554 105.751974 
L 71.255554 105.068814 
L 79.315554 104.432917 
L 87.375554 103.599663 
L 91.405554 103.06001 
L 95.435554 102.39461 
L 99.465554 101.583985 
L 103.495554 100.60436 
L 107.525554 99.436831 
L 111.555554 98.032702 
L 115.585554 96.459287 
L 119.615554 94.654142 
L 123.645554 92.610966 
L 127.675554 90.308274 
L 131.705554 87.712555 
L 135.735554 84.785711 
L 139.765554 81.483631 
L 143.795554 77.928338 
L 147.825554 74.001245 
L 151.855554 69.778547 
L 155.885554 65.983217 
L 159.915554 62.846985 
L 163.945554 60.480991 
L 167.975554 58.829951 
L 172.005554 58.347299 
L 176.035554 59.646878 
L 180.065554 62.628145 
L 184.095554 67.165068 
L 188.125554 72.786453 
L 192.155554 78.959522 
L 200.215554 91.665714 
L 204.245554 97.159633 
L 208.275554 101.004803 
L 212.305554 103.465323 
L 216.335554 105.001787 
L 221.484844 106.121695 
L 221.484844 106.121695 
" clip-path="url(#p54fc70b7d0)" style="fill: none; stroke-dasharray: 5.55,2.4; stroke-dashoffset: 0; stroke: #35b779; stroke-width: 1.5"/>
   </g>
   <g id="line2d_13">
    <path d="M -1 107.445756 
L 26.752264 106.816671 
L 42.872264 106.303371 
L 54.962264 105.79494 
L 67.052264 104.996918 
L 75.112264 104.173689 
L 79.142264 103.634323 
L 83.172264 102.966631 
L 87.202264 102.144835 
L 91.232264 101.113364 
L 95.262264 99.78285 
L 99.292264 98.173344 
L 103.322264 96.126157 
L 107.352264 93.653034 
L 111.382264 90.686948 
L 115.412264 87.185506 
L 119.442264 83.231774 
L 123.472264 78.791381 
L 127.502264 73.900991 
L 131.532264 68.666014 
L 135.562264 63.072127 
L 139.592264 57.717991 
L 143.622264 52.968529 
L 147.652264 49.047738 
L 151.682264 46.911182 
L 155.712264 47.410161 
L 159.742264 51.230984 
L 163.772264 58.825654 
L 167.802264 69.855886 
L 171.832264 82.112367 
L 175.862264 92.134043 
L 179.892264 98.826714 
L 183.922264 102.906192 
L 187.952264 105.311715 
L 191.982264 106.69207 
L 196.012264 107.522173 
L 204.072264 108.360296 
L 216.162264 108.995334 
L 221.484844 109.246631 
L 221.484844 109.246631 
" clip-path="url(#p54fc70b7d0)" style="fill: none; stroke-dasharray: 5.55,2.4; stroke-dashoffset: 0; stroke: #fde725; stroke-width: 1.5"/>
   </g>
   <g id="patch_3">
    <path d="M 31.934844 121.776 
L 31.934844 7.2 
" style="fill: none; stroke: #000000; stroke-width: 0.8; stroke-linejoin: miter; stroke-linecap: square"/>
   </g>
   <g id="patch_4">
    <path d="M 213.284844 121.776 
L 213.284844 7.2 
" style="fill: none; stroke: #000000; stroke-width: 0.8; stroke-linejoin: miter; stroke-linecap: square"/>
   </g>
   <g id="patch_5">
    <path d="M 31.934844 121.776 
L 213.284844 121.776 
" style="fill: none; stroke: #000000; stroke-width: 0.8; stroke-linejoin: miter; stroke-linecap: square"/>
   </g>
   <g id="patch_6">
    <path d="M 31.934844 7.2 
L 213.284844 7.2 
" style="fill: none; stroke: #000000; stroke-width: 0.8; stroke-linejoin: miter; stroke-linecap: square"/>
   </g>
   <g id="text_5">
    <!-- 144.8 -->
    <g style="fill: #440154" transform="translate(167.959434 28.928479) scale(0.09 -0.09)">
     <defs>
      <path id="ArialMT-34" d="M 2069 0 
L 2069 1097 
L 81 1097 
L 81 1613 
L 2172 4581 
L 2631 4581 
L 2631 1613 
L 3250 1613 
L 3250 1097 
L 2631 1097 
L 2631 0 
L 2069 0 
z
M 2069 1613 
L 2069 3678 
L 634 1613 
L 2069 1613 
z
" transform="scale(0.015625)"/>
      <path id="ArialMT-2e" d="M 581 0 
L 581 641 
L 1222 641 
L 1222 0 
L 581 0 
z
" transform="scale(0.015625)"/>
      <path id="ArialMT-38" d="M 1131 2484 
Q 781 2613 612 2850 
Q 444 3088 444 3419 
Q 444 3919 803 4259 
Q 1163 4600 1759 4600 
Q 2359 4600 2725 4251 
Q 3091 3903 3091 3403 
Q 3091 3084 2923 2848 
Q 2756 2613 2416 2484 
Q 2838 2347 3058 2040 
Q 3278 1734 3278 1309 
Q 3278 722 2862 322 
Q 2447 -78 1769 -78 
Q 1091 -78 675 323 
Q 259 725 259 1325 
Q 259 1772 486 2073 
Q 713 2375 1131 2484 
z
M 1019 3438 
Q 1019 3113 1228 2906 
Q 1438 2700 1772 2700 
Q 2097 2700 2305 2904 
Q 2513 3109 2513 3406 
Q 2513 3716 2298 3927 
Q 2084 4138 1766 4138 
Q 1444 4138 1231 3931 
Q 1019 3725 1019 3438 
z
M 838 1322 
Q 838 1081 952 856 
Q 1066 631 1291 507 
Q 1516 384 1775 384 
Q 2178 384 2440 643 
Q 2703 903 2703 1303 
Q 2703 1709 2433 1975 
Q 2163 2241 1756 2241 
Q 1359 2241 1098 1978 
Q 838 1716 838 1322 
z
" transform="scale(0.015625)"/>
     </defs>
     <use xlink:href="#ArialMT-31"/>
     <use xlink:href="#ArialMT-34" transform="translate(55.615234 0)"/>
     <use xlink:href="#ArialMT-34" transform="translate(111.230469 0)"/>
     <use xlink:href="#ArialMT-2e" transform="translate(166.845703 0)"/>
     <use xlink:href="#ArialMT-38" transform="translate(194.628906 0)"/>
    </g>
   </g>
   <g id="text_6">
    <!-- 133.7 -->
    <g style="fill: #31688e" transform="translate(123.540774 57.625757) scale(0.09 -0.09)">
     <defs>
      <path id="ArialMT-37" d="M 303 3981 
L 303 4522 
L 3269 4522 
L 3269 4084 
Q 2831 3619 2401 2847 
Q 1972 2075 1738 1259 
Q 1569 684 1522 0 
L 944 0 
Q 953 541 1156 1306 
Q 1359 2072 1739 2783 
Q 2119 3494 2547 3981 
L 303 3981 
z
" transform="scale(0.015625)"/>
     </defs>
     <use xlink:href="#ArialMT-31"/>
     <use xlink:href="#ArialMT-33" transform="translate(55.615234 0)"/>
     <use xlink:href="#ArialMT-33" transform="translate(111.230469 0)"/>
     <use xlink:href="#ArialMT-2e" transform="translate(166.845703 0)"/>
     <use xlink:href="#ArialMT-37" transform="translate(194.628906 0)"/>
    </g>
   </g>
   <g id="text_7">
    <!-- 144.8 -->
    <g style="fill: #35b779" transform="translate(167.975554 56.915099) scale(0.09 -0.09)">
     <use xlink:href="#ArialMT-31"/>
     <use xlink:href="#ArialMT-34" transform="translate(55.615234 0)"/>
     <use xlink:href="#ArialMT-34" transform="translate(111.230469 0)"/>
     <use xlink:href="#ArialMT-2e" transform="translate(166.845703 0)"/>
     <use xlink:href="#ArialMT-38" transform="translate(194.628906 0)"/>
    </g>
   </g>
   <g id="text_8">
    <!-- 139.7 -->
    <g style="fill: #fde725" transform="translate(147.652264 45.478982) scale(0.09 -0.09)">
     <defs>
      <path id="ArialMT-39" d="M 350 1059 
L 891 1109 
Q 959 728 1153 556 
Q 1347 384 1650 384 
Q 1909 384 2104 503 
Q 2300 622 2425 820 
Q 2550 1019 2634 1356 
Q 2719 1694 2719 2044 
Q 2719 2081 2716 2156 
Q 2547 1888 2255 1720 
Q 1963 1553 1622 1553 
Q 1053 1553 659 1965 
Q 266 2378 266 3053 
Q 266 3750 677 4175 
Q 1088 4600 1706 4600 
Q 2153 4600 2523 4359 
Q 2894 4119 3086 3673 
Q 3278 3228 3278 2384 
Q 3278 1506 3087 986 
Q 2897 466 2520 194 
Q 2144 -78 1638 -78 
Q 1100 -78 759 220 
Q 419 519 350 1059 
z
M 2653 3081 
Q 2653 3566 2395 3850 
Q 2138 4134 1775 4134 
Q 1400 4134 1122 3828 
Q 844 3522 844 3034 
Q 844 2597 1108 2323 
Q 1372 2050 1759 2050 
Q 2150 2050 2401 2323 
Q 2653 2597 2653 3081 
z
" transform="scale(0.015625)"/>
     </defs>
     <use xlink:href="#ArialMT-31"/>
     <use xlink:href="#ArialMT-33" transform="translate(55.615234 0)"/>
     <use xlink:href="#ArialMT-39" transform="translate(111.230469 0)"/>
     <use xlink:href="#ArialMT-2e" transform="translate(166.845703 0)"/>
     <use xlink:href="#ArialMT-37" transform="translate(194.628906 0)"/>
    </g>
   </g>
  </g>
  <g id="axes_2">
   <g id="patch_7">
    <path d="M 31.934844 236.352 
L 213.284844 236.352 
L 213.284844 121.776 
L 31.934844 121.776 
L 31.934844 236.352 
z
" style="fill: none"/>
   </g>
   <g id="matplotlib.axis_3">
    <g id="xtick_6">
     <g id="line2d_14">
      <g>
       <use xlink:href="#mf6685044cc" x="31.934844" y="236.352" style="stroke: #000000; stroke-width: 0.8"/>
      </g>
     </g>
    </g>
    <g id="xtick_7">
     <g id="line2d_15">
      <g>
       <use xlink:href="#mf6685044cc" x="72.234844" y="236.352" style="stroke: #000000; stroke-width: 0.8"/>
      </g>
     </g>
    </g>
    <g id="xtick_8">
     <g id="line2d_16">
      <g>
       <use xlink:href="#mf6685044cc" x="112.534844" y="236.352" style="stroke: #000000; stroke-width: 0.8"/>
      </g>
     </g>
    </g>
    <g id="xtick_9">
     <g id="line2d_17">
      <g>
       <use xlink:href="#mf6685044cc" x="152.834844" y="236.352" style="stroke: #000000; stroke-width: 0.8"/>
      </g>
     </g>
    </g>
    <g id="xtick_10">
     <g id="line2d_18">
      <g>
       <use xlink:href="#mf6685044cc" x="193.134844" y="236.352" style="stroke: #000000; stroke-width: 0.8"/>
      </g>
     </g>
    </g>
   </g>
   <g id="matplotlib.axis_4">
    <g id="ytick_5">
     <g id="line2d_19">
      <g>
       <use xlink:href="#m2939392155" x="31.934844" y="236.352" style="stroke: #000000; stroke-width: 0.8"/>
      </g>
     </g>
     <g id="text_9">
      <!-- 0 -->
      <g transform="translate(19.93 239.573016) scale(0.09 -0.09)">
       <use xlink:href="#ArialMT-30"/>
      </g>
     </g>
    </g>
    <g id="ytick_6">
     <g id="line2d_20">
      <g>
       <use xlink:href="#m2939392155" x="31.934844" y="198.16" style="stroke: #000000; stroke-width: 0.8"/>
      </g>
     </g>
     <g id="text_10">
      <!-- 1 -->
      <g transform="translate(19.93 201.381016) scale(0.09 -0.09)">
       <use xlink:href="#ArialMT-31"/>
      </g>
     </g>
    </g>
    <g id="ytick_7">
     <g id="line2d_21">
      <g>
       <use xlink:href="#m2939392155" x="31.934844" y="159.968" style="stroke: #000000; stroke-width: 0.8"/>
      </g>
     </g>
     <g id="text_11">
      <!-- 2 -->
      <g transform="translate(19.93 163.189016) scale(0.09 -0.09)">
       <use xlink:href="#ArialMT-32"/>
      </g>
     </g>
    </g>
    <g id="text_12">
     <!-- $\bf{heat\ flow}\ \it{(mW/mg)}$ -->
     <g transform="translate(14.04 225.324) rotate(-90) scale(0.09 -0.09)">
      <defs>
       <path id="DejaVuSans-Bold-68" d="M 4056 2131 
L 4056 0 
L 2931 0 
L 2931 347 
L 2931 1625 
Q 2931 2084 2911 2256 
Q 2891 2428 2841 2509 
Q 2775 2619 2662 2680 
Q 2550 2741 2406 2741 
Q 2056 2741 1856 2470 
Q 1656 2200 1656 1722 
L 1656 0 
L 538 0 
L 538 4863 
L 1656 4863 
L 1656 2988 
Q 1909 3294 2193 3439 
Q 2478 3584 2822 3584 
Q 3428 3584 3742 3212 
Q 4056 2841 4056 2131 
z
" transform="scale(0.015625)"/>
       <path id="DejaVuSans-Bold-65" d="M 4031 1759 
L 4031 1441 
L 1416 1441 
Q 1456 1047 1700 850 
Q 1944 653 2381 653 
Q 2734 653 3104 758 
Q 3475 863 3866 1075 
L 3866 213 
Q 3469 63 3072 -14 
Q 2675 -91 2278 -91 
Q 1328 -91 801 392 
Q 275 875 275 1747 
Q 275 2603 792 3093 
Q 1309 3584 2216 3584 
Q 3041 3584 3536 3087 
Q 4031 2591 4031 1759 
z
M 2881 2131 
Q 2881 2450 2695 2645 
Q 2509 2841 2209 2841 
Q 1884 2841 1681 2658 
Q 1478 2475 1428 2131 
L 2881 2131 
z
" transform="scale(0.015625)"/>
       <path id="DejaVuSans-Bold-61" d="M 2106 1575 
Q 1756 1575 1579 1456 
Q 1403 1338 1403 1106 
Q 1403 894 1545 773 
Q 1688 653 1941 653 
Q 2256 653 2472 879 
Q 2688 1106 2688 1447 
L 2688 1575 
L 2106 1575 
z
M 3816 1997 
L 3816 0 
L 2688 0 
L 2688 519 
Q 2463 200 2181 54 
Q 1900 -91 1497 -91 
Q 953 -91 614 226 
Q 275 544 275 1050 
Q 275 1666 698 1953 
Q 1122 2241 2028 2241 
L 2688 2241 
L 2688 2328 
Q 2688 2594 2478 2717 
Q 2269 2841 1825 2841 
Q 1466 2841 1156 2769 
Q 847 2697 581 2553 
L 581 3406 
Q 941 3494 1303 3539 
Q 1666 3584 2028 3584 
Q 2975 3584 3395 3211 
Q 3816 2838 3816 1997 
z
" transform="scale(0.015625)"/>
       <path id="DejaVuSans-Bold-74" d="M 1759 4494 
L 1759 3500 
L 2913 3500 
L 2913 2700 
L 1759 2700 
L 1759 1216 
Q 1759 972 1856 886 
Q 1953 800 2241 800 
L 2816 800 
L 2816 0 
L 1856 0 
Q 1194 0 917 276 
Q 641 553 641 1216 
L 641 2700 
L 84 2700 
L 84 3500 
L 641 3500 
L 641 4494 
L 1759 4494 
z
" transform="scale(0.015625)"/>
       <path id="DejaVuSans-Bold-66" d="M 2841 4863 
L 2841 4128 
L 2222 4128 
Q 1984 4128 1890 4042 
Q 1797 3956 1797 3744 
L 1797 3500 
L 2753 3500 
L 2753 2700 
L 1797 2700 
L 1797 0 
L 678 0 
L 678 2700 
L 122 2700 
L 122 3500 
L 678 3500 
L 678 3744 
Q 678 4316 997 4589 
Q 1316 4863 1984 4863 
L 2841 4863 
z
" transform="scale(0.015625)"/>
       <path id="DejaVuSans-Bold-6c" d="M 538 4863 
L 1656 4863 
L 1656 0 
L 538 0 
L 538 4863 
z
" transform="scale(0.015625)"/>
       <path id="DejaVuSans-Bold-6f" d="M 2203 2784 
Q 1831 2784 1636 2517 
Q 1441 2250 1441 1747 
Q 1441 1244 1636 976 
Q 1831 709 2203 709 
Q 2569 709 2762 976 
Q 2956 1244 2956 1747 
Q 2956 2250 2762 2517 
Q 2569 2784 2203 2784 
z
M 2203 3584 
Q 3106 3584 3614 3096 
Q 4122 2609 4122 1747 
Q 4122 884 3614 396 
Q 3106 -91 2203 -91 
Q 1297 -91 786 396 
Q 275 884 275 1747 
Q 275 2609 786 3096 
Q 1297 3584 2203 3584 
z
" transform="scale(0.015625)"/>
       <path id="DejaVuSans-Bold-77" d="M 225 3500 
L 1313 3500 
L 1900 1088 
L 2491 3500 
L 3425 3500 
L 4013 1113 
L 4603 3500 
L 5691 3500 
L 4769 0 
L 3547 0 
L 2956 2406 
L 2369 0 
L 1147 0 
L 225 3500 
z
" transform="scale(0.015625)"/>
       <path id="DejaVuSans-28" d="M 1984 4856 
Q 1566 4138 1362 3434 
Q 1159 2731 1159 2009 
Q 1159 1288 1364 580 
Q 1569 -128 1984 -844 
L 1484 -844 
Q 1016 -109 783 600 
Q 550 1309 550 2009 
Q 550 2706 781 3412 
Q 1013 4119 1484 4856 
L 1984 4856 
z
" transform="scale(0.015625)"/>
       <path id="DejaVuSans-Oblique-6d" d="M 5747 2113 
L 5338 0 
L 4763 0 
L 5166 2094 
Q 5191 2228 5203 2325 
Q 5216 2422 5216 2491 
Q 5216 2772 5059 2928 
Q 4903 3084 4622 3084 
Q 4203 3084 3875 2770 
Q 3547 2456 3450 1953 
L 3066 0 
L 2491 0 
L 2900 2094 
Q 2925 2209 2937 2307 
Q 2950 2406 2950 2484 
Q 2950 2769 2794 2926 
Q 2638 3084 2363 3084 
Q 1938 3084 1609 2770 
Q 1281 2456 1184 1953 
L 800 0 
L 225 0 
L 909 3500 
L 1484 3500 
L 1375 2956 
Q 1609 3263 1923 3423 
Q 2238 3584 2597 3584 
Q 2978 3584 3223 3384 
Q 3469 3184 3519 2828 
Q 3781 3197 4126 3390 
Q 4472 3584 4856 3584 
Q 5306 3584 5551 3325 
Q 5797 3066 5797 2591 
Q 5797 2488 5784 2364 
Q 5772 2241 5747 2113 
z
" transform="scale(0.015625)"/>
       <path id="DejaVuSans-Oblique-57" d="M 616 4666 
L 1228 4666 
L 1453 697 
L 3213 4666 
L 3916 4666 
L 4147 697 
L 5888 4666 
L 6528 4666 
L 4453 0 
L 3659 0 
L 3444 3891 
L 1697 0 
L 903 0 
L 616 4666 
z
" transform="scale(0.015625)"/>
       <path id="DejaVuSans-2f" d="M 1625 4666 
L 2156 4666 
L 531 -594 
L 0 -594 
L 1625 4666 
z
" transform="scale(0.015625)"/>
       <path id="DejaVuSans-Oblique-67" d="M 3816 3500 
L 3219 434 
Q 3047 -456 2561 -893 
Q 2075 -1331 1253 -1331 
Q 950 -1331 690 -1286 
Q 431 -1241 206 -1147 
L 313 -588 
Q 525 -725 762 -790 
Q 1000 -856 1269 -856 
Q 1816 -856 2167 -557 
Q 2519 -259 2631 300 
L 2681 563 
Q 2441 288 2122 144 
Q 1803 0 1434 0 
Q 903 0 598 351 
Q 294 703 294 1319 
Q 294 1803 478 2267 
Q 663 2731 997 3091 
Q 1219 3328 1514 3456 
Q 1809 3584 2131 3584 
Q 2484 3584 2746 3420 
Q 3009 3256 3138 2956 
L 3238 3500 
L 3816 3500 
z
M 2950 2216 
Q 2950 2641 2750 2872 
Q 2550 3103 2181 3103 
Q 1953 3103 1747 3012 
Q 1541 2922 1394 2759 
Q 1156 2491 1023 2127 
Q 891 1763 891 1375 
Q 891 944 1092 712 
Q 1294 481 1672 481 
Q 2219 481 2584 976 
Q 2950 1472 2950 2216 
z
" transform="scale(0.015625)"/>
       <path id="DejaVuSans-29" d="M 513 4856 
L 1013 4856 
Q 1481 4119 1714 3412 
Q 1947 2706 1947 2009 
Q 1947 1309 1714 600 
Q 1481 -109 1013 -844 
L 513 -844 
Q 928 -128 1133 580 
Q 1338 1288 1338 2009 
Q 1338 2731 1133 3434 
Q 928 4138 513 4856 
z
" transform="scale(0.015625)"/>
      </defs>
      <use xlink:href="#DejaVuSans-Bold-68" transform="translate(0 0.015625)"/>
      <use xlink:href="#DejaVuSans-Bold-65" transform="translate(71.191406 0.015625)"/>
      <use xlink:href="#DejaVuSans-Bold-61" transform="translate(139.013672 0.015625)"/>
      <use xlink:href="#DejaVuSans-Bold-74" transform="translate(206.494141 0.015625)"/>
      <use xlink:href="#DejaVuSans-Bold-66" transform="translate(286.767253 0.015625)"/>
      <use xlink:href="#DejaVuSans-Bold-6c" transform="translate(330.273113 0.015625)"/>
      <use xlink:href="#DejaVuSans-Bold-6f" transform="translate(364.550457 0.015625)"/>
      <use xlink:href="#DejaVuSans-Bold-77" transform="translate(433.251628 0.015625)"/>
      <use xlink:href="#DejaVuSans-28" transform="translate(558.104819 0.015625)"/>
      <use xlink:href="#DejaVuSans-Oblique-6d" transform="translate(597.118491 0.015625)"/>
      <use xlink:href="#DejaVuSans-Oblique-57" transform="translate(694.530601 0.015625)"/>
      <use xlink:href="#DejaVuSans-2f" transform="translate(793.407554 0.015625)"/>
      <use xlink:href="#DejaVuSans-Oblique-6d" transform="translate(827.09896 0.015625)"/>
      <use xlink:href="#DejaVuSans-Oblique-67" transform="translate(924.511069 0.015625)"/>
      <use xlink:href="#DejaVuSans-29" transform="translate(987.987632 0.015625)"/>
     </g>
    </g>
   </g>
   <g id="line2d_22">
    <path d="M -1 212.758506 
L 22.879434 210.963486 
L 34.969434 209.789464 
L 43.029434 208.8339 
L 51.089434 207.699216 
L 59.149434 206.36937 
L 67.209434 204.794332 
L 75.269434 202.85036 
L 83.329434 200.57679 
L 91.389434 197.907933 
L 99.449434 194.8182 
L 107.509434 191.251067 
L 111.539434 189.215434 
L 115.569434 186.79788 
L 119.599434 183.860151 
L 127.659434 177.582532 
L 131.689434 174.983567 
L 135.719434 173.208403 
L 139.749434 172.497649 
L 143.779434 173.924503 
L 147.809434 180.89798 
L 151.839434 192.418597 
L 155.869434 201.749666 
L 159.899434 207.71984 
L 163.929434 211.231976 
L 167.959434 213.229799 
L 171.989434 214.402676 
L 176.019434 215.048502 
L 180.049434 215.412854 
L 188.109434 215.665685 
L 200.199434 215.7203 
L 221.484844 215.635023 
L 221.484844 215.635023 
" clip-path="url(#p90a17efabe)" style="fill: none; stroke-dasharray: 9.6,2.4,1.5,2.4; stroke-dashoffset: 0; stroke: #440154; stroke-width: 1.5"/>
   </g>
   <g id="line2d_23">
    <path d="M -1 213.627173 
L 18.760774 211.884677 
L 26.820774 210.94248 
L 34.880774 209.76884 
L 42.940774 208.40615 
L 51.000774 206.71348 
L 59.060774 204.604136 
L 63.090774 203.31783 
L 67.120774 201.890595 
L 71.150774 200.297224 
L 75.180774 198.504492 
L 79.210774 196.489482 
L 83.240774 194.298789 
L 87.270774 191.873215 
L 91.300774 189.207413 
L 95.330774 186.204758 
L 99.360774 182.676963 
L 103.390774 178.517472 
L 107.420774 173.479184 
L 111.450774 167.60831 
L 123.540774 147.835929 
L 127.570774 142.661677 
L 131.600774 139.891611 
L 135.630774 141.603759 
L 139.660774 149.381941 
L 143.690774 160.890337 
L 147.720774 176.564334 
L 151.750774 193.10949 
L 155.780774 203.663849 
L 159.810774 209.500732 
L 163.840774 212.682508 
L 167.870774 214.349971 
L 171.900774 215.200507 
L 175.930774 215.623292 
L 179.960774 215.878033 
L 188.020774 216.036148 
L 216.230774 215.895983 
L 221.484844 215.854172 
L 221.484844 215.854172 
" clip-path="url(#p90a17efabe)" style="fill: none; stroke-dasharray: 9.6,2.4,1.5,2.4; stroke-dashoffset: 0; stroke: #31688e; stroke-width: 1.5"/>
   </g>
   <g id="line2d_24">
    <path d="M -1 215.156241 
L 10.805554 214.391218 
L 18.865554 213.775945 
L 30.955554 212.552273 
L 39.015554 211.5631 
L 47.075554 210.333318 
L 55.135554 208.789979 
L 59.165554 207.847401 
L 63.195554 206.77115 
L 67.225554 205.565047 
L 71.255554 204.194718 
L 75.285554 202.670093 
L 79.315554 200.925483 
L 83.345554 198.916584 
L 87.375554 196.645687 
L 91.405554 194.055888 
L 95.435554 191.097917 
L 99.465554 187.785525 
L 103.495554 184.090449 
L 107.525554 179.90537 
L 111.555554 175.138626 
L 115.585554 169.685572 
L 119.615554 163.457985 
L 127.675554 150.004471 
L 131.705554 144.983751 
L 135.735554 143.517178 
L 139.765554 147.704549 
L 143.795554 159.120901 
L 147.825554 177.358727 
L 151.855554 194.822783 
L 155.885554 205.308015 
L 159.915554 210.888248 
L 163.945554 213.891285 
L 167.975554 215.525902 
L 172.005554 216.39859 
L 176.035554 216.81641 
L 180.065554 217.042507 
L 188.125554 217.17847 
L 221.484844 217.050676 
L 221.484844 217.050676 
" clip-path="url(#p90a17efabe)" style="fill: none; stroke-dasharray: 9.6,2.4,1.5,2.4; stroke-dashoffset: 0; stroke: #35b779; stroke-width: 1.5"/>
   </g>
   <g id="line2d_25">
    <path d="M -1 214.526233 
L 6.602264 213.945517 
L 18.692264 212.812743 
L 26.752264 211.91905 
L 34.812264 210.796587 
L 42.872264 209.417856 
L 50.932264 207.67019 
L 54.962264 206.660012 
L 58.992264 205.473386 
L 63.022264 204.14545 
L 67.052264 202.639922 
L 71.082264 200.912116 
L 75.112264 198.950192 
L 79.142264 196.688462 
L 83.172264 194.201399 
L 87.202264 191.424841 
L 91.232264 188.406145 
L 95.262264 185.03341 
L 99.292264 181.140117 
L 103.322264 176.565861 
L 107.352264 171.208669 
L 111.382264 164.912718 
L 115.412264 157.868586 
L 119.442264 150.506696 
L 123.472264 143.810111 
L 127.502264 139.752211 
L 131.532264 140.547368 
L 135.562264 147.645351 
L 139.592264 161.358571 
L 143.622264 180.030258 
L 147.652264 196.44136 
L 151.682264 206.090187 
L 155.712264 211.269786 
L 159.742264 213.982564 
L 163.772264 215.406743 
L 167.802264 216.122843 
L 171.832264 216.505527 
L 179.892264 216.76676 
L 196.012264 216.781655 
L 221.484844 216.641296 
L 221.484844 216.641296 
" clip-path="url(#p90a17efabe)" style="fill: none; stroke-dasharray: 9.6,2.4,1.5,2.4; stroke-dashoffset: 0; stroke: #fde725; stroke-width: 1.5"/>
   </g>
   <g id="patch_8">
    <path d="M 31.934844 236.352 
L 31.934844 121.776 
" style="fill: none; stroke: #000000; stroke-width: 0.8; stroke-linejoin: miter; stroke-linecap: square"/>
   </g>
   <g id="patch_9">
    <path d="M 213.284844 236.352 
L 213.284844 121.776 
" style="fill: none; stroke: #000000; stroke-width: 0.8; stroke-linejoin: miter; stroke-linecap: square"/>
   </g>
   <g id="patch_10">
    <path d="M 31.934844 236.352 
L 213.284844 236.352 
" style="fill: none; stroke: #000000; stroke-width: 0.8; stroke-linejoin: miter; stroke-linecap: square"/>
   </g>
   <g id="patch_11">
    <path d="M 31.934844 121.776 
L 213.284844 121.776 
" style="fill: none; stroke: #000000; stroke-width: 0.8; stroke-linejoin: miter; stroke-linecap: square"/>
   </g>
   <g id="text_13">
    <!-- 136.8 -->
    <g style="fill: #440154" transform="translate(135.719434 170.588049) scale(0.09 -0.09)">
     <defs>
      <path id="ArialMT-36" d="M 3184 3459 
L 2625 3416 
Q 2550 3747 2413 3897 
Q 2184 4138 1850 4138 
Q 1581 4138 1378 3988 
Q 1113 3794 959 3422 
Q 806 3050 800 2363 
Q 1003 2672 1297 2822 
Q 1591 2972 1913 2972 
Q 2475 2972 2870 2558 
Q 3266 2144 3266 1488 
Q 3266 1056 3080 686 
Q 2894 316 2569 119 
Q 2244 -78 1831 -78 
Q 1128 -78 684 439 
Q 241 956 241 2144 
Q 241 3472 731 4075 
Q 1159 4600 1884 4600 
Q 2425 4600 2770 4297 
Q 3116 3994 3184 3459 
z
M 888 1484 
Q 888 1194 1011 928 
Q 1134 663 1356 523 
Q 1578 384 1822 384 
Q 2178 384 2434 671 
Q 2691 959 2691 1453 
Q 2691 1928 2437 2201 
Q 2184 2475 1800 2475 
Q 1419 2475 1153 2201 
Q 888 1928 888 1484 
z
" transform="scale(0.015625)"/>
     </defs>
     <use xlink:href="#ArialMT-31"/>
     <use xlink:href="#ArialMT-33" transform="translate(55.615234 0)"/>
     <use xlink:href="#ArialMT-36" transform="translate(111.230469 0)"/>
     <use xlink:href="#ArialMT-2e" transform="translate(166.845703 0)"/>
     <use xlink:href="#ArialMT-38" transform="translate(194.628906 0)"/>
    </g>
   </g>
   <g id="text_14">
    <!-- 134.7 -->
    <g style="fill: #31688e" transform="translate(127.570774 137.982011) scale(0.09 -0.09)">
     <use xlink:href="#ArialMT-31"/>
     <use xlink:href="#ArialMT-33" transform="translate(55.615234 0)"/>
     <use xlink:href="#ArialMT-34" transform="translate(111.230469 0)"/>
     <use xlink:href="#ArialMT-2e" transform="translate(166.845703 0)"/>
     <use xlink:href="#ArialMT-37" transform="translate(194.628906 0)"/>
    </g>
   </g>
   <g id="text_15">
    <!-- 135.8 -->
    <g style="fill: #35b779" transform="translate(131.705554 141.607578) scale(0.09 -0.09)">
     <defs>
      <path id="ArialMT-35" d="M 266 1200 
L 856 1250 
Q 922 819 1161 601 
Q 1400 384 1738 384 
Q 2144 384 2425 690 
Q 2706 997 2706 1503 
Q 2706 1984 2436 2262 
Q 2166 2541 1728 2541 
Q 1456 2541 1237 2417 
Q 1019 2294 894 2097 
L 366 2166 
L 809 4519 
L 3088 4519 
L 3088 3981 
L 1259 3981 
L 1013 2750 
Q 1425 3038 1878 3038 
Q 2478 3038 2890 2622 
Q 3303 2206 3303 1553 
Q 3303 931 2941 478 
Q 2500 -78 1738 -78 
Q 1113 -78 717 272 
Q 322 622 266 1200 
z
" transform="scale(0.015625)"/>
     </defs>
     <use xlink:href="#ArialMT-31"/>
     <use xlink:href="#ArialMT-33" transform="translate(55.615234 0)"/>
     <use xlink:href="#ArialMT-35" transform="translate(111.230469 0)"/>
     <use xlink:href="#ArialMT-2e" transform="translate(166.845703 0)"/>
     <use xlink:href="#ArialMT-38" transform="translate(194.628906 0)"/>
    </g>
   </g>
   <g id="text_16">
    <!-- 133.7 -->
    <g style="fill: #fde725" transform="translate(123.472264 137.842611) scale(0.09 -0.09)">
     <use xlink:href="#ArialMT-31"/>
     <use xlink:href="#ArialMT-33" transform="translate(55.615234 0)"/>
     <use xlink:href="#ArialMT-33" transform="translate(111.230469 0)"/>
     <use xlink:href="#ArialMT-2e" transform="translate(166.845703 0)"/>
     <use xlink:href="#ArialMT-37" transform="translate(194.628906 0)"/>
    </g>
   </g>
  </g>
  <g id="axes_3">
   <g id="patch_12">
    <path d="M 31.934844 350.928 
L 213.284844 350.928 
L 213.284844 236.352 
L 31.934844 236.352 
L 31.934844 350.928 
z
" style="fill: none"/>
   </g>
   <g id="matplotlib.axis_5">
    <g id="xtick_11">
     <g id="line2d_26">
      <g>
       <use xlink:href="#mf6685044cc" x="31.934844" y="350.928" style="stroke: #000000; stroke-width: 0.8"/>
      </g>
     </g>
     <g id="text_17">
      <!-- 110 -->
      <g transform="translate(24.759453 364.370031) scale(0.09 -0.09)">
       <use xlink:href="#ArialMT-31"/>
       <use xlink:href="#ArialMT-31" transform="translate(48.240234 0)"/>
       <use xlink:href="#ArialMT-30" transform="translate(103.855469 0)"/>
      </g>
     </g>
    </g>
    <g id="xtick_12">
     <g id="line2d_27">
      <g>
       <use xlink:href="#mf6685044cc" x="72.234844" y="350.928" style="stroke: #000000; stroke-width: 0.8"/>
      </g>
     </g>
     <g id="text_18">
      <!-- 120 -->
      <g transform="translate(64.727578 364.370031) scale(0.09 -0.09)">
       <use xlink:href="#ArialMT-31"/>
       <use xlink:href="#ArialMT-32" transform="translate(55.615234 0)"/>
       <use xlink:href="#ArialMT-30" transform="translate(111.230469 0)"/>
      </g>
     </g>
    </g>
    <g id="xtick_13">
     <g id="line2d_28">
      <g>
       <use xlink:href="#mf6685044cc" x="112.534844" y="350.928" style="stroke: #000000; stroke-width: 0.8"/>
      </g>
     </g>
     <g id="text_19">
      <!-- 130 -->
      <g transform="translate(105.027578 364.370031) scale(0.09 -0.09)">
       <use xlink:href="#ArialMT-31"/>
       <use xlink:href="#ArialMT-33" transform="translate(55.615234 0)"/>
       <use xlink:href="#ArialMT-30" transform="translate(111.230469 0)"/>
      </g>
     </g>
    </g>
    <g id="xtick_14">
     <g id="line2d_29">
      <g>
       <use xlink:href="#mf6685044cc" x="152.834844" y="350.928" style="stroke: #000000; stroke-width: 0.8"/>
      </g>
     </g>
     <g id="text_20">
      <!-- 140 -->
      <g transform="translate(145.327578 364.370031) scale(0.09 -0.09)">
       <use xlink:href="#ArialMT-31"/>
       <use xlink:href="#ArialMT-34" transform="translate(55.615234 0)"/>
       <use xlink:href="#ArialMT-30" transform="translate(111.230469 0)"/>
      </g>
     </g>
    </g>
    <g id="xtick_15">
     <g id="line2d_30">
      <g>
       <use xlink:href="#mf6685044cc" x="193.134844" y="350.928" style="stroke: #000000; stroke-width: 0.8"/>
      </g>
     </g>
     <g id="text_21">
      <!-- 150 -->
      <g transform="translate(185.627578 364.370031) scale(0.09 -0.09)">
       <use xlink:href="#ArialMT-31"/>
       <use xlink:href="#ArialMT-35" transform="translate(55.615234 0)"/>
       <use xlink:href="#ArialMT-30" transform="translate(111.230469 0)"/>
      </g>
     </g>
    </g>
    <g id="text_22">
     <!-- $\bf{Temperature}\ \it{(^{\circ}C)}$ -->
     <g transform="translate(79.364844 376.998781) scale(0.09 -0.09)">
      <defs>
       <path id="DejaVuSans-Bold-54" d="M 31 4666 
L 4331 4666 
L 4331 3756 
L 2784 3756 
L 2784 0 
L 1581 0 
L 1581 3756 
L 31 3756 
L 31 4666 
z
" transform="scale(0.015625)"/>
       <path id="DejaVuSans-Bold-6d" d="M 3781 2919 
Q 3994 3244 4286 3414 
Q 4578 3584 4928 3584 
Q 5531 3584 5847 3212 
Q 6163 2841 6163 2131 
L 6163 0 
L 5038 0 
L 5038 1825 
Q 5041 1866 5042 1909 
Q 5044 1953 5044 2034 
Q 5044 2406 4934 2573 
Q 4825 2741 4581 2741 
Q 4263 2741 4089 2478 
Q 3916 2216 3909 1719 
L 3909 0 
L 2784 0 
L 2784 1825 
Q 2784 2406 2684 2573 
Q 2584 2741 2328 2741 
Q 2006 2741 1831 2477 
Q 1656 2213 1656 1722 
L 1656 0 
L 531 0 
L 531 3500 
L 1656 3500 
L 1656 2988 
Q 1863 3284 2130 3434 
Q 2397 3584 2719 3584 
Q 3081 3584 3359 3409 
Q 3638 3234 3781 2919 
z
" transform="scale(0.015625)"/>
       <path id="DejaVuSans-Bold-70" d="M 1656 506 
L 1656 -1331 
L 538 -1331 
L 538 3500 
L 1656 3500 
L 1656 2988 
Q 1888 3294 2169 3439 
Q 2450 3584 2816 3584 
Q 3463 3584 3878 3070 
Q 4294 2556 4294 1747 
Q 4294 938 3878 423 
Q 3463 -91 2816 -91 
Q 2450 -91 2169 54 
Q 1888 200 1656 506 
z
M 2400 2772 
Q 2041 2772 1848 2508 
Q 1656 2244 1656 1747 
Q 1656 1250 1848 986 
Q 2041 722 2400 722 
Q 2759 722 2948 984 
Q 3138 1247 3138 1747 
Q 3138 2247 2948 2509 
Q 2759 2772 2400 2772 
z
" transform="scale(0.015625)"/>
       <path id="DejaVuSans-Bold-72" d="M 3138 2547 
Q 2991 2616 2845 2648 
Q 2700 2681 2553 2681 
Q 2122 2681 1889 2404 
Q 1656 2128 1656 1613 
L 1656 0 
L 538 0 
L 538 3500 
L 1656 3500 
L 1656 2925 
Q 1872 3269 2151 3426 
Q 2431 3584 2822 3584 
Q 2878 3584 2943 3579 
Q 3009 3575 3134 3559 
L 3138 2547 
z
" transform="scale(0.015625)"/>
       <path id="DejaVuSans-Bold-75" d="M 500 1363 
L 500 3500 
L 1625 3500 
L 1625 3150 
Q 1625 2866 1622 2436 
Q 1619 2006 1619 1863 
Q 1619 1441 1641 1255 
Q 1663 1069 1716 984 
Q 1784 875 1895 815 
Q 2006 756 2150 756 
Q 2500 756 2700 1025 
Q 2900 1294 2900 1772 
L 2900 3500 
L 4019 3500 
L 4019 0 
L 2900 0 
L 2900 506 
Q 2647 200 2364 54 
Q 2081 -91 1741 -91 
Q 1134 -91 817 281 
Q 500 653 500 1363 
z
" transform="scale(0.015625)"/>
       <path id="DejaVuSans-2218" d="M 2000 2619 
Q 1750 2619 1578 2445 
Q 1406 2272 1406 2022 
Q 1406 1775 1578 1605 
Q 1750 1435 2000 1435 
Q 2250 1435 2422 1605 
Q 2594 1775 2594 2022 
Q 2594 2269 2420 2444 
Q 2247 2619 2000 2619 
z
M 2000 3022 
Q 2200 3022 2384 2945 
Q 2569 2869 2703 2725 
Q 2847 2585 2919 2406 
Q 2991 2228 2991 2022 
Q 2991 1610 2702 1324 
Q 2413 1038 1994 1038 
Q 1572 1038 1290 1319 
Q 1009 1600 1009 2022 
Q 1009 2441 1296 2731 
Q 1584 3022 2000 3022 
z
" transform="scale(0.015625)"/>
       <path id="DejaVuSans-Oblique-43" d="M 4447 4306 
L 4319 3641 
Q 4019 3944 3683 4091 
Q 3347 4238 2956 4238 
Q 2422 4238 2017 3981 
Q 1613 3725 1319 3200 
Q 1131 2863 1032 2486 
Q 934 2109 934 1728 
Q 934 1091 1264 756 
Q 1594 422 2222 422 
Q 2656 422 3056 561 
Q 3456 700 3834 978 
L 3688 231 
Q 3316 72 2936 -9 
Q 2556 -91 2175 -91 
Q 1278 -91 773 396 
Q 269 884 269 1753 
Q 269 2309 461 2846 
Q 653 3384 1013 3828 
Q 1394 4300 1883 4525 
Q 2372 4750 3022 4750 
Q 3422 4750 3780 4639 
Q 4138 4528 4447 4306 
z
" transform="scale(0.015625)"/>
      </defs>
      <use xlink:href="#DejaVuSans-Bold-54" transform="translate(0 0.125)"/>
      <use xlink:href="#DejaVuSans-Bold-65" transform="translate(68.212891 0.125)"/>
      <use xlink:href="#DejaVuSans-Bold-6d" transform="translate(136.035156 0.125)"/>
      <use xlink:href="#DejaVuSans-Bold-70" transform="translate(240.234375 0.125)"/>
      <use xlink:href="#DejaVuSans-Bold-65" transform="translate(311.816406 0.125)"/>
      <use xlink:href="#DejaVuSans-Bold-72" transform="translate(379.638672 0.125)"/>
      <use xlink:href="#DejaVuSans-Bold-61" transform="translate(428.955078 0.125)"/>
      <use xlink:href="#DejaVuSans-Bold-74" transform="translate(496.435547 0.125)"/>
      <use xlink:href="#DejaVuSans-Bold-75" transform="translate(544.238281 0.125)"/>
      <use xlink:href="#DejaVuSans-Bold-72" transform="translate(615.429688 0.125)"/>
      <use xlink:href="#DejaVuSans-Bold-65" transform="translate(664.746094 0.125)"/>
      <use xlink:href="#DejaVuSans-28" transform="translate(765.038738 0.125)"/>
      <use xlink:href="#DejaVuSans-2218" transform="translate(805.009441 38.40625) scale(0.7)"/>
      <use xlink:href="#DejaVuSans-Oblique-43" transform="translate(851.562175 0.125)"/>
      <use xlink:href="#DejaVuSans-29" transform="translate(921.386394 0.125)"/>
     </g>
    </g>
   </g>
   <g id="matplotlib.axis_6">
    <g id="ytick_8">
     <g id="line2d_31">
      <g>
       <use xlink:href="#m2939392155" x="31.934844" y="350.928" style="stroke: #000000; stroke-width: 0.8"/>
      </g>
     </g>
     <g id="text_23">
      <!-- 0 -->
      <g transform="translate(19.93 354.149016) scale(0.09 -0.09)">
       <use xlink:href="#ArialMT-30"/>
      </g>
     </g>
    </g>
    <g id="ytick_9">
     <g id="line2d_32">
      <g>
       <use xlink:href="#m2939392155" x="31.934844" y="262.792615" style="stroke: #000000; stroke-width: 0.8"/>
      </g>
     </g>
     <g id="text_24">
      <!-- 1 -->
      <g transform="translate(19.93 266.013631) scale(0.09 -0.09)">
       <use xlink:href="#ArialMT-31"/>
      </g>
     </g>
    </g>
    <g id="text_25">
     <!-- $\bf{norm.\ heat\ flow}\ \it{(-)}$ -->
     <g transform="translate(14.14125 343.32) rotate(-90) scale(0.09 -0.09)">
      <defs>
       <path id="DejaVuSans-Bold-6e" d="M 4056 2131 
L 4056 0 
L 2931 0 
L 2931 347 
L 2931 1631 
Q 2931 2084 2911 2256 
Q 2891 2428 2841 2509 
Q 2775 2619 2662 2680 
Q 2550 2741 2406 2741 
Q 2056 2741 1856 2470 
Q 1656 2200 1656 1722 
L 1656 0 
L 538 0 
L 538 3500 
L 1656 3500 
L 1656 2988 
Q 1909 3294 2193 3439 
Q 2478 3584 2822 3584 
Q 3428 3584 3742 3212 
Q 4056 2841 4056 2131 
z
" transform="scale(0.015625)"/>
       <path id="DejaVuSans-Bold-2e" d="M 653 1209 
L 1778 1209 
L 1778 0 
L 653 0 
L 653 1209 
z
" transform="scale(0.015625)"/>
       <path id="DejaVuSans-2212" d="M 678 2272 
L 4684 2272 
L 4684 1741 
L 678 1741 
L 678 2272 
z
" transform="scale(0.015625)"/>
      </defs>
      <use xlink:href="#DejaVuSans-Bold-6e" transform="translate(0 0.015625)"/>
      <use xlink:href="#DejaVuSans-Bold-6f" transform="translate(71.191406 0.015625)"/>
      <use xlink:href="#DejaVuSans-Bold-72" transform="translate(139.892578 0.015625)"/>
      <use xlink:href="#DejaVuSans-Bold-6d" transform="translate(189.208984 0.015625)"/>
      <use xlink:href="#DejaVuSans-Bold-2e" transform="translate(293.408203 0.015625)"/>
      <use xlink:href="#DejaVuSans-Bold-68" transform="translate(383.349285 0.015625)"/>
      <use xlink:href="#DejaVuSans-Bold-65" transform="translate(454.540691 0.015625)"/>
      <use xlink:href="#DejaVuSans-Bold-61" transform="translate(522.362957 0.015625)"/>
      <use xlink:href="#DejaVuSans-Bold-74" transform="translate(589.843425 0.015625)"/>
      <use xlink:href="#DejaVuSans-Bold-66" transform="translate(670.116538 0.015625)"/>
      <use xlink:href="#DejaVuSans-Bold-6c" transform="translate(713.622397 0.015625)"/>
      <use xlink:href="#DejaVuSans-Bold-6f" transform="translate(747.899741 0.015625)"/>
      <use xlink:href="#DejaVuSans-Bold-77" transform="translate(816.600913 0.015625)"/>
      <use xlink:href="#DejaVuSans-28" transform="translate(941.454104 0.015625)"/>
      <use xlink:href="#DejaVuSans-2212" transform="translate(980.467776 0.015625)"/>
      <use xlink:href="#DejaVuSans-29" transform="translate(1064.256838 0.015625)"/>
     </g>
    </g>
   </g>
   <g id="line2d_33">
    <path d="M 31.874394 350.923239 
L 34.859657 350.845701 
L 35.456741 350.906235 
L 35.954285 350.872907 
L 36.252787 350.856584 
L 45.407658 350.4927 
L 45.805701 350.467194 
L 48.29342 350.508343 
L 48.591962 350.511744 
L 48.990005 350.548132 
L 49.68655 350.395437 
L 50.084594 350.328102 
L 52.970356 350.126435 
L 54.363486 350.087666 
L 54.960571 350.10331 
L 55.259073 350.134937 
L 55.756617 350.112152 
L 59.637507 349.876478 
L 60.03551 349.881239 
L 63.319315 349.749288 
L 63.717358 349.67005 
L 64.115401 349.592852 
L 64.513444 349.545582 
L 65.707574 349.552383 
L 66.50362 349.497971 
L 67.100704 349.419753 
L 68.593336 349.389145 
L 69.488923 349.254815 
L 70.185468 349.23509 
L 70.683012 349.162313 
L 71.081055 349.14633 
L 71.578599 349.169115 
L 72.076142 349.111642 
L 73.07123 349.049067 
L 73.469273 349.005537 
L 74.165859 348.987513 
L 74.464361 348.998055 
L 76.056533 348.985472 
L 76.852619 348.75864 
L 78.444751 348.502561 
L 88.992752 347.310927 
L 89.490296 347.162993 
L 90.286342 347.018119 
L 96.953494 345.739085 
L 97.451037 345.54728 
L 98.048082 345.364658 
L 99.441213 344.859642 
L 100.535801 344.524325 
L 102.625517 343.972037 
L 102.924059 343.821043 
L 103.919147 343.487086 
L 104.516192 343.301403 
L 106.008823 342.695383 
L 107.401954 341.960814 
L 109.690671 340.644711 
L 111.282844 339.653723 
L 112.07889 339.080691 
L 112.974476 338.355304 
L 113.770563 337.926125 
L 114.865151 337.109256 
L 115.760738 336.001281 
L 118.945042 331.605769 
L 121.134259 328.289665 
L 124.517565 321.705408 
L 126.109697 317.692483 
L 130.38863 304.417525 
L 131.184676 301.596915 
L 131.881262 298.951446 
L 133.274392 293.091556 
L 134.368981 288.541988 
L 135.861612 282.176061 
L 137.254743 276.236593 
L 138.448872 271.486718 
L 140.140545 265.833596 
L 141.036132 263.796187 
L 141.533676 263.141196 
L 142.03122 262.792615 
L 142.429263 262.894639 
L 142.827266 263.352044 
L 143.523851 265.177925 
L 144.021395 267.512903 
L 144.618439 271.586361 
L 145.215524 277.594525 
L 145.713068 284.728349 
L 146.210612 294.58688 
L 146.807656 310.859629 
L 147.603743 333.040899 
L 148.101286 340.456308 
L 148.59883 344.347824 
L 148.996873 346.226757 
L 149.693418 347.878177 
L 150.887548 348.748438 
L 151.783135 348.785846 
L 152.877723 348.740616 
L 153.176265 348.688924 
L 155.166441 348.731774 
L 156.261029 348.742657 
L 156.957614 348.829036 
L 167.704617 349.043626 
L 168.898706 349.075933 
L 172.779596 349.036484 
L 173.177639 349.10586 
L 178.451619 349.340174 
L 181.337381 349.345615 
L 181.635924 349.400028 
L 182.830013 349.482327 
L 183.924641 349.399348 
L 184.621187 349.290183 
L 185.815316 348.952485 
L 186.014317 348.934121 
L 186.31286 348.823935 
L 187.208447 348.786187 
L 187.904992 348.753539 
L 188.601577 348.734495 
L 189.994708 348.676681 
L 191.288338 348.71477 
L 191.984883 348.702187 
L 199.249079 348.586561 
L 201.239254 348.529427 
L 201.637297 348.505282 
L 203.926015 348.566156 
L 204.62256 348.609346 
L 205.617648 348.523306 
L 206.214733 348.517525 
L 207.309321 348.480456 
L 207.806865 348.388295 
L 210.792168 348.406659 
L 211.09067 348.392036 
L 212.682842 348.331502 
L 213.379388 348.361769 
L 213.379388 348.361769 
" clip-path="url(#pd7a17d5834)" style="fill: none; stroke: #440154; stroke-width: 1.5; stroke-linecap: square"/>
   </g>
   <g id="line2d_34">
    <path d="M -1 356.962909 
L -0.212507 357.002505 
L 1.802493 356.416639 
L 7.847493 355.619333 
L 9.862493 355.531233 
L 13.892493 354.289021 
L 15.907493 354.363906 
L 17.922493 353.79566 
L 19.937493 353.447664 
L 21.952493 352.738458 
L 23.967493 352.725243 
L 27.997493 351.866267 
L 30.012493 351.143845 
L 32.027493 350.928 
L 36.057493 349.743053 
L 38.072493 349.060277 
L 40.087493 348.901697 
L 42.102493 348.011885 
L 46.132493 347.095644 
L 48.147493 346.197022 
L 50.162493 345.479006 
L 52.177493 344.333704 
L 54.192493 343.963684 
L 56.207493 342.620156 
L 60.237493 341.263414 
L 62.252493 339.514626 
L 66.282493 337.409033 
L 68.297493 336.677802 
L 70.312493 334.250643 
L 72.327493 332.114214 
L 76.357493 329.510855 
L 78.372493 326.572715 
L 80.387493 324.396641 
L 84.417493 319.031343 
L 86.432493 315.652702 
L 88.447493 313.344478 
L 90.462493 308.670766 
L 92.477493 305.930851 
L 94.492493 301.741689 
L 96.507493 298.565679 
L 98.522493 292.477959 
L 104.567493 277.377594 
L 106.582493 271.554175 
L 108.597493 266.492821 
L 110.612493 263.250736 
L 112.627493 262.792615 
L 114.642493 264.360798 
L 116.657493 269.884677 
L 118.672493 277.183774 
L 120.687493 281.544731 
L 122.702493 288.500238 
L 124.717493 306.102646 
L 126.732493 332.94676 
L 128.747493 348.447981 
L 130.762493 350.7518 
L 134.792493 351.038125 
L 136.807493 350.958835 
L 138.822493 350.456664 
L 140.837493 350.232009 
L 142.852493 350.249629 
L 144.867493 349.976518 
L 146.882493 350.007353 
L 148.897493 349.527208 
L 154.942493 349.161592 
L 156.957493 349.262907 
L 158.972493 348.932532 
L 160.987493 348.989797 
L 163.002493 348.685851 
L 165.017493 348.721091 
L 169.047493 348.188086 
L 171.062493 348.152845 
L 173.077493 347.95462 
L 177.107493 347.85771 
L 179.122493 347.575789 
L 181.137493 347.443639 
L 183.152493 347.082429 
L 185.167493 347.174934 
L 187.182493 347.108859 
L 189.197493 346.756458 
L 191.212493 346.928253 
L 193.227493 346.434893 
L 195.242493 346.412868 
L 197.257493 346.567043 
L 199.272493 345.857837 
L 201.287493 345.932722 
L 205.317493 345.545081 
L 207.332493 345.699256 
L 209.347493 345.386501 
L 211.362493 345.333641 
L 213.377493 344.92838 
L 215.392493 344.703725 
L 217.407493 344.888735 
L 219.422493 344.166314 
L 221.484844 344.523695 
L 221.484844 344.523695 
" clip-path="url(#pd7a17d5834)" style="fill: none; stroke: #31688e; stroke-width: 1.5; stroke-linecap: square"/>
   </g>
   <g id="line2d_35">
    <path d="M 31.834819 350.928 
L 32.338489 350.87299 
L 32.539827 350.693482 
L 32.942747 350.62689 
L 33.043537 350.583461 
L 33.144368 350.679005 
L 33.44694 350.566089 
L 36.073613 350.545822 
L 36.174404 350.360524 
L 36.376065 350.629786 
L 37.992458 350.560299 
L 38.295272 350.464754 
L 38.496933 350.438697 
L 38.698393 350.224446 
L 39.100748 350.183912 
L 39.201256 350.050729 
L 39.402152 350.175226 
L 39.603208 350.094158 
L 39.804346 350.16654 
L 40.005684 350.195493 
L 40.106394 350.262084 
L 40.408684 350.163645 
L 40.610426 350.120215 
L 40.9132 350.143378 
L 41.822811 349.654074 
L 42.22702 349.604855 
L 43.945372 350.204179 
L 44.147477 350.065205 
L 46.451952 349.41087 
L 46.652243 349.520891 
L 46.953284 349.529577 
L 47.254929 349.448509 
L 48.363904 349.329802 
L 48.767025 349.564321 
L 49.873905 349.795943 
L 50.17547 349.639598 
L 50.778479 349.471671 
L 51.482157 348.912881 
L 51.582706 349.002635 
L 51.784004 348.788384 
L 52.085932 348.663887 
L 52.892295 348.646515 
L 54.002922 348.831813 
L 54.103954 348.759431 
L 54.306099 348.872347 
L 54.508325 348.843394 
L 54.609437 348.878138 
L 54.811542 348.750745 
L 55.820734 348.591505 
L 56.022234 348.452531 
L 56.223654 348.449636 
L 57.129396 348.658096 
L 57.330574 348.634934 
L 57.431163 348.565447 
L 57.63234 348.727583 
L 57.934066 348.585714 
L 58.135365 348.54518 
L 58.63851 348.467007 
L 59.040986 348.163002 
L 59.947333 347.934275 
L 60.249986 347.827149 
L 60.451889 347.925589 
L 60.653873 347.798196 
L 62.068887 348.024029 
L 62.472612 347.870579 
L 62.976684 347.763453 
L 63.178225 347.711338 
L 63.782926 347.534725 
L 64.085539 347.317579 
L 64.287361 347.204663 
L 64.388273 347.146757 
L 64.489264 347.262569 
L 64.691127 347.161234 
L 64.89303 347.109118 
L 65.094933 347.083061 
L 65.296796 347.106223 
L 65.397707 347.097537 
L 65.599449 347.201768 
L 67.013052 347.314684 
L 67.417341 347.239406 
L 69.13126 346.645873 
L 69.634688 346.758789 
L 70.037567 346.961459 
L 72.152471 346.017596 
L 72.754915 346.072606 
L 73.156827 346.171046 
L 73.257335 346.116036 
L 73.458473 346.173941 
L 74.56503 346.006015 
L 74.866152 345.884413 
L 75.166951 345.887308 
L 76.46856 345.65279 
L 76.869827 345.623837 
L 77.070602 345.568827 
L 77.371925 345.479073 
L 77.975135 345.235869 
L 78.377289 345.244555 
L 78.779362 345.151906 
L 78.980459 345.163487 
L 79.181637 345.085314 
L 79.382855 345.108476 
L 79.584113 345.018722 
L 79.684742 345.146115 
L 79.785452 345.004246 
L 80.0875 345.091105 
L 80.38971 344.923178 
L 80.59117 344.882644 
L 81.698372 344.393341 
L 81.899509 344.315168 
L 82.100727 344.251472 
L 82.201356 344.303587 
L 82.402695 344.263053 
L 83.612098 344.040116 
L 84.116976 343.805598 
L 84.31892 343.854818 
L 84.520742 343.741901 
L 84.621653 343.77954 
L 84.823395 343.739006 
L 84.924266 343.666624 
L 85.025137 343.736111 
L 85.126048 343.637671 
L 85.226959 343.710053 
L 85.428741 343.643462 
L 85.731314 343.617404 
L 86.134838 343.495802 
L 87.24474 343.238122 
L 87.547312 342.954384 
L 88.353393 342.627217 
L 88.454103 342.696703 
L 88.655603 342.569311 
L 88.857062 342.517196 
L 89.058482 342.554834 
L 89.36045 342.300049 
L 89.863434 342.268201 
L 90.165039 341.981568 
L 90.265628 342.077112 
L 90.466806 341.99894 
L 90.869322 341.906291 
L 91.0705 341.842594 
L 91.372226 341.709411 
L 92.076468 341.506741 
L 92.378638 341.370663 
L 92.883032 341.422778 
L 94.500271 341.014543 
L 95.410487 340.17491 
L 95.5116 340.189386 
L 95.814777 339.920125 
L 96.016922 339.908544 
L 97.027646 339.066015 
L 97.22979 339.011005 
L 98.038611 338.495644 
L 98.240796 338.460901 
L 98.543933 338.206116 
L 99.250674 338.180058 
L 99.452497 338.090304 
L 100.561754 337.794985 
L 100.763093 337.716812 
L 101.165287 337.635744 
L 101.767651 337.163813 
L 101.867958 337.256462 
L 102.168757 337.097221 
L 102.469475 336.952457 
L 102.970807 336.547117 
L 103.171542 336.431306 
L 103.472663 336.176521 
L 103.673438 335.985432 
L 104.175616 335.551139 
L 104.577286 335.168961 
L 105.279997 334.610171 
L 106.084708 334.080334 
L 106.487909 333.7329 
L 106.68953 333.651832 
L 106.992183 333.365198 
L 107.294917 333.113309 
L 107.496739 332.852733 
L 107.6984 332.707969 
L 108.000892 332.398173 
L 108.303223 332.21577 
L 108.605352 331.885708 
L 108.806731 331.845174 
L 109.108981 331.683038 
L 109.310521 331.709095 
L 109.411271 331.460101 
L 109.512062 331.518006 
L 109.915263 331.09819 
L 110.520247 330.348311 
L 110.822698 330.018248 
L 111.426513 329.230731 
L 111.72832 328.990422 
L 113.947923 326.833434 
L 114.65414 325.999592 
L 116.165148 324.638808 
L 116.467519 324.210306 
L 116.971833 323.33593 
L 117.778075 322.128596 
L 118.180995 321.729046 
L 118.281704 321.448203 
L 118.382414 321.488737 
L 119.693494 319.93976 
L 122.314203 316.129564 
L 122.916607 315.310198 
L 123.117382 314.890382 
L 123.318197 314.571901 
L 123.519092 314.241838 
L 123.720068 313.833603 
L 123.920964 313.45432 
L 124.825497 311.821379 
L 125.127304 311.363924 
L 126.135892 309.79468 
L 126.843077 309.206937 
L 127.549858 307.915639 
L 129.161012 304.096758 
L 129.764746 302.417492 
L 130.471326 300.651368 
L 132.09058 297.37101 
L 132.191733 297.318894 
L 132.697135 296.233162 
L 132.899159 296.013121 
L 133.704796 294.342541 
L 136.306484 287.422809 
L 136.608129 286.739521 
L 137.212952 285.297669 
L 137.919451 283.687891 
L 138.524797 282.830886 
L 138.726579 282.590577 
L 139.533547 280.291721 
L 139.93703 279.000423 
L 141.247103 274.631438 
L 142.155303 271.92145 
L 143.977952 268.085197 
L 144.983517 266.637554 
L 145.986181 265.352048 
L 147.896038 262.876579 
L 148.299522 262.879474 
L 149.209214 263.336929 
L 149.41156 263.226908 
L 149.613866 263.264547 
L 149.715019 263.368777 
L 149.917366 263.336929 
L 150.321857 263.252966 
L 151.431396 263.75385 
L 151.632856 263.994159 
L 151.834477 264.10418 
L 152.844274 265.861618 
L 153.653458 268.012815 
L 154.158497 269.648651 
L 159.996396 290.853722 
L 161.104807 294.388866 
L 161.809009 296.638502 
L 163.622348 302.313262 
L 165.131502 306.85886 
L 166.842842 310.955689 
L 167.749108 312.571258 
L 168.554624 314.542948 
L 169.865664 317.113961 
L 170.168236 317.441128 
L 171.678882 320.243765 
L 171.981374 320.70701 
L 172.284027 321.303439 
L 173.192792 322.890056 
L 174.20142 324.326117 
L 174.503509 324.708295 
L 176.41788 327.166392 
L 176.720009 327.505141 
L 176.921348 327.704915 
L 177.223154 328.075512 
L 177.525042 328.437423 
L 177.82709 328.883297 
L 178.632929 329.916913 
L 178.834429 330.191966 
L 179.23751 330.591515 
L 179.539639 330.843405 
L 180.344027 331.877022 
L 180.846004 332.32 
L 181.046617 332.52267 
L 181.447844 332.997497 
L 181.849272 333.411523 
L 182.050248 333.553392 
L 182.55295 333.94136 
L 182.653499 333.929779 
L 183.35754 334.569637 
L 183.658863 334.769412 
L 183.959823 335.044464 
L 186.068561 336.790321 
L 186.573037 336.862703 
L 187.179189 337.262253 
L 187.280382 337.2333 
L 188.293484 338.292974 
L 188.699224 338.715686 
L 189.00365 338.874927 
L 189.206561 338.924146 
L 190.421243 339.074701 
L 190.522154 339.00811 
L 190.723977 339.152874 
L 190.925678 339.176036 
L 193.446524 340.394952 
L 193.647903 340.53103 
L 193.949669 340.658422 
L 195.155365 341.127459 
L 195.456809 341.086925 
L 195.758293 341.165097 
L 196.160326 341.08982 
L 197.064819 341.628343 
L 197.165368 341.553066 
L 197.265836 341.677563 
L 197.667949 341.483579 
L 198.271562 341.309862 
L 198.674643 341.254851 
L 198.977215 341.136145 
L 199.178997 341.165097 
L 199.38078 341.075344 
L 199.481731 341.19405 
L 199.683634 341.023228 
L 200.188754 340.962427 
L 200.391141 340.968218 
L 200.492334 341.066658 
L 200.694842 340.947951 
L 200.897389 341.101401 
L 200.998663 341.069553 
L 201.201171 341.228794 
L 201.403557 341.14483 
L 201.909161 341.217213 
L 202.111387 341.251956 
L 202.414443 341.315652 
L 202.616305 341.330129 
L 202.818087 341.327233 
L 203.22145 341.162202 
L 203.825426 341.217213 
L 204.12679 341.254851 
L 204.827808 341.275118 
L 205.027817 341.298281 
L 205.227826 341.283804 
L 205.427875 341.254851 
L 206.429451 341.234584 
L 206.930622 341.185364 
L 208.53964 341.075344 
L 208.741341 341.240375 
L 209.446591 341.527008 
L 209.949898 341.315652 
L 210.755858 341.000066 
L 211.058551 341.005857 
L 211.361405 340.916103 
L 212.169944 340.829244 
L 212.777789 340.528135 
L 213.082014 340.725014 
L 213.284763 340.800291 
L 213.386037 340.840825 
L 213.386037 340.840825 
" clip-path="url(#pd7a17d5834)" style="fill: none; stroke: #35b779; stroke-width: 1.5; stroke-linecap: square"/>
   </g>
   <g id="line2d_36">
    <path d="M -1 351.981979 
L -0.064847 351.939808 
L 3.965153 351.927529 
L 5.980153 351.797369 
L 7.995153 351.863677 
L 10.010153 351.618093 
L 12.025153 351.527226 
L 14.040153 351.659842 
L 16.055153 351.311112 
L 18.070153 351.274274 
L 20.085153 351.374964 
L 22.100153 351.215334 
L 26.130153 351.222701 
L 32.175153 350.86906 
L 34.190153 350.928 
L 36.205153 350.694695 
L 44.265153 350.350876 
L 46.280153 350.363156 
L 48.295153 350.002146 
L 50.310153 349.926015 
L 52.325153 349.967764 
L 54.340153 349.579741 
L 56.355153 349.447125 
L 58.370153 349.528168 
L 64.415153 348.619505 
L 66.430153 348.457419 
L 68.445153 348.413214 
L 70.460153 348.101322 
L 74.490153 347.136174 
L 76.505153 347.052676 
L 82.550153 345.977015 
L 84.565153 345.223071 
L 86.580153 344.34879 
L 88.595153 343.936208 
L 90.610153 343.199454 
L 92.625153 342.666536 
L 94.640153 340.836931 
L 96.655153 339.469025 
L 98.670153 338.346703 
L 100.685153 336.607965 
L 102.700153 334.623641 
L 106.730153 329.714406 
L 108.745153 327.074372 
L 110.760153 322.879788 
L 114.790153 315.12914 
L 116.805153 310.659501 
L 118.820153 305.190333 
L 120.835153 298.741282 
L 122.850153 291.724932 
L 128.895153 268.910127 
L 130.910153 264.074567 
L 132.925153 262.792615 
L 134.940153 267.1763 
L 136.955153 277.994299 
L 140.985153 309.515077 
L 143.000153 322.260915 
L 145.015153 330.898124 
L 147.030153 336.161001 
L 149.045153 339.567259 
L 151.060153 341.73577 
L 153.075153 343.052103 
L 155.090153 343.95831 
L 157.105153 344.663138 
L 159.120153 345.100279 
L 161.135153 345.704417 
L 163.150153 345.689681 
L 165.165153 346.016309 
L 173.225153 346.301187 
L 175.240153 346.065426 
L 177.255153 346.158748 
L 187.330153 345.920531 
L 195.390153 345.741254 
L 197.405153 345.500581 
L 199.420153 345.42445 
L 203.450153 345.699505 
L 205.465153 345.267276 
L 211.510153 345.304114 
L 215.540153 345.10519 
L 217.555153 345.092911 
L 219.570153 344.835047 
L 221.484844 345.047404 
L 221.484844 345.047404 
" clip-path="url(#pd7a17d5834)" style="fill: none; stroke: #fde725; stroke-width: 1.5; stroke-linecap: square"/>
   </g>
   <g id="patch_13">
    <path d="M 31.934844 350.928 
L 31.934844 236.352 
" style="fill: none; stroke: #000000; stroke-width: 0.8; stroke-linejoin: miter; stroke-linecap: square"/>
   </g>
   <g id="patch_14">
    <path d="M 213.284844 350.928 
L 213.284844 236.352 
" style="fill: none; stroke: #000000; stroke-width: 0.8; stroke-linejoin: miter; stroke-linecap: square"/>
   </g>
   <g id="patch_15">
    <path d="M 31.934844 350.928 
L 213.284844 350.928 
" style="fill: none; stroke: #000000; stroke-width: 0.8; stroke-linejoin: miter; stroke-linecap: square"/>
   </g>
   <g id="patch_16">
    <path d="M 31.934844 236.352 
L 213.284844 236.352 
" style="fill: none; stroke: #000000; stroke-width: 0.8; stroke-linejoin: miter; stroke-linecap: square"/>
   </g>
   <g id="text_26">
    <!-- 137.3 -->
    <g style="fill: #440154" transform="translate(138.00122 306.860308) scale(0.09 -0.09)">
     <use xlink:href="#ArialMT-31"/>
     <use xlink:href="#ArialMT-33" transform="translate(55.615234 0)"/>
     <use xlink:href="#ArialMT-37" transform="translate(111.230469 0)"/>
     <use xlink:href="#ArialMT-2e" transform="translate(166.845703 0)"/>
     <use xlink:href="#ArialMT-33" transform="translate(194.628906 0)"/>
    </g>
   </g>
   <g id="text_27">
    <!-- 130.0 -->
    <g style="fill: #31688e" transform="translate(108.597493 298.046769) scale(0.09 -0.09)">
     <use xlink:href="#ArialMT-31"/>
     <use xlink:href="#ArialMT-33" transform="translate(55.615234 0)"/>
     <use xlink:href="#ArialMT-30" transform="translate(111.230469 0)"/>
     <use xlink:href="#ArialMT-2e" transform="translate(166.845703 0)"/>
     <use xlink:href="#ArialMT-30" transform="translate(194.628906 0)"/>
    </g>
   </g>
   <g id="text_28">
    <!-- 138.8 -->
    <g style="fill: #35b779" transform="translate(144.168611 289.233231) scale(0.09 -0.09)">
     <use xlink:href="#ArialMT-31"/>
     <use xlink:href="#ArialMT-33" transform="translate(55.615234 0)"/>
     <use xlink:href="#ArialMT-38" transform="translate(111.230469 0)"/>
     <use xlink:href="#ArialMT-2e" transform="translate(166.845703 0)"/>
     <use xlink:href="#ArialMT-38" transform="translate(194.628906 0)"/>
    </g>
   </g>
   <g id="text_29">
    <!-- 135.1 -->
    <g style="fill: #fde725" transform="translate(128.895153 280.419692) scale(0.09 -0.09)">
     <use xlink:href="#ArialMT-31"/>
     <use xlink:href="#ArialMT-33" transform="translate(55.615234 0)"/>
     <use xlink:href="#ArialMT-35" transform="translate(111.230469 0)"/>
     <use xlink:href="#ArialMT-2e" transform="translate(166.845703 0)"/>
     <use xlink:href="#ArialMT-31" transform="translate(194.628906 0)"/>
    </g>
   </g>
   <g id="legend_1">
    <g id="line2d_37">
     <path d="M 37.348344 14.22 
L 46.348344 14.22 
L 55.348344 14.22 
" style="fill: none; stroke: #440154; stroke-width: 1.5; stroke-linecap: square"/>
    </g>
    <g id="text_30">
     <!-- $PE_{single}$ -->
     <g transform="translate(62.548344 17.37) scale(0.09 -0.09)">
      <defs>
       <path id="DejaVuSans-Oblique-50" d="M 1081 4666 
L 2541 4666 
Q 3178 4666 3512 4369 
Q 3847 4072 3847 3500 
Q 3847 2731 3353 2303 
Q 2859 1875 1966 1875 
L 1172 1875 
L 806 0 
L 172 0 
L 1081 4666 
z
M 1613 4147 
L 1275 2394 
L 2069 2394 
Q 2606 2394 2893 2669 
Q 3181 2944 3181 3456 
Q 3181 3784 2986 3965 
Q 2791 4147 2438 4147 
L 1613 4147 
z
" transform="scale(0.015625)"/>
       <path id="DejaVuSans-Oblique-45" d="M 1081 4666 
L 4031 4666 
L 3928 4134 
L 1606 4134 
L 1338 2753 
L 3566 2753 
L 3463 2222 
L 1234 2222 
L 909 531 
L 3284 531 
L 3181 0 
L 172 0 
L 1081 4666 
z
" transform="scale(0.015625)"/>
       <path id="DejaVuSans-Oblique-73" d="M 3200 3397 
L 3091 2853 
Q 2863 2978 2609 3040 
Q 2356 3103 2088 3103 
Q 1634 3103 1373 2948 
Q 1113 2794 1113 2528 
Q 1113 2219 1719 2053 
Q 1766 2041 1788 2034 
L 1972 1978 
Q 2547 1819 2739 1644 
Q 2931 1469 2931 1166 
Q 2931 609 2489 259 
Q 2047 -91 1331 -91 
Q 1053 -91 747 -37 
Q 441 16 72 128 
L 184 722 
Q 500 559 806 475 
Q 1113 391 1394 391 
Q 1816 391 2080 572 
Q 2344 753 2344 1031 
Q 2344 1331 1650 1516 
L 1591 1531 
L 1394 1581 
Q 956 1697 753 1886 
Q 550 2075 550 2369 
Q 550 2928 970 3256 
Q 1391 3584 2113 3584 
Q 2397 3584 2667 3537 
Q 2938 3491 3200 3397 
z
" transform="scale(0.015625)"/>
       <path id="DejaVuSans-Oblique-69" d="M 1172 4863 
L 1747 4863 
L 1606 4134 
L 1031 4134 
L 1172 4863 
z
M 909 3500 
L 1484 3500 
L 800 0 
L 225 0 
L 909 3500 
z
" transform="scale(0.015625)"/>
       <path id="DejaVuSans-Oblique-6e" d="M 3566 2113 
L 3156 0 
L 2578 0 
L 2988 2091 
Q 3016 2238 3031 2350 
Q 3047 2463 3047 2528 
Q 3047 2791 2881 2937 
Q 2716 3084 2419 3084 
Q 1956 3084 1622 2776 
Q 1288 2469 1184 1941 
L 800 0 
L 225 0 
L 903 3500 
L 1478 3500 
L 1363 2950 
Q 1603 3253 1940 3418 
Q 2278 3584 2650 3584 
Q 3113 3584 3367 3334 
Q 3622 3084 3622 2631 
Q 3622 2519 3608 2391 
Q 3594 2263 3566 2113 
z
" transform="scale(0.015625)"/>
       <path id="DejaVuSans-Oblique-6c" d="M 1172 4863 
L 1747 4863 
L 800 0 
L 225 0 
L 1172 4863 
z
" transform="scale(0.015625)"/>
       <path id="DejaVuSans-Oblique-65" d="M 3078 2063 
Q 3088 2113 3092 2166 
Q 3097 2219 3097 2272 
Q 3097 2653 2873 2875 
Q 2650 3097 2266 3097 
Q 1838 3097 1509 2826 
Q 1181 2556 1013 2059 
L 3078 2063 
z
M 3578 1613 
L 903 1613 
Q 884 1494 878 1425 
Q 872 1356 872 1306 
Q 872 872 1139 634 
Q 1406 397 1894 397 
Q 2269 397 2603 481 
Q 2938 566 3225 728 
L 3116 159 
Q 2806 34 2476 -28 
Q 2147 -91 1806 -91 
Q 1078 -91 686 257 
Q 294 606 294 1247 
Q 294 1794 489 2264 
Q 684 2734 1063 3103 
Q 1306 3334 1642 3459 
Q 1978 3584 2356 3584 
Q 2950 3584 3301 3228 
Q 3653 2872 3653 2272 
Q 3653 2128 3634 1964 
Q 3616 1800 3578 1613 
z
" transform="scale(0.015625)"/>
      </defs>
      <use xlink:href="#DejaVuSans-Oblique-50" transform="translate(0 0.09375)"/>
      <use xlink:href="#DejaVuSans-Oblique-45" transform="translate(60.302734 0.09375)"/>
      <use xlink:href="#DejaVuSans-Oblique-73" transform="translate(123.486328 -16.3125) scale(0.7)"/>
      <use xlink:href="#DejaVuSans-Oblique-69" transform="translate(159.956055 -16.3125) scale(0.7)"/>
      <use xlink:href="#DejaVuSans-Oblique-6e" transform="translate(179.404297 -16.3125) scale(0.7)"/>
      <use xlink:href="#DejaVuSans-Oblique-67" transform="translate(223.769531 -16.3125) scale(0.7)"/>
      <use xlink:href="#DejaVuSans-Oblique-6c" transform="translate(268.203125 -16.3125) scale(0.7)"/>
      <use xlink:href="#DejaVuSans-Oblique-65" transform="translate(287.651367 -16.3125) scale(0.7)"/>
     </g>
    </g>
    <g id="line2d_38">
     <path d="M 37.348344 27.952031 
L 46.348344 27.952031 
L 55.348344 27.952031 
" style="fill: none; stroke: #31688e; stroke-width: 1.5; stroke-linecap: square"/>
    </g>
    <g id="text_31">
     <!-- $PE_{anneal}$ -->
     <g transform="translate(62.548344 31.102031) scale(0.09 -0.09)">
      <defs>
       <path id="DejaVuSans-Oblique-61" d="M 3438 1997 
L 3047 0 
L 2472 0 
L 2578 531 
Q 2325 219 2001 64 
Q 1678 -91 1281 -91 
Q 834 -91 548 182 
Q 263 456 263 884 
Q 263 1497 752 1853 
Q 1241 2209 2100 2209 
L 2900 2209 
L 2931 2363 
Q 2938 2388 2941 2417 
Q 2944 2447 2944 2509 
Q 2944 2788 2717 2942 
Q 2491 3097 2081 3097 
Q 1800 3097 1504 3025 
Q 1209 2953 897 2809 
L 997 3341 
Q 1322 3463 1633 3523 
Q 1944 3584 2234 3584 
Q 2853 3584 3176 3315 
Q 3500 3047 3500 2534 
Q 3500 2431 3484 2292 
Q 3469 2153 3438 1997 
z
M 2816 1759 
L 2241 1759 
Q 1534 1759 1195 1570 
Q 856 1381 856 984 
Q 856 709 1029 553 
Q 1203 397 1509 397 
Q 1978 397 2328 733 
Q 2678 1069 2791 1631 
L 2816 1759 
z
" transform="scale(0.015625)"/>
      </defs>
      <use xlink:href="#DejaVuSans-Oblique-50" transform="translate(0 0.09375)"/>
      <use xlink:href="#DejaVuSans-Oblique-45" transform="translate(60.302734 0.09375)"/>
      <use xlink:href="#DejaVuSans-Oblique-61" transform="translate(123.486328 -16.3125) scale(0.7)"/>
      <use xlink:href="#DejaVuSans-Oblique-6e" transform="translate(166.381836 -16.3125) scale(0.7)"/>
      <use xlink:href="#DejaVuSans-Oblique-6e" transform="translate(210.74707 -16.3125) scale(0.7)"/>
      <use xlink:href="#DejaVuSans-Oblique-65" transform="translate(255.112305 -16.3125) scale(0.7)"/>
      <use xlink:href="#DejaVuSans-Oblique-61" transform="translate(298.178711 -16.3125) scale(0.7)"/>
      <use xlink:href="#DejaVuSans-Oblique-6c" transform="translate(341.074219 -16.3125) scale(0.7)"/>
     </g>
    </g>
    <g id="line2d_39">
     <path d="M 37.348344 41.080781 
L 46.348344 41.080781 
L 55.348344 41.080781 
" style="fill: none; stroke: #35b779; stroke-width: 1.5; stroke-linecap: square"/>
    </g>
    <g id="text_32">
     <!-- $PE_{single}, 5 h$ -->
     <g transform="translate(62.548344 44.230781) scale(0.09 -0.09)">
      <defs>
       <path id="DejaVuSans-2c" d="M 750 794 
L 1409 794 
L 1409 256 
L 897 -744 
L 494 -744 
L 750 256 
L 750 794 
z
" transform="scale(0.015625)"/>
       <path id="DejaVuSans-35" d="M 691 4666 
L 3169 4666 
L 3169 4134 
L 1269 4134 
L 1269 2991 
Q 1406 3038 1543 3061 
Q 1681 3084 1819 3084 
Q 2600 3084 3056 2656 
Q 3513 2228 3513 1497 
Q 3513 744 3044 326 
Q 2575 -91 1722 -91 
Q 1428 -91 1123 -41 
Q 819 9 494 109 
L 494 744 
Q 775 591 1075 516 
Q 1375 441 1709 441 
Q 2250 441 2565 725 
Q 2881 1009 2881 1497 
Q 2881 1984 2565 2268 
Q 2250 2553 1709 2553 
Q 1456 2553 1204 2497 
Q 953 2441 691 2322 
L 691 4666 
z
" transform="scale(0.015625)"/>
       <path id="DejaVuSans-Oblique-68" d="M 3566 2113 
L 3156 0 
L 2578 0 
L 2988 2091 
Q 3016 2238 3031 2350 
Q 3047 2463 3047 2528 
Q 3047 2791 2881 2937 
Q 2716 3084 2419 3084 
Q 1956 3084 1617 2771 
Q 1278 2459 1178 1941 
L 800 0 
L 225 0 
L 1172 4863 
L 1747 4863 
L 1375 2950 
Q 1594 3244 1934 3414 
Q 2275 3584 2650 3584 
Q 3113 3584 3367 3334 
Q 3622 3084 3622 2631 
Q 3622 2519 3608 2391 
Q 3594 2263 3566 2113 
z
" transform="scale(0.015625)"/>
      </defs>
      <use xlink:href="#DejaVuSans-Oblique-50" transform="translate(0 0.015625)"/>
      <use xlink:href="#DejaVuSans-Oblique-45" transform="translate(60.302734 0.015625)"/>
      <use xlink:href="#DejaVuSans-Oblique-73" transform="translate(123.486328 -16.390625) scale(0.7)"/>
      <use xlink:href="#DejaVuSans-Oblique-69" transform="translate(159.956055 -16.390625) scale(0.7)"/>
      <use xlink:href="#DejaVuSans-Oblique-6e" transform="translate(179.404297 -16.390625) scale(0.7)"/>
      <use xlink:href="#DejaVuSans-Oblique-67" transform="translate(223.769531 -16.390625) scale(0.7)"/>
      <use xlink:href="#DejaVuSans-Oblique-6c" transform="translate(268.203125 -16.390625) scale(0.7)"/>
      <use xlink:href="#DejaVuSans-Oblique-65" transform="translate(287.651367 -16.390625) scale(0.7)"/>
      <use xlink:href="#DejaVuSans-2c" transform="translate(333.452148 0.015625)"/>
      <use xlink:href="#DejaVuSans-35" transform="translate(384.72168 0.015625)"/>
      <use xlink:href="#DejaVuSans-Oblique-68" transform="translate(448.344727 0.015625)"/>
     </g>
    </g>
    <g id="line2d_40">
     <path d="M 37.348344 55.042031 
L 46.348344 55.042031 
L 55.348344 55.042031 
" style="fill: none; stroke: #fde725; stroke-width: 1.5; stroke-linecap: square"/>
    </g>
    <g id="text_33">
     <!-- $PE_{anneal}, 5 h$ -->
     <g transform="translate(62.548344 58.192031) scale(0.09 -0.09)">
      <use xlink:href="#DejaVuSans-Oblique-50" transform="translate(0 0.015625)"/>
      <use xlink:href="#DejaVuSans-Oblique-45" transform="translate(60.302734 0.015625)"/>
      <use xlink:href="#DejaVuSans-Oblique-61" transform="translate(123.486328 -16.390625) scale(0.7)"/>
      <use xlink:href="#DejaVuSans-Oblique-6e" transform="translate(166.381836 -16.390625) scale(0.7)"/>
      <use xlink:href="#DejaVuSans-Oblique-6e" transform="translate(210.74707 -16.390625) scale(0.7)"/>
      <use xlink:href="#DejaVuSans-Oblique-65" transform="translate(255.112305 -16.390625) scale(0.7)"/>
      <use xlink:href="#DejaVuSans-Oblique-61" transform="translate(298.178711 -16.390625) scale(0.7)"/>
      <use xlink:href="#DejaVuSans-Oblique-6c" transform="translate(341.074219 -16.390625) scale(0.7)"/>
      <use xlink:href="#DejaVuSans-2c" transform="translate(363.256836 0.015625)"/>
      <use xlink:href="#DejaVuSans-35" transform="translate(414.526367 0.015625)"/>
      <use xlink:href="#DejaVuSans-Oblique-68" transform="translate(478.149414 0.015625)"/>
     </g>
    </g>
   </g>
   <g id="legend_2">
    <g id="line2d_41">
     <path d="M 37.348344 14.22 
L 46.348344 14.22 
L 55.348344 14.22 
" style="fill: none; stroke: #440154; stroke-width: 1.5; stroke-linecap: square"/>
    </g>
    <g id="text_34">
     <!-- $PE_{single}$ -->
     <g transform="translate(62.548344 17.37) scale(0.09 -0.09)">
      <use xlink:href="#DejaVuSans-Oblique-50" transform="translate(0 0.09375)"/>
      <use xlink:href="#DejaVuSans-Oblique-45" transform="translate(60.302734 0.09375)"/>
      <use xlink:href="#DejaVuSans-Oblique-73" transform="translate(123.486328 -16.3125) scale(0.7)"/>
      <use xlink:href="#DejaVuSans-Oblique-69" transform="translate(159.956055 -16.3125) scale(0.7)"/>
      <use xlink:href="#DejaVuSans-Oblique-6e" transform="translate(179.404297 -16.3125) scale(0.7)"/>
      <use xlink:href="#DejaVuSans-Oblique-67" transform="translate(223.769531 -16.3125) scale(0.7)"/>
      <use xlink:href="#DejaVuSans-Oblique-6c" transform="translate(268.203125 -16.3125) scale(0.7)"/>
      <use xlink:href="#DejaVuSans-Oblique-65" transform="translate(287.651367 -16.3125) scale(0.7)"/>
     </g>
    </g>
    <g id="line2d_42">
     <path d="M 37.348344 27.952031 
L 46.348344 27.952031 
L 55.348344 27.952031 
" style="fill: none; stroke: #31688e; stroke-width: 1.5; stroke-linecap: square"/>
    </g>
    <g id="text_35">
     <!-- $PE_{anneal}$ -->
     <g transform="translate(62.548344 31.102031) scale(0.09 -0.09)">
      <use xlink:href="#DejaVuSans-Oblique-50" transform="translate(0 0.09375)"/>
      <use xlink:href="#DejaVuSans-Oblique-45" transform="translate(60.302734 0.09375)"/>
      <use xlink:href="#DejaVuSans-Oblique-61" transform="translate(123.486328 -16.3125) scale(0.7)"/>
      <use xlink:href="#DejaVuSans-Oblique-6e" transform="translate(166.381836 -16.3125) scale(0.7)"/>
      <use xlink:href="#DejaVuSans-Oblique-6e" transform="translate(210.74707 -16.3125) scale(0.7)"/>
      <use xlink:href="#DejaVuSans-Oblique-65" transform="translate(255.112305 -16.3125) scale(0.7)"/>
      <use xlink:href="#DejaVuSans-Oblique-61" transform="translate(298.178711 -16.3125) scale(0.7)"/>
      <use xlink:href="#DejaVuSans-Oblique-6c" transform="translate(341.074219 -16.3125) scale(0.7)"/>
     </g>
    </g>
    <g id="line2d_43">
     <path d="M 37.348344 41.080781 
L 46.348344 41.080781 
L 55.348344 41.080781 
" style="fill: none; stroke: #35b779; stroke-width: 1.5; stroke-linecap: square"/>
    </g>
    <g id="text_36">
     <!-- $PE_{single}, 5 h$ -->
     <g transform="translate(62.548344 44.230781) scale(0.09 -0.09)">
      <use xlink:href="#DejaVuSans-Oblique-50" transform="translate(0 0.015625)"/>
      <use xlink:href="#DejaVuSans-Oblique-45" transform="translate(60.302734 0.015625)"/>
      <use xlink:href="#DejaVuSans-Oblique-73" transform="translate(123.486328 -16.390625) scale(0.7)"/>
      <use xlink:href="#DejaVuSans-Oblique-69" transform="translate(159.956055 -16.390625) scale(0.7)"/>
      <use xlink:href="#DejaVuSans-Oblique-6e" transform="translate(179.404297 -16.390625) scale(0.7)"/>
      <use xlink:href="#DejaVuSans-Oblique-67" transform="translate(223.769531 -16.390625) scale(0.7)"/>
      <use xlink:href="#DejaVuSans-Oblique-6c" transform="translate(268.203125 -16.390625) scale(0.7)"/>
      <use xlink:href="#DejaVuSans-Oblique-65" transform="translate(287.651367 -16.390625) scale(0.7)"/>
      <use xlink:href="#DejaVuSans-2c" transform="translate(333.452148 0.015625)"/>
      <use xlink:href="#DejaVuSans-35" transform="translate(384.72168 0.015625)"/>
      <use xlink:href="#DejaVuSans-Oblique-68" transform="translate(448.344727 0.015625)"/>
     </g>
    </g>
    <g id="line2d_44">
     <path d="M 37.348344 55.042031 
L 46.348344 55.042031 
L 55.348344 55.042031 
" style="fill: none; stroke: #fde725; stroke-width: 1.5; stroke-linecap: square"/>
    </g>
    <g id="text_37">
     <!-- $PE_{anneal}, 5 h$ -->
     <g transform="translate(62.548344 58.192031) scale(0.09 -0.09)">
      <use xlink:href="#DejaVuSans-Oblique-50" transform="translate(0 0.015625)"/>
      <use xlink:href="#DejaVuSans-Oblique-45" transform="translate(60.302734 0.015625)"/>
      <use xlink:href="#DejaVuSans-Oblique-61" transform="translate(123.486328 -16.390625) scale(0.7)"/>
      <use xlink:href="#DejaVuSans-Oblique-6e" transform="translate(166.381836 -16.390625) scale(0.7)"/>
      <use xlink:href="#DejaVuSans-Oblique-6e" transform="translate(210.74707 -16.390625) scale(0.7)"/>
      <use xlink:href="#DejaVuSans-Oblique-65" transform="translate(255.112305 -16.390625) scale(0.7)"/>
      <use xlink:href="#DejaVuSans-Oblique-61" transform="translate(298.178711 -16.390625) scale(0.7)"/>
      <use xlink:href="#DejaVuSans-Oblique-6c" transform="translate(341.074219 -16.390625) scale(0.7)"/>
      <use xlink:href="#DejaVuSans-2c" transform="translate(363.256836 0.015625)"/>
      <use xlink:href="#DejaVuSans-35" transform="translate(414.526367 0.015625)"/>
      <use xlink:href="#DejaVuSans-Oblique-68" transform="translate(478.149414 0.015625)"/>
     </g>
    </g>
   </g>
  </g>
 </g>
 <defs>
  <clipPath id="p54fc70b7d0">
   <rect x="31.934844" y="7.2" width="181.35" height="114.576"/>
  </clipPath>
  <clipPath id="p90a17efabe">
   <rect x="31.934844" y="121.776" width="181.35" height="114.576"/>
  </clipPath>
  <clipPath id="pd7a17d5834">
   <rect x="31.934844" y="236.352" width="181.35" height="114.576"/>
  </clipPath>
 </defs>
</svg>
