<?xml version="1.0" encoding="utf-8" standalone="no"?>
<!DOCTYPE svg PUBLIC "-//W3C//DTD SVG 1.1//EN"
  "http://www.w3.org/Graphics/SVG/1.1/DTD/svg11.dtd">
<svg xmlns:xlink="http://www.w3.org/1999/xlink" width="221.301237pt" height="225.606812pt" viewBox="0 0 221.301237 225.606812" xmlns="http://www.w3.org/2000/svg" version="1.1">
 <metadata>
  <rdf:RDF xmlns:dc="http://purl.org/dc/elements/1.1/" xmlns:cc="http://creativecommons.org/ns#" xmlns:rdf="http://www.w3.org/1999/02/22-rdf-syntax-ns#">
   <cc:Work>
    <dc:type rdf:resource="http://purl.org/dc/dcmitype/StillImage"/>
    <dc:date>2025-09-22T17:04:49.493905</dc:date>
    <dc:format>image/svg+xml</dc:format>
    <dc:creator>
     <cc:Agent>
      <dc:title>Matplotlib v3.10.6, https://matplotlib.org/</dc:title>
     </cc:Agent>
    </dc:creator>
   </cc:Work>
  </rdf:RDF>
 </metadata>
 <defs>
  <style type="text/css">*{stroke-linejoin: round; stroke-linecap: butt}</style>
 </defs>
 <g id="figure_1">
  <g id="patch_1">
   <path d="M 0 225.606812 
L 221.301237 225.606812 
L 221.301237 0 
L 0 0 
L 0 225.606812 
z
" style="fill: none"/>
  </g>
  <g id="axes_1">
   <g id="patch_2">
    <path d="M 40.769844 188.506031 
L 213.749844 188.506031 
L 213.749844 16.642031 
L 40.769844 16.642031 
L 40.769844 188.506031 
z
" style="fill: none"/>
   </g>
   <g id="matplotlib.axis_1">
    <g id="xtick_1">
     <g id="line2d_1">
      <defs>
       <path id="m66fafd4dc2" d="M 0 0 
L 0 3.5 
" style="stroke: #000000; stroke-width: 0.8"/>
      </defs>
      <g>
       <use xlink:href="#m66fafd4dc2" x="48.632571" y="188.506031" style="stroke: #000000; stroke-width: 0.8"/>
      </g>
     </g>
     <g id="text_1">
      <!-- 0 -->
      <g transform="translate(46.130149 201.948062) scale(0.09 -0.09)">
       <defs>
        <path id="ArialMT-30" d="M 266 2259 
Q 266 3072 433 3567 
Q 600 4063 929 4331 
Q 1259 4600 1759 4600 
Q 2128 4600 2406 4451 
Q 2684 4303 2865 4023 
Q 3047 3744 3150 3342 
Q 3253 2941 3253 2259 
Q 3253 1453 3087 958 
Q 2922 463 2592 192 
Q 2263 -78 1759 -78 
Q 1097 -78 719 397 
Q 266 969 266 2259 
z
M 844 2259 
Q 844 1131 1108 757 
Q 1372 384 1759 384 
Q 2147 384 2411 759 
Q 2675 1134 2675 2259 
Q 2675 3391 2411 3762 
Q 2147 4134 1753 4134 
Q 1366 4134 1134 3806 
Q 844 3388 844 2259 
z
" transform="scale(0.015625)"/>
       </defs>
       <use xlink:href="#ArialMT-30"/>
      </g>
     </g>
    </g>
    <g id="xtick_2">
     <g id="line2d_2">
      <g>
       <use xlink:href="#m66fafd4dc2" x="80.725335" y="188.506031" style="stroke: #000000; stroke-width: 0.8"/>
      </g>
     </g>
     <g id="text_2">
      <!-- 10 -->
      <g transform="translate(75.720492 201.948062) scale(0.09 -0.09)">
       <defs>
        <path id="ArialMT-31" d="M 2384 0 
L 1822 0 
L 1822 3584 
Q 1619 3391 1289 3197 
Q 959 3003 697 2906 
L 697 3450 
Q 1169 3672 1522 3987 
Q 1875 4303 2022 4600 
L 2384 4600 
L 2384 0 
z
" transform="scale(0.015625)"/>
       </defs>
       <use xlink:href="#ArialMT-31"/>
       <use xlink:href="#ArialMT-30" transform="translate(55.615234 0)"/>
      </g>
     </g>
    </g>
    <g id="xtick_3">
     <g id="line2d_3">
      <g>
       <use xlink:href="#m66fafd4dc2" x="112.8181" y="188.506031" style="stroke: #000000; stroke-width: 0.8"/>
      </g>
     </g>
     <g id="text_3">
      <!-- 20 -->
      <g transform="translate(107.813256 201.948062) scale(0.09 -0.09)">
       <defs>
        <path id="ArialMT-32" d="M 3222 541 
L 3222 0 
L 194 0 
Q 188 203 259 391 
Q 375 700 629 1000 
Q 884 1300 1366 1694 
Q 2113 2306 2375 2664 
Q 2638 3022 2638 3341 
Q 2638 3675 2398 3904 
Q 2159 4134 1775 4134 
Q 1369 4134 1125 3890 
Q 881 3647 878 3216 
L 300 3275 
Q 359 3922 746 4261 
Q 1134 4600 1788 4600 
Q 2447 4600 2831 4234 
Q 3216 3869 3216 3328 
Q 3216 3053 3103 2787 
Q 2991 2522 2730 2228 
Q 2469 1934 1863 1422 
Q 1356 997 1212 845 
Q 1069 694 975 541 
L 3222 541 
z
" transform="scale(0.015625)"/>
       </defs>
       <use xlink:href="#ArialMT-32"/>
       <use xlink:href="#ArialMT-30" transform="translate(55.615234 0)"/>
      </g>
     </g>
    </g>
    <g id="xtick_4">
     <g id="line2d_4">
      <g>
       <use xlink:href="#m66fafd4dc2" x="144.910864" y="188.506031" style="stroke: #000000; stroke-width: 0.8"/>
      </g>
     </g>
     <g id="text_4">
      <!-- 30 -->
      <g transform="translate(139.90602 201.948062) scale(0.09 -0.09)">
       <defs>
        <path id="ArialMT-33" d="M 269 1209 
L 831 1284 
Q 928 806 1161 595 
Q 1394 384 1728 384 
Q 2125 384 2398 659 
Q 2672 934 2672 1341 
Q 2672 1728 2419 1979 
Q 2166 2231 1775 2231 
Q 1616 2231 1378 2169 
L 1441 2663 
Q 1497 2656 1531 2656 
Q 1891 2656 2178 2843 
Q 2466 3031 2466 3422 
Q 2466 3731 2256 3934 
Q 2047 4138 1716 4138 
Q 1388 4138 1169 3931 
Q 950 3725 888 3313 
L 325 3413 
Q 428 3978 793 4289 
Q 1159 4600 1703 4600 
Q 2078 4600 2393 4439 
Q 2709 4278 2876 4000 
Q 3044 3722 3044 3409 
Q 3044 3113 2884 2869 
Q 2725 2625 2413 2481 
Q 2819 2388 3044 2092 
Q 3269 1797 3269 1353 
Q 3269 753 2831 336 
Q 2394 -81 1725 -81 
Q 1122 -81 723 278 
Q 325 638 269 1209 
z
" transform="scale(0.015625)"/>
       </defs>
       <use xlink:href="#ArialMT-33"/>
       <use xlink:href="#ArialMT-30" transform="translate(55.615234 0)"/>
      </g>
     </g>
    </g>
    <g id="xtick_5">
     <g id="line2d_5">
      <g>
       <use xlink:href="#m66fafd4dc2" x="177.003629" y="188.506031" style="stroke: #000000; stroke-width: 0.8"/>
      </g>
     </g>
     <g id="text_5">
      <!-- 40 -->
      <g transform="translate(171.998785 201.948062) scale(0.09 -0.09)">
       <defs>
        <path id="ArialMT-34" d="M 2069 0 
L 2069 1097 
L 81 1097 
L 81 1613 
L 2172 4581 
L 2631 4581 
L 2631 1613 
L 3250 1613 
L 3250 1097 
L 2631 1097 
L 2631 0 
L 2069 0 
z
M 2069 1613 
L 2069 3678 
L 634 1613 
L 2069 1613 
z
" transform="scale(0.015625)"/>
       </defs>
       <use xlink:href="#ArialMT-34"/>
       <use xlink:href="#ArialMT-30" transform="translate(55.615234 0)"/>
      </g>
     </g>
    </g>
    <g id="xtick_6">
     <g id="line2d_6">
      <g>
       <use xlink:href="#m66fafd4dc2" x="209.096393" y="188.506031" style="stroke: #000000; stroke-width: 0.8"/>
      </g>
     </g>
     <g id="text_6">
      <!-- 50 -->
      <g transform="translate(204.091549 201.948062) scale(0.09 -0.09)">
       <defs>
        <path id="ArialMT-35" d="M 266 1200 
L 856 1250 
Q 922 819 1161 601 
Q 1400 384 1738 384 
Q 2144 384 2425 690 
Q 2706 997 2706 1503 
Q 2706 1984 2436 2262 
Q 2166 2541 1728 2541 
Q 1456 2541 1237 2417 
Q 1019 2294 894 2097 
L 366 2166 
L 809 4519 
L 3088 4519 
L 3088 3981 
L 1259 3981 
L 1013 2750 
Q 1425 3038 1878 3038 
Q 2478 3038 2890 2622 
Q 3303 2206 3303 1553 
Q 3303 931 2941 478 
Q 2500 -78 1738 -78 
Q 1113 -78 717 272 
Q 322 622 266 1200 
z
" transform="scale(0.015625)"/>
       </defs>
       <use xlink:href="#ArialMT-35"/>
       <use xlink:href="#ArialMT-30" transform="translate(55.615234 0)"/>
      </g>
     </g>
    </g>
    <g id="text_7">
     <!-- $\bf{simulation\ steps}\ \it{(-)}$ -->
     <g transform="translate(65.329844 216.096812) scale(0.11 -0.11)">
      <defs>
       <path id="DejaVuSans-Bold-73" d="M 3272 3391 
L 3272 2541 
Q 2913 2691 2578 2766 
Q 2244 2841 1947 2841 
Q 1628 2841 1473 2761 
Q 1319 2681 1319 2516 
Q 1319 2381 1436 2309 
Q 1553 2238 1856 2203 
L 2053 2175 
Q 2913 2066 3209 1816 
Q 3506 1566 3506 1031 
Q 3506 472 3093 190 
Q 2681 -91 1863 -91 
Q 1516 -91 1145 -36 
Q 775 19 384 128 
L 384 978 
Q 719 816 1070 734 
Q 1422 653 1784 653 
Q 2113 653 2278 743 
Q 2444 834 2444 1013 
Q 2444 1163 2330 1236 
Q 2216 1309 1875 1350 
L 1678 1375 
Q 931 1469 631 1722 
Q 331 1975 331 2491 
Q 331 3047 712 3315 
Q 1094 3584 1881 3584 
Q 2191 3584 2531 3537 
Q 2872 3491 3272 3391 
z
" transform="scale(0.015625)"/>
       <path id="DejaVuSans-Bold-69" d="M 538 3500 
L 1656 3500 
L 1656 0 
L 538 0 
L 538 3500 
z
M 538 4863 
L 1656 4863 
L 1656 3950 
L 538 3950 
L 538 4863 
z
" transform="scale(0.015625)"/>
       <path id="DejaVuSans-Bold-6d" d="M 3781 2919 
Q 3994 3244 4286 3414 
Q 4578 3584 4928 3584 
Q 5531 3584 5847 3212 
Q 6163 2841 6163 2131 
L 6163 0 
L 5038 0 
L 5038 1825 
Q 5041 1866 5042 1909 
Q 5044 1953 5044 2034 
Q 5044 2406 4934 2573 
Q 4825 2741 4581 2741 
Q 4263 2741 4089 2478 
Q 3916 2216 3909 1719 
L 3909 0 
L 2784 0 
L 2784 1825 
Q 2784 2406 2684 2573 
Q 2584 2741 2328 2741 
Q 2006 2741 1831 2477 
Q 1656 2213 1656 1722 
L 1656 0 
L 531 0 
L 531 3500 
L 1656 3500 
L 1656 2988 
Q 1863 3284 2130 3434 
Q 2397 3584 2719 3584 
Q 3081 3584 3359 3409 
Q 3638 3234 3781 2919 
z
" transform="scale(0.015625)"/>
       <path id="DejaVuSans-Bold-75" d="M 500 1363 
L 500 3500 
L 1625 3500 
L 1625 3150 
Q 1625 2866 1622 2436 
Q 1619 2006 1619 1863 
Q 1619 1441 1641 1255 
Q 1663 1069 1716 984 
Q 1784 875 1895 815 
Q 2006 756 2150 756 
Q 2500 756 2700 1025 
Q 2900 1294 2900 1772 
L 2900 3500 
L 4019 3500 
L 4019 0 
L 2900 0 
L 2900 506 
Q 2647 200 2364 54 
Q 2081 -91 1741 -91 
Q 1134 -91 817 281 
Q 500 653 500 1363 
z
" transform="scale(0.015625)"/>
       <path id="DejaVuSans-Bold-6c" d="M 538 4863 
L 1656 4863 
L 1656 0 
L 538 0 
L 538 4863 
z
" transform="scale(0.015625)"/>
       <path id="DejaVuSans-Bold-61" d="M 2106 1575 
Q 1756 1575 1579 1456 
Q 1403 1338 1403 1106 
Q 1403 894 1545 773 
Q 1688 653 1941 653 
Q 2256 653 2472 879 
Q 2688 1106 2688 1447 
L 2688 1575 
L 2106 1575 
z
M 3816 1997 
L 3816 0 
L 2688 0 
L 2688 519 
Q 2463 200 2181 54 
Q 1900 -91 1497 -91 
Q 953 -91 614 226 
Q 275 544 275 1050 
Q 275 1666 698 1953 
Q 1122 2241 2028 2241 
L 2688 2241 
L 2688 2328 
Q 2688 2594 2478 2717 
Q 2269 2841 1825 2841 
Q 1466 2841 1156 2769 
Q 847 2697 581 2553 
L 581 3406 
Q 941 3494 1303 3539 
Q 1666 3584 2028 3584 
Q 2975 3584 3395 3211 
Q 3816 2838 3816 1997 
z
" transform="scale(0.015625)"/>
       <path id="DejaVuSans-Bold-74" d="M 1759 4494 
L 1759 3500 
L 2913 3500 
L 2913 2700 
L 1759 2700 
L 1759 1216 
Q 1759 972 1856 886 
Q 1953 800 2241 800 
L 2816 800 
L 2816 0 
L 1856 0 
Q 1194 0 917 276 
Q 641 553 641 1216 
L 641 2700 
L 84 2700 
L 84 3500 
L 641 3500 
L 641 4494 
L 1759 4494 
z
" transform="scale(0.015625)"/>
       <path id="DejaVuSans-Bold-6f" d="M 2203 2784 
Q 1831 2784 1636 2517 
Q 1441 2250 1441 1747 
Q 1441 1244 1636 976 
Q 1831 709 2203 709 
Q 2569 709 2762 976 
Q 2956 1244 2956 1747 
Q 2956 2250 2762 2517 
Q 2569 2784 2203 2784 
z
M 2203 3584 
Q 3106 3584 3614 3096 
Q 4122 2609 4122 1747 
Q 4122 884 3614 396 
Q 3106 -91 2203 -91 
Q 1297 -91 786 396 
Q 275 884 275 1747 
Q 275 2609 786 3096 
Q 1297 3584 2203 3584 
z
" transform="scale(0.015625)"/>
       <path id="DejaVuSans-Bold-6e" d="M 4056 2131 
L 4056 0 
L 2931 0 
L 2931 347 
L 2931 1631 
Q 2931 2084 2911 2256 
Q 2891 2428 2841 2509 
Q 2775 2619 2662 2680 
Q 2550 2741 2406 2741 
Q 2056 2741 1856 2470 
Q 1656 2200 1656 1722 
L 1656 0 
L 538 0 
L 538 3500 
L 1656 3500 
L 1656 2988 
Q 1909 3294 2193 3439 
Q 2478 3584 2822 3584 
Q 3428 3584 3742 3212 
Q 4056 2841 4056 2131 
z
" transform="scale(0.015625)"/>
       <path id="DejaVuSans-Bold-65" d="M 4031 1759 
L 4031 1441 
L 1416 1441 
Q 1456 1047 1700 850 
Q 1944 653 2381 653 
Q 2734 653 3104 758 
Q 3475 863 3866 1075 
L 3866 213 
Q 3469 63 3072 -14 
Q 2675 -91 2278 -91 
Q 1328 -91 801 392 
Q 275 875 275 1747 
Q 275 2603 792 3093 
Q 1309 3584 2216 3584 
Q 3041 3584 3536 3087 
Q 4031 2591 4031 1759 
z
M 2881 2131 
Q 2881 2450 2695 2645 
Q 2509 2841 2209 2841 
Q 1884 2841 1681 2658 
Q 1478 2475 1428 2131 
L 2881 2131 
z
" transform="scale(0.015625)"/>
       <path id="DejaVuSans-Bold-70" d="M 1656 506 
L 1656 -1331 
L 538 -1331 
L 538 3500 
L 1656 3500 
L 1656 2988 
Q 1888 3294 2169 3439 
Q 2450 3584 2816 3584 
Q 3463 3584 3878 3070 
Q 4294 2556 4294 1747 
Q 4294 938 3878 423 
Q 3463 -91 2816 -91 
Q 2450 -91 2169 54 
Q 1888 200 1656 506 
z
M 2400 2772 
Q 2041 2772 1848 2508 
Q 1656 2244 1656 1747 
Q 1656 1250 1848 986 
Q 2041 722 2400 722 
Q 2759 722 2948 984 
Q 3138 1247 3138 1747 
Q 3138 2247 2948 2509 
Q 2759 2772 2400 2772 
z
" transform="scale(0.015625)"/>
       <path id="DejaVuSans-28" d="M 1984 4856 
Q 1566 4138 1362 3434 
Q 1159 2731 1159 2009 
Q 1159 1288 1364 580 
Q 1569 -128 1984 -844 
L 1484 -844 
Q 1016 -109 783 600 
Q 550 1309 550 2009 
Q 550 2706 781 3412 
Q 1013 4119 1484 4856 
L 1984 4856 
z
" transform="scale(0.015625)"/>
       <path id="DejaVuSans-2212" d="M 678 2272 
L 4684 2272 
L 4684 1741 
L 678 1741 
L 678 2272 
z
" transform="scale(0.015625)"/>
       <path id="DejaVuSans-29" d="M 513 4856 
L 1013 4856 
Q 1481 4119 1714 3412 
Q 1947 2706 1947 2009 
Q 1947 1309 1714 600 
Q 1481 -109 1013 -844 
L 513 -844 
Q 928 -128 1133 580 
Q 1338 1288 1338 2009 
Q 1338 2731 1133 3434 
Q 928 4138 513 4856 
z
" transform="scale(0.015625)"/>
      </defs>
      <use xlink:href="#DejaVuSans-Bold-73" transform="translate(0 0.015625)"/>
      <use xlink:href="#DejaVuSans-Bold-69" transform="translate(59.521484 0.015625)"/>
      <use xlink:href="#DejaVuSans-Bold-6d" transform="translate(93.798828 0.015625)"/>
      <use xlink:href="#DejaVuSans-Bold-75" transform="translate(197.998047 0.015625)"/>
      <use xlink:href="#DejaVuSans-Bold-6c" transform="translate(269.189453 0.015625)"/>
      <use xlink:href="#DejaVuSans-Bold-61" transform="translate(303.466797 0.015625)"/>
      <use xlink:href="#DejaVuSans-Bold-74" transform="translate(370.947266 0.015625)"/>
      <use xlink:href="#DejaVuSans-Bold-69" transform="translate(418.75 0.015625)"/>
      <use xlink:href="#DejaVuSans-Bold-6f" transform="translate(453.027344 0.015625)"/>
      <use xlink:href="#DejaVuSans-Bold-6e" transform="translate(521.728516 0.015625)"/>
      <use xlink:href="#DejaVuSans-Bold-73" transform="translate(625.3903 0.015625)"/>
      <use xlink:href="#DejaVuSans-Bold-74" transform="translate(684.911785 0.015625)"/>
      <use xlink:href="#DejaVuSans-Bold-65" transform="translate(732.714519 0.015625)"/>
      <use xlink:href="#DejaVuSans-Bold-70" transform="translate(800.536785 0.015625)"/>
      <use xlink:href="#DejaVuSans-Bold-73" transform="translate(872.118816 0.015625)"/>
      <use xlink:href="#DejaVuSans-28" transform="translate(964.110679 0.015625)"/>
      <use xlink:href="#DejaVuSans-2212" transform="translate(1003.124351 0.015625)"/>
      <use xlink:href="#DejaVuSans-29" transform="translate(1086.913413 0.015625)"/>
     </g>
    </g>
   </g>
   <g id="matplotlib.axis_2">
    <g id="ytick_1">
     <g id="line2d_7">
      <defs>
       <path id="me00c0bc5c8" d="M 0 0 
L -3.5 0 
" style="stroke: #000000; stroke-width: 0.8"/>
      </defs>
      <g>
       <use xlink:href="#me00c0bc5c8" x="40.769844" y="170.152047" style="stroke: #000000; stroke-width: 0.8"/>
      </g>
     </g>
     <g id="text_8">
      <!-- 0.2 -->
      <g transform="translate(21.259844 173.373063) scale(0.09 -0.09)">
       <defs>
        <path id="ArialMT-2e" d="M 581 0 
L 581 641 
L 1222 641 
L 1222 0 
L 581 0 
z
" transform="scale(0.015625)"/>
       </defs>
       <use xlink:href="#ArialMT-30"/>
       <use xlink:href="#ArialMT-2e" transform="translate(55.615234 0)"/>
       <use xlink:href="#ArialMT-32" transform="translate(83.398438 0)"/>
      </g>
     </g>
    </g>
    <g id="ytick_2">
     <g id="line2d_8">
      <g>
       <use xlink:href="#me00c0bc5c8" x="40.769844" y="142.716355" style="stroke: #000000; stroke-width: 0.8"/>
      </g>
     </g>
     <g id="text_9">
      <!-- 0.4 -->
      <g transform="translate(21.259844 145.937371) scale(0.09 -0.09)">
       <use xlink:href="#ArialMT-30"/>
       <use xlink:href="#ArialMT-2e" transform="translate(55.615234 0)"/>
       <use xlink:href="#ArialMT-34" transform="translate(83.398438 0)"/>
      </g>
     </g>
    </g>
    <g id="ytick_3">
     <g id="line2d_9">
      <g>
       <use xlink:href="#me00c0bc5c8" x="40.769844" y="115.280664" style="stroke: #000000; stroke-width: 0.8"/>
      </g>
     </g>
     <g id="text_10">
      <!-- 0.6 -->
      <g transform="translate(21.259844 118.501679) scale(0.09 -0.09)">
       <defs>
        <path id="ArialMT-36" d="M 3184 3459 
L 2625 3416 
Q 2550 3747 2413 3897 
Q 2184 4138 1850 4138 
Q 1581 4138 1378 3988 
Q 1113 3794 959 3422 
Q 806 3050 800 2363 
Q 1003 2672 1297 2822 
Q 1591 2972 1913 2972 
Q 2475 2972 2870 2558 
Q 3266 2144 3266 1488 
Q 3266 1056 3080 686 
Q 2894 316 2569 119 
Q 2244 -78 1831 -78 
Q 1128 -78 684 439 
Q 241 956 241 2144 
Q 241 3472 731 4075 
Q 1159 4600 1884 4600 
Q 2425 4600 2770 4297 
Q 3116 3994 3184 3459 
z
M 888 1484 
Q 888 1194 1011 928 
Q 1134 663 1356 523 
Q 1578 384 1822 384 
Q 2178 384 2434 671 
Q 2691 959 2691 1453 
Q 2691 1928 2437 2201 
Q 2184 2475 1800 2475 
Q 1419 2475 1153 2201 
Q 888 1928 888 1484 
z
" transform="scale(0.015625)"/>
       </defs>
       <use xlink:href="#ArialMT-30"/>
       <use xlink:href="#ArialMT-2e" transform="translate(55.615234 0)"/>
       <use xlink:href="#ArialMT-36" transform="translate(83.398438 0)"/>
      </g>
     </g>
    </g>
    <g id="ytick_4">
     <g id="line2d_10">
      <g>
       <use xlink:href="#me00c0bc5c8" x="40.769844" y="87.844972" style="stroke: #000000; stroke-width: 0.8"/>
      </g>
     </g>
     <g id="text_11">
      <!-- 0.8 -->
      <g transform="translate(21.259844 91.065987) scale(0.09 -0.09)">
       <defs>
        <path id="ArialMT-38" d="M 1131 2484 
Q 781 2613 612 2850 
Q 444 3088 444 3419 
Q 444 3919 803 4259 
Q 1163 4600 1759 4600 
Q 2359 4600 2725 4251 
Q 3091 3903 3091 3403 
Q 3091 3084 2923 2848 
Q 2756 2613 2416 2484 
Q 2838 2347 3058 2040 
Q 3278 1734 3278 1309 
Q 3278 722 2862 322 
Q 2447 -78 1769 -78 
Q 1091 -78 675 323 
Q 259 725 259 1325 
Q 259 1772 486 2073 
Q 713 2375 1131 2484 
z
M 1019 3438 
Q 1019 3113 1228 2906 
Q 1438 2700 1772 2700 
Q 2097 2700 2305 2904 
Q 2513 3109 2513 3406 
Q 2513 3716 2298 3927 
Q 2084 4138 1766 4138 
Q 1444 4138 1231 3931 
Q 1019 3725 1019 3438 
z
M 838 1322 
Q 838 1081 952 856 
Q 1066 631 1291 507 
Q 1516 384 1775 384 
Q 2178 384 2440 643 
Q 2703 903 2703 1303 
Q 2703 1709 2433 1975 
Q 2163 2241 1756 2241 
Q 1359 2241 1098 1978 
Q 838 1716 838 1322 
z
" transform="scale(0.015625)"/>
       </defs>
       <use xlink:href="#ArialMT-30"/>
       <use xlink:href="#ArialMT-2e" transform="translate(55.615234 0)"/>
       <use xlink:href="#ArialMT-38" transform="translate(83.398438 0)"/>
      </g>
     </g>
    </g>
    <g id="ytick_5">
     <g id="line2d_11">
      <g>
       <use xlink:href="#me00c0bc5c8" x="40.769844" y="60.40928" style="stroke: #000000; stroke-width: 0.8"/>
      </g>
     </g>
     <g id="text_12">
      <!-- 1.0 -->
      <g transform="translate(21.259844 63.630296) scale(0.09 -0.09)">
       <use xlink:href="#ArialMT-31"/>
       <use xlink:href="#ArialMT-2e" transform="translate(55.615234 0)"/>
       <use xlink:href="#ArialMT-30" transform="translate(83.398438 0)"/>
      </g>
     </g>
    </g>
    <g id="ytick_6">
     <g id="line2d_12">
      <g>
       <use xlink:href="#me00c0bc5c8" x="40.769844" y="32.973588" style="stroke: #000000; stroke-width: 0.8"/>
      </g>
     </g>
     <g id="text_13">
      <!-- 1.2 -->
      <g transform="translate(21.259844 36.194604) scale(0.09 -0.09)">
       <use xlink:href="#ArialMT-31"/>
       <use xlink:href="#ArialMT-2e" transform="translate(55.615234 0)"/>
       <use xlink:href="#ArialMT-32" transform="translate(83.398438 0)"/>
      </g>
     </g>
    </g>
    <g id="text_14">
     <!-- $\bf{number\ of\ scissions}\ \it{(-)}$ -->
     <g transform="translate(15.073594 174.789031) rotate(-90) scale(0.11 -0.11)">
      <defs>
       <path id="DejaVuSans-Bold-62" d="M 2400 722 
Q 2759 722 2948 984 
Q 3138 1247 3138 1747 
Q 3138 2247 2948 2509 
Q 2759 2772 2400 2772 
Q 2041 2772 1848 2508 
Q 1656 2244 1656 1747 
Q 1656 1250 1848 986 
Q 2041 722 2400 722 
z
M 1656 2988 
Q 1888 3294 2169 3439 
Q 2450 3584 2816 3584 
Q 3463 3584 3878 3070 
Q 4294 2556 4294 1747 
Q 4294 938 3878 423 
Q 3463 -91 2816 -91 
Q 2450 -91 2169 54 
Q 1888 200 1656 506 
L 1656 0 
L 538 0 
L 538 4863 
L 1656 4863 
L 1656 2988 
z
" transform="scale(0.015625)"/>
       <path id="DejaVuSans-Bold-72" d="M 3138 2547 
Q 2991 2616 2845 2648 
Q 2700 2681 2553 2681 
Q 2122 2681 1889 2404 
Q 1656 2128 1656 1613 
L 1656 0 
L 538 0 
L 538 3500 
L 1656 3500 
L 1656 2925 
Q 1872 3269 2151 3426 
Q 2431 3584 2822 3584 
Q 2878 3584 2943 3579 
Q 3009 3575 3134 3559 
L 3138 2547 
z
" transform="scale(0.015625)"/>
       <path id="DejaVuSans-Bold-66" d="M 2841 4863 
L 2841 4128 
L 2222 4128 
Q 1984 4128 1890 4042 
Q 1797 3956 1797 3744 
L 1797 3500 
L 2753 3500 
L 2753 2700 
L 1797 2700 
L 1797 0 
L 678 0 
L 678 2700 
L 122 2700 
L 122 3500 
L 678 3500 
L 678 3744 
Q 678 4316 997 4589 
Q 1316 4863 1984 4863 
L 2841 4863 
z
" transform="scale(0.015625)"/>
       <path id="DejaVuSans-Bold-63" d="M 3366 3391 
L 3366 2478 
Q 3138 2634 2908 2709 
Q 2678 2784 2431 2784 
Q 1963 2784 1702 2511 
Q 1441 2238 1441 1747 
Q 1441 1256 1702 982 
Q 1963 709 2431 709 
Q 2694 709 2930 787 
Q 3166 866 3366 1019 
L 3366 103 
Q 3103 6 2833 -42 
Q 2563 -91 2291 -91 
Q 1344 -91 809 395 
Q 275 881 275 1747 
Q 275 2613 809 3098 
Q 1344 3584 2291 3584 
Q 2566 3584 2833 3536 
Q 3100 3488 3366 3391 
z
" transform="scale(0.015625)"/>
      </defs>
      <use xlink:href="#DejaVuSans-Bold-6e" transform="translate(0 0.015625)"/>
      <use xlink:href="#DejaVuSans-Bold-75" transform="translate(71.191406 0.015625)"/>
      <use xlink:href="#DejaVuSans-Bold-6d" transform="translate(142.382812 0.015625)"/>
      <use xlink:href="#DejaVuSans-Bold-62" transform="translate(246.582031 0.015625)"/>
      <use xlink:href="#DejaVuSans-Bold-65" transform="translate(318.164062 0.015625)"/>
      <use xlink:href="#DejaVuSans-Bold-72" transform="translate(385.986328 0.015625)"/>
      <use xlink:href="#DejaVuSans-Bold-6f" transform="translate(467.773113 0.015625)"/>
      <use xlink:href="#DejaVuSans-Bold-66" transform="translate(536.474285 0.015625)"/>
      <use xlink:href="#DejaVuSans-Bold-73" transform="translate(612.450522 0.015625)"/>
      <use xlink:href="#DejaVuSans-Bold-63" transform="translate(671.972007 0.015625)"/>
      <use xlink:href="#DejaVuSans-Bold-69" transform="translate(731.249351 0.015625)"/>
      <use xlink:href="#DejaVuSans-Bold-73" transform="translate(765.526694 0.015625)"/>
      <use xlink:href="#DejaVuSans-Bold-73" transform="translate(825.048179 0.015625)"/>
      <use xlink:href="#DejaVuSans-Bold-69" transform="translate(884.569663 0.015625)"/>
      <use xlink:href="#DejaVuSans-Bold-6f" transform="translate(918.847007 0.015625)"/>
      <use xlink:href="#DejaVuSans-Bold-6e" transform="translate(987.548179 0.015625)"/>
      <use xlink:href="#DejaVuSans-Bold-73" transform="translate(1058.739585 0.015625)"/>
      <use xlink:href="#DejaVuSans-28" transform="translate(1150.731448 0.015625)"/>
      <use xlink:href="#DejaVuSans-2212" transform="translate(1189.74512 0.015625)"/>
      <use xlink:href="#DejaVuSans-29" transform="translate(1273.534182 0.015625)"/>
     </g>
    </g>
    <g id="text_15">
     <!-- 1e18 -->
     <g transform="translate(40.769844 13.642031) scale(0.09 -0.09)">
      <defs>
       <path id="ArialMT-65" d="M 2694 1069 
L 3275 997 
Q 3138 488 2766 206 
Q 2394 -75 1816 -75 
Q 1088 -75 661 373 
Q 234 822 234 1631 
Q 234 2469 665 2931 
Q 1097 3394 1784 3394 
Q 2450 3394 2872 2941 
Q 3294 2488 3294 1666 
Q 3294 1616 3291 1516 
L 816 1516 
Q 847 969 1125 678 
Q 1403 388 1819 388 
Q 2128 388 2347 550 
Q 2566 713 2694 1069 
z
M 847 1978 
L 2700 1978 
Q 2663 2397 2488 2606 
Q 2219 2931 1791 2931 
Q 1403 2931 1139 2672 
Q 875 2413 847 1978 
z
" transform="scale(0.015625)"/>
      </defs>
      <use xlink:href="#ArialMT-31"/>
      <use xlink:href="#ArialMT-65" transform="translate(55.615234 0)"/>
      <use xlink:href="#ArialMT-31" transform="translate(111.230469 0)"/>
      <use xlink:href="#ArialMT-38" transform="translate(166.845703 0)"/>
     </g>
    </g>
   </g>
   <g id="line2d_13">
    <path d="M 48.632571 180.694031 
L 51.841847 163.373205 
L 55.051124 146.554248 
L 58.2604 130.915022 
L 61.469677 116.838717 
L 64.678953 104.457717 
L 67.88823 93.731473 
L 71.097506 84.521624 
L 74.306783 76.648258 
L 77.516059 69.925212 
L 80.725335 64.178818 
L 83.934612 59.255834 
L 87.143888 55.025233 
L 90.353165 51.376948 
L 93.562441 48.219373 
L 96.771718 45.476582 
L 99.980994 43.085682 
L 103.19027 40.994509 
L 106.399547 39.159669 
L 109.608823 37.54494 
L 112.8181 36.11996 
L 116.027376 34.85917 
L 119.236653 33.740957 
L 122.445929 32.74697 
L 125.655206 31.861561 
L 128.864482 31.071327 
L 132.073758 30.364752 
L 135.283035 29.731898 
L 138.492311 29.164163 
L 141.701588 28.654076 
L 144.910864 28.195127 
L 148.120141 27.78163 
L 151.329417 27.408605 
L 154.538693 27.071678 
L 157.74797 26.767 
L 160.957246 26.491175 
L 164.166523 26.241202 
L 167.375799 26.014425 
L 170.585076 25.808485 
L 173.794352 25.621289 
L 177.003629 25.450974 
L 180.212905 25.295877 
L 183.422181 25.154516 
L 186.631458 25.025567 
L 189.840734 24.907845 
L 193.050011 24.800286 
L 196.259287 24.701939 
L 199.468564 24.611947 
L 202.67784 24.529542 
L 205.887116 24.454031 
" clip-path="url(#p1e704312c9)" style="fill: none; stroke: #46085c; stroke-width: 1.5; stroke-linecap: square"/>
    <defs>
     <path id="m05fb629597" d="M 0 3 
C 0.795609 3 1.55874 2.683901 2.12132 2.12132 
C 2.683901 1.55874 3 0.795609 3 0 
C 3 -0.795609 2.683901 -1.55874 2.12132 -2.12132 
C 1.55874 -2.683901 0.795609 -3 0 -3 
C -0.795609 -3 -1.55874 -2.683901 -2.12132 -2.12132 
C -2.683901 -1.55874 -3 -0.795609 -3 0 
C -3 0.795609 -2.683901 1.55874 -2.12132 2.12132 
C -1.55874 2.683901 -0.795609 3 0 3 
z
" style="stroke: #46085c"/>
    </defs>
    <g clip-path="url(#p1e704312c9)">
     <use xlink:href="#m05fb629597" x="48.632571" y="180.694031" style="fill: #46085c; stroke: #46085c"/>
     <use xlink:href="#m05fb629597" x="51.841847" y="163.373205" style="fill: #46085c; stroke: #46085c"/>
     <use xlink:href="#m05fb629597" x="55.051124" y="146.554248" style="fill: #46085c; stroke: #46085c"/>
     <use xlink:href="#m05fb629597" x="58.2604" y="130.915022" style="fill: #46085c; stroke: #46085c"/>
     <use xlink:href="#m05fb629597" x="61.469677" y="116.838717" style="fill: #46085c; stroke: #46085c"/>
     <use xlink:href="#m05fb629597" x="64.678953" y="104.457717" style="fill: #46085c; stroke: #46085c"/>
     <use xlink:href="#m05fb629597" x="67.88823" y="93.731473" style="fill: #46085c; stroke: #46085c"/>
     <use xlink:href="#m05fb629597" x="71.097506" y="84.521624" style="fill: #46085c; stroke: #46085c"/>
     <use xlink:href="#m05fb629597" x="74.306783" y="76.648258" style="fill: #46085c; stroke: #46085c"/>
     <use xlink:href="#m05fb629597" x="77.516059" y="69.925212" style="fill: #46085c; stroke: #46085c"/>
     <use xlink:href="#m05fb629597" x="80.725335" y="64.178818" style="fill: #46085c; stroke: #46085c"/>
     <use xlink:href="#m05fb629597" x="83.934612" y="59.255834" style="fill: #46085c; stroke: #46085c"/>
     <use xlink:href="#m05fb629597" x="87.143888" y="55.025233" style="fill: #46085c; stroke: #46085c"/>
     <use xlink:href="#m05fb629597" x="90.353165" y="51.376948" style="fill: #46085c; stroke: #46085c"/>
     <use xlink:href="#m05fb629597" x="93.562441" y="48.219373" style="fill: #46085c; stroke: #46085c"/>
     <use xlink:href="#m05fb629597" x="96.771718" y="45.476582" style="fill: #46085c; stroke: #46085c"/>
     <use xlink:href="#m05fb629597" x="99.980994" y="43.085682" style="fill: #46085c; stroke: #46085c"/>
     <use xlink:href="#m05fb629597" x="103.19027" y="40.994509" style="fill: #46085c; stroke: #46085c"/>
     <use xlink:href="#m05fb629597" x="106.399547" y="39.159669" style="fill: #46085c; stroke: #46085c"/>
     <use xlink:href="#m05fb629597" x="109.608823" y="37.54494" style="fill: #46085c; stroke: #46085c"/>
     <use xlink:href="#m05fb629597" x="112.8181" y="36.11996" style="fill: #46085c; stroke: #46085c"/>
     <use xlink:href="#m05fb629597" x="116.027376" y="34.85917" style="fill: #46085c; stroke: #46085c"/>
     <use xlink:href="#m05fb629597" x="119.236653" y="33.740957" style="fill: #46085c; stroke: #46085c"/>
     <use xlink:href="#m05fb629597" x="122.445929" y="32.74697" style="fill: #46085c; stroke: #46085c"/>
     <use xlink:href="#m05fb629597" x="125.655206" y="31.861561" style="fill: #46085c; stroke: #46085c"/>
     <use xlink:href="#m05fb629597" x="128.864482" y="31.071327" style="fill: #46085c; stroke: #46085c"/>
     <use xlink:href="#m05fb629597" x="132.073758" y="30.364752" style="fill: #46085c; stroke: #46085c"/>
     <use xlink:href="#m05fb629597" x="135.283035" y="29.731898" style="fill: #46085c; stroke: #46085c"/>
     <use xlink:href="#m05fb629597" x="138.492311" y="29.164163" style="fill: #46085c; stroke: #46085c"/>
     <use xlink:href="#m05fb629597" x="141.701588" y="28.654076" style="fill: #46085c; stroke: #46085c"/>
     <use xlink:href="#m05fb629597" x="144.910864" y="28.195127" style="fill: #46085c; stroke: #46085c"/>
     <use xlink:href="#m05fb629597" x="148.120141" y="27.78163" style="fill: #46085c; stroke: #46085c"/>
     <use xlink:href="#m05fb629597" x="151.329417" y="27.408605" style="fill: #46085c; stroke: #46085c"/>
     <use xlink:href="#m05fb629597" x="154.538693" y="27.071678" style="fill: #46085c; stroke: #46085c"/>
     <use xlink:href="#m05fb629597" x="157.74797" y="26.767" style="fill: #46085c; stroke: #46085c"/>
     <use xlink:href="#m05fb629597" x="160.957246" y="26.491175" style="fill: #46085c; stroke: #46085c"/>
     <use xlink:href="#m05fb629597" x="164.166523" y="26.241202" style="fill: #46085c; stroke: #46085c"/>
     <use xlink:href="#m05fb629597" x="167.375799" y="26.014425" style="fill: #46085c; stroke: #46085c"/>
     <use xlink:href="#m05fb629597" x="170.585076" y="25.808485" style="fill: #46085c; stroke: #46085c"/>
     <use xlink:href="#m05fb629597" x="173.794352" y="25.621289" style="fill: #46085c; stroke: #46085c"/>
     <use xlink:href="#m05fb629597" x="177.003629" y="25.450974" style="fill: #46085c; stroke: #46085c"/>
     <use xlink:href="#m05fb629597" x="180.212905" y="25.295877" style="fill: #46085c; stroke: #46085c"/>
     <use xlink:href="#m05fb629597" x="183.422181" y="25.154516" style="fill: #46085c; stroke: #46085c"/>
     <use xlink:href="#m05fb629597" x="186.631458" y="25.025567" style="fill: #46085c; stroke: #46085c"/>
     <use xlink:href="#m05fb629597" x="189.840734" y="24.907845" style="fill: #46085c; stroke: #46085c"/>
     <use xlink:href="#m05fb629597" x="193.050011" y="24.800286" style="fill: #46085c; stroke: #46085c"/>
     <use xlink:href="#m05fb629597" x="196.259287" y="24.701939" style="fill: #46085c; stroke: #46085c"/>
     <use xlink:href="#m05fb629597" x="199.468564" y="24.611947" style="fill: #46085c; stroke: #46085c"/>
     <use xlink:href="#m05fb629597" x="202.67784" y="24.529542" style="fill: #46085c; stroke: #46085c"/>
     <use xlink:href="#m05fb629597" x="205.887116" y="24.454031" style="fill: #46085c; stroke: #46085c"/>
    </g>
   </g>
   <g id="patch_3">
    <path d="M 40.769844 188.506031 
L 40.769844 16.642031 
" style="fill: none; stroke: #000000; stroke-width: 0.8; stroke-linejoin: miter; stroke-linecap: square"/>
   </g>
   <g id="patch_4">
    <path d="M 213.749844 188.506031 
L 213.749844 16.642031 
" style="fill: none; stroke: #000000; stroke-width: 0.8; stroke-linejoin: miter; stroke-linecap: square"/>
   </g>
   <g id="patch_5">
    <path d="M 40.769844 188.506031 
L 213.749844 188.506031 
" style="fill: none; stroke: #000000; stroke-width: 0.8; stroke-linejoin: miter; stroke-linecap: square"/>
   </g>
   <g id="patch_6">
    <path d="M 40.769844 16.642031 
L 213.749844 16.642031 
" style="fill: none; stroke: #000000; stroke-width: 0.8; stroke-linejoin: miter; stroke-linecap: square"/>
   </g>
  </g>
 </g>
 <defs>
  <clipPath id="p1e704312c9">
   <rect x="40.769844" y="16.642031" width="172.98" height="171.864"/>
  </clipPath>
 </defs>
</svg>
