<?xml version="1.0" encoding="utf-8" standalone="no"?>
<!DOCTYPE svg PUBLIC "-//W3C//DTD SVG 1.1//EN"
  "http://www.w3.org/Graphics/SVG/1.1/DTD/svg11.dtd">
<svg xmlns:xlink="http://www.w3.org/1999/xlink" width="508.767266pt" height="505.852031pt" viewBox="0 0 508.767266 505.852031" xmlns="http://www.w3.org/2000/svg" version="1.1">
 <metadata>
  <rdf:RDF xmlns:dc="http://purl.org/dc/elements/1.1/" xmlns:cc="http://creativecommons.org/ns#" xmlns:rdf="http://www.w3.org/1999/02/22-rdf-syntax-ns#">
   <cc:Work>
    <dc:type rdf:resource="http://purl.org/dc/dcmitype/StillImage"/>
    <dc:date>2025-09-22T10:23:21.967828</dc:date>
    <dc:format>image/svg+xml</dc:format>
    <dc:creator>
     <cc:Agent>
      <dc:title>Matplotlib v3.9.2, https://matplotlib.org/</dc:title>
     </cc:Agent>
    </dc:creator>
   </cc:Work>
  </rdf:RDF>
 </metadata>
 <defs>
  <style type="text/css">*{stroke-linejoin: round; stroke-linecap: butt}</style>
 </defs>
 <g id="figure_1">
  <g id="patch_1">
   <path d="M 0 505.852031 
L 508.767266 505.852031 
L 508.767266 0 
L 0 0 
L 0 505.852031 
z
" style="fill: none"/>
  </g>
  <g id="axes_1">
   <g id="patch_2">
    <path d="M 51.46 224.671094 
L 494.06 224.671094 
L 494.06 19.751719 
L 51.46 19.751719 
L 51.46 224.671094 
z
" style="fill: none"/>
   </g>
   <g id="matplotlib.axis_1">
    <g id="xtick_1">
     <g id="line2d_1">
      <defs>
       <path id="mfc3c9a44e6" d="M 0 0 
L 0 3.5 
" style="stroke: #000000; stroke-width: 0.8"/>
      </defs>
      <g>
       <use xlink:href="#mfc3c9a44e6" x="51.46" y="224.671094" style="stroke: #000000; stroke-width: 0.8"/>
      </g>
     </g>
     <g id="text_1">
      <!-- 0 -->
      <g transform="translate(48.957578 238.113125) scale(0.09 -0.09)">
       <defs>
        <path id="ArialMT-30" d="M 266 2259 
Q 266 3072 433 3567 
Q 600 4063 929 4331 
Q 1259 4600 1759 4600 
Q 2128 4600 2406 4451 
Q 2684 4303 2865 4023 
Q 3047 3744 3150 3342 
Q 3253 2941 3253 2259 
Q 3253 1453 3087 958 
Q 2922 463 2592 192 
Q 2263 -78 1759 -78 
Q 1097 -78 719 397 
Q 266 969 266 2259 
z
M 844 2259 
Q 844 1131 1108 757 
Q 1372 384 1759 384 
Q 2147 384 2411 759 
Q 2675 1134 2675 2259 
Q 2675 3391 2411 3762 
Q 2147 4134 1753 4134 
Q 1366 4134 1134 3806 
Q 844 3388 844 2259 
z
" transform="scale(0.015625)"/>
       </defs>
       <use xlink:href="#ArialMT-30"/>
      </g>
     </g>
    </g>
    <g id="xtick_2">
     <g id="line2d_2">
      <g>
       <use xlink:href="#mfc3c9a44e6" x="139.98" y="224.671094" style="stroke: #000000; stroke-width: 0.8"/>
      </g>
     </g>
     <g id="text_2">
      <!-- 100 -->
      <g transform="translate(132.472734 238.113125) scale(0.09 -0.09)">
       <defs>
        <path id="ArialMT-31" d="M 2384 0 
L 1822 0 
L 1822 3584 
Q 1619 3391 1289 3197 
Q 959 3003 697 2906 
L 697 3450 
Q 1169 3672 1522 3987 
Q 1875 4303 2022 4600 
L 2384 4600 
L 2384 0 
z
" transform="scale(0.015625)"/>
       </defs>
       <use xlink:href="#ArialMT-31"/>
       <use xlink:href="#ArialMT-30" x="55.615234"/>
       <use xlink:href="#ArialMT-30" x="111.230469"/>
      </g>
     </g>
    </g>
    <g id="xtick_3">
     <g id="line2d_3">
      <g>
       <use xlink:href="#mfc3c9a44e6" x="228.5" y="224.671094" style="stroke: #000000; stroke-width: 0.8"/>
      </g>
     </g>
     <g id="text_3">
      <!-- 200 -->
      <g transform="translate(220.992734 238.113125) scale(0.09 -0.09)">
       <defs>
        <path id="ArialMT-32" d="M 3222 541 
L 3222 0 
L 194 0 
Q 188 203 259 391 
Q 375 700 629 1000 
Q 884 1300 1366 1694 
Q 2113 2306 2375 2664 
Q 2638 3022 2638 3341 
Q 2638 3675 2398 3904 
Q 2159 4134 1775 4134 
Q 1369 4134 1125 3890 
Q 881 3647 878 3216 
L 300 3275 
Q 359 3922 746 4261 
Q 1134 4600 1788 4600 
Q 2447 4600 2831 4234 
Q 3216 3869 3216 3328 
Q 3216 3053 3103 2787 
Q 2991 2522 2730 2228 
Q 2469 1934 1863 1422 
Q 1356 997 1212 845 
Q 1069 694 975 541 
L 3222 541 
z
" transform="scale(0.015625)"/>
       </defs>
       <use xlink:href="#ArialMT-32"/>
       <use xlink:href="#ArialMT-30" x="55.615234"/>
       <use xlink:href="#ArialMT-30" x="111.230469"/>
      </g>
     </g>
    </g>
    <g id="xtick_4">
     <g id="line2d_4">
      <g>
       <use xlink:href="#mfc3c9a44e6" x="317.02" y="224.671094" style="stroke: #000000; stroke-width: 0.8"/>
      </g>
     </g>
     <g id="text_4">
      <!-- 300 -->
      <g transform="translate(309.512734 238.113125) scale(0.09 -0.09)">
       <defs>
        <path id="ArialMT-33" d="M 269 1209 
L 831 1284 
Q 928 806 1161 595 
Q 1394 384 1728 384 
Q 2125 384 2398 659 
Q 2672 934 2672 1341 
Q 2672 1728 2419 1979 
Q 2166 2231 1775 2231 
Q 1616 2231 1378 2169 
L 1441 2663 
Q 1497 2656 1531 2656 
Q 1891 2656 2178 2843 
Q 2466 3031 2466 3422 
Q 2466 3731 2256 3934 
Q 2047 4138 1716 4138 
Q 1388 4138 1169 3931 
Q 950 3725 888 3313 
L 325 3413 
Q 428 3978 793 4289 
Q 1159 4600 1703 4600 
Q 2078 4600 2393 4439 
Q 2709 4278 2876 4000 
Q 3044 3722 3044 3409 
Q 3044 3113 2884 2869 
Q 2725 2625 2413 2481 
Q 2819 2388 3044 2092 
Q 3269 1797 3269 1353 
Q 3269 753 2831 336 
Q 2394 -81 1725 -81 
Q 1122 -81 723 278 
Q 325 638 269 1209 
z
" transform="scale(0.015625)"/>
       </defs>
       <use xlink:href="#ArialMT-33"/>
       <use xlink:href="#ArialMT-30" x="55.615234"/>
       <use xlink:href="#ArialMT-30" x="111.230469"/>
      </g>
     </g>
    </g>
    <g id="xtick_5">
     <g id="line2d_5">
      <g>
       <use xlink:href="#mfc3c9a44e6" x="405.54" y="224.671094" style="stroke: #000000; stroke-width: 0.8"/>
      </g>
     </g>
     <g id="text_5">
      <!-- 400 -->
      <g transform="translate(398.032734 238.113125) scale(0.09 -0.09)">
       <defs>
        <path id="ArialMT-34" d="M 2069 0 
L 2069 1097 
L 81 1097 
L 81 1613 
L 2172 4581 
L 2631 4581 
L 2631 1613 
L 3250 1613 
L 3250 1097 
L 2631 1097 
L 2631 0 
L 2069 0 
z
M 2069 1613 
L 2069 3678 
L 634 1613 
L 2069 1613 
z
" transform="scale(0.015625)"/>
       </defs>
       <use xlink:href="#ArialMT-34"/>
       <use xlink:href="#ArialMT-30" x="55.615234"/>
       <use xlink:href="#ArialMT-30" x="111.230469"/>
      </g>
     </g>
    </g>
    <g id="xtick_6">
     <g id="line2d_6">
      <g>
       <use xlink:href="#mfc3c9a44e6" x="494.06" y="224.671094" style="stroke: #000000; stroke-width: 0.8"/>
      </g>
     </g>
     <g id="text_6">
      <!-- 500 -->
      <g transform="translate(486.552734 238.113125) scale(0.09 -0.09)">
       <defs>
        <path id="ArialMT-35" d="M 266 1200 
L 856 1250 
Q 922 819 1161 601 
Q 1400 384 1738 384 
Q 2144 384 2425 690 
Q 2706 997 2706 1503 
Q 2706 1984 2436 2262 
Q 2166 2541 1728 2541 
Q 1456 2541 1237 2417 
Q 1019 2294 894 2097 
L 366 2166 
L 809 4519 
L 3088 4519 
L 3088 3981 
L 1259 3981 
L 1013 2750 
Q 1425 3038 1878 3038 
Q 2478 3038 2890 2622 
Q 3303 2206 3303 1553 
Q 3303 931 2941 478 
Q 2500 -78 1738 -78 
Q 1113 -78 717 272 
Q 322 622 266 1200 
z
" transform="scale(0.015625)"/>
       </defs>
       <use xlink:href="#ArialMT-35"/>
       <use xlink:href="#ArialMT-30" x="55.615234"/>
       <use xlink:href="#ArialMT-30" x="111.230469"/>
      </g>
     </g>
    </g>
    <g id="text_7">
     <!-- $\bf{molar\ mass}\ \it{(kg/mol)}$ -->
     <g transform="translate(223.26 250.741875) scale(0.09 -0.09)">
      <defs>
       <path id="DejaVuSans-Bold-6d" d="M 3781 2919 
Q 3994 3244 4286 3414 
Q 4578 3584 4928 3584 
Q 5531 3584 5847 3212 
Q 6163 2841 6163 2131 
L 6163 0 
L 5038 0 
L 5038 1825 
Q 5041 1866 5042 1909 
Q 5044 1953 5044 2034 
Q 5044 2406 4934 2573 
Q 4825 2741 4581 2741 
Q 4263 2741 4089 2478 
Q 3916 2216 3909 1719 
L 3909 0 
L 2784 0 
L 2784 1825 
Q 2784 2406 2684 2573 
Q 2584 2741 2328 2741 
Q 2006 2741 1831 2477 
Q 1656 2213 1656 1722 
L 1656 0 
L 531 0 
L 531 3500 
L 1656 3500 
L 1656 2988 
Q 1863 3284 2130 3434 
Q 2397 3584 2719 3584 
Q 3081 3584 3359 3409 
Q 3638 3234 3781 2919 
z
" transform="scale(0.015625)"/>
       <path id="DejaVuSans-Bold-6f" d="M 2203 2784 
Q 1831 2784 1636 2517 
Q 1441 2250 1441 1747 
Q 1441 1244 1636 976 
Q 1831 709 2203 709 
Q 2569 709 2762 976 
Q 2956 1244 2956 1747 
Q 2956 2250 2762 2517 
Q 2569 2784 2203 2784 
z
M 2203 3584 
Q 3106 3584 3614 3096 
Q 4122 2609 4122 1747 
Q 4122 884 3614 396 
Q 3106 -91 2203 -91 
Q 1297 -91 786 396 
Q 275 884 275 1747 
Q 275 2609 786 3096 
Q 1297 3584 2203 3584 
z
" transform="scale(0.015625)"/>
       <path id="DejaVuSans-Bold-6c" d="M 538 4863 
L 1656 4863 
L 1656 0 
L 538 0 
L 538 4863 
z
" transform="scale(0.015625)"/>
       <path id="DejaVuSans-Bold-61" d="M 2106 1575 
Q 1756 1575 1579 1456 
Q 1403 1338 1403 1106 
Q 1403 894 1545 773 
Q 1688 653 1941 653 
Q 2256 653 2472 879 
Q 2688 1106 2688 1447 
L 2688 1575 
L 2106 1575 
z
M 3816 1997 
L 3816 0 
L 2688 0 
L 2688 519 
Q 2463 200 2181 54 
Q 1900 -91 1497 -91 
Q 953 -91 614 226 
Q 275 544 275 1050 
Q 275 1666 698 1953 
Q 1122 2241 2028 2241 
L 2688 2241 
L 2688 2328 
Q 2688 2594 2478 2717 
Q 2269 2841 1825 2841 
Q 1466 2841 1156 2769 
Q 847 2697 581 2553 
L 581 3406 
Q 941 3494 1303 3539 
Q 1666 3584 2028 3584 
Q 2975 3584 3395 3211 
Q 3816 2838 3816 1997 
z
" transform="scale(0.015625)"/>
       <path id="DejaVuSans-Bold-72" d="M 3138 2547 
Q 2991 2616 2845 2648 
Q 2700 2681 2553 2681 
Q 2122 2681 1889 2404 
Q 1656 2128 1656 1613 
L 1656 0 
L 538 0 
L 538 3500 
L 1656 3500 
L 1656 2925 
Q 1872 3269 2151 3426 
Q 2431 3584 2822 3584 
Q 2878 3584 2943 3579 
Q 3009 3575 3134 3559 
L 3138 2547 
z
" transform="scale(0.015625)"/>
       <path id="DejaVuSans-Bold-73" d="M 3272 3391 
L 3272 2541 
Q 2913 2691 2578 2766 
Q 2244 2841 1947 2841 
Q 1628 2841 1473 2761 
Q 1319 2681 1319 2516 
Q 1319 2381 1436 2309 
Q 1553 2238 1856 2203 
L 2053 2175 
Q 2913 2066 3209 1816 
Q 3506 1566 3506 1031 
Q 3506 472 3093 190 
Q 2681 -91 1863 -91 
Q 1516 -91 1145 -36 
Q 775 19 384 128 
L 384 978 
Q 719 816 1070 734 
Q 1422 653 1784 653 
Q 2113 653 2278 743 
Q 2444 834 2444 1013 
Q 2444 1163 2330 1236 
Q 2216 1309 1875 1350 
L 1678 1375 
Q 931 1469 631 1722 
Q 331 1975 331 2491 
Q 331 3047 712 3315 
Q 1094 3584 1881 3584 
Q 2191 3584 2531 3537 
Q 2872 3491 3272 3391 
z
" transform="scale(0.015625)"/>
       <path id="DejaVuSans-28" d="M 1984 4856 
Q 1566 4138 1362 3434 
Q 1159 2731 1159 2009 
Q 1159 1288 1364 580 
Q 1569 -128 1984 -844 
L 1484 -844 
Q 1016 -109 783 600 
Q 550 1309 550 2009 
Q 550 2706 781 3412 
Q 1013 4119 1484 4856 
L 1984 4856 
z
" transform="scale(0.015625)"/>
       <path id="DejaVuSans-Oblique-6b" d="M 1172 4863 
L 1747 4863 
L 1197 2028 
L 3169 3500 
L 3916 3500 
L 1716 1825 
L 3322 0 
L 2625 0 
L 1131 1709 
L 800 0 
L 225 0 
L 1172 4863 
z
" transform="scale(0.015625)"/>
       <path id="DejaVuSans-Oblique-67" d="M 3816 3500 
L 3219 434 
Q 3047 -456 2561 -893 
Q 2075 -1331 1253 -1331 
Q 950 -1331 690 -1286 
Q 431 -1241 206 -1147 
L 313 -588 
Q 525 -725 762 -790 
Q 1000 -856 1269 -856 
Q 1816 -856 2167 -557 
Q 2519 -259 2631 300 
L 2681 563 
Q 2441 288 2122 144 
Q 1803 0 1434 0 
Q 903 0 598 351 
Q 294 703 294 1319 
Q 294 1803 478 2267 
Q 663 2731 997 3091 
Q 1219 3328 1514 3456 
Q 1809 3584 2131 3584 
Q 2484 3584 2746 3420 
Q 3009 3256 3138 2956 
L 3238 3500 
L 3816 3500 
z
M 2950 2216 
Q 2950 2641 2750 2872 
Q 2550 3103 2181 3103 
Q 1953 3103 1747 3012 
Q 1541 2922 1394 2759 
Q 1156 2491 1023 2127 
Q 891 1763 891 1375 
Q 891 944 1092 712 
Q 1294 481 1672 481 
Q 2219 481 2584 976 
Q 2950 1472 2950 2216 
z
" transform="scale(0.015625)"/>
       <path id="DejaVuSans-2f" d="M 1625 4666 
L 2156 4666 
L 531 -594 
L 0 -594 
L 1625 4666 
z
" transform="scale(0.015625)"/>
       <path id="DejaVuSans-Oblique-6d" d="M 5747 2113 
L 5338 0 
L 4763 0 
L 5166 2094 
Q 5191 2228 5203 2325 
Q 5216 2422 5216 2491 
Q 5216 2772 5059 2928 
Q 4903 3084 4622 3084 
Q 4203 3084 3875 2770 
Q 3547 2456 3450 1953 
L 3066 0 
L 2491 0 
L 2900 2094 
Q 2925 2209 2937 2307 
Q 2950 2406 2950 2484 
Q 2950 2769 2794 2926 
Q 2638 3084 2363 3084 
Q 1938 3084 1609 2770 
Q 1281 2456 1184 1953 
L 800 0 
L 225 0 
L 909 3500 
L 1484 3500 
L 1375 2956 
Q 1609 3263 1923 3423 
Q 2238 3584 2597 3584 
Q 2978 3584 3223 3384 
Q 3469 3184 3519 2828 
Q 3781 3197 4126 3390 
Q 4472 3584 4856 3584 
Q 5306 3584 5551 3325 
Q 5797 3066 5797 2591 
Q 5797 2488 5784 2364 
Q 5772 2241 5747 2113 
z
" transform="scale(0.015625)"/>
       <path id="DejaVuSans-Oblique-6f" d="M 1625 -91 
Q 1009 -91 651 289 
Q 294 669 294 1325 
Q 294 1706 417 2101 
Q 541 2497 738 2766 
Q 1047 3184 1428 3384 
Q 1809 3584 2291 3584 
Q 2888 3584 3255 3212 
Q 3622 2841 3622 2241 
Q 3622 1825 3500 1412 
Q 3378 1000 3181 728 
Q 2875 309 2494 109 
Q 2113 -91 1625 -91 
z
M 891 1344 
Q 891 869 1089 633 
Q 1288 397 1691 397 
Q 2269 397 2648 901 
Q 3028 1406 3028 2181 
Q 3028 2634 2825 2865 
Q 2622 3097 2228 3097 
Q 1903 3097 1650 2945 
Q 1397 2794 1197 2484 
Q 1050 2253 970 1956 
Q 891 1659 891 1344 
z
" transform="scale(0.015625)"/>
       <path id="DejaVuSans-Oblique-6c" d="M 1172 4863 
L 1747 4863 
L 800 0 
L 225 0 
L 1172 4863 
z
" transform="scale(0.015625)"/>
       <path id="DejaVuSans-29" d="M 513 4856 
L 1013 4856 
Q 1481 4119 1714 3412 
Q 1947 2706 1947 2009 
Q 1947 1309 1714 600 
Q 1481 -109 1013 -844 
L 513 -844 
Q 928 -128 1133 580 
Q 1338 1288 1338 2009 
Q 1338 2731 1133 3434 
Q 928 4138 513 4856 
z
" transform="scale(0.015625)"/>
      </defs>
      <use xlink:href="#DejaVuSans-Bold-6d" transform="translate(0 0.015625)"/>
      <use xlink:href="#DejaVuSans-Bold-6f" transform="translate(104.199219 0.015625)"/>
      <use xlink:href="#DejaVuSans-Bold-6c" transform="translate(172.900391 0.015625)"/>
      <use xlink:href="#DejaVuSans-Bold-61" transform="translate(207.177734 0.015625)"/>
      <use xlink:href="#DejaVuSans-Bold-72" transform="translate(274.658203 0.015625)"/>
      <use xlink:href="#DejaVuSans-Bold-6d" transform="translate(356.444988 0.015625)"/>
      <use xlink:href="#DejaVuSans-Bold-61" transform="translate(460.644207 0.015625)"/>
      <use xlink:href="#DejaVuSans-Bold-73" transform="translate(528.124675 0.015625)"/>
      <use xlink:href="#DejaVuSans-Bold-73" transform="translate(587.64616 0.015625)"/>
      <use xlink:href="#DejaVuSans-28" transform="translate(679.638022 0.015625)"/>
      <use xlink:href="#DejaVuSans-Oblique-6b" transform="translate(718.651694 0.015625)"/>
      <use xlink:href="#DejaVuSans-Oblique-67" transform="translate(776.561851 0.015625)"/>
      <use xlink:href="#DejaVuSans-2f" transform="translate(840.038413 0.015625)"/>
      <use xlink:href="#DejaVuSans-Oblique-6d" transform="translate(873.729819 0.015625)"/>
      <use xlink:href="#DejaVuSans-Oblique-6f" transform="translate(971.141929 0.015625)"/>
      <use xlink:href="#DejaVuSans-Oblique-6c" transform="translate(1032.323569 0.015625)"/>
      <use xlink:href="#DejaVuSans-29" transform="translate(1060.106772 0.015625)"/>
     </g>
    </g>
   </g>
   <g id="matplotlib.axis_2">
    <g id="ytick_1">
     <g id="line2d_7">
      <defs>
       <path id="m3585acfb41" d="M 0 0 
L -3.5 0 
" style="stroke: #000000; stroke-width: 0.8"/>
      </defs>
      <g>
       <use xlink:href="#m3585acfb41" x="51.46" y="224.671094" style="stroke: #000000; stroke-width: 0.8"/>
      </g>
     </g>
     <g id="text_8">
      <!-- 0.000 -->
      <g transform="translate(21.940313 227.892109) scale(0.09 -0.09)">
       <defs>
        <path id="ArialMT-2e" d="M 581 0 
L 581 641 
L 1222 641 
L 1222 0 
L 581 0 
z
" transform="scale(0.015625)"/>
       </defs>
       <use xlink:href="#ArialMT-30"/>
       <use xlink:href="#ArialMT-2e" x="55.615234"/>
       <use xlink:href="#ArialMT-30" x="83.398438"/>
       <use xlink:href="#ArialMT-30" x="139.013672"/>
       <use xlink:href="#ArialMT-30" x="194.628906"/>
      </g>
     </g>
    </g>
    <g id="ytick_2">
     <g id="line2d_8">
      <g>
       <use xlink:href="#m3585acfb41" x="51.46" y="179.992245" style="stroke: #000000; stroke-width: 0.8"/>
      </g>
     </g>
     <g id="text_9">
      <!-- 0.005 -->
      <g transform="translate(21.940313 183.21326) scale(0.09 -0.09)">
       <use xlink:href="#ArialMT-30"/>
       <use xlink:href="#ArialMT-2e" x="55.615234"/>
       <use xlink:href="#ArialMT-30" x="83.398438"/>
       <use xlink:href="#ArialMT-30" x="139.013672"/>
       <use xlink:href="#ArialMT-35" x="194.628906"/>
      </g>
     </g>
    </g>
    <g id="ytick_3">
     <g id="line2d_9">
      <g>
       <use xlink:href="#m3585acfb41" x="51.46" y="135.313396" style="stroke: #000000; stroke-width: 0.8"/>
      </g>
     </g>
     <g id="text_10">
      <!-- 0.010 -->
      <g transform="translate(21.940313 138.534411) scale(0.09 -0.09)">
       <use xlink:href="#ArialMT-30"/>
       <use xlink:href="#ArialMT-2e" x="55.615234"/>
       <use xlink:href="#ArialMT-30" x="83.398438"/>
       <use xlink:href="#ArialMT-31" x="139.013672"/>
       <use xlink:href="#ArialMT-30" x="194.628906"/>
      </g>
     </g>
    </g>
    <g id="ytick_4">
     <g id="line2d_10">
      <g>
       <use xlink:href="#m3585acfb41" x="51.46" y="90.634547" style="stroke: #000000; stroke-width: 0.8"/>
      </g>
     </g>
     <g id="text_11">
      <!-- 0.015 -->
      <g transform="translate(21.940313 93.855562) scale(0.09 -0.09)">
       <use xlink:href="#ArialMT-30"/>
       <use xlink:href="#ArialMT-2e" x="55.615234"/>
       <use xlink:href="#ArialMT-30" x="83.398438"/>
       <use xlink:href="#ArialMT-31" x="139.013672"/>
       <use xlink:href="#ArialMT-35" x="194.628906"/>
      </g>
     </g>
    </g>
    <g id="ytick_5">
     <g id="line2d_11">
      <g>
       <use xlink:href="#m3585acfb41" x="51.46" y="45.955698" style="stroke: #000000; stroke-width: 0.8"/>
      </g>
     </g>
     <g id="text_12">
      <!-- 0.020 -->
      <g transform="translate(21.940313 49.176714) scale(0.09 -0.09)">
       <use xlink:href="#ArialMT-30"/>
       <use xlink:href="#ArialMT-2e" x="55.615234"/>
       <use xlink:href="#ArialMT-30" x="83.398438"/>
       <use xlink:href="#ArialMT-32" x="139.013672"/>
       <use xlink:href="#ArialMT-30" x="194.628906"/>
      </g>
     </g>
    </g>
    <g id="text_13">
     <!-- $\bf{number\ fraction}\ \it{(-)}$ -->
     <g transform="translate(16.151562 171.891406) rotate(-90) scale(0.09 -0.09)">
      <defs>
       <path id="DejaVuSans-Bold-6e" d="M 4056 2131 
L 4056 0 
L 2931 0 
L 2931 347 
L 2931 1631 
Q 2931 2084 2911 2256 
Q 2891 2428 2841 2509 
Q 2775 2619 2662 2680 
Q 2550 2741 2406 2741 
Q 2056 2741 1856 2470 
Q 1656 2200 1656 1722 
L 1656 0 
L 538 0 
L 538 3500 
L 1656 3500 
L 1656 2988 
Q 1909 3294 2193 3439 
Q 2478 3584 2822 3584 
Q 3428 3584 3742 3212 
Q 4056 2841 4056 2131 
z
" transform="scale(0.015625)"/>
       <path id="DejaVuSans-Bold-75" d="M 500 1363 
L 500 3500 
L 1625 3500 
L 1625 3150 
Q 1625 2866 1622 2436 
Q 1619 2006 1619 1863 
Q 1619 1441 1641 1255 
Q 1663 1069 1716 984 
Q 1784 875 1895 815 
Q 2006 756 2150 756 
Q 2500 756 2700 1025 
Q 2900 1294 2900 1772 
L 2900 3500 
L 4019 3500 
L 4019 0 
L 2900 0 
L 2900 506 
Q 2647 200 2364 54 
Q 2081 -91 1741 -91 
Q 1134 -91 817 281 
Q 500 653 500 1363 
z
" transform="scale(0.015625)"/>
       <path id="DejaVuSans-Bold-62" d="M 2400 722 
Q 2759 722 2948 984 
Q 3138 1247 3138 1747 
Q 3138 2247 2948 2509 
Q 2759 2772 2400 2772 
Q 2041 2772 1848 2508 
Q 1656 2244 1656 1747 
Q 1656 1250 1848 986 
Q 2041 722 2400 722 
z
M 1656 2988 
Q 1888 3294 2169 3439 
Q 2450 3584 2816 3584 
Q 3463 3584 3878 3070 
Q 4294 2556 4294 1747 
Q 4294 938 3878 423 
Q 3463 -91 2816 -91 
Q 2450 -91 2169 54 
Q 1888 200 1656 506 
L 1656 0 
L 538 0 
L 538 4863 
L 1656 4863 
L 1656 2988 
z
" transform="scale(0.015625)"/>
       <path id="DejaVuSans-Bold-65" d="M 4031 1759 
L 4031 1441 
L 1416 1441 
Q 1456 1047 1700 850 
Q 1944 653 2381 653 
Q 2734 653 3104 758 
Q 3475 863 3866 1075 
L 3866 213 
Q 3469 63 3072 -14 
Q 2675 -91 2278 -91 
Q 1328 -91 801 392 
Q 275 875 275 1747 
Q 275 2603 792 3093 
Q 1309 3584 2216 3584 
Q 3041 3584 3536 3087 
Q 4031 2591 4031 1759 
z
M 2881 2131 
Q 2881 2450 2695 2645 
Q 2509 2841 2209 2841 
Q 1884 2841 1681 2658 
Q 1478 2475 1428 2131 
L 2881 2131 
z
" transform="scale(0.015625)"/>
       <path id="DejaVuSans-Bold-66" d="M 2841 4863 
L 2841 4128 
L 2222 4128 
Q 1984 4128 1890 4042 
Q 1797 3956 1797 3744 
L 1797 3500 
L 2753 3500 
L 2753 2700 
L 1797 2700 
L 1797 0 
L 678 0 
L 678 2700 
L 122 2700 
L 122 3500 
L 678 3500 
L 678 3744 
Q 678 4316 997 4589 
Q 1316 4863 1984 4863 
L 2841 4863 
z
" transform="scale(0.015625)"/>
       <path id="DejaVuSans-Bold-63" d="M 3366 3391 
L 3366 2478 
Q 3138 2634 2908 2709 
Q 2678 2784 2431 2784 
Q 1963 2784 1702 2511 
Q 1441 2238 1441 1747 
Q 1441 1256 1702 982 
Q 1963 709 2431 709 
Q 2694 709 2930 787 
Q 3166 866 3366 1019 
L 3366 103 
Q 3103 6 2833 -42 
Q 2563 -91 2291 -91 
Q 1344 -91 809 395 
Q 275 881 275 1747 
Q 275 2613 809 3098 
Q 1344 3584 2291 3584 
Q 2566 3584 2833 3536 
Q 3100 3488 3366 3391 
z
" transform="scale(0.015625)"/>
       <path id="DejaVuSans-Bold-74" d="M 1759 4494 
L 1759 3500 
L 2913 3500 
L 2913 2700 
L 1759 2700 
L 1759 1216 
Q 1759 972 1856 886 
Q 1953 800 2241 800 
L 2816 800 
L 2816 0 
L 1856 0 
Q 1194 0 917 276 
Q 641 553 641 1216 
L 641 2700 
L 84 2700 
L 84 3500 
L 641 3500 
L 641 4494 
L 1759 4494 
z
" transform="scale(0.015625)"/>
       <path id="DejaVuSans-Bold-69" d="M 538 3500 
L 1656 3500 
L 1656 0 
L 538 0 
L 538 3500 
z
M 538 4863 
L 1656 4863 
L 1656 3950 
L 538 3950 
L 538 4863 
z
" transform="scale(0.015625)"/>
       <path id="DejaVuSans-2212" d="M 678 2272 
L 4684 2272 
L 4684 1741 
L 678 1741 
L 678 2272 
z
" transform="scale(0.015625)"/>
      </defs>
      <use xlink:href="#DejaVuSans-Bold-6e" transform="translate(0 0.015625)"/>
      <use xlink:href="#DejaVuSans-Bold-75" transform="translate(71.191406 0.015625)"/>
      <use xlink:href="#DejaVuSans-Bold-6d" transform="translate(142.382812 0.015625)"/>
      <use xlink:href="#DejaVuSans-Bold-62" transform="translate(246.582031 0.015625)"/>
      <use xlink:href="#DejaVuSans-Bold-65" transform="translate(318.164062 0.015625)"/>
      <use xlink:href="#DejaVuSans-Bold-72" transform="translate(385.986328 0.015625)"/>
      <use xlink:href="#DejaVuSans-Bold-66" transform="translate(467.773113 0.015625)"/>
      <use xlink:href="#DejaVuSans-Bold-72" transform="translate(511.278972 0.015625)"/>
      <use xlink:href="#DejaVuSans-Bold-61" transform="translate(560.595378 0.015625)"/>
      <use xlink:href="#DejaVuSans-Bold-63" transform="translate(628.075847 0.015625)"/>
      <use xlink:href="#DejaVuSans-Bold-74" transform="translate(687.353191 0.015625)"/>
      <use xlink:href="#DejaVuSans-Bold-69" transform="translate(735.155925 0.015625)"/>
      <use xlink:href="#DejaVuSans-Bold-6f" transform="translate(769.433269 0.015625)"/>
      <use xlink:href="#DejaVuSans-Bold-6e" transform="translate(838.134441 0.015625)"/>
      <use xlink:href="#DejaVuSans-28" transform="translate(941.796226 0.015625)"/>
      <use xlink:href="#DejaVuSans-2212" transform="translate(980.809897 0.015625)"/>
      <use xlink:href="#DejaVuSans-29" transform="translate(1064.59896 0.015625)"/>
     </g>
    </g>
   </g>
   <g id="line2d_12">
    <path d="M 53.93856 218.699202 
L 56.41712 206.089072 
L 58.89568 186.975985 
L 63.8528 143.087085 
L 66.33136 122.536532 
L 68.80992 104.147379 
L 71.28848 86.943057 
L 73.76704 73.2096 
L 76.2456 61.77526 
L 78.72416 52.471481 
L 81.20272 45.132851 
L 83.68128 39.475383 
L 86.15984 35.362176 
L 88.6384 32.553043 
L 91.11696 30.918449 
L 93.59552 30.26309 
L 96.07408 30.475841 
L 98.55264 31.414896 
L 101.0312 32.973053 
L 103.50976 35.043352 
L 105.98832 37.57039 
L 108.46688 40.45321 
L 110.94544 43.647524 
L 113.424 47.068435 
L 118.38112 54.495523 
L 123.33824 62.424225 
L 133.25248 79.011472 
L 143.16672 95.417557 
L 148.12384 103.356361 
L 153.08096 110.990445 
L 158.03808 118.293694 
L 162.9952 125.260997 
L 167.95232 131.833023 
L 172.90944 138.081979 
L 177.86656 143.96869 
L 185.30224 152.152463 
L 190.25936 157.138479 
L 195.21648 161.900987 
L 202.65216 168.456392 
L 207.60928 172.484452 
L 212.5664 176.268204 
L 217.52352 179.80471 
L 222.48064 183.113065 
L 227.43776 186.204193 
L 232.39488 189.089458 
L 237.352 191.777256 
L 244.78768 195.460488 
L 249.7448 197.705835 
L 254.70192 199.79519 
L 259.65904 201.734326 
L 264.61616 203.534464 
L 272.05184 206.004658 
L 279.48752 208.202799 
L 286.9232 210.167787 
L 294.35888 211.915094 
L 304.27312 213.950025 
L 314.18736 215.686365 
L 324.1016 217.171497 
L 334.01584 218.434396 
L 346.40864 219.745169 
L 358.80144 220.80655 
L 371.19424 221.667001 
L 386.0656 222.474606 
L 403.41552 223.174055 
L 423.244 223.728847 
L 445.55104 224.130109 
L 475.29376 224.426595 
L 487.68656 224.498743 
L 490.16512 224.671094 
L 492.64368 224.671094 
L 492.64368 224.671094 
" clip-path="url(#pce80e705ae)" style="fill: none; stroke: #b73779; stroke-width: 1.5; stroke-linecap: square"/>
   </g>
   <g id="line2d_13">
    <path d="M 53.93856 224.671094 
L 68.80992 224.671094 
L 71.28848 215.113947 
L 76.2456 212.935703 
L 78.72416 211.924997 
L 81.20272 211.229727 
L 83.68128 210.156906 
L 86.15984 209.276052 
L 88.6384 208.123076 
L 91.11696 207.122178 
L 101.0312 202.368192 
L 110.94544 196.588264 
L 113.424 194.661591 
L 115.90256 192.910075 
L 120.85968 188.354483 
L 130.77392 177.817958 
L 133.25248 174.793653 
L 135.73104 171.341255 
L 145.64528 156.055288 
L 148.12384 151.956972 
L 153.08096 143.162308 
L 165.47376 120.195775 
L 167.95232 115.238775 
L 170.43088 110.776705 
L 172.90944 106.817489 
L 175.388 103.321538 
L 180.34512 94.385513 
L 182.82368 90.882243 
L 185.30224 88.777515 
L 190.25936 82.001361 
L 195.21648 78.474002 
L 197.69504 76.335965 
L 205.13072 73.755671 
L 207.60928 73.658015 
L 210.08784 73.788594 
L 212.5664 74.253773 
L 215.04496 74.877566 
L 217.52352 75.887064 
L 220.00208 77.103631 
L 222.48064 78.623699 
L 224.9592 80.331292 
L 229.91632 84.308366 
L 232.39488 86.780267 
L 234.87344 89.01944 
L 237.352 91.832481 
L 239.83056 94.356368 
L 242.30912 97.415819 
L 244.78768 100.104385 
L 247.26624 103.335784 
L 249.7448 106.151675 
L 252.22336 109.573586 
L 254.70192 112.518858 
L 257.18048 116.04079 
L 259.65904 118.954726 
L 262.1376 122.62828 
L 264.61616 125.448231 
L 267.09472 129.17282 
L 269.57328 132.190708 
L 272.05184 135.636556 
L 281.96608 148.342696 
L 284.44464 151.417729 
L 286.9232 154.695332 
L 289.40176 157.392932 
L 291.88032 160.584134 
L 294.35888 163.425461 
L 296.83744 166.02064 
L 299.316 169.146231 
L 301.79456 171.215068 
L 304.27312 174.136348 
L 306.75168 176.612777 
L 309.23024 178.583418 
L 311.7088 181.789676 
L 314.18736 183.431366 
L 316.66592 185.586803 
L 319.14448 188.160585 
L 321.62304 189.343264 
L 324.1016 191.782495 
L 326.58016 193.78717 
L 329.05872 194.753219 
L 331.53728 197.238682 
L 334.01584 198.781976 
L 336.4944 199.821109 
L 338.97296 201.76412 
L 341.45152 203.005054 
L 343.93008 204.077694 
L 346.40864 205.703813 
L 351.36576 207.723843 
L 353.84432 209.085519 
L 356.32288 210.026326 
L 358.80144 210.791165 
L 361.28 211.821517 
L 363.75856 212.677475 
L 368.71568 214.201683 
L 371.19424 214.953465 
L 381.10848 217.2887 
L 391.02272 219.149383 
L 400.93696 220.536874 
L 418.28688 222.194046 
L 425.72256 222.67371 
L 435.6368 223.193536 
L 448.0296 223.702052 
L 462.90096 224.100292 
L 477.77232 224.474937 
L 492.64368 224.671094 
L 492.64368 224.671094 
" clip-path="url(#pce80e705ae)" style="fill: none; stroke-dasharray: 5.55,2.4; stroke-dashoffset: 0; stroke: #000000; stroke-width: 1.5"/>
   </g>
   <g id="line2d_14">
    <defs>
     <path id="m71d37ac9f7" d="M 0 -3 
L -0.673542 -0.927051 
L -2.85317 -0.927051 
L -1.089814 0.354102 
L -1.763356 2.427051 
L -0 1.145898 
L 1.763356 2.427051 
L 1.089814 0.354102 
L 2.85317 -0.927051 
L 0.673542 -0.927051 
z
" style="stroke: #b73779; stroke-linejoin: bevel"/>
    </defs>
    <g clip-path="url(#pce80e705ae)">
     <use xlink:href="#m71d37ac9f7" x="53.93856" y="224.671094" style="fill: #b73779; stroke: #b73779; stroke-linejoin: bevel"/>
     <use xlink:href="#m71d37ac9f7" x="56.41712" y="171.480249" style="fill: #b73779; stroke: #b73779; stroke-linejoin: bevel"/>
     <use xlink:href="#m71d37ac9f7" x="58.89568" y="145.876785" style="fill: #b73779; stroke: #b73779; stroke-linejoin: bevel"/>
     <use xlink:href="#m71d37ac9f7" x="61.37424" y="132.672906" style="fill: #b73779; stroke: #b73779; stroke-linejoin: bevel"/>
     <use xlink:href="#m71d37ac9f7" x="63.8528" y="121.4708" style="fill: #b73779; stroke: #b73779; stroke-linejoin: bevel"/>
     <use xlink:href="#m71d37ac9f7" x="66.33136" y="110.69089" style="fill: #b73779; stroke: #b73779; stroke-linejoin: bevel"/>
     <use xlink:href="#m71d37ac9f7" x="68.80992" y="101.17056" style="fill: #b73779; stroke: #b73779; stroke-linejoin: bevel"/>
     <use xlink:href="#m71d37ac9f7" x="71.28848" y="92.979566" style="fill: #b73779; stroke: #b73779; stroke-linejoin: bevel"/>
     <use xlink:href="#m71d37ac9f7" x="73.76704" y="85.484043" style="fill: #b73779; stroke: #b73779; stroke-linejoin: bevel"/>
     <use xlink:href="#m71d37ac9f7" x="76.2456" y="75.8266" style="fill: #b73779; stroke: #b73779; stroke-linejoin: bevel"/>
     <use xlink:href="#m71d37ac9f7" x="78.72416" y="69.155474" style="fill: #b73779; stroke: #b73779; stroke-linejoin: bevel"/>
     <use xlink:href="#m71d37ac9f7" x="81.20272" y="61.199371" style="fill: #b73779; stroke: #b73779; stroke-linejoin: bevel"/>
     <use xlink:href="#m71d37ac9f7" x="83.68128" y="53.875923" style="fill: #b73779; stroke: #b73779; stroke-linejoin: bevel"/>
     <use xlink:href="#m71d37ac9f7" x="86.15984" y="48.248092" style="fill: #b73779; stroke: #b73779; stroke-linejoin: bevel"/>
     <use xlink:href="#m71d37ac9f7" x="88.6384" y="42.67716" style="fill: #b73779; stroke: #b73779; stroke-linejoin: bevel"/>
     <use xlink:href="#m71d37ac9f7" x="91.11696" y="38.309597" style="fill: #b73779; stroke: #b73779; stroke-linejoin: bevel"/>
     <use xlink:href="#m71d37ac9f7" x="93.59552" y="35.453719" style="fill: #b73779; stroke: #b73779; stroke-linejoin: bevel"/>
     <use xlink:href="#m71d37ac9f7" x="96.07408" y="32.745693" style="fill: #b73779; stroke: #b73779; stroke-linejoin: bevel"/>
     <use xlink:href="#m71d37ac9f7" x="98.55264" y="30.823915" style="fill: #b73779; stroke: #b73779; stroke-linejoin: bevel"/>
     <use xlink:href="#m71d37ac9f7" x="101.0312" y="29.878015" style="fill: #b73779; stroke: #b73779; stroke-linejoin: bevel"/>
     <use xlink:href="#m71d37ac9f7" x="103.50976" y="29.509784" style="fill: #b73779; stroke: #b73779; stroke-linejoin: bevel"/>
     <use xlink:href="#m71d37ac9f7" x="105.98832" y="30.213207" style="fill: #b73779; stroke: #b73779; stroke-linejoin: bevel"/>
     <use xlink:href="#m71d37ac9f7" x="108.46688" y="31.474257" style="fill: #b73779; stroke: #b73779; stroke-linejoin: bevel"/>
     <use xlink:href="#m71d37ac9f7" x="110.94544" y="33.606058" style="fill: #b73779; stroke: #b73779; stroke-linejoin: bevel"/>
     <use xlink:href="#m71d37ac9f7" x="113.424" y="35.564014" style="fill: #b73779; stroke: #b73779; stroke-linejoin: bevel"/>
     <use xlink:href="#m71d37ac9f7" x="115.90256" y="38.700639" style="fill: #b73779; stroke: #b73779; stroke-linejoin: bevel"/>
     <use xlink:href="#m71d37ac9f7" x="118.38112" y="41.656746" style="fill: #b73779; stroke: #b73779; stroke-linejoin: bevel"/>
     <use xlink:href="#m71d37ac9f7" x="120.85968" y="44.899942" style="fill: #b73779; stroke: #b73779; stroke-linejoin: bevel"/>
     <use xlink:href="#m71d37ac9f7" x="123.33824" y="49.141156" style="fill: #b73779; stroke: #b73779; stroke-linejoin: bevel"/>
     <use xlink:href="#m71d37ac9f7" x="125.8168" y="54.647425" style="fill: #b73779; stroke: #b73779; stroke-linejoin: bevel"/>
     <use xlink:href="#m71d37ac9f7" x="128.29536" y="60.158966" style="fill: #b73779; stroke: #b73779; stroke-linejoin: bevel"/>
     <use xlink:href="#m71d37ac9f7" x="130.77392" y="65.629444" style="fill: #b73779; stroke: #b73779; stroke-linejoin: bevel"/>
     <use xlink:href="#m71d37ac9f7" x="133.25248" y="70.995696" style="fill: #b73779; stroke: #b73779; stroke-linejoin: bevel"/>
     <use xlink:href="#m71d37ac9f7" x="135.73104" y="76.36099" style="fill: #b73779; stroke: #b73779; stroke-linejoin: bevel"/>
     <use xlink:href="#m71d37ac9f7" x="138.2096" y="81.697459" style="fill: #b73779; stroke: #b73779; stroke-linejoin: bevel"/>
     <use xlink:href="#m71d37ac9f7" x="140.68816" y="86.911523" style="fill: #b73779; stroke: #b73779; stroke-linejoin: bevel"/>
     <use xlink:href="#m71d37ac9f7" x="143.16672" y="91.895826" style="fill: #b73779; stroke: #b73779; stroke-linejoin: bevel"/>
     <use xlink:href="#m71d37ac9f7" x="145.64528" y="96.658891" style="fill: #b73779; stroke: #b73779; stroke-linejoin: bevel"/>
     <use xlink:href="#m71d37ac9f7" x="148.12384" y="101.198312" style="fill: #b73779; stroke: #b73779; stroke-linejoin: bevel"/>
     <use xlink:href="#m71d37ac9f7" x="150.6024" y="105.673017" style="fill: #b73779; stroke: #b73779; stroke-linejoin: bevel"/>
     <use xlink:href="#m71d37ac9f7" x="153.08096" y="110.171232" style="fill: #b73779; stroke: #b73779; stroke-linejoin: bevel"/>
     <use xlink:href="#m71d37ac9f7" x="155.55952" y="114.60403" style="fill: #b73779; stroke: #b73779; stroke-linejoin: bevel"/>
     <use xlink:href="#m71d37ac9f7" x="158.03808" y="118.662802" style="fill: #b73779; stroke: #b73779; stroke-linejoin: bevel"/>
     <use xlink:href="#m71d37ac9f7" x="160.51664" y="122.473742" style="fill: #b73779; stroke: #b73779; stroke-linejoin: bevel"/>
     <use xlink:href="#m71d37ac9f7" x="162.9952" y="126.288889" style="fill: #b73779; stroke: #b73779; stroke-linejoin: bevel"/>
     <use xlink:href="#m71d37ac9f7" x="165.47376" y="130.319368" style="fill: #b73779; stroke: #b73779; stroke-linejoin: bevel"/>
     <use xlink:href="#m71d37ac9f7" x="167.95232" y="133.50177" style="fill: #b73779; stroke: #b73779; stroke-linejoin: bevel"/>
     <use xlink:href="#m71d37ac9f7" x="170.43088" y="136.699589" style="fill: #b73779; stroke: #b73779; stroke-linejoin: bevel"/>
     <use xlink:href="#m71d37ac9f7" x="172.90944" y="140.08645" style="fill: #b73779; stroke: #b73779; stroke-linejoin: bevel"/>
     <use xlink:href="#m71d37ac9f7" x="175.388" y="143.093073" style="fill: #b73779; stroke: #b73779; stroke-linejoin: bevel"/>
     <use xlink:href="#m71d37ac9f7" x="177.86656" y="145.905286" style="fill: #b73779; stroke: #b73779; stroke-linejoin: bevel"/>
     <use xlink:href="#m71d37ac9f7" x="180.34512" y="149.206714" style="fill: #b73779; stroke: #b73779; stroke-linejoin: bevel"/>
     <use xlink:href="#m71d37ac9f7" x="182.82368" y="151.613037" style="fill: #b73779; stroke: #b73779; stroke-linejoin: bevel"/>
     <use xlink:href="#m71d37ac9f7" x="185.30224" y="154.260438" style="fill: #b73779; stroke: #b73779; stroke-linejoin: bevel"/>
     <use xlink:href="#m71d37ac9f7" x="187.7808" y="156.811668" style="fill: #b73779; stroke: #b73779; stroke-linejoin: bevel"/>
     <use xlink:href="#m71d37ac9f7" x="190.25936" y="159.134142" style="fill: #b73779; stroke: #b73779; stroke-linejoin: bevel"/>
     <use xlink:href="#m71d37ac9f7" x="192.73792" y="161.785539" style="fill: #b73779; stroke: #b73779; stroke-linejoin: bevel"/>
     <use xlink:href="#m71d37ac9f7" x="195.21648" y="163.611138" style="fill: #b73779; stroke: #b73779; stroke-linejoin: bevel"/>
     <use xlink:href="#m71d37ac9f7" x="197.69504" y="166.131763" style="fill: #b73779; stroke: #b73779; stroke-linejoin: bevel"/>
     <use xlink:href="#m71d37ac9f7" x="200.1736" y="168.16226" style="fill: #b73779; stroke: #b73779; stroke-linejoin: bevel"/>
     <use xlink:href="#m71d37ac9f7" x="202.65216" y="170.200021" style="fill: #b73779; stroke: #b73779; stroke-linejoin: bevel"/>
     <use xlink:href="#m71d37ac9f7" x="205.13072" y="172.19134" style="fill: #b73779; stroke: #b73779; stroke-linejoin: bevel"/>
     <use xlink:href="#m71d37ac9f7" x="207.60928" y="174.154378" style="fill: #b73779; stroke: #b73779; stroke-linejoin: bevel"/>
     <use xlink:href="#m71d37ac9f7" x="210.08784" y="175.929458" style="fill: #b73779; stroke: #b73779; stroke-linejoin: bevel"/>
     <use xlink:href="#m71d37ac9f7" x="212.5664" y="177.760546" style="fill: #b73779; stroke: #b73779; stroke-linejoin: bevel"/>
     <use xlink:href="#m71d37ac9f7" x="215.04496" y="179.604902" style="fill: #b73779; stroke: #b73779; stroke-linejoin: bevel"/>
     <use xlink:href="#m71d37ac9f7" x="217.52352" y="181.18998" style="fill: #b73779; stroke: #b73779; stroke-linejoin: bevel"/>
     <use xlink:href="#m71d37ac9f7" x="220.00208" y="182.936032" style="fill: #b73779; stroke: #b73779; stroke-linejoin: bevel"/>
     <use xlink:href="#m71d37ac9f7" x="222.48064" y="184.474587" style="fill: #b73779; stroke: #b73779; stroke-linejoin: bevel"/>
     <use xlink:href="#m71d37ac9f7" x="224.9592" y="186.043145" style="fill: #b73779; stroke: #b73779; stroke-linejoin: bevel"/>
     <use xlink:href="#m71d37ac9f7" x="227.43776" y="187.756454" style="fill: #b73779; stroke: #b73779; stroke-linejoin: bevel"/>
     <use xlink:href="#m71d37ac9f7" x="229.91632" y="188.86652" style="fill: #b73779; stroke: #b73779; stroke-linejoin: bevel"/>
     <use xlink:href="#m71d37ac9f7" x="232.39488" y="190.763856" style="fill: #b73779; stroke: #b73779; stroke-linejoin: bevel"/>
     <use xlink:href="#m71d37ac9f7" x="234.87344" y="191.478009" style="fill: #b73779; stroke: #b73779; stroke-linejoin: bevel"/>
     <use xlink:href="#m71d37ac9f7" x="237.352" y="193.485165" style="fill: #b73779; stroke: #b73779; stroke-linejoin: bevel"/>
     <use xlink:href="#m71d37ac9f7" x="239.83056" y="194.338554" style="fill: #b73779; stroke: #b73779; stroke-linejoin: bevel"/>
     <use xlink:href="#m71d37ac9f7" x="242.30912" y="195.852612" style="fill: #b73779; stroke: #b73779; stroke-linejoin: bevel"/>
     <use xlink:href="#m71d37ac9f7" x="244.78768" y="197.016219" style="fill: #b73779; stroke: #b73779; stroke-linejoin: bevel"/>
     <use xlink:href="#m71d37ac9f7" x="247.26624" y="198.106901" style="fill: #b73779; stroke: #b73779; stroke-linejoin: bevel"/>
     <use xlink:href="#m71d37ac9f7" x="249.7448" y="199.426947" style="fill: #b73779; stroke: #b73779; stroke-linejoin: bevel"/>
     <use xlink:href="#m71d37ac9f7" x="252.22336" y="200.308312" style="fill: #b73779; stroke: #b73779; stroke-linejoin: bevel"/>
     <use xlink:href="#m71d37ac9f7" x="254.70192" y="201.577597" style="fill: #b73779; stroke: #b73779; stroke-linejoin: bevel"/>
     <use xlink:href="#m71d37ac9f7" x="257.18048" y="202.556651" style="fill: #b73779; stroke: #b73779; stroke-linejoin: bevel"/>
     <use xlink:href="#m71d37ac9f7" x="259.65904" y="203.42546" style="fill: #b73779; stroke: #b73779; stroke-linejoin: bevel"/>
     <use xlink:href="#m71d37ac9f7" x="262.1376" y="204.635891" style="fill: #b73779; stroke: #b73779; stroke-linejoin: bevel"/>
     <use xlink:href="#m71d37ac9f7" x="264.61616" y="205.295126" style="fill: #b73779; stroke: #b73779; stroke-linejoin: bevel"/>
     <use xlink:href="#m71d37ac9f7" x="267.09472" y="206.361328" style="fill: #b73779; stroke: #b73779; stroke-linejoin: bevel"/>
     <use xlink:href="#m71d37ac9f7" x="269.57328" y="207.198392" style="fill: #b73779; stroke: #b73779; stroke-linejoin: bevel"/>
     <use xlink:href="#m71d37ac9f7" x="272.05184" y="207.957748" style="fill: #b73779; stroke: #b73779; stroke-linejoin: bevel"/>
     <use xlink:href="#m71d37ac9f7" x="274.5304" y="208.822864" style="fill: #b73779; stroke: #b73779; stroke-linejoin: bevel"/>
     <use xlink:href="#m71d37ac9f7" x="277.00896" y="209.631564" style="fill: #b73779; stroke: #b73779; stroke-linejoin: bevel"/>
     <use xlink:href="#m71d37ac9f7" x="279.48752" y="210.085974" style="fill: #b73779; stroke: #b73779; stroke-linejoin: bevel"/>
     <use xlink:href="#m71d37ac9f7" x="281.96608" y="211.213935" style="fill: #b73779; stroke: #b73779; stroke-linejoin: bevel"/>
     <use xlink:href="#m71d37ac9f7" x="284.44464" y="211.656551" style="fill: #b73779; stroke: #b73779; stroke-linejoin: bevel"/>
     <use xlink:href="#m71d37ac9f7" x="286.9232" y="212.270567" style="fill: #b73779; stroke: #b73779; stroke-linejoin: bevel"/>
     <use xlink:href="#m71d37ac9f7" x="289.40176" y="213.084145" style="fill: #b73779; stroke: #b73779; stroke-linejoin: bevel"/>
     <use xlink:href="#m71d37ac9f7" x="291.88032" y="213.518695" style="fill: #b73779; stroke: #b73779; stroke-linejoin: bevel"/>
     <use xlink:href="#m71d37ac9f7" x="294.35888" y="214.152892" style="fill: #b73779; stroke: #b73779; stroke-linejoin: bevel"/>
     <use xlink:href="#m71d37ac9f7" x="296.83744" y="214.735403" style="fill: #b73779; stroke: #b73779; stroke-linejoin: bevel"/>
     <use xlink:href="#m71d37ac9f7" x="299.316" y="215.243059" style="fill: #b73779; stroke: #b73779; stroke-linejoin: bevel"/>
     <use xlink:href="#m71d37ac9f7" x="301.79456" y="215.668018" style="fill: #b73779; stroke: #b73779; stroke-linejoin: bevel"/>
     <use xlink:href="#m71d37ac9f7" x="304.27312" y="216.270262" style="fill: #b73779; stroke: #b73779; stroke-linejoin: bevel"/>
     <use xlink:href="#m71d37ac9f7" x="306.75168" y="216.708272" style="fill: #b73779; stroke: #b73779; stroke-linejoin: bevel"/>
     <use xlink:href="#m71d37ac9f7" x="309.23024" y="216.984937" style="fill: #b73779; stroke: #b73779; stroke-linejoin: bevel"/>
     <use xlink:href="#m71d37ac9f7" x="311.7088" y="217.66056" style="fill: #b73779; stroke: #b73779; stroke-linejoin: bevel"/>
     <use xlink:href="#m71d37ac9f7" x="314.18736" y="217.986622" style="fill: #b73779; stroke: #b73779; stroke-linejoin: bevel"/>
     <use xlink:href="#m71d37ac9f7" x="316.66592" y="218.214922" style="fill: #b73779; stroke: #b73779; stroke-linejoin: bevel"/>
     <use xlink:href="#m71d37ac9f7" x="319.14448" y="218.73119" style="fill: #b73779; stroke: #b73779; stroke-linejoin: bevel"/>
     <use xlink:href="#m71d37ac9f7" x="321.62304" y="219.04246" style="fill: #b73779; stroke: #b73779; stroke-linejoin: bevel"/>
     <use xlink:href="#m71d37ac9f7" x="324.1016" y="219.317952" style="fill: #b73779; stroke: #b73779; stroke-linejoin: bevel"/>
     <use xlink:href="#m71d37ac9f7" x="326.58016" y="219.673093" style="fill: #b73779; stroke: #b73779; stroke-linejoin: bevel"/>
     <use xlink:href="#m71d37ac9f7" x="329.05872" y="219.9812" style="fill: #b73779; stroke: #b73779; stroke-linejoin: bevel"/>
     <use xlink:href="#m71d37ac9f7" x="331.53728" y="220.25079" style="fill: #b73779; stroke: #b73779; stroke-linejoin: bevel"/>
     <use xlink:href="#m71d37ac9f7" x="334.01584" y="220.445928" style="fill: #b73779; stroke: #b73779; stroke-linejoin: bevel"/>
     <use xlink:href="#m71d37ac9f7" x="336.4944" y="220.747415" style="fill: #b73779; stroke: #b73779; stroke-linejoin: bevel"/>
     <use xlink:href="#m71d37ac9f7" x="338.97296" y="221.05962" style="fill: #b73779; stroke: #b73779; stroke-linejoin: bevel"/>
     <use xlink:href="#m71d37ac9f7" x="341.45152" y="221.160391" style="fill: #b73779; stroke: #b73779; stroke-linejoin: bevel"/>
     <use xlink:href="#m71d37ac9f7" x="343.93008" y="221.397429" style="fill: #b73779; stroke: #b73779; stroke-linejoin: bevel"/>
     <use xlink:href="#m71d37ac9f7" x="346.40864" y="221.745156" style="fill: #b73779; stroke: #b73779; stroke-linejoin: bevel"/>
     <use xlink:href="#m71d37ac9f7" x="348.8872" y="221.842991" style="fill: #b73779; stroke: #b73779; stroke-linejoin: bevel"/>
     <use xlink:href="#m71d37ac9f7" x="351.36576" y="221.969931" style="fill: #b73779; stroke: #b73779; stroke-linejoin: bevel"/>
     <use xlink:href="#m71d37ac9f7" x="353.84432" y="222.193838" style="fill: #b73779; stroke: #b73779; stroke-linejoin: bevel"/>
     <use xlink:href="#m71d37ac9f7" x="356.32288" y="222.344784" style="fill: #b73779; stroke: #b73779; stroke-linejoin: bevel"/>
     <use xlink:href="#m71d37ac9f7" x="358.80144" y="222.458143" style="fill: #b73779; stroke: #b73779; stroke-linejoin: bevel"/>
     <use xlink:href="#m71d37ac9f7" x="361.28" y="222.607735" style="fill: #b73779; stroke: #b73779; stroke-linejoin: bevel"/>
     <use xlink:href="#m71d37ac9f7" x="363.75856" y="222.754121" style="fill: #b73779; stroke: #b73779; stroke-linejoin: bevel"/>
     <use xlink:href="#m71d37ac9f7" x="366.23712" y="222.891049" style="fill: #b73779; stroke: #b73779; stroke-linejoin: bevel"/>
     <use xlink:href="#m71d37ac9f7" x="368.71568" y="222.99837" style="fill: #b73779; stroke: #b73779; stroke-linejoin: bevel"/>
     <use xlink:href="#m71d37ac9f7" x="371.19424" y="223.082797" style="fill: #b73779; stroke: #b73779; stroke-linejoin: bevel"/>
     <use xlink:href="#m71d37ac9f7" x="373.6728" y="223.213575" style="fill: #b73779; stroke: #b73779; stroke-linejoin: bevel"/>
     <use xlink:href="#m71d37ac9f7" x="376.15136" y="223.34914" style="fill: #b73779; stroke: #b73779; stroke-linejoin: bevel"/>
     <use xlink:href="#m71d37ac9f7" x="378.62992" y="223.379651" style="fill: #b73779; stroke: #b73779; stroke-linejoin: bevel"/>
     <use xlink:href="#m71d37ac9f7" x="381.10848" y="223.436315" style="fill: #b73779; stroke: #b73779; stroke-linejoin: bevel"/>
     <use xlink:href="#m71d37ac9f7" x="383.58704" y="223.568956" style="fill: #b73779; stroke: #b73779; stroke-linejoin: bevel"/>
     <use xlink:href="#m71d37ac9f7" x="386.0656" y="223.657454" style="fill: #b73779; stroke: #b73779; stroke-linejoin: bevel"/>
     <use xlink:href="#m71d37ac9f7" x="388.54416" y="223.689282" style="fill: #b73779; stroke: #b73779; stroke-linejoin: bevel"/>
     <use xlink:href="#m71d37ac9f7" x="391.02272" y="223.751468" style="fill: #b73779; stroke: #b73779; stroke-linejoin: bevel"/>
     <use xlink:href="#m71d37ac9f7" x="393.50128" y="223.83432" style="fill: #b73779; stroke: #b73779; stroke-linejoin: bevel"/>
     <use xlink:href="#m71d37ac9f7" x="395.97984" y="223.887868" style="fill: #b73779; stroke: #b73779; stroke-linejoin: bevel"/>
     <use xlink:href="#m71d37ac9f7" x="398.4584" y="223.930401" style="fill: #b73779; stroke: #b73779; stroke-linejoin: bevel"/>
     <use xlink:href="#m71d37ac9f7" x="400.93696" y="223.976368" style="fill: #b73779; stroke: #b73779; stroke-linejoin: bevel"/>
     <use xlink:href="#m71d37ac9f7" x="403.41552" y="224.023022" style="fill: #b73779; stroke: #b73779; stroke-linejoin: bevel"/>
     <use xlink:href="#m71d37ac9f7" x="405.89408" y="224.070887" style="fill: #b73779; stroke: #b73779; stroke-linejoin: bevel"/>
     <use xlink:href="#m71d37ac9f7" x="408.37264" y="224.118866" style="fill: #b73779; stroke: #b73779; stroke-linejoin: bevel"/>
     <use xlink:href="#m71d37ac9f7" x="410.8512" y="224.145123" style="fill: #b73779; stroke: #b73779; stroke-linejoin: bevel"/>
     <use xlink:href="#m71d37ac9f7" x="413.32976" y="224.170651" style="fill: #b73779; stroke: #b73779; stroke-linejoin: bevel"/>
     <use xlink:href="#m71d37ac9f7" x="415.80832" y="224.218433" style="fill: #b73779; stroke: #b73779; stroke-linejoin: bevel"/>
     <use xlink:href="#m71d37ac9f7" x="418.28688" y="224.266328" style="fill: #b73779; stroke: #b73779; stroke-linejoin: bevel"/>
     <use xlink:href="#m71d37ac9f7" x="420.76544" y="224.277015" style="fill: #b73779; stroke: #b73779; stroke-linejoin: bevel"/>
     <use xlink:href="#m71d37ac9f7" x="423.244" y="224.287528" style="fill: #b73779; stroke: #b73779; stroke-linejoin: bevel"/>
     <use xlink:href="#m71d37ac9f7" x="425.72256" y="224.323918" style="fill: #b73779; stroke: #b73779; stroke-linejoin: bevel"/>
     <use xlink:href="#m71d37ac9f7" x="428.20112" y="224.361157" style="fill: #b73779; stroke: #b73779; stroke-linejoin: bevel"/>
     <use xlink:href="#m71d37ac9f7" x="430.67968" y="224.375599" style="fill: #b73779; stroke: #b73779; stroke-linejoin: bevel"/>
     <use xlink:href="#m71d37ac9f7" x="433.15824" y="224.387875" style="fill: #b73779; stroke: #b73779; stroke-linejoin: bevel"/>
     <use xlink:href="#m71d37ac9f7" x="435.6368" y="224.413721" style="fill: #b73779; stroke: #b73779; stroke-linejoin: bevel"/>
     <use xlink:href="#m71d37ac9f7" x="438.11536" y="224.442339" style="fill: #b73779; stroke: #b73779; stroke-linejoin: bevel"/>
     <use xlink:href="#m71d37ac9f7" x="440.59392" y="224.459401" style="fill: #b73779; stroke: #b73779; stroke-linejoin: bevel"/>
     <use xlink:href="#m71d37ac9f7" x="443.07248" y="224.471945" style="fill: #b73779; stroke: #b73779; stroke-linejoin: bevel"/>
     <use xlink:href="#m71d37ac9f7" x="445.55104" y="224.48488" style="fill: #b73779; stroke: #b73779; stroke-linejoin: bevel"/>
     <use xlink:href="#m71d37ac9f7" x="448.0296" y="224.498098" style="fill: #b73779; stroke: #b73779; stroke-linejoin: bevel"/>
     <use xlink:href="#m71d37ac9f7" x="450.50816" y="224.512408" style="fill: #b73779; stroke: #b73779; stroke-linejoin: bevel"/>
     <use xlink:href="#m71d37ac9f7" x="452.98672" y="224.528295" style="fill: #b73779; stroke: #b73779; stroke-linejoin: bevel"/>
     <use xlink:href="#m71d37ac9f7" x="455.46528" y="224.542353" style="fill: #b73779; stroke: #b73779; stroke-linejoin: bevel"/>
     <use xlink:href="#m71d37ac9f7" x="457.94384" y="224.549516" style="fill: #b73779; stroke: #b73779; stroke-linejoin: bevel"/>
     <use xlink:href="#m71d37ac9f7" x="460.4224" y="224.556678" style="fill: #b73779; stroke: #b73779; stroke-linejoin: bevel"/>
     <use xlink:href="#m71d37ac9f7" x="462.90096" y="224.575792" style="fill: #b73779; stroke: #b73779; stroke-linejoin: bevel"/>
     <use xlink:href="#m71d37ac9f7" x="465.37952" y="224.595149" style="fill: #b73779; stroke: #b73779; stroke-linejoin: bevel"/>
     <use xlink:href="#m71d37ac9f7" x="467.85808" y="224.60318" style="fill: #b73779; stroke: #b73779; stroke-linejoin: bevel"/>
     <use xlink:href="#m71d37ac9f7" x="470.33664" y="224.606806" style="fill: #b73779; stroke: #b73779; stroke-linejoin: bevel"/>
     <use xlink:href="#m71d37ac9f7" x="472.8152" y="224.614381" style="fill: #b73779; stroke: #b73779; stroke-linejoin: bevel"/>
     <use xlink:href="#m71d37ac9f7" x="475.29376" y="224.627212" style="fill: #b73779; stroke: #b73779; stroke-linejoin: bevel"/>
     <use xlink:href="#m71d37ac9f7" x="477.77232" y="224.639203" style="fill: #b73779; stroke: #b73779; stroke-linejoin: bevel"/>
     <use xlink:href="#m71d37ac9f7" x="480.25088" y="224.644144" style="fill: #b73779; stroke: #b73779; stroke-linejoin: bevel"/>
     <use xlink:href="#m71d37ac9f7" x="482.72944" y="224.649084" style="fill: #b73779; stroke: #b73779; stroke-linejoin: bevel"/>
     <use xlink:href="#m71d37ac9f7" x="485.208" y="224.656859" style="fill: #b73779; stroke: #b73779; stroke-linejoin: bevel"/>
     <use xlink:href="#m71d37ac9f7" x="487.68656" y="224.665569" style="fill: #b73779; stroke: #b73779; stroke-linejoin: bevel"/>
     <use xlink:href="#m71d37ac9f7" x="490.16512" y="224.671094" style="fill: #b73779; stroke: #b73779; stroke-linejoin: bevel"/>
     <use xlink:href="#m71d37ac9f7" x="492.64368" y="224.671094" style="fill: #b73779; stroke: #b73779; stroke-linejoin: bevel"/>
    </g>
   </g>
   <g id="patch_3">
    <path d="M 51.46 224.671094 
L 51.46 19.751719 
" style="fill: none; stroke: #000000; stroke-width: 0.8; stroke-linejoin: miter; stroke-linecap: square"/>
   </g>
   <g id="patch_4">
    <path d="M 494.06 224.671094 
L 494.06 19.751719 
" style="fill: none; stroke: #000000; stroke-width: 0.8; stroke-linejoin: miter; stroke-linecap: square"/>
   </g>
   <g id="patch_5">
    <path d="M 51.46 224.671094 
L 494.06 224.671094 
" style="fill: none; stroke: #000000; stroke-width: 0.8; stroke-linejoin: miter; stroke-linecap: square"/>
   </g>
   <g id="patch_6">
    <path d="M 51.46 19.751719 
L 494.06 19.751719 
" style="fill: none; stroke: #000000; stroke-width: 0.8; stroke-linejoin: miter; stroke-linecap: square"/>
   </g>
   <g id="text_14">
    <!-- a) -->
    <g transform="translate(7.2 27.759375) scale(0.11 -0.11)">
     <defs>
      <path id="ArialMT-61" d="M 2588 409 
Q 2275 144 1986 34 
Q 1697 -75 1366 -75 
Q 819 -75 525 192 
Q 231 459 231 875 
Q 231 1119 342 1320 
Q 453 1522 633 1644 
Q 813 1766 1038 1828 
Q 1203 1872 1538 1913 
Q 2219 1994 2541 2106 
Q 2544 2222 2544 2253 
Q 2544 2597 2384 2738 
Q 2169 2928 1744 2928 
Q 1347 2928 1158 2789 
Q 969 2650 878 2297 
L 328 2372 
Q 403 2725 575 2942 
Q 747 3159 1072 3276 
Q 1397 3394 1825 3394 
Q 2250 3394 2515 3294 
Q 2781 3194 2906 3042 
Q 3031 2891 3081 2659 
Q 3109 2516 3109 2141 
L 3109 1391 
Q 3109 606 3145 398 
Q 3181 191 3288 0 
L 2700 0 
Q 2613 175 2588 409 
z
M 2541 1666 
Q 2234 1541 1622 1453 
Q 1275 1403 1131 1340 
Q 988 1278 909 1158 
Q 831 1038 831 891 
Q 831 666 1001 516 
Q 1172 366 1500 366 
Q 1825 366 2078 508 
Q 2331 650 2450 897 
Q 2541 1088 2541 1459 
L 2541 1666 
z
" transform="scale(0.015625)"/>
      <path id="ArialMT-29" d="M 791 -1347 
L 388 -1347 
Q 1322 153 1322 1656 
Q 1322 2244 1188 2822 
Q 1081 3291 891 3722 
Q 769 4003 388 4659 
L 791 4659 
Q 1378 3875 1659 3084 
Q 1900 2403 1900 1659 
Q 1900 816 1576 28 
Q 1253 -759 791 -1347 
z
" transform="scale(0.015625)"/>
     </defs>
     <use xlink:href="#ArialMT-61"/>
     <use xlink:href="#ArialMT-29" x="55.615234"/>
    </g>
   </g>
   <g id="text_15">
    <!-- Figure S9_IV5-P,RT,air,steel_2 hr:0.15, s:0.89, N:30 -->
    <g transform="translate(169.620703 13.751719) scale(0.09 -0.09)">
     <defs>
      <path id="ArialMT-46" d="M 525 0 
L 525 4581 
L 3616 4581 
L 3616 4041 
L 1131 4041 
L 1131 2622 
L 3281 2622 
L 3281 2081 
L 1131 2081 
L 1131 0 
L 525 0 
z
" transform="scale(0.015625)"/>
      <path id="ArialMT-69" d="M 425 3934 
L 425 4581 
L 988 4581 
L 988 3934 
L 425 3934 
z
M 425 0 
L 425 3319 
L 988 3319 
L 988 0 
L 425 0 
z
" transform="scale(0.015625)"/>
      <path id="ArialMT-67" d="M 319 -275 
L 866 -356 
Q 900 -609 1056 -725 
Q 1266 -881 1628 -881 
Q 2019 -881 2231 -725 
Q 2444 -569 2519 -288 
Q 2563 -116 2559 434 
Q 2191 0 1641 0 
Q 956 0 581 494 
Q 206 988 206 1678 
Q 206 2153 378 2554 
Q 550 2956 876 3175 
Q 1203 3394 1644 3394 
Q 2231 3394 2613 2919 
L 2613 3319 
L 3131 3319 
L 3131 450 
Q 3131 -325 2973 -648 
Q 2816 -972 2473 -1159 
Q 2131 -1347 1631 -1347 
Q 1038 -1347 672 -1080 
Q 306 -813 319 -275 
z
M 784 1719 
Q 784 1066 1043 766 
Q 1303 466 1694 466 
Q 2081 466 2343 764 
Q 2606 1063 2606 1700 
Q 2606 2309 2336 2618 
Q 2066 2928 1684 2928 
Q 1309 2928 1046 2623 
Q 784 2319 784 1719 
z
" transform="scale(0.015625)"/>
      <path id="ArialMT-75" d="M 2597 0 
L 2597 488 
Q 2209 -75 1544 -75 
Q 1250 -75 995 37 
Q 741 150 617 320 
Q 494 491 444 738 
Q 409 903 409 1263 
L 409 3319 
L 972 3319 
L 972 1478 
Q 972 1038 1006 884 
Q 1059 663 1231 536 
Q 1403 409 1656 409 
Q 1909 409 2131 539 
Q 2353 669 2445 892 
Q 2538 1116 2538 1541 
L 2538 3319 
L 3100 3319 
L 3100 0 
L 2597 0 
z
" transform="scale(0.015625)"/>
      <path id="ArialMT-72" d="M 416 0 
L 416 3319 
L 922 3319 
L 922 2816 
Q 1116 3169 1280 3281 
Q 1444 3394 1641 3394 
Q 1925 3394 2219 3213 
L 2025 2691 
Q 1819 2813 1613 2813 
Q 1428 2813 1281 2702 
Q 1134 2591 1072 2394 
Q 978 2094 978 1738 
L 978 0 
L 416 0 
z
" transform="scale(0.015625)"/>
      <path id="ArialMT-65" d="M 2694 1069 
L 3275 997 
Q 3138 488 2766 206 
Q 2394 -75 1816 -75 
Q 1088 -75 661 373 
Q 234 822 234 1631 
Q 234 2469 665 2931 
Q 1097 3394 1784 3394 
Q 2450 3394 2872 2941 
Q 3294 2488 3294 1666 
Q 3294 1616 3291 1516 
L 816 1516 
Q 847 969 1125 678 
Q 1403 388 1819 388 
Q 2128 388 2347 550 
Q 2566 713 2694 1069 
z
M 847 1978 
L 2700 1978 
Q 2663 2397 2488 2606 
Q 2219 2931 1791 2931 
Q 1403 2931 1139 2672 
Q 875 2413 847 1978 
z
" transform="scale(0.015625)"/>
      <path id="ArialMT-20" transform="scale(0.015625)"/>
      <path id="ArialMT-53" d="M 288 1472 
L 859 1522 
Q 900 1178 1048 958 
Q 1197 738 1509 602 
Q 1822 466 2213 466 
Q 2559 466 2825 569 
Q 3091 672 3220 851 
Q 3350 1031 3350 1244 
Q 3350 1459 3225 1620 
Q 3100 1781 2813 1891 
Q 2628 1963 1997 2114 
Q 1366 2266 1113 2400 
Q 784 2572 623 2826 
Q 463 3081 463 3397 
Q 463 3744 659 4045 
Q 856 4347 1234 4503 
Q 1613 4659 2075 4659 
Q 2584 4659 2973 4495 
Q 3363 4331 3572 4012 
Q 3781 3694 3797 3291 
L 3216 3247 
Q 3169 3681 2898 3903 
Q 2628 4125 2100 4125 
Q 1550 4125 1298 3923 
Q 1047 3722 1047 3438 
Q 1047 3191 1225 3031 
Q 1400 2872 2139 2705 
Q 2878 2538 3153 2413 
Q 3553 2228 3743 1945 
Q 3934 1663 3934 1294 
Q 3934 928 3725 604 
Q 3516 281 3123 101 
Q 2731 -78 2241 -78 
Q 1619 -78 1198 103 
Q 778 284 539 648 
Q 300 1013 288 1472 
z
" transform="scale(0.015625)"/>
      <path id="ArialMT-39" d="M 350 1059 
L 891 1109 
Q 959 728 1153 556 
Q 1347 384 1650 384 
Q 1909 384 2104 503 
Q 2300 622 2425 820 
Q 2550 1019 2634 1356 
Q 2719 1694 2719 2044 
Q 2719 2081 2716 2156 
Q 2547 1888 2255 1720 
Q 1963 1553 1622 1553 
Q 1053 1553 659 1965 
Q 266 2378 266 3053 
Q 266 3750 677 4175 
Q 1088 4600 1706 4600 
Q 2153 4600 2523 4359 
Q 2894 4119 3086 3673 
Q 3278 3228 3278 2384 
Q 3278 1506 3087 986 
Q 2897 466 2520 194 
Q 2144 -78 1638 -78 
Q 1100 -78 759 220 
Q 419 519 350 1059 
z
M 2653 3081 
Q 2653 3566 2395 3850 
Q 2138 4134 1775 4134 
Q 1400 4134 1122 3828 
Q 844 3522 844 3034 
Q 844 2597 1108 2323 
Q 1372 2050 1759 2050 
Q 2150 2050 2401 2323 
Q 2653 2597 2653 3081 
z
" transform="scale(0.015625)"/>
      <path id="ArialMT-5f" d="M -97 -1272 
L -97 -866 
L 3631 -866 
L 3631 -1272 
L -97 -1272 
z
" transform="scale(0.015625)"/>
      <path id="ArialMT-49" d="M 597 0 
L 597 4581 
L 1203 4581 
L 1203 0 
L 597 0 
z
" transform="scale(0.015625)"/>
      <path id="ArialMT-56" d="M 1803 0 
L 28 4581 
L 684 4581 
L 1875 1253 
Q 2019 853 2116 503 
Q 2222 878 2363 1253 
L 3600 4581 
L 4219 4581 
L 2425 0 
L 1803 0 
z
" transform="scale(0.015625)"/>
      <path id="ArialMT-2d" d="M 203 1375 
L 203 1941 
L 1931 1941 
L 1931 1375 
L 203 1375 
z
" transform="scale(0.015625)"/>
      <path id="ArialMT-50" d="M 494 0 
L 494 4581 
L 2222 4581 
Q 2678 4581 2919 4538 
Q 3256 4481 3484 4323 
Q 3713 4166 3852 3881 
Q 3991 3597 3991 3256 
Q 3991 2672 3619 2267 
Q 3247 1863 2275 1863 
L 1100 1863 
L 1100 0 
L 494 0 
z
M 1100 2403 
L 2284 2403 
Q 2872 2403 3119 2622 
Q 3366 2841 3366 3238 
Q 3366 3525 3220 3729 
Q 3075 3934 2838 4000 
Q 2684 4041 2272 4041 
L 1100 4041 
L 1100 2403 
z
" transform="scale(0.015625)"/>
      <path id="ArialMT-2c" d="M 569 0 
L 569 641 
L 1209 641 
L 1209 0 
Q 1209 -353 1084 -570 
Q 959 -788 688 -906 
L 531 -666 
Q 709 -588 793 -436 
Q 878 -284 888 0 
L 569 0 
z
" transform="scale(0.015625)"/>
      <path id="ArialMT-52" d="M 503 0 
L 503 4581 
L 2534 4581 
Q 3147 4581 3465 4457 
Q 3784 4334 3975 4021 
Q 4166 3709 4166 3331 
Q 4166 2844 3850 2509 
Q 3534 2175 2875 2084 
Q 3116 1969 3241 1856 
Q 3506 1613 3744 1247 
L 4541 0 
L 3778 0 
L 3172 953 
Q 2906 1366 2734 1584 
Q 2563 1803 2427 1890 
Q 2291 1978 2150 2013 
Q 2047 2034 1813 2034 
L 1109 2034 
L 1109 0 
L 503 0 
z
M 1109 2559 
L 2413 2559 
Q 2828 2559 3062 2645 
Q 3297 2731 3419 2920 
Q 3541 3109 3541 3331 
Q 3541 3656 3305 3865 
Q 3069 4075 2559 4075 
L 1109 4075 
L 1109 2559 
z
" transform="scale(0.015625)"/>
      <path id="ArialMT-54" d="M 1659 0 
L 1659 4041 
L 150 4041 
L 150 4581 
L 3781 4581 
L 3781 4041 
L 2266 4041 
L 2266 0 
L 1659 0 
z
" transform="scale(0.015625)"/>
      <path id="ArialMT-73" d="M 197 991 
L 753 1078 
Q 800 744 1014 566 
Q 1228 388 1613 388 
Q 2000 388 2187 545 
Q 2375 703 2375 916 
Q 2375 1106 2209 1216 
Q 2094 1291 1634 1406 
Q 1016 1563 777 1677 
Q 538 1791 414 1992 
Q 291 2194 291 2438 
Q 291 2659 392 2848 
Q 494 3038 669 3163 
Q 800 3259 1026 3326 
Q 1253 3394 1513 3394 
Q 1903 3394 2198 3281 
Q 2494 3169 2634 2976 
Q 2775 2784 2828 2463 
L 2278 2388 
Q 2241 2644 2061 2787 
Q 1881 2931 1553 2931 
Q 1166 2931 1000 2803 
Q 834 2675 834 2503 
Q 834 2394 903 2306 
Q 972 2216 1119 2156 
Q 1203 2125 1616 2013 
Q 2213 1853 2448 1751 
Q 2684 1650 2818 1456 
Q 2953 1263 2953 975 
Q 2953 694 2789 445 
Q 2625 197 2315 61 
Q 2006 -75 1616 -75 
Q 969 -75 630 194 
Q 291 463 197 991 
z
" transform="scale(0.015625)"/>
      <path id="ArialMT-74" d="M 1650 503 
L 1731 6 
Q 1494 -44 1306 -44 
Q 1000 -44 831 53 
Q 663 150 594 308 
Q 525 466 525 972 
L 525 2881 
L 113 2881 
L 113 3319 
L 525 3319 
L 525 4141 
L 1084 4478 
L 1084 3319 
L 1650 3319 
L 1650 2881 
L 1084 2881 
L 1084 941 
Q 1084 700 1114 631 
Q 1144 563 1211 522 
Q 1278 481 1403 481 
Q 1497 481 1650 503 
z
" transform="scale(0.015625)"/>
      <path id="ArialMT-6c" d="M 409 0 
L 409 4581 
L 972 4581 
L 972 0 
L 409 0 
z
" transform="scale(0.015625)"/>
      <path id="ArialMT-68" d="M 422 0 
L 422 4581 
L 984 4581 
L 984 2938 
Q 1378 3394 1978 3394 
Q 2347 3394 2619 3248 
Q 2891 3103 3008 2847 
Q 3125 2591 3125 2103 
L 3125 0 
L 2563 0 
L 2563 2103 
Q 2563 2525 2380 2717 
Q 2197 2909 1863 2909 
Q 1613 2909 1392 2779 
Q 1172 2650 1078 2428 
Q 984 2206 984 1816 
L 984 0 
L 422 0 
z
" transform="scale(0.015625)"/>
      <path id="ArialMT-3a" d="M 578 2678 
L 578 3319 
L 1219 3319 
L 1219 2678 
L 578 2678 
z
M 578 0 
L 578 641 
L 1219 641 
L 1219 0 
L 578 0 
z
" transform="scale(0.015625)"/>
      <path id="ArialMT-38" d="M 1131 2484 
Q 781 2613 612 2850 
Q 444 3088 444 3419 
Q 444 3919 803 4259 
Q 1163 4600 1759 4600 
Q 2359 4600 2725 4251 
Q 3091 3903 3091 3403 
Q 3091 3084 2923 2848 
Q 2756 2613 2416 2484 
Q 2838 2347 3058 2040 
Q 3278 1734 3278 1309 
Q 3278 722 2862 322 
Q 2447 -78 1769 -78 
Q 1091 -78 675 323 
Q 259 725 259 1325 
Q 259 1772 486 2073 
Q 713 2375 1131 2484 
z
M 1019 3438 
Q 1019 3113 1228 2906 
Q 1438 2700 1772 2700 
Q 2097 2700 2305 2904 
Q 2513 3109 2513 3406 
Q 2513 3716 2298 3927 
Q 2084 4138 1766 4138 
Q 1444 4138 1231 3931 
Q 1019 3725 1019 3438 
z
M 838 1322 
Q 838 1081 952 856 
Q 1066 631 1291 507 
Q 1516 384 1775 384 
Q 2178 384 2440 643 
Q 2703 903 2703 1303 
Q 2703 1709 2433 1975 
Q 2163 2241 1756 2241 
Q 1359 2241 1098 1978 
Q 838 1716 838 1322 
z
" transform="scale(0.015625)"/>
      <path id="ArialMT-4e" d="M 488 0 
L 488 4581 
L 1109 4581 
L 3516 984 
L 3516 4581 
L 4097 4581 
L 4097 0 
L 3475 0 
L 1069 3600 
L 1069 0 
L 488 0 
z
" transform="scale(0.015625)"/>
     </defs>
     <use xlink:href="#ArialMT-46"/>
     <use xlink:href="#ArialMT-69" x="61.083984"/>
     <use xlink:href="#ArialMT-67" x="83.300781"/>
     <use xlink:href="#ArialMT-75" x="138.916016"/>
     <use xlink:href="#ArialMT-72" x="194.53125"/>
     <use xlink:href="#ArialMT-65" x="227.832031"/>
     <use xlink:href="#ArialMT-20" x="283.447266"/>
     <use xlink:href="#ArialMT-53" x="311.230469"/>
     <use xlink:href="#ArialMT-39" x="377.929688"/>
     <use xlink:href="#ArialMT-5f" x="433.544922"/>
     <use xlink:href="#ArialMT-49" x="489.160156"/>
     <use xlink:href="#ArialMT-56" x="516.943359"/>
     <use xlink:href="#ArialMT-35" x="583.642578"/>
     <use xlink:href="#ArialMT-2d" x="639.257812"/>
     <use xlink:href="#ArialMT-50" x="672.558594"/>
     <use xlink:href="#ArialMT-2c" x="726.382812"/>
     <use xlink:href="#ArialMT-52" x="754.166016"/>
     <use xlink:href="#ArialMT-54" x="824.632812"/>
     <use xlink:href="#ArialMT-2c" x="874.591797"/>
     <use xlink:href="#ArialMT-61" x="902.375"/>
     <use xlink:href="#ArialMT-69" x="957.990234"/>
     <use xlink:href="#ArialMT-72" x="980.207031"/>
     <use xlink:href="#ArialMT-2c" x="1008.007812"/>
     <use xlink:href="#ArialMT-73" x="1035.791016"/>
     <use xlink:href="#ArialMT-74" x="1085.791016"/>
     <use xlink:href="#ArialMT-65" x="1113.574219"/>
     <use xlink:href="#ArialMT-65" x="1169.189453"/>
     <use xlink:href="#ArialMT-6c" x="1224.804688"/>
     <use xlink:href="#ArialMT-5f" x="1247.021484"/>
     <use xlink:href="#ArialMT-32" x="1302.636719"/>
     <use xlink:href="#ArialMT-20" x="1358.251953"/>
     <use xlink:href="#ArialMT-68" x="1386.035156"/>
     <use xlink:href="#ArialMT-72" x="1441.650391"/>
     <use xlink:href="#ArialMT-3a" x="1474.951172"/>
     <use xlink:href="#ArialMT-30" x="1502.734375"/>
     <use xlink:href="#ArialMT-2e" x="1558.349609"/>
     <use xlink:href="#ArialMT-31" x="1586.132812"/>
     <use xlink:href="#ArialMT-35" x="1641.748047"/>
     <use xlink:href="#ArialMT-2c" x="1697.363281"/>
     <use xlink:href="#ArialMT-20" x="1725.146484"/>
     <use xlink:href="#ArialMT-73" x="1752.929688"/>
     <use xlink:href="#ArialMT-3a" x="1802.929688"/>
     <use xlink:href="#ArialMT-30" x="1830.712891"/>
     <use xlink:href="#ArialMT-2e" x="1886.328125"/>
     <use xlink:href="#ArialMT-38" x="1914.111328"/>
     <use xlink:href="#ArialMT-39" x="1969.726562"/>
     <use xlink:href="#ArialMT-2c" x="2025.341797"/>
     <use xlink:href="#ArialMT-20" x="2053.125"/>
     <use xlink:href="#ArialMT-4e" x="2080.908203"/>
     <use xlink:href="#ArialMT-3a" x="2153.125"/>
     <use xlink:href="#ArialMT-33" x="2180.908203"/>
     <use xlink:href="#ArialMT-30" x="2236.523438"/>
    </g>
   </g>
   <g id="legend_1">
    <g id="line2d_15">
     <path d="M 440.744844 31.14375 
L 449.744844 31.14375 
L 458.744844 31.14375 
" style="fill: none; stroke-dasharray: 5.55,2.4; stroke-dashoffset: 0; stroke: #000000; stroke-width: 1.5"/>
    </g>
    <g id="text_16">
     <!-- 0.0 h -->
     <g transform="translate(465.944844 34.29375) scale(0.09 -0.09)">
      <use xlink:href="#ArialMT-30"/>
      <use xlink:href="#ArialMT-2e" x="55.615234"/>
      <use xlink:href="#ArialMT-30" x="83.398438"/>
      <use xlink:href="#ArialMT-20" x="139.013672"/>
      <use xlink:href="#ArialMT-68" x="166.796875"/>
     </g>
    </g>
    <g id="line2d_16">
     <g>
      <use xlink:href="#m71d37ac9f7" x="449.744844" y="43.874531" style="fill: #b73779; stroke: #b73779; stroke-linejoin: bevel"/>
     </g>
    </g>
    <g id="text_17">
     <!-- 2 h -->
     <g transform="translate(465.944844 47.024531) scale(0.09 -0.09)">
      <use xlink:href="#ArialMT-32"/>
      <use xlink:href="#ArialMT-20" x="55.615234"/>
      <use xlink:href="#ArialMT-68" x="83.398438"/>
     </g>
    </g>
   </g>
  </g>
  <g id="axes_2">
   <g id="patch_7">
    <path d="M 51.46 471.190469 
L 248.72 471.190469 
L 248.72 266.271094 
L 51.46 266.271094 
L 51.46 471.190469 
z
" style="fill: none"/>
   </g>
   <g id="matplotlib.axis_3">
    <g id="xtick_7">
     <g id="line2d_17">
      <g>
       <use xlink:href="#mfc3c9a44e6" x="51.46" y="471.190469" style="stroke: #000000; stroke-width: 0.8"/>
      </g>
     </g>
     <g id="text_18">
      <!-- 0.0 -->
      <g transform="translate(45.205 484.6325) scale(0.09 -0.09)">
       <use xlink:href="#ArialMT-30"/>
       <use xlink:href="#ArialMT-2e" x="55.615234"/>
       <use xlink:href="#ArialMT-30" x="83.398438"/>
      </g>
     </g>
    </g>
    <g id="xtick_8">
     <g id="line2d_18">
      <g>
       <use xlink:href="#mfc3c9a44e6" x="98.426667" y="471.190469" style="stroke: #000000; stroke-width: 0.8"/>
      </g>
     </g>
     <g id="text_19">
      <!-- 0.5 -->
      <g transform="translate(92.171667 484.6325) scale(0.09 -0.09)">
       <use xlink:href="#ArialMT-30"/>
       <use xlink:href="#ArialMT-2e" x="55.615234"/>
       <use xlink:href="#ArialMT-35" x="83.398438"/>
      </g>
     </g>
    </g>
    <g id="xtick_9">
     <g id="line2d_19">
      <g>
       <use xlink:href="#mfc3c9a44e6" x="145.393333" y="471.190469" style="stroke: #000000; stroke-width: 0.8"/>
      </g>
     </g>
     <g id="text_20">
      <!-- 1.0 -->
      <g transform="translate(139.138333 484.6325) scale(0.09 -0.09)">
       <use xlink:href="#ArialMT-31"/>
       <use xlink:href="#ArialMT-2e" x="55.615234"/>
       <use xlink:href="#ArialMT-30" x="83.398438"/>
      </g>
     </g>
    </g>
    <g id="xtick_10">
     <g id="line2d_20">
      <g>
       <use xlink:href="#mfc3c9a44e6" x="192.36" y="471.190469" style="stroke: #000000; stroke-width: 0.8"/>
      </g>
     </g>
     <g id="text_21">
      <!-- 1.5 -->
      <g transform="translate(186.105 484.6325) scale(0.09 -0.09)">
       <use xlink:href="#ArialMT-31"/>
       <use xlink:href="#ArialMT-2e" x="55.615234"/>
       <use xlink:href="#ArialMT-35" x="83.398438"/>
      </g>
     </g>
    </g>
    <g id="xtick_11">
     <g id="line2d_21">
      <g>
       <use xlink:href="#mfc3c9a44e6" x="239.326667" y="471.190469" style="stroke: #000000; stroke-width: 0.8"/>
      </g>
     </g>
     <g id="text_22">
      <!-- 2.0 -->
      <g transform="translate(233.071667 484.6325) scale(0.09 -0.09)">
       <use xlink:href="#ArialMT-32"/>
       <use xlink:href="#ArialMT-2e" x="55.615234"/>
       <use xlink:href="#ArialMT-30" x="83.398438"/>
      </g>
     </g>
    </g>
    <g id="text_23">
     <!-- $\bf{time\ }\ \it{(h)}$ -->
     <g transform="translate(129.345 496.863281) scale(0.09 -0.09)">
      <defs>
       <path id="DejaVuSans-Oblique-68" d="M 3566 2113 
L 3156 0 
L 2578 0 
L 2988 2091 
Q 3016 2238 3031 2350 
Q 3047 2463 3047 2528 
Q 3047 2791 2881 2937 
Q 2716 3084 2419 3084 
Q 1956 3084 1617 2771 
Q 1278 2459 1178 1941 
L 800 0 
L 225 0 
L 1172 4863 
L 1747 4863 
L 1375 2950 
Q 1594 3244 1934 3414 
Q 2275 3584 2650 3584 
Q 3113 3584 3367 3334 
Q 3622 3084 3622 2631 
Q 3622 2519 3608 2391 
Q 3594 2263 3566 2113 
z
" transform="scale(0.015625)"/>
      </defs>
      <use xlink:href="#DejaVuSans-Bold-74" transform="translate(0 0.015625)"/>
      <use xlink:href="#DejaVuSans-Bold-69" transform="translate(47.802734 0.015625)"/>
      <use xlink:href="#DejaVuSans-Bold-6d" transform="translate(82.080078 0.015625)"/>
      <use xlink:href="#DejaVuSans-Bold-65" transform="translate(186.279297 0.015625)"/>
      <use xlink:href="#DejaVuSans-28" transform="translate(319.042319 0.015625)"/>
      <use xlink:href="#DejaVuSans-Oblique-68" transform="translate(358.055991 0.015625)"/>
      <use xlink:href="#DejaVuSans-29" transform="translate(421.434897 0.015625)"/>
     </g>
    </g>
   </g>
   <g id="matplotlib.axis_4">
    <g id="ytick_6">
     <g id="line2d_22">
      <g>
       <use xlink:href="#m3585acfb41" x="51.46" y="471.190469" style="stroke: #000000; stroke-width: 0.8"/>
      </g>
     </g>
     <g id="text_24">
      <!-- 0.0 -->
      <g transform="translate(31.95 474.411484) scale(0.09 -0.09)">
       <use xlink:href="#ArialMT-30"/>
       <use xlink:href="#ArialMT-2e" x="55.615234"/>
       <use xlink:href="#ArialMT-30" x="83.398438"/>
      </g>
     </g>
    </g>
    <g id="ytick_7">
     <g id="line2d_23">
      <g>
       <use xlink:href="#m3585acfb41" x="51.46" y="426.869344" style="stroke: #000000; stroke-width: 0.8"/>
      </g>
     </g>
     <g id="text_25">
      <!-- 0.5 -->
      <g transform="translate(31.95 430.09036) scale(0.09 -0.09)">
       <use xlink:href="#ArialMT-30"/>
       <use xlink:href="#ArialMT-2e" x="55.615234"/>
       <use xlink:href="#ArialMT-35" x="83.398438"/>
      </g>
     </g>
    </g>
    <g id="ytick_8">
     <g id="line2d_24">
      <g>
       <use xlink:href="#m3585acfb41" x="51.46" y="382.548219" style="stroke: #000000; stroke-width: 0.8"/>
      </g>
     </g>
     <g id="text_26">
      <!-- 1.0 -->
      <g transform="translate(31.95 385.769235) scale(0.09 -0.09)">
       <use xlink:href="#ArialMT-31"/>
       <use xlink:href="#ArialMT-2e" x="55.615234"/>
       <use xlink:href="#ArialMT-30" x="83.398438"/>
      </g>
     </g>
    </g>
    <g id="ytick_9">
     <g id="line2d_25">
      <g>
       <use xlink:href="#m3585acfb41" x="51.46" y="338.227094" style="stroke: #000000; stroke-width: 0.8"/>
      </g>
     </g>
     <g id="text_27">
      <!-- 1.5 -->
      <g transform="translate(31.95 341.44811) scale(0.09 -0.09)">
       <use xlink:href="#ArialMT-31"/>
       <use xlink:href="#ArialMT-2e" x="55.615234"/>
       <use xlink:href="#ArialMT-35" x="83.398438"/>
      </g>
     </g>
    </g>
    <g id="ytick_10">
     <g id="line2d_26">
      <g>
       <use xlink:href="#m3585acfb41" x="51.46" y="293.90597" style="stroke: #000000; stroke-width: 0.8"/>
      </g>
     </g>
     <g id="text_28">
      <!-- 2.0 -->
      <g transform="translate(31.95 297.126985) scale(0.09 -0.09)">
       <use xlink:href="#ArialMT-32"/>
       <use xlink:href="#ArialMT-2e" x="55.615234"/>
       <use xlink:href="#ArialMT-30" x="83.398438"/>
      </g>
     </g>
    </g>
    <g id="text_29">
     <!-- $\bf{number\ of\ scissions}\ \it{(10^{18})}$ -->
     <g transform="translate(26.16125 433.935781) rotate(-90) scale(0.09 -0.09)">
      <defs>
       <path id="DejaVuSans-31" d="M 794 531 
L 1825 531 
L 1825 4091 
L 703 3866 
L 703 4441 
L 1819 4666 
L 2450 4666 
L 2450 531 
L 3481 531 
L 3481 0 
L 794 0 
L 794 531 
z
" transform="scale(0.015625)"/>
       <path id="DejaVuSans-30" d="M 2034 4250 
Q 1547 4250 1301 3770 
Q 1056 3291 1056 2328 
Q 1056 1369 1301 889 
Q 1547 409 2034 409 
Q 2525 409 2770 889 
Q 3016 1369 3016 2328 
Q 3016 3291 2770 3770 
Q 2525 4250 2034 4250 
z
M 2034 4750 
Q 2819 4750 3233 4129 
Q 3647 3509 3647 2328 
Q 3647 1150 3233 529 
Q 2819 -91 2034 -91 
Q 1250 -91 836 529 
Q 422 1150 422 2328 
Q 422 3509 836 4129 
Q 1250 4750 2034 4750 
z
" transform="scale(0.015625)"/>
       <path id="DejaVuSans-38" d="M 2034 2216 
Q 1584 2216 1326 1975 
Q 1069 1734 1069 1313 
Q 1069 891 1326 650 
Q 1584 409 2034 409 
Q 2484 409 2743 651 
Q 3003 894 3003 1313 
Q 3003 1734 2745 1975 
Q 2488 2216 2034 2216 
z
M 1403 2484 
Q 997 2584 770 2862 
Q 544 3141 544 3541 
Q 544 4100 942 4425 
Q 1341 4750 2034 4750 
Q 2731 4750 3128 4425 
Q 3525 4100 3525 3541 
Q 3525 3141 3298 2862 
Q 3072 2584 2669 2484 
Q 3125 2378 3379 2068 
Q 3634 1759 3634 1313 
Q 3634 634 3220 271 
Q 2806 -91 2034 -91 
Q 1263 -91 848 271 
Q 434 634 434 1313 
Q 434 1759 690 2068 
Q 947 2378 1403 2484 
z
M 1172 3481 
Q 1172 3119 1398 2916 
Q 1625 2713 2034 2713 
Q 2441 2713 2670 2916 
Q 2900 3119 2900 3481 
Q 2900 3844 2670 4047 
Q 2441 4250 2034 4250 
Q 1625 4250 1398 4047 
Q 1172 3844 1172 3481 
z
" transform="scale(0.015625)"/>
      </defs>
      <use xlink:href="#DejaVuSans-Bold-6e" transform="translate(0 0.765625)"/>
      <use xlink:href="#DejaVuSans-Bold-75" transform="translate(71.191406 0.765625)"/>
      <use xlink:href="#DejaVuSans-Bold-6d" transform="translate(142.382812 0.765625)"/>
      <use xlink:href="#DejaVuSans-Bold-62" transform="translate(246.582031 0.765625)"/>
      <use xlink:href="#DejaVuSans-Bold-65" transform="translate(318.164062 0.765625)"/>
      <use xlink:href="#DejaVuSans-Bold-72" transform="translate(385.986328 0.765625)"/>
      <use xlink:href="#DejaVuSans-Bold-6f" transform="translate(467.773113 0.765625)"/>
      <use xlink:href="#DejaVuSans-Bold-66" transform="translate(536.474285 0.765625)"/>
      <use xlink:href="#DejaVuSans-Bold-73" transform="translate(612.450522 0.765625)"/>
      <use xlink:href="#DejaVuSans-Bold-63" transform="translate(671.972007 0.765625)"/>
      <use xlink:href="#DejaVuSans-Bold-69" transform="translate(731.249351 0.765625)"/>
      <use xlink:href="#DejaVuSans-Bold-73" transform="translate(765.526694 0.765625)"/>
      <use xlink:href="#DejaVuSans-Bold-73" transform="translate(825.048179 0.765625)"/>
      <use xlink:href="#DejaVuSans-Bold-69" transform="translate(884.569663 0.765625)"/>
      <use xlink:href="#DejaVuSans-Bold-6f" transform="translate(918.847007 0.765625)"/>
      <use xlink:href="#DejaVuSans-Bold-6e" transform="translate(987.548179 0.765625)"/>
      <use xlink:href="#DejaVuSans-Bold-73" transform="translate(1058.739585 0.765625)"/>
      <use xlink:href="#DejaVuSans-28" transform="translate(1150.731448 0.765625)"/>
      <use xlink:href="#DejaVuSans-31" transform="translate(1189.74512 0.765625)"/>
      <use xlink:href="#DejaVuSans-30" transform="translate(1253.368167 0.765625)"/>
      <use xlink:href="#DejaVuSans-31" transform="translate(1317.948245 39.046875) scale(0.7)"/>
      <use xlink:href="#DejaVuSans-38" transform="translate(1362.484377 39.046875) scale(0.7)"/>
      <use xlink:href="#DejaVuSans-29" transform="translate(1409.754885 0.765625)"/>
     </g>
    </g>
   </g>
   <g id="line2d_27">
    <path d="M 51.46 471.190469 
L 239.326667 298.210766 
" clip-path="url(#p393c3fb8aa)" style="fill: none; stroke-dasharray: 5.55,2.4; stroke-dashoffset: 0; stroke: #ff0000; stroke-width: 1.5"/>
   </g>
   <g id="line2d_28">
    <defs>
     <path id="ma0d975c89e" d="M 0 3 
C 0.795609 3 1.55874 2.683901 2.12132 2.12132 
C 2.683901 1.55874 3 0.795609 3 0 
C 3 -0.795609 2.683901 -1.55874 2.12132 -2.12132 
C 1.55874 -2.683901 0.795609 -3 0 -3 
C -0.795609 -3 -1.55874 -2.683901 -2.12132 -2.12132 
C -2.683901 -1.55874 -3 -0.795609 -3 0 
C -3 0.795609 -2.683901 1.55874 -2.12132 2.12132 
C -1.55874 2.683901 -0.795609 3 0 3 
z
" style="stroke: #000000"/>
    </defs>
    <g clip-path="url(#p393c3fb8aa)">
     <use xlink:href="#ma0d975c89e" x="51.46" y="471.190469" style="stroke: #000000"/>
     <use xlink:href="#ma0d975c89e" x="239.326667" y="276.029159" style="stroke: #000000"/>
    </g>
   </g>
   <g id="patch_8">
    <path d="M 51.46 471.190469 
L 51.46 266.271094 
" style="fill: none; stroke: #000000; stroke-width: 0.8; stroke-linejoin: miter; stroke-linecap: square"/>
   </g>
   <g id="patch_9">
    <path d="M 248.72 471.190469 
L 248.72 266.271094 
" style="fill: none; stroke: #000000; stroke-width: 0.8; stroke-linejoin: miter; stroke-linecap: square"/>
   </g>
   <g id="patch_10">
    <path d="M 51.46 471.190469 
L 248.72 471.190469 
" style="fill: none; stroke: #000000; stroke-width: 0.8; stroke-linejoin: miter; stroke-linecap: square"/>
   </g>
   <g id="patch_11">
    <path d="M 51.46 266.271094 
L 248.72 266.271094 
" style="fill: none; stroke: #000000; stroke-width: 0.8; stroke-linejoin: miter; stroke-linecap: square"/>
   </g>
   <g id="text_30">
    <!-- b) -->
    <g transform="translate(12.008 274.27875) scale(0.11 -0.11)">
     <defs>
      <path id="ArialMT-62" d="M 941 0 
L 419 0 
L 419 4581 
L 981 4581 
L 981 2947 
Q 1338 3394 1891 3394 
Q 2197 3394 2470 3270 
Q 2744 3147 2920 2923 
Q 3097 2700 3197 2384 
Q 3297 2069 3297 1709 
Q 3297 856 2875 390 
Q 2453 -75 1863 -75 
Q 1275 -75 941 416 
L 941 0 
z
M 934 1684 
Q 934 1088 1097 822 
Q 1363 388 1816 388 
Q 2184 388 2453 708 
Q 2722 1028 2722 1663 
Q 2722 2313 2464 2622 
Q 2206 2931 1841 2931 
Q 1472 2931 1203 2611 
Q 934 2291 934 1684 
z
" transform="scale(0.015625)"/>
     </defs>
     <use xlink:href="#ArialMT-62"/>
     <use xlink:href="#ArialMT-29" x="55.615234"/>
    </g>
   </g>
   <g id="legend_2">
    <g id="line2d_29">
     <path d="M 59.56 277.663125 
L 68.56 277.663125 
L 77.56 277.663125 
" style="fill: none; stroke-dasharray: 5.55,2.4; stroke-dashoffset: 0; stroke: #ff0000; stroke-width: 1.5"/>
    </g>
    <g id="text_31">
     <!-- fit -->
     <g transform="translate(84.76 280.813125) scale(0.09 -0.09)">
      <defs>
       <path id="ArialMT-66" d="M 556 0 
L 556 2881 
L 59 2881 
L 59 3319 
L 556 3319 
L 556 3672 
Q 556 4006 616 4169 
Q 697 4388 901 4523 
Q 1106 4659 1475 4659 
Q 1713 4659 2000 4603 
L 1916 4113 
Q 1741 4144 1584 4144 
Q 1328 4144 1222 4034 
Q 1116 3925 1116 3625 
L 1116 3319 
L 1763 3319 
L 1763 2881 
L 1116 2881 
L 1116 0 
L 556 0 
z
" transform="scale(0.015625)"/>
      </defs>
      <use xlink:href="#ArialMT-66"/>
      <use xlink:href="#ArialMT-69" x="27.783203"/>
      <use xlink:href="#ArialMT-74" x="50"/>
     </g>
    </g>
    <g id="line2d_30">
     <g>
      <use xlink:href="#ma0d975c89e" x="68.56" y="290.393906" style="stroke: #000000"/>
     </g>
    </g>
    <g id="text_32">
     <!-- experimental data -->
     <g transform="translate(84.76 293.543906) scale(0.09 -0.09)">
      <defs>
       <path id="ArialMT-78" d="M 47 0 
L 1259 1725 
L 138 3319 
L 841 3319 
L 1350 2541 
Q 1494 2319 1581 2169 
Q 1719 2375 1834 2534 
L 2394 3319 
L 3066 3319 
L 1919 1756 
L 3153 0 
L 2463 0 
L 1781 1031 
L 1600 1309 
L 728 0 
L 47 0 
z
" transform="scale(0.015625)"/>
       <path id="ArialMT-70" d="M 422 -1272 
L 422 3319 
L 934 3319 
L 934 2888 
Q 1116 3141 1344 3267 
Q 1572 3394 1897 3394 
Q 2322 3394 2647 3175 
Q 2972 2956 3137 2557 
Q 3303 2159 3303 1684 
Q 3303 1175 3120 767 
Q 2938 359 2589 142 
Q 2241 -75 1856 -75 
Q 1575 -75 1351 44 
Q 1128 163 984 344 
L 984 -1272 
L 422 -1272 
z
M 931 1641 
Q 931 1000 1190 694 
Q 1450 388 1819 388 
Q 2194 388 2461 705 
Q 2728 1022 2728 1688 
Q 2728 2322 2467 2637 
Q 2206 2953 1844 2953 
Q 1484 2953 1207 2617 
Q 931 2281 931 1641 
z
" transform="scale(0.015625)"/>
       <path id="ArialMT-6d" d="M 422 0 
L 422 3319 
L 925 3319 
L 925 2853 
Q 1081 3097 1340 3245 
Q 1600 3394 1931 3394 
Q 2300 3394 2536 3241 
Q 2772 3088 2869 2813 
Q 3263 3394 3894 3394 
Q 4388 3394 4653 3120 
Q 4919 2847 4919 2278 
L 4919 0 
L 4359 0 
L 4359 2091 
Q 4359 2428 4304 2576 
Q 4250 2725 4106 2815 
Q 3963 2906 3769 2906 
Q 3419 2906 3187 2673 
Q 2956 2441 2956 1928 
L 2956 0 
L 2394 0 
L 2394 2156 
Q 2394 2531 2256 2718 
Q 2119 2906 1806 2906 
Q 1569 2906 1367 2781 
Q 1166 2656 1075 2415 
Q 984 2175 984 1722 
L 984 0 
L 422 0 
z
" transform="scale(0.015625)"/>
       <path id="ArialMT-6e" d="M 422 0 
L 422 3319 
L 928 3319 
L 928 2847 
Q 1294 3394 1984 3394 
Q 2284 3394 2536 3286 
Q 2788 3178 2913 3003 
Q 3038 2828 3088 2588 
Q 3119 2431 3119 2041 
L 3119 0 
L 2556 0 
L 2556 2019 
Q 2556 2363 2490 2533 
Q 2425 2703 2258 2804 
Q 2091 2906 1866 2906 
Q 1506 2906 1245 2678 
Q 984 2450 984 1813 
L 984 0 
L 422 0 
z
" transform="scale(0.015625)"/>
       <path id="ArialMT-64" d="M 2575 0 
L 2575 419 
Q 2259 -75 1647 -75 
Q 1250 -75 917 144 
Q 584 363 401 755 
Q 219 1147 219 1656 
Q 219 2153 384 2558 
Q 550 2963 881 3178 
Q 1213 3394 1622 3394 
Q 1922 3394 2156 3267 
Q 2391 3141 2538 2938 
L 2538 4581 
L 3097 4581 
L 3097 0 
L 2575 0 
z
M 797 1656 
Q 797 1019 1065 703 
Q 1334 388 1700 388 
Q 2069 388 2326 689 
Q 2584 991 2584 1609 
Q 2584 2291 2321 2609 
Q 2059 2928 1675 2928 
Q 1300 2928 1048 2622 
Q 797 2316 797 1656 
z
" transform="scale(0.015625)"/>
      </defs>
      <use xlink:href="#ArialMT-65"/>
      <use xlink:href="#ArialMT-78" x="55.615234"/>
      <use xlink:href="#ArialMT-70" x="105.615234"/>
      <use xlink:href="#ArialMT-65" x="161.230469"/>
      <use xlink:href="#ArialMT-72" x="216.845703"/>
      <use xlink:href="#ArialMT-69" x="250.146484"/>
      <use xlink:href="#ArialMT-6d" x="272.363281"/>
      <use xlink:href="#ArialMT-65" x="355.664062"/>
      <use xlink:href="#ArialMT-6e" x="411.279297"/>
      <use xlink:href="#ArialMT-74" x="466.894531"/>
      <use xlink:href="#ArialMT-61" x="494.677734"/>
      <use xlink:href="#ArialMT-6c" x="550.292969"/>
      <use xlink:href="#ArialMT-20" x="572.509766"/>
      <use xlink:href="#ArialMT-64" x="600.292969"/>
      <use xlink:href="#ArialMT-61" x="655.908203"/>
      <use xlink:href="#ArialMT-74" x="711.523438"/>
      <use xlink:href="#ArialMT-61" x="739.306641"/>
     </g>
    </g>
   </g>
  </g>
  <g id="axes_3">
   <g id="patch_12">
    <path d="M 296.8 471.190469 
L 494.06 471.190469 
L 494.06 266.271094 
L 296.8 266.271094 
L 296.8 471.190469 
z
" style="fill: none"/>
   </g>
   <g id="matplotlib.axis_5">
    <g id="xtick_12">
     <g id="line2d_31">
      <g>
       <use xlink:href="#mfc3c9a44e6" x="296.8" y="471.190469" style="stroke: #000000; stroke-width: 0.8"/>
      </g>
     </g>
     <g id="text_33">
      <!-- 0.0 -->
      <g transform="translate(290.545 484.6325) scale(0.09 -0.09)">
       <use xlink:href="#ArialMT-30"/>
       <use xlink:href="#ArialMT-2e" x="55.615234"/>
       <use xlink:href="#ArialMT-30" x="83.398438"/>
      </g>
     </g>
    </g>
    <g id="xtick_13">
     <g id="line2d_32">
      <g>
       <use xlink:href="#mfc3c9a44e6" x="343.766667" y="471.190469" style="stroke: #000000; stroke-width: 0.8"/>
      </g>
     </g>
     <g id="text_34">
      <!-- 0.5 -->
      <g transform="translate(337.511667 484.6325) scale(0.09 -0.09)">
       <use xlink:href="#ArialMT-30"/>
       <use xlink:href="#ArialMT-2e" x="55.615234"/>
       <use xlink:href="#ArialMT-35" x="83.398438"/>
      </g>
     </g>
    </g>
    <g id="xtick_14">
     <g id="line2d_33">
      <g>
       <use xlink:href="#mfc3c9a44e6" x="390.733333" y="471.190469" style="stroke: #000000; stroke-width: 0.8"/>
      </g>
     </g>
     <g id="text_35">
      <!-- 1.0 -->
      <g transform="translate(384.478333 484.6325) scale(0.09 -0.09)">
       <use xlink:href="#ArialMT-31"/>
       <use xlink:href="#ArialMT-2e" x="55.615234"/>
       <use xlink:href="#ArialMT-30" x="83.398438"/>
      </g>
     </g>
    </g>
    <g id="xtick_15">
     <g id="line2d_34">
      <g>
       <use xlink:href="#mfc3c9a44e6" x="437.7" y="471.190469" style="stroke: #000000; stroke-width: 0.8"/>
      </g>
     </g>
     <g id="text_36">
      <!-- 1.5 -->
      <g transform="translate(431.445 484.6325) scale(0.09 -0.09)">
       <use xlink:href="#ArialMT-31"/>
       <use xlink:href="#ArialMT-2e" x="55.615234"/>
       <use xlink:href="#ArialMT-35" x="83.398438"/>
      </g>
     </g>
    </g>
    <g id="xtick_16">
     <g id="line2d_35">
      <g>
       <use xlink:href="#mfc3c9a44e6" x="484.666667" y="471.190469" style="stroke: #000000; stroke-width: 0.8"/>
      </g>
     </g>
     <g id="text_37">
      <!-- 2.0 -->
      <g transform="translate(478.411667 484.6325) scale(0.09 -0.09)">
       <use xlink:href="#ArialMT-32"/>
       <use xlink:href="#ArialMT-2e" x="55.615234"/>
       <use xlink:href="#ArialMT-30" x="83.398438"/>
      </g>
     </g>
    </g>
    <g id="text_38">
     <!-- $\bf{time\ }\ \it{(h)}$ -->
     <g transform="translate(374.685 496.863281) scale(0.09 -0.09)">
      <use xlink:href="#DejaVuSans-Bold-74" transform="translate(0 0.015625)"/>
      <use xlink:href="#DejaVuSans-Bold-69" transform="translate(47.802734 0.015625)"/>
      <use xlink:href="#DejaVuSans-Bold-6d" transform="translate(82.080078 0.015625)"/>
      <use xlink:href="#DejaVuSans-Bold-65" transform="translate(186.279297 0.015625)"/>
      <use xlink:href="#DejaVuSans-28" transform="translate(319.042319 0.015625)"/>
      <use xlink:href="#DejaVuSans-Oblique-68" transform="translate(358.055991 0.015625)"/>
      <use xlink:href="#DejaVuSans-29" transform="translate(421.434897 0.015625)"/>
     </g>
    </g>
   </g>
   <g id="matplotlib.axis_6">
    <g id="ytick_11">
     <g id="line2d_36">
      <g>
       <use xlink:href="#m3585acfb41" x="296.8" y="451.13731" style="stroke: #000000; stroke-width: 0.8"/>
      </g>
     </g>
     <g id="text_39">
      <!-- 60 -->
      <g transform="translate(279.790312 454.358326) scale(0.09 -0.09)">
       <defs>
        <path id="ArialMT-36" d="M 3184 3459 
L 2625 3416 
Q 2550 3747 2413 3897 
Q 2184 4138 1850 4138 
Q 1581 4138 1378 3988 
Q 1113 3794 959 3422 
Q 806 3050 800 2363 
Q 1003 2672 1297 2822 
Q 1591 2972 1913 2972 
Q 2475 2972 2870 2558 
Q 3266 2144 3266 1488 
Q 3266 1056 3080 686 
Q 2894 316 2569 119 
Q 2244 -78 1831 -78 
Q 1128 -78 684 439 
Q 241 956 241 2144 
Q 241 3472 731 4075 
Q 1159 4600 1884 4600 
Q 2425 4600 2770 4297 
Q 3116 3994 3184 3459 
z
M 888 1484 
Q 888 1194 1011 928 
Q 1134 663 1356 523 
Q 1578 384 1822 384 
Q 2178 384 2434 671 
Q 2691 959 2691 1453 
Q 2691 1928 2437 2201 
Q 2184 2475 1800 2475 
Q 1419 2475 1153 2201 
Q 888 1928 888 1484 
z
" transform="scale(0.015625)"/>
       </defs>
       <use xlink:href="#ArialMT-36"/>
       <use xlink:href="#ArialMT-30" x="55.615234"/>
      </g>
     </g>
    </g>
    <g id="ytick_12">
     <g id="line2d_37">
      <g>
       <use xlink:href="#m3585acfb41" x="296.8" y="415.30414" style="stroke: #000000; stroke-width: 0.8"/>
      </g>
     </g>
     <g id="text_40">
      <!-- 80 -->
      <g transform="translate(279.790312 418.525155) scale(0.09 -0.09)">
       <use xlink:href="#ArialMT-38"/>
       <use xlink:href="#ArialMT-30" x="55.615234"/>
      </g>
     </g>
    </g>
    <g id="ytick_13">
     <g id="line2d_38">
      <g>
       <use xlink:href="#m3585acfb41" x="296.8" y="379.470969" style="stroke: #000000; stroke-width: 0.8"/>
      </g>
     </g>
     <g id="text_41">
      <!-- 100 -->
      <g transform="translate(274.785469 382.691985) scale(0.09 -0.09)">
       <use xlink:href="#ArialMT-31"/>
       <use xlink:href="#ArialMT-30" x="55.615234"/>
       <use xlink:href="#ArialMT-30" x="111.230469"/>
      </g>
     </g>
    </g>
    <g id="ytick_14">
     <g id="line2d_39">
      <g>
       <use xlink:href="#m3585acfb41" x="296.8" y="343.637799" style="stroke: #000000; stroke-width: 0.8"/>
      </g>
     </g>
     <g id="text_42">
      <!-- 120 -->
      <g transform="translate(274.785469 346.858814) scale(0.09 -0.09)">
       <use xlink:href="#ArialMT-31"/>
       <use xlink:href="#ArialMT-32" x="55.615234"/>
       <use xlink:href="#ArialMT-30" x="111.230469"/>
      </g>
     </g>
    </g>
    <g id="ytick_15">
     <g id="line2d_40">
      <g>
       <use xlink:href="#m3585acfb41" x="296.8" y="307.804628" style="stroke: #000000; stroke-width: 0.8"/>
      </g>
     </g>
     <g id="text_43">
      <!-- 140 -->
      <g transform="translate(274.785469 311.025644) scale(0.09 -0.09)">
       <use xlink:href="#ArialMT-31"/>
       <use xlink:href="#ArialMT-34" x="55.615234"/>
       <use xlink:href="#ArialMT-30" x="111.230469"/>
      </g>
     </g>
    </g>
    <g id="ytick_16">
     <g id="line2d_41">
      <g>
       <use xlink:href="#m3585acfb41" x="296.8" y="271.971458" style="stroke: #000000; stroke-width: 0.8"/>
      </g>
     </g>
     <g id="text_44">
      <!-- 160 -->
      <g transform="translate(274.785469 275.192474) scale(0.09 -0.09)">
       <use xlink:href="#ArialMT-31"/>
       <use xlink:href="#ArialMT-36" x="55.615234"/>
       <use xlink:href="#ArialMT-30" x="111.230469"/>
      </g>
     </g>
    </g>
    <g id="text_45">
     <!-- $\bf{M_{n}}\ \it{(kg/mol)}$ -->
     <g transform="translate(268.895469 395.955781) rotate(-90) scale(0.09 -0.09)">
      <defs>
       <path id="DejaVuSans-Bold-4d" d="M 588 4666 
L 2119 4666 
L 3181 2169 
L 4250 4666 
L 5778 4666 
L 5778 0 
L 4641 0 
L 4641 3413 
L 3566 897 
L 2803 897 
L 1728 3413 
L 1728 0 
L 588 0 
L 588 4666 
z
" transform="scale(0.015625)"/>
      </defs>
      <use xlink:href="#DejaVuSans-Bold-4d" transform="translate(0 0.015625)"/>
      <use xlink:href="#DejaVuSans-Bold-6e" transform="translate(100.46875 -16.390625) scale(0.7)"/>
      <use xlink:href="#DejaVuSans-28" transform="translate(185.507488 0.015625)"/>
      <use xlink:href="#DejaVuSans-Oblique-6b" transform="translate(224.52116 0.015625)"/>
      <use xlink:href="#DejaVuSans-Oblique-67" transform="translate(282.431316 0.015625)"/>
      <use xlink:href="#DejaVuSans-2f" transform="translate(345.907878 0.015625)"/>
      <use xlink:href="#DejaVuSans-Oblique-6d" transform="translate(379.599285 0.015625)"/>
      <use xlink:href="#DejaVuSans-Oblique-6f" transform="translate(477.011394 0.015625)"/>
      <use xlink:href="#DejaVuSans-Oblique-6c" transform="translate(538.193035 0.015625)"/>
      <use xlink:href="#DejaVuSans-29" transform="translate(565.976238 0.015625)"/>
     </g>
    </g>
   </g>
   <g id="line2d_42">
    <g clip-path="url(#p3ed1ee3f25)">
     <use xlink:href="#ma0d975c89e" x="296.8" y="275.585611" style="stroke: #000000"/>
     <use xlink:href="#ma0d975c89e" x="484.666667" y="461.875952" style="stroke: #000000"/>
    </g>
   </g>
   <g id="line2d_43">
    <path d="M 296.8 275.585611 
L 484.666667 454.052641 
" clip-path="url(#p3ed1ee3f25)" style="fill: none; stroke-dasharray: 5.55,2.4; stroke-dashoffset: 0; stroke: #ff0000; stroke-width: 1.5"/>
   </g>
   <g id="patch_13">
    <path d="M 296.8 471.190469 
L 296.8 266.271094 
" style="fill: none; stroke: #000000; stroke-width: 0.8; stroke-linejoin: miter; stroke-linecap: square"/>
   </g>
   <g id="patch_14">
    <path d="M 494.06 471.190469 
L 494.06 266.271094 
" style="fill: none; stroke: #000000; stroke-width: 0.8; stroke-linejoin: miter; stroke-linecap: square"/>
   </g>
   <g id="patch_15">
    <path d="M 296.8 471.190469 
L 494.06 471.190469 
" style="fill: none; stroke: #000000; stroke-width: 0.8; stroke-linejoin: miter; stroke-linecap: square"/>
   </g>
   <g id="patch_16">
    <path d="M 296.8 266.271094 
L 494.06 266.271094 
" style="fill: none; stroke: #000000; stroke-width: 0.8; stroke-linejoin: miter; stroke-linecap: square"/>
   </g>
   <g id="text_46">
    <!-- c) -->
    <g transform="translate(257.348 274.27875) scale(0.11 -0.11)">
     <defs>
      <path id="ArialMT-63" d="M 2588 1216 
L 3141 1144 
Q 3050 572 2676 248 
Q 2303 -75 1759 -75 
Q 1078 -75 664 370 
Q 250 816 250 1647 
Q 250 2184 428 2587 
Q 606 2991 970 3192 
Q 1334 3394 1763 3394 
Q 2303 3394 2647 3120 
Q 2991 2847 3088 2344 
L 2541 2259 
Q 2463 2594 2264 2762 
Q 2066 2931 1784 2931 
Q 1359 2931 1093 2626 
Q 828 2322 828 1663 
Q 828 994 1084 691 
Q 1341 388 1753 388 
Q 2084 388 2306 591 
Q 2528 794 2588 1216 
z
" transform="scale(0.015625)"/>
     </defs>
     <use xlink:href="#ArialMT-63"/>
     <use xlink:href="#ArialMT-29" x="50"/>
    </g>
   </g>
  </g>
 </g>
 <defs>
  <clipPath id="pce80e705ae">
   <rect x="51.46" y="19.751719" width="442.6" height="204.919375"/>
  </clipPath>
  <clipPath id="p393c3fb8aa">
   <rect x="51.46" y="266.271094" width="197.26" height="204.919375"/>
  </clipPath>
  <clipPath id="p3ed1ee3f25">
   <rect x="296.8" y="266.271094" width="197.26" height="204.919375"/>
  </clipPath>
 </defs>
</svg>
